<svg xmlns="http://www.w3.org/2000/svg" viewBox="0 0 1600 900" role="img" preserveAspectRatio="xMidYMid slice"><title>sai-gon-nha-trang-duyen-hai hero</title><defs><linearGradient id="g1xkhny5-sky" x1="0" y1="0" x2="0" y2="1"><stop offset="0%" stop-color="hsl(208.0 60.0% 52.0%)"/><stop offset="50%" stop-color="hsl(196.0 50.0% 66.0%)"/><stop offset="100%" stop-color="hsl(40.0 60.0% 76.0%)"/></linearGradient><radialGradient id="g1xkhny5-glow"><stop offset="0%" stop-color="hsl(42.0 90.0% 78.0% / 0.850)"/><stop offset="45%" stop-color="hsl(42.0 90.0% 78.0% / 0.250)"/><stop offset="100%" stop-color="hsl(42.0 90.0% 78.0% / 0.000)"/></radialGradient><linearGradient id="g1xkhny5-water" x1="0" y1="0" x2="0" y2="1"><stop offset="0%" stop-color="hsl(116.5 51.0% 52.6%)"/><stop offset="100%" stop-color="hsl(213.0 41.0% 15.2%)"/></linearGradient><radialGradient id="g1xkhny5-vig" cx="50%" cy="42%" r="75%"><stop offset="70%" stop-color="hsl(0 0% 0% / 0)"/><stop offset="100%" stop-color="hsl(0 0% 0% / 0.18)"/></radialGradient></defs><rect width="1600" height="498.4" fill="url(#g1xkhny5-sky)"/><rect y="497.4" width="1600" height="402.6" fill="hsl(167.5 41.3% 34.0%)"/><circle cx="746.8" cy="373.8" r="150" fill="url(#g1xkhny5-glow)"/><circle cx="746.8" cy="373.8" r="56" fill="hsl(42.0 90.0% 78.0%)"/><path d="M0 900 L0 386.2 Q0.0 386.2 38.1 414.3 Q76.2 442.5 114.3 438.7 Q152.4 434.8 190.5 440.4 Q228.6 446.0 266.7 425.8 Q304.8 405.7 342.9 381.0 Q381.0 356.3 419.0 299.5 Q457.1 242.7 495.2 275.7 Q533.3 308.6 571.4 334.0 Q609.5 359.5 647.6 356.6 Q685.7 353.7 723.8 342.6 Q761.9 331.5 800.0 339.5 Q838.1 347.4 876.2 350.2 Q914.3 352.9 952.4 361.7 Q990.5 370.4 1028.6 437.9 Q1066.7 505.3 1104.8 496.5 Q1142.9 487.7 1181.0 457.5 Q1219.0 427.3 1257.1 402.3 Q1295.2 377.4 1333.3 399.8 Q1371.4 422.3 1409.5 411.1 Q1447.6 400.0 1485.7 389.7 Q1523.8 379.5 1561.9 364.8 L1600 350.2 L1600 900 Z" fill="hsl(77.4 54.5% 63.7%)"/><path d="M0 900 L0 443.0 Q0.0 443.0 57.1 480.9 Q114.3 518.9 171.4 529.1 Q228.6 539.3 285.7 558.0 Q342.9 576.7 400.0 564.1 Q457.1 551.5 514.3 507.4 Q571.4 463.3 628.6 477.6 Q685.7 491.8 742.9 467.3 Q800.0 442.7 857.1 473.7 Q914.3 504.7 971.4 483.3 Q1028.6 462.0 1085.7 502.2 Q1142.9 542.4 1200.0 541.1 Q1257.1 539.8 1314.3 552.0 Q1371.4 564.1 1428.6 543.2 Q1485.7 522.3 1542.9 500.8 L1600 479.3 L1600 900 Z" fill="hsl(110.5 49.6% 52.8%)"/><path d="M0 900 L0 679.7 Q0.0 679.7 57.1 673.3 Q114.3 666.9 171.4 669.6 Q228.6 672.3 285.7 657.7 Q342.9 643.0 400.0 647.8 Q457.1 652.7 514.3 640.9 Q571.4 629.2 628.6 645.5 Q685.7 661.8 742.9 680.9 Q800.0 700.0 857.1 699.4 Q914.3 698.8 971.4 700.3 Q1028.6 701.9 1085.7 698.8 Q1142.9 695.7 1200.0 689.7 Q1257.1 683.6 1314.3 689.4 Q1371.4 695.2 1428.6 680.2 Q1485.7 665.1 1542.9 671.0 L1600 676.8 L1600 900 Z" fill="hsl(210.0 35.0% 20.0%)"/><rect y="498.4" width="1600" height="401.6" fill="url(#g1xkhny5-water)"/><g><rect x="786.9" y="518.4" width="42.5" height="3.2" rx="1.6" fill="hsl(42.0 90.0% 78.0% / 0.555)"/><rect x="807.2" y="532.2" width="23.3" height="3.2" rx="1.6" fill="hsl(42.0 90.0% 78.0% / 0.538)"/><rect x="769.7" y="542.4" width="51.7" height="3.2" rx="1.6" fill="hsl(42.0 90.0% 78.0% / 0.525)"/><rect x="799.0" y="561.8" width="31.6" height="3.2" rx="1.6" fill="hsl(42.0 90.0% 78.0% / 0.501)"/><rect x="793.7" y="577.5" width="37.7" height="3.2" rx="1.6" fill="hsl(42.0 90.0% 78.0% / 0.481)"/><rect x="775.0" y="589.3" width="48.6" height="3.2" rx="1.6" fill="hsl(42.0 90.0% 78.0% / 0.467)"/><rect x="774.0" y="601.6" width="55.2" height="3.2" rx="1.6" fill="hsl(42.0 90.0% 78.0% / 0.451)"/><rect x="750.9" y="623.7" width="39.2" height="3.2" rx="1.6" fill="hsl(42.0 90.0% 78.0% / 0.424)"/><rect x="770.4" y="638.7" width="24.0" height="3.2" rx="1.6" fill="hsl(42.0 90.0% 78.0% / 0.405)"/><rect x="769.5" y="649.6" width="54.8" height="3.2" rx="1.6" fill="hsl(42.0 90.0% 78.0% / 0.392)"/><rect x="805.1" y="663.4" width="44.2" height="3.2" rx="1.6" fill="hsl(42.0 90.0% 78.0% / 0.375)"/><rect x="715.0" y="677.1" width="69.4" height="3.2" rx="1.6" fill="hsl(42.0 90.0% 78.0% / 0.358)"/><rect x="804.4" y="693.1" width="65.3" height="3.2" rx="1.6" fill="hsl(42.0 90.0% 78.0% / 0.338)"/><rect x="715.3" y="708.8" width="79.9" height="3.2" rx="1.6" fill="hsl(42.0 90.0% 78.0% / 0.318)"/><rect x="795.1" y="722.0" width="79.5" height="3.2" rx="1.6" fill="hsl(42.0 90.0% 78.0% / 0.302)"/><rect x="745.6" y="740.0" width="73.8" height="3.2" rx="1.6" fill="hsl(42.0 90.0% 78.0% / 0.279)"/><rect x="824.9" y="753.8" width="52.0" height="3.2" rx="1.6" fill="hsl(42.0 90.0% 78.0% / 0.262)"/><rect x="716.3" y="773.0" width="37.9" height="3.2" rx="1.6" fill="hsl(42.0 90.0% 78.0% / 0.238)"/><rect x="765.9" y="784.8" width="96.2" height="3.2" rx="1.6" fill="hsl(42.0 90.0% 78.0% / 0.223)"/><rect x="740.4" y="801.5" width="50.4" height="3.2" rx="1.6" fill="hsl(42.0 90.0% 78.0% / 0.203)"/><rect x="850.5" y="816.3" width="30.3" height="3.2" rx="1.6" fill="hsl(42.0 90.0% 78.0% / 0.184)"/><rect x="757.2" y="826.3" width="27.1" height="3.2" rx="1.6" fill="hsl(42.0 90.0% 78.0% / 0.172)"/><rect x="839.6" y="846.0" width="32.9" height="3.2" rx="1.6" fill="hsl(42.0 90.0% 78.0% / 0.147)"/><rect x="759.9" y="854.5" width="87.0" height="3.2" rx="1.6" fill="hsl(42.0 90.0% 78.0% / 0.137)"/><rect x="791.6" y="871.9" width="87.2" height="3.2" rx="1.6" fill="hsl(42.0 90.0% 78.0% / 0.115)"/></g><rect width="1600" height="900" fill="url(#g1xkhny5-vig)"/></svg>