<svg xmlns="http://www.w3.org/2000/svg" viewBox="0 0 1600 900" role="img" preserveAspectRatio="xMidYMid slice"><title>sai-gon-nha-trang-duyen-hai s1</title><defs><linearGradient id="gr3f5t9-sky" x1="0" y1="0" x2="0" y2="1"><stop offset="0%" stop-color="hsl(208.0 60.0% 52.0%)"/><stop offset="50%" stop-color="hsl(196.0 50.0% 66.0%)"/><stop offset="100%" stop-color="hsl(40.0 60.0% 76.0%)"/></linearGradient><radialGradient id="gr3f5t9-glow"><stop offset="0%" stop-color="hsl(42.0 90.0% 78.0% / 0.850)"/><stop offset="45%" stop-color="hsl(42.0 90.0% 78.0% / 0.250)"/><stop offset="100%" stop-color="hsl(42.0 90.0% 78.0% / 0.000)"/></radialGradient><linearGradient id="gr3f5t9-water" x1="0" y1="0" x2="0" y2="1"><stop offset="0%" stop-color="hsl(116.5 51.0% 52.6%)"/><stop offset="100%" stop-color="hsl(213.0 41.0% 15.2%)"/></linearGradient><radialGradient id="gr3f5t9-vig" cx="50%" cy="42%" r="75%"><stop offset="70%" stop-color="hsl(0 0% 0% / 0)"/><stop offset="100%" stop-color="hsl(0 0% 0% / 0.18)"/></radialGradient></defs><rect width="1600" height="503.5" fill="url(#gr3f5t9-sky)"/><rect y="502.5" width="1600" height="397.5" fill="hsl(167.5 41.3% 34.0%)"/><circle cx="797.5" cy="377.6" r="150" fill="url(#gr3f5t9-glow)"/><circle cx="797.5" cy="377.6" r="56" fill="hsl(42.0 90.0% 78.0%)"/><path d="M0 900 L0 353.9 Q0.0 353.9 40.0 394.0 Q80.0 434.1 120.0 477.5 Q160.0 520.9 200.0 512.0 Q240.0 503.1 280.0 464.3 Q320.0 425.5 360.0 401.8 Q400.0 378.0 440.0 379.0 Q480.0 380.1 520.0 380.9 Q560.0 381.7 600.0 362.2 Q640.0 342.8 680.0 358.5 Q720.0 374.3 760.0 379.2 Q800.0 384.1 840.0 379.5 Q880.0 375.0 920.0 408.2 Q960.0 441.4 1000.0 473.0 Q1040.0 504.6 1080.0 502.5 Q1120.0 500.3 1160.0 470.6 Q1200.0 440.9 1240.0 391.9 Q1280.0 342.9 1320.0 354.9 Q1360.0 367.0 1400.0 377.4 Q1440.0 387.7 1480.0 371.8 Q1520.0 355.9 1560.0 351.5 L1600 347.1 L1600 900 Z" fill="hsl(77.4 54.5% 63.7%)"/><path d="M0 900 L0 610.2 Q0.0 610.2 42.1 618.9 Q84.2 627.6 126.3 608.8 Q168.4 590.0 210.5 563.3 Q252.6 536.7 294.7 535.5 Q336.8 534.4 378.9 531.8 Q421.1 529.2 463.2 517.7 Q505.3 506.2 547.4 519.5 Q589.5 532.7 631.6 514.6 Q673.7 496.5 715.8 489.0 Q757.9 481.5 800.0 508.9 Q842.1 536.4 884.2 559.3 Q926.3 582.2 968.4 593.1 Q1010.5 603.9 1052.6 610.3 Q1094.7 616.7 1136.8 602.5 Q1178.9 588.4 1221.1 551.7 Q1263.2 515.0 1305.3 502.1 Q1347.4 489.1 1389.5 511.2 Q1431.6 533.2 1473.7 528.7 Q1515.8 524.2 1557.9 512.3 L1600 500.4 L1600 900 Z" fill="hsl(110.5 49.6% 52.8%)"/><path d="M0 900 L0 679.0 Q0.0 679.0 57.1 696.6 Q114.3 714.3 171.4 716.8 Q228.6 719.4 285.7 696.6 Q342.9 673.9 400.0 656.4 Q457.1 638.8 514.3 650.6 Q571.4 662.4 628.6 649.5 Q685.7 636.5 742.9 634.8 Q800.0 633.1 857.1 624.3 Q914.3 615.4 971.4 645.5 Q1028.6 675.6 1085.7 687.0 Q1142.9 698.5 1200.0 703.4 Q1257.1 708.4 1314.3 694.2 Q1371.4 680.0 1428.6 673.4 Q1485.7 666.8 1542.9 662.2 L1600 657.6 L1600 900 Z" fill="hsl(210.0 35.0% 20.0%)"/><rect y="503.5" width="1600" height="396.5" fill="url(#gr3f5t9-water)"/><g><rect x="763.9" y="525.1" width="24.5" height="3.2" rx="1.6" fill="hsl(42.0 90.0% 78.0% / 0.553)"/><rect x="816.4" y="540.6" width="21.1" height="3.2" rx="1.6" fill="hsl(42.0 90.0% 78.0% / 0.533)"/><rect x="774.1" y="566.3" width="17.0" height="3.2" rx="1.6" fill="hsl(42.0 90.0% 78.0% / 0.501)"/><rect x="737.5" y="588.4" width="59.6" height="3.2" rx="1.6" fill="hsl(42.0 90.0% 78.0% / 0.473)"/><rect x="791.3" y="606.3" width="70.7" height="3.2" rx="1.6" fill="hsl(42.0 90.0% 78.0% / 0.450)"/><rect x="734.1" y="632.7" width="68.9" height="3.2" rx="1.6" fill="hsl(42.0 90.0% 78.0% / 0.417)"/><rect x="786.1" y="650.6" width="66.1" height="3.2" rx="1.6" fill="hsl(42.0 90.0% 78.0% / 0.395)"/><rect x="812.2" y="671.1" width="47.2" height="3.2" rx="1.6" fill="hsl(42.0 90.0% 78.0% / 0.369)"/><rect x="783.7" y="692.5" width="61.0" height="3.2" rx="1.6" fill="hsl(42.0 90.0% 78.0% / 0.342)"/><rect x="773.7" y="716.9" width="26.1" height="3.2" rx="1.6" fill="hsl(42.0 90.0% 78.0% / 0.311)"/><rect x="769.1" y="733.5" width="65.1" height="3.2" rx="1.6" fill="hsl(42.0 90.0% 78.0% / 0.290)"/><rect x="720.8" y="762.3" width="53.4" height="3.2" rx="1.6" fill="hsl(42.0 90.0% 78.0% / 0.254)"/><rect x="707.7" y="780.9" width="66.1" height="3.2" rx="1.6" fill="hsl(42.0 90.0% 78.0% / 0.230)"/><rect x="733.3" y="804.5" width="97.0" height="3.2" rx="1.6" fill="hsl(42.0 90.0% 78.0% / 0.200)"/><rect x="823.6" y="826.6" width="38.5" height="3.2" rx="1.6" fill="hsl(42.0 90.0% 78.0% / 0.173)"/><rect x="654.4" y="843.9" width="129.2" height="3.2" rx="1.6" fill="hsl(42.0 90.0% 78.0% / 0.151)"/><rect x="701.4" y="869.6" width="105.1" height="3.2" rx="1.6" fill="hsl(42.0 90.0% 78.0% / 0.118)"/></g><rect width="1600" height="900" fill="url(#gr3f5t9-vig)"/></svg>