<svg xmlns="http://www.w3.org/2000/svg" viewBox="0 0 1600 900" role="img" preserveAspectRatio="xMidYMid slice"><title>sai-gon-nha-trang-duyen-hai s2</title><defs><linearGradient id="g5ouoxc-sky" x1="0" y1="0" x2="0" y2="1"><stop offset="0%" stop-color="hsl(265.0 38.0% 26.0%)"/><stop offset="50%" stop-color="hsl(348.0 55.0% 46.0%)"/><stop offset="100%" stop-color="hsl(22.0 90.0% 58.0%)"/></linearGradient><radialGradient id="g5ouoxc-glow"><stop offset="0%" stop-color="hsl(24.0 95.0% 66.0% / 0.850)"/><stop offset="45%" stop-color="hsl(24.0 95.0% 66.0% / 0.250)"/><stop offset="100%" stop-color="hsl(24.0 95.0% 66.0% / 0.000)"/></radialGradient><radialGradient id="g5ouoxc-vig" cx="50%" cy="42%" r="75%"><stop offset="70%" stop-color="hsl(0 0% 0% / 0)"/><stop offset="100%" stop-color="hsl(0 0% 0% / 0.18)"/></radialGradient></defs><rect width="1600" height="532.9" fill="url(#g5ouoxc-sky)"/><rect y="531.9" width="1600" height="368.1" fill="hsl(305.5 43.5% 25.0%)"/><circle cx="607.3" cy="468.9" r="230" fill="url(#g5ouoxc-glow)"/><circle cx="607.3" cy="468.9" r="78" fill="hsl(24.0 95.0% 66.0%)"/><path d="M0 900 L0 268.4 Q0.0 268.4 40.0 299.7 Q80.0 331.0 120.0 322.8 Q160.0 314.6 200.0 355.9 Q240.0 397.2 280.0 433.3 Q320.0 469.5 360.0 463.3 Q400.0 457.1 440.0 446.3 Q480.0 435.6 520.0 440.2 Q560.0 444.8 600.0 448.0 Q640.0 451.2 680.0 464.3 Q720.0 477.3 760.0 495.9 Q800.0 514.5 840.0 501.3 Q880.0 488.2 920.0 466.6 Q960.0 445.1 1000.0 413.0 Q1040.0 380.9 1080.0 338.3 Q1120.0 295.8 1160.0 303.3 Q1200.0 310.8 1240.0 348.9 Q1280.0 387.0 1320.0 378.5 Q1360.0 370.0 1400.0 372.6 Q1440.0 375.2 1480.0 368.3 Q1520.0 361.4 1560.0 335.2 L1600 309.1 L1600 900 Z" fill="hsl(359.6 76.4% 48.3%)"/><path d="M0 900 L0 394.9 Q0.0 394.9 50.0 419.6 Q100.0 444.3 150.0 487.8 Q200.0 531.3 250.0 533.7 Q300.0 536.1 350.0 513.3 Q400.0 490.5 450.0 508.1 Q500.0 525.6 550.0 514.7 Q600.0 503.8 650.0 506.8 Q700.0 509.9 750.0 509.8 Q800.0 509.7 850.0 475.7 Q900.0 441.8 950.0 416.7 Q1000.0 391.6 1050.0 394.7 Q1100.0 397.9 1150.0 395.8 Q1200.0 393.7 1250.0 432.7 Q1300.0 471.6 1350.0 509.1 Q1400.0 546.7 1450.0 518.7 Q1500.0 490.8 1550.0 494.6 L1600 498.5 L1600 900 Z" fill="hsl(356.4 74.4% 46.9%)"/><path d="M0 900 L0 571.6 Q0.0 571.6 47.1 554.4 Q94.1 537.2 141.2 502.1 Q188.2 467.1 235.3 463.7 Q282.4 460.3 329.4 484.2 Q376.5 508.1 423.5 500.4 Q470.6 492.7 517.6 492.7 Q564.7 492.7 611.8 502.9 Q658.8 513.1 705.9 523.4 Q752.9 533.6 800.0 551.8 Q847.1 570.0 894.1 590.7 Q941.2 611.4 988.2 587.6 Q1035.3 563.7 1082.4 559.6 Q1129.4 555.4 1176.5 572.7 Q1223.5 590.1 1270.6 594.8 Q1317.6 599.5 1364.7 563.5 Q1411.8 527.6 1458.8 508.6 Q1505.9 489.6 1552.9 488.8 L1600 488.1 L1600 900 Z" fill="hsl(346.8 68.6% 42.8%)"/><path d="M0 900 L0 545.4 Q0.0 545.4 57.1 558.9 Q114.3 572.4 171.4 587.1 Q228.6 601.8 285.7 615.2 Q342.9 628.6 400.0 641.6 Q457.1 654.6 514.3 621.2 Q571.4 587.9 628.6 575.5 Q685.7 563.1 742.9 533.8 Q800.0 504.5 857.1 532.8 Q914.3 561.1 971.4 571.6 Q1028.6 582.0 1085.7 611.9 Q1142.9 641.8 1200.0 636.0 Q1257.1 630.1 1314.3 622.4 Q1371.4 614.8 1428.6 588.6 Q1485.7 562.4 1542.9 556.8 L1600 551.3 L1600 900 Z" fill="hsl(330.9 59.0% 36.0%)"/><path d="M0 900 L0 618.3 Q0.0 618.3 53.3 641.7 Q106.7 665.1 160.0 678.4 Q213.3 691.7 266.7 685.7 Q320.0 679.6 373.3 647.7 Q426.7 615.8 480.0 628.6 Q533.3 641.5 586.7 641.1 Q640.0 640.6 693.3 620.3 Q746.7 599.9 800.0 590.8 Q853.3 581.7 906.7 582.4 Q960.0 583.2 1013.3 617.5 Q1066.7 651.9 1120.0 643.8 Q1173.3 635.7 1226.7 632.8 Q1280.0 629.9 1333.3 647.4 Q1386.7 664.9 1440.0 674.7 Q1493.3 684.4 1546.7 680.9 L1600 677.3 L1600 900 Z" fill="hsl(308.6 45.4% 26.4%)"/><path d="M0 900 L0 683.9 Q0.0 683.9 57.1 685.1 Q114.3 686.4 171.4 682.2 Q228.6 678.0 285.7 646.3 Q342.9 614.6 400.0 627.1 Q457.1 639.6 514.3 653.8 Q571.4 668.1 628.6 695.0 Q685.7 721.9 742.9 716.1 Q800.0 710.3 857.1 689.0 Q914.3 667.8 971.4 681.8 Q1028.6 695.9 1085.7 680.0 Q1142.9 664.1 1200.0 650.5 Q1257.1 636.8 1314.3 641.6 Q1371.4 646.5 1428.6 664.7 Q1485.7 682.9 1542.9 706.1 L1600 729.3 L1600 900 Z" fill="hsl(280.0 28.0% 14.0%)"/><path d="M763.3 900 C518.2 718.4281608527526 878.1 606.9 884.1 536.9 L886.1 536.9 C894.1 606.9 1030.2 718.4281608527526 1275.3 900 Z" fill="hsl(280.0 15.4% 21.0%)"/><path d="M1019.3 900 C774.2 718.4281608527526 884.1 596.9 885.1 536.9" fill="none" stroke="hsl(45 30% 92% / 0.8)" stroke-width="7" stroke-dasharray="46 38" stroke-linecap="round"/><rect width="1600" height="900" fill="url(#g5ouoxc-vig)"/></svg>