<svg xmlns="http://www.w3.org/2000/svg" viewBox="0 0 1600 900" role="img" preserveAspectRatio="xMidYMid slice"><title>tu-le-khau-pha-tam-duong hero</title><defs><linearGradient id="g1ubwein-sky" x1="0" y1="0" x2="0" y2="1"><stop offset="0%" stop-color="hsl(248.0 42.0% 22.0%)"/><stop offset="50%" stop-color="hsl(330.0 45.0% 48.0%)"/><stop offset="100%" stop-color="hsl(28.0 85.0% 62.0%)"/></linearGradient><radialGradient id="g1ubwein-glow"><stop offset="0%" stop-color="hsl(35.0 95.0% 72.0% / 0.850)"/><stop offset="45%" stop-color="hsl(35.0 95.0% 72.0% / 0.250)"/><stop offset="100%" stop-color="hsl(35.0 95.0% 72.0% / 0.000)"/></radialGradient><linearGradient id="g1ubwein-fog2" x1="0" y1="0" x2="0" y2="1"><stop offset="0%" stop-color="hsl(40 20% 96% / 0)"/><stop offset="55%" stop-color="hsl(40 20% 96% / 0.27)"/><stop offset="100%" stop-color="hsl(40 20% 96% / 0)"/></linearGradient><radialGradient id="g1ubwein-vig" cx="50%" cy="42%" r="75%"><stop offset="70%" stop-color="hsl(0 0% 0% / 0)"/><stop offset="100%" stop-color="hsl(0 0% 0% / 0.18)"/></radialGradient></defs><rect width="1600" height="602.3" fill="url(#g1ubwein-sky)"/><rect y="601.3" width="1600" height="298.7" fill="hsl(293.5 40.0% 27.5%)"/><circle cx="1102.8" cy="554.1" r="200" fill="url(#g1ubwein-glow)"/><circle cx="1102.8" cy="554.1" r="64" fill="hsl(35.0 95.0% 72.0%)"/><path d="M0 900 L0 509.3 Q0.0 509.3 40.0 478.4 Q80.0 447.5 120.0 450.9 Q160.0 454.4 200.0 413.4 Q240.0 372.4 280.0 342.9 Q320.0 313.5 360.0 362.2 Q400.0 411.0 440.0 439.7 Q480.0 468.4 520.0 484.6 Q560.0 500.9 600.0 526.9 Q640.0 552.9 680.0 523.2 Q720.0 493.6 760.0 498.8 Q800.0 504.0 840.0 531.3 Q880.0 558.6 920.0 548.6 Q960.0 538.5 1000.0 543.1 Q1040.0 547.6 1080.0 528.8 Q1120.0 509.9 1160.0 463.7 Q1200.0 417.4 1240.0 376.7 Q1280.0 335.9 1320.0 351.5 Q1360.0 367.0 1400.0 376.9 Q1440.0 386.8 1480.0 414.5 Q1520.0 442.2 1560.0 469.1 L1600 495.9 L1600 900 Z" fill="hsl(0.3 71.8% 51.9%)"/><path d="M0 900 L0 638.7 Q0.0 638.7 53.3 614.6 Q106.7 590.4 160.0 569.0 Q213.3 547.6 266.7 492.5 Q320.0 437.5 373.3 447.7 Q426.7 457.9 480.0 440.2 Q533.3 422.4 586.7 460.8 Q640.0 499.2 693.3 486.4 Q746.7 473.6 800.0 481.2 Q853.3 488.8 906.7 492.0 Q960.0 495.1 1013.3 505.3 Q1066.7 515.4 1120.0 551.1 Q1173.3 586.8 1226.7 598.1 Q1280.0 609.4 1333.3 634.0 Q1386.7 658.5 1440.0 609.6 Q1493.3 560.7 1546.7 550.8 L1600 541.0 L1600 900 Z" fill="hsl(354.1 68.9% 49.6%)"/><path d="M0 900 L0 552.1 Q0.0 552.1 53.3 552.8 Q106.7 553.5 160.0 548.9 Q213.3 544.2 266.7 529.1 Q320.0 514.0 373.3 480.1 Q426.7 446.1 480.0 486.1 Q533.3 526.1 586.7 534.7 Q640.0 543.3 693.3 593.4 Q746.7 643.4 800.0 624.3 Q853.3 605.3 906.7 611.9 Q960.0 618.5 1013.3 615.3 Q1066.7 612.1 1120.0 625.5 Q1173.3 639.0 1226.7 624.5 Q1280.0 610.1 1333.3 542.7 Q1386.7 475.3 1440.0 480.0 Q1493.3 484.7 1546.7 480.9 L1600 477.2 L1600 900 Z" fill="hsl(335.7 60.1% 42.9%)"/><rect x="0" y="591.5" width="1600" height="231.9" fill="url(#g1ubwein-fog2)"/><path d="M0 900 L0 617.6 Q0.0 617.6 40.0 633.3 Q80.0 648.9 120.0 658.1 Q160.0 667.3 200.0 665.9 Q240.0 664.5 280.0 671.2 Q320.0 677.8 360.0 667.0 Q400.0 656.2 440.0 625.8 Q480.0 595.4 520.0 595.3 Q560.0 595.2 600.0 575.6 Q640.0 556.0 680.0 547.5 Q720.0 538.9 760.0 565.4 Q800.0 591.8 840.0 609.3 Q880.0 626.8 920.0 645.8 Q960.0 664.7 1000.0 688.2 Q1040.0 711.6 1080.0 697.4 Q1120.0 683.3 1160.0 684.1 Q1200.0 684.9 1240.0 657.7 Q1280.0 630.6 1320.0 589.5 Q1360.0 548.3 1400.0 550.9 Q1440.0 553.4 1480.0 545.1 Q1520.0 536.9 1560.0 543.5 L1600 550.1 L1600 900 Z" fill="hsl(305.0 45.5% 31.7%)"/><path d="M0 900 L0 713.4 Q0.0 713.4 44.4 722.0 Q88.9 730.7 133.3 702.8 Q177.8 674.8 222.2 658.3 Q266.7 641.8 311.1 641.7 Q355.6 641.6 400.0 642.2 Q444.4 642.8 488.9 652.8 Q533.3 662.7 577.8 685.3 Q622.2 707.9 666.7 695.6 Q711.1 683.3 755.6 681.4 Q800.0 679.5 844.4 712.7 Q888.9 745.9 933.3 751.5 Q977.8 757.1 1022.2 747.7 Q1066.7 738.3 1111.1 721.4 Q1155.6 704.5 1200.0 691.6 Q1244.4 678.6 1288.9 668.3 Q1333.3 657.9 1377.8 663.4 Q1422.2 668.9 1466.7 669.4 Q1511.1 669.9 1555.6 648.1 L1600 626.3 L1600 900 Z" fill="hsl(262.0 25.0% 16.0%)"/><rect width="1600" height="900" fill="url(#g1ubwein-vig)"/></svg>