<svg xmlns="http://www.w3.org/2000/svg" viewBox="0 0 1600 900" role="img" preserveAspectRatio="xMidYMid slice"><title>tu-le-khau-pha-tam-duong s1</title><defs><linearGradient id="gznk8m3-sky" x1="0" y1="0" x2="0" y2="1"><stop offset="0%" stop-color="hsl(248.0 42.0% 22.0%)"/><stop offset="50%" stop-color="hsl(330.0 45.0% 48.0%)"/><stop offset="100%" stop-color="hsl(28.0 85.0% 62.0%)"/></linearGradient><radialGradient id="gznk8m3-glow"><stop offset="0%" stop-color="hsl(35.0 95.0% 72.0% / 0.850)"/><stop offset="45%" stop-color="hsl(35.0 95.0% 72.0% / 0.250)"/><stop offset="100%" stop-color="hsl(35.0 95.0% 72.0% / 0.000)"/></radialGradient><radialGradient id="gznk8m3-vig" cx="50%" cy="42%" r="75%"><stop offset="70%" stop-color="hsl(0 0% 0% / 0)"/><stop offset="100%" stop-color="hsl(0 0% 0% / 0.18)"/></radialGradient></defs><rect width="1600" height="611.6" fill="url(#gznk8m3-sky)"/><rect y="610.6" width="1600" height="289.4" fill="hsl(293.5 40.0% 27.5%)"/><circle cx="1049.2" cy="562.7" r="200" fill="url(#gznk8m3-glow)"/><circle cx="1049.2" cy="562.7" r="64" fill="hsl(35.0 95.0% 72.0%)"/><path d="M0 900 L0 496.2 Q0.0 496.2 44.4 488.9 Q88.9 481.6 133.3 502.0 Q177.8 522.4 222.2 516.3 Q266.7 510.2 311.1 482.8 Q355.6 455.4 400.0 472.1 Q444.4 488.8 488.9 474.9 Q533.3 461.0 577.8 415.7 Q622.2 370.5 666.7 354.4 Q711.1 338.4 755.6 301.2 Q800.0 264.1 844.4 329.4 Q888.9 394.7 933.3 442.7 Q977.8 490.8 1022.2 504.6 Q1066.7 518.4 1111.1 556.2 Q1155.6 594.0 1200.0 552.1 Q1244.4 510.1 1288.9 481.1 Q1333.3 452.1 1377.8 435.9 Q1422.2 419.8 1466.7 381.4 Q1511.1 343.1 1555.6 369.3 L1600 395.4 L1600 900 Z" fill="hsl(0.3 71.8% 51.9%)"/><path d="M0 900 L0 491.4 Q0.0 491.4 53.3 527.3 Q106.7 563.1 160.0 599.4 Q213.3 635.8 266.7 607.7 Q320.0 579.7 373.3 555.2 Q426.7 530.7 480.0 516.6 Q533.3 502.6 586.7 465.4 Q640.0 428.1 693.3 455.1 Q746.7 482.0 800.0 502.2 Q853.3 522.3 906.7 513.0 Q960.0 503.7 1013.3 519.3 Q1066.7 534.9 1120.0 533.1 Q1173.3 531.3 1226.7 562.1 Q1280.0 593.0 1333.3 605.3 Q1386.7 617.5 1440.0 582.9 Q1493.3 548.2 1546.7 518.9 L1600 489.6 L1600 900 Z" fill="hsl(357.5 70.5% 50.9%)"/><path d="M0 900 L0 672.9 Q0.0 672.9 42.1 653.8 Q84.2 634.7 126.3 632.6 Q168.4 630.4 210.5 593.0 Q252.6 555.5 294.7 532.7 Q336.8 509.9 378.9 524.6 Q421.1 539.3 463.2 529.8 Q505.3 520.3 547.4 511.3 Q589.5 502.3 631.6 512.3 Q673.7 522.3 715.8 502.2 Q757.9 482.1 800.0 471.4 Q842.1 460.7 884.2 493.3 Q926.3 525.9 968.4 555.1 Q1010.5 584.3 1052.6 606.3 Q1094.7 628.3 1136.8 645.6 Q1178.9 662.8 1221.1 659.4 Q1263.2 656.0 1305.3 612.6 Q1347.4 569.3 1389.5 553.4 Q1431.6 537.5 1473.7 537.1 Q1515.8 536.7 1557.9 529.1 L1600 521.4 L1600 900 Z" fill="hsl(349.4 66.6% 47.9%)"/><path d="M0 900 L0 606.5 Q0.0 606.5 57.1 593.3 Q114.3 580.2 171.4 536.9 Q228.6 493.6 285.7 524.8 Q342.9 556.0 400.0 575.7 Q457.1 595.5 514.3 617.3 Q571.4 639.2 628.6 631.5 Q685.7 623.8 742.9 626.4 Q800.0 629.0 857.1 646.4 Q914.3 663.9 971.4 648.3 Q1028.6 632.8 1085.7 613.5 Q1142.9 594.2 1200.0 558.1 Q1257.1 522.0 1314.3 543.4 Q1371.4 564.8 1428.6 579.0 Q1485.7 593.3 1542.9 596.6 L1600 599.9 L1600 900 Z" fill="hsl(335.7 60.1% 42.9%)"/><path d="M0 900 L0 671.7 Q0.0 671.7 40.0 684.3 Q80.0 696.9 120.0 712.6 Q160.0 728.3 200.0 674.2 Q240.0 620.1 280.0 598.9 Q320.0 577.8 360.0 574.5 Q400.0 571.3 440.0 546.1 Q480.0 520.9 520.0 553.4 Q560.0 585.9 600.0 586.5 Q640.0 587.0 680.0 590.6 Q720.0 594.3 760.0 613.0 Q800.0 631.7 840.0 628.6 Q880.0 625.5 920.0 633.5 Q960.0 641.5 1000.0 671.0 Q1040.0 700.6 1080.0 676.1 Q1120.0 651.6 1160.0 646.3 Q1200.0 640.9 1240.0 589.7 Q1280.0 538.6 1320.0 523.4 Q1360.0 508.3 1400.0 519.8 Q1440.0 531.2 1480.0 542.0 Q1520.0 552.8 1560.0 605.3 L1600 657.8 L1600 900 Z" fill="hsl(316.6 51.0% 35.9%)"/><path d="M0 900 L0 710.1 Q0.0 710.1 42.1 724.2 Q84.2 738.4 126.3 729.3 Q168.4 720.2 210.5 695.8 Q252.6 671.4 294.7 663.3 Q336.8 655.2 378.9 639.7 Q421.1 624.3 463.2 619.3 Q505.3 614.3 547.4 624.8 Q589.5 635.4 631.6 665.2 Q673.7 695.0 715.8 698.8 Q757.9 702.6 800.0 708.3 Q842.1 714.0 884.2 716.5 Q926.3 718.9 968.4 707.7 Q1010.5 696.5 1052.6 677.8 Q1094.7 659.0 1136.8 665.3 Q1178.9 671.6 1221.1 676.0 Q1263.2 680.4 1305.3 674.3 Q1347.4 668.2 1389.5 648.2 Q1431.6 628.1 1473.7 632.8 Q1515.8 637.4 1557.9 641.8 L1600 646.2 L1600 900 Z" fill="hsl(292.0 39.3% 27.0%)"/><path d="M0 900 L0 710.3 Q0.0 710.3 53.3 699.1 Q106.7 688.0 160.0 686.9 Q213.3 685.9 266.7 688.5 Q320.0 691.2 373.3 677.7 Q426.7 664.2 480.0 673.4 Q533.3 682.6 586.7 677.6 Q640.0 672.6 693.3 693.0 Q746.7 713.3 800.0 727.1 Q853.3 741.0 906.7 752.2 Q960.0 763.4 1013.3 759.6 Q1066.7 755.7 1120.0 727.6 Q1173.3 699.5 1226.7 695.1 Q1280.0 690.7 1333.3 680.3 Q1386.7 669.9 1440.0 676.5 Q1493.3 683.1 1546.7 691.0 L1600 698.8 L1600 900 Z" fill="hsl(262.0 25.0% 16.0%)"/><path d="M514.7 900 C431.0 757.7891588248312 629.2 685.6 635.2 615.6 L637.2 615.6 C645.2 685.6 943.0 757.7891588248312 1026.7 900 Z" fill="hsl(262.0 14.5% 21.6%)"/><path d="M770.7 900 C687.0 757.7891588248312 635.2 675.6 636.2 615.6" fill="none" stroke="hsl(45 30% 92% / 0.8)" stroke-width="7" stroke-dasharray="46 38" stroke-linecap="round"/><rect width="1600" height="900" fill="url(#gznk8m3-vig)"/></svg>