<svg xmlns="http://www.w3.org/2000/svg" viewBox="0 0 1600 900" role="img" preserveAspectRatio="xMidYMid slice"><title>tu-le-khau-pha-tam-duong s2</title><defs><linearGradient id="g1o0wswa-sky" x1="0" y1="0" x2="0" y2="1"><stop offset="0%" stop-color="hsl(210.0 14.0% 74.0%)"/><stop offset="50%" stop-color="hsl(210.0 12.0% 82.0%)"/><stop offset="100%" stop-color="hsl(36.0 18.0% 86.0%)"/></linearGradient><radialGradient id="g1o0wswa-glow"><stop offset="0%" stop-color="hsl(40.0 30.0% 92.0% / 0.850)"/><stop offset="45%" stop-color="hsl(40.0 30.0% 92.0% / 0.250)"/><stop offset="100%" stop-color="hsl(40.0 30.0% 92.0% / 0.000)"/></radialGradient><linearGradient id="g1o0wswa-fog0" x1="0" y1="0" x2="0" y2="1"><stop offset="0%" stop-color="hsl(40 20% 96% / 0)"/><stop offset="55%" stop-color="hsl(40 20% 96% / 0.35)"/><stop offset="100%" stop-color="hsl(40 20% 96% / 0)"/></linearGradient><linearGradient id="g1o0wswa-fog1" x1="0" y1="0" x2="0" y2="1"><stop offset="0%" stop-color="hsl(40 20% 96% / 0)"/><stop offset="55%" stop-color="hsl(40 20% 96% / 0.23)"/><stop offset="100%" stop-color="hsl(40 20% 96% / 0)"/></linearGradient><linearGradient id="g1o0wswa-fog3" x1="0" y1="0" x2="0" y2="1"><stop offset="0%" stop-color="hsl(40 20% 96% / 0)"/><stop offset="55%" stop-color="hsl(40 20% 96% / 0.17)"/><stop offset="100%" stop-color="hsl(40 20% 96% / 0)"/></linearGradient><linearGradient id="g1o0wswa-fog4" x1="0" y1="0" x2="0" y2="1"><stop offset="0%" stop-color="hsl(40 20% 96% / 0)"/><stop offset="55%" stop-color="hsl(40 20% 96% / 0.19)"/><stop offset="100%" stop-color="hsl(40 20% 96% / 0)"/></linearGradient><radialGradient id="g1o0wswa-vig" cx="50%" cy="42%" r="75%"><stop offset="70%" stop-color="hsl(0 0% 0% / 0)"/><stop offset="100%" stop-color="hsl(0 0% 0% / 0.18)"/></radialGradient></defs><rect width="1600" height="606.4" fill="url(#g1o0wswa-sky)"/><rect y="605.4" width="1600" height="294.6" fill="hsl(168.0 16.5% 44.0%)"/><circle cx="973.8" cy="272.9" r="90" fill="url(#g1o0wswa-glow)"/><circle cx="973.8" cy="272.9" r="46" fill="hsl(40.0 30.0% 92.0%)"/><path d="M0 900 L0 558.6 Q0.0 558.6 53.3 516.1 Q106.7 473.6 160.0 496.8 Q213.3 520.0 266.7 497.6 Q320.0 475.2 373.3 453.1 Q426.7 431.0 480.0 388.7 Q533.3 346.3 586.7 339.5 Q640.0 332.6 693.3 392.5 Q746.7 452.4 800.0 480.7 Q853.3 509.1 906.7 521.0 Q960.0 532.9 1013.3 525.3 Q1066.7 517.7 1120.0 504.6 Q1173.3 491.5 1226.7 522.4 Q1280.0 553.2 1333.3 491.0 Q1386.7 428.9 1440.0 380.9 Q1493.3 332.9 1546.7 343.3 L1600 353.8 L1600 900 Z" fill="hsl(74.7 17.6% 73.7%)"/><rect x="0" y="492.5" width="1600" height="295.9" fill="url(#g1o0wswa-fog0)"/><path d="M0 900 L0 407.9 Q0.0 407.9 40.0 422.5 Q80.0 437.2 120.0 434.8 Q160.0 432.4 200.0 452.4 Q240.0 472.4 280.0 432.9 Q320.0 393.4 360.0 384.2 Q400.0 375.1 440.0 424.5 Q480.0 473.9 520.0 473.8 Q560.0 473.8 600.0 520.6 Q640.0 567.5 680.0 589.4 Q720.0 611.2 760.0 589.6 Q800.0 567.9 840.0 571.2 Q880.0 574.5 920.0 543.2 Q960.0 511.8 1000.0 521.7 Q1040.0 531.5 1080.0 552.7 Q1120.0 573.8 1160.0 540.0 Q1200.0 506.2 1240.0 526.7 Q1280.0 547.2 1320.0 488.3 Q1360.0 429.3 1400.0 397.6 Q1440.0 365.9 1480.0 379.0 Q1520.0 392.1 1560.0 378.1 L1600 364.0 L1600 900 Z" fill="hsl(80.2 17.5% 71.9%)"/><rect x="0" y="522.9" width="1600" height="293.6" fill="url(#g1o0wswa-fog1)"/><path d="M0 900 L0 649.5 Q0.0 649.5 38.1 622.1 Q76.2 594.6 114.3 581.6 Q152.4 568.7 190.5 565.8 Q228.6 562.9 266.7 544.8 Q304.8 526.6 342.9 540.5 Q381.0 554.4 419.0 558.0 Q457.1 561.5 495.2 550.9 Q533.3 540.4 571.4 554.3 Q609.5 568.1 647.6 567.9 Q685.7 567.7 723.8 584.2 Q761.9 600.7 800.0 620.2 Q838.1 639.6 876.2 631.8 Q914.3 624.0 952.4 629.3 Q990.5 634.5 1028.6 619.6 Q1066.7 604.7 1104.8 569.6 Q1142.9 534.6 1181.0 526.5 Q1219.0 518.4 1257.1 507.4 Q1295.2 496.3 1333.3 495.4 Q1371.4 494.4 1409.5 532.6 Q1447.6 570.8 1485.7 584.0 Q1523.8 597.2 1561.9 633.1 L1600 669.1 L1600 900 Z" fill="hsl(96.7 17.3% 66.7%)"/><path d="M0 900 L0 503.5 Q0.0 503.5 44.4 551.7 Q88.9 600.0 133.3 618.3 Q177.8 636.5 222.2 635.0 Q266.7 633.4 311.1 634.4 Q355.6 635.4 400.0 627.7 Q444.4 619.9 488.9 643.6 Q533.3 667.2 577.8 640.3 Q622.2 613.4 666.7 584.6 Q711.1 555.7 755.6 538.6 Q800.0 521.5 844.4 512.5 Q888.9 503.6 933.3 553.7 Q977.8 603.8 1022.2 612.9 Q1066.7 621.9 1111.1 640.4 Q1155.6 658.9 1200.0 644.3 Q1244.4 629.6 1288.9 628.0 Q1333.3 626.3 1377.8 640.9 Q1422.2 655.5 1466.7 631.5 Q1511.1 607.5 1555.6 594.0 L1600 580.5 L1600 900 Z" fill="hsl(124.1 17.0% 58.0%)"/><rect x="0" y="622.0" width="1600" height="202.7" fill="url(#g1o0wswa-fog3)"/><path d="M0 900 L0 668.0 Q0.0 668.0 42.1 680.5 Q84.2 693.1 126.3 717.4 Q168.4 741.8 210.5 719.8 Q252.6 697.8 294.7 692.3 Q336.8 686.8 378.9 657.5 Q421.1 628.3 463.2 610.0 Q505.3 591.6 547.4 608.0 Q589.5 624.3 631.6 623.1 Q673.7 621.9 715.8 631.0 Q757.9 640.1 800.0 654.5 Q842.1 669.0 884.2 654.9 Q926.3 640.8 968.4 656.1 Q1010.5 671.5 1052.6 681.6 Q1094.7 691.8 1136.8 693.0 Q1178.9 694.1 1221.1 713.7 Q1263.2 733.3 1305.3 716.2 Q1347.4 699.2 1389.5 676.5 Q1431.6 653.8 1473.7 638.2 Q1515.8 622.6 1557.9 603.7 L1600 584.7 L1600 900 Z" fill="hsl(162.6 16.6% 45.7%)"/><rect x="0" y="674.4" width="1600" height="150.8" fill="url(#g1o0wswa-fog4)"/><path d="M0 900 L0 754.9 Q0.0 754.9 42.1 744.8 Q84.2 734.7 126.3 720.1 Q168.4 705.4 210.5 707.3 Q252.6 709.2 294.7 715.6 Q336.8 722.0 378.9 712.2 Q421.1 702.4 463.2 711.8 Q505.3 721.2 547.4 714.5 Q589.5 707.8 631.6 679.0 Q673.7 650.3 715.8 643.5 Q757.9 636.8 800.0 637.3 Q842.1 637.9 884.2 631.5 Q926.3 625.2 968.4 643.9 Q1010.5 662.7 1052.6 683.4 Q1094.7 704.1 1136.8 699.5 Q1178.9 694.8 1221.1 710.2 Q1263.2 725.5 1305.3 717.9 Q1347.4 710.3 1389.5 699.6 Q1431.6 688.9 1473.7 707.6 Q1515.8 726.3 1557.9 726.1 L1600 725.9 L1600 900 Z" fill="hsl(212.0 16.0% 30.0%)"/><rect width="1600" height="900" fill="url(#g1o0wswa-vig)"/></svg>