<svg xmlns="http://www.w3.org/2000/svg" viewBox="0 0 1600 900" role="img" preserveAspectRatio="xMidYMid slice"><title>buon-ma-thuot-mua-thu-hoach-ca-phe hero</title><defs><linearGradient id="g1qehxpm-sky" x1="0" y1="0" x2="0" y2="1"><stop offset="0%" stop-color="hsl(265.0 38.0% 26.0%)"/><stop offset="50%" stop-color="hsl(348.0 55.0% 46.0%)"/><stop offset="100%" stop-color="hsl(22.0 90.0% 58.0%)"/></linearGradient><radialGradient id="g1qehxpm-glow"><stop offset="0%" stop-color="hsl(24.0 95.0% 66.0% / 0.850)"/><stop offset="45%" stop-color="hsl(24.0 95.0% 66.0% / 0.250)"/><stop offset="100%" stop-color="hsl(24.0 95.0% 66.0% / 0.000)"/></radialGradient><radialGradient id="g1qehxpm-vig" cx="50%" cy="42%" r="75%"><stop offset="70%" stop-color="hsl(0 0% 0% / 0)"/><stop offset="100%" stop-color="hsl(0 0% 0% / 0.18)"/></radialGradient></defs><rect width="1600" height="570.7" fill="url(#g1qehxpm-sky)"/><rect y="569.7" width="1600" height="330.3" fill="hsl(305.5 43.5% 25.0%)"/><circle cx="826.5" cy="502.2" r="230" fill="url(#g1qehxpm-glow)"/><circle cx="826.5" cy="502.2" r="78" fill="hsl(24.0 95.0% 66.0%)"/><path d="M0 900 L0 350.7 Q0.0 350.7 44.4 336.5 Q88.9 322.2 133.3 306.2 Q177.8 290.2 222.2 322.3 Q266.7 354.4 311.1 385.8 Q355.6 417.1 400.0 351.5 Q444.4 285.9 488.9 326.8 Q533.3 367.6 577.8 428.9 Q622.2 490.2 666.7 514.7 Q711.1 539.2 755.6 543.3 Q800.0 547.5 844.4 495.2 Q888.9 442.9 933.3 400.7 Q977.8 358.4 1022.2 350.8 Q1066.7 343.1 1111.1 350.0 Q1155.6 356.9 1200.0 318.0 Q1244.4 279.2 1288.9 302.3 Q1333.3 325.3 1377.8 322.3 Q1422.2 319.3 1466.7 385.5 Q1511.1 451.7 1555.6 501.0 L1600 550.2 L1600 900 Z" fill="hsl(359.6 76.4% 48.3%)"/><path d="M0 900 L0 565.1 Q0.0 565.1 53.3 576.5 Q106.7 588.0 160.0 574.9 Q213.3 561.9 266.7 553.3 Q320.0 544.7 373.3 489.3 Q426.7 434.0 480.0 453.8 Q533.3 473.7 586.7 472.7 Q640.0 471.7 693.3 485.7 Q746.7 499.7 800.0 502.6 Q853.3 505.6 906.7 494.9 Q960.0 484.2 1013.3 543.5 Q1066.7 602.8 1120.0 597.5 Q1173.3 592.1 1226.7 579.7 Q1280.0 567.3 1333.3 530.8 Q1386.7 494.4 1440.0 479.1 Q1493.3 463.9 1546.7 477.9 L1600 491.9 L1600 900 Z" fill="hsl(354.6 73.3% 46.2%)"/><path d="M0 900 L0 537.7 Q0.0 537.7 47.1 542.0 Q94.1 546.3 141.2 537.9 Q188.2 529.5 235.3 544.0 Q282.4 558.5 329.4 540.4 Q376.5 522.3 423.5 497.3 Q470.6 472.4 517.6 499.6 Q564.7 526.8 611.8 551.5 Q658.8 576.1 705.9 599.2 Q752.9 622.4 800.0 641.4 Q847.1 660.5 894.1 634.6 Q941.2 608.6 988.2 582.9 Q1035.3 557.2 1082.4 577.8 Q1129.4 598.4 1176.5 599.5 Q1223.5 600.7 1270.6 589.5 Q1317.6 578.4 1364.7 552.4 Q1411.8 526.5 1458.8 505.5 Q1505.9 484.5 1552.9 501.8 L1600 519.2 L1600 900 Z" fill="hsl(339.7 64.3% 39.7%)"/><path d="M0 900 L0 644.8 Q0.0 644.8 50.0 629.2 Q100.0 613.6 150.0 601.3 Q200.0 589.0 250.0 570.0 Q300.0 551.0 350.0 549.9 Q400.0 548.8 450.0 559.6 Q500.0 570.4 550.0 612.5 Q600.0 654.6 650.0 651.0 Q700.0 647.3 750.0 643.3 Q800.0 639.3 850.0 643.5 Q900.0 647.8 950.0 653.9 Q1000.0 660.0 1050.0 661.5 Q1100.0 663.1 1150.0 631.4 Q1200.0 599.8 1250.0 591.0 Q1300.0 582.2 1350.0 563.9 Q1400.0 545.6 1450.0 560.2 Q1500.0 574.8 1550.0 590.2 L1600 605.6 L1600 900 Z" fill="hsl(314.8 49.2% 29.0%)"/><path d="M0 900 L0 705.1 Q0.0 705.1 42.1 701.0 Q84.2 696.9 126.3 680.3 Q168.4 663.6 210.5 652.1 Q252.6 640.7 294.7 655.9 Q336.8 671.2 378.9 671.7 Q421.1 672.3 463.2 679.2 Q505.3 686.1 547.4 701.7 Q589.5 717.3 631.6 712.3 Q673.7 707.4 715.8 717.3 Q757.9 727.2 800.0 727.2 Q842.1 727.2 884.2 721.2 Q926.3 715.3 968.4 715.0 Q1010.5 714.8 1052.6 708.2 Q1094.7 701.6 1136.8 707.7 Q1178.9 713.8 1221.1 720.7 Q1263.2 727.7 1305.3 717.1 Q1347.4 706.4 1389.5 701.0 Q1431.6 695.5 1473.7 688.0 Q1515.8 680.5 1557.9 663.6 L1600 646.6 L1600 900 Z" fill="hsl(280.0 28.0% 14.0%)"/><path d="M473.1 900 C259.7 737.3656993033364 813.6 644.7 819.6 574.7 L821.6 574.7 C829.6 644.7 771.7 737.3656993033364 985.1 900 Z" fill="hsl(280.0 15.4% 21.0%)"/><path d="M729.1 900 C515.7 737.3656993033364 819.6 634.7 820.6 574.7" fill="none" stroke="hsl(45 30% 92% / 0.8)" stroke-width="7" stroke-dasharray="46 38" stroke-linecap="round"/><rect width="1600" height="900" fill="url(#g1qehxpm-vig)"/></svg>