<svg xmlns="http://www.w3.org/2000/svg" viewBox="0 0 1600 900" role="img" preserveAspectRatio="xMidYMid slice"><title>buon-ma-thuot-mua-thu-hoach-ca-phe s1</title><defs><linearGradient id="g1wrxsye-sky" x1="0" y1="0" x2="0" y2="1"><stop offset="0%" stop-color="hsl(265.0 38.0% 26.0%)"/><stop offset="50%" stop-color="hsl(348.0 55.0% 46.0%)"/><stop offset="100%" stop-color="hsl(22.0 90.0% 58.0%)"/></linearGradient><radialGradient id="g1wrxsye-glow"><stop offset="0%" stop-color="hsl(24.0 95.0% 66.0% / 0.850)"/><stop offset="45%" stop-color="hsl(24.0 95.0% 66.0% / 0.250)"/><stop offset="100%" stop-color="hsl(24.0 95.0% 66.0% / 0.000)"/></radialGradient><radialGradient id="g1wrxsye-vig" cx="50%" cy="42%" r="75%"><stop offset="70%" stop-color="hsl(0 0% 0% / 0)"/><stop offset="100%" stop-color="hsl(0 0% 0% / 0.18)"/></radialGradient></defs><rect width="1600" height="558.5" fill="url(#g1wrxsye-sky)"/><rect y="557.5" width="1600" height="342.5" fill="hsl(305.5 43.5% 25.0%)"/><circle cx="404.1" cy="491.5" r="230" fill="url(#g1wrxsye-glow)"/><circle cx="404.1" cy="491.5" r="78" fill="hsl(24.0 95.0% 66.0%)"/><path d="M0 900 L0 302.9 Q0.0 302.9 47.1 313.8 Q94.1 324.7 141.2 331.5 Q188.2 338.4 235.3 379.4 Q282.4 420.4 329.4 419.1 Q376.5 417.9 423.5 437.4 Q470.6 456.8 517.6 471.3 Q564.7 485.8 611.8 498.4 Q658.8 511.0 705.9 513.6 Q752.9 516.2 800.0 459.4 Q847.1 402.7 894.1 367.4 Q941.2 332.1 988.2 307.1 Q1035.3 282.0 1082.4 295.2 Q1129.4 308.4 1176.5 361.3 Q1223.5 414.2 1270.6 416.7 Q1317.6 419.2 1364.7 439.6 Q1411.8 460.1 1458.8 451.7 Q1505.9 443.3 1552.9 468.5 L1600 493.7 L1600 900 Z" fill="hsl(359.6 76.4% 48.3%)"/><path d="M0 900 L0 591.1 Q0.0 591.1 57.1 547.4 Q114.3 503.7 171.4 486.6 Q228.6 469.4 285.7 417.8 Q342.9 366.2 400.0 366.2 Q457.1 366.2 514.3 415.9 Q571.4 465.6 628.6 486.1 Q685.7 506.5 742.9 565.2 Q800.0 623.8 857.1 592.1 Q914.3 560.4 971.4 519.7 Q1028.6 479.1 1085.7 440.5 Q1142.9 401.9 1200.0 386.1 Q1257.1 370.2 1314.3 410.7 Q1371.4 451.2 1428.6 477.6 Q1485.7 504.1 1542.9 536.3 L1600 568.5 L1600 900 Z" fill="hsl(356.4 74.4% 46.9%)"/><path d="M0 900 L0 610.6 Q0.0 610.6 44.4 608.5 Q88.9 606.3 133.3 565.1 Q177.8 523.9 222.2 493.9 Q266.7 463.9 311.1 466.4 Q355.6 468.9 400.0 489.3 Q444.4 509.8 488.9 526.4 Q533.3 543.0 577.8 575.7 Q622.2 608.4 666.7 590.5 Q711.1 572.6 755.6 580.4 Q800.0 588.1 844.4 593.1 Q888.9 598.1 933.3 571.5 Q977.8 544.9 1022.2 538.2 Q1066.7 531.5 1111.1 495.2 Q1155.6 458.9 1200.0 465.9 Q1244.4 472.9 1288.9 497.0 Q1333.3 521.1 1377.8 544.2 Q1422.2 567.2 1466.7 585.1 Q1511.1 602.9 1555.6 600.8 L1600 598.7 L1600 900 Z" fill="hsl(346.8 68.6% 42.8%)"/><path d="M0 900 L0 556.8 Q0.0 556.8 40.0 547.0 Q80.0 537.2 120.0 536.2 Q160.0 535.3 200.0 547.4 Q240.0 559.4 280.0 573.1 Q320.0 586.8 360.0 593.5 Q400.0 600.3 440.0 594.7 Q480.0 589.2 520.0 591.1 Q560.0 593.0 600.0 621.3 Q640.0 649.5 680.0 657.6 Q720.0 665.7 760.0 666.6 Q800.0 667.6 840.0 646.8 Q880.0 626.1 920.0 619.6 Q960.0 613.1 1000.0 588.1 Q1040.0 563.0 1080.0 547.1 Q1120.0 531.3 1160.0 545.8 Q1200.0 560.4 1240.0 579.9 Q1280.0 599.4 1320.0 573.0 Q1360.0 546.6 1400.0 540.6 Q1440.0 534.7 1480.0 553.9 Q1520.0 573.0 1560.0 590.2 L1600 607.3 L1600 900 Z" fill="hsl(330.9 59.0% 36.0%)"/><path d="M0 900 L0 695.8 Q0.0 695.8 50.0 684.3 Q100.0 672.8 150.0 663.2 Q200.0 653.6 250.0 629.5 Q300.0 605.3 350.0 620.6 Q400.0 636.0 450.0 623.9 Q500.0 611.8 550.0 606.1 Q600.0 600.3 650.0 595.3 Q700.0 590.4 750.0 588.3 Q800.0 586.2 850.0 619.3 Q900.0 652.5 950.0 675.7 Q1000.0 698.9 1050.0 695.6 Q1100.0 692.4 1150.0 685.2 Q1200.0 678.1 1250.0 656.6 Q1300.0 635.2 1350.0 639.3 Q1400.0 643.4 1450.0 642.1 Q1500.0 640.8 1550.0 623.6 L1600 606.4 L1600 900 Z" fill="hsl(308.6 45.4% 26.4%)"/><path d="M0 900 L0 647.5 Q0.0 647.5 50.0 670.4 Q100.0 693.3 150.0 681.7 Q200.0 670.1 250.0 686.2 Q300.0 702.2 350.0 694.7 Q400.0 687.1 450.0 696.7 Q500.0 706.3 550.0 722.6 Q600.0 738.8 650.0 725.8 Q700.0 712.8 750.0 717.2 Q800.0 721.6 850.0 697.3 Q900.0 672.9 950.0 661.1 Q1000.0 649.3 1050.0 644.5 Q1100.0 639.8 1150.0 640.1 Q1200.0 640.4 1250.0 667.7 Q1300.0 695.0 1350.0 709.3 Q1400.0 723.5 1450.0 724.6 Q1500.0 725.6 1550.0 718.6 L1600 711.6 L1600 900 Z" fill="hsl(280.0 28.0% 14.0%)"/><path d="M301.8 900 C536.1 731.2547607049346 877.1 632.5 883.1 562.5 L885.1 562.5 C893.1 632.5 1048.1 731.2547607049346 813.8 900 Z" fill="hsl(280.0 15.4% 21.0%)"/><path d="M557.8 900 C792.1 731.2547607049346 883.1 622.5 884.1 562.5" fill="none" stroke="hsl(45 30% 92% / 0.8)" stroke-width="7" stroke-dasharray="46 38" stroke-linecap="round"/><rect width="1600" height="900" fill="url(#g1wrxsye-vig)"/></svg>