<svg xmlns="http://www.w3.org/2000/svg" viewBox="0 0 1600 900" role="img" preserveAspectRatio="xMidYMid slice"><title>buon-ma-thuot-mua-thu-hoach-ca-phe s2</title><defs><linearGradient id="gajgwrr-sky" x1="0" y1="0" x2="0" y2="1"><stop offset="0%" stop-color="hsl(232.0 45.0% 8.0%)"/><stop offset="50%" stop-color="hsl(228.0 40.0% 14.0%)"/><stop offset="100%" stop-color="hsl(222.0 35.0% 22.0%)"/></linearGradient><radialGradient id="gajgwrr-glow"><stop offset="0%" stop-color="hsl(48.0 35.0% 88.0% / 0.850)"/><stop offset="45%" stop-color="hsl(48.0 35.0% 88.0% / 0.250)"/><stop offset="100%" stop-color="hsl(48.0 35.0% 88.0% / 0.000)"/></radialGradient><radialGradient id="gajgwrr-vig" cx="50%" cy="42%" r="75%"><stop offset="70%" stop-color="hsl(0 0% 0% / 0)"/><stop offset="100%" stop-color="hsl(0 0% 0% / 0.18)"/></radialGradient></defs><rect width="1600" height="577.7" fill="url(#gajgwrr-sky)"/><rect y="576.7" width="1600" height="323.3" fill="hsl(226.5 31.3% 12.3%)"/><g><circle cx="976.7" cy="73.2" r="1.24" fill="hsl(50 30% 92% / 0.65)"/><circle cx="1177.0" cy="407.8" r="0.86" fill="hsl(50 30% 92% / 0.83)"/><circle cx="79.1" cy="394.3" r="1.01" fill="hsl(50 30% 92% / 0.71)"/><circle cx="1509.8" cy="144.7" r="1.10" fill="hsl(50 30% 92% / 0.43)"/><circle cx="452.9" cy="248.8" r="0.86" fill="hsl(50 30% 92% / 0.47)"/><circle cx="1014.5" cy="518.9" r="0.84" fill="hsl(50 30% 92% / 0.37)"/><circle cx="396.3" cy="100.1" r="1.11" fill="hsl(50 30% 92% / 0.65)"/><circle cx="599.0" cy="432.9" r="0.87" fill="hsl(50 30% 92% / 0.92)"/><circle cx="976.4" cy="358.2" r="0.77" fill="hsl(50 30% 92% / 0.44)"/><circle cx="65.3" cy="292.7" r="0.99" fill="hsl(50 30% 92% / 0.89)"/><circle cx="878.5" cy="170.0" r="0.81" fill="hsl(50 30% 92% / 0.92)"/><circle cx="444.8" cy="132.5" r="0.69" fill="hsl(50 30% 92% / 0.89)"/><circle cx="172.1" cy="110.9" r="0.62" fill="hsl(50 30% 92% / 0.90)"/><circle cx="1237.1" cy="182.8" r="0.75" fill="hsl(50 30% 92% / 0.50)"/><circle cx="1456.9" cy="169.8" r="0.67" fill="hsl(50 30% 92% / 0.85)"/><circle cx="527.5" cy="404.9" r="1.14" fill="hsl(50 30% 92% / 0.50)"/><circle cx="1382.2" cy="433.3" r="1.05" fill="hsl(50 30% 92% / 0.56)"/><circle cx="1136.2" cy="496.3" r="0.70" fill="hsl(50 30% 92% / 0.51)"/><circle cx="784.2" cy="203.8" r="0.84" fill="hsl(50 30% 92% / 0.38)"/><circle cx="1130.3" cy="508.6" r="0.87" fill="hsl(50 30% 92% / 0.52)"/><circle cx="252.7" cy="35.1" r="0.67" fill="hsl(50 30% 92% / 0.59)"/><circle cx="1308.8" cy="458.9" r="0.71" fill="hsl(50 30% 92% / 0.67)"/><circle cx="734.7" cy="436.9" r="0.85" fill="hsl(50 30% 92% / 0.72)"/><circle cx="1388.7" cy="359.9" r="0.81" fill="hsl(50 30% 92% / 0.76)"/><circle cx="1311.5" cy="45.6" r="0.69" fill="hsl(50 30% 92% / 0.82)"/><circle cx="1357.3" cy="206.8" r="1.07" fill="hsl(50 30% 92% / 0.53)"/><circle cx="313.7" cy="366.9" r="0.85" fill="hsl(50 30% 92% / 0.76)"/><circle cx="1071.8" cy="225.4" r="1.19" fill="hsl(50 30% 92% / 0.53)"/><circle cx="1229.8" cy="291.3" r="0.67" fill="hsl(50 30% 92% / 0.93)"/><circle cx="885.1" cy="339.0" r="0.93" fill="hsl(50 30% 92% / 0.84)"/><circle cx="269.8" cy="388.7" r="1.81" fill="hsl(50 30% 92% / 0.80)"/><circle cx="1427.1" cy="372.0" r="0.61" fill="hsl(50 30% 92% / 0.57)"/><circle cx="664.9" cy="521.7" r="0.90" fill="hsl(50 30% 92% / 0.60)"/><circle cx="1422.9" cy="318.5" r="0.96" fill="hsl(50 30% 92% / 0.92)"/><circle cx="1267.8" cy="223.6" r="0.88" fill="hsl(50 30% 92% / 0.46)"/><circle cx="1363.7" cy="489.9" r="1.29" fill="hsl(50 30% 92% / 0.84)"/><circle cx="1139.5" cy="464.9" r="0.91" fill="hsl(50 30% 92% / 0.84)"/><circle cx="1153.1" cy="123.0" r="0.61" fill="hsl(50 30% 92% / 0.69)"/><circle cx="1054.9" cy="66.9" r="1.22" fill="hsl(50 30% 92% / 0.55)"/><circle cx="1060.0" cy="70.6" r="2.48" fill="hsl(50 30% 92% / 0.68)"/><circle cx="238.1" cy="241.5" r="1.23" fill="hsl(50 30% 92% / 0.92)"/><circle cx="1227.1" cy="220.1" r="0.76" fill="hsl(50 30% 92% / 0.50)"/><circle cx="770.9" cy="458.3" r="2.05" fill="hsl(50 30% 92% / 0.51)"/><circle cx="835.4" cy="29.2" r="2.13" fill="hsl(50 30% 92% / 0.37)"/><circle cx="1380.7" cy="465.0" r="1.01" fill="hsl(50 30% 92% / 0.74)"/><circle cx="1541.8" cy="185.4" r="2.09" fill="hsl(50 30% 92% / 0.77)"/><circle cx="1260.4" cy="245.8" r="0.65" fill="hsl(50 30% 92% / 0.35)"/><circle cx="1526.4" cy="363.1" r="0.70" fill="hsl(50 30% 92% / 0.61)"/><circle cx="1257.8" cy="279.4" r="0.67" fill="hsl(50 30% 92% / 0.42)"/><circle cx="149.9" cy="360.2" r="0.92" fill="hsl(50 30% 92% / 0.56)"/><circle cx="400.1" cy="433.3" r="1.74" fill="hsl(50 30% 92% / 0.59)"/><circle cx="1436.5" cy="361.5" r="0.93" fill="hsl(50 30% 92% / 0.64)"/><circle cx="1115.6" cy="142.9" r="1.30" fill="hsl(50 30% 92% / 0.88)"/><circle cx="1502.6" cy="235.4" r="0.90" fill="hsl(50 30% 92% / 0.82)"/><circle cx="560.6" cy="192.5" r="0.98" fill="hsl(50 30% 92% / 0.47)"/><circle cx="1143.2" cy="93.5" r="1.08" fill="hsl(50 30% 92% / 0.91)"/><circle cx="405.4" cy="288.5" r="0.85" fill="hsl(50 30% 92% / 0.37)"/><circle cx="302.6" cy="298.7" r="1.20" fill="hsl(50 30% 92% / 0.51)"/><circle cx="1051.6" cy="214.2" r="1.14" fill="hsl(50 30% 92% / 0.66)"/><circle cx="980.4" cy="22.2" r="1.24" fill="hsl(50 30% 92% / 0.52)"/><circle cx="24.7" cy="294.5" r="1.11" fill="hsl(50 30% 92% / 0.58)"/><circle cx="66.7" cy="457.4" r="0.85" fill="hsl(50 30% 92% / 0.83)"/><circle cx="1513.3" cy="439.1" r="1.30" fill="hsl(50 30% 92% / 0.79)"/><circle cx="1377.6" cy="404.9" r="1.22" fill="hsl(50 30% 92% / 0.36)"/><circle cx="904.5" cy="82.5" r="0.64" fill="hsl(50 30% 92% / 0.70)"/><circle cx="29.1" cy="525.9" r="0.61" fill="hsl(50 30% 92% / 0.61)"/><circle cx="556.1" cy="442.1" r="0.80" fill="hsl(50 30% 92% / 0.73)"/><circle cx="1599.6" cy="321.7" r="1.11" fill="hsl(50 30% 92% / 0.89)"/><circle cx="60.1" cy="489.7" r="0.76" fill="hsl(50 30% 92% / 0.40)"/><circle cx="1546.4" cy="356.0" r="0.94" fill="hsl(50 30% 92% / 0.82)"/><circle cx="302.2" cy="241.2" r="0.84" fill="hsl(50 30% 92% / 0.87)"/><circle cx="1053.0" cy="323.9" r="0.77" fill="hsl(50 30% 92% / 0.43)"/><circle cx="598.2" cy="192.6" r="1.14" fill="hsl(50 30% 92% / 0.36)"/><circle cx="871.3" cy="353.8" r="0.83" fill="hsl(50 30% 92% / 0.87)"/><circle cx="459.6" cy="51.6" r="0.77" fill="hsl(50 30% 92% / 0.36)"/><circle cx="1597.0" cy="159.7" r="0.71" fill="hsl(50 30% 92% / 0.65)"/><circle cx="590.6" cy="360.4" r="0.98" fill="hsl(50 30% 92% / 0.75)"/><circle cx="1080.4" cy="70.6" r="0.81" fill="hsl(50 30% 92% / 0.69)"/><circle cx="50.5" cy="483.3" r="1.70" fill="hsl(50 30% 92% / 0.83)"/><circle cx="94.4" cy="438.9" r="1.26" fill="hsl(50 30% 92% / 0.92)"/><circle cx="313.5" cy="277.8" r="0.68" fill="hsl(50 30% 92% / 0.62)"/><circle cx="1314.2" cy="496.0" r="1.27" fill="hsl(50 30% 92% / 0.86)"/><circle cx="1252.4" cy="368.8" r="0.81" fill="hsl(50 30% 92% / 0.77)"/><circle cx="819.0" cy="389.1" r="0.88" fill="hsl(50 30% 92% / 0.63)"/><circle cx="278.4" cy="167.5" r="1.18" fill="hsl(50 30% 92% / 0.62)"/><circle cx="738.4" cy="204.7" r="0.92" fill="hsl(50 30% 92% / 0.61)"/><circle cx="626.6" cy="525.7" r="0.87" fill="hsl(50 30% 92% / 0.59)"/><circle cx="1361.2" cy="528.7" r="1.12" fill="hsl(50 30% 92% / 0.63)"/><circle cx="380.9" cy="420.0" r="0.99" fill="hsl(50 30% 92% / 0.55)"/><circle cx="973.4" cy="46.2" r="2.19" fill="hsl(50 30% 92% / 0.52)"/><circle cx="535.8" cy="248.3" r="1.24" fill="hsl(50 30% 92% / 0.35)"/><circle cx="576.8" cy="8.4" r="0.93" fill="hsl(50 30% 92% / 0.52)"/><circle cx="489.5" cy="257.2" r="1.07" fill="hsl(50 30% 92% / 0.61)"/><circle cx="1481.7" cy="5.8" r="0.69" fill="hsl(50 30% 92% / 0.50)"/><circle cx="584.9" cy="8.1" r="0.79" fill="hsl(50 30% 92% / 0.52)"/><circle cx="1021.3" cy="55.7" r="1.80" fill="hsl(50 30% 92% / 0.93)"/><circle cx="407.2" cy="227.1" r="1.09" fill="hsl(50 30% 92% / 0.73)"/><circle cx="202.6" cy="391.5" r="2.59" fill="hsl(50 30% 92% / 0.45)"/><circle cx="1415.1" cy="273.8" r="1.19" fill="hsl(50 30% 92% / 0.64)"/><circle cx="1524.3" cy="234.7" r="1.20" fill="hsl(50 30% 92% / 0.69)"/><circle cx="1051.6" cy="491.1" r="1.18" fill="hsl(50 30% 92% / 0.85)"/><circle cx="295.5" cy="327.1" r="0.91" fill="hsl(50 30% 92% / 0.62)"/><circle cx="288.4" cy="88.1" r="0.68" fill="hsl(50 30% 92% / 0.85)"/><circle cx="61.5" cy="183.3" r="1.20" fill="hsl(50 30% 92% / 0.77)"/><circle cx="662.6" cy="448.0" r="1.04" fill="hsl(50 30% 92% / 0.55)"/><circle cx="16.1" cy="316.3" r="1.12" fill="hsl(50 30% 92% / 0.71)"/><circle cx="580.5" cy="309.1" r="0.92" fill="hsl(50 30% 92% / 0.41)"/><circle cx="1534.2" cy="53.7" r="1.14" fill="hsl(50 30% 92% / 0.44)"/><circle cx="1471.3" cy="398.5" r="0.62" fill="hsl(50 30% 92% / 0.81)"/><circle cx="242.9" cy="442.3" r="0.97" fill="hsl(50 30% 92% / 0.93)"/><circle cx="948.9" cy="65.1" r="1.96" fill="hsl(50 30% 92% / 0.77)"/></g><circle cx="1053.0" cy="161.8" r="110" fill="url(#gajgwrr-glow)"/><circle cx="1053.0" cy="161.8" r="36" fill="hsl(48.0 35.0% 88.0%)"/><path d="M0 900 L0 484.5 Q0.0 484.5 50.0 475.5 Q100.0 466.5 150.0 488.6 Q200.0 510.6 250.0 497.7 Q300.0 484.7 350.0 489.3 Q400.0 494.0 450.0 476.2 Q500.0 458.5 550.0 382.0 Q600.0 305.4 650.0 312.5 Q700.0 319.5 750.0 338.1 Q800.0 356.6 850.0 414.7 Q900.0 472.7 950.0 496.5 Q1000.0 520.3 1050.0 485.5 Q1100.0 450.6 1150.0 458.4 Q1200.0 466.1 1250.0 468.7 Q1300.0 471.2 1350.0 463.6 Q1400.0 456.0 1450.0 445.4 Q1500.0 434.8 1550.0 355.5 L1600 276.3 L1600 900 Z" fill="hsl(223.3 33.9% 19.1%)"/><path d="M0 900 L0 598.2 Q0.0 598.2 40.0 540.9 Q80.0 483.7 120.0 471.3 Q160.0 459.0 200.0 430.4 Q240.0 401.9 280.0 407.7 Q320.0 413.4 360.0 456.7 Q400.0 500.0 440.0 526.7 Q480.0 553.3 520.0 535.9 Q560.0 518.5 600.0 537.1 Q640.0 555.7 680.0 553.4 Q720.0 551.2 760.0 545.1 Q800.0 539.0 840.0 551.2 Q880.0 563.3 920.0 541.0 Q960.0 518.7 1000.0 492.0 Q1040.0 465.3 1080.0 455.8 Q1120.0 446.4 1160.0 417.3 Q1200.0 388.2 1240.0 411.7 Q1280.0 435.3 1320.0 485.6 Q1360.0 535.9 1400.0 549.1 Q1440.0 562.3 1480.0 570.0 Q1520.0 577.8 1560.0 575.5 L1600 573.3 L1600 900 Z" fill="hsl(223.6 33.7% 18.5%)"/><path d="M0 900 L0 588.3 Q0.0 588.3 57.1 606.0 Q114.3 623.7 171.4 621.9 Q228.6 620.1 285.7 643.6 Q342.9 667.1 400.0 633.7 Q457.1 600.3 514.3 570.9 Q571.4 541.5 628.6 552.4 Q685.7 563.3 742.9 570.2 Q800.0 577.0 857.1 555.1 Q914.3 533.1 971.4 541.6 Q1028.6 550.2 1085.7 563.5 Q1142.9 576.8 1200.0 610.6 Q1257.1 644.5 1314.3 638.2 Q1371.4 631.8 1428.6 614.0 Q1485.7 596.2 1542.9 617.1 L1600 638.0 L1600 900 Z" fill="hsl(224.5 32.9% 16.6%)"/><path d="M0 900 L0 612.1 Q0.0 612.1 47.1 577.0 Q94.1 541.9 141.2 551.0 Q188.2 560.0 235.3 588.0 Q282.4 616.0 329.4 637.1 Q376.5 658.2 423.5 668.9 Q470.6 679.7 517.6 655.2 Q564.7 630.8 611.8 651.5 Q658.8 672.3 705.9 663.9 Q752.9 655.6 800.0 676.0 Q847.1 696.4 894.1 678.9 Q941.2 661.3 988.2 631.3 Q1035.3 601.4 1082.4 590.7 Q1129.4 580.0 1176.5 568.0 Q1223.5 556.0 1270.6 578.6 Q1317.6 601.2 1364.7 589.2 Q1411.8 577.1 1458.8 582.9 Q1505.9 588.7 1552.9 593.0 L1600 597.4 L1600 900 Z" fill="hsl(226.0 31.7% 13.4%)"/><path d="M0 900 L0 654.2 Q0.0 654.2 42.1 657.4 Q84.2 660.6 126.3 679.7 Q168.4 698.8 210.5 718.5 Q252.6 738.2 294.7 742.0 Q336.8 745.7 378.9 747.5 Q421.1 749.4 463.2 723.0 Q505.3 696.5 547.4 688.1 Q589.5 679.7 631.6 670.0 Q673.7 660.2 715.8 657.2 Q757.9 654.2 800.0 655.3 Q842.1 656.4 884.2 654.5 Q926.3 652.6 968.4 667.8 Q1010.5 683.1 1052.6 667.9 Q1094.7 652.7 1136.8 667.5 Q1178.9 682.4 1221.1 681.9 Q1263.2 681.4 1305.3 695.0 Q1347.4 708.7 1389.5 729.8 Q1431.6 751.0 1473.7 736.0 Q1515.8 721.0 1557.9 731.8 L1600 742.7 L1600 900 Z" fill="hsl(228.0 30.0% 9.0%)"/><path d="M850.1 900 C630.6 740.8599518500268 635.2 651.7 641.2 581.7 L643.2 581.7 C651.2 651.7 1142.6 740.8599518500268 1362.1 900 Z" fill="hsl(228.0 22.0% 13.0%)"/><path d="M1106.1 900 C886.6 740.8599518500268 641.2 641.7 642.2 581.7" fill="none" stroke="hsl(45 90% 70% / 0.85)" stroke-width="7" stroke-dasharray="46 38" stroke-linecap="round"/><rect width="1600" height="900" fill="url(#gajgwrr-vig)"/></svg>