<svg xmlns="http://www.w3.org/2000/svg" viewBox="0 0 1600 900" role="img" preserveAspectRatio="xMidYMid slice"><title>ta-nang-phan-dung-bang-xe hero</title><defs><linearGradient id="g1rj9wrn-sky" x1="0" y1="0" x2="0" y2="1"><stop offset="0%" stop-color="hsl(210.0 45.0% 62.0%)"/><stop offset="50%" stop-color="hsl(195.0 35.0% 74.0%)"/><stop offset="100%" stop-color="hsl(50.0 55.0% 78.0%)"/></linearGradient><radialGradient id="g1rj9wrn-glow"><stop offset="0%" stop-color="hsl(48.0 80.0% 80.0% / 0.850)"/><stop offset="45%" stop-color="hsl(48.0 80.0% 80.0% / 0.250)"/><stop offset="100%" stop-color="hsl(48.0 80.0% 80.0% / 0.000)"/></radialGradient><radialGradient id="g1rj9wrn-vig" cx="50%" cy="42%" r="75%"><stop offset="70%" stop-color="hsl(0 0% 0% / 0)"/><stop offset="100%" stop-color="hsl(0 0% 0% / 0.18)"/></radialGradient></defs><rect width="1600" height="533.0" fill="url(#g1rj9wrn-sky)"/><rect y="532.0" width="1600" height="368.0" fill="hsl(83.8 36.3% 42.0%)"/><circle cx="500.9" cy="330.5" r="120" fill="url(#g1rj9wrn-glow)"/><circle cx="500.9" cy="330.5" r="50" fill="hsl(48.0 80.0% 80.0%)"/><path d="M0 900 L0 402.9 Q0.0 402.9 47.1 433.2 Q94.1 463.5 141.2 454.2 Q188.2 445.0 235.3 461.3 Q282.4 477.6 329.4 444.9 Q376.5 412.2 423.5 376.6 Q470.6 341.0 517.6 310.1 Q564.7 279.2 611.8 254.5 Q658.8 229.8 705.9 267.4 Q752.9 305.0 800.0 318.1 Q847.1 331.3 894.1 392.2 Q941.2 453.2 988.2 436.3 Q1035.3 419.5 1082.4 425.6 Q1129.4 431.7 1176.5 426.2 Q1223.5 420.6 1270.6 430.3 Q1317.6 440.0 1364.7 461.8 Q1411.8 483.6 1458.8 459.9 Q1505.9 436.1 1552.9 424.8 L1600 413.4 L1600 900 Z" fill="hsl(59.9 49.5% 67.4%)"/><path d="M0 900 L0 457.2 Q0.0 457.2 53.3 445.7 Q106.7 434.2 160.0 441.0 Q213.3 447.8 266.7 436.6 Q320.0 425.5 373.3 476.8 Q426.7 528.2 480.0 541.4 Q533.3 554.5 586.7 568.1 Q640.0 581.6 693.3 539.6 Q746.7 497.6 800.0 494.1 Q853.3 490.7 906.7 487.4 Q960.0 484.2 1013.3 484.8 Q1066.7 485.4 1120.0 456.1 Q1173.3 426.9 1226.7 405.6 Q1280.0 384.4 1333.3 396.3 Q1386.7 408.2 1440.0 442.9 Q1493.3 477.5 1546.7 506.0 L1600 534.6 L1600 900 Z" fill="hsl(62.1 48.3% 65.1%)"/><path d="M0 900 L0 526.3 Q0.0 526.3 53.3 502.4 Q106.7 478.4 160.0 493.1 Q213.3 507.7 266.7 501.8 Q320.0 495.9 373.3 507.0 Q426.7 518.1 480.0 492.4 Q533.3 466.7 586.7 489.2 Q640.0 511.6 693.3 519.7 Q746.7 527.7 800.0 577.4 Q853.3 627.0 906.7 619.7 Q960.0 612.5 1013.3 608.8 Q1066.7 605.2 1120.0 564.6 Q1173.3 523.9 1226.7 527.2 Q1280.0 530.6 1333.3 518.8 Q1386.7 507.0 1440.0 516.7 Q1493.3 526.4 1546.7 504.3 L1600 482.3 L1600 900 Z" fill="hsl(68.7 44.6% 58.1%)"/><path d="M0 900 L0 602.4 Q0.0 602.4 53.3 585.2 Q106.7 568.0 160.0 550.5 Q213.3 533.0 266.7 523.9 Q320.0 514.8 373.3 541.8 Q426.7 568.8 480.0 603.7 Q533.3 638.6 586.7 633.1 Q640.0 627.6 693.3 630.2 Q746.7 632.8 800.0 631.7 Q853.3 630.6 906.7 631.1 Q960.0 631.5 1013.3 639.8 Q1066.7 648.2 1120.0 622.5 Q1173.3 596.8 1226.7 563.5 Q1280.0 530.2 1333.3 530.8 Q1386.7 531.3 1440.0 541.0 Q1493.3 550.7 1546.7 570.6 L1600 590.5 L1600 900 Z" fill="hsl(79.6 38.5% 46.4%)"/><path d="M0 900 L0 693.0 Q0.0 693.0 40.0 664.4 Q80.0 635.8 120.0 627.6 Q160.0 619.4 200.0 630.5 Q240.0 641.6 280.0 644.9 Q320.0 648.2 360.0 663.8 Q400.0 679.4 440.0 679.8 Q480.0 680.2 520.0 673.0 Q560.0 665.7 600.0 684.2 Q640.0 702.6 680.0 705.0 Q720.0 707.4 760.0 711.2 Q800.0 715.0 840.0 707.0 Q880.0 699.0 920.0 667.6 Q960.0 636.3 1000.0 631.3 Q1040.0 626.3 1080.0 628.4 Q1120.0 630.4 1160.0 638.3 Q1200.0 646.2 1240.0 661.4 Q1280.0 676.6 1320.0 673.9 Q1360.0 671.3 1400.0 670.6 Q1440.0 670.0 1480.0 683.5 Q1520.0 697.0 1560.0 698.6 L1600 700.3 L1600 900 Z" fill="hsl(95.0 30.0% 30.0%)"/><rect width="1600" height="900" fill="url(#g1rj9wrn-vig)"/></svg>