<svg xmlns="http://www.w3.org/2000/svg" viewBox="0 0 1600 900" role="img" preserveAspectRatio="xMidYMid slice"><title>ta-nang-phan-dung-bang-xe s2</title><defs><linearGradient id="g1knrf0u-sky" x1="0" y1="0" x2="0" y2="1"><stop offset="0%" stop-color="hsl(248.0 42.0% 22.0%)"/><stop offset="50%" stop-color="hsl(330.0 45.0% 48.0%)"/><stop offset="100%" stop-color="hsl(28.0 85.0% 62.0%)"/></linearGradient><radialGradient id="g1knrf0u-glow"><stop offset="0%" stop-color="hsl(35.0 95.0% 72.0% / 0.850)"/><stop offset="45%" stop-color="hsl(35.0 95.0% 72.0% / 0.250)"/><stop offset="100%" stop-color="hsl(35.0 95.0% 72.0% / 0.000)"/></radialGradient><linearGradient id="g1knrf0u-fog0" x1="0" y1="0" x2="0" y2="1"><stop offset="0%" stop-color="hsl(40 20% 96% / 0)"/><stop offset="55%" stop-color="hsl(40 20% 96% / 0.28)"/><stop offset="100%" stop-color="hsl(40 20% 96% / 0)"/></linearGradient><radialGradient id="g1knrf0u-vig" cx="50%" cy="42%" r="75%"><stop offset="70%" stop-color="hsl(0 0% 0% / 0)"/><stop offset="100%" stop-color="hsl(0 0% 0% / 0.18)"/></radialGradient></defs><rect width="1600" height="542.7" fill="url(#g1knrf0u-sky)"/><rect y="541.7" width="1600" height="358.3" fill="hsl(293.5 40.0% 27.5%)"/><circle cx="768.4" cy="499.3" r="200" fill="url(#g1knrf0u-glow)"/><circle cx="768.4" cy="499.3" r="64" fill="hsl(35.0 95.0% 72.0%)"/><path d="M0 900 L0 478.7 Q0.0 478.7 53.3 485.7 Q106.7 492.6 160.0 483.8 Q213.3 474.9 266.7 459.8 Q320.0 444.8 373.3 402.0 Q426.7 359.2 480.0 334.6 Q533.3 310.0 586.7 316.5 Q640.0 322.9 693.3 372.3 Q746.7 421.6 800.0 453.5 Q853.3 485.4 906.7 520.7 Q960.0 556.0 1013.3 529.7 Q1066.7 503.4 1120.0 461.7 Q1173.3 420.0 1226.7 373.9 Q1280.0 327.8 1333.3 338.8 Q1386.7 349.7 1440.0 334.6 Q1493.3 319.6 1546.7 383.9 L1600 448.3 L1600 900 Z" fill="hsl(0.3 71.8% 51.9%)"/><rect x="0" y="448.5" width="1600" height="260.3" fill="url(#g1knrf0u-fog0)"/><path d="M0 900 L0 452.6 Q0.0 452.6 38.1 474.1 Q76.2 495.6 114.3 514.6 Q152.4 533.6 190.5 564.6 Q228.6 595.5 266.7 582.2 Q304.8 568.9 342.9 550.2 Q381.0 531.4 419.0 501.1 Q457.1 470.7 495.2 468.5 Q533.3 466.3 571.4 460.0 Q609.5 453.7 647.6 460.4 Q685.7 467.2 723.8 447.5 Q761.9 427.7 800.0 440.7 Q838.1 453.7 876.2 448.2 Q914.3 442.6 952.4 410.8 Q990.5 379.1 1028.6 357.6 Q1066.7 336.1 1104.8 361.1 Q1142.9 386.1 1181.0 425.3 Q1219.0 464.6 1257.1 491.0 Q1295.2 517.5 1333.3 539.0 Q1371.4 560.5 1409.5 550.0 Q1447.6 539.4 1485.7 549.6 Q1523.8 559.7 1561.9 534.9 L1600 510.2 L1600 900 Z" fill="hsl(356.3 69.9% 50.4%)"/><path d="M0 900 L0 539.0 Q0.0 539.0 47.1 521.1 Q94.1 503.2 141.2 529.1 Q188.2 555.1 235.3 559.2 Q282.4 563.2 329.4 565.3 Q376.5 567.4 423.5 564.8 Q470.6 562.2 517.6 542.5 Q564.7 522.8 611.8 480.7 Q658.8 438.5 705.9 434.5 Q752.9 430.5 800.0 472.6 Q847.1 514.7 894.1 526.2 Q941.2 537.6 988.2 547.9 Q1035.3 558.1 1082.4 564.6 Q1129.4 571.0 1176.5 549.9 Q1223.5 528.8 1270.6 530.6 Q1317.6 532.5 1364.7 539.3 Q1411.8 546.0 1458.8 523.1 Q1505.9 500.3 1552.9 472.1 L1600 444.0 L1600 900 Z" fill="hsl(344.6 64.3% 46.1%)"/><path d="M0 900 L0 555.2 Q0.0 555.2 50.0 538.0 Q100.0 520.9 150.0 548.7 Q200.0 576.4 250.0 583.7 Q300.0 590.9 350.0 622.1 Q400.0 653.2 450.0 652.6 Q500.0 651.9 550.0 646.4 Q600.0 640.9 650.0 632.2 Q700.0 623.6 750.0 593.9 Q800.0 564.2 850.0 564.4 Q900.0 564.5 950.0 566.4 Q1000.0 568.3 1050.0 559.0 Q1100.0 549.6 1150.0 560.3 Q1200.0 570.9 1250.0 553.6 Q1300.0 536.3 1350.0 545.3 Q1400.0 554.3 1450.0 563.1 Q1500.0 571.9 1550.0 585.6 L1600 599.3 L1600 900 Z" fill="hsl(324.9 55.0% 39.0%)"/><path d="M0 900 L0 635.8 Q0.0 635.8 44.4 629.7 Q88.9 623.7 133.3 623.9 Q177.8 624.2 222.2 617.1 Q266.7 610.0 311.1 608.8 Q355.6 607.5 400.0 621.0 Q444.4 634.5 488.9 622.3 Q533.3 610.1 577.8 635.5 Q622.2 660.9 666.7 665.1 Q711.1 669.3 755.6 669.8 Q800.0 670.3 844.4 681.3 Q888.9 692.3 933.3 670.2 Q977.8 648.1 1022.2 633.0 Q1066.7 618.0 1111.1 601.8 Q1155.6 585.7 1200.0 578.9 Q1244.4 572.0 1288.9 592.8 Q1333.3 613.5 1377.8 623.5 Q1422.2 633.4 1466.7 654.7 Q1511.1 675.9 1555.6 676.5 L1600 677.0 L1600 900 Z" fill="hsl(297.4 41.8% 28.9%)"/><path d="M0 900 L0 676.7 Q0.0 676.7 50.0 664.7 Q100.0 652.8 150.0 654.4 Q200.0 655.9 250.0 668.5 Q300.0 681.0 350.0 681.9 Q400.0 682.9 450.0 676.6 Q500.0 670.3 550.0 680.2 Q600.0 690.0 650.0 708.6 Q700.0 727.2 750.0 727.3 Q800.0 727.3 850.0 719.4 Q900.0 711.5 950.0 695.2 Q1000.0 678.9 1050.0 678.3 Q1100.0 677.7 1150.0 676.3 Q1200.0 674.8 1250.0 675.4 Q1300.0 676.0 1350.0 671.3 Q1400.0 666.7 1450.0 659.2 Q1500.0 651.7 1550.0 672.8 L1600 693.8 L1600 900 Z" fill="hsl(262.0 25.0% 16.0%)"/><rect width="1600" height="900" fill="url(#g1knrf0u-vig)"/></svg>