<svg xmlns="http://www.w3.org/2000/svg" viewBox="0 0 1600 900" role="img" preserveAspectRatio="xMidYMid slice"><title>ta-nang-phan-dung-bang-xe s1</title><defs><linearGradient id="gx8e76n-sky" x1="0" y1="0" x2="0" y2="1"><stop offset="0%" stop-color="hsl(210.0 45.0% 62.0%)"/><stop offset="50%" stop-color="hsl(195.0 35.0% 74.0%)"/><stop offset="100%" stop-color="hsl(50.0 55.0% 78.0%)"/></linearGradient><radialGradient id="gx8e76n-glow"><stop offset="0%" stop-color="hsl(48.0 80.0% 80.0% / 0.850)"/><stop offset="45%" stop-color="hsl(48.0 80.0% 80.0% / 0.250)"/><stop offset="100%" stop-color="hsl(48.0 80.0% 80.0% / 0.000)"/></radialGradient><radialGradient id="gx8e76n-vig" cx="50%" cy="42%" r="75%"><stop offset="70%" stop-color="hsl(0 0% 0% / 0)"/><stop offset="100%" stop-color="hsl(0 0% 0% / 0.18)"/></radialGradient></defs><rect width="1600" height="504.9" fill="url(#gx8e76n-sky)"/><rect y="503.9" width="1600" height="396.1" fill="hsl(83.8 36.3% 42.0%)"/><circle cx="947.9" cy="313.1" r="120" fill="url(#gx8e76n-glow)"/><circle cx="947.9" cy="313.1" r="50" fill="hsl(48.0 80.0% 80.0%)"/><path d="M0 900 L0 278.0 Q0.0 278.0 44.4 245.8 Q88.9 213.6 133.3 241.2 Q177.8 268.7 222.2 316.9 Q266.7 365.0 311.1 399.8 Q355.6 434.5 400.0 471.5 Q444.4 508.5 488.9 470.4 Q533.3 432.4 577.8 424.4 Q622.2 416.4 666.7 363.3 Q711.1 310.2 755.6 309.6 Q800.0 308.9 844.4 298.2 Q888.9 287.6 933.3 294.9 Q977.8 302.3 1022.2 335.6 Q1066.7 368.9 1111.1 355.7 Q1155.6 342.5 1200.0 369.5 Q1244.4 396.6 1288.9 385.9 Q1333.3 375.2 1377.8 409.5 Q1422.2 443.9 1466.7 428.6 Q1511.1 413.2 1555.6 416.9 L1600 420.6 L1600 900 Z" fill="hsl(59.9 49.5% 67.4%)"/><path d="M0 900 L0 500.0 Q0.0 500.0 57.1 503.0 Q114.3 506.0 171.4 504.2 Q228.6 502.4 285.7 467.2 Q342.9 432.0 400.0 376.3 Q457.1 320.6 514.3 344.0 Q571.4 367.3 628.6 400.1 Q685.7 432.9 742.9 432.7 Q800.0 432.6 857.1 449.9 Q914.3 467.3 971.4 469.7 Q1028.6 472.2 1085.7 505.6 Q1142.9 539.0 1200.0 539.3 Q1257.1 539.6 1314.3 470.2 Q1371.4 400.7 1428.6 389.9 Q1485.7 379.2 1542.9 384.9 L1600 390.6 L1600 900 Z" fill="hsl(62.1 48.3% 65.1%)"/><path d="M0 900 L0 487.7 Q0.0 487.7 42.1 512.3 Q84.2 536.9 126.3 549.5 Q168.4 562.1 210.5 579.7 Q252.6 597.4 294.7 600.9 Q336.8 604.3 378.9 581.9 Q421.1 559.4 463.2 545.1 Q505.3 530.8 547.4 538.2 Q589.5 545.7 631.6 543.5 Q673.7 541.4 715.8 529.0 Q757.9 516.6 800.0 512.6 Q842.1 508.7 884.2 498.3 Q926.3 488.0 968.4 469.8 Q1010.5 451.6 1052.6 457.2 Q1094.7 462.8 1136.8 494.2 Q1178.9 525.7 1221.1 548.4 Q1263.2 571.0 1305.3 574.7 Q1347.4 578.4 1389.5 586.6 Q1431.6 594.8 1473.7 588.3 Q1515.8 581.8 1557.9 557.8 L1600 533.8 L1600 900 Z" fill="hsl(68.7 44.6% 58.1%)"/><path d="M0 900 L0 587.5 Q0.0 587.5 42.1 563.9 Q84.2 540.3 126.3 526.0 Q168.4 511.6 210.5 524.5 Q252.6 537.4 294.7 543.6 Q336.8 549.8 378.9 565.7 Q421.1 581.7 463.2 616.5 Q505.3 651.2 547.4 652.6 Q589.5 653.9 631.6 644.5 Q673.7 635.1 715.8 634.7 Q757.9 634.3 800.0 612.9 Q842.1 591.6 884.2 581.4 Q926.3 571.1 968.4 579.1 Q1010.5 587.1 1052.6 579.4 Q1094.7 571.6 1136.8 564.6 Q1178.9 557.7 1221.1 564.6 Q1263.2 571.4 1305.3 556.5 Q1347.4 541.5 1389.5 536.7 Q1431.6 531.9 1473.7 550.0 Q1515.8 568.1 1557.9 580.3 L1600 592.4 L1600 900 Z" fill="hsl(79.6 38.5% 46.4%)"/><path d="M0 900 L0 621.2 Q0.0 621.2 53.3 636.7 Q106.7 652.2 160.0 660.0 Q213.3 667.8 266.7 692.9 Q320.0 718.0 373.3 703.0 Q426.7 688.0 480.0 688.3 Q533.3 688.7 586.7 678.1 Q640.0 667.5 693.3 683.0 Q746.7 698.4 800.0 680.6 Q853.3 662.9 906.7 652.6 Q960.0 642.3 1013.3 621.9 Q1066.7 601.5 1120.0 620.8 Q1173.3 640.0 1226.7 640.9 Q1280.0 641.8 1333.3 649.8 Q1386.7 657.9 1440.0 645.9 Q1493.3 634.0 1546.7 655.3 L1600 676.6 L1600 900 Z" fill="hsl(95.0 30.0% 30.0%)"/><rect width="1600" height="900" fill="url(#gx8e76n-vig)"/></svg>