<svg xmlns="http://www.w3.org/2000/svg" viewBox="0 0 1600 900" role="img" preserveAspectRatio="xMidYMid slice"><title>ninh-binh-trang-an-mua-lua hero</title><defs><linearGradient id="gjez9ua-sky" x1="0" y1="0" x2="0" y2="1"><stop offset="0%" stop-color="hsl(200.0 45.0% 58.0%)"/><stop offset="50%" stop-color="hsl(180.0 30.0% 72.0%)"/><stop offset="100%" stop-color="hsl(46.0 55.0% 80.0%)"/></linearGradient><radialGradient id="gjez9ua-glow"><stop offset="0%" stop-color="hsl(44.0 80.0% 84.0% / 0.850)"/><stop offset="45%" stop-color="hsl(44.0 80.0% 84.0% / 0.250)"/><stop offset="100%" stop-color="hsl(44.0 80.0% 84.0% / 0.000)"/></radialGradient><linearGradient id="gjez9ua-fog0" x1="0" y1="0" x2="0" y2="1"><stop offset="0%" stop-color="hsl(40 20% 96% / 0)"/><stop offset="55%" stop-color="hsl(40 20% 96% / 0.17)"/><stop offset="100%" stop-color="hsl(40 20% 96% / 0)"/></linearGradient><linearGradient id="gjez9ua-fog3" x1="0" y1="0" x2="0" y2="1"><stop offset="0%" stop-color="hsl(40 20% 96% / 0)"/><stop offset="55%" stop-color="hsl(40 20% 96% / 0.17)"/><stop offset="100%" stop-color="hsl(40 20% 96% / 0)"/></linearGradient><linearGradient id="gjez9ua-fog5" x1="0" y1="0" x2="0" y2="1"><stop offset="0%" stop-color="hsl(40 20% 96% / 0)"/><stop offset="55%" stop-color="hsl(40 20% 96% / 0.26)"/><stop offset="100%" stop-color="hsl(40 20% 96% / 0)"/></linearGradient><radialGradient id="gjez9ua-vig" cx="50%" cy="42%" r="75%"><stop offset="70%" stop-color="hsl(0 0% 0% / 0)"/><stop offset="100%" stop-color="hsl(0 0% 0% / 0.18)"/></radialGradient></defs><rect width="1600" height="630.8" fill="url(#gjez9ua-sky)"/><rect y="629.8" width="1600" height="270.2" fill="hsl(157.8 37.8% 33.5%)"/><circle cx="609.0" cy="441.5" r="130" fill="url(#gjez9ua-glow)"/><circle cx="609.0" cy="441.5" r="52" fill="hsl(44.0 80.0% 84.0%)"/><path d="M0 900 L0 461.2 L0.0 461.2 L76.2 326.8 L152.4 356.6 L228.6 430.4 L304.8 598.0 L381.0 570.1 L457.1 611.5 L533.3 571.3 L609.5 516.3 L685.7 346.8 L761.9 418.5 L838.1 362.0 L914.3 327.6 L990.5 266.5 L1066.7 281.9 L1142.9 453.4 L1219.0 525.2 L1295.2 586.6 L1371.4 583.5 L1447.6 524.9 L1523.8 438.3 L1600.0 375.8 L1600 900 Z" fill="hsl(78.8 49.9% 66.4%)"/><rect x="0" y="492.2" width="1600" height="348.2" fill="url(#gjez9ua-fog0)"/><path d="M0 900 L0 492.9 L0.0 492.9 L114.3 418.6 L228.6 389.8 L342.9 516.1 L457.1 603.8 L571.4 659.5 L685.7 628.1 L800.0 555.5 L914.3 461.8 L1028.6 456.7 L1142.9 440.1 L1257.1 400.6 L1371.4 418.5 L1485.7 463.5 L1600.0 656.8 L1600 900 Z" fill="hsl(81.2 49.6% 65.4%)"/><path d="M0 900 L0 661.5 L0.0 661.5 L80.0 644.0 L160.0 647.7 L240.0 692.6 L320.0 617.8 L400.0 534.1 L480.0 568.6 L560.0 488.1 L640.0 496.6 L720.0 543.4 L800.0 495.4 L880.0 505.1 L960.0 523.5 L1040.0 445.4 L1120.0 538.5 L1200.0 657.7 L1280.0 605.4 L1360.0 653.5 L1440.0 666.9 L1520.0 630.9 L1600.0 635.7 L1600 900 Z" fill="hsl(88.3 48.5% 62.4%)"/><path d="M0 900 L0 495.3 L0.0 495.3 L84.2 598.0 L168.4 628.4 L252.6 578.4 L336.8 620.0 L421.1 574.7 L505.3 646.2 L589.5 633.1 L673.7 667.2 L757.9 547.5 L842.1 459.0 L926.3 524.5 L1010.5 511.0 L1094.7 484.5 L1178.9 451.3 L1263.2 474.1 L1347.4 440.0 L1431.6 468.7 L1515.8 673.1 L1600.0 705.0 L1600 900 Z" fill="hsl(100.1 46.6% 57.5%)"/><rect x="0" y="586.4" width="1600" height="265.9" fill="url(#gjez9ua-fog3)"/><path d="M0 900 L0 668.3 L0.0 668.3 L84.2 634.7 L168.4 671.9 L252.6 665.2 L336.8 547.2 L421.1 522.9 L505.3 553.7 L589.5 497.7 L673.7 609.1 L757.9 688.4 L842.1 666.2 L926.3 708.1 L1010.5 635.9 L1094.7 580.7 L1178.9 591.8 L1263.2 649.6 L1347.4 578.2 L1431.6 519.6 L1515.8 555.7 L1600.0 558.7 L1600 900 Z" fill="hsl(116.7 44.1% 50.6%)"/><path d="M0 900 L0 682.7 L0.0 682.7 L80.0 646.9 L160.0 701.6 L240.0 692.8 L320.0 753.7 L400.0 708.2 L480.0 631.7 L560.0 612.7 L640.0 586.4 L720.0 564.8 L800.0 574.6 L880.0 590.4 L960.0 510.1 L1040.0 526.4 L1120.0 629.4 L1200.0 623.5 L1280.0 718.1 L1360.0 726.0 L1440.0 667.8 L1520.0 626.3 L1600.0 653.0 L1600 900 Z" fill="hsl(138.1 40.8% 41.7%)"/><rect x="0" y="652.3" width="1600" height="204.3" fill="url(#gjez9ua-fog5)"/><path d="M0 900 L0 736.2 L0.0 736.2 L114.3 738.5 L228.6 707.3 L342.9 653.1 L457.1 654.1 L571.4 679.9 L685.7 626.3 L800.0 649.0 L914.3 651.9 L1028.6 728.6 L1142.9 729.6 L1257.1 696.2 L1371.4 704.1 L1485.7 677.6 L1600.0 672.8 L1600 900 Z" fill="hsl(164.2 36.8% 30.8%)"/><path d="M0 900 L0 682.7 L0.0 682.7 L100.0 768.8 L200.0 769.3 L300.0 766.6 L400.0 762.7 L500.0 696.2 L600.0 669.8 L700.0 671.2 L800.0 696.9 L900.0 698.2 L1000.0 662.0 L1100.0 671.1 L1200.0 658.3 L1300.0 698.8 L1400.0 775.0 L1500.0 770.5 L1600.0 760.6 L1600 900 Z" fill="hsl(195.0 32.0% 18.0%)"/><rect width="1600" height="900" fill="url(#gjez9ua-vig)"/></svg>