<svg xmlns="http://www.w3.org/2000/svg" viewBox="0 0 1600 900" role="img" preserveAspectRatio="xMidYMid slice"><title>ninh-binh-trang-an-mua-lua s2</title><defs><linearGradient id="g164u15b-sky" x1="0" y1="0" x2="0" y2="1"><stop offset="0%" stop-color="hsl(265.0 38.0% 26.0%)"/><stop offset="50%" stop-color="hsl(348.0 55.0% 46.0%)"/><stop offset="100%" stop-color="hsl(22.0 90.0% 58.0%)"/></linearGradient><radialGradient id="g164u15b-glow"><stop offset="0%" stop-color="hsl(24.0 95.0% 66.0% / 0.850)"/><stop offset="45%" stop-color="hsl(24.0 95.0% 66.0% / 0.250)"/><stop offset="100%" stop-color="hsl(24.0 95.0% 66.0% / 0.000)"/></radialGradient><radialGradient id="g164u15b-vig" cx="50%" cy="42%" r="75%"><stop offset="70%" stop-color="hsl(0 0% 0% / 0)"/><stop offset="100%" stop-color="hsl(0 0% 0% / 0.18)"/></radialGradient></defs><rect width="1600" height="532.6" fill="url(#g164u15b-sky)"/><rect y="531.6" width="1600" height="368.4" fill="hsl(305.5 43.5% 25.0%)"/><circle cx="528.3" cy="468.7" r="230" fill="url(#g164u15b-glow)"/><circle cx="528.3" cy="468.7" r="78" fill="hsl(24.0 95.0% 66.0%)"/><path d="M0 900 L0 442.4 Q0.0 442.4 57.1 411.2 Q114.3 380.1 171.4 372.9 Q228.6 365.7 285.7 374.2 Q342.9 382.6 400.0 368.6 Q457.1 354.6 514.3 372.6 Q571.4 390.6 628.6 406.6 Q685.7 422.6 742.9 468.4 Q800.0 514.2 857.1 495.9 Q914.3 477.5 971.4 474.5 Q1028.6 471.6 1085.7 417.0 Q1142.9 362.5 1200.0 318.7 Q1257.1 274.9 1314.3 273.9 Q1371.4 272.9 1428.6 330.3 Q1485.7 387.7 1542.9 458.8 L1600 529.9 L1600 900 Z" fill="hsl(359.6 76.4% 48.3%)"/><path d="M0 900 L0 375.2 Q0.0 375.2 44.4 379.6 Q88.9 383.9 133.3 400.6 Q177.8 417.3 222.2 434.1 Q266.7 450.9 311.1 441.0 Q355.6 431.0 400.0 432.4 Q444.4 433.8 488.9 455.9 Q533.3 478.1 577.8 521.5 Q622.2 564.9 666.7 590.8 Q711.1 616.7 755.6 577.3 Q800.0 537.8 844.4 511.6 Q888.9 485.3 933.3 438.9 Q977.8 392.5 1022.2 393.8 Q1066.7 395.1 1111.1 423.2 Q1155.6 451.3 1200.0 426.4 Q1244.4 401.5 1288.9 393.8 Q1333.3 386.2 1377.8 380.7 Q1422.2 375.3 1466.7 389.0 Q1511.1 402.8 1555.6 451.0 L1600 499.3 L1600 900 Z" fill="hsl(354.6 73.3% 46.2%)"/><path d="M0 900 L0 493.9 Q0.0 493.9 47.1 499.4 Q94.1 504.8 141.2 508.7 Q188.2 512.5 235.3 514.2 Q282.4 515.9 329.4 522.2 Q376.5 528.5 423.5 486.3 Q470.6 444.2 517.6 463.6 Q564.7 483.1 611.8 505.4 Q658.8 527.8 705.9 549.3 Q752.9 570.7 800.0 592.4 Q847.1 614.0 894.1 603.1 Q941.2 592.2 988.2 571.7 Q1035.3 551.2 1082.4 558.0 Q1129.4 564.7 1176.5 565.1 Q1223.5 565.4 1270.6 582.4 Q1317.6 599.5 1364.7 555.1 Q1411.8 510.8 1458.8 498.8 Q1505.9 486.8 1552.9 488.4 L1600 490.0 L1600 900 Z" fill="hsl(339.7 64.3% 39.7%)"/><path d="M0 900 L0 597.5 Q0.0 597.5 47.1 598.5 Q94.1 599.4 141.2 582.3 Q188.2 565.3 235.3 551.9 Q282.4 538.5 329.4 574.3 Q376.5 610.2 423.5 622.3 Q470.6 634.4 517.6 653.5 Q564.7 672.5 611.8 663.3 Q658.8 654.2 705.9 638.6 Q752.9 623.0 800.0 624.8 Q847.1 626.6 894.1 635.0 Q941.2 643.5 988.2 637.4 Q1035.3 631.3 1082.4 611.4 Q1129.4 591.5 1176.5 578.0 Q1223.5 564.4 1270.6 559.9 Q1317.6 555.4 1364.7 553.9 Q1411.8 552.4 1458.8 590.5 Q1505.9 628.7 1552.9 614.6 L1600 600.5 L1600 900 Z" fill="hsl(314.8 49.2% 29.0%)"/><path d="M0 900 L0 669.8 Q0.0 669.8 40.0 671.4 Q80.0 673.0 120.0 677.9 Q160.0 682.8 200.0 685.4 Q240.0 687.9 280.0 690.2 Q320.0 692.4 360.0 695.7 Q400.0 699.1 440.0 714.0 Q480.0 729.0 520.0 712.4 Q560.0 695.9 600.0 671.0 Q640.0 646.2 680.0 644.5 Q720.0 642.8 760.0 644.5 Q800.0 646.3 840.0 641.5 Q880.0 636.8 920.0 653.0 Q960.0 669.1 1000.0 698.8 Q1040.0 728.4 1080.0 726.3 Q1120.0 724.2 1160.0 715.9 Q1200.0 707.6 1240.0 700.5 Q1280.0 693.4 1320.0 690.2 Q1360.0 686.9 1400.0 674.1 Q1440.0 661.2 1480.0 663.3 Q1520.0 665.4 1560.0 671.2 L1600 677.1 L1600 900 Z" fill="hsl(280.0 28.0% 14.0%)"/><rect width="1600" height="900" fill="url(#g164u15b-vig)"/></svg>