<svg xmlns="http://www.w3.org/2000/svg" viewBox="0 0 1600 900" role="img" preserveAspectRatio="xMidYMid slice"><title>ninh-binh-trang-an-mua-lua s1</title><defs><linearGradient id="gh0impq-sky" x1="0" y1="0" x2="0" y2="1"><stop offset="0%" stop-color="hsl(200.0 45.0% 58.0%)"/><stop offset="50%" stop-color="hsl(180.0 30.0% 72.0%)"/><stop offset="100%" stop-color="hsl(46.0 55.0% 80.0%)"/></linearGradient><radialGradient id="gh0impq-glow"><stop offset="0%" stop-color="hsl(44.0 80.0% 84.0% / 0.850)"/><stop offset="45%" stop-color="hsl(44.0 80.0% 84.0% / 0.250)"/><stop offset="100%" stop-color="hsl(44.0 80.0% 84.0% / 0.000)"/></radialGradient><radialGradient id="gh0impq-vig" cx="50%" cy="42%" r="75%"><stop offset="70%" stop-color="hsl(0 0% 0% / 0)"/><stop offset="100%" stop-color="hsl(0 0% 0% / 0.18)"/></radialGradient></defs><rect width="1600" height="577.1" fill="url(#gh0impq-sky)"/><rect y="576.1" width="1600" height="323.9" fill="hsl(157.8 37.8% 33.5%)"/><circle cx="1058.6" cy="404.0" r="130" fill="url(#gh0impq-glow)"/><circle cx="1058.6" cy="404.0" r="52" fill="hsl(44.0 80.0% 84.0%)"/><path d="M0 900 L0 420.8 L0.0 420.8 L88.9 473.7 L177.8 470.5 L266.7 553.4 L355.6 553.8 L444.4 493.2 L533.3 531.8 L622.2 410.3 L711.1 296.3 L800.0 422.5 L888.9 405.1 L977.8 473.3 L1066.7 422.0 L1155.6 368.2 L1244.4 524.3 L1333.3 518.9 L1422.2 548.2 L1511.1 596.8 L1600.0 510.5 L1600 900 Z" fill="hsl(78.8 49.9% 66.4%)"/><path d="M0 900 L0 551.3 L0.0 551.3 L94.1 556.9 L188.2 589.6 L282.4 546.6 L376.5 426.2 L470.6 403.4 L564.7 388.8 L658.8 444.5 L752.9 482.2 L847.1 563.9 L941.2 565.9 L1035.3 501.9 L1129.4 553.8 L1223.5 543.3 L1317.6 531.5 L1411.8 519.7 L1505.9 459.1 L1600.0 365.5 L1600 900 Z" fill="hsl(83.4 49.2% 64.4%)"/><path d="M0 900 L0 608.1 L0.0 608.1 L106.7 558.8 L213.3 560.1 L320.0 493.6 L426.7 457.5 L533.3 410.6 L640.0 542.2 L746.7 563.4 L853.3 584.9 L960.0 553.8 L1066.7 629.3 L1173.3 567.3 L1280.0 452.7 L1386.7 445.7 L1493.3 456.5 L1600.0 564.3 L1600 900 Z" fill="hsl(97.4 47.1% 58.6%)"/><path d="M0 900 L0 471.2 L0.0 471.2 L80.0 512.9 L160.0 531.4 L240.0 631.8 L320.0 561.8 L400.0 576.5 L480.0 582.0 L560.0 629.9 L640.0 695.1 L720.0 697.8 L800.0 667.2 L880.0 643.6 L960.0 569.8 L1040.0 589.7 L1120.0 596.0 L1200.0 538.8 L1280.0 545.2 L1360.0 513.6 L1440.0 486.2 L1520.0 515.6 L1600.0 558.1 L1600 900 Z" fill="hsl(120.6 43.5% 49.0%)"/><path d="M0 900 L0 592.2 L0.0 592.2 L80.0 638.4 L160.0 687.7 L240.0 687.7 L320.0 653.4 L400.0 716.6 L480.0 693.5 L560.0 660.2 L640.0 615.1 L720.0 608.7 L800.0 582.4 L880.0 599.3 L960.0 636.2 L1040.0 702.4 L1120.0 681.6 L1200.0 694.3 L1280.0 733.3 L1360.0 672.9 L1440.0 587.2 L1520.0 554.6 L1600.0 598.7 L1600 900 Z" fill="hsl(153.2 38.5% 35.4%)"/><path d="M0 900 L0 683.7 L0.0 683.7 L106.7 712.0 L213.3 720.8 L320.0 767.8 L426.7 715.3 L533.3 673.5 L640.0 645.6 L746.7 645.2 L853.3 700.4 L960.0 651.7 L1066.7 685.0 L1173.3 706.2 L1280.0 746.0 L1386.7 746.2 L1493.3 716.1 L1600.0 672.7 L1600 900 Z" fill="hsl(195.0 32.0% 18.0%)"/><rect width="1600" height="900" fill="url(#gh0impq-vig)"/></svg>