<svg xmlns="http://www.w3.org/2000/svg" viewBox="0 0 1600 900" role="img" preserveAspectRatio="xMidYMid slice"><title>bao-duong-xe-truoc-chuyen-di-dai hero</title><defs><linearGradient id="g8zo9f3-sky" x1="0" y1="0" x2="0" y2="1"><stop offset="0%" stop-color="hsl(232.0 45.0% 8.0%)"/><stop offset="50%" stop-color="hsl(228.0 40.0% 14.0%)"/><stop offset="100%" stop-color="hsl(222.0 35.0% 22.0%)"/></linearGradient><radialGradient id="g8zo9f3-glow"><stop offset="0%" stop-color="hsl(48.0 35.0% 88.0% / 0.850)"/><stop offset="45%" stop-color="hsl(48.0 35.0% 88.0% / 0.250)"/><stop offset="100%" stop-color="hsl(48.0 35.0% 88.0% / 0.000)"/></radialGradient><radialGradient id="g8zo9f3-vig" cx="50%" cy="42%" r="75%"><stop offset="70%" stop-color="hsl(0 0% 0% / 0)"/><stop offset="100%" stop-color="hsl(0 0% 0% / 0.18)"/></radialGradient></defs><rect width="1600" height="576.0" fill="url(#g8zo9f3-sky)"/><rect y="575.0" width="1600" height="325.0" fill="hsl(226.5 31.3% 12.3%)"/><g><circle cx="1025.7" cy="145.2" r="1.09" fill="hsl(50 30% 92% / 0.92)"/><circle cx="1303.5" cy="247.7" r="1.26" fill="hsl(50 30% 92% / 0.55)"/><circle cx="661.2" cy="329.8" r="1.07" fill="hsl(50 30% 92% / 0.78)"/><circle cx="1471.1" cy="279.3" r="1.06" fill="hsl(50 30% 92% / 0.53)"/><circle cx="1017.7" cy="412.4" r="1.93" fill="hsl(50 30% 92% / 0.38)"/><circle cx="286.2" cy="305.6" r="1.28" fill="hsl(50 30% 92% / 0.70)"/><circle cx="376.4" cy="517.5" r="1.88" fill="hsl(50 30% 92% / 0.53)"/><circle cx="1345.7" cy="411.9" r="0.92" fill="hsl(50 30% 92% / 0.89)"/><circle cx="751.4" cy="388.7" r="0.82" fill="hsl(50 30% 92% / 0.85)"/><circle cx="705.7" cy="110.2" r="0.71" fill="hsl(50 30% 92% / 0.66)"/><circle cx="107.2" cy="56.2" r="0.96" fill="hsl(50 30% 92% / 0.92)"/><circle cx="78.0" cy="195.6" r="0.73" fill="hsl(50 30% 92% / 0.87)"/><circle cx="1587.5" cy="350.3" r="1.23" fill="hsl(50 30% 92% / 0.86)"/><circle cx="613.5" cy="351.1" r="0.74" fill="hsl(50 30% 92% / 0.60)"/><circle cx="935.0" cy="138.9" r="1.04" fill="hsl(50 30% 92% / 0.66)"/><circle cx="791.0" cy="204.6" r="0.79" fill="hsl(50 30% 92% / 0.61)"/><circle cx="1409.9" cy="362.0" r="1.08" fill="hsl(50 30% 92% / 0.60)"/><circle cx="367.8" cy="380.0" r="1.06" fill="hsl(50 30% 92% / 0.89)"/><circle cx="187.2" cy="47.8" r="1.24" fill="hsl(50 30% 92% / 0.72)"/><circle cx="1346.1" cy="112.7" r="0.60" fill="hsl(50 30% 92% / 0.52)"/><circle cx="1075.3" cy="408.8" r="0.71" fill="hsl(50 30% 92% / 0.55)"/><circle cx="475.8" cy="174.9" r="0.61" fill="hsl(50 30% 92% / 0.82)"/><circle cx="803.7" cy="459.1" r="0.65" fill="hsl(50 30% 92% / 0.73)"/><circle cx="966.8" cy="74.1" r="0.65" fill="hsl(50 30% 92% / 0.77)"/><circle cx="59.0" cy="94.8" r="0.74" fill="hsl(50 30% 92% / 0.36)"/><circle cx="1386.4" cy="217.8" r="1.30" fill="hsl(50 30% 92% / 0.75)"/><circle cx="581.7" cy="358.0" r="1.11" fill="hsl(50 30% 92% / 0.91)"/><circle cx="442.3" cy="12.8" r="0.77" fill="hsl(50 30% 92% / 0.53)"/><circle cx="1313.8" cy="470.5" r="0.77" fill="hsl(50 30% 92% / 0.90)"/><circle cx="964.1" cy="305.9" r="1.20" fill="hsl(50 30% 92% / 0.74)"/><circle cx="665.4" cy="402.5" r="2.43" fill="hsl(50 30% 92% / 0.53)"/><circle cx="524.1" cy="168.0" r="0.61" fill="hsl(50 30% 92% / 0.87)"/><circle cx="269.6" cy="483.5" r="1.13" fill="hsl(50 30% 92% / 0.59)"/><circle cx="1376.8" cy="249.6" r="1.12" fill="hsl(50 30% 92% / 0.72)"/><circle cx="1176.9" cy="43.5" r="2.26" fill="hsl(50 30% 92% / 0.45)"/><circle cx="1099.1" cy="514.1" r="2.20" fill="hsl(50 30% 92% / 0.77)"/><circle cx="259.5" cy="100.2" r="1.27" fill="hsl(50 30% 92% / 0.58)"/><circle cx="353.8" cy="123.9" r="1.23" fill="hsl(50 30% 92% / 0.38)"/><circle cx="1245.3" cy="520.3" r="2.19" fill="hsl(50 30% 92% / 0.94)"/><circle cx="925.7" cy="355.6" r="0.68" fill="hsl(50 30% 92% / 0.88)"/><circle cx="619.9" cy="490.8" r="0.82" fill="hsl(50 30% 92% / 0.64)"/><circle cx="679.8" cy="66.5" r="2.59" fill="hsl(50 30% 92% / 0.83)"/><circle cx="816.3" cy="40.9" r="1.94" fill="hsl(50 30% 92% / 0.67)"/><circle cx="845.4" cy="432.2" r="1.08" fill="hsl(50 30% 92% / 0.51)"/><circle cx="810.6" cy="349.7" r="1.20" fill="hsl(50 30% 92% / 0.44)"/><circle cx="755.0" cy="450.3" r="2.28" fill="hsl(50 30% 92% / 0.68)"/><circle cx="124.6" cy="376.4" r="0.67" fill="hsl(50 30% 92% / 0.69)"/><circle cx="1343.9" cy="278.8" r="0.79" fill="hsl(50 30% 92% / 0.81)"/><circle cx="1587.6" cy="435.3" r="1.01" fill="hsl(50 30% 92% / 0.81)"/><circle cx="1398.3" cy="201.8" r="0.70" fill="hsl(50 30% 92% / 0.75)"/><circle cx="830.2" cy="461.4" r="1.03" fill="hsl(50 30% 92% / 0.81)"/><circle cx="494.6" cy="418.0" r="0.95" fill="hsl(50 30% 92% / 0.95)"/><circle cx="614.5" cy="375.9" r="2.57" fill="hsl(50 30% 92% / 0.47)"/><circle cx="1143.8" cy="112.4" r="0.87" fill="hsl(50 30% 92% / 0.50)"/><circle cx="854.7" cy="350.4" r="1.91" fill="hsl(50 30% 92% / 0.60)"/><circle cx="627.5" cy="356.7" r="1.26" fill="hsl(50 30% 92% / 0.70)"/><circle cx="326.9" cy="310.4" r="0.72" fill="hsl(50 30% 92% / 0.54)"/><circle cx="954.3" cy="296.8" r="2.29" fill="hsl(50 30% 92% / 0.91)"/><circle cx="917.3" cy="216.3" r="0.83" fill="hsl(50 30% 92% / 0.64)"/><circle cx="778.8" cy="173.9" r="0.73" fill="hsl(50 30% 92% / 0.64)"/><circle cx="505.1" cy="169.6" r="1.23" fill="hsl(50 30% 92% / 0.53)"/><circle cx="911.6" cy="170.8" r="0.96" fill="hsl(50 30% 92% / 0.90)"/><circle cx="1051.4" cy="423.8" r="1.23" fill="hsl(50 30% 92% / 0.35)"/><circle cx="650.0" cy="391.3" r="0.63" fill="hsl(50 30% 92% / 0.61)"/><circle cx="51.3" cy="101.8" r="1.09" fill="hsl(50 30% 92% / 0.94)"/><circle cx="1013.9" cy="398.7" r="0.76" fill="hsl(50 30% 92% / 0.54)"/><circle cx="1494.2" cy="198.6" r="0.75" fill="hsl(50 30% 92% / 0.54)"/><circle cx="953.8" cy="474.0" r="0.77" fill="hsl(50 30% 92% / 0.41)"/><circle cx="1101.1" cy="388.8" r="0.84" fill="hsl(50 30% 92% / 0.47)"/><circle cx="1490.3" cy="426.2" r="0.81" fill="hsl(50 30% 92% / 0.68)"/><circle cx="146.0" cy="445.4" r="0.91" fill="hsl(50 30% 92% / 0.39)"/><circle cx="1077.5" cy="257.4" r="0.91" fill="hsl(50 30% 92% / 0.60)"/><circle cx="1225.0" cy="206.1" r="0.98" fill="hsl(50 30% 92% / 0.87)"/><circle cx="1287.0" cy="97.3" r="1.06" fill="hsl(50 30% 92% / 0.89)"/><circle cx="528.7" cy="416.0" r="0.87" fill="hsl(50 30% 92% / 0.52)"/><circle cx="1558.6" cy="381.9" r="1.23" fill="hsl(50 30% 92% / 0.62)"/><circle cx="1163.7" cy="425.5" r="1.19" fill="hsl(50 30% 92% / 0.78)"/><circle cx="1568.5" cy="44.8" r="0.70" fill="hsl(50 30% 92% / 0.48)"/><circle cx="1482.2" cy="405.3" r="0.92" fill="hsl(50 30% 92% / 0.58)"/><circle cx="790.6" cy="491.9" r="1.14" fill="hsl(50 30% 92% / 0.65)"/><circle cx="458.2" cy="402.4" r="0.90" fill="hsl(50 30% 92% / 0.47)"/><circle cx="1230.1" cy="342.6" r="0.95" fill="hsl(50 30% 92% / 0.86)"/><circle cx="1347.3" cy="26.5" r="1.30" fill="hsl(50 30% 92% / 0.39)"/><circle cx="276.7" cy="225.1" r="0.95" fill="hsl(50 30% 92% / 0.36)"/><circle cx="1292.0" cy="75.0" r="0.68" fill="hsl(50 30% 92% / 0.48)"/><circle cx="1387.0" cy="434.9" r="1.00" fill="hsl(50 30% 92% / 0.69)"/><circle cx="11.3" cy="129.6" r="1.20" fill="hsl(50 30% 92% / 0.62)"/><circle cx="1329.4" cy="341.1" r="1.07" fill="hsl(50 30% 92% / 0.61)"/><circle cx="341.2" cy="153.7" r="0.74" fill="hsl(50 30% 92% / 0.76)"/><circle cx="593.6" cy="462.1" r="1.20" fill="hsl(50 30% 92% / 0.82)"/><circle cx="62.3" cy="56.2" r="1.26" fill="hsl(50 30% 92% / 0.37)"/><circle cx="962.4" cy="382.8" r="1.26" fill="hsl(50 30% 92% / 0.72)"/><circle cx="336.4" cy="403.4" r="0.94" fill="hsl(50 30% 92% / 0.86)"/><circle cx="251.5" cy="369.1" r="0.93" fill="hsl(50 30% 92% / 0.52)"/><circle cx="152.6" cy="208.3" r="1.09" fill="hsl(50 30% 92% / 0.64)"/><circle cx="440.4" cy="255.7" r="0.94" fill="hsl(50 30% 92% / 0.74)"/><circle cx="467.1" cy="193.6" r="1.08" fill="hsl(50 30% 92% / 0.52)"/><circle cx="507.7" cy="129.9" r="0.95" fill="hsl(50 30% 92% / 0.44)"/><circle cx="793.9" cy="514.3" r="1.04" fill="hsl(50 30% 92% / 0.56)"/><circle cx="1465.8" cy="345.0" r="0.77" fill="hsl(50 30% 92% / 0.83)"/><circle cx="420.8" cy="313.0" r="0.63" fill="hsl(50 30% 92% / 0.77)"/><circle cx="1002.5" cy="193.0" r="0.92" fill="hsl(50 30% 92% / 0.64)"/><circle cx="1038.6" cy="86.5" r="0.89" fill="hsl(50 30% 92% / 0.41)"/><circle cx="185.3" cy="370.3" r="0.62" fill="hsl(50 30% 92% / 0.94)"/><circle cx="1518.6" cy="365.7" r="1.03" fill="hsl(50 30% 92% / 0.45)"/><circle cx="604.3" cy="442.6" r="0.95" fill="hsl(50 30% 92% / 0.85)"/><circle cx="1316.1" cy="298.8" r="1.00" fill="hsl(50 30% 92% / 0.71)"/><circle cx="23.8" cy="477.7" r="0.93" fill="hsl(50 30% 92% / 0.39)"/><circle cx="1209.0" cy="99.7" r="0.60" fill="hsl(50 30% 92% / 0.94)"/><circle cx="1282.9" cy="64.7" r="2.32" fill="hsl(50 30% 92% / 0.55)"/><circle cx="402.1" cy="11.3" r="0.96" fill="hsl(50 30% 92% / 0.62)"/><circle cx="316.0" cy="243.0" r="0.78" fill="hsl(50 30% 92% / 0.81)"/></g><circle cx="553.4" cy="144.0" r="100" fill="url(#g8zo9f3-glow)"/><circle cx="553.4" cy="144.0" r="34" fill="hsl(48.0 35.0% 88.0%)"/><path d="M0 900 L0 415.7 Q0.0 415.7 47.1 403.2 Q94.1 390.6 141.2 407.3 Q188.2 423.9 235.3 417.0 Q282.4 410.2 329.4 410.3 Q376.5 410.5 423.5 461.2 Q470.6 511.9 517.6 514.4 Q564.7 517.0 611.8 543.1 Q658.8 569.3 705.9 558.9 Q752.9 548.5 800.0 517.4 Q847.1 486.2 894.1 468.9 Q941.2 451.6 988.2 396.4 Q1035.3 341.2 1082.4 339.5 Q1129.4 337.7 1176.5 354.7 Q1223.5 371.8 1270.6 364.1 Q1317.6 356.4 1364.7 390.1 Q1411.8 423.8 1458.8 411.7 Q1505.9 399.6 1552.9 416.5 L1600 433.3 L1600 900 Z" fill="hsl(223.3 33.9% 19.1%)"/><path d="M0 900 L0 477.6 Q0.0 477.6 50.0 450.9 Q100.0 424.2 150.0 425.3 Q200.0 426.3 250.0 450.9 Q300.0 475.5 350.0 526.6 Q400.0 577.6 450.0 576.4 Q500.0 575.3 550.0 585.2 Q600.0 595.1 650.0 549.8 Q700.0 504.6 750.0 528.8 Q800.0 552.9 850.0 554.6 Q900.0 556.2 950.0 513.0 Q1000.0 469.8 1050.0 447.8 Q1100.0 425.7 1150.0 406.4 Q1200.0 387.2 1250.0 432.1 Q1300.0 477.0 1350.0 488.6 Q1400.0 500.2 1450.0 502.6 Q1500.0 504.9 1550.0 488.9 L1600 472.9 L1600 900 Z" fill="hsl(223.6 33.7% 18.5%)"/><path d="M0 900 L0 571.3 Q0.0 571.3 40.0 598.3 Q80.0 625.2 120.0 623.1 Q160.0 621.1 200.0 624.3 Q240.0 627.6 280.0 603.2 Q320.0 578.8 360.0 539.8 Q400.0 500.8 440.0 495.7 Q480.0 490.6 520.0 500.9 Q560.0 511.2 600.0 528.4 Q640.0 545.6 680.0 568.8 Q720.0 592.0 760.0 599.8 Q800.0 607.6 840.0 592.2 Q880.0 576.7 920.0 600.2 Q960.0 623.7 1000.0 608.0 Q1040.0 592.2 1080.0 603.1 Q1120.0 614.0 1160.0 603.7 Q1200.0 593.3 1240.0 542.6 Q1280.0 491.8 1320.0 494.4 Q1360.0 497.0 1400.0 489.3 Q1440.0 481.6 1480.0 508.6 Q1520.0 535.6 1560.0 568.9 L1600 602.2 L1600 900 Z" fill="hsl(224.5 32.9% 16.6%)"/><path d="M0 900 L0 693.5 Q0.0 693.5 57.1 680.2 Q114.3 666.9 171.4 627.6 Q228.6 588.3 285.7 587.0 Q342.9 585.7 400.0 592.9 Q457.1 600.2 514.3 615.5 Q571.4 630.9 628.6 625.6 Q685.7 620.2 742.9 640.6 Q800.0 660.9 857.1 677.6 Q914.3 694.4 971.4 695.2 Q1028.6 696.0 1085.7 657.3 Q1142.9 618.6 1200.0 606.5 Q1257.1 594.3 1314.3 597.7 Q1371.4 601.0 1428.6 605.7 Q1485.7 610.5 1542.9 602.4 L1600 594.2 L1600 900 Z" fill="hsl(226.0 31.7% 13.4%)"/><path d="M0 900 L0 663.9 Q0.0 663.9 44.4 686.3 Q88.9 708.7 133.3 714.7 Q177.8 720.7 222.2 711.7 Q266.7 702.6 311.1 711.7 Q355.6 720.8 400.0 704.3 Q444.4 687.9 488.9 701.5 Q533.3 715.2 577.8 726.8 Q622.2 738.3 666.7 730.9 Q711.1 723.4 755.6 703.8 Q800.0 684.1 844.4 678.4 Q888.9 672.7 933.3 649.7 Q977.8 626.7 1022.2 638.5 Q1066.7 650.3 1111.1 656.1 Q1155.6 662.0 1200.0 661.4 Q1244.4 660.8 1288.9 662.5 Q1333.3 664.1 1377.8 656.5 Q1422.2 648.9 1466.7 642.9 Q1511.1 636.8 1555.6 662.7 L1600 688.5 L1600 900 Z" fill="hsl(228.0 30.0% 9.0%)"/><path d="M682.8 900 C713.6 740 591.8 650.0 597.8 580.0 L599.8 580.0 C607.8 650.0 1225.6 740 1194.8 900 Z" fill="hsl(228.0 22.0% 13.0%)"/><path d="M938.8 900 C969.6 740 597.8 640.0 598.8 580.0" fill="none" stroke="hsl(45 90% 70% / 0.85)" stroke-width="7" stroke-dasharray="46 38" stroke-linecap="round"/><rect width="1600" height="900" fill="url(#g8zo9f3-vig)"/></svg>