<svg xmlns="http://www.w3.org/2000/svg" viewBox="0 0 1600 900" role="img" preserveAspectRatio="xMidYMid slice"><title>bao-duong-xe-truoc-chuyen-di-dai s2</title><defs><linearGradient id="guc73oa-sky" x1="0" y1="0" x2="0" y2="1"><stop offset="0%" stop-color="hsl(232.0 45.0% 8.0%)"/><stop offset="50%" stop-color="hsl(228.0 40.0% 14.0%)"/><stop offset="100%" stop-color="hsl(222.0 35.0% 22.0%)"/></linearGradient><radialGradient id="guc73oa-glow"><stop offset="0%" stop-color="hsl(48.0 35.0% 88.0% / 0.850)"/><stop offset="45%" stop-color="hsl(48.0 35.0% 88.0% / 0.250)"/><stop offset="100%" stop-color="hsl(48.0 35.0% 88.0% / 0.000)"/></radialGradient><radialGradient id="guc73oa-vig" cx="50%" cy="42%" r="75%"><stop offset="70%" stop-color="hsl(0 0% 0% / 0)"/><stop offset="100%" stop-color="hsl(0 0% 0% / 0.18)"/></radialGradient></defs><rect width="1600" height="583.7" fill="url(#guc73oa-sky)"/><rect y="582.7" width="1600" height="317.3" fill="hsl(226.5 31.3% 12.3%)"/><g><circle cx="357.2" cy="272.2" r="0.88" fill="hsl(50 30% 92% / 0.35)"/><circle cx="983.6" cy="469.0" r="1.12" fill="hsl(50 30% 92% / 0.91)"/><circle cx="766.6" cy="95.7" r="1.18" fill="hsl(50 30% 92% / 0.66)"/><circle cx="1041.4" cy="344.0" r="0.76" fill="hsl(50 30% 92% / 0.57)"/><circle cx="1575.6" cy="257.5" r="0.82" fill="hsl(50 30% 92% / 0.40)"/><circle cx="690.8" cy="453.8" r="1.17" fill="hsl(50 30% 92% / 0.49)"/><circle cx="1325.6" cy="529.9" r="1.15" fill="hsl(50 30% 92% / 0.73)"/><circle cx="1563.6" cy="396.2" r="1.06" fill="hsl(50 30% 92% / 0.57)"/><circle cx="1470.2" cy="461.5" r="0.82" fill="hsl(50 30% 92% / 0.50)"/><circle cx="1064.4" cy="260.2" r="1.84" fill="hsl(50 30% 92% / 0.65)"/><circle cx="109.7" cy="103.2" r="0.66" fill="hsl(50 30% 92% / 0.81)"/><circle cx="244.1" cy="472.9" r="0.82" fill="hsl(50 30% 92% / 0.72)"/><circle cx="156.5" cy="63.2" r="0.67" fill="hsl(50 30% 92% / 0.72)"/><circle cx="1056.4" cy="278.1" r="1.29" fill="hsl(50 30% 92% / 0.39)"/><circle cx="305.7" cy="207.2" r="0.74" fill="hsl(50 30% 92% / 0.53)"/><circle cx="695.5" cy="465.8" r="0.61" fill="hsl(50 30% 92% / 0.94)"/><circle cx="1194.3" cy="443.1" r="0.73" fill="hsl(50 30% 92% / 0.76)"/><circle cx="945.0" cy="260.5" r="1.11" fill="hsl(50 30% 92% / 0.55)"/><circle cx="1041.0" cy="11.8" r="0.72" fill="hsl(50 30% 92% / 0.93)"/><circle cx="1015.9" cy="504.8" r="0.99" fill="hsl(50 30% 92% / 0.61)"/><circle cx="602.6" cy="228.3" r="1.06" fill="hsl(50 30% 92% / 0.91)"/><circle cx="1147.3" cy="157.2" r="1.24" fill="hsl(50 30% 92% / 0.49)"/><circle cx="880.6" cy="330.7" r="0.79" fill="hsl(50 30% 92% / 0.87)"/><circle cx="1365.8" cy="51.9" r="1.27" fill="hsl(50 30% 92% / 0.55)"/><circle cx="799.2" cy="429.5" r="1.78" fill="hsl(50 30% 92% / 0.74)"/><circle cx="173.4" cy="162.2" r="1.00" fill="hsl(50 30% 92% / 0.46)"/><circle cx="290.9" cy="471.7" r="0.64" fill="hsl(50 30% 92% / 0.43)"/><circle cx="508.4" cy="388.8" r="0.83" fill="hsl(50 30% 92% / 0.57)"/><circle cx="997.5" cy="364.9" r="0.94" fill="hsl(50 30% 92% / 0.87)"/><circle cx="1449.5" cy="111.8" r="1.05" fill="hsl(50 30% 92% / 0.65)"/><circle cx="849.3" cy="375.8" r="1.12" fill="hsl(50 30% 92% / 0.41)"/><circle cx="652.3" cy="196.2" r="1.24" fill="hsl(50 30% 92% / 0.87)"/><circle cx="1536.0" cy="442.0" r="2.25" fill="hsl(50 30% 92% / 0.81)"/><circle cx="534.0" cy="264.4" r="0.76" fill="hsl(50 30% 92% / 0.47)"/><circle cx="1169.5" cy="307.9" r="1.15" fill="hsl(50 30% 92% / 0.39)"/><circle cx="1341.3" cy="507.5" r="0.87" fill="hsl(50 30% 92% / 0.46)"/><circle cx="633.0" cy="154.9" r="2.52" fill="hsl(50 30% 92% / 0.65)"/><circle cx="1237.8" cy="499.9" r="1.19" fill="hsl(50 30% 92% / 0.42)"/><circle cx="768.5" cy="301.0" r="0.88" fill="hsl(50 30% 92% / 0.40)"/><circle cx="392.9" cy="235.6" r="1.10" fill="hsl(50 30% 92% / 0.38)"/><circle cx="732.3" cy="259.0" r="0.92" fill="hsl(50 30% 92% / 0.84)"/><circle cx="249.9" cy="154.9" r="1.05" fill="hsl(50 30% 92% / 0.84)"/><circle cx="65.8" cy="295.6" r="0.73" fill="hsl(50 30% 92% / 0.67)"/><circle cx="1470.0" cy="404.6" r="0.67" fill="hsl(50 30% 92% / 0.39)"/><circle cx="262.7" cy="395.4" r="0.72" fill="hsl(50 30% 92% / 0.44)"/><circle cx="733.2" cy="259.0" r="0.96" fill="hsl(50 30% 92% / 0.47)"/><circle cx="1513.8" cy="200.2" r="1.72" fill="hsl(50 30% 92% / 0.56)"/><circle cx="431.4" cy="42.6" r="0.64" fill="hsl(50 30% 92% / 0.48)"/><circle cx="1173.1" cy="252.9" r="1.21" fill="hsl(50 30% 92% / 0.60)"/><circle cx="508.5" cy="379.2" r="1.05" fill="hsl(50 30% 92% / 0.48)"/><circle cx="167.3" cy="317.0" r="0.83" fill="hsl(50 30% 92% / 0.74)"/><circle cx="223.2" cy="417.9" r="0.69" fill="hsl(50 30% 92% / 0.81)"/><circle cx="1457.3" cy="71.7" r="0.86" fill="hsl(50 30% 92% / 0.54)"/><circle cx="1316.5" cy="404.4" r="1.19" fill="hsl(50 30% 92% / 0.63)"/><circle cx="577.7" cy="527.7" r="0.83" fill="hsl(50 30% 92% / 0.83)"/><circle cx="65.1" cy="49.2" r="0.85" fill="hsl(50 30% 92% / 0.38)"/><circle cx="601.0" cy="246.0" r="0.65" fill="hsl(50 30% 92% / 0.63)"/><circle cx="1326.6" cy="428.9" r="0.60" fill="hsl(50 30% 92% / 0.47)"/><circle cx="968.6" cy="227.9" r="1.08" fill="hsl(50 30% 92% / 0.82)"/><circle cx="719.6" cy="164.5" r="0.98" fill="hsl(50 30% 92% / 0.37)"/><circle cx="728.8" cy="461.8" r="0.96" fill="hsl(50 30% 92% / 0.60)"/><circle cx="562.7" cy="153.1" r="1.22" fill="hsl(50 30% 92% / 0.81)"/><circle cx="176.0" cy="399.5" r="1.28" fill="hsl(50 30% 92% / 0.54)"/><circle cx="383.0" cy="471.1" r="1.27" fill="hsl(50 30% 92% / 0.56)"/><circle cx="62.3" cy="420.3" r="0.63" fill="hsl(50 30% 92% / 0.61)"/><circle cx="905.5" cy="23.4" r="0.83" fill="hsl(50 30% 92% / 0.74)"/><circle cx="0.5" cy="81.3" r="0.68" fill="hsl(50 30% 92% / 0.76)"/><circle cx="569.3" cy="74.1" r="1.06" fill="hsl(50 30% 92% / 0.64)"/><circle cx="226.2" cy="483.8" r="0.69" fill="hsl(50 30% 92% / 0.38)"/><circle cx="1427.7" cy="160.9" r="1.29" fill="hsl(50 30% 92% / 0.54)"/><circle cx="418.4" cy="327.3" r="0.89" fill="hsl(50 30% 92% / 0.70)"/><circle cx="968.7" cy="413.4" r="1.89" fill="hsl(50 30% 92% / 0.95)"/><circle cx="387.0" cy="109.8" r="0.71" fill="hsl(50 30% 92% / 0.53)"/><circle cx="258.3" cy="513.3" r="1.00" fill="hsl(50 30% 92% / 0.81)"/><circle cx="559.5" cy="308.4" r="0.80" fill="hsl(50 30% 92% / 0.81)"/><circle cx="261.3" cy="517.1" r="1.22" fill="hsl(50 30% 92% / 0.45)"/><circle cx="898.2" cy="398.2" r="1.00" fill="hsl(50 30% 92% / 0.64)"/><circle cx="88.1" cy="264.8" r="0.90" fill="hsl(50 30% 92% / 0.56)"/><circle cx="500.3" cy="83.7" r="0.78" fill="hsl(50 30% 92% / 0.89)"/><circle cx="511.8" cy="434.4" r="1.26" fill="hsl(50 30% 92% / 0.51)"/><circle cx="1010.6" cy="135.6" r="1.12" fill="hsl(50 30% 92% / 0.61)"/><circle cx="1506.7" cy="229.0" r="0.60" fill="hsl(50 30% 92% / 0.85)"/><circle cx="978.1" cy="157.1" r="1.10" fill="hsl(50 30% 92% / 0.90)"/><circle cx="1218.7" cy="115.3" r="1.29" fill="hsl(50 30% 92% / 0.74)"/><circle cx="1042.2" cy="39.9" r="1.19" fill="hsl(50 30% 92% / 0.39)"/><circle cx="1404.5" cy="38.2" r="0.79" fill="hsl(50 30% 92% / 0.50)"/><circle cx="1467.2" cy="443.5" r="1.20" fill="hsl(50 30% 92% / 0.49)"/><circle cx="1440.3" cy="467.2" r="1.04" fill="hsl(50 30% 92% / 0.42)"/><circle cx="163.2" cy="365.6" r="0.69" fill="hsl(50 30% 92% / 0.37)"/><circle cx="637.6" cy="119.5" r="1.27" fill="hsl(50 30% 92% / 0.75)"/><circle cx="852.1" cy="143.0" r="1.08" fill="hsl(50 30% 92% / 0.75)"/><circle cx="860.6" cy="381.4" r="0.97" fill="hsl(50 30% 92% / 0.41)"/><circle cx="986.3" cy="31.3" r="2.27" fill="hsl(50 30% 92% / 0.80)"/><circle cx="376.2" cy="460.8" r="0.79" fill="hsl(50 30% 92% / 0.49)"/><circle cx="775.0" cy="301.2" r="0.76" fill="hsl(50 30% 92% / 0.89)"/><circle cx="432.5" cy="24.3" r="1.17" fill="hsl(50 30% 92% / 0.37)"/><circle cx="1478.2" cy="525.0" r="1.22" fill="hsl(50 30% 92% / 0.36)"/><circle cx="1581.6" cy="245.4" r="1.69" fill="hsl(50 30% 92% / 0.58)"/><circle cx="1140.2" cy="263.7" r="0.81" fill="hsl(50 30% 92% / 0.88)"/><circle cx="1593.7" cy="201.4" r="1.07" fill="hsl(50 30% 92% / 0.80)"/><circle cx="152.6" cy="66.7" r="1.22" fill="hsl(50 30% 92% / 0.77)"/><circle cx="757.2" cy="172.9" r="1.23" fill="hsl(50 30% 92% / 0.62)"/><circle cx="1379.2" cy="142.9" r="0.79" fill="hsl(50 30% 92% / 0.36)"/><circle cx="872.2" cy="332.4" r="1.29" fill="hsl(50 30% 92% / 0.70)"/><circle cx="7.4" cy="416.0" r="0.76" fill="hsl(50 30% 92% / 0.72)"/><circle cx="893.2" cy="193.1" r="0.78" fill="hsl(50 30% 92% / 0.61)"/><circle cx="389.7" cy="342.9" r="1.25" fill="hsl(50 30% 92% / 0.77)"/><circle cx="1164.3" cy="284.8" r="1.08" fill="hsl(50 30% 92% / 0.81)"/><circle cx="1127.6" cy="70.0" r="0.90" fill="hsl(50 30% 92% / 0.77)"/><circle cx="965.2" cy="425.3" r="2.14" fill="hsl(50 30% 92% / 0.44)"/><circle cx="1461.9" cy="368.8" r="0.96" fill="hsl(50 30% 92% / 0.51)"/><circle cx="1252.1" cy="274.8" r="0.61" fill="hsl(50 30% 92% / 0.36)"/><circle cx="497.6" cy="466.3" r="0.63" fill="hsl(50 30% 92% / 0.71)"/><circle cx="555.3" cy="295.9" r="0.95" fill="hsl(50 30% 92% / 0.37)"/><circle cx="889.6" cy="109.7" r="1.08" fill="hsl(50 30% 92% / 0.44)"/><circle cx="765.6" cy="112.8" r="1.24" fill="hsl(50 30% 92% / 0.63)"/><circle cx="1278.9" cy="486.7" r="1.06" fill="hsl(50 30% 92% / 0.86)"/><circle cx="250.7" cy="162.7" r="0.95" fill="hsl(50 30% 92% / 0.66)"/><circle cx="1541.0" cy="395.6" r="0.96" fill="hsl(50 30% 92% / 0.50)"/><circle cx="810.5" cy="316.3" r="0.70" fill="hsl(50 30% 92% / 0.47)"/><circle cx="1155.7" cy="68.6" r="0.68" fill="hsl(50 30% 92% / 0.88)"/><circle cx="1235.9" cy="442.6" r="1.04" fill="hsl(50 30% 92% / 0.84)"/><circle cx="515.0" cy="282.1" r="0.90" fill="hsl(50 30% 92% / 0.74)"/><circle cx="1439.5" cy="237.5" r="1.10" fill="hsl(50 30% 92% / 0.93)"/><circle cx="378.3" cy="22.6" r="1.14" fill="hsl(50 30% 92% / 0.46)"/><circle cx="94.2" cy="178.9" r="0.85" fill="hsl(50 30% 92% / 0.44)"/><circle cx="217.8" cy="276.6" r="0.70" fill="hsl(50 30% 92% / 0.49)"/><circle cx="515.7" cy="88.2" r="0.98" fill="hsl(50 30% 92% / 0.77)"/></g><circle cx="1093.8" cy="163.4" r="110" fill="url(#guc73oa-glow)"/><circle cx="1093.8" cy="163.4" r="36" fill="hsl(48.0 35.0% 88.0%)"/><path d="M0 900 L0 420.6 Q0.0 420.6 44.4 420.8 Q88.9 421.0 133.3 412.8 Q177.8 404.5 222.2 404.7 Q266.7 404.8 311.1 396.0 Q355.6 387.1 400.0 338.4 Q444.4 289.6 488.9 270.3 Q533.3 251.1 577.8 283.6 Q622.2 316.1 666.7 347.2 Q711.1 378.2 755.6 434.3 Q800.0 490.3 844.4 497.9 Q888.9 505.5 933.3 474.4 Q977.8 443.2 1022.2 472.7 Q1066.7 502.2 1111.1 484.5 Q1155.6 466.9 1200.0 499.2 Q1244.4 531.5 1288.9 533.7 Q1333.3 535.8 1377.8 479.4 Q1422.2 422.9 1466.7 392.1 Q1511.1 361.3 1555.6 315.5 L1600 269.7 L1600 900 Z" fill="hsl(223.3 33.9% 19.1%)"/><path d="M0 900 L0 559.7 Q0.0 559.7 50.0 526.9 Q100.0 494.1 150.0 483.4 Q200.0 472.8 250.0 459.4 Q300.0 445.9 350.0 474.8 Q400.0 503.7 450.0 458.1 Q500.0 412.4 550.0 400.8 Q600.0 389.2 650.0 406.1 Q700.0 423.1 750.0 441.5 Q800.0 459.9 850.0 516.8 Q900.0 573.7 950.0 552.3 Q1000.0 530.9 1050.0 524.3 Q1100.0 517.7 1150.0 539.2 Q1200.0 560.6 1250.0 563.5 Q1300.0 566.4 1350.0 586.5 Q1400.0 606.6 1450.0 547.1 Q1500.0 487.5 1550.0 472.5 L1600 457.4 L1600 900 Z" fill="hsl(223.6 33.7% 18.5%)"/><path d="M0 900 L0 489.9 Q0.0 489.9 38.1 496.6 Q76.2 503.3 114.3 537.1 Q152.4 570.8 190.5 594.4 Q228.6 617.9 266.7 617.7 Q304.8 617.4 342.9 619.0 Q381.0 620.5 419.0 621.6 Q457.1 622.7 495.2 614.0 Q533.3 605.2 571.4 608.3 Q609.5 611.5 647.6 617.9 Q685.7 624.4 723.8 620.0 Q761.9 615.6 800.0 570.1 Q838.1 524.7 876.2 513.6 Q914.3 502.5 952.4 506.3 Q990.5 510.1 1028.6 527.3 Q1066.7 544.4 1104.8 547.4 Q1142.9 550.4 1181.0 567.3 Q1219.0 584.2 1257.1 587.6 Q1295.2 591.0 1333.3 582.2 Q1371.4 573.3 1409.5 585.7 Q1447.6 598.1 1485.7 632.2 Q1523.8 666.4 1561.9 665.1 L1600 663.8 L1600 900 Z" fill="hsl(224.5 32.9% 16.6%)"/><path d="M0 900 L0 671.5 Q0.0 671.5 44.4 660.6 Q88.9 649.8 133.3 655.6 Q177.8 661.5 222.2 671.6 Q266.7 681.7 311.1 683.1 Q355.6 684.5 400.0 687.0 Q444.4 689.4 488.9 689.2 Q533.3 688.9 577.8 660.6 Q622.2 632.3 666.7 613.8 Q711.1 595.3 755.6 606.8 Q800.0 618.3 844.4 624.3 Q888.9 630.3 933.3 626.9 Q977.8 623.5 1022.2 622.6 Q1066.7 621.7 1111.1 622.2 Q1155.6 622.6 1200.0 636.9 Q1244.4 651.1 1288.9 663.1 Q1333.3 675.0 1377.8 700.8 Q1422.2 726.7 1466.7 712.1 Q1511.1 697.6 1555.6 676.4 L1600 655.3 L1600 900 Z" fill="hsl(226.0 31.7% 13.4%)"/><path d="M0 900 L0 704.2 Q0.0 704.2 47.1 718.8 Q94.1 733.3 141.2 734.0 Q188.2 734.7 235.3 744.4 Q282.4 754.1 329.4 721.0 Q376.5 687.9 423.5 680.8 Q470.6 673.6 517.6 658.1 Q564.7 642.6 611.8 642.3 Q658.8 642.0 705.9 650.0 Q752.9 658.0 800.0 654.0 Q847.1 650.1 894.1 659.0 Q941.2 668.0 988.2 652.5 Q1035.3 637.0 1082.4 648.3 Q1129.4 659.7 1176.5 660.7 Q1223.5 661.7 1270.6 688.1 Q1317.6 714.6 1364.7 724.7 Q1411.8 734.7 1458.8 738.2 Q1505.9 741.7 1552.9 738.3 L1600 734.8 L1600 900 Z" fill="hsl(228.0 30.0% 9.0%)"/><path d="M249.4 900 C403.1 743.845900005661 702.9 657.7 708.9 587.7 L710.9 587.7 C718.9 657.7 915.1 743.845900005661 761.4 900 Z" fill="hsl(228.0 22.0% 13.0%)"/><path d="M505.4 900 C659.1 743.845900005661 708.9 647.7 709.9 587.7" fill="none" stroke="hsl(45 90% 70% / 0.85)" stroke-width="7" stroke-dasharray="46 38" stroke-linecap="round"/><rect width="1600" height="900" fill="url(#guc73oa-vig)"/></svg>