<svg xmlns="http://www.w3.org/2000/svg" viewBox="0 0 1600 900" role="img" preserveAspectRatio="xMidYMid slice"><title>bao-duong-xe-truoc-chuyen-di-dai s1</title><defs><linearGradient id="g1yux0rv-sky" x1="0" y1="0" x2="0" y2="1"><stop offset="0%" stop-color="hsl(232.0 45.0% 8.0%)"/><stop offset="50%" stop-color="hsl(228.0 40.0% 14.0%)"/><stop offset="100%" stop-color="hsl(222.0 35.0% 22.0%)"/></linearGradient><radialGradient id="g1yux0rv-glow"><stop offset="0%" stop-color="hsl(48.0 35.0% 88.0% / 0.850)"/><stop offset="45%" stop-color="hsl(48.0 35.0% 88.0% / 0.250)"/><stop offset="100%" stop-color="hsl(48.0 35.0% 88.0% / 0.000)"/></radialGradient><radialGradient id="g1yux0rv-vig" cx="50%" cy="42%" r="75%"><stop offset="70%" stop-color="hsl(0 0% 0% / 0)"/><stop offset="100%" stop-color="hsl(0 0% 0% / 0.18)"/></radialGradient></defs><rect width="1600" height="576.0" fill="url(#g1yux0rv-sky)"/><rect y="575.0" width="1600" height="325.0" fill="hsl(226.5 31.3% 12.3%)"/><g><circle cx="188.1" cy="26.8" r="0.85" fill="hsl(50 30% 92% / 0.53)"/><circle cx="784.9" cy="500.5" r="1.08" fill="hsl(50 30% 92% / 0.81)"/><circle cx="268.1" cy="466.4" r="2.43" fill="hsl(50 30% 92% / 0.72)"/><circle cx="1006.1" cy="175.8" r="1.08" fill="hsl(50 30% 92% / 0.79)"/><circle cx="273.0" cy="118.4" r="0.76" fill="hsl(50 30% 92% / 0.84)"/><circle cx="319.4" cy="488.8" r="1.30" fill="hsl(50 30% 92% / 0.88)"/><circle cx="956.3" cy="419.0" r="0.60" fill="hsl(50 30% 92% / 0.71)"/><circle cx="1310.6" cy="140.3" r="1.12" fill="hsl(50 30% 92% / 0.60)"/><circle cx="507.1" cy="484.2" r="1.09" fill="hsl(50 30% 92% / 0.84)"/><circle cx="893.3" cy="494.4" r="1.18" fill="hsl(50 30% 92% / 0.86)"/><circle cx="136.5" cy="251.9" r="1.17" fill="hsl(50 30% 92% / 0.40)"/><circle cx="605.5" cy="77.3" r="1.18" fill="hsl(50 30% 92% / 0.83)"/><circle cx="16.2" cy="227.4" r="0.76" fill="hsl(50 30% 92% / 0.66)"/><circle cx="1460.5" cy="26.2" r="0.68" fill="hsl(50 30% 92% / 0.39)"/><circle cx="1043.9" cy="267.5" r="0.87" fill="hsl(50 30% 92% / 0.41)"/><circle cx="1268.6" cy="486.5" r="0.69" fill="hsl(50 30% 92% / 0.43)"/><circle cx="1062.6" cy="206.5" r="1.18" fill="hsl(50 30% 92% / 0.58)"/><circle cx="947.2" cy="503.1" r="2.13" fill="hsl(50 30% 92% / 0.89)"/><circle cx="206.4" cy="368.3" r="0.90" fill="hsl(50 30% 92% / 0.72)"/><circle cx="1304.9" cy="55.9" r="1.11" fill="hsl(50 30% 92% / 0.68)"/><circle cx="285.0" cy="441.1" r="1.10" fill="hsl(50 30% 92% / 0.41)"/><circle cx="417.8" cy="139.3" r="0.80" fill="hsl(50 30% 92% / 0.90)"/><circle cx="1315.4" cy="86.4" r="1.86" fill="hsl(50 30% 92% / 0.94)"/><circle cx="471.8" cy="481.6" r="0.66" fill="hsl(50 30% 92% / 0.92)"/><circle cx="517.5" cy="512.1" r="1.06" fill="hsl(50 30% 92% / 0.72)"/><circle cx="693.6" cy="334.1" r="2.24" fill="hsl(50 30% 92% / 0.46)"/><circle cx="745.4" cy="207.2" r="1.22" fill="hsl(50 30% 92% / 0.44)"/><circle cx="969.5" cy="167.5" r="2.37" fill="hsl(50 30% 92% / 0.72)"/><circle cx="461.3" cy="464.1" r="1.03" fill="hsl(50 30% 92% / 0.46)"/><circle cx="170.9" cy="423.6" r="0.70" fill="hsl(50 30% 92% / 0.70)"/><circle cx="242.4" cy="317.0" r="1.15" fill="hsl(50 30% 92% / 0.84)"/><circle cx="779.9" cy="315.5" r="1.19" fill="hsl(50 30% 92% / 0.82)"/><circle cx="953.9" cy="430.1" r="0.81" fill="hsl(50 30% 92% / 0.39)"/><circle cx="1334.2" cy="404.8" r="0.90" fill="hsl(50 30% 92% / 0.47)"/><circle cx="1363.7" cy="13.4" r="1.08" fill="hsl(50 30% 92% / 0.48)"/><circle cx="1296.6" cy="404.8" r="0.61" fill="hsl(50 30% 92% / 0.57)"/><circle cx="1129.7" cy="421.9" r="0.80" fill="hsl(50 30% 92% / 0.82)"/><circle cx="369.4" cy="304.8" r="1.01" fill="hsl(50 30% 92% / 0.55)"/><circle cx="1211.5" cy="157.9" r="0.71" fill="hsl(50 30% 92% / 0.66)"/><circle cx="958.7" cy="45.4" r="0.65" fill="hsl(50 30% 92% / 0.89)"/><circle cx="941.7" cy="523.1" r="2.03" fill="hsl(50 30% 92% / 0.76)"/><circle cx="694.8" cy="386.0" r="0.69" fill="hsl(50 30% 92% / 0.94)"/><circle cx="1279.6" cy="477.0" r="2.22" fill="hsl(50 30% 92% / 0.40)"/><circle cx="763.0" cy="137.7" r="1.19" fill="hsl(50 30% 92% / 0.88)"/><circle cx="397.4" cy="428.5" r="0.69" fill="hsl(50 30% 92% / 0.48)"/><circle cx="1189.1" cy="160.4" r="0.83" fill="hsl(50 30% 92% / 0.81)"/><circle cx="782.8" cy="196.9" r="0.91" fill="hsl(50 30% 92% / 0.61)"/><circle cx="162.4" cy="345.0" r="0.80" fill="hsl(50 30% 92% / 0.64)"/><circle cx="1086.9" cy="12.7" r="1.27" fill="hsl(50 30% 92% / 0.45)"/><circle cx="30.7" cy="188.3" r="1.09" fill="hsl(50 30% 92% / 0.36)"/><circle cx="489.9" cy="208.5" r="0.93" fill="hsl(50 30% 92% / 0.73)"/><circle cx="297.7" cy="260.4" r="0.62" fill="hsl(50 30% 92% / 0.88)"/><circle cx="208.4" cy="448.4" r="1.18" fill="hsl(50 30% 92% / 0.44)"/><circle cx="102.0" cy="352.9" r="0.75" fill="hsl(50 30% 92% / 0.64)"/><circle cx="1236.2" cy="263.4" r="0.65" fill="hsl(50 30% 92% / 0.63)"/><circle cx="901.6" cy="242.9" r="1.67" fill="hsl(50 30% 92% / 0.72)"/><circle cx="885.3" cy="188.4" r="1.19" fill="hsl(50 30% 92% / 0.77)"/><circle cx="172.8" cy="279.3" r="1.23" fill="hsl(50 30% 92% / 0.74)"/><circle cx="361.0" cy="326.0" r="1.19" fill="hsl(50 30% 92% / 0.70)"/><circle cx="1504.3" cy="402.8" r="0.90" fill="hsl(50 30% 92% / 0.86)"/><circle cx="299.5" cy="476.2" r="2.18" fill="hsl(50 30% 92% / 0.83)"/><circle cx="1404.2" cy="487.2" r="1.08" fill="hsl(50 30% 92% / 0.64)"/><circle cx="1381.2" cy="219.8" r="1.14" fill="hsl(50 30% 92% / 0.40)"/><circle cx="885.6" cy="491.1" r="1.08" fill="hsl(50 30% 92% / 0.41)"/><circle cx="949.7" cy="467.2" r="1.22" fill="hsl(50 30% 92% / 0.45)"/><circle cx="1364.0" cy="276.8" r="0.65" fill="hsl(50 30% 92% / 0.87)"/><circle cx="1590.4" cy="89.1" r="0.86" fill="hsl(50 30% 92% / 0.56)"/><circle cx="1084.3" cy="66.4" r="1.07" fill="hsl(50 30% 92% / 0.35)"/><circle cx="588.6" cy="330.6" r="0.96" fill="hsl(50 30% 92% / 0.48)"/><circle cx="316.3" cy="460.6" r="0.88" fill="hsl(50 30% 92% / 0.65)"/><circle cx="1015.9" cy="438.6" r="1.04" fill="hsl(50 30% 92% / 0.42)"/><circle cx="1207.9" cy="157.8" r="1.19" fill="hsl(50 30% 92% / 0.72)"/><circle cx="1327.2" cy="418.1" r="0.86" fill="hsl(50 30% 92% / 0.45)"/><circle cx="228.5" cy="334.3" r="0.81" fill="hsl(50 30% 92% / 0.74)"/><circle cx="985.0" cy="38.7" r="0.98" fill="hsl(50 30% 92% / 0.36)"/><circle cx="201.0" cy="316.3" r="0.79" fill="hsl(50 30% 92% / 0.86)"/><circle cx="988.2" cy="339.1" r="2.03" fill="hsl(50 30% 92% / 0.83)"/><circle cx="1168.2" cy="503.6" r="0.70" fill="hsl(50 30% 92% / 0.85)"/><circle cx="1085.1" cy="71.7" r="1.14" fill="hsl(50 30% 92% / 0.83)"/><circle cx="497.8" cy="440.5" r="1.23" fill="hsl(50 30% 92% / 0.53)"/><circle cx="348.1" cy="526.6" r="0.77" fill="hsl(50 30% 92% / 0.36)"/><circle cx="175.2" cy="363.5" r="0.96" fill="hsl(50 30% 92% / 0.83)"/><circle cx="1145.0" cy="332.2" r="1.15" fill="hsl(50 30% 92% / 0.68)"/><circle cx="681.2" cy="162.9" r="0.96" fill="hsl(50 30% 92% / 0.95)"/><circle cx="1109.1" cy="57.6" r="1.02" fill="hsl(50 30% 92% / 0.58)"/><circle cx="1390.9" cy="91.5" r="1.16" fill="hsl(50 30% 92% / 0.58)"/><circle cx="539.6" cy="244.0" r="0.71" fill="hsl(50 30% 92% / 0.65)"/><circle cx="531.3" cy="37.4" r="0.81" fill="hsl(50 30% 92% / 0.47)"/><circle cx="61.9" cy="154.3" r="0.79" fill="hsl(50 30% 92% / 0.58)"/><circle cx="1589.5" cy="508.9" r="0.86" fill="hsl(50 30% 92% / 0.54)"/><circle cx="405.2" cy="421.9" r="1.82" fill="hsl(50 30% 92% / 0.49)"/><circle cx="880.9" cy="109.9" r="0.65" fill="hsl(50 30% 92% / 0.76)"/><circle cx="742.7" cy="369.6" r="0.70" fill="hsl(50 30% 92% / 0.88)"/><circle cx="1333.4" cy="383.1" r="1.02" fill="hsl(50 30% 92% / 0.37)"/><circle cx="685.6" cy="167.4" r="0.97" fill="hsl(50 30% 92% / 0.54)"/><circle cx="901.6" cy="458.9" r="2.12" fill="hsl(50 30% 92% / 0.72)"/><circle cx="296.5" cy="33.4" r="1.08" fill="hsl(50 30% 92% / 0.86)"/><circle cx="613.3" cy="200.4" r="2.40" fill="hsl(50 30% 92% / 0.84)"/><circle cx="579.7" cy="257.2" r="1.02" fill="hsl(50 30% 92% / 0.65)"/><circle cx="365.3" cy="170.8" r="1.22" fill="hsl(50 30% 92% / 0.68)"/><circle cx="1171.2" cy="270.2" r="0.87" fill="hsl(50 30% 92% / 0.38)"/><circle cx="400.5" cy="364.9" r="1.02" fill="hsl(50 30% 92% / 0.37)"/><circle cx="1138.2" cy="28.2" r="1.05" fill="hsl(50 30% 92% / 0.85)"/><circle cx="438.6" cy="127.1" r="2.02" fill="hsl(50 30% 92% / 0.45)"/><circle cx="1480.4" cy="147.4" r="0.65" fill="hsl(50 30% 92% / 0.71)"/><circle cx="1268.6" cy="457.6" r="1.27" fill="hsl(50 30% 92% / 0.93)"/><circle cx="916.2" cy="290.9" r="1.05" fill="hsl(50 30% 92% / 0.54)"/><circle cx="810.8" cy="229.6" r="0.80" fill="hsl(50 30% 92% / 0.85)"/><circle cx="1318.9" cy="79.2" r="0.86" fill="hsl(50 30% 92% / 0.63)"/><circle cx="955.6" cy="382.2" r="1.20" fill="hsl(50 30% 92% / 0.87)"/><circle cx="1379.6" cy="178.8" r="0.88" fill="hsl(50 30% 92% / 0.58)"/><circle cx="519.1" cy="523.4" r="0.76" fill="hsl(50 30% 92% / 0.76)"/><circle cx="567.5" cy="294.0" r="0.60" fill="hsl(50 30% 92% / 0.51)"/><circle cx="691.4" cy="144.9" r="1.02" fill="hsl(50 30% 92% / 0.74)"/><circle cx="1345.6" cy="438.2" r="1.15" fill="hsl(50 30% 92% / 0.74)"/><circle cx="1009.1" cy="173.6" r="2.48" fill="hsl(50 30% 92% / 0.73)"/><circle cx="978.6" cy="414.2" r="0.94" fill="hsl(50 30% 92% / 0.50)"/><circle cx="170.8" cy="201.3" r="1.03" fill="hsl(50 30% 92% / 0.72)"/><circle cx="658.9" cy="59.0" r="0.87" fill="hsl(50 30% 92% / 0.92)"/><circle cx="154.9" cy="457.8" r="0.75" fill="hsl(50 30% 92% / 0.70)"/><circle cx="174.1" cy="313.9" r="0.71" fill="hsl(50 30% 92% / 0.75)"/><circle cx="170.3" cy="252.4" r="1.10" fill="hsl(50 30% 92% / 0.48)"/><circle cx="356.5" cy="373.3" r="0.94" fill="hsl(50 30% 92% / 0.52)"/><circle cx="1478.8" cy="86.1" r="1.77" fill="hsl(50 30% 92% / 0.51)"/><circle cx="809.2" cy="457.2" r="1.22" fill="hsl(50 30% 92% / 0.65)"/><circle cx="525.9" cy="373.6" r="1.05" fill="hsl(50 30% 92% / 0.92)"/><circle cx="1013.9" cy="327.9" r="0.97" fill="hsl(50 30% 92% / 0.62)"/><circle cx="306.3" cy="35.4" r="0.93" fill="hsl(50 30% 92% / 0.51)"/><circle cx="1457.4" cy="479.7" r="0.86" fill="hsl(50 30% 92% / 0.63)"/><circle cx="924.7" cy="137.5" r="0.75" fill="hsl(50 30% 92% / 0.38)"/></g><circle cx="563.8" cy="144.0" r="100" fill="url(#g1yux0rv-glow)"/><circle cx="563.8" cy="144.0" r="34" fill="hsl(48.0 35.0% 88.0%)"/><path d="M0 900 L0 473.7 Q0.0 473.7 47.1 455.6 Q94.1 437.5 141.2 431.4 Q188.2 425.3 235.3 407.8 Q282.4 390.4 329.4 332.0 Q376.5 273.7 423.5 327.4 Q470.6 381.2 517.6 428.2 Q564.7 475.3 611.8 482.8 Q658.8 490.2 705.9 475.9 Q752.9 461.5 800.0 489.7 Q847.1 517.9 894.1 513.2 Q941.2 508.5 988.2 524.3 Q1035.3 540.2 1082.4 523.3 Q1129.4 506.4 1176.5 444.8 Q1223.5 383.1 1270.6 349.6 Q1317.6 316.0 1364.7 361.9 Q1411.8 407.7 1458.8 406.4 Q1505.9 405.0 1552.9 406.1 L1600 407.2 L1600 900 Z" fill="hsl(223.3 33.9% 19.1%)"/><path d="M0 900 L0 603.6 Q0.0 603.6 53.3 604.2 Q106.7 604.7 160.0 576.8 Q213.3 548.8 266.7 494.2 Q320.0 439.6 373.3 407.1 Q426.7 374.5 480.0 381.0 Q533.3 387.5 586.7 437.4 Q640.0 487.3 693.3 484.9 Q746.7 482.6 800.0 488.3 Q853.3 494.0 906.7 493.3 Q960.0 492.6 1013.3 531.4 Q1066.7 570.3 1120.0 561.3 Q1173.3 552.3 1226.7 541.8 Q1280.0 531.3 1333.3 440.2 Q1386.7 349.1 1440.0 356.0 Q1493.3 363.0 1546.7 368.7 L1600 374.5 L1600 900 Z" fill="hsl(223.6 33.7% 18.5%)"/><path d="M0 900 L0 520.7 Q0.0 520.7 50.0 548.9 Q100.0 577.0 150.0 566.2 Q200.0 555.4 250.0 566.5 Q300.0 577.6 350.0 568.5 Q400.0 559.3 450.0 594.0 Q500.0 628.8 550.0 618.3 Q600.0 607.9 650.0 601.4 Q700.0 594.9 750.0 542.3 Q800.0 489.8 850.0 479.9 Q900.0 470.1 950.0 449.1 Q1000.0 428.2 1050.0 470.1 Q1100.0 512.0 1150.0 521.9 Q1200.0 531.9 1250.0 573.4 Q1300.0 614.8 1350.0 621.2 Q1400.0 627.5 1450.0 621.4 Q1500.0 615.3 1550.0 586.8 L1600 558.2 L1600 900 Z" fill="hsl(224.5 32.9% 16.6%)"/><path d="M0 900 L0 590.7 Q0.0 590.7 57.1 594.4 Q114.3 598.1 171.4 629.9 Q228.6 661.6 285.7 654.6 Q342.9 647.6 400.0 647.1 Q457.1 646.7 514.3 662.2 Q571.4 677.8 628.6 686.4 Q685.7 695.0 742.9 699.9 Q800.0 704.9 857.1 670.5 Q914.3 636.1 971.4 633.6 Q1028.6 631.1 1085.7 639.5 Q1142.9 647.9 1200.0 633.4 Q1257.1 618.9 1314.3 605.2 Q1371.4 591.6 1428.6 584.9 Q1485.7 578.3 1542.9 617.0 L1600 655.7 L1600 900 Z" fill="hsl(226.0 31.7% 13.4%)"/><path d="M0 900 L0 640.5 Q0.0 640.5 50.0 639.6 Q100.0 638.8 150.0 649.5 Q200.0 660.2 250.0 678.2 Q300.0 696.1 350.0 699.9 Q400.0 703.8 450.0 706.9 Q500.0 710.1 550.0 706.4 Q600.0 702.7 650.0 708.0 Q700.0 713.2 750.0 721.8 Q800.0 730.3 850.0 730.1 Q900.0 730.0 950.0 713.8 Q1000.0 697.6 1050.0 686.9 Q1100.0 676.1 1150.0 660.7 Q1200.0 645.3 1250.0 655.3 Q1300.0 665.2 1350.0 666.8 Q1400.0 668.3 1450.0 682.8 Q1500.0 697.3 1550.0 693.8 L1600 690.4 L1600 900 Z" fill="hsl(228.0 30.0% 9.0%)"/><path d="M332.0 900 C387.2 740 823.3 650.0 829.3 580.0 L831.3 580.0 C839.3 650.0 899.2 740 844.0 900 Z" fill="hsl(228.0 22.0% 13.0%)"/><path d="M588.0 900 C643.2 740 829.3 640.0 830.3 580.0" fill="none" stroke="hsl(45 90% 70% / 0.85)" stroke-width="7" stroke-dasharray="46 38" stroke-linecap="round"/><rect width="1600" height="900" fill="url(#g1yux0rv-vig)"/></svg>