<svg xmlns="http://www.w3.org/2000/svg" viewBox="0 0 1600 900" role="img" preserveAspectRatio="xMidYMid slice"><title>pu-luong-thung-lung-xanh hero</title><defs><linearGradient id="g1bwm2po-sky" x1="0" y1="0" x2="0" y2="1"><stop offset="0%" stop-color="hsl(170.0 30.0% 52.0%)"/><stop offset="50%" stop-color="hsl(150.0 25.0% 68.0%)"/><stop offset="100%" stop-color="hsl(60.0 35.0% 78.0%)"/></linearGradient><radialGradient id="g1bwm2po-glow"><stop offset="0%" stop-color="hsl(52.0 70.0% 84.0% / 0.850)"/><stop offset="45%" stop-color="hsl(52.0 70.0% 84.0% / 0.250)"/><stop offset="100%" stop-color="hsl(52.0 70.0% 84.0% / 0.000)"/></radialGradient><linearGradient id="g1bwm2po-fog1" x1="0" y1="0" x2="0" y2="1"><stop offset="0%" stop-color="hsl(40 20% 96% / 0)"/><stop offset="55%" stop-color="hsl(40 20% 96% / 0.20)"/><stop offset="100%" stop-color="hsl(40 20% 96% / 0)"/></linearGradient><radialGradient id="g1bwm2po-vig" cx="50%" cy="42%" r="75%"><stop offset="70%" stop-color="hsl(0 0% 0% / 0)"/><stop offset="100%" stop-color="hsl(0 0% 0% / 0.18)"/></radialGradient></defs><rect width="1600" height="564.4" fill="url(#g1bwm2po-sky)"/><rect y="563.4" width="1600" height="336.6" fill="hsl(133.5 35.0% 28.5%)"/><circle cx="460.9" cy="310.4" r="100" fill="url(#g1bwm2po-glow)"/><circle cx="460.9" cy="310.4" r="42" fill="hsl(52.0 70.0% 84.0%)"/><path d="M0 900 L0 478.8 L0.0 478.8 L106.7 387.4 L213.3 275.8 L320.0 320.7 L426.7 461.5 L533.3 543.2 L640.0 534.9 L746.7 516.6 L853.3 378.1 L960.0 377.6 L1066.7 362.9 L1173.3 374.6 L1280.0 425.7 L1386.7 434.5 L1493.3 521.8 L1600.0 457.1 L1600 900 Z" fill="hsl(81.6 35.0% 63.5%)"/><path d="M0 900 L0 541.6 L0.0 541.6 L76.2 540.8 L152.4 572.6 L228.6 515.3 L304.8 461.0 L381.0 454.6 L457.1 416.8 L533.3 412.7 L609.5 476.5 L685.7 456.6 L761.9 439.0 L838.1 466.4 L914.3 460.0 L990.5 517.8 L1066.7 602.9 L1142.9 624.0 L1219.0 564.9 L1295.2 535.0 L1371.4 556.9 L1447.6 548.3 L1523.8 534.9 L1600.0 563.7 L1600 900 Z" fill="hsl(84.6 35.0% 61.4%)"/><rect x="0" y="529.0" width="1600" height="200.5" fill="url(#g1bwm2po-fog1)"/><path d="M0 900 L0 494.1 L0.0 494.1 L84.2 507.6 L168.4 529.1 L252.6 469.9 L336.8 478.2 L421.1 477.2 L505.3 517.2 L589.5 622.5 L673.7 628.5 L757.9 640.6 L842.1 657.2 L926.3 575.1 L1010.5 561.6 L1094.7 521.3 L1178.9 473.0 L1263.2 530.7 L1347.4 516.4 L1431.6 488.0 L1515.8 508.6 L1600.0 471.3 L1600 900 Z" fill="hsl(93.8 35.0% 55.2%)"/><path d="M0 900 L0 540.1 L0.0 540.1 L88.9 530.1 L177.8 576.5 L266.7 583.2 L355.6 659.0 L444.4 644.1 L533.3 645.1 L622.2 553.9 L711.1 498.0 L800.0 521.2 L888.9 557.0 L977.8 618.8 L1066.7 636.4 L1155.6 610.7 L1244.4 647.0 L1333.3 656.4 L1422.2 632.1 L1511.1 595.1 L1600.0 541.5 L1600 900 Z" fill="hsl(109.1 35.0% 44.9%)"/><path d="M0 900 L0 625.6 L0.0 625.6 L80.0 614.6 L160.0 575.7 L240.0 559.2 L320.0 551.9 L400.0 609.2 L480.0 655.3 L560.0 718.4 L640.0 695.6 L720.0 641.1 L800.0 657.9 L880.0 703.7 L960.0 665.2 L1040.0 580.6 L1120.0 534.9 L1200.0 561.3 L1280.0 577.2 L1360.0 585.3 L1440.0 633.6 L1520.0 647.4 L1600.0 640.0 L1600 900 Z" fill="hsl(130.5 35.0% 30.5%)"/><path d="M0 900 L0 638.5 L0.0 638.5 L84.2 661.3 L168.4 714.8 L252.6 719.9 L336.8 747.9 L421.1 712.1 L505.3 726.0 L589.5 717.4 L673.7 739.5 L757.9 748.5 L842.1 708.3 L926.3 669.7 L1010.5 655.3 L1094.7 636.4 L1178.9 656.2 L1263.2 661.8 L1347.4 667.4 L1431.6 669.6 L1515.8 666.7 L1600.0 703.4 L1600 900 Z" fill="hsl(158.0 35.0% 12.0%)"/><rect width="1600" height="900" fill="url(#g1bwm2po-vig)"/></svg>