<svg xmlns="http://www.w3.org/2000/svg" viewBox="0 0 1600 900" role="img" preserveAspectRatio="xMidYMid slice"><title>pu-luong-thung-lung-xanh s2</title><defs><linearGradient id="goa0j69-sky" x1="0" y1="0" x2="0" y2="1"><stop offset="0%" stop-color="hsl(210.0 14.0% 74.0%)"/><stop offset="50%" stop-color="hsl(210.0 12.0% 82.0%)"/><stop offset="100%" stop-color="hsl(36.0 18.0% 86.0%)"/></linearGradient><radialGradient id="goa0j69-glow"><stop offset="0%" stop-color="hsl(40.0 30.0% 92.0% / 0.850)"/><stop offset="45%" stop-color="hsl(40.0 30.0% 92.0% / 0.250)"/><stop offset="100%" stop-color="hsl(40.0 30.0% 92.0% / 0.000)"/></radialGradient><linearGradient id="goa0j69-fog0" x1="0" y1="0" x2="0" y2="1"><stop offset="0%" stop-color="hsl(40 20% 96% / 0)"/><stop offset="55%" stop-color="hsl(40 20% 96% / 0.22)"/><stop offset="100%" stop-color="hsl(40 20% 96% / 0)"/></linearGradient><linearGradient id="goa0j69-fog2" x1="0" y1="0" x2="0" y2="1"><stop offset="0%" stop-color="hsl(40 20% 96% / 0)"/><stop offset="55%" stop-color="hsl(40 20% 96% / 0.35)"/><stop offset="100%" stop-color="hsl(40 20% 96% / 0)"/></linearGradient><linearGradient id="goa0j69-fog3" x1="0" y1="0" x2="0" y2="1"><stop offset="0%" stop-color="hsl(40 20% 96% / 0)"/><stop offset="55%" stop-color="hsl(40 20% 96% / 0.28)"/><stop offset="100%" stop-color="hsl(40 20% 96% / 0)"/></linearGradient><linearGradient id="goa0j69-fog4" x1="0" y1="0" x2="0" y2="1"><stop offset="0%" stop-color="hsl(40 20% 96% / 0)"/><stop offset="55%" stop-color="hsl(40 20% 96% / 0.27)"/><stop offset="100%" stop-color="hsl(40 20% 96% / 0)"/></linearGradient><linearGradient id="goa0j69-fog5" x1="0" y1="0" x2="0" y2="1"><stop offset="0%" stop-color="hsl(40 20% 96% / 0)"/><stop offset="55%" stop-color="hsl(40 20% 96% / 0.17)"/><stop offset="100%" stop-color="hsl(40 20% 96% / 0)"/></linearGradient><radialGradient id="goa0j69-vig" cx="50%" cy="42%" r="75%"><stop offset="70%" stop-color="hsl(0 0% 0% / 0)"/><stop offset="100%" stop-color="hsl(0 0% 0% / 0.18)"/></radialGradient></defs><rect width="1600" height="614.8" fill="url(#goa0j69-sky)"/><rect y="613.8" width="1600" height="286.2" fill="hsl(168.0 16.5% 44.0%)"/><circle cx="609.4" cy="276.7" r="90" fill="url(#goa0j69-glow)"/><circle cx="609.4" cy="276.7" r="46" fill="hsl(40.0 30.0% 92.0%)"/><path d="M0 900 L0 493.7 Q0.0 493.7 40.0 476.9 Q80.0 460.1 120.0 499.2 Q160.0 538.3 200.0 582.1 Q240.0 625.9 280.0 614.5 Q320.0 603.1 360.0 569.8 Q400.0 536.5 440.0 515.8 Q480.0 495.1 520.0 449.2 Q560.0 403.3 600.0 397.1 Q640.0 391.0 680.0 427.0 Q720.0 463.0 760.0 461.5 Q800.0 460.0 840.0 453.1 Q880.0 446.2 920.0 459.4 Q960.0 472.5 1000.0 492.7 Q1040.0 513.0 1080.0 524.6 Q1120.0 536.2 1160.0 563.9 Q1200.0 591.6 1240.0 600.8 Q1280.0 610.0 1320.0 557.8 Q1360.0 505.5 1400.0 473.1 Q1440.0 440.7 1480.0 443.3 Q1520.0 446.0 1560.0 449.3 L1600 452.5 L1600 900 Z" fill="hsl(74.7 17.6% 73.7%)"/><rect x="0" y="522.5" width="1600" height="246.2" fill="url(#goa0j69-fog0)"/><path d="M0 900 L0 371.2 Q0.0 371.2 38.1 405.5 Q76.2 439.8 114.3 446.3 Q152.4 452.8 190.5 471.2 Q228.6 489.6 266.7 516.8 Q304.8 543.9 342.9 575.2 Q381.0 606.5 419.0 603.9 Q457.1 601.3 495.2 565.8 Q533.3 530.2 571.4 534.3 Q609.5 538.4 647.6 524.1 Q685.7 509.9 723.8 487.8 Q761.9 465.7 800.0 463.9 Q838.1 462.0 876.2 470.6 Q914.3 479.2 952.4 477.7 Q990.5 476.2 1028.6 461.2 Q1066.7 446.2 1104.8 466.5 Q1142.9 486.9 1181.0 500.7 Q1219.0 514.5 1257.1 527.0 Q1295.2 539.5 1333.3 523.7 Q1371.4 507.9 1409.5 538.3 Q1447.6 568.6 1485.7 579.8 Q1523.8 590.9 1561.9 584.4 L1600 577.9 L1600 900 Z" fill="hsl(78.5 17.5% 72.5%)"/><path d="M0 900 L0 485.0 Q0.0 485.0 50.0 549.0 Q100.0 613.0 150.0 623.5 Q200.0 634.1 250.0 611.5 Q300.0 588.9 350.0 575.9 Q400.0 563.0 450.0 546.9 Q500.0 530.9 550.0 528.5 Q600.0 526.2 650.0 510.6 Q700.0 494.9 750.0 452.4 Q800.0 410.0 850.0 427.5 Q900.0 445.0 950.0 476.2 Q1000.0 507.4 1050.0 573.1 Q1100.0 638.8 1150.0 646.7 Q1200.0 654.7 1250.0 606.3 Q1300.0 557.8 1350.0 556.9 Q1400.0 555.9 1450.0 526.3 Q1500.0 496.8 1550.0 508.9 L1600 521.0 L1600 900 Z" fill="hsl(90.0 17.4% 68.8%)"/><rect x="0" y="560.8" width="1600" height="266.9" fill="url(#goa0j69-fog2)"/><path d="M0 900 L0 624.6 Q0.0 624.6 50.0 634.0 Q100.0 643.4 150.0 608.8 Q200.0 574.3 250.0 564.9 Q300.0 555.5 350.0 505.0 Q400.0 454.4 450.0 444.4 Q500.0 434.4 550.0 490.3 Q600.0 546.3 650.0 576.1 Q700.0 605.8 750.0 626.4 Q800.0 646.9 850.0 651.7 Q900.0 656.5 950.0 624.9 Q1000.0 593.4 1050.0 576.7 Q1100.0 560.0 1150.0 575.3 Q1200.0 590.5 1250.0 553.1 Q1300.0 515.8 1350.0 522.1 Q1400.0 528.5 1450.0 515.5 Q1500.0 502.5 1550.0 489.7 L1600 476.9 L1600 900 Z" fill="hsl(109.0 17.2% 62.8%)"/><rect x="0" y="595.0" width="1600" height="243.5" fill="url(#goa0j69-fog3)"/><path d="M0 900 L0 546.1 Q0.0 546.1 47.1 580.6 Q94.1 615.1 141.2 633.7 Q188.2 652.3 235.3 662.6 Q282.4 672.8 329.4 660.4 Q376.5 648.1 423.5 655.1 Q470.6 662.1 517.6 679.9 Q564.7 697.7 611.8 659.7 Q658.8 621.7 705.9 609.4 Q752.9 597.2 800.0 571.8 Q847.1 546.4 894.1 566.7 Q941.2 587.0 988.2 611.2 Q1035.3 635.4 1082.4 653.5 Q1129.4 671.6 1176.5 680.9 Q1223.5 690.1 1270.6 668.7 Q1317.6 647.4 1364.7 663.5 Q1411.8 679.6 1458.8 659.0 Q1505.9 638.4 1552.9 630.2 L1600 622.0 L1600 900 Z" fill="hsl(135.7 16.9% 54.3%)"/><rect x="0" y="650.0" width="1600" height="173.2" fill="url(#goa0j69-fog4)"/><path d="M0 900 L0 643.3 Q0.0 643.3 57.1 628.3 Q114.3 613.3 171.4 639.2 Q228.6 665.1 285.7 678.6 Q342.9 692.0 400.0 712.8 Q457.1 733.6 514.3 715.9 Q571.4 698.3 628.6 694.9 Q685.7 691.6 742.9 692.1 Q800.0 692.6 857.1 691.9 Q914.3 691.1 971.4 691.4 Q1028.6 691.6 1085.7 657.5 Q1142.9 623.5 1200.0 621.1 Q1257.1 618.7 1314.3 611.8 Q1371.4 604.9 1428.6 636.1 Q1485.7 667.2 1542.9 661.9 L1600 656.6 L1600 900 Z" fill="hsl(170.1 16.5% 43.3%)"/><rect x="0" y="687.3" width="1600" height="142.9" fill="url(#goa0j69-fog5)"/><path d="M0 900 L0 664.7 Q0.0 664.7 50.0 657.1 Q100.0 649.5 150.0 660.2 Q200.0 670.9 250.0 703.0 Q300.0 735.2 350.0 727.2 Q400.0 719.3 450.0 709.2 Q500.0 699.0 550.0 720.7 Q600.0 742.5 650.0 747.2 Q700.0 751.9 750.0 753.2 Q800.0 754.6 850.0 743.1 Q900.0 731.6 950.0 708.9 Q1000.0 686.2 1050.0 680.7 Q1100.0 675.1 1150.0 688.4 Q1200.0 701.7 1250.0 688.3 Q1300.0 674.9 1350.0 653.2 Q1400.0 631.6 1450.0 641.9 Q1500.0 652.1 1550.0 666.3 L1600 680.5 L1600 900 Z" fill="hsl(212.0 16.0% 30.0%)"/><rect width="1600" height="900" fill="url(#goa0j69-vig)"/></svg>