<svg xmlns="http://www.w3.org/2000/svg" viewBox="0 0 1600 900" role="img" preserveAspectRatio="xMidYMid slice"><title>pu-luong-thung-lung-xanh s1</title><defs><linearGradient id="g1gdn8ms-sky" x1="0" y1="0" x2="0" y2="1"><stop offset="0%" stop-color="hsl(170.0 30.0% 52.0%)"/><stop offset="50%" stop-color="hsl(150.0 25.0% 68.0%)"/><stop offset="100%" stop-color="hsl(60.0 35.0% 78.0%)"/></linearGradient><radialGradient id="g1gdn8ms-glow"><stop offset="0%" stop-color="hsl(52.0 70.0% 84.0% / 0.850)"/><stop offset="45%" stop-color="hsl(52.0 70.0% 84.0% / 0.250)"/><stop offset="100%" stop-color="hsl(52.0 70.0% 84.0% / 0.000)"/></radialGradient><linearGradient id="g1gdn8ms-fog0" x1="0" y1="0" x2="0" y2="1"><stop offset="0%" stop-color="hsl(40 20% 96% / 0)"/><stop offset="55%" stop-color="hsl(40 20% 96% / 0.24)"/><stop offset="100%" stop-color="hsl(40 20% 96% / 0)"/></linearGradient><linearGradient id="g1gdn8ms-fog2" x1="0" y1="0" x2="0" y2="1"><stop offset="0%" stop-color="hsl(40 20% 96% / 0)"/><stop offset="55%" stop-color="hsl(40 20% 96% / 0.23)"/><stop offset="100%" stop-color="hsl(40 20% 96% / 0)"/></linearGradient><linearGradient id="g1gdn8ms-fog4" x1="0" y1="0" x2="0" y2="1"><stop offset="0%" stop-color="hsl(40 20% 96% / 0)"/><stop offset="55%" stop-color="hsl(40 20% 96% / 0.31)"/><stop offset="100%" stop-color="hsl(40 20% 96% / 0)"/></linearGradient><radialGradient id="g1gdn8ms-vig" cx="50%" cy="42%" r="75%"><stop offset="70%" stop-color="hsl(0 0% 0% / 0)"/><stop offset="100%" stop-color="hsl(0 0% 0% / 0.18)"/></radialGradient></defs><rect width="1600" height="628.3" fill="url(#g1gdn8ms-sky)"/><rect y="627.3" width="1600" height="272.7" fill="hsl(133.5 35.0% 28.5%)"/><circle cx="632.0" cy="345.6" r="100" fill="url(#g1gdn8ms-glow)"/><circle cx="632.0" cy="345.6" r="42" fill="hsl(52.0 70.0% 84.0%)"/><path d="M0 900 L0 507.2 L0.0 507.2 L94.1 393.1 L188.2 352.6 L282.4 349.8 L376.5 495.0 L470.6 511.2 L564.7 530.7 L658.8 551.9 L752.9 548.8 L847.1 595.5 L941.2 568.3 L1035.3 554.8 L1129.4 420.7 L1223.5 410.8 L1317.6 431.7 L1411.8 423.0 L1505.9 416.0 L1600.0 389.7 L1600 900 Z" fill="hsl(81.6 35.0% 63.5%)"/><rect x="0" y="525.3" width="1600" height="268.5" fill="url(#g1gdn8ms-fog0)"/><path d="M0 900 L0 490.1 L0.0 490.1 L88.9 396.9 L177.8 469.4 L266.7 601.1 L355.6 612.8 L444.4 591.4 L533.3 584.4 L622.2 593.8 L711.1 606.2 L800.0 587.2 L888.9 581.3 L977.8 409.4 L1066.7 417.8 L1155.6 469.7 L1244.4 483.8 L1333.3 494.5 L1422.2 492.9 L1511.1 533.9 L1600.0 581.8 L1600 900 Z" fill="hsl(84.6 35.0% 61.4%)"/><path d="M0 900 L0 554.2 L0.0 554.2 L84.2 559.6 L168.4 611.3 L252.6 591.5 L336.8 634.6 L421.1 656.5 L505.3 656.6 L589.5 647.6 L673.7 587.2 L757.9 518.7 L842.1 462.1 L926.3 491.0 L1010.5 570.3 L1094.7 629.7 L1178.9 697.0 L1263.2 640.3 L1347.4 642.7 L1431.6 600.3 L1515.8 560.9 L1600.0 566.8 L1600 900 Z" fill="hsl(93.8 35.0% 55.2%)"/><rect x="0" y="609.6" width="1600" height="201.1" fill="url(#g1gdn8ms-fog2)"/><path d="M0 900 L0 549.3 L0.0 549.3 L76.2 562.1 L152.4 587.5 L228.6 596.6 L304.8 614.4 L381.0 623.6 L457.1 619.1 L533.3 593.7 L609.5 601.9 L685.7 655.7 L761.9 698.5 L838.1 683.3 L914.3 724.5 L990.5 713.4 L1066.7 682.4 L1142.9 631.9 L1219.0 601.0 L1295.2 601.1 L1371.4 611.6 L1447.6 583.9 L1523.8 589.7 L1600.0 610.4 L1600 900 Z" fill="hsl(109.1 35.0% 44.9%)"/><path d="M0 900 L0 607.2 L0.0 607.2 L76.2 608.1 L152.4 618.8 L228.6 716.8 L304.8 734.9 L381.0 740.4 L457.1 707.0 L533.3 665.5 L609.5 630.1 L685.7 631.9 L761.9 648.6 L838.1 629.2 L914.3 583.8 L990.5 599.1 L1066.7 619.9 L1142.9 662.2 L1219.0 725.3 L1295.2 723.6 L1371.4 719.6 L1447.6 720.0 L1523.8 630.9 L1600.0 664.4 L1600 900 Z" fill="hsl(130.5 35.0% 30.5%)"/><rect x="0" y="678.1" width="1600" height="169.2" fill="url(#g1gdn8ms-fog4)"/><path d="M0 900 L0 737.1 L0.0 737.1 L76.2 688.6 L152.4 646.0 L228.6 651.1 L304.8 668.6 L381.0 682.7 L457.1 659.4 L533.3 688.9 L609.5 705.3 L685.7 692.1 L761.9 690.1 L838.1 727.8 L914.3 719.6 L990.5 721.4 L1066.7 751.8 L1142.9 759.7 L1219.0 749.0 L1295.2 732.1 L1371.4 713.5 L1447.6 649.0 L1523.8 625.3 L1600.0 652.0 L1600 900 Z" fill="hsl(158.0 35.0% 12.0%)"/><rect width="1600" height="900" fill="url(#g1gdn8ms-vig)"/></svg>