<svg xmlns="http://www.w3.org/2000/svg" viewBox="0 0 1600 900" role="img" preserveAspectRatio="xMidYMid slice"><title>ho-ba-be-thuyen-va-xe hero</title><defs><linearGradient id="g1pr3et6-sky" x1="0" y1="0" x2="0" y2="1"><stop offset="0%" stop-color="hsl(215.0 48.0% 46.0%)"/><stop offset="50%" stop-color="hsl(200.0 42.0% 62.0%)"/><stop offset="100%" stop-color="hsl(36.0 50.0% 72.0%)"/></linearGradient><radialGradient id="g1pr3et6-glow"><stop offset="0%" stop-color="hsl(40.0 85.0% 78.0% / 0.850)"/><stop offset="45%" stop-color="hsl(40.0 85.0% 78.0% / 0.250)"/><stop offset="100%" stop-color="hsl(40.0 85.0% 78.0% / 0.000)"/></radialGradient><linearGradient id="g1pr3et6-water" x1="0" y1="0" x2="0" y2="1"><stop offset="0%" stop-color="hsl(114.3 45.5% 50.4%)"/><stop offset="100%" stop-color="hsl(216.2 39.8% 14.4%)"/></linearGradient><radialGradient id="g1pr3et6-vig" cx="50%" cy="42%" r="75%"><stop offset="70%" stop-color="hsl(0 0% 0% / 0)"/><stop offset="100%" stop-color="hsl(0 0% 0% / 0.18)"/></radialGradient></defs><rect width="1600" height="486.8" fill="url(#g1pr3et6-sky)"/><rect y="485.8" width="1600" height="414.2" fill="hsl(262.5 36.5% 31.5%)"/><circle cx="970.8" cy="340.7" r="130" fill="url(#g1pr3et6-glow)"/><circle cx="970.8" cy="340.7" r="50" fill="hsl(40.0 85.0% 78.0%)"/><path d="M0 900 L0 405.1 Q0.0 405.1 40.0 401.8 Q80.0 398.5 120.0 384.0 Q160.0 369.6 200.0 340.9 Q240.0 312.2 280.0 311.4 Q320.0 310.6 360.0 303.0 Q400.0 295.3 440.0 339.1 Q480.0 382.8 520.0 422.6 Q560.0 462.3 600.0 468.4 Q640.0 474.4 680.0 470.6 Q720.0 466.7 760.0 442.7 Q800.0 418.6 840.0 377.2 Q880.0 335.9 920.0 327.0 Q960.0 318.2 1000.0 340.7 Q1040.0 363.1 1080.0 354.5 Q1120.0 345.9 1160.0 341.7 Q1200.0 337.5 1240.0 345.8 Q1280.0 354.2 1320.0 342.6 Q1360.0 330.9 1400.0 360.1 Q1440.0 389.2 1480.0 426.7 Q1520.0 464.1 1560.0 466.4 L1600 468.6 L1600 900 Z" fill="hsl(356.8 46.0% 60.1%)"/><path d="M0 900 L0 450.6 Q0.0 450.6 38.1 487.5 Q76.2 524.5 114.3 536.7 Q152.4 548.9 190.5 515.7 Q228.6 482.5 266.7 470.9 Q304.8 459.3 342.9 446.2 Q381.0 433.1 419.0 407.4 Q457.1 381.8 495.2 395.9 Q533.3 410.0 571.4 411.2 Q609.5 412.3 647.6 384.4 Q685.7 356.6 723.8 333.3 Q761.9 310.1 800.0 338.7 Q838.1 367.4 876.2 389.7 Q914.3 412.0 952.4 426.3 Q990.5 440.7 1028.6 469.0 Q1066.7 497.3 1104.8 491.6 Q1142.9 485.9 1181.0 473.9 Q1219.0 461.9 1257.1 463.9 Q1295.2 466.0 1333.3 484.4 Q1371.4 502.8 1409.5 501.2 Q1447.6 499.7 1485.7 469.6 Q1523.8 439.6 1561.9 389.6 L1600 339.7 L1600 900 Z" fill="hsl(348.2 45.2% 57.5%)"/><path d="M0 900 L0 547.0 Q0.0 547.0 57.1 541.1 Q114.3 535.1 171.4 521.4 Q228.6 507.7 285.7 526.1 Q342.9 544.6 400.0 516.1 Q457.1 487.7 514.3 483.3 Q571.4 478.9 628.6 468.9 Q685.7 458.9 742.9 502.8 Q800.0 546.7 857.1 541.6 Q914.3 536.5 971.4 546.5 Q1028.6 556.6 1085.7 550.8 Q1142.9 545.0 1200.0 575.8 Q1257.1 606.5 1314.3 590.9 Q1371.4 575.2 1428.6 558.9 Q1485.7 542.6 1542.9 515.2 L1600 487.8 L1600 900 Z" fill="hsl(322.1 42.5% 49.6%)"/><path d="M0 900 L0 596.7 Q0.0 596.7 44.4 598.4 Q88.9 600.0 133.3 589.9 Q177.8 579.8 222.2 578.1 Q266.7 576.4 311.1 556.8 Q355.6 537.2 400.0 536.8 Q444.4 536.4 488.9 565.5 Q533.3 594.5 577.8 614.1 Q622.2 633.6 666.7 640.6 Q711.1 647.6 755.6 639.9 Q800.0 632.1 844.4 608.1 Q888.9 584.1 933.3 571.5 Q977.8 558.9 1022.2 579.0 Q1066.7 599.1 1111.1 586.4 Q1155.6 573.7 1200.0 561.0 Q1244.4 548.3 1288.9 547.7 Q1333.3 547.0 1377.8 562.6 Q1422.2 578.2 1466.7 596.8 Q1511.1 615.5 1555.6 634.6 L1600 653.8 L1600 900 Z" fill="hsl(278.7 38.1% 36.4%)"/><path d="M0 900 L0 635.9 Q0.0 635.9 38.1 639.8 Q76.2 643.7 114.3 634.7 Q152.4 625.6 190.5 630.6 Q228.6 635.6 266.7 641.6 Q304.8 647.7 342.9 644.6 Q381.0 641.5 419.0 668.5 Q457.1 695.5 495.2 701.2 Q533.3 706.9 571.4 699.4 Q609.5 692.0 647.6 696.0 Q685.7 700.1 723.8 676.5 Q761.9 652.8 800.0 644.5 Q838.1 636.2 876.2 644.4 Q914.3 652.7 952.4 648.3 Q990.5 643.8 1028.6 644.0 Q1066.7 644.2 1104.8 640.4 Q1142.9 636.7 1181.0 625.4 Q1219.0 614.1 1257.1 629.5 Q1295.2 645.0 1333.3 655.7 Q1371.4 666.3 1409.5 671.7 Q1447.6 677.0 1485.7 694.1 Q1523.8 711.2 1561.9 708.8 L1600 706.3 L1600 900 Z" fill="hsl(218.0 32.0% 18.0%)"/><rect y="486.8" width="1600" height="413.2" fill="url(#g1pr3et6-water)"/><g><rect x="778.9" y="506.7" width="44.9" height="3.2" rx="1.6" fill="hsl(40.0 85.0% 78.0% / 0.556)"/><rect x="761.7" y="524.5" width="53.2" height="3.2" rx="1.6" fill="hsl(40.0 85.0% 78.0% / 0.534)"/><rect x="763.1" y="537.8" width="38.4" height="3.2" rx="1.6" fill="hsl(40.0 85.0% 78.0% / 0.518)"/><rect x="764.7" y="556.6" width="59.4" height="3.2" rx="1.6" fill="hsl(40.0 85.0% 78.0% / 0.495)"/><rect x="811.6" y="574.2" width="31.2" height="3.2" rx="1.6" fill="hsl(40.0 85.0% 78.0% / 0.474)"/><rect x="774.5" y="588.2" width="21.0" height="3.2" rx="1.6" fill="hsl(40.0 85.0% 78.0% / 0.457)"/><rect x="790.8" y="607.8" width="61.5" height="3.2" rx="1.6" fill="hsl(40.0 85.0% 78.0% / 0.434)"/><rect x="788.5" y="618.6" width="66.7" height="3.2" rx="1.6" fill="hsl(40.0 85.0% 78.0% / 0.421)"/><rect x="774.6" y="637.2" width="41.1" height="3.2" rx="1.6" fill="hsl(40.0 85.0% 78.0% / 0.398)"/><rect x="768.3" y="651.7" width="87.5" height="3.2" rx="1.6" fill="hsl(40.0 85.0% 78.0% / 0.380)"/><rect x="764.5" y="671.4" width="85.1" height="3.2" rx="1.6" fill="hsl(40.0 85.0% 78.0% / 0.357)"/><rect x="739.1" y="684.2" width="21.6" height="3.2" rx="1.6" fill="hsl(40.0 85.0% 78.0% / 0.341)"/><rect x="732.6" y="708.0" width="46.4" height="3.2" rx="1.6" fill="hsl(40.0 85.0% 78.0% / 0.312)"/><rect x="783.5" y="720.5" width="39.9" height="3.2" rx="1.6" fill="hsl(40.0 85.0% 78.0% / 0.297)"/><rect x="730.4" y="741.0" width="76.9" height="3.2" rx="1.6" fill="hsl(40.0 85.0% 78.0% / 0.272)"/><rect x="777.8" y="758.0" width="53.9" height="3.2" rx="1.6" fill="hsl(40.0 85.0% 78.0% / 0.252)"/><rect x="678.2" y="768.9" width="112.4" height="3.2" rx="1.6" fill="hsl(40.0 85.0% 78.0% / 0.239)"/><rect x="721.5" y="788.3" width="64.8" height="3.2" rx="1.6" fill="hsl(40.0 85.0% 78.0% / 0.215)"/><rect x="851.2" y="807.1" width="39.1" height="3.2" rx="1.6" fill="hsl(40.0 85.0% 78.0% / 0.192)"/><rect x="711.4" y="822.0" width="122.0" height="3.2" rx="1.6" fill="hsl(40.0 85.0% 78.0% / 0.174)"/><rect x="798.2" y="838.6" width="123.9" height="3.2" rx="1.6" fill="hsl(40.0 85.0% 78.0% / 0.154)"/><rect x="733.5" y="854.5" width="62.0" height="3.2" rx="1.6" fill="hsl(40.0 85.0% 78.0% / 0.135)"/><rect x="693.9" y="869.2" width="132.4" height="3.2" rx="1.6" fill="hsl(40.0 85.0% 78.0% / 0.117)"/></g><rect width="1600" height="900" fill="url(#g1pr3et6-vig)"/></svg>