<svg xmlns="http://www.w3.org/2000/svg" viewBox="0 0 1600 900" role="img" preserveAspectRatio="xMidYMid slice"><title>ho-ba-be-thuyen-va-xe s1</title><defs><linearGradient id="gncfwue-sky" x1="0" y1="0" x2="0" y2="1"><stop offset="0%" stop-color="hsl(215.0 48.0% 46.0%)"/><stop offset="50%" stop-color="hsl(200.0 42.0% 62.0%)"/><stop offset="100%" stop-color="hsl(36.0 50.0% 72.0%)"/></linearGradient><radialGradient id="gncfwue-glow"><stop offset="0%" stop-color="hsl(40.0 85.0% 78.0% / 0.850)"/><stop offset="45%" stop-color="hsl(40.0 85.0% 78.0% / 0.250)"/><stop offset="100%" stop-color="hsl(40.0 85.0% 78.0% / 0.000)"/></radialGradient><linearGradient id="gncfwue-water" x1="0" y1="0" x2="0" y2="1"><stop offset="0%" stop-color="hsl(114.3 45.5% 50.4%)"/><stop offset="100%" stop-color="hsl(216.2 39.8% 14.4%)"/></linearGradient><radialGradient id="gncfwue-vig" cx="50%" cy="42%" r="75%"><stop offset="70%" stop-color="hsl(0 0% 0% / 0)"/><stop offset="100%" stop-color="hsl(0 0% 0% / 0.18)"/></radialGradient></defs><rect width="1600" height="473.5" fill="url(#gncfwue-sky)"/><rect y="472.5" width="1600" height="427.5" fill="hsl(262.5 36.5% 31.5%)"/><circle cx="1153.3" cy="331.5" r="130" fill="url(#gncfwue-glow)"/><circle cx="1153.3" cy="331.5" r="50" fill="hsl(40.0 85.0% 78.0%)"/><path d="M0 900 L0 365.2 Q0.0 365.2 57.1 382.1 Q114.3 399.0 171.4 421.8 Q228.6 444.7 285.7 455.3 Q342.9 466.0 400.0 457.7 Q457.1 449.5 514.3 414.3 Q571.4 379.2 628.6 341.0 Q685.7 302.7 742.9 293.0 Q800.0 283.2 857.1 318.3 Q914.3 353.3 971.4 381.1 Q1028.6 408.9 1085.7 432.7 Q1142.9 456.5 1200.0 443.3 Q1257.1 430.2 1314.3 412.8 Q1371.4 395.3 1428.6 392.9 Q1485.7 390.5 1542.9 388.3 L1600 386.0 L1600 900 Z" fill="hsl(356.8 46.0% 60.1%)"/><path d="M0 900 L0 368.3 Q0.0 368.3 53.3 397.8 Q106.7 427.4 160.0 429.1 Q213.3 430.8 266.7 480.6 Q320.0 530.3 373.3 535.3 Q426.7 540.3 480.0 515.2 Q533.3 490.2 586.7 483.5 Q640.0 476.7 693.3 468.3 Q746.7 459.9 800.0 460.8 Q853.3 461.7 906.7 461.0 Q960.0 460.4 1013.3 443.2 Q1066.7 426.1 1120.0 413.8 Q1173.3 401.5 1226.7 389.1 Q1280.0 376.7 1333.3 393.8 Q1386.7 410.9 1440.0 448.1 Q1493.3 485.3 1546.7 504.8 L1600 524.4 L1600 900 Z" fill="hsl(348.2 45.2% 57.5%)"/><path d="M0 900 L0 466.9 Q0.0 466.9 38.1 453.4 Q76.2 440.0 114.3 461.0 Q152.4 482.0 190.5 487.2 Q228.6 492.3 266.7 509.5 Q304.8 526.8 342.9 551.2 Q381.0 575.6 419.0 567.3 Q457.1 559.1 495.2 570.7 Q533.3 582.3 571.4 583.0 Q609.5 583.7 647.6 555.3 Q685.7 526.9 723.8 527.3 Q761.9 527.7 800.0 505.3 Q838.1 483.0 876.2 479.9 Q914.3 476.7 952.4 499.5 Q990.5 522.2 1028.6 511.3 Q1066.7 500.4 1104.8 490.5 Q1142.9 480.6 1181.0 491.2 Q1219.0 501.9 1257.1 470.0 Q1295.2 438.1 1333.3 449.7 Q1371.4 461.3 1409.5 476.8 Q1447.6 492.4 1485.7 505.8 Q1523.8 519.3 1561.9 547.6 L1600 575.8 L1600 900 Z" fill="hsl(322.1 42.5% 49.6%)"/><path d="M0 900 L0 623.7 Q0.0 623.7 53.3 620.3 Q106.7 616.9 160.0 609.5 Q213.3 602.2 266.7 621.4 Q320.0 640.6 373.3 632.8 Q426.7 625.0 480.0 613.5 Q533.3 602.1 586.7 591.6 Q640.0 581.0 693.3 564.7 Q746.7 548.5 800.0 549.6 Q853.3 550.8 906.7 560.3 Q960.0 569.7 1013.3 586.6 Q1066.7 603.4 1120.0 621.6 Q1173.3 639.7 1226.7 632.5 Q1280.0 625.3 1333.3 616.8 Q1386.7 608.4 1440.0 609.4 Q1493.3 610.4 1546.7 606.7 L1600 603.0 L1600 900 Z" fill="hsl(278.7 38.1% 36.4%)"/><path d="M0 900 L0 629.8 Q0.0 629.8 47.1 630.2 Q94.1 630.6 141.2 642.2 Q188.2 653.8 235.3 654.7 Q282.4 655.6 329.4 660.8 Q376.5 665.9 423.5 670.6 Q470.6 675.4 517.6 676.2 Q564.7 677.1 611.8 672.5 Q658.8 668.0 705.9 683.5 Q752.9 699.0 800.0 696.2 Q847.1 693.5 894.1 697.5 Q941.2 701.5 988.2 692.8 Q1035.3 684.2 1082.4 667.7 Q1129.4 651.2 1176.5 644.1 Q1223.5 636.9 1270.6 633.8 Q1317.6 630.7 1364.7 634.2 Q1411.8 637.7 1458.8 645.1 Q1505.9 652.5 1552.9 657.2 L1600 661.9 L1600 900 Z" fill="hsl(218.0 32.0% 18.0%)"/><rect y="473.5" width="1600" height="426.5" fill="url(#gncfwue-water)"/><g><rect x="802.3" y="494.6" width="41.3" height="3.2" rx="1.6" fill="hsl(40.0 85.0% 78.0% / 0.555)"/><rect x="790.0" y="508.9" width="37.1" height="3.2" rx="1.6" fill="hsl(40.0 85.0% 78.0% / 0.538)"/><rect x="784.2" y="525.0" width="33.5" height="3.2" rx="1.6" fill="hsl(40.0 85.0% 78.0% / 0.520)"/><rect x="802.4" y="544.7" width="49.5" height="3.2" rx="1.6" fill="hsl(40.0 85.0% 78.0% / 0.497)"/><rect x="769.1" y="555.9" width="55.0" height="3.2" rx="1.6" fill="hsl(40.0 85.0% 78.0% / 0.483)"/><rect x="735.3" y="570.3" width="59.0" height="3.2" rx="1.6" fill="hsl(40.0 85.0% 78.0% / 0.467)"/><rect x="801.1" y="587.4" width="33.0" height="3.2" rx="1.6" fill="hsl(40.0 85.0% 78.0% / 0.446)"/><rect x="813.4" y="606.4" width="38.0" height="3.2" rx="1.6" fill="hsl(40.0 85.0% 78.0% / 0.424)"/><rect x="777.8" y="626.6" width="28.0" height="3.2" rx="1.6" fill="hsl(40.0 85.0% 78.0% / 0.401)"/><rect x="800.9" y="639.1" width="31.7" height="3.2" rx="1.6" fill="hsl(40.0 85.0% 78.0% / 0.386)"/><rect x="724.0" y="658.2" width="63.1" height="3.2" rx="1.6" fill="hsl(40.0 85.0% 78.0% / 0.363)"/><rect x="747.8" y="671.0" width="38.3" height="3.2" rx="1.6" fill="hsl(40.0 85.0% 78.0% / 0.349)"/><rect x="778.6" y="687.6" width="48.8" height="3.2" rx="1.6" fill="hsl(40.0 85.0% 78.0% / 0.329)"/><rect x="748.7" y="709.3" width="24.5" height="3.2" rx="1.6" fill="hsl(40.0 85.0% 78.0% / 0.304)"/><rect x="769.7" y="724.3" width="49.4" height="3.2" rx="1.6" fill="hsl(40.0 85.0% 78.0% / 0.286)"/><rect x="771.2" y="742.4" width="43.1" height="3.2" rx="1.6" fill="hsl(40.0 85.0% 78.0% / 0.265)"/><rect x="734.3" y="754.4" width="67.6" height="3.2" rx="1.6" fill="hsl(40.0 85.0% 78.0% / 0.251)"/><rect x="814.9" y="770.7" width="24.1" height="3.2" rx="1.6" fill="hsl(40.0 85.0% 78.0% / 0.232)"/><rect x="713.8" y="790.5" width="101.8" height="3.2" rx="1.6" fill="hsl(40.0 85.0% 78.0% / 0.208)"/><rect x="830.4" y="808.9" width="49.8" height="3.2" rx="1.6" fill="hsl(40.0 85.0% 78.0% / 0.187)"/><rect x="790.2" y="821.7" width="123.5" height="3.2" rx="1.6" fill="hsl(40.0 85.0% 78.0% / 0.172)"/><rect x="748.1" y="836.3" width="46.8" height="3.2" rx="1.6" fill="hsl(40.0 85.0% 78.0% / 0.155)"/><rect x="689.5" y="856.3" width="135.1" height="3.2" rx="1.6" fill="hsl(40.0 85.0% 78.0% / 0.131)"/><rect x="766.2" y="869.8" width="43.3" height="3.2" rx="1.6" fill="hsl(40.0 85.0% 78.0% / 0.115)"/></g><rect width="1600" height="900" fill="url(#gncfwue-vig)"/></svg>