<svg xmlns="http://www.w3.org/2000/svg" viewBox="0 0 1600 900" role="img" preserveAspectRatio="xMidYMid slice"><title>ho-ba-be-thuyen-va-xe s2</title><defs><linearGradient id="gu03pnb-sky" x1="0" y1="0" x2="0" y2="1"><stop offset="0%" stop-color="hsl(248.0 42.0% 22.0%)"/><stop offset="50%" stop-color="hsl(330.0 45.0% 48.0%)"/><stop offset="100%" stop-color="hsl(28.0 85.0% 62.0%)"/></linearGradient><radialGradient id="gu03pnb-glow"><stop offset="0%" stop-color="hsl(35.0 95.0% 72.0% / 0.850)"/><stop offset="45%" stop-color="hsl(35.0 95.0% 72.0% / 0.250)"/><stop offset="100%" stop-color="hsl(35.0 95.0% 72.0% / 0.000)"/></radialGradient><linearGradient id="gu03pnb-fog3" x1="0" y1="0" x2="0" y2="1"><stop offset="0%" stop-color="hsl(40 20% 96% / 0)"/><stop offset="55%" stop-color="hsl(40 20% 96% / 0.23)"/><stop offset="100%" stop-color="hsl(40 20% 96% / 0)"/></linearGradient><radialGradient id="gu03pnb-vig" cx="50%" cy="42%" r="75%"><stop offset="70%" stop-color="hsl(0 0% 0% / 0)"/><stop offset="100%" stop-color="hsl(0 0% 0% / 0.18)"/></radialGradient></defs><rect width="1600" height="554.7" fill="url(#gu03pnb-sky)"/><rect y="553.7" width="1600" height="346.3" fill="hsl(293.5 40.0% 27.5%)"/><circle cx="778.5" cy="510.3" r="200" fill="url(#gu03pnb-glow)"/><circle cx="778.5" cy="510.3" r="64" fill="hsl(35.0 95.0% 72.0%)"/><path d="M0 900 L0 443.7 Q0.0 443.7 57.1 419.9 Q114.3 396.0 171.4 358.5 Q228.6 321.0 285.7 368.3 Q342.9 415.7 400.0 414.6 Q457.1 413.5 514.3 420.2 Q571.4 426.9 628.6 446.1 Q685.7 465.3 742.9 472.9 Q800.0 480.4 857.1 503.7 Q914.3 527.0 971.4 461.4 Q1028.6 395.9 1085.7 374.1 Q1142.9 352.3 1200.0 335.8 Q1257.1 319.2 1314.3 372.7 Q1371.4 426.2 1428.6 473.9 Q1485.7 521.7 1542.9 514.7 L1600 507.7 L1600 900 Z" fill="hsl(0.3 71.8% 51.9%)"/><path d="M0 900 L0 570.6 Q0.0 570.6 40.0 542.4 Q80.0 514.2 120.0 497.6 Q160.0 481.1 200.0 455.7 Q240.0 430.3 280.0 424.0 Q320.0 417.7 360.0 441.5 Q400.0 465.2 440.0 461.2 Q480.0 457.2 520.0 459.3 Q560.0 461.5 600.0 475.4 Q640.0 489.2 680.0 486.1 Q720.0 483.0 760.0 480.9 Q800.0 478.8 840.0 515.5 Q880.0 552.2 920.0 556.3 Q960.0 560.4 1000.0 570.1 Q1040.0 579.9 1080.0 591.9 Q1120.0 603.9 1160.0 571.3 Q1200.0 538.7 1240.0 510.3 Q1280.0 481.9 1320.0 475.6 Q1360.0 469.4 1400.0 450.0 Q1440.0 430.6 1480.0 436.8 Q1520.0 443.0 1560.0 468.4 L1600 493.9 L1600 900 Z" fill="hsl(354.1 68.9% 49.6%)"/><path d="M0 900 L0 553.9 Q0.0 553.9 57.1 571.4 Q114.3 588.8 171.4 565.8 Q228.6 542.7 285.7 512.0 Q342.9 481.2 400.0 491.3 Q457.1 501.5 514.3 519.2 Q571.4 536.9 628.6 568.7 Q685.7 600.4 742.9 584.8 Q800.0 569.2 857.1 573.7 Q914.3 578.1 971.4 587.4 Q1028.6 596.6 1085.7 613.7 Q1142.9 630.8 1200.0 637.9 Q1257.1 644.9 1314.3 609.7 Q1371.4 574.5 1428.6 563.0 Q1485.7 551.4 1542.9 538.3 L1600 525.2 L1600 900 Z" fill="hsl(335.7 60.1% 42.9%)"/><path d="M0 900 L0 559.7 Q0.0 559.7 38.1 586.1 Q76.2 612.4 114.3 623.2 Q152.4 633.9 190.5 651.6 Q228.6 669.2 266.7 677.9 Q304.8 686.6 342.9 686.4 Q381.0 686.1 419.0 651.6 Q457.1 617.2 495.2 596.5 Q533.3 575.8 571.4 568.5 Q609.5 561.2 647.6 553.2 Q685.7 545.2 723.8 559.9 Q761.9 574.5 800.0 586.0 Q838.1 597.5 876.2 609.3 Q914.3 621.2 952.4 607.9 Q990.5 594.5 1028.6 608.1 Q1066.7 621.7 1104.8 638.9 Q1142.9 656.0 1181.0 652.9 Q1219.0 649.9 1257.1 660.4 Q1295.2 671.0 1333.3 667.9 Q1371.4 664.8 1409.5 641.0 Q1447.6 617.1 1485.7 584.3 Q1523.8 551.4 1561.9 542.0 L1600 532.5 L1600 900 Z" fill="hsl(305.0 45.5% 31.7%)"/><rect x="0" y="628.4" width="1600" height="172.2" fill="url(#gu03pnb-fog3)"/><path d="M0 900 L0 725.6 Q0.0 725.6 40.0 725.9 Q80.0 726.1 120.0 731.6 Q160.0 737.1 200.0 724.9 Q240.0 712.8 280.0 705.9 Q320.0 699.0 360.0 710.9 Q400.0 722.8 440.0 718.2 Q480.0 713.6 520.0 703.7 Q560.0 693.8 600.0 689.8 Q640.0 685.8 680.0 669.7 Q720.0 653.6 760.0 655.4 Q800.0 657.2 840.0 668.1 Q880.0 679.0 920.0 682.8 Q960.0 686.5 1000.0 685.1 Q1040.0 683.8 1080.0 689.3 Q1120.0 694.8 1160.0 687.4 Q1200.0 680.1 1240.0 687.0 Q1280.0 693.9 1320.0 709.0 Q1360.0 724.1 1400.0 730.8 Q1440.0 737.5 1480.0 739.4 Q1520.0 741.4 1560.0 736.6 L1600 731.7 L1600 900 Z" fill="hsl(262.0 25.0% 16.0%)"/><rect width="1600" height="900" fill="url(#gu03pnb-vig)"/></svg>