<svg xmlns="http://www.w3.org/2000/svg" viewBox="0 0 1600 900" role="img" preserveAspectRatio="xMidYMid slice"><title>angkor-campuchia-bokor hero</title><defs><linearGradient id="gx88cxp-sky" x1="0" y1="0" x2="0" y2="1"><stop offset="0%" stop-color="hsl(262.0 40.0% 30.0%)"/><stop offset="50%" stop-color="hsl(20.0 60.0% 52.0%)"/><stop offset="100%" stop-color="hsl(38.0 85.0% 62.0%)"/></linearGradient><radialGradient id="gx88cxp-glow"><stop offset="0%" stop-color="hsl(34.0 95.0% 70.0% / 0.850)"/><stop offset="45%" stop-color="hsl(34.0 95.0% 70.0% / 0.250)"/><stop offset="100%" stop-color="hsl(34.0 95.0% 70.0% / 0.000)"/></radialGradient><radialGradient id="gx88cxp-vig" cx="50%" cy="42%" r="75%"><stop offset="70%" stop-color="hsl(0 0% 0% / 0)"/><stop offset="100%" stop-color="hsl(0 0% 0% / 0.18)"/></radialGradient></defs><rect width="1600" height="543.3" fill="url(#gx88cxp-sky)"/><rect y="542.3" width="1600" height="357.7" fill="hsl(300.5 42.3% 24.5%)"/><circle cx="823.1" cy="461.8" r="190" fill="url(#gx88cxp-glow)"/><circle cx="823.1" cy="461.8" r="70" fill="hsl(34.0 95.0% 70.0%)"/><path d="M0 900 L0 309.0 Q0.0 309.0 53.3 300.5 Q106.7 291.9 160.0 279.6 Q213.3 267.3 266.7 337.2 Q320.0 407.2 373.3 429.2 Q426.7 451.3 480.0 469.6 Q533.3 488.0 586.7 476.3 Q640.0 464.7 693.3 431.4 Q746.7 398.0 800.0 411.7 Q853.3 425.5 906.7 388.3 Q960.0 351.1 1013.3 362.2 Q1066.7 373.3 1120.0 349.2 Q1173.3 325.2 1226.7 322.4 Q1280.0 319.5 1333.3 355.8 Q1386.7 392.1 1440.0 418.5 Q1493.3 444.9 1546.7 495.2 L1600 545.6 L1600 900 Z" fill="hsl(9.4 72.5% 51.0%)"/><path d="M0 900 L0 545.2 Q0.0 545.2 53.3 527.2 Q106.7 509.2 160.0 516.4 Q213.3 523.7 266.7 509.8 Q320.0 495.9 373.3 509.0 Q426.7 522.1 480.0 506.3 Q533.3 490.4 586.7 511.3 Q640.0 532.2 693.3 538.6 Q746.7 544.9 800.0 582.4 Q853.3 619.8 906.7 619.7 Q960.0 619.7 1013.3 621.9 Q1066.7 624.2 1120.0 579.4 Q1173.3 534.5 1226.7 512.0 Q1280.0 489.5 1333.3 466.8 Q1386.7 444.0 1440.0 471.2 Q1493.3 498.5 1546.7 509.3 L1600 520.0 L1600 900 Z" fill="hsl(344.0 61.3% 41.3%)"/><path d="M0 900 L0 636.9 Q0.0 636.9 57.1 651.9 Q114.3 667.0 171.4 675.9 Q228.6 684.8 285.7 708.7 Q342.9 732.7 400.0 728.7 Q457.1 724.7 514.3 715.2 Q571.4 705.7 628.6 696.9 Q685.7 688.0 742.9 675.0 Q800.0 662.0 857.1 673.5 Q914.3 685.0 971.4 673.0 Q1028.6 660.9 1085.7 665.1 Q1142.9 669.3 1200.0 659.4 Q1257.1 649.5 1314.3 667.0 Q1371.4 684.5 1428.6 698.8 Q1485.7 713.0 1542.9 721.0 L1600 729.0 L1600 900 Z" fill="hsl(268.0 28.0% 12.0%)"/><g><path d="M263.4 551.3 C277.3 468.7 289.6 404.5 302.0 367.8 C314.3 404.5 326.6 468.7 340.5 551.3 Z" fill="hsl(291.4 38.3% 21.0%)"/><path d="M731.8 551.3 C750.7 438.9 767.5 351.4 784.3 301.4 C801.1 351.4 817.9 438.9 836.8 551.3 Z" fill="hsl(291.4 38.3% 21.0%)"/><path d="M1201.1 551.3 C1215.7 464.4 1228.7 396.7 1241.7 358.1 C1254.6 396.7 1267.6 464.4 1282.2 551.3 Z" fill="hsl(291.4 38.3% 21.0%)"/></g><rect width="1600" height="900" fill="url(#gx88cxp-vig)"/></svg>