<svg xmlns="http://www.w3.org/2000/svg" viewBox="0 0 1600 900" role="img" preserveAspectRatio="xMidYMid slice"><title>angkor-campuchia-bokor s1</title><defs><linearGradient id="g1kvcab1-sky" x1="0" y1="0" x2="0" y2="1"><stop offset="0%" stop-color="hsl(262.0 40.0% 30.0%)"/><stop offset="50%" stop-color="hsl(20.0 60.0% 52.0%)"/><stop offset="100%" stop-color="hsl(38.0 85.0% 62.0%)"/></linearGradient><radialGradient id="g1kvcab1-glow"><stop offset="0%" stop-color="hsl(34.0 95.0% 70.0% / 0.850)"/><stop offset="45%" stop-color="hsl(34.0 95.0% 70.0% / 0.250)"/><stop offset="100%" stop-color="hsl(34.0 95.0% 70.0% / 0.000)"/></radialGradient><radialGradient id="g1kvcab1-vig" cx="50%" cy="42%" r="75%"><stop offset="70%" stop-color="hsl(0 0% 0% / 0)"/><stop offset="100%" stop-color="hsl(0 0% 0% / 0.18)"/></radialGradient></defs><rect width="1600" height="555.6" fill="url(#g1kvcab1-sky)"/><rect y="554.6" width="1600" height="345.4" fill="hsl(300.5 42.3% 24.5%)"/><circle cx="485.9" cy="472.3" r="190" fill="url(#g1kvcab1-glow)"/><circle cx="485.9" cy="472.3" r="70" fill="hsl(34.0 95.0% 70.0%)"/><path d="M0 900 L0 451.1 Q0.0 451.1 53.3 408.8 Q106.7 366.5 160.0 357.9 Q213.3 349.3 266.7 406.2 Q320.0 463.0 373.3 483.5 Q426.7 503.9 480.0 495.0 Q533.3 486.1 586.7 498.1 Q640.0 510.0 693.3 497.1 Q746.7 484.2 800.0 476.7 Q853.3 469.3 906.7 445.5 Q960.0 421.8 1013.3 379.7 Q1066.7 337.5 1120.0 374.8 Q1173.3 412.1 1226.7 450.6 Q1280.0 489.2 1333.3 501.4 Q1386.7 513.6 1440.0 516.5 Q1493.3 519.4 1546.7 487.4 L1600 455.4 L1600 900 Z" fill="hsl(9.4 72.5% 51.0%)"/><path d="M0 900 L0 565.2 Q0.0 565.2 50.0 593.4 Q100.0 621.5 150.0 606.5 Q200.0 591.6 250.0 577.7 Q300.0 563.8 350.0 538.2 Q400.0 512.6 450.0 490.6 Q500.0 468.6 550.0 488.9 Q600.0 509.2 650.0 498.8 Q700.0 488.3 750.0 487.0 Q800.0 485.7 850.0 485.8 Q900.0 485.8 950.0 477.5 Q1000.0 469.1 1050.0 506.4 Q1100.0 543.7 1150.0 570.3 Q1200.0 597.0 1250.0 591.3 Q1300.0 585.6 1350.0 591.0 Q1400.0 596.4 1450.0 569.9 Q1500.0 543.4 1550.0 549.3 L1600 555.3 L1600 900 Z" fill="hsl(358.1 67.5% 46.7%)"/><path d="M0 900 L0 636.2 Q0.0 636.2 47.1 608.4 Q94.1 580.7 141.2 574.2 Q188.2 567.7 235.3 552.5 Q282.4 537.3 329.4 563.5 Q376.5 589.7 423.5 574.6 Q470.6 559.5 517.6 562.5 Q564.7 565.4 611.8 547.1 Q658.8 528.8 705.9 541.3 Q752.9 553.9 800.0 577.6 Q847.1 601.4 894.1 623.7 Q941.2 646.0 988.2 667.2 Q1035.3 688.4 1082.4 660.6 Q1129.4 632.8 1176.5 630.9 Q1223.5 628.9 1270.6 605.8 Q1317.6 582.6 1364.7 595.0 Q1411.8 607.4 1458.8 604.0 Q1505.9 600.6 1552.9 591.5 L1600 582.5 L1600 900 Z" fill="hsl(324.3 52.7% 33.7%)"/><path d="M0 900 L0 711.0 Q0.0 711.0 57.1 708.7 Q114.3 706.4 171.4 696.5 Q228.6 686.6 285.7 691.7 Q342.9 696.7 400.0 691.1 Q457.1 685.5 514.3 675.5 Q571.4 665.6 628.6 661.1 Q685.7 656.7 742.9 648.7 Q800.0 640.8 857.1 662.5 Q914.3 684.1 971.4 690.2 Q1028.6 696.4 1085.7 713.2 Q1142.9 730.0 1200.0 718.6 Q1257.1 707.1 1314.3 709.9 Q1371.4 712.7 1428.6 706.7 Q1485.7 700.8 1542.9 715.8 L1600 730.7 L1600 900 Z" fill="hsl(268.0 28.0% 12.0%)"/><g><path d="M268.0 563.6 C284.5 465.1 299.2 388.5 313.9 344.7 C328.7 388.5 343.4 465.1 359.9 563.6 Z" fill="hsl(291.4 38.3% 21.0%)"/><path d="M805.4 563.6 C820.6 473.1 834.2 402.6 847.7 362.4 C861.2 402.6 874.7 473.1 889.9 563.6 Z" fill="hsl(291.4 38.3% 21.0%)"/><path d="M1207.2 563.6 C1223.2 468.4 1237.5 394.3 1251.7 351.9 C1265.9 394.3 1280.1 468.4 1296.1 563.6 Z" fill="hsl(291.4 38.3% 21.0%)"/></g><rect width="1600" height="900" fill="url(#g1kvcab1-vig)"/></svg>