<svg xmlns="http://www.w3.org/2000/svg" viewBox="0 0 1600 900" role="img" preserveAspectRatio="xMidYMid slice"><title>angkor-campuchia-bokor s2</title><defs><linearGradient id="gzgrtf4-sky" x1="0" y1="0" x2="0" y2="1"><stop offset="0%" stop-color="hsl(265.0 38.0% 26.0%)"/><stop offset="50%" stop-color="hsl(348.0 55.0% 46.0%)"/><stop offset="100%" stop-color="hsl(22.0 90.0% 58.0%)"/></linearGradient><radialGradient id="gzgrtf4-glow"><stop offset="0%" stop-color="hsl(24.0 95.0% 66.0% / 0.850)"/><stop offset="45%" stop-color="hsl(24.0 95.0% 66.0% / 0.250)"/><stop offset="100%" stop-color="hsl(24.0 95.0% 66.0% / 0.000)"/></radialGradient><radialGradient id="gzgrtf4-vig" cx="50%" cy="42%" r="75%"><stop offset="70%" stop-color="hsl(0 0% 0% / 0)"/><stop offset="100%" stop-color="hsl(0 0% 0% / 0.18)"/></radialGradient></defs><rect width="1600" height="549.2" fill="url(#gzgrtf4-sky)"/><rect y="548.2" width="1600" height="351.8" fill="hsl(305.5 43.5% 25.0%)"/><circle cx="577.1" cy="483.3" r="230" fill="url(#gzgrtf4-glow)"/><circle cx="577.1" cy="483.3" r="78" fill="hsl(24.0 95.0% 66.0%)"/><path d="M0 900 L0 513.5 Q0.0 513.5 50.0 533.3 Q100.0 553.2 150.0 533.9 Q200.0 514.6 250.0 482.2 Q300.0 449.9 350.0 407.7 Q400.0 365.6 450.0 359.3 Q500.0 353.0 550.0 384.8 Q600.0 416.6 650.0 417.4 Q700.0 418.3 750.0 456.0 Q800.0 493.8 850.0 485.4 Q900.0 477.1 950.0 479.9 Q1000.0 482.8 1050.0 482.2 Q1100.0 481.6 1150.0 462.0 Q1200.0 442.3 1250.0 458.8 Q1300.0 475.3 1350.0 441.6 Q1400.0 407.8 1450.0 385.5 Q1500.0 363.1 1550.0 375.5 L1600 387.9 L1600 900 Z" fill="hsl(359.6 76.4% 48.3%)"/><path d="M0 900 L0 567.4 Q0.0 567.4 50.0 568.5 Q100.0 569.5 150.0 512.7 Q200.0 455.9 250.0 446.2 Q300.0 436.5 350.0 432.8 Q400.0 429.2 450.0 454.3 Q500.0 479.3 550.0 483.3 Q600.0 487.2 650.0 476.5 Q700.0 465.8 750.0 492.5 Q800.0 519.1 850.0 545.8 Q900.0 572.4 950.0 581.5 Q1000.0 590.6 1050.0 540.7 Q1100.0 490.9 1150.0 476.4 Q1200.0 461.8 1250.0 450.1 Q1300.0 438.4 1350.0 456.4 Q1400.0 474.5 1450.0 455.0 Q1500.0 435.5 1550.0 435.2 L1600 434.9 L1600 900 Z" fill="hsl(354.6 73.3% 46.2%)"/><path d="M0 900 L0 594.8 Q0.0 594.8 44.4 624.8 Q88.9 654.7 133.3 643.3 Q177.8 631.8 222.2 619.9 Q266.7 607.9 311.1 599.2 Q355.6 590.5 400.0 567.3 Q444.4 544.1 488.9 528.7 Q533.3 513.4 577.8 508.9 Q622.2 504.4 666.7 523.1 Q711.1 541.9 755.6 534.6 Q800.0 527.4 844.4 533.8 Q888.9 540.3 933.3 551.1 Q977.8 561.9 1022.2 548.2 Q1066.7 534.4 1111.1 527.2 Q1155.6 520.0 1200.0 535.5 Q1244.4 551.0 1288.9 572.5 Q1333.3 594.0 1377.8 599.0 Q1422.2 604.1 1466.7 623.6 Q1511.1 643.0 1555.6 648.5 L1600 654.0 L1600 900 Z" fill="hsl(339.7 64.3% 39.7%)"/><path d="M0 900 L0 573.9 Q0.0 573.9 50.0 555.0 Q100.0 536.1 150.0 545.5 Q200.0 554.9 250.0 558.6 Q300.0 562.3 350.0 586.6 Q400.0 610.8 450.0 612.8 Q500.0 614.8 550.0 612.2 Q600.0 609.7 650.0 623.5 Q700.0 637.4 750.0 636.0 Q800.0 634.6 850.0 657.9 Q900.0 681.2 950.0 669.0 Q1000.0 656.8 1050.0 648.1 Q1100.0 639.3 1150.0 612.8 Q1200.0 586.3 1250.0 564.3 Q1300.0 542.4 1350.0 545.2 Q1400.0 548.0 1450.0 545.5 Q1500.0 543.0 1550.0 581.4 L1600 619.7 L1600 900 Z" fill="hsl(314.8 49.2% 29.0%)"/><path d="M0 900 L0 710.2 Q0.0 710.2 44.4 706.7 Q88.9 703.3 133.3 690.6 Q177.8 677.9 222.2 681.5 Q266.7 685.1 311.1 684.9 Q355.6 684.7 400.0 683.7 Q444.4 682.7 488.9 679.1 Q533.3 675.5 577.8 669.4 Q622.2 663.3 666.7 677.8 Q711.1 692.4 755.6 700.3 Q800.0 708.2 844.4 714.6 Q888.9 721.0 933.3 720.7 Q977.8 720.5 1022.2 713.9 Q1066.7 707.3 1111.1 707.4 Q1155.6 707.5 1200.0 708.0 Q1244.4 708.5 1288.9 720.5 Q1333.3 732.6 1377.8 713.2 Q1422.2 693.8 1466.7 688.9 Q1511.1 684.0 1555.6 673.2 L1600 662.3 L1600 900 Z" fill="hsl(280.0 28.0% 14.0%)"/><rect width="1600" height="900" fill="url(#gzgrtf4-vig)"/></svg>