<svg xmlns="http://www.w3.org/2000/svg" viewBox="0 0 1600 900" role="img" preserveAspectRatio="xMidYMid slice"><title>phu-yen-ganh-da-dia-mui-dien hero</title><defs><linearGradient id="g1m3lh2u-sky" x1="0" y1="0" x2="0" y2="1"><stop offset="0%" stop-color="hsl(248.0 42.0% 22.0%)"/><stop offset="50%" stop-color="hsl(330.0 45.0% 48.0%)"/><stop offset="100%" stop-color="hsl(28.0 85.0% 62.0%)"/></linearGradient><radialGradient id="g1m3lh2u-glow"><stop offset="0%" stop-color="hsl(35.0 95.0% 72.0% / 0.850)"/><stop offset="45%" stop-color="hsl(35.0 95.0% 72.0% / 0.250)"/><stop offset="100%" stop-color="hsl(35.0 95.0% 72.0% / 0.000)"/></radialGradient><radialGradient id="g1m3lh2u-vig" cx="50%" cy="42%" r="75%"><stop offset="70%" stop-color="hsl(0 0% 0% / 0)"/><stop offset="100%" stop-color="hsl(0 0% 0% / 0.18)"/></radialGradient></defs><rect width="1600" height="594.3" fill="url(#g1m3lh2u-sky)"/><rect y="593.3" width="1600" height="306.7" fill="hsl(293.5 40.0% 27.5%)"/><circle cx="731.8" cy="546.8" r="200" fill="url(#g1m3lh2u-glow)"/><circle cx="731.8" cy="546.8" r="64" fill="hsl(35.0 95.0% 72.0%)"/><path d="M0 900 L0 538.8 Q0.0 538.8 44.4 541.0 Q88.9 543.1 133.3 510.8 Q177.8 478.4 222.2 455.0 Q266.7 431.5 311.1 382.7 Q355.6 334.0 400.0 345.3 Q444.4 356.6 488.9 399.2 Q533.3 441.8 577.8 465.6 Q622.2 489.3 666.7 521.3 Q711.1 553.3 755.6 555.8 Q800.0 558.4 844.4 518.4 Q888.9 478.5 933.3 491.9 Q977.8 505.4 1022.2 485.9 Q1066.7 466.5 1111.1 463.0 Q1155.6 459.5 1200.0 443.3 Q1244.4 427.1 1288.9 389.8 Q1333.3 352.4 1377.8 364.8 Q1422.2 377.2 1466.7 441.4 Q1511.1 505.7 1555.6 531.9 L1600 558.1 L1600 900 Z" fill="hsl(0.3 71.8% 51.9%)"/><path d="M0 900 L0 557.5 Q0.0 557.5 57.1 571.9 Q114.3 586.3 171.4 622.8 Q228.6 659.3 285.7 614.2 Q342.9 569.1 400.0 538.5 Q457.1 508.0 514.3 466.4 Q571.4 424.8 628.6 444.4 Q685.7 463.9 742.9 464.8 Q800.0 465.6 857.1 479.8 Q914.3 493.9 971.4 486.6 Q1028.6 479.2 1085.7 494.2 Q1142.9 509.3 1200.0 501.4 Q1257.1 493.5 1314.3 554.0 Q1371.4 614.5 1428.6 605.0 Q1485.7 595.5 1542.9 595.4 L1600 595.2 L1600 900 Z" fill="hsl(354.1 68.9% 49.6%)"/><path d="M0 900 L0 496.6 Q0.0 496.6 47.1 490.4 Q94.1 484.2 141.2 517.5 Q188.2 550.8 235.3 554.0 Q282.4 557.3 329.4 525.0 Q376.5 492.7 423.5 531.6 Q470.6 570.5 517.6 597.2 Q564.7 624.0 611.8 640.5 Q658.8 657.0 705.9 670.7 Q752.9 684.5 800.0 641.9 Q847.1 599.4 894.1 572.4 Q941.2 545.5 988.2 569.3 Q1035.3 593.2 1082.4 565.5 Q1129.4 537.9 1176.5 546.3 Q1223.5 554.8 1270.6 534.5 Q1317.6 514.2 1364.7 485.5 Q1411.8 456.7 1458.8 479.6 Q1505.9 502.5 1552.9 542.6 L1600 582.6 L1600 900 Z" fill="hsl(335.7 60.1% 42.9%)"/><path d="M0 900 L0 709.6 Q0.0 709.6 57.1 684.9 Q114.3 660.2 171.4 667.1 Q228.6 674.1 285.7 669.8 Q342.9 665.6 400.0 655.3 Q457.1 645.0 514.3 615.2 Q571.4 585.4 628.6 585.5 Q685.7 585.6 742.9 614.4 Q800.0 643.1 857.1 650.5 Q914.3 657.8 971.4 657.1 Q1028.6 656.4 1085.7 658.3 Q1142.9 660.2 1200.0 683.5 Q1257.1 706.8 1314.3 704.5 Q1371.4 702.2 1428.6 676.9 Q1485.7 651.5 1542.9 642.0 L1600 632.5 L1600 900 Z" fill="hsl(305.0 45.5% 31.7%)"/><path d="M0 900 L0 698.5 Q0.0 698.5 57.1 726.8 Q114.3 755.1 171.4 745.2 Q228.6 735.3 285.7 727.9 Q342.9 720.4 400.0 719.7 Q457.1 718.9 514.3 722.6 Q571.4 726.4 628.6 719.4 Q685.7 712.4 742.9 695.7 Q800.0 678.9 857.1 671.9 Q914.3 664.8 971.4 657.0 Q1028.6 649.2 1085.7 673.8 Q1142.9 698.3 1200.0 698.2 Q1257.1 698.0 1314.3 701.3 Q1371.4 704.5 1428.6 705.0 Q1485.7 705.5 1542.9 725.7 L1600 745.8 L1600 900 Z" fill="hsl(262.0 25.0% 16.0%)"/><rect width="1600" height="900" fill="url(#g1m3lh2u-vig)"/></svg>