<svg xmlns="http://www.w3.org/2000/svg" viewBox="0 0 1600 900" role="img" preserveAspectRatio="xMidYMid slice"><title>phu-yen-ganh-da-dia-mui-dien s2</title><defs><linearGradient id="g1teo5nn-sky" x1="0" y1="0" x2="0" y2="1"><stop offset="0%" stop-color="hsl(210.0 14.0% 74.0%)"/><stop offset="50%" stop-color="hsl(210.0 12.0% 82.0%)"/><stop offset="100%" stop-color="hsl(36.0 18.0% 86.0%)"/></linearGradient><radialGradient id="g1teo5nn-glow"><stop offset="0%" stop-color="hsl(40.0 30.0% 92.0% / 0.850)"/><stop offset="45%" stop-color="hsl(40.0 30.0% 92.0% / 0.250)"/><stop offset="100%" stop-color="hsl(40.0 30.0% 92.0% / 0.000)"/></radialGradient><linearGradient id="g1teo5nn-fog0" x1="0" y1="0" x2="0" y2="1"><stop offset="0%" stop-color="hsl(40 20% 96% / 0)"/><stop offset="55%" stop-color="hsl(40 20% 96% / 0.22)"/><stop offset="100%" stop-color="hsl(40 20% 96% / 0)"/></linearGradient><linearGradient id="g1teo5nn-fog2" x1="0" y1="0" x2="0" y2="1"><stop offset="0%" stop-color="hsl(40 20% 96% / 0)"/><stop offset="55%" stop-color="hsl(40 20% 96% / 0.20)"/><stop offset="100%" stop-color="hsl(40 20% 96% / 0)"/></linearGradient><linearGradient id="g1teo5nn-fog3" x1="0" y1="0" x2="0" y2="1"><stop offset="0%" stop-color="hsl(40 20% 96% / 0)"/><stop offset="55%" stop-color="hsl(40 20% 96% / 0.36)"/><stop offset="100%" stop-color="hsl(40 20% 96% / 0)"/></linearGradient><linearGradient id="g1teo5nn-fog5" x1="0" y1="0" x2="0" y2="1"><stop offset="0%" stop-color="hsl(40 20% 96% / 0)"/><stop offset="55%" stop-color="hsl(40 20% 96% / 0.37)"/><stop offset="100%" stop-color="hsl(40 20% 96% / 0)"/></linearGradient><radialGradient id="g1teo5nn-vig" cx="50%" cy="42%" r="75%"><stop offset="70%" stop-color="hsl(0 0% 0% / 0)"/><stop offset="100%" stop-color="hsl(0 0% 0% / 0.18)"/></radialGradient></defs><rect width="1600" height="581.0" fill="url(#g1teo5nn-sky)"/><rect y="580.0" width="1600" height="320.0" fill="hsl(168.0 16.5% 44.0%)"/><circle cx="1140.9" cy="261.4" r="90" fill="url(#g1teo5nn-glow)"/><circle cx="1140.9" cy="261.4" r="46" fill="hsl(40.0 30.0% 92.0%)"/><path d="M0 900 L0 562.3 Q0.0 562.3 47.1 516.9 Q94.1 471.5 141.2 428.9 Q188.2 386.3 235.3 349.6 Q282.4 312.8 329.4 295.7 Q376.5 278.5 423.5 323.9 Q470.6 369.4 517.6 389.5 Q564.7 409.6 611.8 474.4 Q658.8 539.2 705.9 529.8 Q752.9 520.4 800.0 521.8 Q847.1 523.3 894.1 505.3 Q941.2 487.4 988.2 451.5 Q1035.3 415.6 1082.4 437.2 Q1129.4 458.7 1176.5 429.1 Q1223.5 399.5 1270.6 413.8 Q1317.6 428.1 1364.7 397.1 Q1411.8 366.0 1458.8 367.4 Q1505.9 368.8 1552.9 377.2 L1600 385.6 L1600 900 Z" fill="hsl(74.7 17.6% 73.7%)"/><rect x="0" y="471.6" width="1600" height="289.2" fill="url(#g1teo5nn-fog0)"/><path d="M0 900 L0 555.8 Q0.0 555.8 50.0 571.9 Q100.0 588.1 150.0 561.6 Q200.0 535.1 250.0 520.0 Q300.0 504.9 350.0 453.4 Q400.0 402.0 450.0 353.8 Q500.0 305.6 550.0 348.7 Q600.0 391.9 650.0 405.9 Q700.0 420.0 750.0 473.5 Q800.0 527.0 850.0 562.8 Q900.0 598.6 950.0 565.7 Q1000.0 532.7 1050.0 527.8 Q1100.0 522.8 1150.0 504.6 Q1200.0 486.3 1250.0 459.2 Q1300.0 432.0 1350.0 442.6 Q1400.0 453.1 1450.0 437.2 Q1500.0 421.2 1550.0 393.0 L1600 364.9 L1600 900 Z" fill="hsl(78.5 17.5% 72.5%)"/><path d="M0 900 L0 437.5 Q0.0 437.5 40.0 422.3 Q80.0 407.0 120.0 398.6 Q160.0 390.2 200.0 406.2 Q240.0 422.3 280.0 467.6 Q320.0 513.0 360.0 520.1 Q400.0 527.2 440.0 565.3 Q480.0 603.4 520.0 603.9 Q560.0 604.4 600.0 575.9 Q640.0 547.4 680.0 550.2 Q720.0 553.0 760.0 543.7 Q800.0 534.4 840.0 517.0 Q880.0 499.5 920.0 521.9 Q960.0 544.3 1000.0 522.6 Q1040.0 500.9 1080.0 476.8 Q1120.0 452.8 1160.0 446.6 Q1200.0 440.4 1240.0 407.0 Q1280.0 373.7 1320.0 392.3 Q1360.0 410.9 1400.0 452.0 Q1440.0 493.1 1480.0 510.8 Q1520.0 528.5 1560.0 581.4 L1600 634.3 L1600 900 Z" fill="hsl(90.0 17.4% 68.8%)"/><rect x="0" y="539.7" width="1600" height="255.5" fill="url(#g1teo5nn-fog2)"/><path d="M0 900 L0 552.8 Q0.0 552.8 40.0 538.6 Q80.0 524.4 120.0 538.4 Q160.0 552.3 200.0 540.1 Q240.0 528.0 280.0 516.9 Q320.0 505.8 360.0 542.0 Q400.0 578.2 440.0 588.6 Q480.0 599.0 520.0 615.6 Q560.0 632.3 600.0 650.8 Q640.0 669.3 680.0 661.4 Q720.0 653.6 760.0 634.9 Q800.0 616.2 840.0 610.3 Q880.0 604.3 920.0 578.9 Q960.0 553.5 1000.0 563.1 Q1040.0 572.8 1080.0 568.2 Q1120.0 563.6 1160.0 556.3 Q1200.0 548.9 1240.0 552.8 Q1280.0 556.8 1320.0 528.2 Q1360.0 499.6 1400.0 489.0 Q1440.0 478.5 1480.0 499.3 Q1520.0 520.2 1560.0 520.2 L1600 520.3 L1600 900 Z" fill="hsl(109.0 17.2% 62.8%)"/><rect x="0" y="592.8" width="1600" height="196.0" fill="url(#g1teo5nn-fog3)"/><path d="M0 900 L0 665.1 Q0.0 665.1 57.1 644.7 Q114.3 624.2 171.4 639.2 Q228.6 654.1 285.7 639.9 Q342.9 625.6 400.0 638.2 Q457.1 650.7 514.3 620.9 Q571.4 591.0 628.6 582.5 Q685.7 574.1 742.9 556.4 Q800.0 538.8 857.1 560.6 Q914.3 582.4 971.4 588.3 Q1028.6 594.3 1085.7 625.7 Q1142.9 657.1 1200.0 649.8 Q1257.1 642.6 1314.3 653.3 Q1371.4 663.9 1428.6 643.3 Q1485.7 622.7 1542.9 648.7 L1600 674.7 L1600 900 Z" fill="hsl(135.7 16.9% 54.3%)"/><path d="M0 900 L0 670.0 Q0.0 670.0 42.1 637.2 Q84.2 604.4 126.3 582.6 Q168.4 560.8 210.5 575.0 Q252.6 589.2 294.7 608.3 Q336.8 627.3 378.9 647.1 Q421.1 667.0 463.2 676.3 Q505.3 685.7 547.4 691.1 Q589.5 696.4 631.6 675.3 Q673.7 654.1 715.8 659.8 Q757.9 665.6 800.0 674.1 Q842.1 682.6 884.2 667.6 Q926.3 652.5 968.4 610.9 Q1010.5 569.3 1052.6 564.2 Q1094.7 559.1 1136.8 584.9 Q1178.9 610.7 1221.1 629.7 Q1263.2 648.8 1305.3 657.4 Q1347.4 666.0 1389.5 673.5 Q1431.6 681.0 1473.7 683.6 Q1515.8 686.2 1557.9 673.3 L1600 660.3 L1600 900 Z" fill="hsl(170.1 16.5% 43.3%)"/><rect x="0" y="660.6" width="1600" height="163.1" fill="url(#g1teo5nn-fog5)"/><path d="M0 900 L0 735.7 Q0.0 735.7 38.1 744.2 Q76.2 752.8 114.3 735.0 Q152.4 717.2 190.5 709.6 Q228.6 702.1 266.7 700.7 Q304.8 699.3 342.9 694.2 Q381.0 689.1 419.0 697.2 Q457.1 705.3 495.2 696.8 Q533.3 688.2 571.4 674.2 Q609.5 660.2 647.6 664.1 Q685.7 668.1 723.8 665.0 Q761.9 661.9 800.0 668.0 Q838.1 674.2 876.2 692.9 Q914.3 711.6 952.4 717.2 Q990.5 722.8 1028.6 725.0 Q1066.7 727.2 1104.8 727.5 Q1142.9 727.8 1181.0 717.1 Q1219.0 706.5 1257.1 718.7 Q1295.2 730.8 1333.3 728.3 Q1371.4 725.7 1409.5 726.4 Q1447.6 727.0 1485.7 722.2 Q1523.8 717.5 1561.9 698.2 L1600 678.9 L1600 900 Z" fill="hsl(212.0 16.0% 30.0%)"/><rect width="1600" height="900" fill="url(#g1teo5nn-vig)"/></svg>