<svg xmlns="http://www.w3.org/2000/svg" viewBox="0 0 1600 900" role="img" preserveAspectRatio="xMidYMid slice"><title>phu-yen-ganh-da-dia-mui-dien s1</title><defs><linearGradient id="gvwlmfm-sky" x1="0" y1="0" x2="0" y2="1"><stop offset="0%" stop-color="hsl(248.0 42.0% 22.0%)"/><stop offset="50%" stop-color="hsl(330.0 45.0% 48.0%)"/><stop offset="100%" stop-color="hsl(28.0 85.0% 62.0%)"/></linearGradient><radialGradient id="gvwlmfm-glow"><stop offset="0%" stop-color="hsl(35.0 95.0% 72.0% / 0.850)"/><stop offset="45%" stop-color="hsl(35.0 95.0% 72.0% / 0.250)"/><stop offset="100%" stop-color="hsl(35.0 95.0% 72.0% / 0.000)"/></radialGradient><linearGradient id="gvwlmfm-fog3" x1="0" y1="0" x2="0" y2="1"><stop offset="0%" stop-color="hsl(40 20% 96% / 0)"/><stop offset="55%" stop-color="hsl(40 20% 96% / 0.29)"/><stop offset="100%" stop-color="hsl(40 20% 96% / 0)"/></linearGradient><radialGradient id="gvwlmfm-vig" cx="50%" cy="42%" r="75%"><stop offset="70%" stop-color="hsl(0 0% 0% / 0)"/><stop offset="100%" stop-color="hsl(0 0% 0% / 0.18)"/></radialGradient></defs><rect width="1600" height="582.6" fill="url(#gvwlmfm-sky)"/><rect y="581.6" width="1600" height="318.4" fill="hsl(293.5 40.0% 27.5%)"/><circle cx="567.9" cy="536.0" r="200" fill="url(#gvwlmfm-glow)"/><circle cx="567.9" cy="536.0" r="64" fill="hsl(35.0 95.0% 72.0%)"/><path d="M0 900 L0 468.3 Q0.0 468.3 47.1 464.6 Q94.1 460.9 141.2 447.1 Q188.2 433.2 235.3 438.7 Q282.4 444.1 329.4 437.7 Q376.5 431.2 423.5 384.4 Q470.6 337.6 517.6 371.6 Q564.7 405.5 611.8 444.3 Q658.8 483.1 705.9 536.2 Q752.9 589.3 800.0 563.7 Q847.1 538.1 894.1 495.9 Q941.2 453.7 988.2 449.5 Q1035.3 445.2 1082.4 419.3 Q1129.4 393.4 1176.5 410.0 Q1223.5 426.6 1270.6 402.5 Q1317.6 378.4 1364.7 393.7 Q1411.8 409.0 1458.8 413.0 Q1505.9 417.0 1552.9 483.5 L1600 550.1 L1600 900 Z" fill="hsl(0.3 71.8% 51.9%)"/><path d="M0 900 L0 608.2 Q0.0 608.2 42.1 581.7 Q84.2 555.3 126.3 505.7 Q168.4 456.1 210.5 455.3 Q252.6 454.5 294.7 456.3 Q336.8 458.0 378.9 467.8 Q421.1 477.7 463.2 485.2 Q505.3 492.8 547.4 501.8 Q589.5 510.8 631.6 488.8 Q673.7 466.9 715.8 503.9 Q757.9 540.9 800.0 579.2 Q842.1 617.4 884.2 616.9 Q926.3 616.4 968.4 583.4 Q1010.5 550.4 1052.6 529.5 Q1094.7 508.7 1136.8 490.9 Q1178.9 473.1 1221.1 457.3 Q1263.2 441.5 1305.3 466.2 Q1347.4 490.8 1389.5 495.3 Q1431.6 499.8 1473.7 480.3 Q1515.8 460.8 1557.9 460.6 L1600 460.5 L1600 900 Z" fill="hsl(357.5 70.5% 50.9%)"/><path d="M0 900 L0 527.7 Q0.0 527.7 42.1 491.1 Q84.2 454.5 126.3 473.8 Q168.4 493.2 210.5 485.8 Q252.6 478.4 294.7 477.9 Q336.8 477.4 378.9 510.6 Q421.1 543.9 463.2 532.7 Q505.3 521.5 547.4 507.9 Q589.5 494.3 631.6 503.5 Q673.7 512.8 715.8 521.6 Q757.9 530.5 800.0 550.6 Q842.1 570.7 884.2 589.7 Q926.3 608.6 968.4 607.5 Q1010.5 606.3 1052.6 623.4 Q1094.7 640.4 1136.8 623.4 Q1178.9 606.3 1221.1 569.9 Q1263.2 533.5 1305.3 525.5 Q1347.4 517.5 1389.5 511.9 Q1431.6 506.2 1473.7 509.3 Q1515.8 512.3 1557.9 523.7 L1600 535.2 L1600 900 Z" fill="hsl(349.4 66.6% 47.9%)"/><path d="M0 900 L0 566.7 Q0.0 566.7 44.4 558.1 Q88.9 549.5 133.3 574.7 Q177.8 599.9 222.2 573.9 Q266.7 547.8 311.1 496.1 Q355.6 444.4 400.0 466.3 Q444.4 488.3 488.9 495.2 Q533.3 502.1 577.8 519.4 Q622.2 536.7 666.7 567.4 Q711.1 598.1 755.6 597.9 Q800.0 597.6 844.4 582.4 Q888.9 567.2 933.3 579.8 Q977.8 592.4 1022.2 631.9 Q1066.7 671.4 1111.1 651.8 Q1155.6 632.1 1200.0 608.4 Q1244.4 584.7 1288.9 568.1 Q1333.3 551.5 1377.8 534.4 Q1422.2 517.3 1466.7 526.5 Q1511.1 535.7 1555.6 536.7 L1600 537.7 L1600 900 Z" fill="hsl(335.7 60.1% 42.9%)"/><rect x="0" y="585.0" width="1600" height="216.0" fill="url(#gvwlmfm-fog3)"/><path d="M0 900 L0 658.0 Q0.0 658.0 38.1 649.8 Q76.2 641.6 114.3 637.6 Q152.4 633.5 190.5 647.6 Q228.6 661.6 266.7 667.9 Q304.8 674.1 342.9 667.4 Q381.0 660.7 419.0 648.1 Q457.1 635.5 495.2 624.7 Q533.3 613.9 571.4 604.3 Q609.5 594.7 647.6 571.8 Q685.7 549.0 723.8 545.5 Q761.9 542.0 800.0 554.0 Q838.1 566.0 876.2 600.7 Q914.3 635.5 952.4 636.8 Q990.5 638.0 1028.6 645.0 Q1066.7 652.0 1104.8 651.1 Q1142.9 650.3 1181.0 651.5 Q1219.0 652.7 1257.1 651.7 Q1295.2 650.7 1333.3 646.5 Q1371.4 642.3 1409.5 651.0 Q1447.6 659.7 1485.7 664.7 Q1523.8 669.6 1561.9 663.8 L1600 657.9 L1600 900 Z" fill="hsl(316.6 51.0% 35.9%)"/><path d="M0 900 L0 639.3 Q0.0 639.3 44.4 644.5 Q88.9 649.7 133.3 650.8 Q177.8 651.9 222.2 655.9 Q266.7 659.8 311.1 678.9 Q355.6 697.9 400.0 719.6 Q444.4 741.2 488.9 718.4 Q533.3 695.6 577.8 665.4 Q622.2 635.2 666.7 635.4 Q711.1 635.5 755.6 623.8 Q800.0 612.1 844.4 620.7 Q888.9 629.2 933.3 639.8 Q977.8 650.3 1022.2 635.6 Q1066.7 620.8 1111.1 606.6 Q1155.6 592.4 1200.0 615.7 Q1244.4 639.1 1288.9 664.3 Q1333.3 689.5 1377.8 692.5 Q1422.2 695.6 1466.7 704.7 Q1511.1 713.8 1555.6 697.0 L1600 680.1 L1600 900 Z" fill="hsl(292.0 39.3% 27.0%)"/><path d="M0 900 L0 758.7 Q0.0 758.7 53.3 745.0 Q106.7 731.3 160.0 717.3 Q213.3 703.3 266.7 683.6 Q320.0 664.0 373.3 666.1 Q426.7 668.2 480.0 672.2 Q533.3 676.2 586.7 682.8 Q640.0 689.3 693.3 690.5 Q746.7 691.7 800.0 699.5 Q853.3 707.3 906.7 710.6 Q960.0 713.9 1013.3 715.8 Q1066.7 717.8 1120.0 724.7 Q1173.3 731.7 1226.7 706.4 Q1280.0 681.2 1333.3 672.7 Q1386.7 664.2 1440.0 647.3 Q1493.3 630.3 1546.7 658.4 L1600 686.5 L1600 900 Z" fill="hsl(262.0 25.0% 16.0%)"/><rect width="1600" height="900" fill="url(#gvwlmfm-vig)"/></svg>