<svg xmlns="http://www.w3.org/2000/svg" viewBox="0 0 1600 900" role="img" preserveAspectRatio="xMidYMid slice"><title>deo-hai-van-thien-ha-de-nhat-hung-quan hero</title><defs><linearGradient id="gb79236-sky" x1="0" y1="0" x2="0" y2="1"><stop offset="0%" stop-color="hsl(208.0 60.0% 52.0%)"/><stop offset="50%" stop-color="hsl(196.0 50.0% 66.0%)"/><stop offset="100%" stop-color="hsl(40.0 60.0% 76.0%)"/></linearGradient><radialGradient id="gb79236-glow"><stop offset="0%" stop-color="hsl(42.0 90.0% 78.0% / 0.850)"/><stop offset="45%" stop-color="hsl(42.0 90.0% 78.0% / 0.250)"/><stop offset="100%" stop-color="hsl(42.0 90.0% 78.0% / 0.000)"/></radialGradient><linearGradient id="gb79236-water" x1="0" y1="0" x2="0" y2="1"><stop offset="0%" stop-color="hsl(116.5 51.0% 52.6%)"/><stop offset="100%" stop-color="hsl(213.0 41.0% 15.2%)"/></linearGradient><radialGradient id="gb79236-vig" cx="50%" cy="42%" r="75%"><stop offset="70%" stop-color="hsl(0 0% 0% / 0)"/><stop offset="100%" stop-color="hsl(0 0% 0% / 0.18)"/></radialGradient></defs><rect width="1600" height="500.6" fill="url(#gb79236-sky)"/><rect y="499.6" width="1600" height="400.4" fill="hsl(167.5 41.3% 34.0%)"/><circle cx="647.9" cy="375.5" r="150" fill="url(#gb79236-glow)"/><circle cx="647.9" cy="375.5" r="56" fill="hsl(42.0 90.0% 78.0%)"/><path d="M0 900 L0 424.6 Q0.0 424.6 44.4 364.3 Q88.9 304.0 133.3 294.0 Q177.8 284.0 222.2 281.5 Q266.7 278.9 311.1 265.2 Q355.6 251.5 400.0 295.3 Q444.4 339.1 488.9 372.8 Q533.3 406.6 577.8 391.5 Q622.2 376.4 666.7 375.1 Q711.1 373.8 755.6 387.5 Q800.0 401.2 844.4 392.9 Q888.9 384.7 933.3 426.3 Q977.8 467.9 1022.2 477.7 Q1066.7 487.5 1111.1 458.7 Q1155.6 430.0 1200.0 427.7 Q1244.4 425.4 1288.9 387.5 Q1333.3 349.6 1377.8 309.1 Q1422.2 268.6 1466.7 279.2 Q1511.1 289.8 1555.6 297.3 L1600 304.8 L1600 900 Z" fill="hsl(77.4 54.5% 63.7%)"/><path d="M0 900 L0 521.1 Q0.0 521.1 40.0 482.7 Q80.0 444.4 120.0 443.6 Q160.0 442.9 200.0 452.1 Q240.0 461.3 280.0 458.0 Q320.0 454.6 360.0 484.8 Q400.0 514.9 440.0 506.9 Q480.0 498.9 520.0 501.9 Q560.0 504.8 600.0 518.1 Q640.0 531.4 680.0 544.5 Q720.0 557.7 760.0 575.2 Q800.0 592.7 840.0 569.5 Q880.0 546.3 920.0 519.2 Q960.0 492.0 1000.0 479.4 Q1040.0 466.7 1080.0 454.9 Q1120.0 443.1 1160.0 466.3 Q1200.0 489.4 1240.0 482.2 Q1280.0 475.0 1320.0 453.3 Q1360.0 431.7 1400.0 447.6 Q1440.0 463.4 1480.0 477.4 Q1520.0 491.4 1560.0 520.4 L1600 549.5 L1600 900 Z" fill="hsl(92.1 52.3% 58.8%)"/><path d="M0 900 L0 593.8 Q0.0 593.8 42.1 606.8 Q84.2 619.8 126.3 628.4 Q168.4 637.1 210.5 614.8 Q252.6 592.6 294.7 579.9 Q336.8 567.2 378.9 552.2 Q421.1 537.3 463.2 523.7 Q505.3 510.0 547.4 529.7 Q589.5 549.4 631.6 577.1 Q673.7 604.8 715.8 602.9 Q757.9 601.0 800.0 601.7 Q842.1 602.4 884.2 601.1 Q926.3 599.8 968.4 595.1 Q1010.5 590.3 1052.6 583.9 Q1094.7 577.4 1136.8 587.9 Q1178.9 598.4 1221.1 576.7 Q1263.2 555.0 1305.3 528.5 Q1347.4 502.0 1389.5 502.2 Q1431.6 502.4 1473.7 534.5 Q1515.8 566.6 1557.9 582.3 L1600 598.0 L1600 900 Z" fill="hsl(136.3 45.8% 44.3%)"/><path d="M0 900 L0 663.4 Q0.0 663.4 50.0 649.8 Q100.0 636.1 150.0 647.8 Q200.0 659.4 250.0 665.8 Q300.0 672.2 350.0 692.4 Q400.0 712.7 450.0 706.5 Q500.0 700.3 550.0 694.4 Q600.0 688.4 650.0 690.9 Q700.0 693.4 750.0 687.2 Q800.0 681.0 850.0 676.6 Q900.0 672.3 950.0 655.1 Q1000.0 637.9 1050.0 645.9 Q1100.0 654.0 1150.0 656.6 Q1200.0 659.3 1250.0 679.0 Q1300.0 698.7 1350.0 702.4 Q1400.0 706.1 1450.0 697.8 Q1500.0 689.5 1550.0 687.6 L1600 685.8 L1600 900 Z" fill="hsl(210.0 35.0% 20.0%)"/><rect y="500.6" width="1600" height="399.4" fill="url(#gb79236-water)"/><g><rect x="810.3" y="516.4" width="13.0" height="3.2" rx="1.6" fill="hsl(42.0 90.0% 78.0% / 0.560)"/><rect x="793.0" y="540.7" width="30.5" height="3.2" rx="1.6" fill="hsl(42.0 90.0% 78.0% / 0.530)"/><rect x="738.3" y="567.9" width="59.2" height="3.2" rx="1.6" fill="hsl(42.0 90.0% 78.0% / 0.496)"/><rect x="765.8" y="585.2" width="39.6" height="3.2" rx="1.6" fill="hsl(42.0 90.0% 78.0% / 0.474)"/><rect x="732.1" y="614.8" width="71.1" height="3.2" rx="1.6" fill="hsl(42.0 90.0% 78.0% / 0.437)"/><rect x="784.6" y="633.5" width="53.3" height="3.2" rx="1.6" fill="hsl(42.0 90.0% 78.0% / 0.414)"/><rect x="742.1" y="655.5" width="42.7" height="3.2" rx="1.6" fill="hsl(42.0 90.0% 78.0% / 0.386)"/><rect x="743.4" y="676.6" width="25.0" height="3.2" rx="1.6" fill="hsl(42.0 90.0% 78.0% / 0.360)"/><rect x="762.9" y="703.2" width="55.7" height="3.2" rx="1.6" fill="hsl(42.0 90.0% 78.0% / 0.326)"/><rect x="757.7" y="725.3" width="60.0" height="3.2" rx="1.6" fill="hsl(42.0 90.0% 78.0% / 0.299)"/><rect x="785.9" y="752.8" width="62.3" height="3.2" rx="1.6" fill="hsl(42.0 90.0% 78.0% / 0.264)"/><rect x="809.8" y="775.7" width="87.1" height="3.2" rx="1.6" fill="hsl(42.0 90.0% 78.0% / 0.236)"/><rect x="715.3" y="793.6" width="89.2" height="3.2" rx="1.6" fill="hsl(42.0 90.0% 78.0% / 0.213)"/><rect x="776.0" y="816.0" width="46.0" height="3.2" rx="1.6" fill="hsl(42.0 90.0% 78.0% / 0.185)"/><rect x="698.0" y="842.2" width="46.7" height="3.2" rx="1.6" fill="hsl(42.0 90.0% 78.0% / 0.152)"/><rect x="843.4" y="864.2" width="82.2" height="3.2" rx="1.6" fill="hsl(42.0 90.0% 78.0% / 0.125)"/></g><rect width="1600" height="900" fill="url(#gb79236-vig)"/></svg>