<svg xmlns="http://www.w3.org/2000/svg" viewBox="0 0 1600 900" role="img" preserveAspectRatio="xMidYMid slice"><title>deo-hai-van-thien-ha-de-nhat-hung-quan s2</title><defs><linearGradient id="ghz0mxb-sky" x1="0" y1="0" x2="0" y2="1"><stop offset="0%" stop-color="hsl(265.0 38.0% 26.0%)"/><stop offset="50%" stop-color="hsl(348.0 55.0% 46.0%)"/><stop offset="100%" stop-color="hsl(22.0 90.0% 58.0%)"/></linearGradient><radialGradient id="ghz0mxb-glow"><stop offset="0%" stop-color="hsl(24.0 95.0% 66.0% / 0.850)"/><stop offset="45%" stop-color="hsl(24.0 95.0% 66.0% / 0.250)"/><stop offset="100%" stop-color="hsl(24.0 95.0% 66.0% / 0.000)"/></radialGradient><radialGradient id="ghz0mxb-vig" cx="50%" cy="42%" r="75%"><stop offset="70%" stop-color="hsl(0 0% 0% / 0)"/><stop offset="100%" stop-color="hsl(0 0% 0% / 0.18)"/></radialGradient></defs><rect width="1600" height="593.9" fill="url(#ghz0mxb-sky)"/><rect y="592.9" width="1600" height="307.1" fill="hsl(305.5 43.5% 25.0%)"/><circle cx="689.3" cy="522.6" r="230" fill="url(#ghz0mxb-glow)"/><circle cx="689.3" cy="522.6" r="78" fill="hsl(24.0 95.0% 66.0%)"/><path d="M0 900 L0 467.4 Q0.0 467.4 44.4 454.6 Q88.9 441.7 133.3 414.3 Q177.8 386.9 222.2 407.0 Q266.7 427.1 311.1 422.1 Q355.6 417.0 400.0 453.8 Q444.4 490.6 488.9 495.8 Q533.3 500.9 577.8 507.9 Q622.2 514.9 666.7 522.8 Q711.1 530.8 755.6 520.9 Q800.0 510.9 844.4 528.0 Q888.9 545.1 933.3 533.4 Q977.8 521.7 1022.2 537.4 Q1066.7 553.0 1111.1 513.6 Q1155.6 474.2 1200.0 465.3 Q1244.4 456.4 1288.9 430.4 Q1333.3 404.4 1377.8 379.1 Q1422.2 353.8 1466.7 395.1 Q1511.1 436.3 1555.6 431.7 L1600 427.0 L1600 900 Z" fill="hsl(359.6 76.4% 48.3%)"/><path d="M0 900 L0 639.9 Q0.0 639.9 50.0 605.6 Q100.0 571.3 150.0 525.6 Q200.0 479.8 250.0 472.8 Q300.0 465.8 350.0 453.3 Q400.0 440.8 450.0 453.5 Q500.0 466.2 550.0 471.6 Q600.0 477.0 650.0 421.4 Q700.0 365.8 750.0 383.1 Q800.0 400.3 850.0 457.3 Q900.0 514.4 950.0 536.9 Q1000.0 559.5 1050.0 561.5 Q1100.0 563.5 1150.0 557.3 Q1200.0 551.1 1250.0 543.3 Q1300.0 535.4 1350.0 569.5 Q1400.0 603.6 1450.0 597.4 Q1500.0 591.1 1550.0 538.3 L1600 485.5 L1600 900 Z" fill="hsl(357.4 75.0% 47.4%)"/><path d="M0 900 L0 527.9 Q0.0 527.9 40.0 495.6 Q80.0 463.3 120.0 441.9 Q160.0 420.5 200.0 449.8 Q240.0 479.1 280.0 476.1 Q320.0 473.1 360.0 506.4 Q400.0 539.7 440.0 556.1 Q480.0 572.5 520.0 564.9 Q560.0 557.4 600.0 541.8 Q640.0 526.3 680.0 555.8 Q720.0 585.2 760.0 598.7 Q800.0 612.2 840.0 632.2 Q880.0 652.1 920.0 650.9 Q960.0 649.7 1000.0 597.8 Q1040.0 545.8 1080.0 535.6 Q1120.0 525.3 1160.0 533.5 Q1200.0 541.7 1240.0 533.7 Q1280.0 525.7 1320.0 545.3 Q1360.0 565.0 1400.0 539.8 Q1440.0 514.6 1480.0 466.8 Q1520.0 419.0 1560.0 429.4 L1600 439.7 L1600 900 Z" fill="hsl(350.7 71.0% 44.5%)"/><path d="M0 900 L0 656.3 Q0.0 656.3 38.1 637.6 Q76.2 618.8 114.3 604.8 Q152.4 590.7 190.5 594.6 Q228.6 598.5 266.7 599.9 Q304.8 601.2 342.9 586.3 Q381.0 571.4 419.0 559.4 Q457.1 547.4 495.2 548.8 Q533.3 550.2 571.4 548.5 Q609.5 546.7 647.6 546.8 Q685.7 546.9 723.8 545.7 Q761.9 544.5 800.0 571.5 Q838.1 598.5 876.2 624.3 Q914.3 650.2 952.4 657.3 Q990.5 664.3 1028.6 656.9 Q1066.7 649.5 1104.8 635.0 Q1142.9 620.5 1181.0 616.6 Q1219.0 612.7 1257.1 596.6 Q1295.2 580.5 1333.3 553.2 Q1371.4 525.9 1409.5 537.9 Q1447.6 549.8 1485.7 566.5 Q1523.8 583.2 1561.9 579.9 L1600 576.6 L1600 900 Z" fill="hsl(339.7 64.3% 39.7%)"/><path d="M0 900 L0 598.8 Q0.0 598.8 38.1 579.6 Q76.2 560.4 114.3 548.9 Q152.4 537.5 190.5 566.1 Q228.6 594.7 266.7 615.9 Q304.8 637.2 342.9 641.0 Q381.0 644.9 419.0 642.5 Q457.1 640.0 495.2 640.3 Q533.3 640.6 571.4 643.8 Q609.5 646.9 647.6 650.0 Q685.7 653.1 723.8 669.0 Q761.9 684.9 800.0 678.2 Q838.1 671.5 876.2 641.2 Q914.3 610.8 952.4 583.2 Q990.5 555.5 1028.6 562.2 Q1066.7 568.9 1104.8 572.7 Q1142.9 576.6 1181.0 586.0 Q1219.0 595.5 1257.1 602.0 Q1295.2 608.5 1333.3 619.9 Q1371.4 631.2 1409.5 631.7 Q1447.6 632.1 1485.7 622.4 Q1523.8 612.7 1561.9 641.8 L1600 671.0 L1600 900 Z" fill="hsl(324.2 54.9% 33.1%)"/><path d="M0 900 L0 635.5 Q0.0 635.5 47.1 613.4 Q94.1 591.3 141.2 610.9 Q188.2 630.4 235.3 621.1 Q282.4 611.8 329.4 608.7 Q376.5 605.5 423.5 617.9 Q470.6 630.2 517.6 643.9 Q564.7 657.6 611.8 684.6 Q658.8 711.5 705.9 730.5 Q752.9 749.4 800.0 710.8 Q847.1 672.1 894.1 657.0 Q941.2 641.9 988.2 637.3 Q1035.3 632.6 1082.4 621.4 Q1129.4 610.2 1176.5 627.7 Q1223.5 645.1 1270.6 624.3 Q1317.6 603.5 1364.7 602.7 Q1411.8 601.9 1458.8 617.1 Q1505.9 632.4 1552.9 655.2 L1600 678.0 L1600 900 Z" fill="hsl(304.3 42.8% 24.5%)"/><path d="M0 900 L0 674.2 Q0.0 674.2 47.1 674.8 Q94.1 675.5 141.2 683.4 Q188.2 691.4 235.3 712.8 Q282.4 734.2 329.4 738.0 Q376.5 741.9 423.5 747.9 Q470.6 754.0 517.6 735.5 Q564.7 717.0 611.8 711.5 Q658.8 706.1 705.9 711.9 Q752.9 717.8 800.0 706.8 Q847.1 695.9 894.1 696.7 Q941.2 697.5 988.2 684.3 Q1035.3 671.0 1082.4 675.7 Q1129.4 680.3 1176.5 695.5 Q1223.5 710.7 1270.6 721.3 Q1317.6 732.0 1364.7 750.4 Q1411.8 768.9 1458.8 753.7 Q1505.9 738.5 1552.9 723.0 L1600 707.6 L1600 900 Z" fill="hsl(280.0 28.0% 14.0%)"/><rect width="1600" height="900" fill="url(#ghz0mxb-vig)"/></svg>