<svg xmlns="http://www.w3.org/2000/svg" viewBox="0 0 1600 900" role="img" preserveAspectRatio="xMidYMid slice"><title>deo-hai-van-thien-ha-de-nhat-hung-quan s1</title><defs><linearGradient id="g1rvtagu-sky" x1="0" y1="0" x2="0" y2="1"><stop offset="0%" stop-color="hsl(208.0 60.0% 52.0%)"/><stop offset="50%" stop-color="hsl(196.0 50.0% 66.0%)"/><stop offset="100%" stop-color="hsl(40.0 60.0% 76.0%)"/></linearGradient><radialGradient id="g1rvtagu-glow"><stop offset="0%" stop-color="hsl(42.0 90.0% 78.0% / 0.850)"/><stop offset="45%" stop-color="hsl(42.0 90.0% 78.0% / 0.250)"/><stop offset="100%" stop-color="hsl(42.0 90.0% 78.0% / 0.000)"/></radialGradient><linearGradient id="g1rvtagu-water" x1="0" y1="0" x2="0" y2="1"><stop offset="0%" stop-color="hsl(116.5 51.0% 52.6%)"/><stop offset="100%" stop-color="hsl(213.0 41.0% 15.2%)"/></linearGradient><radialGradient id="g1rvtagu-vig" cx="50%" cy="42%" r="75%"><stop offset="70%" stop-color="hsl(0 0% 0% / 0)"/><stop offset="100%" stop-color="hsl(0 0% 0% / 0.18)"/></radialGradient></defs><rect width="1600" height="478.9" fill="url(#g1rvtagu-sky)"/><rect y="477.9" width="1600" height="422.1" fill="hsl(167.5 41.3% 34.0%)"/><circle cx="1035.5" cy="359.2" r="150" fill="url(#g1rvtagu-glow)"/><circle cx="1035.5" cy="359.2" r="56" fill="hsl(42.0 90.0% 78.0%)"/><path d="M0 900 L0 477.0 Q0.0 477.0 40.0 454.6 Q80.0 432.2 120.0 421.3 Q160.0 410.4 200.0 401.1 Q240.0 391.7 280.0 383.7 Q320.0 375.8 360.0 367.1 Q400.0 358.5 440.0 369.3 Q480.0 380.2 520.0 386.0 Q560.0 391.8 600.0 369.1 Q640.0 346.4 680.0 351.0 Q720.0 355.6 760.0 370.7 Q800.0 385.8 840.0 413.3 Q880.0 440.9 920.0 448.1 Q960.0 455.3 1000.0 458.8 Q1040.0 462.4 1080.0 470.0 Q1120.0 477.6 1160.0 465.6 Q1200.0 453.7 1240.0 411.7 Q1280.0 369.6 1320.0 348.4 Q1360.0 327.1 1400.0 328.5 Q1440.0 329.9 1480.0 344.3 Q1520.0 358.7 1560.0 363.9 L1600 369.1 L1600 900 Z" fill="hsl(77.4 54.5% 63.7%)"/><path d="M0 900 L0 553.4 Q0.0 553.4 42.1 546.2 Q84.2 539.1 126.3 509.5 Q168.4 479.8 210.5 467.7 Q252.6 455.7 294.7 480.4 Q336.8 505.1 378.9 512.1 Q421.1 519.1 463.2 481.4 Q505.3 443.7 547.4 423.0 Q589.5 402.2 631.6 404.2 Q673.7 406.3 715.8 409.1 Q757.9 412.0 800.0 426.5 Q842.1 441.1 884.2 455.2 Q926.3 469.2 968.4 471.9 Q1010.5 474.6 1052.6 463.9 Q1094.7 453.1 1136.8 461.5 Q1178.9 469.9 1221.1 506.3 Q1263.2 542.7 1305.3 557.0 Q1347.4 571.4 1389.5 547.7 Q1431.6 524.0 1473.7 518.1 Q1515.8 512.2 1557.9 497.6 L1600 482.9 L1600 900 Z" fill="hsl(92.1 52.3% 58.8%)"/><path d="M0 900 L0 513.4 Q0.0 513.4 38.1 518.3 Q76.2 523.2 114.3 519.4 Q152.4 515.6 190.5 523.5 Q228.6 531.4 266.7 547.4 Q304.8 563.5 342.9 559.8 Q381.0 556.1 419.0 545.9 Q457.1 535.8 495.2 540.5 Q533.3 545.2 571.4 556.3 Q609.5 567.3 647.6 590.1 Q685.7 612.9 723.8 623.8 Q761.9 634.6 800.0 631.3 Q838.1 627.9 876.2 610.1 Q914.3 592.3 952.4 589.7 Q990.5 587.1 1028.6 570.3 Q1066.7 553.5 1104.8 555.4 Q1142.9 557.4 1181.0 556.6 Q1219.0 555.8 1257.1 550.0 Q1295.2 544.2 1333.3 536.4 Q1371.4 528.5 1409.5 516.3 Q1447.6 504.0 1485.7 504.5 Q1523.8 505.0 1561.9 520.8 L1600 536.6 L1600 900 Z" fill="hsl(136.3 45.8% 44.3%)"/><path d="M0 900 L0 675.2 Q0.0 675.2 47.1 657.7 Q94.1 640.2 141.2 634.8 Q188.2 629.5 235.3 637.0 Q282.4 644.5 329.4 652.8 Q376.5 661.1 423.5 674.4 Q470.6 687.8 517.6 689.2 Q564.7 690.7 611.8 683.6 Q658.8 676.5 705.9 682.9 Q752.9 689.3 800.0 682.5 Q847.1 675.7 894.1 678.1 Q941.2 680.4 988.2 675.5 Q1035.3 670.5 1082.4 662.0 Q1129.4 653.5 1176.5 640.8 Q1223.5 628.1 1270.6 634.5 Q1317.6 640.9 1364.7 653.4 Q1411.8 666.0 1458.8 675.0 Q1505.9 684.1 1552.9 693.1 L1600 702.2 L1600 900 Z" fill="hsl(210.0 35.0% 20.0%)"/><rect y="478.9" width="1600" height="421.1" fill="url(#g1rvtagu-water)"/><g><rect x="810.0" y="494.9" width="17.5" height="3.2" rx="1.6" fill="hsl(42.0 90.0% 78.0% / 0.561)"/><rect x="785.5" y="514.1" width="43.4" height="3.2" rx="1.6" fill="hsl(42.0 90.0% 78.0% / 0.538)"/><rect x="742.6" y="540.3" width="59.6" height="3.2" rx="1.6" fill="hsl(42.0 90.0% 78.0% / 0.507)"/><rect x="759.7" y="561.7" width="54.4" height="3.2" rx="1.6" fill="hsl(42.0 90.0% 78.0% / 0.482)"/><rect x="767.0" y="578.6" width="34.1" height="3.2" rx="1.6" fill="hsl(42.0 90.0% 78.0% / 0.462)"/><rect x="746.0" y="603.3" width="66.8" height="3.2" rx="1.6" fill="hsl(42.0 90.0% 78.0% / 0.432)"/><rect x="801.1" y="618.2" width="80.0" height="3.2" rx="1.6" fill="hsl(42.0 90.0% 78.0% / 0.415)"/><rect x="717.7" y="644.8" width="74.5" height="3.2" rx="1.6" fill="hsl(42.0 90.0% 78.0% / 0.383)"/><rect x="759.9" y="660.6" width="24.2" height="3.2" rx="1.6" fill="hsl(42.0 90.0% 78.0% / 0.364)"/><rect x="781.5" y="680.7" width="85.9" height="3.2" rx="1.6" fill="hsl(42.0 90.0% 78.0% / 0.340)"/><rect x="733.7" y="700.2" width="41.1" height="3.2" rx="1.6" fill="hsl(42.0 90.0% 78.0% / 0.317)"/><rect x="826.3" y="726.0" width="63.5" height="3.2" rx="1.6" fill="hsl(42.0 90.0% 78.0% / 0.287)"/><rect x="740.7" y="746.1" width="63.8" height="3.2" rx="1.6" fill="hsl(42.0 90.0% 78.0% / 0.263)"/><rect x="812.9" y="761.5" width="101.8" height="3.2" rx="1.6" fill="hsl(42.0 90.0% 78.0% / 0.244)"/><rect x="714.3" y="786.5" width="65.5" height="3.2" rx="1.6" fill="hsl(42.0 90.0% 78.0% / 0.215)"/><rect x="816.7" y="808.3" width="99.5" height="3.2" rx="1.6" fill="hsl(42.0 90.0% 78.0% / 0.189)"/><rect x="819.3" y="825.8" width="56.8" height="3.2" rx="1.6" fill="hsl(42.0 90.0% 78.0% / 0.168)"/><rect x="776.4" y="843.3" width="135.2" height="3.2" rx="1.6" fill="hsl(42.0 90.0% 78.0% / 0.147)"/><rect x="788.0" y="866.2" width="82.9" height="3.2" rx="1.6" fill="hsl(42.0 90.0% 78.0% / 0.120)"/></g><rect width="1600" height="900" fill="url(#g1rvtagu-vig)"/></svg>