<svg xmlns="http://www.w3.org/2000/svg" viewBox="0 0 1600 900" role="img" preserveAspectRatio="xMidYMid slice"><title>phong-nha-ke-bang-hang-toi hero</title><defs><linearGradient id="gim1mw9-sky" x1="0" y1="0" x2="0" y2="1"><stop offset="0%" stop-color="hsl(170.0 30.0% 52.0%)"/><stop offset="50%" stop-color="hsl(150.0 25.0% 68.0%)"/><stop offset="100%" stop-color="hsl(60.0 35.0% 78.0%)"/></linearGradient><radialGradient id="gim1mw9-glow"><stop offset="0%" stop-color="hsl(52.0 70.0% 84.0% / 0.850)"/><stop offset="45%" stop-color="hsl(52.0 70.0% 84.0% / 0.250)"/><stop offset="100%" stop-color="hsl(52.0 70.0% 84.0% / 0.000)"/></radialGradient><linearGradient id="gim1mw9-fog0" x1="0" y1="0" x2="0" y2="1"><stop offset="0%" stop-color="hsl(40 20% 96% / 0)"/><stop offset="55%" stop-color="hsl(40 20% 96% / 0.27)"/><stop offset="100%" stop-color="hsl(40 20% 96% / 0)"/></linearGradient><linearGradient id="gim1mw9-fog1" x1="0" y1="0" x2="0" y2="1"><stop offset="0%" stop-color="hsl(40 20% 96% / 0)"/><stop offset="55%" stop-color="hsl(40 20% 96% / 0.26)"/><stop offset="100%" stop-color="hsl(40 20% 96% / 0)"/></linearGradient><linearGradient id="gim1mw9-fog2" x1="0" y1="0" x2="0" y2="1"><stop offset="0%" stop-color="hsl(40 20% 96% / 0)"/><stop offset="55%" stop-color="hsl(40 20% 96% / 0.20)"/><stop offset="100%" stop-color="hsl(40 20% 96% / 0)"/></linearGradient><linearGradient id="gim1mw9-fog3" x1="0" y1="0" x2="0" y2="1"><stop offset="0%" stop-color="hsl(40 20% 96% / 0)"/><stop offset="55%" stop-color="hsl(40 20% 96% / 0.30)"/><stop offset="100%" stop-color="hsl(40 20% 96% / 0)"/></linearGradient><radialGradient id="gim1mw9-vig" cx="50%" cy="42%" r="75%"><stop offset="70%" stop-color="hsl(0 0% 0% / 0)"/><stop offset="100%" stop-color="hsl(0 0% 0% / 0.18)"/></radialGradient></defs><rect width="1600" height="564.5" fill="url(#gim1mw9-sky)"/><rect y="563.5" width="1600" height="336.5" fill="hsl(133.5 35.0% 28.5%)"/><circle cx="954.3" cy="310.5" r="100" fill="url(#gim1mw9-glow)"/><circle cx="954.3" cy="310.5" r="42" fill="hsl(52.0 70.0% 84.0%)"/><path d="M0 900 L0 266.7 L0.0 266.7 L84.2 330.7 L168.4 463.0 L252.6 512.7 L336.8 610.9 L421.1 555.4 L505.3 510.0 L589.5 414.4 L673.7 306.1 L757.9 316.6 L842.1 294.9 L926.3 399.6 L1010.5 370.0 L1094.7 313.4 L1178.9 417.4 L1263.2 371.5 L1347.4 552.7 L1431.6 550.8 L1515.8 562.7 L1600.0 481.7 L1600 900 Z" fill="hsl(81.6 35.0% 63.5%)"/><rect x="0" y="447.6" width="1600" height="308.3" fill="url(#gim1mw9-fog0)"/><path d="M0 900 L0 405.6 L0.0 405.6 L94.1 370.5 L188.2 370.6 L282.4 428.5 L376.5 473.8 L470.6 401.7 L564.7 437.9 L658.8 529.6 L752.9 569.4 L847.1 570.1 L941.2 539.3 L1035.3 494.6 L1129.4 454.1 L1223.5 539.8 L1317.6 449.5 L1411.8 402.5 L1505.9 396.8 L1600.0 390.0 L1600 900 Z" fill="hsl(84.6 35.0% 61.4%)"/><rect x="0" y="511.4" width="1600" height="240.2" fill="url(#gim1mw9-fog1)"/><path d="M0 900 L0 458.7 L0.0 458.7 L94.1 416.0 L188.2 451.9 L282.4 477.8 L376.5 586.2 L470.6 667.9 L564.7 617.1 L658.8 522.1 L752.9 493.3 L847.1 478.9 L941.2 471.3 L1035.3 468.9 L1129.4 485.6 L1223.5 470.7 L1317.6 564.0 L1411.8 633.3 L1505.9 634.7 L1600.0 619.4 L1600 900 Z" fill="hsl(93.8 35.0% 55.2%)"/><rect x="0" y="555.0" width="1600" height="217.5" fill="url(#gim1mw9-fog2)"/><path d="M0 900 L0 486.7 L0.0 486.7 L94.1 498.7 L188.2 570.7 L282.4 613.3 L376.5 659.2 L470.6 667.7 L564.7 586.0 L658.8 566.4 L752.9 497.6 L847.1 525.9 L941.2 547.0 L1035.3 591.5 L1129.4 641.5 L1223.5 642.7 L1317.6 614.3 L1411.8 551.9 L1505.9 610.4 L1600.0 555.9 L1600 900 Z" fill="hsl(109.1 35.0% 44.9%)"/><rect x="0" y="600.8" width="1600" height="190.0" fill="url(#gim1mw9-fog3)"/><path d="M0 900 L0 627.2 L0.0 627.2 L88.9 593.6 L177.8 575.9 L266.7 600.4 L355.6 600.8 L444.4 654.9 L533.3 703.4 L622.2 721.2 L711.1 653.1 L800.0 605.7 L888.9 586.5 L977.8 593.4 L1066.7 632.9 L1155.6 640.8 L1244.4 614.5 L1333.3 649.8 L1422.2 681.5 L1511.1 689.2 L1600.0 689.4 L1600 900 Z" fill="hsl(130.5 35.0% 30.5%)"/><path d="M0 900 L0 685.9 L0.0 685.9 L84.2 665.0 L168.4 683.2 L252.6 668.7 L336.8 651.7 L421.1 682.9 L505.3 729.9 L589.5 741.8 L673.7 737.4 L757.9 734.3 L842.1 713.4 L926.3 658.4 L1010.5 665.0 L1094.7 657.7 L1178.9 644.0 L1263.2 683.7 L1347.4 732.3 L1431.6 736.2 L1515.8 728.1 L1600.0 714.3 L1600 900 Z" fill="hsl(158.0 35.0% 12.0%)"/><rect width="1600" height="900" fill="url(#gim1mw9-vig)"/></svg>