<svg xmlns="http://www.w3.org/2000/svg" viewBox="0 0 1600 900" role="img" preserveAspectRatio="xMidYMid slice"><title>phong-nha-ke-bang-hang-toi s2</title><defs><linearGradient id="glqnass-sky" x1="0" y1="0" x2="0" y2="1"><stop offset="0%" stop-color="hsl(210.0 14.0% 74.0%)"/><stop offset="50%" stop-color="hsl(210.0 12.0% 82.0%)"/><stop offset="100%" stop-color="hsl(36.0 18.0% 86.0%)"/></linearGradient><radialGradient id="glqnass-glow"><stop offset="0%" stop-color="hsl(40.0 30.0% 92.0% / 0.850)"/><stop offset="45%" stop-color="hsl(40.0 30.0% 92.0% / 0.250)"/><stop offset="100%" stop-color="hsl(40.0 30.0% 92.0% / 0.000)"/></radialGradient><linearGradient id="glqnass-fog1" x1="0" y1="0" x2="0" y2="1"><stop offset="0%" stop-color="hsl(40 20% 96% / 0)"/><stop offset="55%" stop-color="hsl(40 20% 96% / 0.17)"/><stop offset="100%" stop-color="hsl(40 20% 96% / 0)"/></linearGradient><linearGradient id="glqnass-fog2" x1="0" y1="0" x2="0" y2="1"><stop offset="0%" stop-color="hsl(40 20% 96% / 0)"/><stop offset="55%" stop-color="hsl(40 20% 96% / 0.24)"/><stop offset="100%" stop-color="hsl(40 20% 96% / 0)"/></linearGradient><linearGradient id="glqnass-fog3" x1="0" y1="0" x2="0" y2="1"><stop offset="0%" stop-color="hsl(40 20% 96% / 0)"/><stop offset="55%" stop-color="hsl(40 20% 96% / 0.19)"/><stop offset="100%" stop-color="hsl(40 20% 96% / 0)"/></linearGradient><linearGradient id="glqnass-fog4" x1="0" y1="0" x2="0" y2="1"><stop offset="0%" stop-color="hsl(40 20% 96% / 0)"/><stop offset="55%" stop-color="hsl(40 20% 96% / 0.28)"/><stop offset="100%" stop-color="hsl(40 20% 96% / 0)"/></linearGradient><linearGradient id="glqnass-fog5" x1="0" y1="0" x2="0" y2="1"><stop offset="0%" stop-color="hsl(40 20% 96% / 0)"/><stop offset="55%" stop-color="hsl(40 20% 96% / 0.28)"/><stop offset="100%" stop-color="hsl(40 20% 96% / 0)"/></linearGradient><linearGradient id="glqnass-fog6" x1="0" y1="0" x2="0" y2="1"><stop offset="0%" stop-color="hsl(40 20% 96% / 0)"/><stop offset="55%" stop-color="hsl(40 20% 96% / 0.28)"/><stop offset="100%" stop-color="hsl(40 20% 96% / 0)"/></linearGradient><radialGradient id="glqnass-vig" cx="50%" cy="42%" r="75%"><stop offset="70%" stop-color="hsl(0 0% 0% / 0)"/><stop offset="100%" stop-color="hsl(0 0% 0% / 0.18)"/></radialGradient></defs><rect width="1600" height="609.0" fill="url(#glqnass-sky)"/><rect y="608.0" width="1600" height="292.0" fill="hsl(168.0 16.5% 44.0%)"/><circle cx="1143.1" cy="274.0" r="90" fill="url(#glqnass-glow)"/><circle cx="1143.1" cy="274.0" r="46" fill="hsl(40.0 30.0% 92.0%)"/><path d="M0 900 L0 280.6 Q0.0 280.6 38.1 325.0 Q76.2 369.4 114.3 419.1 Q152.4 468.9 190.5 501.9 Q228.6 535.0 266.7 540.8 Q304.8 546.5 342.9 513.7 Q381.0 480.8 419.0 481.3 Q457.1 481.7 495.2 487.7 Q533.3 493.6 571.4 499.7 Q609.5 505.8 647.6 508.5 Q685.7 511.2 723.8 526.2 Q761.9 541.2 800.0 543.7 Q838.1 546.2 876.2 477.7 Q914.3 409.3 952.4 378.7 Q990.5 348.2 1028.6 322.1 Q1066.7 295.9 1104.8 291.8 Q1142.9 287.6 1181.0 285.4 Q1219.0 283.3 1257.1 321.3 Q1295.2 359.2 1333.3 392.9 Q1371.4 426.6 1409.5 429.8 Q1447.6 433.0 1485.7 406.2 Q1523.8 379.4 1561.9 388.5 L1600 397.6 L1600 900 Z" fill="hsl(74.7 17.6% 73.7%)"/><path d="M0 900 L0 477.3 Q0.0 477.3 42.1 448.8 Q84.2 420.4 126.3 382.3 Q168.4 344.2 210.5 368.0 Q252.6 391.8 294.7 430.6 Q336.8 469.4 378.9 478.0 Q421.1 486.7 463.2 499.7 Q505.3 512.8 547.4 545.6 Q589.5 578.4 631.6 551.7 Q673.7 525.0 715.8 525.2 Q757.9 525.3 800.0 536.5 Q842.1 547.7 884.2 548.2 Q926.3 548.6 968.4 522.7 Q1010.5 496.7 1052.6 483.6 Q1094.7 470.5 1136.8 453.6 Q1178.9 436.6 1221.1 385.9 Q1263.2 335.2 1305.3 363.2 Q1347.4 391.2 1389.5 431.6 Q1431.6 472.0 1473.7 492.6 Q1515.8 513.2 1557.9 542.8 L1600 572.5 L1600 900 Z" fill="hsl(77.5 17.5% 72.8%)"/><rect x="0" y="524.0" width="1600" height="277.3" fill="url(#glqnass-fog1)"/><path d="M0 900 L0 412.5 Q0.0 412.5 40.0 423.7 Q80.0 434.9 120.0 455.0 Q160.0 475.2 200.0 474.3 Q240.0 473.5 280.0 435.6 Q320.0 397.7 360.0 423.0 Q400.0 448.4 440.0 498.0 Q480.0 547.7 520.0 571.2 Q560.0 594.7 600.0 608.7 Q640.0 622.7 680.0 610.8 Q720.0 598.8 760.0 576.7 Q800.0 554.6 840.0 526.4 Q880.0 498.2 920.0 515.2 Q960.0 532.2 1000.0 531.9 Q1040.0 531.6 1080.0 487.1 Q1120.0 442.6 1160.0 414.3 Q1200.0 386.1 1240.0 383.9 Q1280.0 381.6 1320.0 397.0 Q1360.0 412.4 1400.0 465.9 Q1440.0 519.5 1480.0 545.9 Q1520.0 572.4 1560.0 571.7 L1600 571.0 L1600 900 Z" fill="hsl(85.9 17.4% 70.1%)"/><rect x="0" y="539.1" width="1600" height="290.1" fill="url(#glqnass-fog2)"/><path d="M0 900 L0 580.2 Q0.0 580.2 38.1 578.2 Q76.2 576.2 114.3 566.4 Q152.4 556.6 190.5 596.2 Q228.6 635.7 266.7 643.8 Q304.8 651.8 342.9 647.2 Q381.0 642.5 419.0 644.1 Q457.1 645.6 495.2 598.1 Q533.3 550.6 571.4 532.5 Q609.5 514.4 647.6 510.9 Q685.7 507.3 723.8 505.8 Q761.9 504.2 800.0 530.9 Q838.1 557.6 876.2 547.8 Q914.3 538.1 952.4 534.8 Q990.5 531.6 1028.6 536.5 Q1066.7 541.4 1104.8 545.9 Q1142.9 550.4 1181.0 590.0 Q1219.0 629.6 1257.1 645.3 Q1295.2 661.1 1333.3 662.7 Q1371.4 664.3 1409.5 653.9 Q1447.6 643.5 1485.7 601.8 Q1523.8 560.1 1561.9 546.7 L1600 533.4 L1600 900 Z" fill="hsl(99.9 17.3% 65.7%)"/><rect x="0" y="590.7" width="1600" height="220.8" fill="url(#glqnass-fog3)"/><path d="M0 900 L0 612.1 Q0.0 612.1 50.0 654.3 Q100.0 696.6 150.0 681.4 Q200.0 666.1 250.0 632.5 Q300.0 598.8 350.0 571.6 Q400.0 544.3 450.0 505.4 Q500.0 466.4 550.0 509.3 Q600.0 552.1 650.0 564.2 Q700.0 576.2 750.0 605.3 Q800.0 634.4 850.0 633.5 Q900.0 632.6 950.0 625.2 Q1000.0 617.9 1050.0 622.5 Q1100.0 627.1 1150.0 611.9 Q1200.0 596.7 1250.0 585.0 Q1300.0 573.2 1350.0 552.6 Q1400.0 532.0 1450.0 514.8 Q1500.0 497.7 1550.0 527.4 L1600 557.1 L1600 900 Z" fill="hsl(119.5 17.1% 59.4%)"/><rect x="0" y="610.1" width="1600" height="223.9" fill="url(#glqnass-fog4)"/><path d="M0 900 L0 633.0 Q0.0 633.0 57.1 617.8 Q114.3 602.5 171.4 625.8 Q228.6 649.0 285.7 640.4 Q342.9 631.9 400.0 629.0 Q457.1 626.1 514.3 632.7 Q571.4 639.2 628.6 659.6 Q685.7 679.9 742.9 700.0 Q800.0 720.1 857.1 708.2 Q914.3 696.3 971.4 681.7 Q1028.6 667.2 1085.7 649.5 Q1142.9 631.8 1200.0 641.0 Q1257.1 650.2 1314.3 636.2 Q1371.4 622.2 1428.6 627.8 Q1485.7 633.3 1542.9 610.3 L1600 587.3 L1600 900 Z" fill="hsl(144.8 16.8% 51.4%)"/><rect x="0" y="669.7" width="1600" height="136.4" fill="url(#glqnass-fog5)"/><path d="M0 900 L0 696.2 Q0.0 696.2 40.0 689.4 Q80.0 682.5 120.0 665.6 Q160.0 648.6 200.0 655.1 Q240.0 661.6 280.0 661.1 Q320.0 660.7 360.0 655.1 Q400.0 649.4 440.0 653.3 Q480.0 657.2 520.0 650.3 Q560.0 643.5 600.0 656.0 Q640.0 668.4 680.0 698.8 Q720.0 729.2 760.0 732.2 Q800.0 735.1 840.0 728.9 Q880.0 722.7 920.0 713.3 Q960.0 703.9 1000.0 682.1 Q1040.0 660.2 1080.0 647.1 Q1120.0 633.9 1160.0 641.5 Q1200.0 649.0 1240.0 647.4 Q1280.0 645.8 1320.0 658.4 Q1360.0 671.0 1400.0 673.5 Q1440.0 675.9 1480.0 666.6 Q1520.0 657.2 1560.0 674.6 L1600 692.0 L1600 900 Z" fill="hsl(175.6 16.4% 41.6%)"/><rect x="0" y="693.4" width="1600" height="129.9" fill="url(#glqnass-fog6)"/><path d="M0 900 L0 666.1 Q0.0 666.1 57.1 663.8 Q114.3 661.4 171.4 668.3 Q228.6 675.2 285.7 685.5 Q342.9 695.8 400.0 725.6 Q457.1 755.4 514.3 754.4 Q571.4 753.3 628.6 740.5 Q685.7 727.7 742.9 714.5 Q800.0 701.2 857.1 686.3 Q914.3 671.4 971.4 687.8 Q1028.6 704.2 1085.7 693.2 Q1142.9 682.2 1200.0 675.0 Q1257.1 667.8 1314.3 650.0 Q1371.4 632.3 1428.6 638.1 Q1485.7 643.9 1542.9 671.5 L1600 699.2 L1600 900 Z" fill="hsl(212.0 16.0% 30.0%)"/><rect width="1600" height="900" fill="url(#glqnass-vig)"/></svg>