<svg xmlns="http://www.w3.org/2000/svg" viewBox="0 0 1600 900" role="img" preserveAspectRatio="xMidYMid slice"><title>phong-nha-ke-bang-hang-toi s1</title><defs><linearGradient id="geuc46h-sky" x1="0" y1="0" x2="0" y2="1"><stop offset="0%" stop-color="hsl(170.0 30.0% 52.0%)"/><stop offset="50%" stop-color="hsl(150.0 25.0% 68.0%)"/><stop offset="100%" stop-color="hsl(60.0 35.0% 78.0%)"/></linearGradient><radialGradient id="geuc46h-glow"><stop offset="0%" stop-color="hsl(52.0 70.0% 84.0% / 0.850)"/><stop offset="45%" stop-color="hsl(52.0 70.0% 84.0% / 0.250)"/><stop offset="100%" stop-color="hsl(52.0 70.0% 84.0% / 0.000)"/></radialGradient><linearGradient id="geuc46h-fog0" x1="0" y1="0" x2="0" y2="1"><stop offset="0%" stop-color="hsl(40 20% 96% / 0)"/><stop offset="55%" stop-color="hsl(40 20% 96% / 0.36)"/><stop offset="100%" stop-color="hsl(40 20% 96% / 0)"/></linearGradient><linearGradient id="geuc46h-fog4" x1="0" y1="0" x2="0" y2="1"><stop offset="0%" stop-color="hsl(40 20% 96% / 0)"/><stop offset="55%" stop-color="hsl(40 20% 96% / 0.18)"/><stop offset="100%" stop-color="hsl(40 20% 96% / 0)"/></linearGradient><radialGradient id="geuc46h-vig" cx="50%" cy="42%" r="75%"><stop offset="70%" stop-color="hsl(0 0% 0% / 0)"/><stop offset="100%" stop-color="hsl(0 0% 0% / 0.18)"/></radialGradient></defs><rect width="1600" height="621.9" fill="url(#geuc46h-sky)"/><rect y="620.9" width="1600" height="279.1" fill="hsl(133.5 35.0% 28.5%)"/><circle cx="576.3" cy="342.0" r="100" fill="url(#geuc46h-glow)"/><circle cx="576.3" cy="342.0" r="42" fill="hsl(52.0 70.0% 84.0%)"/><path d="M0 900 L0 544.8 L0.0 544.8 L88.9 575.8 L177.8 583.2 L266.7 555.9 L355.6 492.7 L444.4 564.1 L533.3 499.6 L622.2 519.1 L711.1 527.4 L800.0 424.9 L888.9 368.4 L977.8 352.4 L1066.7 351.4 L1155.6 419.3 L1244.4 513.3 L1333.3 549.4 L1422.2 586.1 L1511.1 491.6 L1600.0 520.9 L1600 900 Z" fill="hsl(81.6 35.0% 63.5%)"/><rect x="0" y="512.5" width="1600" height="283.6" fill="url(#geuc46h-fog0)"/><path d="M0 900 L0 627.0 L0.0 627.0 L114.3 562.5 L228.6 581.3 L342.9 653.0 L457.1 655.8 L571.4 571.7 L685.7 435.8 L800.0 440.4 L914.3 434.1 L1028.6 452.0 L1142.9 419.8 L1257.1 492.1 L1371.4 570.7 L1485.7 637.3 L1600.0 575.1 L1600 900 Z" fill="hsl(84.6 35.0% 61.4%)"/><path d="M0 900 L0 466.6 L0.0 466.6 L114.3 504.8 L228.6 558.8 L342.9 574.0 L457.1 601.4 L571.4 659.8 L685.7 640.6 L800.0 548.5 L914.3 462.9 L1028.6 493.2 L1142.9 612.3 L1257.1 608.1 L1371.4 640.3 L1485.7 654.3 L1600.0 663.7 L1600 900 Z" fill="hsl(93.8 35.0% 55.2%)"/><path d="M0 900 L0 584.9 L0.0 584.9 L80.0 647.4 L160.0 705.0 L240.0 683.6 L320.0 665.8 L400.0 632.8 L480.0 588.1 L560.0 638.1 L640.0 608.2 L720.0 583.7 L800.0 614.5 L880.0 512.2 L960.0 520.6 L1040.0 541.4 L1120.0 498.0 L1200.0 597.4 L1280.0 645.7 L1360.0 671.6 L1440.0 695.6 L1520.0 672.7 L1600.0 652.6 L1600 900 Z" fill="hsl(109.1 35.0% 44.9%)"/><path d="M0 900 L0 616.9 L0.0 616.9 L114.3 611.3 L228.6 594.6 L342.9 585.5 L457.1 702.0 L571.4 720.5 L685.7 755.2 L800.0 686.8 L914.3 625.9 L1028.6 596.4 L1142.9 596.6 L1257.1 624.6 L1371.4 626.3 L1485.7 661.9 L1600.0 672.7 L1600 900 Z" fill="hsl(130.5 35.0% 30.5%)"/><rect x="0" y="671.7" width="1600" height="175.7" fill="url(#geuc46h-fog4)"/><path d="M0 900 L0 687.8 L0.0 687.8 L100.0 732.2 L200.0 742.4 L300.0 776.9 L400.0 751.9 L500.0 750.8 L600.0 660.9 L700.0 658.7 L800.0 649.3 L900.0 693.4 L1000.0 697.7 L1100.0 720.9 L1200.0 696.3 L1300.0 758.8 L1400.0 750.5 L1500.0 755.0 L1600.0 689.4 L1600 900 Z" fill="hsl(158.0 35.0% 12.0%)"/><rect width="1600" height="900" fill="url(#geuc46h-vig)"/></svg>