<svg xmlns="http://www.w3.org/2000/svg" viewBox="0 0 1600 900" role="img" preserveAspectRatio="xMidYMid slice"><title>phu-quoc-bac-dao-nam-dao hero</title><defs><linearGradient id="g1t5l3ol-sky" x1="0" y1="0" x2="0" y2="1"><stop offset="0%" stop-color="hsl(208.0 60.0% 52.0%)"/><stop offset="50%" stop-color="hsl(196.0 50.0% 66.0%)"/><stop offset="100%" stop-color="hsl(40.0 60.0% 76.0%)"/></linearGradient><radialGradient id="g1t5l3ol-glow"><stop offset="0%" stop-color="hsl(42.0 90.0% 78.0% / 0.850)"/><stop offset="45%" stop-color="hsl(42.0 90.0% 78.0% / 0.250)"/><stop offset="100%" stop-color="hsl(42.0 90.0% 78.0% / 0.000)"/></radialGradient><linearGradient id="g1t5l3ol-water" x1="0" y1="0" x2="0" y2="1"><stop offset="0%" stop-color="hsl(116.5 51.0% 52.6%)"/><stop offset="100%" stop-color="hsl(213.0 41.0% 15.2%)"/></linearGradient><radialGradient id="g1t5l3ol-vig" cx="50%" cy="42%" r="75%"><stop offset="70%" stop-color="hsl(0 0% 0% / 0)"/><stop offset="100%" stop-color="hsl(0 0% 0% / 0.18)"/></radialGradient></defs><rect width="1600" height="496.7" fill="url(#g1t5l3ol-sky)"/><rect y="495.7" width="1600" height="404.3" fill="hsl(167.5 41.3% 34.0%)"/><circle cx="928.9" cy="372.5" r="150" fill="url(#g1t5l3ol-glow)"/><circle cx="928.9" cy="372.5" r="56" fill="hsl(42.0 90.0% 78.0%)"/><path d="M0 900 L0 414.1 Q0.0 414.1 57.1 396.9 Q114.3 379.7 171.4 344.2 Q228.6 308.7 285.7 276.1 Q342.9 243.4 400.0 271.6 Q457.1 299.9 514.3 327.3 Q571.4 354.7 628.6 393.4 Q685.7 432.1 742.9 431.1 Q800.0 430.0 857.1 406.4 Q914.3 382.8 971.4 433.1 Q1028.6 483.4 1085.7 453.5 Q1142.9 423.7 1200.0 421.2 Q1257.1 418.7 1314.3 361.6 Q1371.4 304.4 1428.6 296.8 Q1485.7 289.2 1542.9 281.0 L1600 272.8 L1600 900 Z" fill="hsl(77.4 54.5% 63.7%)"/><path d="M0 900 L0 452.1 Q0.0 452.1 42.1 481.7 Q84.2 511.3 126.3 540.3 Q168.4 569.4 210.5 562.1 Q252.6 554.8 294.7 531.8 Q336.8 508.8 378.9 494.6 Q421.1 480.3 463.2 456.3 Q505.3 432.2 547.4 440.4 Q589.5 448.7 631.6 449.8 Q673.7 450.9 715.8 411.9 Q757.9 372.9 800.0 360.2 Q842.1 347.5 884.2 376.0 Q926.3 404.6 968.4 445.7 Q1010.5 486.8 1052.6 490.4 Q1094.7 494.0 1136.8 499.6 Q1178.9 505.2 1221.1 505.8 Q1263.2 506.4 1305.3 507.5 Q1347.4 508.6 1389.5 522.3 Q1431.6 536.1 1473.7 548.9 Q1515.8 561.6 1557.9 509.8 L1600 457.9 L1600 900 Z" fill="hsl(92.1 52.3% 58.8%)"/><path d="M0 900 L0 551.7 Q0.0 551.7 53.3 557.5 Q106.7 563.4 160.0 567.3 Q213.3 571.1 266.7 557.8 Q320.0 544.5 373.3 578.8 Q426.7 613.1 480.0 615.5 Q533.3 617.9 586.7 622.1 Q640.0 626.4 693.3 621.6 Q746.7 616.9 800.0 586.2 Q853.3 555.6 906.7 540.4 Q960.0 525.2 1013.3 517.5 Q1066.7 509.8 1120.0 525.5 Q1173.3 541.1 1226.7 539.3 Q1280.0 537.5 1333.3 537.9 Q1386.7 538.4 1440.0 545.4 Q1493.3 552.4 1546.7 545.5 L1600 538.6 L1600 900 Z" fill="hsl(136.3 45.8% 44.3%)"/><path d="M0 900 L0 659.4 Q0.0 659.4 42.1 659.4 Q84.2 659.4 126.3 656.1 Q168.4 652.9 210.5 658.7 Q252.6 664.5 294.7 673.4 Q336.8 682.3 378.9 690.5 Q421.1 698.7 463.2 707.0 Q505.3 715.3 547.4 713.0 Q589.5 710.7 631.6 700.3 Q673.7 689.9 715.8 681.9 Q757.9 674.0 800.0 649.9 Q842.1 625.8 884.2 627.1 Q926.3 628.5 968.4 634.8 Q1010.5 641.2 1052.6 643.1 Q1094.7 644.9 1136.8 655.9 Q1178.9 666.9 1221.1 669.5 Q1263.2 672.2 1305.3 670.3 Q1347.4 668.4 1389.5 667.0 Q1431.6 665.5 1473.7 674.9 Q1515.8 684.3 1557.9 688.5 L1600 692.7 L1600 900 Z" fill="hsl(210.0 35.0% 20.0%)"/><rect y="496.7" width="1600" height="403.3" fill="url(#g1t5l3ol-water)"/><g><rect x="792.8" y="517.0" width="49.2" height="3.2" rx="1.6" fill="hsl(42.0 90.0% 78.0% / 0.555)"/><rect x="769.6" y="533.4" width="13.4" height="3.2" rx="1.6" fill="hsl(42.0 90.0% 78.0% / 0.535)"/><rect x="804.4" y="547.3" width="45.2" height="3.2" rx="1.6" fill="hsl(42.0 90.0% 78.0% / 0.517)"/><rect x="794.4" y="557.7" width="54.3" height="3.2" rx="1.6" fill="hsl(42.0 90.0% 78.0% / 0.504)"/><rect x="804.7" y="576.9" width="35.0" height="3.2" rx="1.6" fill="hsl(42.0 90.0% 78.0% / 0.481)"/><rect x="822.6" y="596.1" width="17.4" height="3.2" rx="1.6" fill="hsl(42.0 90.0% 78.0% / 0.457)"/><rect x="742.3" y="605.7" width="46.1" height="3.2" rx="1.6" fill="hsl(42.0 90.0% 78.0% / 0.445)"/><rect x="725.7" y="622.7" width="72.5" height="3.2" rx="1.6" fill="hsl(42.0 90.0% 78.0% / 0.424)"/><rect x="749.6" y="642.8" width="51.0" height="3.2" rx="1.6" fill="hsl(42.0 90.0% 78.0% / 0.399)"/><rect x="779.1" y="656.1" width="68.3" height="3.2" rx="1.6" fill="hsl(42.0 90.0% 78.0% / 0.382)"/><rect x="785.9" y="668.2" width="47.9" height="3.2" rx="1.6" fill="hsl(42.0 90.0% 78.0% / 0.367)"/><rect x="763.6" y="683.9" width="47.2" height="3.2" rx="1.6" fill="hsl(42.0 90.0% 78.0% / 0.348)"/><rect x="751.2" y="698.6" width="18.1" height="3.2" rx="1.6" fill="hsl(42.0 90.0% 78.0% / 0.330)"/><rect x="798.1" y="715.1" width="41.0" height="3.2" rx="1.6" fill="hsl(42.0 90.0% 78.0% / 0.309)"/><rect x="798.8" y="731.0" width="88.2" height="3.2" rx="1.6" fill="hsl(42.0 90.0% 78.0% / 0.289)"/><rect x="823.9" y="749.8" width="79.8" height="3.2" rx="1.6" fill="hsl(42.0 90.0% 78.0% / 0.266)"/><rect x="803.1" y="764.2" width="38.7" height="3.2" rx="1.6" fill="hsl(42.0 90.0% 78.0% / 0.248)"/><rect x="728.4" y="775.1" width="40.2" height="3.2" rx="1.6" fill="hsl(42.0 90.0% 78.0% / 0.235)"/><rect x="780.7" y="792.9" width="35.5" height="3.2" rx="1.6" fill="hsl(42.0 90.0% 78.0% / 0.213)"/><rect x="778.8" y="813.1" width="96.1" height="3.2" rx="1.6" fill="hsl(42.0 90.0% 78.0% / 0.188)"/><rect x="734.2" y="823.1" width="73.9" height="3.2" rx="1.6" fill="hsl(42.0 90.0% 78.0% / 0.175)"/><rect x="740.3" y="839.9" width="48.7" height="3.2" rx="1.6" fill="hsl(42.0 90.0% 78.0% / 0.154)"/><rect x="742.1" y="855.1" width="133.6" height="3.2" rx="1.6" fill="hsl(42.0 90.0% 78.0% / 0.136)"/><rect x="671.7" y="869.4" width="136.5" height="3.2" rx="1.6" fill="hsl(42.0 90.0% 78.0% / 0.118)"/></g><rect width="1600" height="900" fill="url(#g1t5l3ol-vig)"/></svg>