<svg xmlns="http://www.w3.org/2000/svg" viewBox="0 0 1600 900" role="img" preserveAspectRatio="xMidYMid slice"><title>phu-quoc-bac-dao-nam-dao s1</title><defs><linearGradient id="g11zj0dx-sky" x1="0" y1="0" x2="0" y2="1"><stop offset="0%" stop-color="hsl(208.0 60.0% 52.0%)"/><stop offset="50%" stop-color="hsl(196.0 50.0% 66.0%)"/><stop offset="100%" stop-color="hsl(40.0 60.0% 76.0%)"/></linearGradient><radialGradient id="g11zj0dx-glow"><stop offset="0%" stop-color="hsl(42.0 90.0% 78.0% / 0.850)"/><stop offset="45%" stop-color="hsl(42.0 90.0% 78.0% / 0.250)"/><stop offset="100%" stop-color="hsl(42.0 90.0% 78.0% / 0.000)"/></radialGradient><linearGradient id="g11zj0dx-water" x1="0" y1="0" x2="0" y2="1"><stop offset="0%" stop-color="hsl(116.5 51.0% 52.6%)"/><stop offset="100%" stop-color="hsl(213.0 41.0% 15.2%)"/></linearGradient><radialGradient id="g11zj0dx-vig" cx="50%" cy="42%" r="75%"><stop offset="70%" stop-color="hsl(0 0% 0% / 0)"/><stop offset="100%" stop-color="hsl(0 0% 0% / 0.18)"/></radialGradient></defs><rect width="1600" height="471.2" fill="url(#g11zj0dx-sky)"/><rect y="470.2" width="1600" height="429.8" fill="hsl(167.5 41.3% 34.0%)"/><circle cx="488.0" cy="353.4" r="150" fill="url(#g11zj0dx-glow)"/><circle cx="488.0" cy="353.4" r="56" fill="hsl(42.0 90.0% 78.0%)"/><path d="M0 900 L0 361.0 Q0.0 361.0 53.3 415.6 Q106.7 470.2 160.0 462.4 Q213.3 454.6 266.7 449.4 Q320.0 444.1 373.3 402.4 Q426.7 360.8 480.0 392.6 Q533.3 424.4 586.7 400.9 Q640.0 377.4 693.3 343.7 Q746.7 310.1 800.0 279.8 Q853.3 249.5 906.7 232.3 Q960.0 215.1 1013.3 284.1 Q1066.7 353.1 1120.0 343.5 Q1173.3 334.0 1226.7 369.5 Q1280.0 405.0 1333.3 385.3 Q1386.7 365.5 1440.0 390.6 Q1493.3 415.8 1546.7 410.3 L1600 404.9 L1600 900 Z" fill="hsl(77.4 54.5% 63.7%)"/><path d="M0 900 L0 537.0 Q0.0 537.0 44.4 519.9 Q88.9 502.7 133.3 478.1 Q177.8 453.6 222.2 452.0 Q266.7 450.5 311.1 422.4 Q355.6 394.4 400.0 419.1 Q444.4 443.9 488.9 458.5 Q533.3 473.2 577.8 466.5 Q622.2 459.9 666.7 462.8 Q711.1 465.8 755.6 461.4 Q800.0 457.0 844.4 477.6 Q888.9 498.2 933.3 506.5 Q977.8 514.8 1022.2 534.1 Q1066.7 553.4 1111.1 549.7 Q1155.6 546.1 1200.0 535.8 Q1244.4 525.6 1288.9 516.2 Q1333.3 506.7 1377.8 482.0 Q1422.2 457.2 1466.7 473.7 Q1511.1 490.1 1555.6 490.1 L1600 490.1 L1600 900 Z" fill="hsl(92.1 52.3% 58.8%)"/><path d="M0 900 L0 576.6 Q0.0 576.6 57.1 569.2 Q114.3 561.7 171.4 586.2 Q228.6 610.6 285.7 611.8 Q342.9 613.0 400.0 597.7 Q457.1 582.4 514.3 564.1 Q571.4 545.8 628.6 539.1 Q685.7 532.4 742.9 548.1 Q800.0 563.8 857.1 527.7 Q914.3 491.6 971.4 476.5 Q1028.6 461.5 1085.7 500.1 Q1142.9 538.8 1200.0 544.7 Q1257.1 550.6 1314.3 559.5 Q1371.4 568.5 1428.6 564.5 Q1485.7 560.6 1542.9 586.4 L1600 612.3 L1600 900 Z" fill="hsl(136.3 45.8% 44.3%)"/><path d="M0 900 L0 696.4 Q0.0 696.4 47.1 686.7 Q94.1 677.0 141.2 649.1 Q188.2 621.1 235.3 619.4 Q282.4 617.8 329.4 628.6 Q376.5 639.4 423.5 642.3 Q470.6 645.1 517.6 647.1 Q564.7 649.1 611.8 649.8 Q658.8 650.6 705.9 644.0 Q752.9 637.4 800.0 650.6 Q847.1 663.8 894.1 678.4 Q941.2 693.0 988.2 696.0 Q1035.3 698.9 1082.4 692.3 Q1129.4 685.7 1176.5 677.2 Q1223.5 668.6 1270.6 672.8 Q1317.6 677.0 1364.7 679.9 Q1411.8 682.9 1458.8 672.6 Q1505.9 662.4 1552.9 656.3 L1600 650.3 L1600 900 Z" fill="hsl(210.0 35.0% 20.0%)"/><rect y="471.2" width="1600" height="428.8" fill="url(#g11zj0dx-water)"/><g><rect x="791.5" y="489.5" width="30.7" height="3.2" rx="1.6" fill="hsl(42.0 90.0% 78.0% / 0.559)"/><rect x="758.1" y="510.8" width="33.0" height="3.2" rx="1.6" fill="hsl(42.0 90.0% 78.0% / 0.534)"/><rect x="784.4" y="538.7" width="28.5" height="3.2" rx="1.6" fill="hsl(42.0 90.0% 78.0% / 0.501)"/><rect x="803.8" y="557.1" width="13.3" height="3.2" rx="1.6" fill="hsl(42.0 90.0% 78.0% / 0.480)"/><rect x="738.5" y="582.8" width="45.7" height="3.2" rx="1.6" fill="hsl(42.0 90.0% 78.0% / 0.450)"/><rect x="731.7" y="606.7" width="59.2" height="3.2" rx="1.6" fill="hsl(42.0 90.0% 78.0% / 0.422)"/><rect x="766.5" y="627.2" width="49.4" height="3.2" rx="1.6" fill="hsl(42.0 90.0% 78.0% / 0.398)"/><rect x="757.9" y="652.1" width="35.9" height="3.2" rx="1.6" fill="hsl(42.0 90.0% 78.0% / 0.369)"/><rect x="831.4" y="673.9" width="18.2" height="3.2" rx="1.6" fill="hsl(42.0 90.0% 78.0% / 0.344)"/><rect x="801.6" y="702.8" width="46.7" height="3.2" rx="1.6" fill="hsl(42.0 90.0% 78.0% / 0.310)"/><rect x="782.5" y="726.0" width="79.0" height="3.2" rx="1.6" fill="hsl(42.0 90.0% 78.0% / 0.283)"/><rect x="772.7" y="745.3" width="63.1" height="3.2" rx="1.6" fill="hsl(42.0 90.0% 78.0% / 0.260)"/><rect x="759.8" y="773.5" width="61.0" height="3.2" rx="1.6" fill="hsl(42.0 90.0% 78.0% / 0.227)"/><rect x="764.9" y="791.0" width="92.7" height="3.2" rx="1.6" fill="hsl(42.0 90.0% 78.0% / 0.207)"/><rect x="841.4" y="814.7" width="47.3" height="3.2" rx="1.6" fill="hsl(42.0 90.0% 78.0% / 0.179)"/><rect x="750.5" y="840.1" width="106.9" height="3.2" rx="1.6" fill="hsl(42.0 90.0% 78.0% / 0.150)"/><rect x="848.0" y="866.7" width="50.1" height="3.2" rx="1.6" fill="hsl(42.0 90.0% 78.0% / 0.119)"/></g><rect width="1600" height="900" fill="url(#g11zj0dx-vig)"/></svg>