<svg xmlns="http://www.w3.org/2000/svg" viewBox="0 0 1600 900" role="img" preserveAspectRatio="xMidYMid slice"><title>phu-quoc-bac-dao-nam-dao s2</title><defs><linearGradient id="g945qzc-sky" x1="0" y1="0" x2="0" y2="1"><stop offset="0%" stop-color="hsl(265.0 38.0% 26.0%)"/><stop offset="50%" stop-color="hsl(348.0 55.0% 46.0%)"/><stop offset="100%" stop-color="hsl(22.0 90.0% 58.0%)"/></linearGradient><radialGradient id="g945qzc-glow"><stop offset="0%" stop-color="hsl(24.0 95.0% 66.0% / 0.850)"/><stop offset="45%" stop-color="hsl(24.0 95.0% 66.0% / 0.250)"/><stop offset="100%" stop-color="hsl(24.0 95.0% 66.0% / 0.000)"/></radialGradient><radialGradient id="g945qzc-vig" cx="50%" cy="42%" r="75%"><stop offset="70%" stop-color="hsl(0 0% 0% / 0)"/><stop offset="100%" stop-color="hsl(0 0% 0% / 0.18)"/></radialGradient></defs><rect width="1600" height="581.0" fill="url(#g945qzc-sky)"/><rect y="580.0" width="1600" height="320.0" fill="hsl(305.5 43.5% 25.0%)"/><circle cx="406.9" cy="511.2" r="230" fill="url(#g945qzc-glow)"/><circle cx="406.9" cy="511.2" r="78" fill="hsl(24.0 95.0% 66.0%)"/><path d="M0 900 L0 373.6 Q0.0 373.6 57.1 401.8 Q114.3 430.0 171.4 413.2 Q228.6 396.3 285.7 363.2 Q342.9 330.2 400.0 372.4 Q457.1 414.5 514.3 429.6 Q571.4 444.6 628.6 504.9 Q685.7 565.2 742.9 528.3 Q800.0 491.5 857.1 482.0 Q914.3 472.6 971.4 476.8 Q1028.6 481.1 1085.7 478.1 Q1142.9 475.1 1200.0 461.9 Q1257.1 448.7 1314.3 381.5 Q1371.4 314.3 1428.6 336.6 Q1485.7 359.0 1542.9 376.5 L1600 394.1 L1600 900 Z" fill="hsl(359.6 76.4% 48.3%)"/><path d="M0 900 L0 386.9 Q0.0 386.9 38.1 397.9 Q76.2 408.8 114.3 469.8 Q152.4 530.9 190.5 576.7 Q228.6 622.6 266.7 606.3 Q304.8 590.1 342.9 546.6 Q381.0 503.0 419.0 492.0 Q457.1 480.9 495.2 496.9 Q533.3 513.0 571.4 495.1 Q609.5 477.3 647.6 445.0 Q685.7 412.6 723.8 432.3 Q761.9 452.0 800.0 438.5 Q838.1 425.0 876.2 393.2 Q914.3 361.3 952.4 374.5 Q990.5 387.6 1028.6 423.7 Q1066.7 459.8 1104.8 496.5 Q1142.9 533.2 1181.0 557.6 Q1219.0 582.1 1257.1 578.8 Q1295.2 575.6 1333.3 576.8 Q1371.4 578.1 1409.5 530.9 Q1447.6 483.8 1485.7 453.9 Q1523.8 423.9 1561.9 440.8 L1600 457.7 L1600 900 Z" fill="hsl(354.6 73.3% 46.2%)"/><path d="M0 900 L0 587.6 Q0.0 587.6 38.1 612.5 Q76.2 637.4 114.3 663.4 Q152.4 689.5 190.5 670.8 Q228.6 652.2 266.7 624.7 Q304.8 597.2 342.9 594.1 Q381.0 591.0 419.0 559.5 Q457.1 528.0 495.2 520.0 Q533.3 511.9 571.4 511.7 Q609.5 511.4 647.6 547.1 Q685.7 582.8 723.8 594.4 Q761.9 606.0 800.0 606.4 Q838.1 606.8 876.2 610.2 Q914.3 613.5 952.4 617.0 Q990.5 620.4 1028.6 616.0 Q1066.7 611.5 1104.8 599.1 Q1142.9 586.7 1181.0 595.9 Q1219.0 605.0 1257.1 607.3 Q1295.2 609.6 1333.3 606.3 Q1371.4 603.0 1409.5 576.7 Q1447.6 550.4 1485.7 525.8 Q1523.8 501.3 1561.9 520.3 L1600 539.3 L1600 900 Z" fill="hsl(339.7 64.3% 39.7%)"/><path d="M0 900 L0 664.4 Q0.0 664.4 44.4 679.5 Q88.9 694.7 133.3 683.7 Q177.8 672.8 222.2 641.4 Q266.7 609.9 311.1 612.9 Q355.6 616.0 400.0 605.1 Q444.4 594.3 488.9 585.4 Q533.3 576.6 577.8 600.4 Q622.2 624.2 666.7 639.7 Q711.1 655.1 755.6 642.6 Q800.0 630.2 844.4 628.8 Q888.9 627.5 933.3 651.5 Q977.8 675.6 1022.2 679.7 Q1066.7 683.9 1111.1 689.8 Q1155.6 695.8 1200.0 705.2 Q1244.4 714.7 1288.9 678.1 Q1333.3 641.6 1377.8 619.8 Q1422.2 598.1 1466.7 602.2 Q1511.1 606.2 1555.6 609.5 L1600 612.8 L1600 900 Z" fill="hsl(314.8 49.2% 29.0%)"/><path d="M0 900 L0 649.4 Q0.0 649.4 47.1 653.0 Q94.1 656.5 141.2 662.5 Q188.2 668.5 235.3 666.2 Q282.4 663.9 329.4 679.3 Q376.5 694.8 423.5 702.9 Q470.6 710.9 517.6 705.2 Q564.7 699.4 611.8 703.5 Q658.8 707.7 705.9 711.5 Q752.9 715.3 800.0 705.9 Q847.1 696.5 894.1 696.8 Q941.2 697.1 988.2 685.1 Q1035.3 673.2 1082.4 647.8 Q1129.4 622.5 1176.5 641.3 Q1223.5 660.1 1270.6 667.1 Q1317.6 674.0 1364.7 681.2 Q1411.8 688.5 1458.8 714.8 Q1505.9 741.1 1552.9 737.5 L1600 733.8 L1600 900 Z" fill="hsl(280.0 28.0% 14.0%)"/><path d="M588.2 900 C630.0 742.4799922564998 887.4 655.0 893.4 585.0 L895.4 585.0 C903.4 655.0 1142.0 742.4799922564998 1100.2 900 Z" fill="hsl(280.0 15.4% 21.0%)"/><path d="M844.2 900 C886.0 742.4799922564998 893.4 645.0 894.4 585.0" fill="none" stroke="hsl(45 30% 92% / 0.8)" stroke-width="7" stroke-dasharray="46 38" stroke-linecap="round"/><rect width="1600" height="900" fill="url(#g945qzc-vig)"/></svg>