<svg xmlns="http://www.w3.org/2000/svg" viewBox="0 0 1600 900" role="img" preserveAspectRatio="xMidYMid slice"><title>cung-duong-da-nang-kham-duc-deo-lo-xo hero</title><defs><linearGradient id="g12zq6it-sky" x1="0" y1="0" x2="0" y2="1"><stop offset="0%" stop-color="hsl(170.0 30.0% 52.0%)"/><stop offset="50%" stop-color="hsl(150.0 25.0% 68.0%)"/><stop offset="100%" stop-color="hsl(60.0 35.0% 78.0%)"/></linearGradient><radialGradient id="g12zq6it-glow"><stop offset="0%" stop-color="hsl(52.0 70.0% 84.0% / 0.850)"/><stop offset="45%" stop-color="hsl(52.0 70.0% 84.0% / 0.250)"/><stop offset="100%" stop-color="hsl(52.0 70.0% 84.0% / 0.000)"/></radialGradient><linearGradient id="g12zq6it-fog0" x1="0" y1="0" x2="0" y2="1"><stop offset="0%" stop-color="hsl(40 20% 96% / 0)"/><stop offset="55%" stop-color="hsl(40 20% 96% / 0.38)"/><stop offset="100%" stop-color="hsl(40 20% 96% / 0)"/></linearGradient><linearGradient id="g12zq6it-fog2" x1="0" y1="0" x2="0" y2="1"><stop offset="0%" stop-color="hsl(40 20% 96% / 0)"/><stop offset="55%" stop-color="hsl(40 20% 96% / 0.36)"/><stop offset="100%" stop-color="hsl(40 20% 96% / 0)"/></linearGradient><linearGradient id="g12zq6it-fog3" x1="0" y1="0" x2="0" y2="1"><stop offset="0%" stop-color="hsl(40 20% 96% / 0)"/><stop offset="55%" stop-color="hsl(40 20% 96% / 0.19)"/><stop offset="100%" stop-color="hsl(40 20% 96% / 0)"/></linearGradient><linearGradient id="g12zq6it-fog5" x1="0" y1="0" x2="0" y2="1"><stop offset="0%" stop-color="hsl(40 20% 96% / 0)"/><stop offset="55%" stop-color="hsl(40 20% 96% / 0.24)"/><stop offset="100%" stop-color="hsl(40 20% 96% / 0)"/></linearGradient><radialGradient id="g12zq6it-vig" cx="50%" cy="42%" r="75%"><stop offset="70%" stop-color="hsl(0 0% 0% / 0)"/><stop offset="100%" stop-color="hsl(0 0% 0% / 0.18)"/></radialGradient></defs><rect width="1600" height="561.7" fill="url(#g12zq6it-sky)"/><rect y="560.7" width="1600" height="339.3" fill="hsl(133.5 35.0% 28.5%)"/><circle cx="760.5" cy="308.9" r="100" fill="url(#g12zq6it-glow)"/><circle cx="760.5" cy="308.9" r="42" fill="hsl(52.0 70.0% 84.0%)"/><path d="M0 900 L0 431.5 L0.0 431.5 L80.0 477.7 L160.0 491.7 L240.0 487.7 L320.0 539.1 L400.0 567.0 L480.0 512.3 L560.0 511.6 L640.0 393.7 L720.0 362.6 L800.0 321.7 L880.0 405.4 L960.0 424.6 L1040.0 516.3 L1120.0 570.2 L1200.0 543.0 L1280.0 494.8 L1360.0 482.5 L1440.0 447.6 L1520.0 355.2 L1600.0 426.3 L1600 900 Z" fill="hsl(81.6 35.0% 63.5%)"/><rect x="0" y="480.5" width="1600" height="228.4" fill="url(#g12zq6it-fog0)"/><path d="M0 900 L0 394.5 L0.0 394.5 L100.0 512.7 L200.0 553.0 L300.0 610.5 L400.0 572.7 L500.0 485.7 L600.0 421.2 L700.0 321.5 L800.0 355.9 L900.0 441.7 L1000.0 413.7 L1100.0 542.1 L1200.0 493.4 L1300.0 520.4 L1400.0 568.6 L1500.0 534.8 L1600.0 518.0 L1600 900 Z" fill="hsl(83.1 35.0% 62.4%)"/><path d="M0 900 L0 517.6 L0.0 517.6 L114.3 466.2 L228.6 440.7 L342.9 445.8 L457.1 551.0 L571.4 604.2 L685.7 603.3 L800.0 579.9 L914.3 504.3 L1028.6 519.3 L1142.9 440.8 L1257.1 465.6 L1371.4 470.5 L1485.7 467.0 L1600.0 479.7 L1600 900 Z" fill="hsl(87.8 35.0% 59.3%)"/><rect x="0" y="547.0" width="1600" height="187.4" fill="url(#g12zq6it-fog2)"/><path d="M0 900 L0 619.2 L0.0 619.2 L94.1 619.1 L188.2 544.4 L282.4 431.7 L376.5 418.9 L470.6 416.6 L564.7 481.7 L658.8 499.3 L752.9 525.0 L847.1 606.7 L941.2 558.3 L1035.3 584.7 L1129.4 583.7 L1223.5 631.3 L1317.6 608.7 L1411.8 470.8 L1505.9 445.8 L1600.0 439.5 L1600 900 Z" fill="hsl(95.6 35.0% 54.0%)"/><rect x="0" y="554.4" width="1600" height="225.2" fill="url(#g12zq6it-fog3)"/><path d="M0 900 L0 571.2 L0.0 571.2 L114.3 570.1 L228.6 625.6 L342.9 644.5 L457.1 669.3 L571.4 632.2 L685.7 534.1 L800.0 539.6 L914.3 551.3 L1028.6 539.4 L1142.9 565.7 L1257.1 564.0 L1371.4 612.6 L1485.7 665.2 L1600.0 673.6 L1600 900 Z" fill="hsl(106.5 35.0% 46.7%)"/><path d="M0 900 L0 574.1 L0.0 574.1 L80.0 562.7 L160.0 575.9 L240.0 564.3 L320.0 630.0 L400.0 693.5 L480.0 699.4 L560.0 699.4 L640.0 656.1 L720.0 597.6 L800.0 597.0 L880.0 574.7 L960.0 603.0 L1040.0 578.5 L1120.0 566.1 L1200.0 596.8 L1280.0 607.6 L1360.0 650.8 L1440.0 681.8 L1520.0 677.0 L1600.0 648.1 L1600 900 Z" fill="hsl(120.6 35.0% 37.2%)"/><rect x="0" y="639.9" width="1600" height="141.5" fill="url(#g12zq6it-fog5)"/><path d="M0 900 L0 691.0 L0.0 691.0 L94.1 718.7 L188.2 705.0 L282.4 644.7 L376.5 590.0 L470.6 636.2 L564.7 613.0 L658.8 591.2 L752.9 604.0 L847.1 623.1 L941.2 680.6 L1035.3 706.3 L1129.4 664.3 L1223.5 640.1 L1317.6 662.7 L1411.8 622.2 L1505.9 571.4 L1600.0 564.0 L1600 900 Z" fill="hsl(137.7 35.0% 25.7%)"/><path d="M0 900 L0 738.9 L0.0 738.9 L80.0 698.6 L160.0 653.7 L240.0 640.2 L320.0 674.5 L400.0 653.6 L480.0 647.3 L560.0 633.6 L640.0 633.4 L720.0 681.5 L800.0 730.2 L880.0 715.9 L960.0 698.2 L1040.0 697.2 L1120.0 673.6 L1200.0 674.4 L1280.0 676.4 L1360.0 625.4 L1440.0 626.6 L1520.0 612.7 L1600.0 641.4 L1600 900 Z" fill="hsl(158.0 35.0% 12.0%)"/><rect width="1600" height="900" fill="url(#g12zq6it-vig)"/></svg>