<svg xmlns="http://www.w3.org/2000/svg" viewBox="0 0 1600 900" role="img" preserveAspectRatio="xMidYMid slice"><title>cung-duong-da-nang-kham-duc-deo-lo-xo s2</title><defs><linearGradient id="g1opd5dk-sky" x1="0" y1="0" x2="0" y2="1"><stop offset="0%" stop-color="hsl(210.0 14.0% 74.0%)"/><stop offset="50%" stop-color="hsl(210.0 12.0% 82.0%)"/><stop offset="100%" stop-color="hsl(36.0 18.0% 86.0%)"/></linearGradient><radialGradient id="g1opd5dk-glow"><stop offset="0%" stop-color="hsl(40.0 30.0% 92.0% / 0.850)"/><stop offset="45%" stop-color="hsl(40.0 30.0% 92.0% / 0.250)"/><stop offset="100%" stop-color="hsl(40.0 30.0% 92.0% / 0.000)"/></radialGradient><linearGradient id="g1opd5dk-fog0" x1="0" y1="0" x2="0" y2="1"><stop offset="0%" stop-color="hsl(40 20% 96% / 0)"/><stop offset="55%" stop-color="hsl(40 20% 96% / 0.19)"/><stop offset="100%" stop-color="hsl(40 20% 96% / 0)"/></linearGradient><linearGradient id="g1opd5dk-fog1" x1="0" y1="0" x2="0" y2="1"><stop offset="0%" stop-color="hsl(40 20% 96% / 0)"/><stop offset="55%" stop-color="hsl(40 20% 96% / 0.20)"/><stop offset="100%" stop-color="hsl(40 20% 96% / 0)"/></linearGradient><linearGradient id="g1opd5dk-fog2" x1="0" y1="0" x2="0" y2="1"><stop offset="0%" stop-color="hsl(40 20% 96% / 0)"/><stop offset="55%" stop-color="hsl(40 20% 96% / 0.37)"/><stop offset="100%" stop-color="hsl(40 20% 96% / 0)"/></linearGradient><linearGradient id="g1opd5dk-fog3" x1="0" y1="0" x2="0" y2="1"><stop offset="0%" stop-color="hsl(40 20% 96% / 0)"/><stop offset="55%" stop-color="hsl(40 20% 96% / 0.20)"/><stop offset="100%" stop-color="hsl(40 20% 96% / 0)"/></linearGradient><linearGradient id="g1opd5dk-fog4" x1="0" y1="0" x2="0" y2="1"><stop offset="0%" stop-color="hsl(40 20% 96% / 0)"/><stop offset="55%" stop-color="hsl(40 20% 96% / 0.26)"/><stop offset="100%" stop-color="hsl(40 20% 96% / 0)"/></linearGradient><linearGradient id="g1opd5dk-fog5" x1="0" y1="0" x2="0" y2="1"><stop offset="0%" stop-color="hsl(40 20% 96% / 0)"/><stop offset="55%" stop-color="hsl(40 20% 96% / 0.19)"/><stop offset="100%" stop-color="hsl(40 20% 96% / 0)"/></linearGradient><radialGradient id="g1opd5dk-vig" cx="50%" cy="42%" r="75%"><stop offset="70%" stop-color="hsl(0 0% 0% / 0)"/><stop offset="100%" stop-color="hsl(0 0% 0% / 0.18)"/></radialGradient></defs><rect width="1600" height="575.3" fill="url(#g1opd5dk-sky)"/><rect y="574.3" width="1600" height="325.7" fill="hsl(168.0 16.5% 44.0%)"/><circle cx="675.1" cy="258.9" r="90" fill="url(#g1opd5dk-glow)"/><circle cx="675.1" cy="258.9" r="46" fill="hsl(40.0 30.0% 92.0%)"/><path d="M0 900 L0 334.6 Q0.0 334.6 42.1 285.3 Q84.2 236.1 126.3 279.7 Q168.4 323.3 210.5 383.3 Q252.6 443.3 294.7 453.2 Q336.8 463.2 378.9 496.5 Q421.1 529.9 463.2 527.5 Q505.3 525.2 547.4 486.6 Q589.5 448.1 631.6 444.3 Q673.7 440.6 715.8 429.7 Q757.9 418.8 800.0 417.2 Q842.1 415.7 884.2 403.1 Q926.3 390.5 968.4 346.4 Q1010.5 302.3 1052.6 300.2 Q1094.7 298.2 1136.8 292.0 Q1178.9 285.9 1221.1 307.6 Q1263.2 329.3 1305.3 404.3 Q1347.4 479.4 1389.5 509.7 Q1431.6 540.0 1473.7 517.2 Q1515.8 494.4 1557.9 505.9 L1600 517.3 L1600 900 Z" fill="hsl(74.7 17.6% 73.7%)"/><rect x="0" y="449.4" width="1600" height="327.3" fill="url(#g1opd5dk-fog0)"/><path d="M0 900 L0 339.1 Q0.0 339.1 57.1 358.2 Q114.3 377.2 171.4 405.9 Q228.6 434.6 285.7 479.2 Q342.9 523.7 400.0 521.7 Q457.1 519.7 514.3 495.4 Q571.4 471.2 628.6 496.0 Q685.7 520.9 742.9 497.5 Q800.0 474.1 857.1 438.0 Q914.3 401.9 971.4 356.7 Q1028.6 311.6 1085.7 376.9 Q1142.9 442.1 1200.0 478.0 Q1257.1 513.9 1314.3 504.8 Q1371.4 495.8 1428.6 525.3 Q1485.7 554.8 1542.9 531.1 L1600 507.4 L1600 900 Z" fill="hsl(78.5 17.5% 72.5%)"/><rect x="0" y="495.2" width="1600" height="285.0" fill="url(#g1opd5dk-fog1)"/><path d="M0 900 L0 588.5 Q0.0 588.5 50.0 584.5 Q100.0 580.5 150.0 576.9 Q200.0 573.3 250.0 576.1 Q300.0 578.8 350.0 588.3 Q400.0 597.9 450.0 579.0 Q500.0 560.1 550.0 544.0 Q600.0 527.8 650.0 493.7 Q700.0 459.5 750.0 455.0 Q800.0 450.4 850.0 454.6 Q900.0 458.8 950.0 491.6 Q1000.0 524.4 1050.0 522.0 Q1100.0 519.7 1150.0 518.0 Q1200.0 516.2 1250.0 531.7 Q1300.0 547.2 1350.0 544.6 Q1400.0 542.0 1450.0 590.3 Q1500.0 638.5 1550.0 632.8 L1600 627.0 L1600 900 Z" fill="hsl(90.0 17.4% 68.8%)"/><rect x="0" y="557.5" width="1600" height="205.8" fill="url(#g1opd5dk-fog2)"/><path d="M0 900 L0 602.3 Q0.0 602.3 50.0 602.1 Q100.0 602.0 150.0 625.3 Q200.0 648.7 250.0 633.2 Q300.0 617.7 350.0 595.7 Q400.0 573.6 450.0 549.9 Q500.0 526.2 550.0 507.8 Q600.0 489.4 650.0 519.5 Q700.0 549.6 750.0 566.1 Q800.0 582.7 850.0 589.9 Q900.0 597.1 950.0 581.4 Q1000.0 565.7 1050.0 589.9 Q1100.0 614.1 1150.0 621.3 Q1200.0 628.5 1250.0 640.0 Q1300.0 651.4 1350.0 605.3 Q1400.0 559.2 1450.0 543.2 Q1500.0 527.3 1550.0 512.1 L1600 497.0 L1600 900 Z" fill="hsl(109.0 17.2% 62.8%)"/><rect x="0" y="597.5" width="1600" height="176.6" fill="url(#g1opd5dk-fog3)"/><path d="M0 900 L0 650.7 Q0.0 650.7 50.0 643.9 Q100.0 637.1 150.0 621.1 Q200.0 605.1 250.0 562.0 Q300.0 518.8 350.0 534.5 Q400.0 550.1 450.0 569.9 Q500.0 589.7 550.0 618.1 Q600.0 646.4 650.0 646.1 Q700.0 645.7 750.0 647.7 Q800.0 649.8 850.0 646.6 Q900.0 643.4 950.0 631.7 Q1000.0 619.9 1050.0 636.4 Q1100.0 652.9 1150.0 613.7 Q1200.0 574.5 1250.0 562.7 Q1300.0 551.0 1350.0 544.8 Q1400.0 538.6 1450.0 566.4 Q1500.0 594.1 1550.0 616.4 L1600 638.7 L1600 900 Z" fill="hsl(135.7 16.9% 54.3%)"/><rect x="0" y="630.0" width="1600" height="164.3" fill="url(#g1opd5dk-fog4)"/><path d="M0 900 L0 680.0 Q0.0 680.0 38.1 681.7 Q76.2 683.5 114.3 682.6 Q152.4 681.6 190.5 683.8 Q228.6 685.9 266.7 682.7 Q304.8 679.6 342.9 665.2 Q381.0 650.7 419.0 634.0 Q457.1 617.3 495.2 606.6 Q533.3 596.0 571.4 605.0 Q609.5 614.1 647.6 631.3 Q685.7 648.5 723.8 648.7 Q761.9 648.8 800.0 654.6 Q838.1 660.4 876.2 659.4 Q914.3 658.5 952.4 662.9 Q990.5 667.4 1028.6 663.2 Q1066.7 658.9 1104.8 669.1 Q1142.9 679.3 1181.0 702.2 Q1219.0 725.2 1257.1 727.6 Q1295.2 729.9 1333.3 714.2 Q1371.4 698.4 1409.5 686.3 Q1447.6 674.1 1485.7 676.2 Q1523.8 678.2 1561.9 672.6 L1600 666.9 L1600 900 Z" fill="hsl(170.1 16.5% 43.3%)"/><rect x="0" y="677.6" width="1600" height="118.0" fill="url(#g1opd5dk-fog5)"/><path d="M0 900 L0 681.7 Q0.0 681.7 42.1 677.8 Q84.2 674.0 126.3 674.9 Q168.4 675.7 210.5 674.3 Q252.6 672.8 294.7 671.8 Q336.8 670.8 378.9 689.3 Q421.1 707.8 463.2 717.7 Q505.3 727.5 547.4 734.7 Q589.5 741.8 631.6 745.9 Q673.7 750.1 715.8 729.8 Q757.9 709.5 800.0 699.2 Q842.1 689.0 884.2 694.1 Q926.3 699.1 968.4 692.7 Q1010.5 686.3 1052.6 687.9 Q1094.7 689.5 1136.8 684.1 Q1178.9 678.7 1221.1 661.2 Q1263.2 643.7 1305.3 654.8 Q1347.4 665.9 1389.5 689.4 Q1431.6 712.8 1473.7 714.6 Q1515.8 716.4 1557.9 729.6 L1600 742.8 L1600 900 Z" fill="hsl(212.0 16.0% 30.0%)"/><rect width="1600" height="900" fill="url(#g1opd5dk-vig)"/></svg>