<svg xmlns="http://www.w3.org/2000/svg" viewBox="0 0 1600 900" role="img" preserveAspectRatio="xMidYMid slice"><title>cung-duong-da-nang-kham-duc-deo-lo-xo s1</title><defs><linearGradient id="gj8fp79-sky" x1="0" y1="0" x2="0" y2="1"><stop offset="0%" stop-color="hsl(170.0 30.0% 52.0%)"/><stop offset="50%" stop-color="hsl(150.0 25.0% 68.0%)"/><stop offset="100%" stop-color="hsl(60.0 35.0% 78.0%)"/></linearGradient><radialGradient id="gj8fp79-glow"><stop offset="0%" stop-color="hsl(52.0 70.0% 84.0% / 0.850)"/><stop offset="45%" stop-color="hsl(52.0 70.0% 84.0% / 0.250)"/><stop offset="100%" stop-color="hsl(52.0 70.0% 84.0% / 0.000)"/></radialGradient><linearGradient id="gj8fp79-fog1" x1="0" y1="0" x2="0" y2="1"><stop offset="0%" stop-color="hsl(40 20% 96% / 0)"/><stop offset="55%" stop-color="hsl(40 20% 96% / 0.35)"/><stop offset="100%" stop-color="hsl(40 20% 96% / 0)"/></linearGradient><linearGradient id="gj8fp79-fog3" x1="0" y1="0" x2="0" y2="1"><stop offset="0%" stop-color="hsl(40 20% 96% / 0)"/><stop offset="55%" stop-color="hsl(40 20% 96% / 0.33)"/><stop offset="100%" stop-color="hsl(40 20% 96% / 0)"/></linearGradient><linearGradient id="gj8fp79-fog4" x1="0" y1="0" x2="0" y2="1"><stop offset="0%" stop-color="hsl(40 20% 96% / 0)"/><stop offset="55%" stop-color="hsl(40 20% 96% / 0.29)"/><stop offset="100%" stop-color="hsl(40 20% 96% / 0)"/></linearGradient><radialGradient id="gj8fp79-vig" cx="50%" cy="42%" r="75%"><stop offset="70%" stop-color="hsl(0 0% 0% / 0)"/><stop offset="100%" stop-color="hsl(0 0% 0% / 0.18)"/></radialGradient></defs><rect width="1600" height="597.8" fill="url(#gj8fp79-sky)"/><rect y="596.8" width="1600" height="303.2" fill="hsl(133.5 35.0% 28.5%)"/><circle cx="995.2" cy="328.8" r="100" fill="url(#gj8fp79-glow)"/><circle cx="995.2" cy="328.8" r="42" fill="hsl(52.0 70.0% 84.0%)"/><path d="M0 900 L0 429.3 Q0.0 429.3 44.4 432.1 Q88.9 434.9 133.3 434.9 Q177.8 434.9 222.2 427.6 Q266.7 420.2 311.1 455.3 Q355.6 490.3 400.0 552.7 Q444.4 615.1 488.9 606.6 Q533.3 598.1 577.8 564.5 Q622.2 530.8 666.7 512.9 Q711.1 495.0 755.6 460.0 Q800.0 425.0 844.4 410.2 Q888.9 395.3 933.3 426.6 Q977.8 457.9 1022.2 473.9 Q1066.7 489.9 1111.1 460.7 Q1155.6 431.6 1200.0 408.8 Q1244.4 385.9 1288.9 417.2 Q1333.3 448.5 1377.8 492.7 Q1422.2 536.9 1466.7 546.0 Q1511.1 555.1 1555.6 581.3 L1600 607.5 L1600 900 Z" fill="hsl(81.6 35.0% 63.5%)"/><path d="M0 900 L0 619.7 Q0.0 619.7 53.3 588.6 Q106.7 557.4 160.0 545.6 Q213.3 533.7 266.7 493.2 Q320.0 452.7 373.3 405.1 Q426.7 357.5 480.0 375.0 Q533.3 392.4 586.7 434.3 Q640.0 476.2 693.3 497.9 Q746.7 519.6 800.0 568.8 Q853.3 618.0 906.7 604.4 Q960.0 590.8 1013.3 554.4 Q1066.7 517.9 1120.0 504.1 Q1173.3 490.2 1226.7 483.4 Q1280.0 476.7 1333.3 469.9 Q1386.7 463.1 1440.0 467.4 Q1493.3 471.6 1546.7 464.5 L1600 457.4 L1600 900 Z" fill="hsl(83.1 35.0% 62.4%)"/><rect x="0" y="531.4" width="1600" height="238.9" fill="url(#gj8fp79-fog1)"/><path d="M0 900 L0 510.4 Q0.0 510.4 38.1 544.4 Q76.2 578.4 114.3 613.9 Q152.4 649.4 190.5 630.9 Q228.6 612.3 266.7 606.5 Q304.8 600.6 342.9 550.4 Q381.0 500.2 419.0 467.2 Q457.1 434.1 495.2 432.8 Q533.3 431.4 571.4 434.0 Q609.5 436.6 647.6 443.1 Q685.7 449.7 723.8 458.6 Q761.9 467.5 800.0 463.9 Q838.1 460.4 876.2 439.0 Q914.3 417.7 952.4 421.5 Q990.5 425.4 1028.6 432.3 Q1066.7 439.2 1104.8 464.6 Q1142.9 489.9 1181.0 531.5 Q1219.0 573.1 1257.1 580.1 Q1295.2 587.1 1333.3 624.5 Q1371.4 661.9 1409.5 627.4 Q1447.6 593.0 1485.7 564.6 Q1523.8 536.3 1561.9 541.1 L1600 545.9 L1600 900 Z" fill="hsl(87.8 35.0% 59.3%)"/><path d="M0 900 L0 617.4 Q0.0 617.4 40.0 561.8 Q80.0 506.3 120.0 474.4 Q160.0 442.6 200.0 445.0 Q240.0 447.3 280.0 456.0 Q320.0 464.8 360.0 507.9 Q400.0 551.0 440.0 504.7 Q480.0 458.3 520.0 461.6 Q560.0 464.9 600.0 475.1 Q640.0 485.3 680.0 521.3 Q720.0 557.3 760.0 622.4 Q800.0 687.6 840.0 660.4 Q880.0 633.3 920.0 629.4 Q960.0 625.5 1000.0 603.2 Q1040.0 580.9 1080.0 549.9 Q1120.0 519.0 1160.0 525.6 Q1200.0 532.3 1240.0 520.8 Q1280.0 509.2 1320.0 505.1 Q1360.0 500.9 1400.0 468.6 Q1440.0 436.3 1480.0 427.6 Q1520.0 418.8 1560.0 453.6 L1600 488.4 L1600 900 Z" fill="hsl(95.6 35.0% 54.0%)"/><rect x="0" y="566.2" width="1600" height="257.7" fill="url(#gj8fp79-fog3)"/><path d="M0 900 L0 588.4 Q0.0 588.4 40.0 566.6 Q80.0 544.9 120.0 525.9 Q160.0 507.0 200.0 518.1 Q240.0 529.3 280.0 539.3 Q320.0 549.4 360.0 557.3 Q400.0 565.2 440.0 565.8 Q480.0 566.3 520.0 562.4 Q560.0 558.6 600.0 558.0 Q640.0 557.5 680.0 558.1 Q720.0 558.8 760.0 549.3 Q800.0 539.9 840.0 576.8 Q880.0 613.8 920.0 629.7 Q960.0 645.5 1000.0 646.8 Q1040.0 648.1 1080.0 670.4 Q1120.0 692.6 1160.0 671.4 Q1200.0 650.2 1240.0 629.2 Q1280.0 608.2 1320.0 618.3 Q1360.0 628.4 1400.0 577.9 Q1440.0 527.4 1480.0 529.6 Q1520.0 531.8 1560.0 536.1 L1600 540.3 L1600 900 Z" fill="hsl(106.5 35.0% 46.7%)"/><rect x="0" y="612.4" width="1600" height="202.2" fill="url(#gj8fp79-fog4)"/><path d="M0 900 L0 654.6 Q0.0 654.6 38.1 628.3 Q76.2 602.1 114.3 617.8 Q152.4 633.5 190.5 635.6 Q228.6 637.8 266.7 602.9 Q304.8 568.0 342.9 582.0 Q381.0 596.0 419.0 596.4 Q457.1 596.9 495.2 601.0 Q533.3 605.2 571.4 641.4 Q609.5 677.6 647.6 692.3 Q685.7 707.1 723.8 705.6 Q761.9 704.0 800.0 692.1 Q838.1 680.1 876.2 658.4 Q914.3 636.6 952.4 603.6 Q990.5 570.7 1028.6 571.9 Q1066.7 573.1 1104.8 567.6 Q1142.9 562.1 1181.0 581.9 Q1219.0 601.7 1257.1 622.9 Q1295.2 644.0 1333.3 635.2 Q1371.4 626.4 1409.5 635.0 Q1447.6 643.7 1485.7 648.7 Q1523.8 653.8 1561.9 653.6 L1600 653.4 L1600 900 Z" fill="hsl(120.6 35.0% 37.2%)"/><path d="M0 900 L0 718.8 Q0.0 718.8 47.1 684.6 Q94.1 650.3 141.2 645.5 Q188.2 640.7 235.3 637.0 Q282.4 633.3 329.4 621.0 Q376.5 608.7 423.5 620.2 Q470.6 631.8 517.6 629.9 Q564.7 628.0 611.8 620.3 Q658.8 612.6 705.9 616.7 Q752.9 620.8 800.0 644.4 Q847.1 668.0 894.1 675.0 Q941.2 681.9 988.2 712.2 Q1035.3 742.5 1082.4 715.0 Q1129.4 687.5 1176.5 688.5 Q1223.5 689.6 1270.6 702.0 Q1317.6 714.4 1364.7 709.2 Q1411.8 704.0 1458.8 691.0 Q1505.9 678.0 1552.9 679.9 L1600 681.9 L1600 900 Z" fill="hsl(137.7 35.0% 25.7%)"/><path d="M0 900 L0 665.9 Q0.0 665.9 40.0 653.8 Q80.0 641.7 120.0 648.5 Q160.0 655.2 200.0 670.1 Q240.0 685.1 280.0 704.5 Q320.0 723.9 360.0 721.1 Q400.0 718.4 440.0 729.8 Q480.0 741.3 520.0 736.0 Q560.0 730.8 600.0 719.7 Q640.0 708.6 680.0 705.4 Q720.0 702.2 760.0 710.5 Q800.0 718.8 840.0 723.7 Q880.0 728.6 920.0 728.0 Q960.0 727.3 1000.0 699.0 Q1040.0 670.7 1080.0 663.8 Q1120.0 656.9 1160.0 655.0 Q1200.0 653.1 1240.0 645.0 Q1280.0 637.0 1320.0 650.6 Q1360.0 664.1 1400.0 670.7 Q1440.0 677.3 1480.0 690.4 Q1520.0 703.5 1560.0 684.9 L1600 666.4 L1600 900 Z" fill="hsl(158.0 35.0% 12.0%)"/><rect width="1600" height="900" fill="url(#gj8fp79-vig)"/></svg>