<svg xmlns="http://www.w3.org/2000/svg" viewBox="0 0 1600 900" role="img" preserveAspectRatio="xMidYMid slice"><title>mau-son-lang-son-mua-dong hero</title><defs><linearGradient id="g130bovy-sky" x1="0" y1="0" x2="0" y2="1"><stop offset="0%" stop-color="hsl(232.0 45.0% 8.0%)"/><stop offset="50%" stop-color="hsl(228.0 40.0% 14.0%)"/><stop offset="100%" stop-color="hsl(222.0 35.0% 22.0%)"/></linearGradient><radialGradient id="g130bovy-glow"><stop offset="0%" stop-color="hsl(48.0 35.0% 88.0% / 0.850)"/><stop offset="45%" stop-color="hsl(48.0 35.0% 88.0% / 0.250)"/><stop offset="100%" stop-color="hsl(48.0 35.0% 88.0% / 0.000)"/></radialGradient><radialGradient id="g130bovy-vig" cx="50%" cy="42%" r="75%"><stop offset="70%" stop-color="hsl(0 0% 0% / 0)"/><stop offset="100%" stop-color="hsl(0 0% 0% / 0.18)"/></radialGradient></defs><rect width="1600" height="599.1" fill="url(#g130bovy-sky)"/><rect y="598.1" width="1600" height="301.9" fill="hsl(226.5 31.3% 12.3%)"/><g><circle cx="1229.2" cy="107.7" r="0.66" fill="hsl(50 30% 92% / 0.69)"/><circle cx="514.2" cy="220.6" r="1.01" fill="hsl(50 30% 92% / 0.48)"/><circle cx="123.4" cy="403.6" r="1.11" fill="hsl(50 30% 92% / 0.46)"/><circle cx="51.0" cy="103.9" r="1.70" fill="hsl(50 30% 92% / 0.93)"/><circle cx="1371.9" cy="509.6" r="0.83" fill="hsl(50 30% 92% / 0.75)"/><circle cx="642.4" cy="228.2" r="1.03" fill="hsl(50 30% 92% / 0.69)"/><circle cx="459.6" cy="21.8" r="0.76" fill="hsl(50 30% 92% / 0.71)"/><circle cx="477.1" cy="114.1" r="2.10" fill="hsl(50 30% 92% / 0.86)"/><circle cx="1331.3" cy="227.4" r="2.57" fill="hsl(50 30% 92% / 0.65)"/><circle cx="1095.3" cy="50.7" r="0.62" fill="hsl(50 30% 92% / 0.41)"/><circle cx="1170.6" cy="248.0" r="0.70" fill="hsl(50 30% 92% / 0.62)"/><circle cx="1015.3" cy="14.0" r="0.66" fill="hsl(50 30% 92% / 0.83)"/><circle cx="200.6" cy="266.7" r="1.26" fill="hsl(50 30% 92% / 0.91)"/><circle cx="408.6" cy="332.5" r="1.12" fill="hsl(50 30% 92% / 0.57)"/><circle cx="397.9" cy="63.8" r="1.29" fill="hsl(50 30% 92% / 0.41)"/><circle cx="1345.0" cy="488.9" r="0.89" fill="hsl(50 30% 92% / 0.95)"/><circle cx="658.5" cy="504.8" r="0.95" fill="hsl(50 30% 92% / 0.45)"/><circle cx="1181.9" cy="220.2" r="0.68" fill="hsl(50 30% 92% / 0.91)"/><circle cx="1061.1" cy="156.6" r="0.84" fill="hsl(50 30% 92% / 0.60)"/><circle cx="863.4" cy="347.1" r="1.11" fill="hsl(50 30% 92% / 0.88)"/><circle cx="365.3" cy="122.8" r="1.09" fill="hsl(50 30% 92% / 0.70)"/><circle cx="517.8" cy="0.4" r="1.23" fill="hsl(50 30% 92% / 0.80)"/><circle cx="1413.3" cy="478.4" r="2.24" fill="hsl(50 30% 92% / 0.69)"/><circle cx="1459.5" cy="319.8" r="1.22" fill="hsl(50 30% 92% / 0.39)"/><circle cx="1505.5" cy="371.4" r="0.83" fill="hsl(50 30% 92% / 0.67)"/><circle cx="1079.4" cy="162.5" r="1.07" fill="hsl(50 30% 92% / 0.38)"/><circle cx="292.4" cy="416.0" r="2.21" fill="hsl(50 30% 92% / 0.66)"/><circle cx="1135.4" cy="328.6" r="0.78" fill="hsl(50 30% 92% / 0.88)"/><circle cx="1551.6" cy="498.6" r="0.82" fill="hsl(50 30% 92% / 0.45)"/><circle cx="1276.4" cy="522.3" r="0.85" fill="hsl(50 30% 92% / 0.72)"/><circle cx="394.0" cy="155.4" r="1.14" fill="hsl(50 30% 92% / 0.55)"/><circle cx="1129.5" cy="83.7" r="2.33" fill="hsl(50 30% 92% / 0.85)"/><circle cx="1522.8" cy="90.7" r="0.69" fill="hsl(50 30% 92% / 0.41)"/><circle cx="1508.7" cy="306.6" r="0.75" fill="hsl(50 30% 92% / 0.78)"/><circle cx="1094.2" cy="367.0" r="0.76" fill="hsl(50 30% 92% / 0.94)"/><circle cx="683.7" cy="43.2" r="0.96" fill="hsl(50 30% 92% / 0.76)"/><circle cx="742.6" cy="91.5" r="0.81" fill="hsl(50 30% 92% / 0.44)"/><circle cx="697.5" cy="272.7" r="0.90" fill="hsl(50 30% 92% / 0.85)"/><circle cx="312.9" cy="107.4" r="1.12" fill="hsl(50 30% 92% / 0.68)"/><circle cx="512.4" cy="312.8" r="1.09" fill="hsl(50 30% 92% / 0.89)"/><circle cx="1213.8" cy="48.0" r="0.89" fill="hsl(50 30% 92% / 0.73)"/><circle cx="951.0" cy="322.0" r="0.85" fill="hsl(50 30% 92% / 0.66)"/><circle cx="1221.5" cy="532.1" r="2.42" fill="hsl(50 30% 92% / 0.72)"/><circle cx="659.4" cy="340.2" r="0.88" fill="hsl(50 30% 92% / 0.85)"/><circle cx="222.4" cy="288.7" r="2.09" fill="hsl(50 30% 92% / 0.69)"/><circle cx="50.1" cy="75.9" r="0.83" fill="hsl(50 30% 92% / 0.62)"/><circle cx="847.6" cy="102.8" r="0.69" fill="hsl(50 30% 92% / 0.83)"/><circle cx="828.4" cy="369.8" r="0.96" fill="hsl(50 30% 92% / 0.64)"/><circle cx="1538.0" cy="44.5" r="0.93" fill="hsl(50 30% 92% / 0.84)"/><circle cx="760.4" cy="21.6" r="0.66" fill="hsl(50 30% 92% / 0.68)"/><circle cx="565.2" cy="510.4" r="0.78" fill="hsl(50 30% 92% / 0.61)"/><circle cx="148.6" cy="386.3" r="2.19" fill="hsl(50 30% 92% / 0.87)"/><circle cx="451.2" cy="401.1" r="0.84" fill="hsl(50 30% 92% / 0.64)"/><circle cx="463.9" cy="41.0" r="2.29" fill="hsl(50 30% 92% / 0.68)"/><circle cx="674.0" cy="186.6" r="1.28" fill="hsl(50 30% 92% / 0.46)"/><circle cx="772.5" cy="399.0" r="1.17" fill="hsl(50 30% 92% / 0.52)"/><circle cx="791.7" cy="501.3" r="0.68" fill="hsl(50 30% 92% / 0.90)"/><circle cx="1577.6" cy="331.8" r="1.02" fill="hsl(50 30% 92% / 0.43)"/><circle cx="1377.1" cy="210.9" r="1.06" fill="hsl(50 30% 92% / 0.90)"/><circle cx="806.0" cy="212.7" r="0.67" fill="hsl(50 30% 92% / 0.84)"/><circle cx="1560.8" cy="504.7" r="0.91" fill="hsl(50 30% 92% / 0.85)"/><circle cx="2.7" cy="548.3" r="1.28" fill="hsl(50 30% 92% / 0.42)"/><circle cx="680.1" cy="551.1" r="1.98" fill="hsl(50 30% 92% / 0.75)"/><circle cx="1504.9" cy="251.3" r="1.01" fill="hsl(50 30% 92% / 0.80)"/><circle cx="90.2" cy="403.4" r="1.13" fill="hsl(50 30% 92% / 0.40)"/><circle cx="308.2" cy="198.8" r="0.71" fill="hsl(50 30% 92% / 0.57)"/><circle cx="238.5" cy="279.9" r="1.02" fill="hsl(50 30% 92% / 0.61)"/><circle cx="306.1" cy="76.3" r="2.01" fill="hsl(50 30% 92% / 0.91)"/><circle cx="681.8" cy="74.9" r="1.03" fill="hsl(50 30% 92% / 0.48)"/><circle cx="1392.8" cy="236.9" r="0.74" fill="hsl(50 30% 92% / 0.77)"/><circle cx="63.4" cy="345.8" r="0.90" fill="hsl(50 30% 92% / 0.41)"/><circle cx="1553.7" cy="266.2" r="0.80" fill="hsl(50 30% 92% / 0.40)"/><circle cx="894.6" cy="457.1" r="0.78" fill="hsl(50 30% 92% / 0.53)"/><circle cx="308.7" cy="38.3" r="0.97" fill="hsl(50 30% 92% / 0.38)"/><circle cx="1455.7" cy="419.2" r="0.91" fill="hsl(50 30% 92% / 0.61)"/><circle cx="1584.5" cy="497.4" r="1.01" fill="hsl(50 30% 92% / 0.87)"/><circle cx="722.7" cy="240.5" r="0.93" fill="hsl(50 30% 92% / 0.61)"/><circle cx="236.7" cy="327.3" r="0.64" fill="hsl(50 30% 92% / 0.57)"/><circle cx="742.7" cy="527.2" r="1.11" fill="hsl(50 30% 92% / 0.62)"/><circle cx="1563.8" cy="73.7" r="2.43" fill="hsl(50 30% 92% / 0.69)"/><circle cx="1292.5" cy="288.0" r="1.19" fill="hsl(50 30% 92% / 0.74)"/><circle cx="692.6" cy="502.6" r="1.29" fill="hsl(50 30% 92% / 0.89)"/><circle cx="116.7" cy="328.8" r="1.22" fill="hsl(50 30% 92% / 0.90)"/><circle cx="909.2" cy="233.1" r="0.78" fill="hsl(50 30% 92% / 0.77)"/><circle cx="101.7" cy="430.2" r="0.85" fill="hsl(50 30% 92% / 0.58)"/><circle cx="105.0" cy="160.4" r="0.85" fill="hsl(50 30% 92% / 0.61)"/><circle cx="74.1" cy="51.9" r="0.78" fill="hsl(50 30% 92% / 0.89)"/><circle cx="566.0" cy="138.4" r="0.66" fill="hsl(50 30% 92% / 0.48)"/><circle cx="1240.2" cy="197.3" r="1.25" fill="hsl(50 30% 92% / 0.85)"/><circle cx="744.2" cy="233.2" r="1.74" fill="hsl(50 30% 92% / 0.44)"/><circle cx="973.3" cy="159.7" r="1.04" fill="hsl(50 30% 92% / 0.62)"/><circle cx="601.4" cy="443.7" r="0.77" fill="hsl(50 30% 92% / 0.50)"/><circle cx="932.2" cy="342.2" r="1.20" fill="hsl(50 30% 92% / 0.39)"/><circle cx="1385.5" cy="220.6" r="1.28" fill="hsl(50 30% 92% / 0.53)"/><circle cx="1328.4" cy="324.5" r="1.24" fill="hsl(50 30% 92% / 0.50)"/><circle cx="660.4" cy="254.6" r="0.89" fill="hsl(50 30% 92% / 0.51)"/><circle cx="520.6" cy="492.1" r="1.25" fill="hsl(50 30% 92% / 0.61)"/><circle cx="212.6" cy="497.6" r="1.01" fill="hsl(50 30% 92% / 0.39)"/><circle cx="1500.3" cy="421.0" r="0.68" fill="hsl(50 30% 92% / 0.93)"/><circle cx="245.9" cy="450.8" r="0.70" fill="hsl(50 30% 92% / 0.39)"/><circle cx="838.2" cy="178.1" r="0.68" fill="hsl(50 30% 92% / 0.44)"/><circle cx="754.8" cy="519.2" r="0.77" fill="hsl(50 30% 92% / 0.57)"/><circle cx="303.7" cy="338.3" r="0.83" fill="hsl(50 30% 92% / 0.73)"/><circle cx="1343.1" cy="544.3" r="0.82" fill="hsl(50 30% 92% / 0.67)"/><circle cx="80.0" cy="217.8" r="1.13" fill="hsl(50 30% 92% / 0.75)"/><circle cx="580.6" cy="30.7" r="1.10" fill="hsl(50 30% 92% / 0.51)"/><circle cx="545.9" cy="344.6" r="0.84" fill="hsl(50 30% 92% / 0.89)"/><circle cx="1159.1" cy="38.0" r="2.13" fill="hsl(50 30% 92% / 0.44)"/><circle cx="352.2" cy="92.7" r="0.95" fill="hsl(50 30% 92% / 0.81)"/></g><circle cx="901.8" cy="167.8" r="110" fill="url(#g130bovy-glow)"/><circle cx="901.8" cy="167.8" r="36" fill="hsl(48.0 35.0% 88.0%)"/><path d="M0 900 L0 334.7 Q0.0 334.7 44.4 343.9 Q88.9 353.0 133.3 371.3 Q177.8 389.6 222.2 467.7 Q266.7 545.7 311.1 580.2 Q355.6 614.6 400.0 592.5 Q444.4 570.3 488.9 515.4 Q533.3 460.6 577.8 442.9 Q622.2 425.2 666.7 416.3 Q711.1 407.3 755.6 389.1 Q800.0 370.8 844.4 384.1 Q888.9 397.3 933.3 406.0 Q977.8 414.7 1022.2 382.6 Q1066.7 350.6 1111.1 369.4 Q1155.6 388.2 1200.0 442.1 Q1244.4 495.9 1288.9 541.5 Q1333.3 587.1 1377.8 568.9 Q1422.2 550.7 1466.7 547.9 Q1511.1 545.2 1555.6 491.5 L1600 437.8 L1600 900 Z" fill="hsl(223.3 33.9% 19.1%)"/><path d="M0 900 L0 443.0 Q0.0 443.0 38.1 470.7 Q76.2 498.5 114.3 512.0 Q152.4 525.5 190.5 546.5 Q228.6 567.5 266.7 597.4 Q304.8 627.3 342.9 616.6 Q381.0 605.9 419.0 587.7 Q457.1 569.5 495.2 537.4 Q533.3 505.2 571.4 501.9 Q609.5 498.7 647.6 478.1 Q685.7 457.6 723.8 454.5 Q761.9 451.4 800.0 469.4 Q838.1 487.5 876.2 514.1 Q914.3 540.6 952.4 548.4 Q990.5 556.2 1028.6 533.2 Q1066.7 510.3 1104.8 517.4 Q1142.9 524.6 1181.0 558.3 Q1219.0 592.0 1257.1 589.7 Q1295.2 587.4 1333.3 566.4 Q1371.4 545.4 1409.5 560.0 Q1447.6 574.5 1485.7 574.6 Q1523.8 574.8 1561.9 544.0 L1600 513.1 L1600 900 Z" fill="hsl(223.5 33.7% 18.7%)"/><path d="M0 900 L0 604.3 Q0.0 604.3 57.1 564.4 Q114.3 524.6 171.4 529.3 Q228.6 534.1 285.7 531.1 Q342.9 528.1 400.0 544.4 Q457.1 560.8 514.3 563.7 Q571.4 566.6 628.6 576.6 Q685.7 586.6 742.9 599.0 Q800.0 611.3 857.1 609.8 Q914.3 608.2 971.4 626.4 Q1028.6 644.7 1085.7 601.5 Q1142.9 558.3 1200.0 530.3 Q1257.1 502.3 1314.3 489.5 Q1371.4 476.7 1428.6 511.9 Q1485.7 547.0 1542.9 573.0 L1600 599.1 L1600 900 Z" fill="hsl(224.1 33.3% 17.5%)"/><path d="M0 900 L0 596.7 Q0.0 596.7 50.0 586.4 Q100.0 576.1 150.0 585.1 Q200.0 594.1 250.0 598.9 Q300.0 603.7 350.0 605.6 Q400.0 607.4 450.0 636.7 Q500.0 666.1 550.0 681.0 Q600.0 695.9 650.0 680.8 Q700.0 665.7 750.0 645.5 Q800.0 625.2 850.0 598.5 Q900.0 571.9 950.0 551.6 Q1000.0 531.3 1050.0 548.2 Q1100.0 565.0 1150.0 596.5 Q1200.0 628.1 1250.0 637.2 Q1300.0 646.3 1350.0 652.8 Q1400.0 659.3 1450.0 663.1 Q1500.0 666.8 1550.0 653.3 L1600 639.8 L1600 900 Z" fill="hsl(225.0 32.5% 15.5%)"/><path d="M0 900 L0 666.0 Q0.0 666.0 53.3 662.2 Q106.7 658.5 160.0 637.4 Q213.3 616.3 266.7 616.5 Q320.0 616.8 373.3 628.5 Q426.7 640.3 480.0 649.3 Q533.3 658.2 586.7 656.8 Q640.0 655.5 693.3 656.1 Q746.7 656.7 800.0 674.7 Q853.3 692.7 906.7 708.9 Q960.0 725.1 1013.3 711.5 Q1066.7 697.9 1120.0 688.3 Q1173.3 678.7 1226.7 670.5 Q1280.0 662.2 1333.3 666.0 Q1386.7 669.8 1440.0 655.1 Q1493.3 640.5 1546.7 621.8 L1600 603.1 L1600 900 Z" fill="hsl(226.3 31.4% 12.7%)"/><path d="M0 900 L0 723.5 Q0.0 723.5 38.1 717.9 Q76.2 712.3 114.3 722.6 Q152.4 732.9 190.5 731.3 Q228.6 729.8 266.7 737.2 Q304.8 744.5 342.9 749.2 Q381.0 753.8 419.0 730.7 Q457.1 707.7 495.2 693.9 Q533.3 680.2 571.4 675.4 Q609.5 670.5 647.6 669.8 Q685.7 669.1 723.8 672.3 Q761.9 675.5 800.0 679.4 Q838.1 683.4 876.2 682.3 Q914.3 681.3 952.4 671.2 Q990.5 661.0 1028.6 675.3 Q1066.7 689.6 1104.8 700.6 Q1142.9 711.6 1181.0 716.1 Q1219.0 720.7 1257.1 734.9 Q1295.2 749.1 1333.3 756.1 Q1371.4 763.1 1409.5 744.2 Q1447.6 725.2 1485.7 719.4 Q1523.8 713.7 1561.9 719.3 L1600 724.8 L1600 900 Z" fill="hsl(228.0 30.0% 9.0%)"/><path d="M267.9 900 C336.2 751.5680552301928 631.1 673.1 637.1 603.1 L639.1 603.1 C647.1 673.1 848.2 751.5680552301928 779.9 900 Z" fill="hsl(228.0 22.0% 13.0%)"/><path d="M523.9 900 C592.2 751.5680552301928 637.1 663.1 638.1 603.1" fill="none" stroke="hsl(45 90% 70% / 0.85)" stroke-width="7" stroke-dasharray="46 38" stroke-linecap="round"/><rect width="1600" height="900" fill="url(#g130bovy-vig)"/></svg>