<svg xmlns="http://www.w3.org/2000/svg" viewBox="0 0 1600 900" role="img" preserveAspectRatio="xMidYMid slice"><title>mau-son-lang-son-mua-dong s1</title><defs><linearGradient id="gv4tkii-sky" x1="0" y1="0" x2="0" y2="1"><stop offset="0%" stop-color="hsl(232.0 45.0% 8.0%)"/><stop offset="50%" stop-color="hsl(228.0 40.0% 14.0%)"/><stop offset="100%" stop-color="hsl(222.0 35.0% 22.0%)"/></linearGradient><radialGradient id="gv4tkii-glow"><stop offset="0%" stop-color="hsl(48.0 35.0% 88.0% / 0.850)"/><stop offset="45%" stop-color="hsl(48.0 35.0% 88.0% / 0.250)"/><stop offset="100%" stop-color="hsl(48.0 35.0% 88.0% / 0.000)"/></radialGradient><radialGradient id="gv4tkii-vig" cx="50%" cy="42%" r="75%"><stop offset="70%" stop-color="hsl(0 0% 0% / 0)"/><stop offset="100%" stop-color="hsl(0 0% 0% / 0.18)"/></radialGradient></defs><rect width="1600" height="555.0" fill="url(#gv4tkii-sky)"/><rect y="554.0" width="1600" height="346.0" fill="hsl(226.5 31.3% 12.3%)"/><g><circle cx="704.8" cy="87.3" r="1.11" fill="hsl(50 30% 92% / 0.84)"/><circle cx="1364.9" cy="124.2" r="1.04" fill="hsl(50 30% 92% / 0.49)"/><circle cx="1204.3" cy="280.5" r="0.95" fill="hsl(50 30% 92% / 0.69)"/><circle cx="980.7" cy="278.9" r="1.22" fill="hsl(50 30% 92% / 0.78)"/><circle cx="921.6" cy="417.9" r="1.29" fill="hsl(50 30% 92% / 0.46)"/><circle cx="300.5" cy="155.8" r="2.09" fill="hsl(50 30% 92% / 0.56)"/><circle cx="1068.6" cy="53.6" r="2.25" fill="hsl(50 30% 92% / 0.35)"/><circle cx="1045.3" cy="66.8" r="0.79" fill="hsl(50 30% 92% / 0.85)"/><circle cx="518.9" cy="224.5" r="0.65" fill="hsl(50 30% 92% / 0.89)"/><circle cx="1104.2" cy="138.9" r="0.83" fill="hsl(50 30% 92% / 0.42)"/><circle cx="515.9" cy="376.9" r="1.06" fill="hsl(50 30% 92% / 0.36)"/><circle cx="50.7" cy="487.1" r="1.82" fill="hsl(50 30% 92% / 0.50)"/><circle cx="1213.8" cy="201.1" r="1.07" fill="hsl(50 30% 92% / 0.76)"/><circle cx="56.9" cy="269.3" r="1.10" fill="hsl(50 30% 92% / 0.37)"/><circle cx="213.9" cy="126.7" r="1.02" fill="hsl(50 30% 92% / 0.89)"/><circle cx="1530.3" cy="160.6" r="0.91" fill="hsl(50 30% 92% / 0.44)"/><circle cx="1486.8" cy="265.4" r="1.18" fill="hsl(50 30% 92% / 0.79)"/><circle cx="1085.6" cy="91.7" r="0.95" fill="hsl(50 30% 92% / 0.65)"/><circle cx="241.8" cy="305.9" r="0.82" fill="hsl(50 30% 92% / 0.41)"/><circle cx="910.4" cy="207.8" r="1.01" fill="hsl(50 30% 92% / 0.89)"/><circle cx="1117.3" cy="170.4" r="0.83" fill="hsl(50 30% 92% / 0.88)"/><circle cx="1105.1" cy="249.1" r="0.98" fill="hsl(50 30% 92% / 0.59)"/><circle cx="921.3" cy="165.3" r="2.54" fill="hsl(50 30% 92% / 0.39)"/><circle cx="216.1" cy="489.6" r="2.05" fill="hsl(50 30% 92% / 0.94)"/><circle cx="269.4" cy="475.0" r="0.60" fill="hsl(50 30% 92% / 0.85)"/><circle cx="281.9" cy="24.3" r="0.65" fill="hsl(50 30% 92% / 0.45)"/><circle cx="60.1" cy="19.8" r="2.42" fill="hsl(50 30% 92% / 0.72)"/><circle cx="361.1" cy="170.2" r="0.77" fill="hsl(50 30% 92% / 0.43)"/><circle cx="1160.4" cy="487.5" r="0.82" fill="hsl(50 30% 92% / 0.63)"/><circle cx="1235.5" cy="499.8" r="0.66" fill="hsl(50 30% 92% / 0.71)"/><circle cx="116.0" cy="452.8" r="0.80" fill="hsl(50 30% 92% / 0.84)"/><circle cx="212.5" cy="338.2" r="1.11" fill="hsl(50 30% 92% / 0.78)"/><circle cx="706.9" cy="279.5" r="1.74" fill="hsl(50 30% 92% / 0.92)"/><circle cx="183.9" cy="453.1" r="1.26" fill="hsl(50 30% 92% / 0.72)"/><circle cx="1208.4" cy="348.5" r="1.19" fill="hsl(50 30% 92% / 0.58)"/><circle cx="1296.8" cy="242.2" r="1.29" fill="hsl(50 30% 92% / 0.68)"/><circle cx="345.9" cy="121.2" r="0.99" fill="hsl(50 30% 92% / 0.94)"/><circle cx="594.3" cy="293.8" r="2.34" fill="hsl(50 30% 92% / 0.74)"/><circle cx="229.8" cy="335.5" r="0.80" fill="hsl(50 30% 92% / 0.82)"/><circle cx="1371.1" cy="380.0" r="0.68" fill="hsl(50 30% 92% / 0.64)"/><circle cx="1469.4" cy="204.0" r="0.84" fill="hsl(50 30% 92% / 0.60)"/><circle cx="1480.6" cy="427.1" r="1.07" fill="hsl(50 30% 92% / 0.49)"/><circle cx="419.8" cy="509.5" r="1.91" fill="hsl(50 30% 92% / 0.76)"/><circle cx="969.7" cy="322.2" r="1.22" fill="hsl(50 30% 92% / 0.38)"/><circle cx="122.6" cy="153.0" r="1.02" fill="hsl(50 30% 92% / 0.65)"/><circle cx="1048.6" cy="300.6" r="0.90" fill="hsl(50 30% 92% / 0.57)"/><circle cx="622.2" cy="301.3" r="1.13" fill="hsl(50 30% 92% / 0.36)"/><circle cx="1438.3" cy="246.2" r="1.14" fill="hsl(50 30% 92% / 0.79)"/><circle cx="665.0" cy="508.4" r="0.96" fill="hsl(50 30% 92% / 0.60)"/><circle cx="719.1" cy="327.1" r="1.11" fill="hsl(50 30% 92% / 0.79)"/><circle cx="1383.8" cy="94.9" r="1.25" fill="hsl(50 30% 92% / 0.48)"/><circle cx="1240.2" cy="461.4" r="1.17" fill="hsl(50 30% 92% / 0.91)"/><circle cx="339.2" cy="4.8" r="0.84" fill="hsl(50 30% 92% / 0.46)"/><circle cx="331.9" cy="183.8" r="1.00" fill="hsl(50 30% 92% / 0.56)"/><circle cx="162.2" cy="248.5" r="1.10" fill="hsl(50 30% 92% / 0.85)"/><circle cx="1569.8" cy="173.8" r="1.63" fill="hsl(50 30% 92% / 0.68)"/><circle cx="90.5" cy="252.7" r="1.26" fill="hsl(50 30% 92% / 0.75)"/><circle cx="178.3" cy="440.3" r="0.63" fill="hsl(50 30% 92% / 0.64)"/><circle cx="332.4" cy="322.4" r="2.03" fill="hsl(50 30% 92% / 0.52)"/><circle cx="438.0" cy="482.4" r="1.15" fill="hsl(50 30% 92% / 0.59)"/><circle cx="572.9" cy="27.0" r="1.12" fill="hsl(50 30% 92% / 0.40)"/><circle cx="895.8" cy="455.1" r="0.97" fill="hsl(50 30% 92% / 0.36)"/><circle cx="91.6" cy="229.2" r="1.28" fill="hsl(50 30% 92% / 0.64)"/><circle cx="586.0" cy="428.1" r="1.21" fill="hsl(50 30% 92% / 0.47)"/><circle cx="1373.8" cy="262.4" r="1.00" fill="hsl(50 30% 92% / 0.90)"/><circle cx="1029.4" cy="308.4" r="0.95" fill="hsl(50 30% 92% / 0.74)"/><circle cx="1591.1" cy="500.5" r="0.62" fill="hsl(50 30% 92% / 0.82)"/><circle cx="912.4" cy="12.5" r="1.17" fill="hsl(50 30% 92% / 0.48)"/><circle cx="1060.3" cy="215.5" r="0.92" fill="hsl(50 30% 92% / 0.44)"/><circle cx="548.5" cy="159.3" r="1.00" fill="hsl(50 30% 92% / 0.55)"/><circle cx="1578.7" cy="0.7" r="0.72" fill="hsl(50 30% 92% / 0.50)"/><circle cx="1183.2" cy="312.7" r="1.09" fill="hsl(50 30% 92% / 0.66)"/><circle cx="979.5" cy="189.6" r="0.77" fill="hsl(50 30% 92% / 0.48)"/><circle cx="1462.6" cy="364.8" r="1.03" fill="hsl(50 30% 92% / 0.38)"/><circle cx="1093.1" cy="405.2" r="1.07" fill="hsl(50 30% 92% / 0.85)"/><circle cx="16.1" cy="487.0" r="0.90" fill="hsl(50 30% 92% / 0.75)"/><circle cx="768.2" cy="229.6" r="0.65" fill="hsl(50 30% 92% / 0.77)"/><circle cx="1404.0" cy="252.6" r="0.77" fill="hsl(50 30% 92% / 0.60)"/><circle cx="939.3" cy="503.0" r="0.74" fill="hsl(50 30% 92% / 0.80)"/><circle cx="855.8" cy="302.3" r="0.70" fill="hsl(50 30% 92% / 0.75)"/><circle cx="1417.4" cy="71.1" r="1.69" fill="hsl(50 30% 92% / 0.51)"/><circle cx="50.1" cy="492.5" r="1.04" fill="hsl(50 30% 92% / 0.64)"/><circle cx="1090.1" cy="320.4" r="0.65" fill="hsl(50 30% 92% / 0.49)"/><circle cx="1243.3" cy="252.8" r="0.98" fill="hsl(50 30% 92% / 0.95)"/><circle cx="1362.1" cy="286.9" r="1.26" fill="hsl(50 30% 92% / 0.54)"/><circle cx="1594.4" cy="212.9" r="0.71" fill="hsl(50 30% 92% / 0.73)"/><circle cx="24.3" cy="69.0" r="1.11" fill="hsl(50 30% 92% / 0.63)"/><circle cx="973.1" cy="7.6" r="0.61" fill="hsl(50 30% 92% / 0.40)"/><circle cx="262.1" cy="90.7" r="2.48" fill="hsl(50 30% 92% / 0.52)"/><circle cx="216.4" cy="90.3" r="0.95" fill="hsl(50 30% 92% / 0.69)"/><circle cx="266.1" cy="263.9" r="1.12" fill="hsl(50 30% 92% / 0.87)"/><circle cx="1339.3" cy="29.9" r="0.69" fill="hsl(50 30% 92% / 0.84)"/><circle cx="344.6" cy="234.5" r="0.90" fill="hsl(50 30% 92% / 0.74)"/><circle cx="40.4" cy="318.2" r="1.24" fill="hsl(50 30% 92% / 0.48)"/><circle cx="1484.4" cy="41.9" r="0.66" fill="hsl(50 30% 92% / 0.95)"/><circle cx="1012.9" cy="222.1" r="0.61" fill="hsl(50 30% 92% / 0.85)"/><circle cx="975.6" cy="173.3" r="0.73" fill="hsl(50 30% 92% / 0.39)"/><circle cx="284.6" cy="206.9" r="0.94" fill="hsl(50 30% 92% / 0.94)"/><circle cx="1289.8" cy="339.4" r="1.03" fill="hsl(50 30% 92% / 0.91)"/><circle cx="815.2" cy="418.5" r="1.21" fill="hsl(50 30% 92% / 0.94)"/><circle cx="642.7" cy="79.4" r="1.67" fill="hsl(50 30% 92% / 0.82)"/><circle cx="88.7" cy="276.2" r="1.22" fill="hsl(50 30% 92% / 0.71)"/><circle cx="1226.7" cy="262.7" r="1.05" fill="hsl(50 30% 92% / 0.57)"/><circle cx="242.8" cy="399.1" r="2.01" fill="hsl(50 30% 92% / 0.87)"/><circle cx="287.5" cy="285.1" r="1.05" fill="hsl(50 30% 92% / 0.54)"/><circle cx="438.0" cy="208.0" r="0.91" fill="hsl(50 30% 92% / 0.70)"/><circle cx="156.1" cy="43.6" r="0.96" fill="hsl(50 30% 92% / 0.43)"/><circle cx="166.2" cy="267.1" r="1.77" fill="hsl(50 30% 92% / 0.50)"/><circle cx="877.6" cy="348.3" r="0.97" fill="hsl(50 30% 92% / 0.49)"/><circle cx="19.6" cy="183.2" r="1.03" fill="hsl(50 30% 92% / 0.36)"/><circle cx="1313.4" cy="450.8" r="1.21" fill="hsl(50 30% 92% / 0.64)"/><circle cx="508.4" cy="298.0" r="0.95" fill="hsl(50 30% 92% / 0.55)"/><circle cx="1344.9" cy="45.1" r="1.97" fill="hsl(50 30% 92% / 0.40)"/><circle cx="81.6" cy="200.1" r="1.02" fill="hsl(50 30% 92% / 0.54)"/><circle cx="201.8" cy="181.8" r="0.90" fill="hsl(50 30% 92% / 0.63)"/><circle cx="332.2" cy="100.5" r="0.67" fill="hsl(50 30% 92% / 0.37)"/><circle cx="208.6" cy="40.2" r="0.94" fill="hsl(50 30% 92% / 0.69)"/><circle cx="40.5" cy="146.2" r="0.88" fill="hsl(50 30% 92% / 0.81)"/><circle cx="1121.0" cy="147.4" r="0.67" fill="hsl(50 30% 92% / 0.74)"/><circle cx="1453.3" cy="297.8" r="0.93" fill="hsl(50 30% 92% / 0.83)"/><circle cx="23.5" cy="130.7" r="0.69" fill="hsl(50 30% 92% / 0.88)"/><circle cx="424.0" cy="94.0" r="1.26" fill="hsl(50 30% 92% / 0.91)"/><circle cx="1114.0" cy="48.4" r="1.29" fill="hsl(50 30% 92% / 0.87)"/><circle cx="594.3" cy="359.4" r="0.91" fill="hsl(50 30% 92% / 0.81)"/><circle cx="1181.1" cy="289.0" r="2.34" fill="hsl(50 30% 92% / 0.88)"/><circle cx="16.4" cy="181.2" r="1.28" fill="hsl(50 30% 92% / 0.89)"/><circle cx="443.0" cy="307.7" r="0.64" fill="hsl(50 30% 92% / 0.59)"/><circle cx="932.5" cy="200.4" r="0.98" fill="hsl(50 30% 92% / 0.52)"/><circle cx="1506.4" cy="249.2" r="1.26" fill="hsl(50 30% 92% / 0.46)"/><circle cx="1435.6" cy="193.8" r="0.97" fill="hsl(50 30% 92% / 0.40)"/><circle cx="1001.9" cy="439.7" r="1.05" fill="hsl(50 30% 92% / 0.87)"/><circle cx="226.2" cy="68.1" r="1.10" fill="hsl(50 30% 92% / 0.79)"/><circle cx="892.9" cy="303.5" r="0.87" fill="hsl(50 30% 92% / 0.83)"/><circle cx="346.3" cy="429.5" r="1.27" fill="hsl(50 30% 92% / 0.63)"/><circle cx="1521.9" cy="318.3" r="0.70" fill="hsl(50 30% 92% / 0.66)"/><circle cx="867.6" cy="311.1" r="0.68" fill="hsl(50 30% 92% / 0.45)"/><circle cx="897.5" cy="321.6" r="0.90" fill="hsl(50 30% 92% / 0.38)"/><circle cx="438.2" cy="102.3" r="1.01" fill="hsl(50 30% 92% / 0.84)"/><circle cx="1140.5" cy="180.2" r="0.62" fill="hsl(50 30% 92% / 0.94)"/><circle cx="1050.0" cy="457.6" r="2.15" fill="hsl(50 30% 92% / 0.49)"/><circle cx="411.0" cy="504.3" r="1.01" fill="hsl(50 30% 92% / 0.51)"/><circle cx="557.7" cy="298.4" r="1.06" fill="hsl(50 30% 92% / 0.70)"/><circle cx="800.3" cy="455.9" r="0.77" fill="hsl(50 30% 92% / 0.70)"/><circle cx="116.2" cy="347.0" r="1.20" fill="hsl(50 30% 92% / 0.55)"/><circle cx="542.7" cy="170.1" r="0.65" fill="hsl(50 30% 92% / 0.63)"/><circle cx="1088.5" cy="159.1" r="0.60" fill="hsl(50 30% 92% / 0.59)"/><circle cx="711.6" cy="332.9" r="0.83" fill="hsl(50 30% 92% / 0.60)"/><circle cx="1278.1" cy="69.4" r="0.69" fill="hsl(50 30% 92% / 0.54)"/></g><circle cx="714.4" cy="155.4" r="110" fill="url(#gv4tkii-glow)"/><circle cx="714.4" cy="155.4" r="36" fill="hsl(48.0 35.0% 88.0%)"/><path d="M0 900 L0 384.5 Q0.0 384.5 57.1 361.6 Q114.3 338.8 171.4 422.2 Q228.6 505.6 285.7 513.0 Q342.9 520.4 400.0 503.7 Q457.1 486.9 514.3 395.2 Q571.4 303.4 628.6 332.9 Q685.7 362.4 742.9 341.9 Q800.0 321.3 857.1 332.8 Q914.3 344.4 971.4 327.6 Q1028.6 310.8 1085.7 400.4 Q1142.9 490.0 1200.0 494.1 Q1257.1 498.1 1314.3 498.0 Q1371.4 497.9 1428.6 432.1 Q1485.7 366.3 1542.9 382.9 L1600 399.5 L1600 900 Z" fill="hsl(223.3 33.9% 19.1%)"/><path d="M0 900 L0 534.6 Q0.0 534.6 57.1 571.8 Q114.3 609.0 171.4 599.2 Q228.6 589.4 285.7 590.3 Q342.9 591.2 400.0 542.8 Q457.1 494.5 514.3 494.4 Q571.4 494.3 628.6 480.7 Q685.7 467.2 742.9 493.3 Q800.0 519.5 857.1 495.1 Q914.3 470.7 971.4 483.3 Q1028.6 496.0 1085.7 492.8 Q1142.9 489.7 1200.0 516.6 Q1257.1 543.6 1314.3 569.0 Q1371.4 594.4 1428.6 603.6 Q1485.7 612.8 1542.9 605.7 L1600 598.6 L1600 900 Z" fill="hsl(223.8 33.5% 18.0%)"/><path d="M0 900 L0 635.1 Q0.0 635.1 40.0 645.3 Q80.0 655.4 120.0 665.5 Q160.0 675.6 200.0 665.5 Q240.0 655.5 280.0 627.8 Q320.0 600.1 360.0 581.2 Q400.0 562.2 440.0 579.2 Q480.0 596.1 520.0 585.2 Q560.0 574.3 600.0 564.1 Q640.0 553.8 680.0 551.1 Q720.0 548.3 760.0 538.5 Q800.0 528.7 840.0 521.5 Q880.0 514.3 920.0 535.3 Q960.0 556.3 1000.0 588.8 Q1040.0 621.3 1080.0 631.9 Q1120.0 642.5 1160.0 644.2 Q1200.0 646.0 1240.0 653.1 Q1280.0 660.2 1320.0 644.5 Q1360.0 628.8 1400.0 614.1 Q1440.0 599.4 1480.0 613.0 Q1520.0 626.6 1560.0 642.7 L1600 658.8 L1600 900 Z" fill="hsl(225.4 32.2% 14.6%)"/><path d="M0 900 L0 674.5 Q0.0 674.5 50.0 691.1 Q100.0 707.7 150.0 705.4 Q200.0 703.2 250.0 706.9 Q300.0 710.6 350.0 709.8 Q400.0 709.1 450.0 710.0 Q500.0 710.8 550.0 710.5 Q600.0 710.2 650.0 704.0 Q700.0 697.7 750.0 683.4 Q800.0 669.0 850.0 663.2 Q900.0 657.4 950.0 664.2 Q1000.0 670.9 1050.0 685.3 Q1100.0 699.7 1150.0 714.0 Q1200.0 728.4 1250.0 736.2 Q1300.0 744.0 1350.0 726.2 Q1400.0 708.4 1450.0 697.8 Q1500.0 687.2 1550.0 681.2 L1600 675.1 L1600 900 Z" fill="hsl(228.0 30.0% 9.0%)"/><path d="M854.2 900 C875.4 729.4900016188622 617.6 629.0 623.6 559.0 L625.6 559.0 C633.6 629.0 1387.4 729.4900016188622 1366.2 900 Z" fill="hsl(228.0 22.0% 13.0%)"/><path d="M1110.2 900 C1131.4 729.4900016188622 623.6 619.0 624.6 559.0" fill="none" stroke="hsl(45 90% 70% / 0.85)" stroke-width="7" stroke-dasharray="46 38" stroke-linecap="round"/><rect width="1600" height="900" fill="url(#gv4tkii-vig)"/></svg>