<svg xmlns="http://www.w3.org/2000/svg" viewBox="0 0 1600 900" role="img" preserveAspectRatio="xMidYMid slice"><title>mau-son-lang-son-mua-dong s2</title><defs><linearGradient id="gmhn8r-sky" x1="0" y1="0" x2="0" y2="1"><stop offset="0%" stop-color="hsl(265.0 38.0% 26.0%)"/><stop offset="50%" stop-color="hsl(348.0 55.0% 46.0%)"/><stop offset="100%" stop-color="hsl(22.0 90.0% 58.0%)"/></linearGradient><radialGradient id="gmhn8r-glow"><stop offset="0%" stop-color="hsl(24.0 95.0% 66.0% / 0.850)"/><stop offset="45%" stop-color="hsl(24.0 95.0% 66.0% / 0.250)"/><stop offset="100%" stop-color="hsl(24.0 95.0% 66.0% / 0.000)"/></radialGradient><radialGradient id="gmhn8r-vig" cx="50%" cy="42%" r="75%"><stop offset="70%" stop-color="hsl(0 0% 0% / 0)"/><stop offset="100%" stop-color="hsl(0 0% 0% / 0.18)"/></radialGradient></defs><rect width="1600" height="537.4" fill="url(#gmhn8r-sky)"/><rect y="536.4" width="1600" height="363.6" fill="hsl(305.5 43.5% 25.0%)"/><circle cx="1175.7" cy="472.9" r="230" fill="url(#gmhn8r-glow)"/><circle cx="1175.7" cy="472.9" r="78" fill="hsl(24.0 95.0% 66.0%)"/><path d="M0 900 L0 371.3 Q0.0 371.3 38.1 391.0 Q76.2 410.7 114.3 450.7 Q152.4 490.6 190.5 472.8 Q228.6 454.9 266.7 407.2 Q304.8 359.5 342.9 358.8 Q381.0 358.2 419.0 328.7 Q457.1 299.1 495.2 251.2 Q533.3 203.3 571.4 220.7 Q609.5 238.0 647.6 279.1 Q685.7 320.3 723.8 363.5 Q761.9 406.7 800.0 368.0 Q838.1 329.3 876.2 329.0 Q914.3 328.7 952.4 348.1 Q990.5 367.5 1028.6 392.4 Q1066.7 417.2 1104.8 416.2 Q1142.9 415.2 1181.0 467.3 Q1219.0 519.4 1257.1 537.2 Q1295.2 554.9 1333.3 524.2 Q1371.4 493.4 1409.5 442.9 Q1447.6 392.4 1485.7 392.2 Q1523.8 392.0 1561.9 394.7 L1600 397.3 L1600 900 Z" fill="hsl(359.6 76.4% 48.3%)"/><path d="M0 900 L0 475.5 Q0.0 475.5 57.1 463.4 Q114.3 451.3 171.4 485.0 Q228.6 518.7 285.7 506.2 Q342.9 493.6 400.0 530.7 Q457.1 567.8 514.3 550.9 Q571.4 534.1 628.6 483.5 Q685.7 433.0 742.9 400.2 Q800.0 367.5 857.1 379.2 Q914.3 390.9 971.4 419.3 Q1028.6 447.6 1085.7 448.8 Q1142.9 450.0 1200.0 458.1 Q1257.1 466.3 1314.3 475.5 Q1371.4 484.8 1428.6 522.1 Q1485.7 559.5 1542.9 528.3 L1600 497.1 L1600 900 Z" fill="hsl(357.4 75.0% 47.4%)"/><path d="M0 900 L0 541.1 Q0.0 541.1 42.1 520.6 Q84.2 500.2 126.3 493.4 Q168.4 486.6 210.5 494.5 Q252.6 502.3 294.7 498.7 Q336.8 495.2 378.9 471.5 Q421.1 447.8 463.2 429.0 Q505.3 410.1 547.4 413.4 Q589.5 416.8 631.6 408.5 Q673.7 400.2 715.8 431.2 Q757.9 462.1 800.0 480.8 Q842.1 499.5 884.2 524.6 Q926.3 549.6 968.4 555.2 Q1010.5 560.8 1052.6 586.5 Q1094.7 612.2 1136.8 587.8 Q1178.9 563.4 1221.1 528.6 Q1263.2 493.8 1305.3 510.7 Q1347.4 527.6 1389.5 515.8 Q1431.6 504.0 1473.7 508.2 Q1515.8 512.4 1557.9 510.9 L1600 509.4 L1600 900 Z" fill="hsl(350.7 71.0% 44.5%)"/><path d="M0 900 L0 510.8 Q0.0 510.8 47.1 520.0 Q94.1 529.2 141.2 552.3 Q188.2 575.3 235.3 592.3 Q282.4 609.3 329.4 595.5 Q376.5 581.8 423.5 564.6 Q470.6 547.4 517.6 582.8 Q564.7 618.1 611.8 616.4 Q658.8 614.7 705.9 603.1 Q752.9 591.5 800.0 586.0 Q847.1 580.6 894.1 540.1 Q941.2 499.6 988.2 486.4 Q1035.3 473.2 1082.4 504.4 Q1129.4 535.5 1176.5 533.3 Q1223.5 531.1 1270.6 509.6 Q1317.6 488.2 1364.7 499.4 Q1411.8 510.6 1458.8 510.2 Q1505.9 509.7 1552.9 525.4 L1600 541.1 L1600 900 Z" fill="hsl(339.7 64.3% 39.7%)"/><path d="M0 900 L0 611.8 Q0.0 611.8 38.1 613.6 Q76.2 615.4 114.3 611.2 Q152.4 607.0 190.5 623.7 Q228.6 640.4 266.7 631.0 Q304.8 621.5 342.9 627.9 Q381.0 634.2 419.0 637.9 Q457.1 641.6 495.2 612.9 Q533.3 584.3 571.4 586.6 Q609.5 588.8 647.6 570.7 Q685.7 552.5 723.8 533.0 Q761.9 513.4 800.0 546.3 Q838.1 579.1 876.2 593.6 Q914.3 608.1 952.4 618.2 Q990.5 628.3 1028.6 647.7 Q1066.7 667.1 1104.8 650.6 Q1142.9 634.2 1181.0 629.0 Q1219.0 623.7 1257.1 628.7 Q1295.2 633.7 1333.3 623.0 Q1371.4 612.2 1409.5 612.9 Q1447.6 613.6 1485.7 598.9 Q1523.8 584.1 1561.9 574.7 L1600 565.2 L1600 900 Z" fill="hsl(324.2 54.9% 33.1%)"/><path d="M0 900 L0 664.4 Q0.0 664.4 53.3 671.3 Q106.7 678.2 160.0 691.3 Q213.3 704.5 266.7 682.4 Q320.0 660.2 373.3 635.0 Q426.7 609.7 480.0 603.5 Q533.3 597.2 586.7 610.5 Q640.0 623.8 693.3 631.6 Q746.7 639.5 800.0 654.2 Q853.3 668.8 906.7 666.4 Q960.0 663.9 1013.3 665.6 Q1066.7 667.3 1120.0 677.1 Q1173.3 686.9 1226.7 684.9 Q1280.0 682.9 1333.3 653.5 Q1386.7 624.1 1440.0 615.3 Q1493.3 606.6 1546.7 611.5 L1600 616.5 L1600 900 Z" fill="hsl(304.3 42.8% 24.5%)"/><path d="M0 900 L0 682.7 Q0.0 682.7 53.3 662.1 Q106.7 641.6 160.0 624.6 Q213.3 607.5 266.7 626.6 Q320.0 645.6 373.3 649.3 Q426.7 653.0 480.0 664.0 Q533.3 675.0 586.7 684.0 Q640.0 693.0 693.3 687.5 Q746.7 682.0 800.0 687.9 Q853.3 693.8 906.7 706.9 Q960.0 720.0 1013.3 711.5 Q1066.7 702.9 1120.0 696.5 Q1173.3 690.1 1226.7 679.9 Q1280.0 669.7 1333.3 641.1 Q1386.7 612.6 1440.0 609.5 Q1493.3 606.3 1546.7 624.0 L1600 641.6 L1600 900 Z" fill="hsl(280.0 28.0% 14.0%)"/><rect width="1600" height="900" fill="url(#gmhn8r-vig)"/></svg>