<svg xmlns="http://www.w3.org/2000/svg" viewBox="0 0 1600 900" role="img" preserveAspectRatio="xMidYMid slice"><title>binh-lieu-song-lung-khung-long hero</title><defs><linearGradient id="gvi42jg-sky" x1="0" y1="0" x2="0" y2="1"><stop offset="0%" stop-color="hsl(210.0 45.0% 62.0%)"/><stop offset="50%" stop-color="hsl(195.0 35.0% 74.0%)"/><stop offset="100%" stop-color="hsl(50.0 55.0% 78.0%)"/></linearGradient><radialGradient id="gvi42jg-glow"><stop offset="0%" stop-color="hsl(48.0 80.0% 80.0% / 0.850)"/><stop offset="45%" stop-color="hsl(48.0 80.0% 80.0% / 0.250)"/><stop offset="100%" stop-color="hsl(48.0 80.0% 80.0% / 0.000)"/></radialGradient><radialGradient id="gvi42jg-vig" cx="50%" cy="42%" r="75%"><stop offset="70%" stop-color="hsl(0 0% 0% / 0)"/><stop offset="100%" stop-color="hsl(0 0% 0% / 0.18)"/></radialGradient></defs><rect width="1600" height="529.9" fill="url(#gvi42jg-sky)"/><rect y="528.9" width="1600" height="371.1" fill="hsl(83.8 36.3% 42.0%)"/><circle cx="765.2" cy="328.6" r="120" fill="url(#gvi42jg-glow)"/><circle cx="765.2" cy="328.6" r="50" fill="hsl(48.0 80.0% 80.0%)"/><path d="M0 900 L0 336.7 Q0.0 336.7 38.1 343.8 Q76.2 350.9 114.3 379.2 Q152.4 407.4 190.5 414.1 Q228.6 420.8 266.7 456.7 Q304.8 492.5 342.9 505.9 Q381.0 519.2 419.0 498.8 Q457.1 478.3 495.2 481.8 Q533.3 485.2 571.4 469.6 Q609.5 454.0 647.6 447.0 Q685.7 440.0 723.8 468.9 Q761.9 497.8 800.0 480.0 Q838.1 462.2 876.2 463.2 Q914.3 464.1 952.4 446.4 Q990.5 428.7 1028.6 382.3 Q1066.7 336.0 1104.8 337.5 Q1142.9 339.1 1181.0 337.6 Q1219.0 336.0 1257.1 339.2 Q1295.2 342.3 1333.3 379.9 Q1371.4 417.5 1409.5 412.5 Q1447.6 407.4 1485.7 406.1 Q1523.8 404.7 1561.9 415.7 L1600 426.6 L1600 900 Z" fill="hsl(59.9 49.5% 67.4%)"/><path d="M0 900 L0 483.9 Q0.0 483.9 53.3 458.2 Q106.7 432.5 160.0 429.2 Q213.3 425.8 266.7 419.1 Q320.0 412.4 373.3 449.0 Q426.7 485.7 480.0 506.7 Q533.3 527.7 586.7 568.6 Q640.0 609.4 693.3 586.4 Q746.7 563.3 800.0 546.5 Q853.3 529.7 906.7 473.3 Q960.0 417.0 1013.3 422.5 Q1066.7 428.1 1120.0 420.9 Q1173.3 413.7 1226.7 443.5 Q1280.0 473.2 1333.3 460.6 Q1386.7 448.1 1440.0 472.3 Q1493.3 496.5 1546.7 487.8 L1600 479.1 L1600 900 Z" fill="hsl(63.8 47.3% 63.3%)"/><path d="M0 900 L0 567.5 Q0.0 567.5 50.0 557.1 Q100.0 546.7 150.0 530.8 Q200.0 515.0 250.0 534.3 Q300.0 553.7 350.0 559.8 Q400.0 565.9 450.0 580.8 Q500.0 595.6 550.0 592.6 Q600.0 589.6 650.0 597.5 Q700.0 605.4 750.0 607.8 Q800.0 610.3 850.0 610.7 Q900.0 611.2 950.0 608.0 Q1000.0 604.8 1050.0 577.5 Q1100.0 550.2 1150.0 537.1 Q1200.0 523.9 1250.0 514.7 Q1300.0 505.5 1350.0 536.7 Q1400.0 567.8 1450.0 587.3 Q1500.0 606.7 1550.0 640.8 L1600 674.9 L1600 900 Z" fill="hsl(75.5 40.8% 50.8%)"/><path d="M0 900 L0 728.5 Q0.0 728.5 57.1 717.8 Q114.3 707.0 171.4 686.8 Q228.6 666.5 285.7 663.7 Q342.9 660.9 400.0 651.6 Q457.1 642.3 514.3 650.9 Q571.4 659.4 628.6 650.0 Q685.7 640.5 742.9 649.7 Q800.0 658.9 857.1 685.9 Q914.3 712.8 971.4 714.0 Q1028.6 715.1 1085.7 704.9 Q1142.9 694.6 1200.0 670.7 Q1257.1 646.8 1314.3 631.7 Q1371.4 616.7 1428.6 638.8 Q1485.7 661.0 1542.9 663.3 L1600 665.5 L1600 900 Z" fill="hsl(95.0 30.0% 30.0%)"/><rect width="1600" height="900" fill="url(#gvi42jg-vig)"/></svg>