<svg xmlns="http://www.w3.org/2000/svg" viewBox="0 0 1600 900" role="img" preserveAspectRatio="xMidYMid slice"><title>binh-lieu-song-lung-khung-long s2</title><defs><linearGradient id="g1gp2vxt-sky" x1="0" y1="0" x2="0" y2="1"><stop offset="0%" stop-color="hsl(248.0 42.0% 22.0%)"/><stop offset="50%" stop-color="hsl(330.0 45.0% 48.0%)"/><stop offset="100%" stop-color="hsl(28.0 85.0% 62.0%)"/></linearGradient><radialGradient id="g1gp2vxt-glow"><stop offset="0%" stop-color="hsl(35.0 95.0% 72.0% / 0.850)"/><stop offset="45%" stop-color="hsl(35.0 95.0% 72.0% / 0.250)"/><stop offset="100%" stop-color="hsl(35.0 95.0% 72.0% / 0.000)"/></radialGradient><radialGradient id="g1gp2vxt-vig" cx="50%" cy="42%" r="75%"><stop offset="70%" stop-color="hsl(0 0% 0% / 0)"/><stop offset="100%" stop-color="hsl(0 0% 0% / 0.18)"/></radialGradient></defs><rect width="1600" height="601.7" fill="url(#g1gp2vxt-sky)"/><rect y="600.7" width="1600" height="299.3" fill="hsl(293.5 40.0% 27.5%)"/><circle cx="1115.2" cy="553.6" r="200" fill="url(#g1gp2vxt-glow)"/><circle cx="1115.2" cy="553.6" r="64" fill="hsl(35.0 95.0% 72.0%)"/><path d="M0 900 L0 493.8 Q0.0 493.8 38.1 474.3 Q76.2 454.7 114.3 427.6 Q152.4 400.4 190.5 333.1 Q228.6 265.8 266.7 287.4 Q304.8 309.0 342.9 320.9 Q381.0 332.8 419.0 359.3 Q457.1 385.7 495.2 426.8 Q533.3 467.8 571.4 484.9 Q609.5 502.1 647.6 505.1 Q685.7 508.1 723.8 516.8 Q761.9 525.5 800.0 514.0 Q838.1 502.5 876.2 499.7 Q914.3 496.8 952.4 520.7 Q990.5 544.6 1028.6 503.3 Q1066.7 462.0 1104.8 479.8 Q1142.9 497.6 1181.0 499.2 Q1219.0 500.7 1257.1 447.6 Q1295.2 394.5 1333.3 367.1 Q1371.4 339.7 1409.5 339.2 Q1447.6 338.8 1485.7 323.0 Q1523.8 307.2 1561.9 332.3 L1600 357.5 L1600 900 Z" fill="hsl(0.3 71.8% 51.9%)"/><path d="M0 900 L0 625.6 Q0.0 625.6 50.0 618.5 Q100.0 611.4 150.0 568.7 Q200.0 526.1 250.0 488.0 Q300.0 450.0 350.0 441.8 Q400.0 433.7 450.0 446.7 Q500.0 459.7 550.0 446.7 Q600.0 433.7 650.0 422.4 Q700.0 411.1 750.0 445.4 Q800.0 479.8 850.0 534.8 Q900.0 589.7 950.0 590.5 Q1000.0 591.3 1050.0 565.7 Q1100.0 540.0 1150.0 545.6 Q1200.0 551.1 1250.0 551.9 Q1300.0 552.6 1350.0 534.6 Q1400.0 516.7 1450.0 476.1 Q1500.0 435.5 1550.0 425.5 L1600 415.5 L1600 900 Z" fill="hsl(356.3 69.9% 50.4%)"/><path d="M0 900 L0 648.5 Q0.0 648.5 50.0 644.8 Q100.0 641.1 150.0 632.9 Q200.0 624.8 250.0 605.4 Q300.0 586.0 350.0 535.5 Q400.0 485.0 450.0 496.1 Q500.0 507.1 550.0 503.5 Q600.0 499.9 650.0 484.5 Q700.0 469.1 750.0 487.1 Q800.0 505.1 850.0 481.0 Q900.0 456.8 950.0 477.9 Q1000.0 498.9 1050.0 507.3 Q1100.0 515.8 1150.0 541.4 Q1200.0 566.9 1250.0 609.0 Q1300.0 651.2 1350.0 637.5 Q1400.0 623.8 1450.0 628.6 Q1500.0 633.4 1550.0 600.0 L1600 566.6 L1600 900 Z" fill="hsl(344.6 64.3% 46.1%)"/><path d="M0 900 L0 613.0 Q0.0 613.0 47.1 633.9 Q94.1 654.9 141.2 647.6 Q188.2 640.3 235.3 621.9 Q282.4 603.6 329.4 621.5 Q376.5 639.3 423.5 633.6 Q470.6 628.0 517.6 631.4 Q564.7 634.8 611.8 586.7 Q658.8 538.6 705.9 503.5 Q752.9 468.3 800.0 484.5 Q847.1 500.7 894.1 507.6 Q941.2 514.5 988.2 545.0 Q1035.3 575.5 1082.4 583.2 Q1129.4 590.9 1176.5 586.1 Q1223.5 581.3 1270.6 609.1 Q1317.6 636.9 1364.7 643.3 Q1411.8 649.6 1458.8 657.9 Q1505.9 666.2 1552.9 671.2 L1600 676.1 L1600 900 Z" fill="hsl(324.9 55.0% 39.0%)"/><path d="M0 900 L0 703.9 Q0.0 703.9 47.1 707.9 Q94.1 711.8 141.2 688.5 Q188.2 665.1 235.3 654.4 Q282.4 643.6 329.4 630.5 Q376.5 617.3 423.5 631.4 Q470.6 645.4 517.6 634.7 Q564.7 624.0 611.8 596.7 Q658.8 569.3 705.9 592.1 Q752.9 614.8 800.0 625.8 Q847.1 636.9 894.1 675.7 Q941.2 714.5 988.2 713.0 Q1035.3 711.4 1082.4 682.5 Q1129.4 653.6 1176.5 655.2 Q1223.5 656.8 1270.6 648.9 Q1317.6 641.0 1364.7 624.2 Q1411.8 607.4 1458.8 610.1 Q1505.9 612.8 1552.9 588.0 L1600 563.2 L1600 900 Z" fill="hsl(297.4 41.8% 28.9%)"/><path d="M0 900 L0 668.7 Q0.0 668.7 40.0 676.3 Q80.0 683.9 120.0 700.2 Q160.0 716.5 200.0 724.1 Q240.0 731.7 280.0 745.2 Q320.0 758.8 360.0 751.6 Q400.0 744.4 440.0 738.9 Q480.0 733.5 520.0 732.1 Q560.0 730.7 600.0 722.2 Q640.0 713.7 680.0 724.9 Q720.0 736.1 760.0 718.3 Q800.0 700.6 840.0 685.3 Q880.0 670.1 920.0 671.2 Q960.0 672.4 1000.0 671.3 Q1040.0 670.2 1080.0 688.9 Q1120.0 707.6 1160.0 718.5 Q1200.0 729.4 1240.0 733.2 Q1280.0 737.1 1320.0 740.6 Q1360.0 744.1 1400.0 739.5 Q1440.0 735.0 1480.0 730.4 Q1520.0 725.7 1560.0 737.3 L1600 748.8 L1600 900 Z" fill="hsl(262.0 25.0% 16.0%)"/><rect width="1600" height="900" fill="url(#g1gp2vxt-vig)"/></svg>