<svg xmlns="http://www.w3.org/2000/svg" viewBox="0 0 1600 900" role="img" preserveAspectRatio="xMidYMid slice"><title>binh-lieu-song-lung-khung-long s1</title><defs><linearGradient id="g9rljf8-sky" x1="0" y1="0" x2="0" y2="1"><stop offset="0%" stop-color="hsl(210.0 45.0% 62.0%)"/><stop offset="50%" stop-color="hsl(195.0 35.0% 74.0%)"/><stop offset="100%" stop-color="hsl(50.0 55.0% 78.0%)"/></linearGradient><radialGradient id="g9rljf8-glow"><stop offset="0%" stop-color="hsl(48.0 80.0% 80.0% / 0.850)"/><stop offset="45%" stop-color="hsl(48.0 80.0% 80.0% / 0.250)"/><stop offset="100%" stop-color="hsl(48.0 80.0% 80.0% / 0.000)"/></radialGradient><radialGradient id="g9rljf8-vig" cx="50%" cy="42%" r="75%"><stop offset="70%" stop-color="hsl(0 0% 0% / 0)"/><stop offset="100%" stop-color="hsl(0 0% 0% / 0.18)"/></radialGradient></defs><rect width="1600" height="476.5" fill="url(#g9rljf8-sky)"/><rect y="475.5" width="1600" height="424.5" fill="hsl(83.8 36.3% 42.0%)"/><circle cx="663.1" cy="295.4" r="120" fill="url(#g9rljf8-glow)"/><circle cx="663.1" cy="295.4" r="50" fill="hsl(48.0 80.0% 80.0%)"/><path d="M0 900 L0 363.4 Q0.0 363.4 40.0 331.4 Q80.0 299.5 120.0 285.1 Q160.0 270.8 200.0 297.9 Q240.0 324.9 280.0 349.7 Q320.0 374.5 360.0 367.9 Q400.0 361.4 440.0 367.2 Q480.0 373.0 520.0 383.6 Q560.0 394.2 600.0 398.6 Q640.0 403.0 680.0 430.7 Q720.0 458.5 760.0 479.1 Q800.0 499.8 840.0 460.3 Q880.0 420.8 920.0 392.0 Q960.0 363.2 1000.0 358.6 Q1040.0 354.0 1080.0 345.5 Q1120.0 336.9 1160.0 339.3 Q1200.0 341.6 1240.0 349.6 Q1280.0 357.7 1320.0 339.3 Q1360.0 320.8 1400.0 302.7 Q1440.0 284.6 1480.0 317.6 Q1520.0 350.7 1560.0 385.1 L1600 419.6 L1600 900 Z" fill="hsl(59.9 49.5% 67.4%)"/><path d="M0 900 L0 445.2 Q0.0 445.2 40.0 428.9 Q80.0 412.7 120.0 416.9 Q160.0 421.2 200.0 406.3 Q240.0 391.3 280.0 381.5 Q320.0 371.6 360.0 404.2 Q400.0 436.8 440.0 457.6 Q480.0 478.3 520.0 494.1 Q560.0 509.9 600.0 528.7 Q640.0 547.4 680.0 532.2 Q720.0 517.0 760.0 501.8 Q800.0 486.7 840.0 492.4 Q880.0 498.1 920.0 490.9 Q960.0 483.6 1000.0 491.1 Q1040.0 498.6 1080.0 509.1 Q1120.0 519.5 1160.0 488.4 Q1200.0 457.3 1240.0 442.6 Q1280.0 427.8 1320.0 413.8 Q1360.0 399.8 1400.0 375.0 Q1440.0 350.2 1480.0 366.6 Q1520.0 383.1 1560.0 409.2 L1600 435.3 L1600 900 Z" fill="hsl(63.8 47.3% 63.3%)"/><path d="M0 900 L0 557.5 Q0.0 557.5 53.3 562.8 Q106.7 568.2 160.0 572.4 Q213.3 576.6 266.7 567.1 Q320.0 557.5 373.3 588.2 Q426.7 618.9 480.0 621.3 Q533.3 623.6 586.7 625.5 Q640.0 627.5 693.3 598.0 Q746.7 568.5 800.0 572.5 Q853.3 576.4 906.7 572.8 Q960.0 569.1 1013.3 567.4 Q1066.7 565.6 1120.0 539.9 Q1173.3 514.2 1226.7 514.8 Q1280.0 515.3 1333.3 529.2 Q1386.7 543.1 1440.0 560.3 Q1493.3 577.5 1546.7 577.8 L1600 578.1 L1600 900 Z" fill="hsl(75.5 40.8% 50.8%)"/><path d="M0 900 L0 688.0 Q0.0 688.0 53.3 682.1 Q106.7 676.2 160.0 666.7 Q213.3 657.2 266.7 668.1 Q320.0 678.9 373.3 679.1 Q426.7 679.2 480.0 668.2 Q533.3 657.2 586.7 653.7 Q640.0 650.2 693.3 630.4 Q746.7 610.6 800.0 605.2 Q853.3 599.9 906.7 615.7 Q960.0 631.6 1013.3 636.7 Q1066.7 641.8 1120.0 651.2 Q1173.3 660.5 1226.7 668.6 Q1280.0 676.7 1333.3 666.7 Q1386.7 656.7 1440.0 662.7 Q1493.3 668.8 1546.7 678.4 L1600 688.0 L1600 900 Z" fill="hsl(95.0 30.0% 30.0%)"/><rect width="1600" height="900" fill="url(#g9rljf8-vig)"/></svg>