<svg xmlns="http://www.w3.org/2000/svg" viewBox="0 0 1600 900" role="img" preserveAspectRatio="xMidYMid slice"><title>ninh-thuan-dt702-vinh-hy hero</title><defs><linearGradient id="giwao19-sky" x1="0" y1="0" x2="0" y2="1"><stop offset="0%" stop-color="hsl(208.0 60.0% 52.0%)"/><stop offset="50%" stop-color="hsl(196.0 50.0% 66.0%)"/><stop offset="100%" stop-color="hsl(40.0 60.0% 76.0%)"/></linearGradient><radialGradient id="giwao19-glow"><stop offset="0%" stop-color="hsl(42.0 90.0% 78.0% / 0.850)"/><stop offset="45%" stop-color="hsl(42.0 90.0% 78.0% / 0.250)"/><stop offset="100%" stop-color="hsl(42.0 90.0% 78.0% / 0.000)"/></radialGradient><linearGradient id="giwao19-water" x1="0" y1="0" x2="0" y2="1"><stop offset="0%" stop-color="hsl(116.5 51.0% 52.6%)"/><stop offset="100%" stop-color="hsl(213.0 41.0% 15.2%)"/></linearGradient><radialGradient id="giwao19-vig" cx="50%" cy="42%" r="75%"><stop offset="70%" stop-color="hsl(0 0% 0% / 0)"/><stop offset="100%" stop-color="hsl(0 0% 0% / 0.18)"/></radialGradient></defs><rect width="1600" height="466.7" fill="url(#giwao19-sky)"/><rect y="465.7" width="1600" height="434.3" fill="hsl(167.5 41.3% 34.0%)"/><circle cx="1184.2" cy="350.1" r="150" fill="url(#giwao19-glow)"/><circle cx="1184.2" cy="350.1" r="56" fill="hsl(42.0 90.0% 78.0%)"/><path d="M0 900 L0 343.6 Q0.0 343.6 42.1 348.5 Q84.2 353.4 126.3 341.5 Q168.4 329.5 210.5 292.9 Q252.6 256.3 294.7 275.6 Q336.8 294.9 378.9 294.8 Q421.1 294.7 463.2 285.1 Q505.3 275.5 547.4 277.5 Q589.5 279.6 631.6 347.5 Q673.7 415.4 715.8 426.0 Q757.9 436.6 800.0 442.0 Q842.1 447.4 884.2 420.7 Q926.3 394.0 968.4 371.1 Q1010.5 348.3 1052.6 305.4 Q1094.7 262.6 1136.8 231.0 Q1178.9 199.3 1221.1 223.2 Q1263.2 247.0 1305.3 311.7 Q1347.4 376.4 1389.5 391.5 Q1431.6 406.5 1473.7 406.5 Q1515.8 406.5 1557.9 407.6 L1600 408.7 L1600 900 Z" fill="hsl(77.4 54.5% 63.7%)"/><path d="M0 900 L0 412.3 Q0.0 412.3 53.3 425.3 Q106.7 438.3 160.0 435.8 Q213.3 433.2 266.7 430.9 Q320.0 428.7 373.3 441.9 Q426.7 455.1 480.0 495.5 Q533.3 535.9 586.7 527.1 Q640.0 518.3 693.3 533.0 Q746.7 547.7 800.0 491.1 Q853.3 434.5 906.7 428.4 Q960.0 422.3 1013.3 421.0 Q1066.7 419.8 1120.0 421.8 Q1173.3 423.9 1226.7 447.8 Q1280.0 471.6 1333.3 441.8 Q1386.7 411.9 1440.0 430.1 Q1493.3 448.3 1546.7 479.9 L1600 511.5 L1600 900 Z" fill="hsl(92.1 52.3% 58.8%)"/><path d="M0 900 L0 582.9 Q0.0 582.9 42.1 553.2 Q84.2 523.5 126.3 508.0 Q168.4 492.4 210.5 497.8 Q252.6 503.1 294.7 500.0 Q336.8 496.9 378.9 528.8 Q421.1 560.6 463.2 586.5 Q505.3 612.4 547.4 614.8 Q589.5 617.2 631.6 616.4 Q673.7 615.6 715.8 596.4 Q757.9 577.3 800.0 571.6 Q842.1 566.0 884.2 541.5 Q926.3 517.0 968.4 524.0 Q1010.5 531.1 1052.6 533.0 Q1094.7 535.0 1136.8 535.5 Q1178.9 535.9 1221.1 533.3 Q1263.2 530.6 1305.3 530.4 Q1347.4 530.2 1389.5 531.3 Q1431.6 532.4 1473.7 559.2 Q1515.8 586.1 1557.9 598.6 L1600 611.2 L1600 900 Z" fill="hsl(136.3 45.8% 44.3%)"/><path d="M0 900 L0 697.1 Q0.0 697.1 40.0 684.9 Q80.0 672.7 120.0 666.4 Q160.0 660.1 200.0 645.3 Q240.0 630.6 280.0 607.6 Q320.0 584.6 360.0 604.5 Q400.0 624.3 440.0 632.6 Q480.0 640.8 520.0 639.4 Q560.0 638.0 600.0 646.0 Q640.0 654.0 680.0 652.9 Q720.0 651.7 760.0 665.3 Q800.0 678.8 840.0 690.0 Q880.0 701.2 920.0 686.8 Q960.0 672.3 1000.0 665.2 Q1040.0 658.1 1080.0 646.8 Q1120.0 635.4 1160.0 611.2 Q1200.0 587.0 1240.0 611.1 Q1280.0 635.2 1320.0 636.1 Q1360.0 637.1 1400.0 630.9 Q1440.0 624.8 1480.0 635.2 Q1520.0 645.7 1560.0 646.1 L1600 646.5 L1600 900 Z" fill="hsl(210.0 35.0% 20.0%)"/><rect y="466.7" width="1600" height="433.3" fill="url(#giwao19-water)"/><g><rect x="802.6" y="484.2" width="24.6" height="3.2" rx="1.6" fill="hsl(42.0 90.0% 78.0% / 0.560)"/><rect x="785.6" y="508.5" width="23.7" height="3.2" rx="1.6" fill="hsl(42.0 90.0% 78.0% / 0.532)"/><rect x="791.8" y="533.4" width="44.3" height="3.2" rx="1.6" fill="hsl(42.0 90.0% 78.0% / 0.503)"/><rect x="820.9" y="563.4" width="24.6" height="3.2" rx="1.6" fill="hsl(42.0 90.0% 78.0% / 0.468)"/><rect x="743.4" y="588.8" width="56.2" height="3.2" rx="1.6" fill="hsl(42.0 90.0% 78.0% / 0.439)"/><rect x="813.0" y="612.9" width="14.9" height="3.2" rx="1.6" fill="hsl(42.0 90.0% 78.0% / 0.411)"/><rect x="808.2" y="639.6" width="55.6" height="3.2" rx="1.6" fill="hsl(42.0 90.0% 78.0% / 0.380)"/><rect x="731.1" y="661.5" width="59.5" height="3.2" rx="1.6" fill="hsl(42.0 90.0% 78.0% / 0.355)"/><rect x="813.3" y="688.2" width="83.0" height="3.2" rx="1.6" fill="hsl(42.0 90.0% 78.0% / 0.324)"/><rect x="747.9" y="711.5" width="47.2" height="3.2" rx="1.6" fill="hsl(42.0 90.0% 78.0% / 0.298)"/><rect x="709.5" y="733.1" width="74.8" height="3.2" rx="1.6" fill="hsl(42.0 90.0% 78.0% / 0.273)"/><rect x="728.1" y="762.7" width="116.9" height="3.2" rx="1.6" fill="hsl(42.0 90.0% 78.0% / 0.238)"/><rect x="748.3" y="783.3" width="82.9" height="3.2" rx="1.6" fill="hsl(42.0 90.0% 78.0% / 0.215)"/><rect x="756.1" y="811.7" width="71.0" height="3.2" rx="1.6" fill="hsl(42.0 90.0% 78.0% / 0.182)"/><rect x="776.2" y="838.2" width="81.8" height="3.2" rx="1.6" fill="hsl(42.0 90.0% 78.0% / 0.151)"/><rect x="793.0" y="860.4" width="90.1" height="3.2" rx="1.6" fill="hsl(42.0 90.0% 78.0% / 0.126)"/></g><rect width="1600" height="900" fill="url(#giwao19-vig)"/></svg>