<svg xmlns="http://www.w3.org/2000/svg" viewBox="0 0 1600 900" role="img" preserveAspectRatio="xMidYMid slice"><title>ninh-thuan-dt702-vinh-hy s1</title><defs><linearGradient id="g18ed94t-sky" x1="0" y1="0" x2="0" y2="1"><stop offset="0%" stop-color="hsl(208.0 60.0% 52.0%)"/><stop offset="50%" stop-color="hsl(196.0 50.0% 66.0%)"/><stop offset="100%" stop-color="hsl(40.0 60.0% 76.0%)"/></linearGradient><radialGradient id="g18ed94t-glow"><stop offset="0%" stop-color="hsl(42.0 90.0% 78.0% / 0.850)"/><stop offset="45%" stop-color="hsl(42.0 90.0% 78.0% / 0.250)"/><stop offset="100%" stop-color="hsl(42.0 90.0% 78.0% / 0.000)"/></radialGradient><linearGradient id="g18ed94t-water" x1="0" y1="0" x2="0" y2="1"><stop offset="0%" stop-color="hsl(116.5 51.0% 52.6%)"/><stop offset="100%" stop-color="hsl(213.0 41.0% 15.2%)"/></linearGradient><radialGradient id="g18ed94t-vig" cx="50%" cy="42%" r="75%"><stop offset="70%" stop-color="hsl(0 0% 0% / 0)"/><stop offset="100%" stop-color="hsl(0 0% 0% / 0.18)"/></radialGradient></defs><rect width="1600" height="484.8" fill="url(#g18ed94t-sky)"/><rect y="483.8" width="1600" height="416.2" fill="hsl(167.5 41.3% 34.0%)"/><circle cx="641.9" cy="363.6" r="150" fill="url(#g18ed94t-glow)"/><circle cx="641.9" cy="363.6" r="56" fill="hsl(42.0 90.0% 78.0%)"/><path d="M0 900 L0 393.7 Q0.0 393.7 42.1 411.4 Q84.2 429.0 126.3 406.7 Q168.4 384.3 210.5 383.9 Q252.6 383.4 294.7 387.9 Q336.8 392.3 378.9 370.1 Q421.1 348.0 463.2 326.6 Q505.3 305.3 547.4 314.6 Q589.5 323.9 631.6 322.2 Q673.7 320.5 715.8 345.4 Q757.9 370.2 800.0 416.9 Q842.1 463.6 884.2 464.3 Q926.3 465.0 968.4 465.5 Q1010.5 466.0 1052.6 462.8 Q1094.7 459.7 1136.8 437.2 Q1178.9 414.8 1221.1 421.0 Q1263.2 427.3 1305.3 419.8 Q1347.4 412.3 1389.5 405.6 Q1431.6 398.9 1473.7 414.6 Q1515.8 430.2 1557.9 387.1 L1600 344.0 L1600 900 Z" fill="hsl(77.4 54.5% 63.7%)"/><path d="M0 900 L0 482.5 Q0.0 482.5 42.1 495.4 Q84.2 508.3 126.3 498.1 Q168.4 487.8 210.5 464.3 Q252.6 440.9 294.7 449.1 Q336.8 457.2 378.9 448.8 Q421.1 440.4 463.2 479.9 Q505.3 519.4 547.4 522.9 Q589.5 526.3 631.6 525.7 Q673.7 525.1 715.8 532.6 Q757.9 540.0 800.0 538.3 Q842.1 536.6 884.2 558.1 Q926.3 579.7 968.4 594.6 Q1010.5 609.6 1052.6 574.9 Q1094.7 540.1 1136.8 532.4 Q1178.9 524.7 1221.1 511.4 Q1263.2 498.0 1305.3 507.2 Q1347.4 516.4 1389.5 513.6 Q1431.6 510.9 1473.7 480.2 Q1515.8 449.5 1557.9 448.4 L1600 447.4 L1600 900 Z" fill="hsl(110.5 49.6% 52.8%)"/><path d="M0 900 L0 685.1 Q0.0 685.1 38.1 676.3 Q76.2 667.5 114.3 676.3 Q152.4 685.2 190.5 691.3 Q228.6 697.4 266.7 700.7 Q304.8 704.0 342.9 704.6 Q381.0 705.2 419.0 693.0 Q457.1 680.8 495.2 659.0 Q533.3 637.3 571.4 636.3 Q609.5 635.4 647.6 644.1 Q685.7 652.9 723.8 652.9 Q761.9 652.9 800.0 647.2 Q838.1 641.5 876.2 639.4 Q914.3 637.4 952.4 627.7 Q990.5 618.0 1028.6 619.3 Q1066.7 620.6 1104.8 639.1 Q1142.9 657.5 1181.0 673.1 Q1219.0 688.7 1257.1 682.8 Q1295.2 677.0 1333.3 681.0 Q1371.4 685.0 1409.5 683.6 Q1447.6 682.3 1485.7 684.5 Q1523.8 686.7 1561.9 700.4 L1600 714.1 L1600 900 Z" fill="hsl(210.0 35.0% 20.0%)"/><rect y="484.8" width="1600" height="415.2" fill="url(#g18ed94t-water)"/><g><rect x="782.2" y="503.8" width="39.7" height="3.2" rx="1.6" fill="hsl(42.0 90.0% 78.0% / 0.557)"/><rect x="805.5" y="519.1" width="29.8" height="3.2" rx="1.6" fill="hsl(42.0 90.0% 78.0% / 0.539)"/><rect x="759.5" y="537.6" width="31.1" height="3.2" rx="1.6" fill="hsl(42.0 90.0% 78.0% / 0.517)"/><rect x="786.4" y="551.0" width="31.6" height="3.2" rx="1.6" fill="hsl(42.0 90.0% 78.0% / 0.500)"/><rect x="764.5" y="564.4" width="21.0" height="3.2" rx="1.6" fill="hsl(42.0 90.0% 78.0% / 0.484)"/><rect x="743.8" y="585.7" width="42.6" height="3.2" rx="1.6" fill="hsl(42.0 90.0% 78.0% / 0.459)"/><rect x="743.5" y="600.9" width="48.9" height="3.2" rx="1.6" fill="hsl(42.0 90.0% 78.0% / 0.440)"/><rect x="786.5" y="612.0" width="54.4" height="3.2" rx="1.6" fill="hsl(42.0 90.0% 78.0% / 0.427)"/><rect x="785.3" y="628.2" width="56.5" height="3.2" rx="1.6" fill="hsl(42.0 90.0% 78.0% / 0.407)"/><rect x="773.7" y="645.2" width="35.0" height="3.2" rx="1.6" fill="hsl(42.0 90.0% 78.0% / 0.387)"/><rect x="744.9" y="659.7" width="24.7" height="3.2" rx="1.6" fill="hsl(42.0 90.0% 78.0% / 0.369)"/><rect x="737.7" y="679.7" width="27.2" height="3.2" rx="1.6" fill="hsl(42.0 90.0% 78.0% / 0.345)"/><rect x="723.9" y="697.3" width="76.9" height="3.2" rx="1.6" fill="hsl(42.0 90.0% 78.0% / 0.324)"/><rect x="800.1" y="712.1" width="73.4" height="3.2" rx="1.6" fill="hsl(42.0 90.0% 78.0% / 0.306)"/><rect x="722.3" y="726.2" width="79.8" height="3.2" rx="1.6" fill="hsl(42.0 90.0% 78.0% / 0.289)"/><rect x="801.3" y="740.7" width="24.8" height="3.2" rx="1.6" fill="hsl(42.0 90.0% 78.0% / 0.272)"/><rect x="847.8" y="758.1" width="29.4" height="3.2" rx="1.6" fill="hsl(42.0 90.0% 78.0% / 0.251)"/><rect x="778.8" y="777.5" width="118.6" height="3.2" rx="1.6" fill="hsl(42.0 90.0% 78.0% / 0.227)"/><rect x="792.2" y="789.8" width="100.1" height="3.2" rx="1.6" fill="hsl(42.0 90.0% 78.0% / 0.213)"/><rect x="710.6" y="803.9" width="60.9" height="3.2" rx="1.6" fill="hsl(42.0 90.0% 78.0% / 0.196)"/><rect x="749.0" y="824.5" width="132.5" height="3.2" rx="1.6" fill="hsl(42.0 90.0% 78.0% / 0.171)"/><rect x="710.2" y="839.6" width="45.9" height="3.2" rx="1.6" fill="hsl(42.0 90.0% 78.0% / 0.153)"/><rect x="748.3" y="852.9" width="130.9" height="3.2" rx="1.6" fill="hsl(42.0 90.0% 78.0% / 0.137)"/><rect x="828.5" y="870.4" width="42.2" height="3.2" rx="1.6" fill="hsl(42.0 90.0% 78.0% / 0.116)"/></g><rect width="1600" height="900" fill="url(#g18ed94t-vig)"/></svg>