<svg xmlns="http://www.w3.org/2000/svg" viewBox="0 0 1600 900" role="img" preserveAspectRatio="xMidYMid slice"><title>ninh-thuan-dt702-vinh-hy s2</title><defs><linearGradient id="g6h4tj4-sky" x1="0" y1="0" x2="0" y2="1"><stop offset="0%" stop-color="hsl(265.0 38.0% 26.0%)"/><stop offset="50%" stop-color="hsl(348.0 55.0% 46.0%)"/><stop offset="100%" stop-color="hsl(22.0 90.0% 58.0%)"/></linearGradient><radialGradient id="g6h4tj4-glow"><stop offset="0%" stop-color="hsl(24.0 95.0% 66.0% / 0.850)"/><stop offset="45%" stop-color="hsl(24.0 95.0% 66.0% / 0.250)"/><stop offset="100%" stop-color="hsl(24.0 95.0% 66.0% / 0.000)"/></radialGradient><radialGradient id="g6h4tj4-vig" cx="50%" cy="42%" r="75%"><stop offset="70%" stop-color="hsl(0 0% 0% / 0)"/><stop offset="100%" stop-color="hsl(0 0% 0% / 0.18)"/></radialGradient></defs><rect width="1600" height="551.7" fill="url(#g6h4tj4-sky)"/><rect y="550.7" width="1600" height="349.3" fill="hsl(305.5 43.5% 25.0%)"/><circle cx="825.3" cy="485.5" r="230" fill="url(#g6h4tj4-glow)"/><circle cx="825.3" cy="485.5" r="78" fill="hsl(24.0 95.0% 66.0%)"/><path d="M0 900 L0 342.8 Q0.0 342.8 40.0 327.3 Q80.0 311.7 120.0 304.2 Q160.0 296.7 200.0 333.2 Q240.0 369.7 280.0 366.5 Q320.0 363.4 360.0 343.8 Q400.0 324.2 440.0 368.2 Q480.0 412.2 520.0 415.3 Q560.0 418.5 600.0 435.5 Q640.0 452.6 680.0 466.0 Q720.0 479.3 760.0 504.4 Q800.0 529.5 840.0 509.8 Q880.0 490.2 920.0 449.5 Q960.0 408.8 1000.0 386.8 Q1040.0 364.8 1080.0 330.4 Q1120.0 296.0 1160.0 277.0 Q1200.0 258.0 1240.0 246.0 Q1280.0 234.0 1320.0 273.5 Q1360.0 313.0 1400.0 352.7 Q1440.0 392.3 1480.0 412.7 Q1520.0 433.0 1560.0 472.0 L1600 511.0 L1600 900 Z" fill="hsl(359.6 76.4% 48.3%)"/><path d="M0 900 L0 537.6 Q0.0 537.6 42.1 515.7 Q84.2 493.8 126.3 499.0 Q168.4 504.3 210.5 495.3 Q252.6 486.3 294.7 482.1 Q336.8 477.9 378.9 466.2 Q421.1 454.6 463.2 412.4 Q505.3 370.1 547.4 390.2 Q589.5 410.3 631.6 421.4 Q673.7 432.6 715.8 440.9 Q757.9 449.2 800.0 473.2 Q842.1 497.2 884.2 469.1 Q926.3 440.9 968.4 441.6 Q1010.5 442.2 1052.6 485.8 Q1094.7 529.5 1136.8 530.3 Q1178.9 531.1 1221.1 565.7 Q1263.2 600.3 1305.3 583.1 Q1347.4 565.9 1389.5 537.6 Q1431.6 509.4 1473.7 507.2 Q1515.8 505.0 1557.9 505.8 L1600 506.6 L1600 900 Z" fill="hsl(357.4 75.0% 47.4%)"/><path d="M0 900 L0 564.1 Q0.0 564.1 40.0 547.6 Q80.0 531.2 120.0 482.2 Q160.0 433.2 200.0 426.7 Q240.0 420.3 280.0 448.1 Q320.0 475.9 360.0 457.7 Q400.0 439.5 440.0 444.1 Q480.0 448.6 520.0 471.3 Q560.0 494.0 600.0 477.0 Q640.0 460.1 680.0 491.7 Q720.0 523.3 760.0 570.8 Q800.0 618.3 840.0 597.1 Q880.0 575.9 920.0 574.1 Q960.0 572.3 1000.0 553.9 Q1040.0 535.5 1080.0 473.3 Q1120.0 411.2 1160.0 425.0 Q1200.0 438.8 1240.0 446.4 Q1280.0 454.1 1320.0 454.6 Q1360.0 455.1 1400.0 472.6 Q1440.0 490.2 1480.0 506.0 Q1520.0 521.9 1560.0 495.8 L1600 469.7 L1600 900 Z" fill="hsl(350.7 71.0% 44.5%)"/><path d="M0 900 L0 504.2 Q0.0 504.2 50.0 499.0 Q100.0 493.7 150.0 491.7 Q200.0 489.7 250.0 522.9 Q300.0 556.1 350.0 540.8 Q400.0 525.6 450.0 531.9 Q500.0 538.3 550.0 547.5 Q600.0 556.7 650.0 586.1 Q700.0 615.5 750.0 640.4 Q800.0 665.3 850.0 640.7 Q900.0 616.1 950.0 591.0 Q1000.0 566.0 1050.0 552.7 Q1100.0 539.4 1150.0 531.1 Q1200.0 522.8 1250.0 545.4 Q1300.0 568.1 1350.0 532.9 Q1400.0 497.8 1450.0 482.4 Q1500.0 467.0 1550.0 486.9 L1600 506.9 L1600 900 Z" fill="hsl(339.7 64.3% 39.7%)"/><path d="M0 900 L0 556.0 Q0.0 556.0 40.0 538.0 Q80.0 520.0 120.0 542.0 Q160.0 564.1 200.0 568.2 Q240.0 572.3 280.0 574.0 Q320.0 575.7 360.0 596.8 Q400.0 617.9 440.0 615.8 Q480.0 613.7 520.0 611.1 Q560.0 608.5 600.0 638.6 Q640.0 668.7 680.0 666.6 Q720.0 664.4 760.0 640.8 Q800.0 617.2 840.0 590.1 Q880.0 563.1 920.0 557.1 Q960.0 551.2 1000.0 538.1 Q1040.0 525.1 1080.0 544.0 Q1120.0 562.9 1160.0 584.4 Q1200.0 605.9 1240.0 605.7 Q1280.0 605.6 1320.0 605.5 Q1360.0 605.3 1400.0 610.4 Q1440.0 615.4 1480.0 627.5 Q1520.0 639.5 1560.0 636.9 L1600 634.4 L1600 900 Z" fill="hsl(324.2 54.9% 33.1%)"/><path d="M0 900 L0 713.7 Q0.0 713.7 44.4 707.7 Q88.9 701.7 133.3 681.9 Q177.8 662.1 222.2 663.0 Q266.7 663.8 311.1 655.3 Q355.6 646.9 400.0 639.8 Q444.4 632.7 488.9 639.5 Q533.3 646.3 577.8 642.6 Q622.2 638.8 666.7 635.5 Q711.1 632.1 755.6 622.6 Q800.0 613.2 844.4 624.3 Q888.9 635.3 933.3 645.9 Q977.8 656.5 1022.2 669.7 Q1066.7 682.9 1111.1 693.9 Q1155.6 704.9 1200.0 705.6 Q1244.4 706.4 1288.9 692.4 Q1333.3 678.4 1377.8 655.1 Q1422.2 631.7 1466.7 630.6 Q1511.1 629.5 1555.6 625.8 L1600 622.2 L1600 900 Z" fill="hsl(304.3 42.8% 24.5%)"/><path d="M0 900 L0 698.2 Q0.0 698.2 53.3 704.7 Q106.7 711.1 160.0 706.1 Q213.3 701.1 266.7 702.6 Q320.0 704.1 373.3 701.5 Q426.7 698.9 480.0 700.3 Q533.3 701.8 586.7 684.1 Q640.0 666.5 693.3 649.8 Q746.7 633.0 800.0 646.0 Q853.3 659.1 906.7 668.2 Q960.0 677.4 1013.3 707.0 Q1066.7 736.6 1120.0 735.4 Q1173.3 734.2 1226.7 729.6 Q1280.0 725.0 1333.3 707.2 Q1386.7 689.5 1440.0 673.4 Q1493.3 657.4 1546.7 660.3 L1600 663.3 L1600 900 Z" fill="hsl(280.0 28.0% 14.0%)"/><rect width="1600" height="900" fill="url(#g6h4tj4-vig)"/></svg>