<svg xmlns="http://www.w3.org/2000/svg" viewBox="0 0 1600 900" role="img" preserveAspectRatio="xMidYMid slice"><title>thakhek-loop-lao-4-ngay hero</title><defs><linearGradient id="g1buhnv0-sky" x1="0" y1="0" x2="0" y2="1"><stop offset="0%" stop-color="hsl(200.0 45.0% 58.0%)"/><stop offset="50%" stop-color="hsl(180.0 30.0% 72.0%)"/><stop offset="100%" stop-color="hsl(46.0 55.0% 80.0%)"/></linearGradient><radialGradient id="g1buhnv0-glow"><stop offset="0%" stop-color="hsl(44.0 80.0% 84.0% / 0.850)"/><stop offset="45%" stop-color="hsl(44.0 80.0% 84.0% / 0.250)"/><stop offset="100%" stop-color="hsl(44.0 80.0% 84.0% / 0.000)"/></radialGradient><linearGradient id="g1buhnv0-fog3" x1="0" y1="0" x2="0" y2="1"><stop offset="0%" stop-color="hsl(40 20% 96% / 0)"/><stop offset="55%" stop-color="hsl(40 20% 96% / 0.21)"/><stop offset="100%" stop-color="hsl(40 20% 96% / 0)"/></linearGradient><radialGradient id="g1buhnv0-vig" cx="50%" cy="42%" r="75%"><stop offset="70%" stop-color="hsl(0 0% 0% / 0)"/><stop offset="100%" stop-color="hsl(0 0% 0% / 0.18)"/></radialGradient></defs><rect width="1600" height="637.9" fill="url(#g1buhnv0-sky)"/><rect y="636.9" width="1600" height="263.1" fill="hsl(157.8 37.8% 33.5%)"/><circle cx="985.7" cy="446.5" r="130" fill="url(#g1buhnv0-glow)"/><circle cx="985.7" cy="446.5" r="52" fill="hsl(44.0 80.0% 84.0%)"/><path d="M0 900 L0 400.6 L0.0 400.6 L94.1 322.0 L188.2 271.7 L282.4 331.6 L376.5 368.8 L470.6 553.6 L564.7 516.4 L658.8 554.7 L752.9 574.6 L847.1 680.2 L941.2 575.1 L1035.3 545.2 L1129.4 355.9 L1223.5 453.8 L1317.6 425.1 L1411.8 431.3 L1505.9 308.4 L1600.0 280.3 L1600 900 Z" fill="hsl(78.8 49.9% 66.4%)"/><path d="M0 900 L0 516.3 L0.0 516.3 L88.9 481.9 L177.8 480.6 L266.7 416.7 L355.6 394.5 L444.4 484.9 L533.3 631.6 L622.2 613.3 L711.1 634.3 L800.0 573.2 L888.9 460.0 L977.8 530.5 L1066.7 524.0 L1155.6 458.5 L1244.4 482.6 L1333.3 524.2 L1422.2 648.8 L1511.1 706.2 L1600.0 655.1 L1600 900 Z" fill="hsl(83.4 49.2% 64.4%)"/><path d="M0 900 L0 466.7 L0.0 466.7 L100.0 450.4 L200.0 534.7 L300.0 507.7 L400.0 569.1 L500.0 591.1 L600.0 726.9 L700.0 650.4 L800.0 580.3 L900.0 459.2 L1000.0 522.5 L1100.0 530.1 L1200.0 500.8 L1300.0 565.4 L1400.0 628.9 L1500.0 724.1 L1600.0 656.3 L1600 900 Z" fill="hsl(97.4 47.1% 58.6%)"/><path d="M0 900 L0 622.8 L0.0 622.8 L88.9 651.9 L177.8 672.3 L266.7 595.7 L355.6 634.4 L444.4 617.8 L533.3 526.4 L622.2 565.3 L711.1 602.0 L800.0 606.2 L888.9 659.2 L977.8 679.2 L1066.7 664.8 L1155.6 662.8 L1244.4 619.8 L1333.3 570.6 L1422.2 535.5 L1511.1 545.3 L1600.0 545.4 L1600 900 Z" fill="hsl(120.6 43.5% 49.0%)"/><rect x="0" y="644.4" width="1600" height="197.7" fill="url(#g1buhnv0-fog3)"/><path d="M0 900 L0 614.9 L0.0 614.9 L106.7 619.2 L213.3 619.8 L320.0 616.2 L426.7 680.0 L533.3 653.6 L640.0 666.8 L746.7 690.8 L853.3 733.8 L960.0 738.2 L1066.7 732.6 L1173.3 659.7 L1280.0 607.8 L1386.7 577.6 L1493.3 648.0 L1600.0 650.1 L1600 900 Z" fill="hsl(153.2 38.5% 35.4%)"/><path d="M0 900 L0 743.3 L0.0 743.3 L106.7 736.5 L213.3 676.9 L320.0 689.5 L426.7 715.3 L533.3 695.6 L640.0 685.4 L746.7 680.0 L853.3 753.7 L960.0 762.0 L1066.7 760.2 L1173.3 710.0 L1280.0 685.3 L1386.7 708.9 L1493.3 668.1 L1600.0 660.1 L1600 900 Z" fill="hsl(195.0 32.0% 18.0%)"/><rect width="1600" height="900" fill="url(#g1buhnv0-vig)"/></svg>