<svg xmlns="http://www.w3.org/2000/svg" viewBox="0 0 1600 900" role="img" preserveAspectRatio="xMidYMid slice"><title>thakhek-loop-lao-4-ngay s2</title><defs><linearGradient id="g1p537b5-sky" x1="0" y1="0" x2="0" y2="1"><stop offset="0%" stop-color="hsl(265.0 38.0% 26.0%)"/><stop offset="50%" stop-color="hsl(348.0 55.0% 46.0%)"/><stop offset="100%" stop-color="hsl(22.0 90.0% 58.0%)"/></linearGradient><radialGradient id="g1p537b5-glow"><stop offset="0%" stop-color="hsl(24.0 95.0% 66.0% / 0.850)"/><stop offset="45%" stop-color="hsl(24.0 95.0% 66.0% / 0.250)"/><stop offset="100%" stop-color="hsl(24.0 95.0% 66.0% / 0.000)"/></radialGradient><radialGradient id="g1p537b5-vig" cx="50%" cy="42%" r="75%"><stop offset="70%" stop-color="hsl(0 0% 0% / 0)"/><stop offset="100%" stop-color="hsl(0 0% 0% / 0.18)"/></radialGradient></defs><rect width="1600" height="560.0" fill="url(#g1p537b5-sky)"/><rect y="559.0" width="1600" height="341.0" fill="hsl(305.5 43.5% 25.0%)"/><circle cx="568.2" cy="492.8" r="230" fill="url(#g1p537b5-glow)"/><circle cx="568.2" cy="492.8" r="78" fill="hsl(24.0 95.0% 66.0%)"/><path d="M0 900 L0 380.2 Q0.0 380.2 42.1 367.7 Q84.2 355.3 126.3 375.5 Q168.4 395.7 210.5 419.8 Q252.6 443.8 294.7 430.2 Q336.8 416.7 378.9 450.0 Q421.1 483.4 463.2 475.1 Q505.3 466.8 547.4 474.8 Q589.5 482.8 631.6 513.1 Q673.7 543.5 715.8 513.7 Q757.9 483.9 800.0 483.2 Q842.1 482.4 884.2 432.9 Q926.3 383.4 968.4 368.0 Q1010.5 352.6 1052.6 362.9 Q1094.7 373.1 1136.8 388.6 Q1178.9 404.2 1221.1 444.8 Q1263.2 485.4 1305.3 494.1 Q1347.4 502.7 1389.5 511.9 Q1431.6 521.1 1473.7 521.5 Q1515.8 521.8 1557.9 482.4 L1600 443.1 L1600 900 Z" fill="hsl(359.6 76.4% 48.3%)"/><path d="M0 900 L0 503.2 Q0.0 503.2 47.1 519.3 Q94.1 535.4 141.2 535.3 Q188.2 535.3 235.3 481.4 Q282.4 427.6 329.4 422.3 Q376.5 417.1 423.5 419.8 Q470.6 422.5 517.6 426.7 Q564.7 430.8 611.8 460.8 Q658.8 490.7 705.9 473.1 Q752.9 455.6 800.0 429.4 Q847.1 403.3 894.1 444.8 Q941.2 486.4 988.2 522.4 Q1035.3 558.4 1082.4 570.2 Q1129.4 582.0 1176.5 592.2 Q1223.5 602.5 1270.6 571.1 Q1317.6 539.6 1364.7 516.9 Q1411.8 494.2 1458.8 521.8 Q1505.9 549.5 1552.9 537.9 L1600 526.2 L1600 900 Z" fill="hsl(354.6 73.3% 46.2%)"/><path d="M0 900 L0 483.5 Q0.0 483.5 42.1 478.6 Q84.2 473.6 126.3 485.9 Q168.4 498.3 210.5 507.5 Q252.6 516.8 294.7 553.2 Q336.8 589.7 378.9 600.0 Q421.1 610.3 463.2 606.6 Q505.3 602.9 547.4 586.1 Q589.5 569.2 631.6 586.9 Q673.7 604.5 715.8 609.4 Q757.9 614.4 800.0 587.1 Q842.1 559.8 884.2 558.9 Q926.3 557.9 968.4 534.4 Q1010.5 510.8 1052.6 487.5 Q1094.7 464.1 1136.8 483.3 Q1178.9 502.5 1221.1 533.6 Q1263.2 564.8 1305.3 580.2 Q1347.4 595.6 1389.5 590.2 Q1431.6 584.7 1473.7 588.9 Q1515.8 593.1 1557.9 601.8 L1600 610.5 L1600 900 Z" fill="hsl(339.7 64.3% 39.7%)"/><path d="M0 900 L0 636.6 Q0.0 636.6 40.0 634.4 Q80.0 632.1 120.0 652.6 Q160.0 673.0 200.0 681.5 Q240.0 689.9 280.0 674.4 Q320.0 658.9 360.0 664.1 Q400.0 669.3 440.0 656.0 Q480.0 642.7 520.0 620.0 Q560.0 597.3 600.0 587.5 Q640.0 577.8 680.0 582.5 Q720.0 587.2 760.0 592.4 Q800.0 597.6 840.0 598.9 Q880.0 600.2 920.0 611.2 Q960.0 622.2 1000.0 614.9 Q1040.0 607.7 1080.0 605.4 Q1120.0 603.2 1160.0 609.7 Q1200.0 616.2 1240.0 624.8 Q1280.0 633.3 1320.0 647.8 Q1360.0 662.3 1400.0 677.3 Q1440.0 692.4 1480.0 697.4 Q1520.0 702.5 1560.0 682.2 L1600 662.0 L1600 900 Z" fill="hsl(314.8 49.2% 29.0%)"/><path d="M0 900 L0 705.0 Q0.0 705.0 53.3 692.9 Q106.7 680.8 160.0 668.2 Q213.3 655.6 266.7 660.5 Q320.0 665.4 373.3 680.5 Q426.7 695.6 480.0 712.3 Q533.3 729.0 586.7 715.6 Q640.0 702.1 693.3 715.8 Q746.7 729.5 800.0 728.9 Q853.3 728.3 906.7 728.8 Q960.0 729.4 1013.3 717.6 Q1066.7 705.8 1120.0 684.1 Q1173.3 662.4 1226.7 672.4 Q1280.0 682.3 1333.3 679.9 Q1386.7 677.6 1440.0 678.2 Q1493.3 678.8 1546.7 677.5 L1600 676.1 L1600 900 Z" fill="hsl(280.0 28.0% 14.0%)"/><rect width="1600" height="900" fill="url(#g1p537b5-vig)"/></svg>