<svg xmlns="http://www.w3.org/2000/svg" viewBox="0 0 1600 900" role="img" preserveAspectRatio="xMidYMid slice"><title>thakhek-loop-lao-4-ngay s1</title><defs><linearGradient id="giq53l0-sky" x1="0" y1="0" x2="0" y2="1"><stop offset="0%" stop-color="hsl(200.0 45.0% 58.0%)"/><stop offset="50%" stop-color="hsl(180.0 30.0% 72.0%)"/><stop offset="100%" stop-color="hsl(46.0 55.0% 80.0%)"/></linearGradient><radialGradient id="giq53l0-glow"><stop offset="0%" stop-color="hsl(44.0 80.0% 84.0% / 0.850)"/><stop offset="45%" stop-color="hsl(44.0 80.0% 84.0% / 0.250)"/><stop offset="100%" stop-color="hsl(44.0 80.0% 84.0% / 0.000)"/></radialGradient><linearGradient id="giq53l0-fog3" x1="0" y1="0" x2="0" y2="1"><stop offset="0%" stop-color="hsl(40 20% 96% / 0)"/><stop offset="55%" stop-color="hsl(40 20% 96% / 0.24)"/><stop offset="100%" stop-color="hsl(40 20% 96% / 0)"/></linearGradient><linearGradient id="giq53l0-fog4" x1="0" y1="0" x2="0" y2="1"><stop offset="0%" stop-color="hsl(40 20% 96% / 0)"/><stop offset="55%" stop-color="hsl(40 20% 96% / 0.27)"/><stop offset="100%" stop-color="hsl(40 20% 96% / 0)"/></linearGradient><radialGradient id="giq53l0-vig" cx="50%" cy="42%" r="75%"><stop offset="70%" stop-color="hsl(0 0% 0% / 0)"/><stop offset="100%" stop-color="hsl(0 0% 0% / 0.18)"/></radialGradient></defs><rect width="1600" height="560.8" fill="url(#giq53l0-sky)"/><rect y="559.8" width="1600" height="340.2" fill="hsl(157.8 37.8% 33.5%)"/><circle cx="617.4" cy="392.6" r="130" fill="url(#giq53l0-glow)"/><circle cx="617.4" cy="392.6" r="52" fill="hsl(44.0 80.0% 84.0%)"/><path d="M0 900 L0 569.3 L0.0 569.3 L76.2 538.5 L152.4 373.3 L228.6 321.0 L304.8 313.2 L381.0 341.1 L457.1 479.0 L533.3 497.7 L609.5 504.4 L685.7 557.5 L761.9 464.7 L838.1 430.7 L914.3 521.0 L990.5 476.6 L1066.7 372.1 L1142.9 368.8 L1219.0 350.2 L1295.2 328.5 L1371.4 418.7 L1447.6 587.4 L1523.8 513.5 L1600.0 454.5 L1600 900 Z" fill="hsl(78.8 49.9% 66.4%)"/><path d="M0 900 L0 558.6 L0.0 558.6 L114.3 547.7 L228.6 335.1 L342.9 373.5 L457.1 390.2 L571.4 467.3 L685.7 414.0 L800.0 503.0 L914.3 597.0 L1028.6 549.9 L1142.9 488.9 L1257.1 456.5 L1371.4 466.8 L1485.7 338.6 L1600.0 333.4 L1600 900 Z" fill="hsl(81.2 49.6% 65.4%)"/><path d="M0 900 L0 505.2 L0.0 505.2 L106.7 460.9 L213.3 437.1 L320.0 392.6 L426.7 434.3 L533.3 423.5 L640.0 617.5 L746.7 593.0 L853.3 594.8 L960.0 418.4 L1066.7 408.3 L1173.3 363.6 L1280.0 438.4 L1386.7 385.2 L1493.3 567.4 L1600.0 575.2 L1600 900 Z" fill="hsl(88.3 48.5% 62.4%)"/><path d="M0 900 L0 641.7 L0.0 641.7 L76.2 647.0 L152.4 589.1 L228.6 504.8 L304.8 546.0 L381.0 542.1 L457.1 498.1 L533.3 488.5 L609.5 501.1 L685.7 518.9 L761.9 501.9 L838.1 497.5 L914.3 538.1 L990.5 515.3 L1066.7 608.7 L1142.9 619.2 L1219.0 603.9 L1295.2 625.3 L1371.4 599.4 L1447.6 549.4 L1523.8 520.3 L1600.0 528.9 L1600 900 Z" fill="hsl(100.1 46.6% 57.5%)"/><rect x="0" y="573.4" width="1600" height="181.1" fill="url(#giq53l0-fog3)"/><path d="M0 900 L0 620.0 L0.0 620.0 L88.9 649.7 L177.8 649.9 L266.7 658.0 L355.6 605.6 L444.4 565.4 L533.3 545.3 L622.2 535.2 L711.1 541.3 L800.0 524.9 L888.9 499.8 L977.8 521.7 L1066.7 560.6 L1155.6 612.5 L1244.4 627.2 L1333.3 633.3 L1422.2 616.1 L1511.1 613.8 L1600.0 665.0 L1600 900 Z" fill="hsl(116.7 44.1% 50.6%)"/><rect x="0" y="605.2" width="1600" height="164.0" fill="url(#giq53l0-fog4)"/><path d="M0 900 L0 532.1 L0.0 532.1 L94.1 632.5 L188.2 624.4 L282.4 627.1 L376.5 623.0 L470.6 662.8 L564.7 637.0 L658.8 657.8 L752.9 526.7 L847.1 491.0 L941.2 545.2 L1035.3 582.0 L1129.4 663.4 L1223.5 621.1 L1317.6 633.0 L1411.8 670.1 L1505.9 681.2 L1600.0 571.2 L1600 900 Z" fill="hsl(138.1 40.8% 41.7%)"/><path d="M0 900 L0 675.2 L0.0 675.2 L80.0 676.0 L160.0 638.2 L240.0 629.5 L320.0 627.6 L400.0 619.5 L480.0 604.4 L560.0 626.3 L640.0 616.6 L720.0 684.4 L800.0 689.9 L880.0 723.6 L960.0 720.3 L1040.0 628.8 L1120.0 638.7 L1200.0 592.2 L1280.0 599.6 L1360.0 629.1 L1440.0 614.4 L1520.0 651.4 L1600.0 679.3 L1600 900 Z" fill="hsl(164.2 36.8% 30.8%)"/><path d="M0 900 L0 714.2 L0.0 714.2 L106.7 672.7 L213.3 721.1 L320.0 702.3 L426.7 679.8 L533.3 656.3 L640.0 640.1 L746.7 662.6 L853.3 733.9 L960.0 742.8 L1066.7 731.5 L1173.3 748.1 L1280.0 723.4 L1386.7 719.6 L1493.3 738.9 L1600.0 685.3 L1600 900 Z" fill="hsl(195.0 32.0% 18.0%)"/><rect width="1600" height="900" fill="url(#giq53l0-vig)"/></svg>