<svg xmlns="http://www.w3.org/2000/svg" viewBox="0 0 1600 900" role="img" preserveAspectRatio="xMidYMid slice"><title>nha-trang-deo-khanh-le-ve-dem hero</title><defs><linearGradient id="gocwo0q-sky" x1="0" y1="0" x2="0" y2="1"><stop offset="0%" stop-color="hsl(232.0 45.0% 8.0%)"/><stop offset="50%" stop-color="hsl(228.0 40.0% 14.0%)"/><stop offset="100%" stop-color="hsl(222.0 35.0% 22.0%)"/></linearGradient><radialGradient id="gocwo0q-glow"><stop offset="0%" stop-color="hsl(48.0 35.0% 88.0% / 0.850)"/><stop offset="45%" stop-color="hsl(48.0 35.0% 88.0% / 0.250)"/><stop offset="100%" stop-color="hsl(48.0 35.0% 88.0% / 0.000)"/></radialGradient><radialGradient id="gocwo0q-vig" cx="50%" cy="42%" r="75%"><stop offset="70%" stop-color="hsl(0 0% 0% / 0)"/><stop offset="100%" stop-color="hsl(0 0% 0% / 0.18)"/></radialGradient></defs><rect width="1600" height="603.4" fill="url(#gocwo0q-sky)"/><rect y="602.4" width="1600" height="297.6" fill="hsl(226.5 31.3% 12.3%)"/><g><circle cx="1175.4" cy="394.8" r="1.75" fill="hsl(50 30% 92% / 0.36)"/><circle cx="247.3" cy="138.0" r="1.92" fill="hsl(50 30% 92% / 0.56)"/><circle cx="663.0" cy="159.4" r="0.70" fill="hsl(50 30% 92% / 0.60)"/><circle cx="773.3" cy="28.9" r="1.10" fill="hsl(50 30% 92% / 0.57)"/><circle cx="945.3" cy="20.5" r="1.02" fill="hsl(50 30% 92% / 0.84)"/><circle cx="602.1" cy="365.7" r="0.94" fill="hsl(50 30% 92% / 0.43)"/><circle cx="38.2" cy="188.2" r="0.89" fill="hsl(50 30% 92% / 0.81)"/><circle cx="1396.2" cy="371.1" r="1.02" fill="hsl(50 30% 92% / 0.93)"/><circle cx="137.1" cy="170.5" r="0.95" fill="hsl(50 30% 92% / 0.64)"/><circle cx="614.2" cy="119.5" r="1.06" fill="hsl(50 30% 92% / 0.62)"/><circle cx="943.7" cy="8.2" r="1.85" fill="hsl(50 30% 92% / 0.41)"/><circle cx="189.1" cy="11.9" r="0.94" fill="hsl(50 30% 92% / 0.58)"/><circle cx="492.1" cy="215.3" r="0.82" fill="hsl(50 30% 92% / 0.88)"/><circle cx="955.7" cy="142.2" r="2.36" fill="hsl(50 30% 92% / 0.75)"/><circle cx="1522.7" cy="119.0" r="0.97" fill="hsl(50 30% 92% / 0.70)"/><circle cx="1451.7" cy="240.4" r="1.29" fill="hsl(50 30% 92% / 0.44)"/><circle cx="1369.8" cy="479.2" r="0.95" fill="hsl(50 30% 92% / 0.40)"/><circle cx="1333.5" cy="332.1" r="1.14" fill="hsl(50 30% 92% / 0.55)"/><circle cx="32.7" cy="500.2" r="0.91" fill="hsl(50 30% 92% / 0.44)"/><circle cx="739.9" cy="343.4" r="0.96" fill="hsl(50 30% 92% / 0.63)"/><circle cx="381.8" cy="366.0" r="1.15" fill="hsl(50 30% 92% / 0.47)"/><circle cx="169.2" cy="490.6" r="1.02" fill="hsl(50 30% 92% / 0.47)"/><circle cx="1455.5" cy="172.5" r="0.70" fill="hsl(50 30% 92% / 0.68)"/><circle cx="1098.2" cy="136.0" r="1.27" fill="hsl(50 30% 92% / 0.54)"/><circle cx="1546.4" cy="314.5" r="1.08" fill="hsl(50 30% 92% / 0.88)"/><circle cx="1317.6" cy="97.3" r="0.69" fill="hsl(50 30% 92% / 0.76)"/><circle cx="736.3" cy="353.4" r="2.47" fill="hsl(50 30% 92% / 0.88)"/><circle cx="86.6" cy="91.9" r="1.00" fill="hsl(50 30% 92% / 0.81)"/><circle cx="568.6" cy="39.4" r="1.19" fill="hsl(50 30% 92% / 0.95)"/><circle cx="1503.0" cy="349.7" r="0.87" fill="hsl(50 30% 92% / 0.93)"/><circle cx="586.5" cy="314.1" r="1.09" fill="hsl(50 30% 92% / 0.82)"/><circle cx="812.9" cy="112.0" r="1.27" fill="hsl(50 30% 92% / 0.60)"/><circle cx="412.4" cy="386.0" r="0.92" fill="hsl(50 30% 92% / 0.73)"/><circle cx="638.1" cy="308.4" r="0.79" fill="hsl(50 30% 92% / 0.93)"/><circle cx="1280.9" cy="145.8" r="1.29" fill="hsl(50 30% 92% / 0.85)"/><circle cx="200.1" cy="451.6" r="0.72" fill="hsl(50 30% 92% / 0.92)"/><circle cx="904.8" cy="450.4" r="0.64" fill="hsl(50 30% 92% / 0.69)"/><circle cx="598.8" cy="103.7" r="0.69" fill="hsl(50 30% 92% / 0.49)"/><circle cx="883.8" cy="540.5" r="1.29" fill="hsl(50 30% 92% / 0.80)"/><circle cx="125.4" cy="495.0" r="0.97" fill="hsl(50 30% 92% / 0.55)"/><circle cx="187.6" cy="296.8" r="0.68" fill="hsl(50 30% 92% / 0.55)"/><circle cx="1418.0" cy="145.3" r="1.23" fill="hsl(50 30% 92% / 0.55)"/><circle cx="510.2" cy="329.2" r="0.80" fill="hsl(50 30% 92% / 0.90)"/><circle cx="1097.8" cy="181.6" r="1.12" fill="hsl(50 30% 92% / 0.67)"/><circle cx="38.3" cy="484.2" r="0.74" fill="hsl(50 30% 92% / 0.87)"/><circle cx="1431.5" cy="483.4" r="0.84" fill="hsl(50 30% 92% / 0.43)"/><circle cx="863.7" cy="453.5" r="0.90" fill="hsl(50 30% 92% / 0.73)"/><circle cx="871.9" cy="291.8" r="0.97" fill="hsl(50 30% 92% / 0.61)"/><circle cx="1424.0" cy="163.9" r="1.09" fill="hsl(50 30% 92% / 0.62)"/><circle cx="1369.1" cy="345.3" r="0.73" fill="hsl(50 30% 92% / 0.51)"/><circle cx="302.8" cy="513.5" r="1.13" fill="hsl(50 30% 92% / 0.74)"/><circle cx="265.3" cy="325.0" r="1.10" fill="hsl(50 30% 92% / 0.48)"/><circle cx="642.2" cy="518.5" r="0.80" fill="hsl(50 30% 92% / 0.60)"/><circle cx="1332.1" cy="66.7" r="2.34" fill="hsl(50 30% 92% / 0.92)"/><circle cx="816.3" cy="208.3" r="1.01" fill="hsl(50 30% 92% / 0.78)"/><circle cx="319.9" cy="25.0" r="1.17" fill="hsl(50 30% 92% / 0.81)"/><circle cx="190.0" cy="251.5" r="1.01" fill="hsl(50 30% 92% / 0.74)"/><circle cx="766.5" cy="470.7" r="1.17" fill="hsl(50 30% 92% / 0.69)"/><circle cx="415.0" cy="369.2" r="1.17" fill="hsl(50 30% 92% / 0.62)"/><circle cx="748.8" cy="186.9" r="1.18" fill="hsl(50 30% 92% / 0.59)"/><circle cx="1123.2" cy="358.9" r="0.83" fill="hsl(50 30% 92% / 0.67)"/><circle cx="122.4" cy="302.6" r="0.75" fill="hsl(50 30% 92% / 0.43)"/><circle cx="904.4" cy="65.5" r="1.14" fill="hsl(50 30% 92% / 0.76)"/><circle cx="235.0" cy="154.6" r="1.09" fill="hsl(50 30% 92% / 0.74)"/><circle cx="1390.2" cy="332.5" r="2.03" fill="hsl(50 30% 92% / 0.76)"/><circle cx="264.4" cy="508.9" r="1.06" fill="hsl(50 30% 92% / 0.81)"/><circle cx="1068.3" cy="456.3" r="1.19" fill="hsl(50 30% 92% / 0.95)"/><circle cx="248.0" cy="123.3" r="0.97" fill="hsl(50 30% 92% / 0.46)"/><circle cx="269.4" cy="173.7" r="1.13" fill="hsl(50 30% 92% / 0.83)"/><circle cx="597.7" cy="419.8" r="1.30" fill="hsl(50 30% 92% / 0.60)"/><circle cx="1342.5" cy="180.9" r="1.17" fill="hsl(50 30% 92% / 0.94)"/><circle cx="241.8" cy="549.6" r="0.84" fill="hsl(50 30% 92% / 0.84)"/><circle cx="1255.4" cy="435.8" r="0.87" fill="hsl(50 30% 92% / 0.69)"/><circle cx="1123.2" cy="468.7" r="0.63" fill="hsl(50 30% 92% / 0.73)"/><circle cx="1596.0" cy="15.8" r="1.12" fill="hsl(50 30% 92% / 0.84)"/><circle cx="1238.0" cy="57.1" r="0.75" fill="hsl(50 30% 92% / 0.40)"/><circle cx="1143.5" cy="463.9" r="2.20" fill="hsl(50 30% 92% / 0.63)"/><circle cx="1360.5" cy="395.4" r="2.36" fill="hsl(50 30% 92% / 0.61)"/><circle cx="124.3" cy="353.2" r="0.93" fill="hsl(50 30% 92% / 0.81)"/><circle cx="1101.3" cy="17.2" r="0.94" fill="hsl(50 30% 92% / 0.58)"/><circle cx="1202.1" cy="396.0" r="0.90" fill="hsl(50 30% 92% / 0.54)"/><circle cx="394.3" cy="414.5" r="0.79" fill="hsl(50 30% 92% / 0.68)"/><circle cx="274.6" cy="514.7" r="0.70" fill="hsl(50 30% 92% / 0.89)"/><circle cx="211.8" cy="297.8" r="0.73" fill="hsl(50 30% 92% / 0.35)"/><circle cx="1011.9" cy="418.8" r="1.09" fill="hsl(50 30% 92% / 0.44)"/><circle cx="104.9" cy="83.4" r="0.62" fill="hsl(50 30% 92% / 0.85)"/><circle cx="163.2" cy="277.1" r="1.13" fill="hsl(50 30% 92% / 0.83)"/><circle cx="1278.1" cy="515.2" r="1.18" fill="hsl(50 30% 92% / 0.43)"/><circle cx="10.7" cy="514.8" r="1.29" fill="hsl(50 30% 92% / 0.60)"/><circle cx="16.3" cy="309.1" r="0.93" fill="hsl(50 30% 92% / 0.43)"/><circle cx="335.6" cy="435.8" r="0.81" fill="hsl(50 30% 92% / 0.82)"/><circle cx="1284.7" cy="516.8" r="1.17" fill="hsl(50 30% 92% / 0.84)"/><circle cx="1441.7" cy="286.5" r="1.14" fill="hsl(50 30% 92% / 0.68)"/><circle cx="102.3" cy="40.2" r="0.99" fill="hsl(50 30% 92% / 0.75)"/><circle cx="588.0" cy="422.9" r="0.91" fill="hsl(50 30% 92% / 0.46)"/><circle cx="872.2" cy="55.6" r="0.81" fill="hsl(50 30% 92% / 0.55)"/><circle cx="1300.2" cy="119.7" r="0.88" fill="hsl(50 30% 92% / 0.88)"/><circle cx="605.4" cy="302.3" r="1.00" fill="hsl(50 30% 92% / 0.50)"/><circle cx="874.3" cy="115.1" r="2.46" fill="hsl(50 30% 92% / 0.85)"/><circle cx="1599.4" cy="380.6" r="0.88" fill="hsl(50 30% 92% / 0.90)"/><circle cx="1324.2" cy="54.9" r="1.27" fill="hsl(50 30% 92% / 0.71)"/><circle cx="992.0" cy="331.8" r="1.12" fill="hsl(50 30% 92% / 0.90)"/><circle cx="586.4" cy="503.2" r="0.72" fill="hsl(50 30% 92% / 0.45)"/><circle cx="1010.8" cy="386.2" r="1.25" fill="hsl(50 30% 92% / 0.90)"/><circle cx="1343.5" cy="91.0" r="0.90" fill="hsl(50 30% 92% / 0.43)"/><circle cx="1502.3" cy="347.8" r="0.82" fill="hsl(50 30% 92% / 0.46)"/><circle cx="255.5" cy="188.3" r="0.95" fill="hsl(50 30% 92% / 0.56)"/><circle cx="43.3" cy="293.8" r="0.67" fill="hsl(50 30% 92% / 0.59)"/><circle cx="1063.4" cy="238.5" r="0.82" fill="hsl(50 30% 92% / 0.39)"/><circle cx="212.4" cy="139.2" r="0.61" fill="hsl(50 30% 92% / 0.62)"/><circle cx="469.4" cy="35.8" r="0.94" fill="hsl(50 30% 92% / 0.73)"/><circle cx="125.6" cy="12.3" r="0.86" fill="hsl(50 30% 92% / 0.80)"/><circle cx="1337.7" cy="234.6" r="0.86" fill="hsl(50 30% 92% / 0.67)"/><circle cx="1303.4" cy="4.9" r="1.06" fill="hsl(50 30% 92% / 0.41)"/><circle cx="1116.4" cy="216.2" r="0.95" fill="hsl(50 30% 92% / 0.57)"/><circle cx="962.8" cy="139.3" r="1.13" fill="hsl(50 30% 92% / 0.45)"/><circle cx="1469.2" cy="166.7" r="0.85" fill="hsl(50 30% 92% / 0.79)"/><circle cx="186.4" cy="63.3" r="0.65" fill="hsl(50 30% 92% / 0.85)"/><circle cx="554.8" cy="37.4" r="1.00" fill="hsl(50 30% 92% / 0.45)"/><circle cx="323.6" cy="150.7" r="1.01" fill="hsl(50 30% 92% / 0.39)"/><circle cx="858.8" cy="173.2" r="1.11" fill="hsl(50 30% 92% / 0.43)"/></g><circle cx="563.4" cy="168.9" r="110" fill="url(#gocwo0q-glow)"/><circle cx="563.4" cy="168.9" r="36" fill="hsl(48.0 35.0% 88.0%)"/><path d="M0 900 L0 426.9 Q0.0 426.9 47.1 389.0 Q94.1 351.0 141.2 343.4 Q188.2 335.7 235.3 352.1 Q282.4 368.5 329.4 432.3 Q376.5 496.1 423.5 501.3 Q470.6 506.5 517.6 528.8 Q564.7 551.1 611.8 514.6 Q658.8 478.0 705.9 474.7 Q752.9 471.4 800.0 475.1 Q847.1 478.9 894.1 443.1 Q941.2 407.3 988.2 404.9 Q1035.3 402.4 1082.4 379.8 Q1129.4 357.2 1176.5 375.2 Q1223.5 393.3 1270.6 437.7 Q1317.6 482.1 1364.7 514.5 Q1411.8 546.9 1458.8 586.0 Q1505.9 625.2 1552.9 569.2 L1600 513.3 L1600 900 Z" fill="hsl(223.3 33.9% 19.1%)"/><path d="M0 900 L0 549.0 Q0.0 549.0 47.1 561.2 Q94.1 573.4 141.2 551.6 Q188.2 529.9 235.3 542.0 Q282.4 554.1 329.4 547.7 Q376.5 541.2 423.5 522.9 Q470.6 504.7 517.6 494.2 Q564.7 483.7 611.8 452.2 Q658.8 420.7 705.9 428.4 Q752.9 436.1 800.0 440.3 Q847.1 444.6 894.1 489.9 Q941.2 535.2 988.2 578.5 Q1035.3 621.8 1082.4 626.9 Q1129.4 632.0 1176.5 634.0 Q1223.5 636.0 1270.6 584.4 Q1317.6 532.7 1364.7 537.8 Q1411.8 542.9 1458.8 509.3 Q1505.9 475.7 1552.9 480.7 L1600 485.6 L1600 900 Z" fill="hsl(223.6 33.7% 18.5%)"/><path d="M0 900 L0 648.8 Q0.0 648.8 47.1 640.4 Q94.1 631.9 141.2 621.2 Q188.2 610.4 235.3 621.9 Q282.4 633.4 329.4 632.2 Q376.5 631.1 423.5 605.6 Q470.6 580.0 517.6 559.1 Q564.7 538.3 611.8 528.5 Q658.8 518.7 705.9 541.7 Q752.9 564.7 800.0 580.2 Q847.1 595.7 894.1 585.0 Q941.2 574.2 988.2 585.0 Q1035.3 595.8 1082.4 601.9 Q1129.4 608.1 1176.5 641.9 Q1223.5 675.7 1270.6 675.1 Q1317.6 674.4 1364.7 648.4 Q1411.8 622.5 1458.8 613.0 Q1505.9 603.4 1552.9 590.4 L1600 577.4 L1600 900 Z" fill="hsl(224.5 32.9% 16.6%)"/><path d="M0 900 L0 657.5 Q0.0 657.5 57.1 667.6 Q114.3 677.7 171.4 663.9 Q228.6 650.0 285.7 655.0 Q342.9 660.0 400.0 631.4 Q457.1 602.8 514.3 602.8 Q571.4 602.9 628.6 611.2 Q685.7 619.6 742.9 644.9 Q800.0 670.2 857.1 668.8 Q914.3 667.4 971.4 673.2 Q1028.6 679.1 1085.7 673.0 Q1142.9 667.0 1200.0 683.3 Q1257.1 699.6 1314.3 691.1 Q1371.4 682.7 1428.6 653.2 Q1485.7 623.8 1542.9 610.0 L1600 596.2 L1600 900 Z" fill="hsl(226.0 31.7% 13.4%)"/><path d="M0 900 L0 714.7 Q0.0 714.7 38.1 706.6 Q76.2 698.6 114.3 696.7 Q152.4 694.8 190.5 683.6 Q228.6 672.4 266.7 681.9 Q304.8 691.5 342.9 693.0 Q381.0 694.6 419.0 682.1 Q457.1 669.7 495.2 676.6 Q533.3 683.6 571.4 684.4 Q609.5 685.1 647.6 683.8 Q685.7 682.6 723.8 707.8 Q761.9 733.0 800.0 738.5 Q838.1 743.9 876.2 748.1 Q914.3 752.3 952.4 753.1 Q990.5 753.9 1028.6 739.7 Q1066.7 725.6 1104.8 706.2 Q1142.9 686.7 1181.0 688.3 Q1219.0 689.9 1257.1 681.8 Q1295.2 673.6 1333.3 681.4 Q1371.4 689.2 1409.5 689.9 Q1447.6 690.6 1485.7 680.8 Q1523.8 670.9 1561.9 670.6 L1600 670.3 L1600 900 Z" fill="hsl(228.0 30.0% 9.0%)"/><path d="M466.5 900 C260.0 753.6911566611379 963.1 677.4 969.1 607.4 L971.1 607.4 C979.1 677.4 772.0 753.6911566611379 978.5 900 Z" fill="hsl(228.0 22.0% 13.0%)"/><path d="M722.5 900 C516.0 753.6911566611379 969.1 667.4 970.1 607.4" fill="none" stroke="hsl(45 90% 70% / 0.85)" stroke-width="7" stroke-dasharray="46 38" stroke-linecap="round"/><rect width="1600" height="900" fill="url(#gocwo0q-vig)"/></svg>