<svg xmlns="http://www.w3.org/2000/svg" viewBox="0 0 1600 900" role="img" preserveAspectRatio="xMidYMid slice"><title>nha-trang-deo-khanh-le-ve-dem s1</title><defs><linearGradient id="gcd5b6u-sky" x1="0" y1="0" x2="0" y2="1"><stop offset="0%" stop-color="hsl(232.0 45.0% 8.0%)"/><stop offset="50%" stop-color="hsl(228.0 40.0% 14.0%)"/><stop offset="100%" stop-color="hsl(222.0 35.0% 22.0%)"/></linearGradient><radialGradient id="gcd5b6u-glow"><stop offset="0%" stop-color="hsl(48.0 35.0% 88.0% / 0.850)"/><stop offset="45%" stop-color="hsl(48.0 35.0% 88.0% / 0.250)"/><stop offset="100%" stop-color="hsl(48.0 35.0% 88.0% / 0.000)"/></radialGradient><radialGradient id="gcd5b6u-vig" cx="50%" cy="42%" r="75%"><stop offset="70%" stop-color="hsl(0 0% 0% / 0)"/><stop offset="100%" stop-color="hsl(0 0% 0% / 0.18)"/></radialGradient></defs><rect width="1600" height="594.2" fill="url(#gcd5b6u-sky)"/><rect y="593.2" width="1600" height="306.8" fill="hsl(226.5 31.3% 12.3%)"/><g><circle cx="737.4" cy="216.6" r="0.69" fill="hsl(50 30% 92% / 0.74)"/><circle cx="50.1" cy="291.5" r="1.18" fill="hsl(50 30% 92% / 0.74)"/><circle cx="1168.4" cy="381.0" r="1.12" fill="hsl(50 30% 92% / 0.38)"/><circle cx="1368.4" cy="185.4" r="0.83" fill="hsl(50 30% 92% / 0.64)"/><circle cx="1012.6" cy="516.8" r="0.73" fill="hsl(50 30% 92% / 0.83)"/><circle cx="519.2" cy="52.7" r="0.65" fill="hsl(50 30% 92% / 0.36)"/><circle cx="285.7" cy="71.8" r="1.08" fill="hsl(50 30% 92% / 0.53)"/><circle cx="610.6" cy="132.6" r="0.74" fill="hsl(50 30% 92% / 0.61)"/><circle cx="1445.8" cy="48.4" r="1.13" fill="hsl(50 30% 92% / 0.85)"/><circle cx="194.4" cy="134.4" r="0.79" fill="hsl(50 30% 92% / 0.45)"/><circle cx="478.8" cy="81.5" r="0.66" fill="hsl(50 30% 92% / 0.78)"/><circle cx="177.7" cy="361.1" r="1.14" fill="hsl(50 30% 92% / 0.60)"/><circle cx="1533.7" cy="22.0" r="1.93" fill="hsl(50 30% 92% / 0.92)"/><circle cx="331.9" cy="315.6" r="1.01" fill="hsl(50 30% 92% / 0.45)"/><circle cx="1517.7" cy="246.1" r="1.03" fill="hsl(50 30% 92% / 0.50)"/><circle cx="551.9" cy="337.8" r="1.09" fill="hsl(50 30% 92% / 0.59)"/><circle cx="74.1" cy="224.9" r="1.06" fill="hsl(50 30% 92% / 0.39)"/><circle cx="304.9" cy="510.7" r="0.90" fill="hsl(50 30% 92% / 0.51)"/><circle cx="1542.2" cy="371.0" r="0.83" fill="hsl(50 30% 92% / 0.44)"/><circle cx="1504.2" cy="347.7" r="0.90" fill="hsl(50 30% 92% / 0.54)"/><circle cx="223.2" cy="246.3" r="1.17" fill="hsl(50 30% 92% / 0.40)"/><circle cx="1350.5" cy="449.3" r="0.89" fill="hsl(50 30% 92% / 0.76)"/><circle cx="137.2" cy="459.4" r="0.83" fill="hsl(50 30% 92% / 0.61)"/><circle cx="787.1" cy="444.1" r="0.60" fill="hsl(50 30% 92% / 0.41)"/><circle cx="690.4" cy="488.9" r="1.13" fill="hsl(50 30% 92% / 0.84)"/><circle cx="560.1" cy="137.8" r="1.00" fill="hsl(50 30% 92% / 0.79)"/><circle cx="1599.7" cy="270.7" r="0.79" fill="hsl(50 30% 92% / 0.71)"/><circle cx="773.8" cy="176.4" r="1.21" fill="hsl(50 30% 92% / 0.54)"/><circle cx="1263.1" cy="475.6" r="0.61" fill="hsl(50 30% 92% / 0.39)"/><circle cx="472.5" cy="16.4" r="0.89" fill="hsl(50 30% 92% / 0.82)"/><circle cx="1067.3" cy="13.8" r="1.09" fill="hsl(50 30% 92% / 0.58)"/><circle cx="869.9" cy="480.9" r="0.85" fill="hsl(50 30% 92% / 0.38)"/><circle cx="810.2" cy="467.9" r="0.65" fill="hsl(50 30% 92% / 0.91)"/><circle cx="518.9" cy="230.1" r="0.99" fill="hsl(50 30% 92% / 0.65)"/><circle cx="1519.5" cy="322.0" r="1.15" fill="hsl(50 30% 92% / 0.69)"/><circle cx="119.6" cy="506.5" r="1.08" fill="hsl(50 30% 92% / 0.59)"/><circle cx="508.6" cy="176.5" r="0.66" fill="hsl(50 30% 92% / 0.71)"/><circle cx="981.9" cy="130.9" r="0.88" fill="hsl(50 30% 92% / 0.73)"/><circle cx="335.8" cy="507.5" r="0.92" fill="hsl(50 30% 92% / 0.73)"/><circle cx="224.8" cy="201.8" r="1.02" fill="hsl(50 30% 92% / 0.84)"/><circle cx="1513.1" cy="107.3" r="0.96" fill="hsl(50 30% 92% / 0.44)"/><circle cx="59.2" cy="29.3" r="1.16" fill="hsl(50 30% 92% / 0.53)"/><circle cx="882.9" cy="393.7" r="0.71" fill="hsl(50 30% 92% / 0.60)"/><circle cx="1094.7" cy="377.8" r="2.41" fill="hsl(50 30% 92% / 0.46)"/><circle cx="1155.5" cy="305.3" r="1.10" fill="hsl(50 30% 92% / 0.44)"/><circle cx="587.9" cy="108.3" r="1.05" fill="hsl(50 30% 92% / 0.69)"/><circle cx="606.9" cy="468.5" r="0.86" fill="hsl(50 30% 92% / 0.93)"/><circle cx="813.2" cy="519.1" r="1.18" fill="hsl(50 30% 92% / 0.66)"/><circle cx="17.9" cy="329.9" r="0.68" fill="hsl(50 30% 92% / 0.37)"/><circle cx="693.0" cy="51.5" r="1.25" fill="hsl(50 30% 92% / 0.94)"/><circle cx="1016.6" cy="478.7" r="0.95" fill="hsl(50 30% 92% / 0.90)"/><circle cx="1144.1" cy="145.1" r="0.80" fill="hsl(50 30% 92% / 0.77)"/><circle cx="1466.4" cy="23.2" r="1.23" fill="hsl(50 30% 92% / 0.66)"/><circle cx="1553.7" cy="249.0" r="0.91" fill="hsl(50 30% 92% / 0.38)"/><circle cx="1522.1" cy="160.7" r="1.06" fill="hsl(50 30% 92% / 0.79)"/><circle cx="1409.7" cy="30.8" r="1.11" fill="hsl(50 30% 92% / 0.70)"/><circle cx="704.4" cy="303.4" r="0.72" fill="hsl(50 30% 92% / 0.38)"/><circle cx="1523.2" cy="342.9" r="0.88" fill="hsl(50 30% 92% / 0.39)"/><circle cx="946.3" cy="104.3" r="0.80" fill="hsl(50 30% 92% / 0.39)"/><circle cx="1194.0" cy="416.9" r="1.22" fill="hsl(50 30% 92% / 0.50)"/><circle cx="1386.2" cy="405.4" r="1.19" fill="hsl(50 30% 92% / 0.51)"/><circle cx="1015.0" cy="439.5" r="0.60" fill="hsl(50 30% 92% / 0.61)"/><circle cx="725.9" cy="296.9" r="0.82" fill="hsl(50 30% 92% / 0.52)"/><circle cx="1276.8" cy="522.6" r="1.03" fill="hsl(50 30% 92% / 0.66)"/><circle cx="855.0" cy="9.4" r="0.92" fill="hsl(50 30% 92% / 0.81)"/><circle cx="462.7" cy="278.2" r="1.18" fill="hsl(50 30% 92% / 0.90)"/><circle cx="1416.3" cy="39.6" r="0.66" fill="hsl(50 30% 92% / 0.45)"/><circle cx="55.9" cy="194.2" r="0.86" fill="hsl(50 30% 92% / 0.41)"/><circle cx="280.0" cy="479.6" r="1.24" fill="hsl(50 30% 92% / 0.50)"/><circle cx="373.6" cy="224.1" r="0.77" fill="hsl(50 30% 92% / 0.90)"/><circle cx="1045.1" cy="197.1" r="0.85" fill="hsl(50 30% 92% / 0.69)"/><circle cx="890.8" cy="230.0" r="0.88" fill="hsl(50 30% 92% / 0.82)"/><circle cx="725.3" cy="426.4" r="1.18" fill="hsl(50 30% 92% / 0.87)"/><circle cx="316.1" cy="128.6" r="1.20" fill="hsl(50 30% 92% / 0.62)"/><circle cx="751.2" cy="385.9" r="0.66" fill="hsl(50 30% 92% / 0.56)"/><circle cx="1440.8" cy="372.5" r="2.13" fill="hsl(50 30% 92% / 0.58)"/><circle cx="864.4" cy="435.7" r="1.16" fill="hsl(50 30% 92% / 0.57)"/><circle cx="231.0" cy="418.1" r="0.78" fill="hsl(50 30% 92% / 0.57)"/><circle cx="1320.4" cy="302.0" r="1.01" fill="hsl(50 30% 92% / 0.76)"/><circle cx="607.7" cy="198.7" r="1.20" fill="hsl(50 30% 92% / 0.64)"/><circle cx="1334.5" cy="277.1" r="1.71" fill="hsl(50 30% 92% / 0.84)"/><circle cx="1038.1" cy="213.7" r="0.76" fill="hsl(50 30% 92% / 0.62)"/><circle cx="1346.8" cy="30.5" r="0.80" fill="hsl(50 30% 92% / 0.71)"/><circle cx="1395.7" cy="113.2" r="1.24" fill="hsl(50 30% 92% / 0.56)"/><circle cx="240.1" cy="447.2" r="1.22" fill="hsl(50 30% 92% / 0.58)"/><circle cx="1353.1" cy="258.7" r="0.90" fill="hsl(50 30% 92% / 0.82)"/><circle cx="17.1" cy="329.8" r="0.96" fill="hsl(50 30% 92% / 0.72)"/><circle cx="296.7" cy="398.3" r="0.64" fill="hsl(50 30% 92% / 0.50)"/><circle cx="467.2" cy="329.7" r="1.02" fill="hsl(50 30% 92% / 0.49)"/><circle cx="1442.2" cy="391.5" r="0.61" fill="hsl(50 30% 92% / 0.79)"/><circle cx="721.1" cy="235.1" r="0.63" fill="hsl(50 30% 92% / 0.41)"/><circle cx="97.8" cy="186.8" r="0.98" fill="hsl(50 30% 92% / 0.65)"/><circle cx="430.4" cy="258.4" r="0.92" fill="hsl(50 30% 92% / 0.83)"/><circle cx="326.5" cy="39.4" r="0.72" fill="hsl(50 30% 92% / 0.54)"/><circle cx="1019.3" cy="37.5" r="0.66" fill="hsl(50 30% 92% / 0.87)"/><circle cx="784.1" cy="6.5" r="0.95" fill="hsl(50 30% 92% / 0.63)"/><circle cx="255.7" cy="133.7" r="1.12" fill="hsl(50 30% 92% / 0.81)"/><circle cx="711.5" cy="474.1" r="0.88" fill="hsl(50 30% 92% / 0.38)"/><circle cx="150.6" cy="425.5" r="1.23" fill="hsl(50 30% 92% / 0.80)"/><circle cx="589.1" cy="350.3" r="2.49" fill="hsl(50 30% 92% / 0.53)"/><circle cx="365.9" cy="114.9" r="0.84" fill="hsl(50 30% 92% / 0.68)"/><circle cx="1159.9" cy="444.5" r="1.05" fill="hsl(50 30% 92% / 0.53)"/></g><circle cx="606.0" cy="166.4" r="110" fill="url(#gcd5b6u-glow)"/><circle cx="606.0" cy="166.4" r="36" fill="hsl(48.0 35.0% 88.0%)"/><path d="M0 900 L0 466.7 Q0.0 466.7 53.3 500.1 Q106.7 533.5 160.0 543.4 Q213.3 553.2 266.7 539.1 Q320.0 525.0 373.3 471.1 Q426.7 417.1 480.0 426.1 Q533.3 435.0 586.7 434.9 Q640.0 434.8 693.3 410.7 Q746.7 386.6 800.0 386.2 Q853.3 385.8 906.7 392.6 Q960.0 399.4 1013.3 449.9 Q1066.7 500.4 1120.0 533.4 Q1173.3 566.4 1226.7 554.2 Q1280.0 542.0 1333.3 536.0 Q1386.7 530.0 1440.0 458.3 Q1493.3 386.6 1546.7 373.3 L1600 360.1 L1600 900 Z" fill="hsl(223.3 33.9% 19.1%)"/><path d="M0 900 L0 646.6 Q0.0 646.6 47.1 613.5 Q94.1 580.4 141.2 554.1 Q188.2 527.9 235.3 492.6 Q282.4 457.3 329.4 477.4 Q376.5 497.5 423.5 475.7 Q470.6 454.0 517.6 460.9 Q564.7 467.8 611.8 470.1 Q658.8 472.4 705.9 460.1 Q752.9 447.9 800.0 486.0 Q847.1 524.2 894.1 552.8 Q941.2 581.4 988.2 610.1 Q1035.3 638.8 1082.4 613.0 Q1129.4 587.3 1176.5 552.7 Q1223.5 518.2 1270.6 487.4 Q1317.6 456.6 1364.7 439.5 Q1411.8 422.3 1458.8 436.8 Q1505.9 451.2 1552.9 455.1 L1600 458.9 L1600 900 Z" fill="hsl(223.6 33.7% 18.5%)"/><path d="M0 900 L0 520.9 Q0.0 520.9 53.3 548.6 Q106.7 576.3 160.0 569.9 Q213.3 563.6 266.7 569.1 Q320.0 574.7 373.3 568.8 Q426.7 562.9 480.0 574.0 Q533.3 585.0 586.7 598.8 Q640.0 612.5 693.3 638.6 Q746.7 664.6 800.0 650.4 Q853.3 636.3 906.7 611.1 Q960.0 586.0 1013.3 561.0 Q1066.7 535.9 1120.0 536.7 Q1173.3 537.4 1226.7 542.0 Q1280.0 546.6 1333.3 563.3 Q1386.7 579.9 1440.0 594.5 Q1493.3 609.0 1546.7 601.9 L1600 594.7 L1600 900 Z" fill="hsl(224.5 32.9% 16.6%)"/><path d="M0 900 L0 619.3 Q0.0 619.3 40.0 627.3 Q80.0 635.4 120.0 649.8 Q160.0 664.2 200.0 691.4 Q240.0 718.6 280.0 722.1 Q320.0 725.6 360.0 703.1 Q400.0 680.6 440.0 670.1 Q480.0 659.6 520.0 647.9 Q560.0 636.3 600.0 627.6 Q640.0 619.0 680.0 622.0 Q720.0 625.0 760.0 632.0 Q800.0 639.1 840.0 642.9 Q880.0 646.6 920.0 643.0 Q960.0 639.3 1000.0 640.9 Q1040.0 642.5 1080.0 660.7 Q1120.0 678.8 1160.0 693.2 Q1200.0 707.5 1240.0 707.9 Q1280.0 708.3 1320.0 696.4 Q1360.0 684.4 1400.0 668.8 Q1440.0 653.1 1480.0 628.5 Q1520.0 603.9 1560.0 600.0 L1600 596.1 L1600 900 Z" fill="hsl(226.0 31.7% 13.4%)"/><path d="M0 900 L0 724.6 Q0.0 724.6 50.0 734.5 Q100.0 744.3 150.0 729.3 Q200.0 714.3 250.0 689.7 Q300.0 665.0 350.0 661.6 Q400.0 658.2 450.0 651.9 Q500.0 645.6 550.0 669.2 Q600.0 692.7 650.0 692.7 Q700.0 692.8 750.0 684.1 Q800.0 675.4 850.0 693.8 Q900.0 712.2 950.0 717.8 Q1000.0 723.3 1050.0 747.8 Q1100.0 772.3 1150.0 750.7 Q1200.0 729.1 1250.0 724.9 Q1300.0 720.6 1350.0 699.8 Q1400.0 678.9 1450.0 665.8 Q1500.0 652.8 1550.0 665.4 L1600 678.0 L1600 900 Z" fill="hsl(228.0 30.0% 9.0%)"/><path d="M385.9 900 C366.3 749.0830983724445 934.9 668.2 940.9 598.2 L942.9 598.2 C950.9 668.2 878.3 749.0830983724445 897.9 900 Z" fill="hsl(228.0 22.0% 13.0%)"/><path d="M641.9 900 C622.3 749.0830983724445 940.9 658.2 941.9 598.2" fill="none" stroke="hsl(45 90% 70% / 0.85)" stroke-width="7" stroke-dasharray="46 38" stroke-linecap="round"/><rect width="1600" height="900" fill="url(#gcd5b6u-vig)"/></svg>