<svg xmlns="http://www.w3.org/2000/svg" viewBox="0 0 1600 900" role="img" preserveAspectRatio="xMidYMid slice"><title>nha-trang-deo-khanh-le-ve-dem s2</title><defs><linearGradient id="gp5q9dj-sky" x1="0" y1="0" x2="0" y2="1"><stop offset="0%" stop-color="hsl(265.0 38.0% 26.0%)"/><stop offset="50%" stop-color="hsl(348.0 55.0% 46.0%)"/><stop offset="100%" stop-color="hsl(22.0 90.0% 58.0%)"/></linearGradient><radialGradient id="gp5q9dj-glow"><stop offset="0%" stop-color="hsl(24.0 95.0% 66.0% / 0.850)"/><stop offset="45%" stop-color="hsl(24.0 95.0% 66.0% / 0.250)"/><stop offset="100%" stop-color="hsl(24.0 95.0% 66.0% / 0.000)"/></radialGradient><radialGradient id="gp5q9dj-vig" cx="50%" cy="42%" r="75%"><stop offset="70%" stop-color="hsl(0 0% 0% / 0)"/><stop offset="100%" stop-color="hsl(0 0% 0% / 0.18)"/></radialGradient></defs><rect width="1600" height="552.6" fill="url(#gp5q9dj-sky)"/><rect y="551.6" width="1600" height="348.4" fill="hsl(305.5 43.5% 25.0%)"/><circle cx="700.9" cy="486.3" r="230" fill="url(#gp5q9dj-glow)"/><circle cx="700.9" cy="486.3" r="78" fill="hsl(24.0 95.0% 66.0%)"/><path d="M0 900 L0 367.8 Q0.0 367.8 47.1 361.0 Q94.1 354.2 141.2 381.5 Q188.2 408.8 235.3 457.1 Q282.4 505.3 329.4 519.6 Q376.5 533.9 423.5 551.6 Q470.6 569.2 517.6 524.1 Q564.7 478.9 611.8 438.3 Q658.8 397.7 705.9 360.1 Q752.9 322.4 800.0 343.8 Q847.1 365.2 894.1 377.6 Q941.2 389.9 988.2 430.1 Q1035.3 470.3 1082.4 502.1 Q1129.4 534.0 1176.5 515.5 Q1223.5 497.1 1270.6 502.8 Q1317.6 508.5 1364.7 463.0 Q1411.8 417.5 1458.8 408.5 Q1505.9 399.6 1552.9 402.0 L1600 404.3 L1600 900 Z" fill="hsl(359.6 76.4% 48.3%)"/><path d="M0 900 L0 402.0 Q0.0 402.0 47.1 397.7 Q94.1 393.5 141.2 415.0 Q188.2 436.6 235.3 468.2 Q282.4 499.8 329.4 528.5 Q376.5 557.3 423.5 572.8 Q470.6 588.3 517.6 574.0 Q564.7 559.8 611.8 540.1 Q658.8 520.5 705.9 516.5 Q752.9 512.6 800.0 518.8 Q847.1 524.9 894.1 510.5 Q941.2 496.1 988.2 499.7 Q1035.3 503.4 1082.4 495.7 Q1129.4 487.9 1176.5 440.0 Q1223.5 392.2 1270.6 406.7 Q1317.6 421.3 1364.7 413.9 Q1411.8 406.5 1458.8 402.7 Q1505.9 398.9 1552.9 442.2 L1600 485.5 L1600 900 Z" fill="hsl(354.6 73.3% 46.2%)"/><path d="M0 900 L0 530.1 Q0.0 530.1 50.0 499.8 Q100.0 469.5 150.0 494.0 Q200.0 518.5 250.0 530.1 Q300.0 541.7 350.0 584.3 Q400.0 626.9 450.0 631.6 Q500.0 636.2 550.0 615.0 Q600.0 593.8 650.0 582.9 Q700.0 572.0 750.0 551.8 Q800.0 531.6 850.0 545.7 Q900.0 559.7 950.0 551.7 Q1000.0 543.6 1050.0 517.2 Q1100.0 490.7 1150.0 492.2 Q1200.0 493.8 1250.0 503.2 Q1300.0 512.7 1350.0 561.2 Q1400.0 609.8 1450.0 626.8 Q1500.0 643.9 1550.0 630.8 L1600 617.7 L1600 900 Z" fill="hsl(339.7 64.3% 39.7%)"/><path d="M0 900 L0 624.1 Q0.0 624.1 57.1 649.2 Q114.3 674.4 171.4 661.7 Q228.6 649.0 285.7 660.2 Q342.9 671.3 400.0 663.2 Q457.1 655.1 514.3 659.6 Q571.4 664.1 628.6 627.0 Q685.7 589.9 742.9 582.0 Q800.0 574.0 857.1 586.6 Q914.3 599.1 971.4 609.7 Q1028.6 620.3 1085.7 627.6 Q1142.9 635.0 1200.0 638.6 Q1257.1 642.2 1314.3 670.9 Q1371.4 699.6 1428.6 682.3 Q1485.7 664.9 1542.9 652.8 L1600 640.6 L1600 900 Z" fill="hsl(314.8 49.2% 29.0%)"/><path d="M0 900 L0 657.7 Q0.0 657.7 50.0 660.5 Q100.0 663.3 150.0 689.8 Q200.0 716.2 250.0 712.9 Q300.0 709.5 350.0 715.3 Q400.0 721.2 450.0 708.6 Q500.0 696.0 550.0 698.5 Q600.0 701.0 650.0 712.7 Q700.0 724.4 750.0 709.0 Q800.0 693.5 850.0 677.5 Q900.0 661.5 950.0 656.2 Q1000.0 651.0 1050.0 654.2 Q1100.0 657.4 1150.0 671.3 Q1200.0 685.2 1250.0 677.1 Q1300.0 669.1 1350.0 671.4 Q1400.0 673.8 1450.0 681.3 Q1500.0 688.8 1550.0 706.6 L1600 724.4 L1600 900 Z" fill="hsl(280.0 28.0% 14.0%)"/><rect width="1600" height="900" fill="url(#gp5q9dj-vig)"/></svg>