<svg xmlns="http://www.w3.org/2000/svg" viewBox="0 0 1600 900" role="img" preserveAspectRatio="xMidYMid slice"><title>da-lat-deo-omega-hon-giao hero</title><defs><linearGradient id="g1gogw1u-sky" x1="0" y1="0" x2="0" y2="1"><stop offset="0%" stop-color="hsl(210.0 14.0% 74.0%)"/><stop offset="50%" stop-color="hsl(210.0 12.0% 82.0%)"/><stop offset="100%" stop-color="hsl(36.0 18.0% 86.0%)"/></linearGradient><radialGradient id="g1gogw1u-glow"><stop offset="0%" stop-color="hsl(40.0 30.0% 92.0% / 0.850)"/><stop offset="45%" stop-color="hsl(40.0 30.0% 92.0% / 0.250)"/><stop offset="100%" stop-color="hsl(40.0 30.0% 92.0% / 0.000)"/></radialGradient><linearGradient id="g1gogw1u-fog2" x1="0" y1="0" x2="0" y2="1"><stop offset="0%" stop-color="hsl(40 20% 96% / 0)"/><stop offset="55%" stop-color="hsl(40 20% 96% / 0.18)"/><stop offset="100%" stop-color="hsl(40 20% 96% / 0)"/></linearGradient><linearGradient id="g1gogw1u-fog3" x1="0" y1="0" x2="0" y2="1"><stop offset="0%" stop-color="hsl(40 20% 96% / 0)"/><stop offset="55%" stop-color="hsl(40 20% 96% / 0.23)"/><stop offset="100%" stop-color="hsl(40 20% 96% / 0)"/></linearGradient><linearGradient id="g1gogw1u-fog5" x1="0" y1="0" x2="0" y2="1"><stop offset="0%" stop-color="hsl(40 20% 96% / 0)"/><stop offset="55%" stop-color="hsl(40 20% 96% / 0.24)"/><stop offset="100%" stop-color="hsl(40 20% 96% / 0)"/></linearGradient><radialGradient id="g1gogw1u-vig" cx="50%" cy="42%" r="75%"><stop offset="70%" stop-color="hsl(0 0% 0% / 0)"/><stop offset="100%" stop-color="hsl(0 0% 0% / 0.18)"/></radialGradient></defs><rect width="1600" height="618.9" fill="url(#g1gogw1u-sky)"/><rect y="617.9" width="1600" height="282.1" fill="hsl(168.0 16.5% 44.0%)"/><circle cx="503.5" cy="278.5" r="90" fill="url(#g1gogw1u-glow)"/><circle cx="503.5" cy="278.5" r="46" fill="hsl(40.0 30.0% 92.0%)"/><path d="M0 900 L0 382.8 Q0.0 382.8 40.0 360.7 Q80.0 338.6 120.0 325.0 Q160.0 311.4 200.0 317.7 Q240.0 324.1 280.0 363.0 Q320.0 402.0 360.0 486.4 Q400.0 570.8 440.0 590.9 Q480.0 611.0 520.0 584.3 Q560.0 557.5 600.0 539.5 Q640.0 521.5 680.0 486.5 Q720.0 451.4 760.0 422.6 Q800.0 393.8 840.0 385.2 Q880.0 376.6 920.0 390.8 Q960.0 405.0 1000.0 411.5 Q1040.0 418.1 1080.0 371.2 Q1120.0 324.3 1160.0 344.1 Q1200.0 364.0 1240.0 398.3 Q1280.0 432.6 1320.0 454.8 Q1360.0 477.0 1400.0 507.8 Q1440.0 538.6 1480.0 583.6 Q1520.0 628.6 1560.0 602.6 L1600 576.7 L1600 900 Z" fill="hsl(74.7 17.6% 73.7%)"/><path d="M0 900 L0 538.6 Q0.0 538.6 44.4 570.0 Q88.9 601.3 133.3 605.7 Q177.8 610.1 222.2 622.4 Q266.7 634.6 311.1 590.2 Q355.6 545.8 400.0 523.7 Q444.4 501.6 488.9 477.7 Q533.3 453.8 577.8 443.4 Q622.2 433.0 666.7 452.8 Q711.1 472.7 755.6 475.0 Q800.0 477.2 844.4 494.8 Q888.9 512.4 933.3 482.4 Q977.8 452.3 1022.2 470.5 Q1066.7 488.7 1111.1 527.7 Q1155.6 566.7 1200.0 569.6 Q1244.4 572.5 1288.9 617.0 Q1333.3 661.5 1377.8 631.4 Q1422.2 601.3 1466.7 569.6 Q1511.1 537.9 1555.6 516.1 L1600 494.3 L1600 900 Z" fill="hsl(77.5 17.5% 72.8%)"/><path d="M0 900 L0 544.6 Q0.0 544.6 44.4 560.9 Q88.9 577.2 133.3 571.2 Q177.8 565.1 222.2 588.2 Q266.7 611.4 311.1 626.7 Q355.6 642.1 400.0 590.1 Q444.4 538.1 488.9 521.9 Q533.3 505.8 577.8 463.4 Q622.2 421.0 666.7 433.8 Q711.1 446.5 755.6 467.2 Q800.0 487.8 844.4 479.7 Q888.9 471.7 933.3 467.4 Q977.8 463.2 1022.2 439.3 Q1066.7 415.4 1111.1 466.4 Q1155.6 517.5 1200.0 544.6 Q1244.4 571.7 1288.9 605.4 Q1333.3 639.0 1377.8 625.5 Q1422.2 612.1 1466.7 580.7 Q1511.1 549.3 1555.6 566.2 L1600 583.1 L1600 900 Z" fill="hsl(85.9 17.4% 70.1%)"/><rect x="0" y="547.3" width="1600" height="289.3" fill="url(#g1gogw1u-fog2)"/><path d="M0 900 L0 630.0 Q0.0 630.0 38.1 617.6 Q76.2 605.1 114.3 557.1 Q152.4 509.1 190.5 486.8 Q228.6 464.5 266.7 473.4 Q304.8 482.3 342.9 463.6 Q381.0 444.9 419.0 485.0 Q457.1 525.1 495.2 551.9 Q533.3 578.7 571.4 593.3 Q609.5 607.9 647.6 626.7 Q685.7 645.6 723.8 630.2 Q761.9 614.9 800.0 608.2 Q838.1 601.4 876.2 597.2 Q914.3 592.9 952.4 572.6 Q990.5 552.2 1028.6 574.3 Q1066.7 596.3 1104.8 590.2 Q1142.9 584.1 1181.0 548.5 Q1219.0 512.9 1257.1 512.1 Q1295.2 511.3 1333.3 486.1 Q1371.4 461.0 1409.5 468.8 Q1447.6 476.7 1485.7 499.9 Q1523.8 523.1 1561.9 534.9 L1600 546.6 L1600 900 Z" fill="hsl(99.9 17.3% 65.7%)"/><rect x="0" y="590.9" width="1600" height="236.4" fill="url(#g1gogw1u-fog3)"/><path d="M0 900 L0 670.7 Q0.0 670.7 47.1 688.5 Q94.1 706.4 141.2 672.1 Q188.2 637.8 235.3 631.8 Q282.4 625.7 329.4 631.9 Q376.5 638.1 423.5 640.9 Q470.6 643.8 517.6 634.0 Q564.7 624.3 611.8 591.9 Q658.8 559.6 705.9 549.0 Q752.9 538.4 800.0 542.8 Q847.1 547.1 894.1 559.4 Q941.2 571.7 988.2 599.4 Q1035.3 627.2 1082.4 609.2 Q1129.4 591.3 1176.5 604.0 Q1223.5 616.6 1270.6 618.4 Q1317.6 620.3 1364.7 638.7 Q1411.8 657.2 1458.8 682.2 Q1505.9 707.2 1552.9 695.2 L1600 683.2 L1600 900 Z" fill="hsl(119.5 17.1% 59.4%)"/><path d="M0 900 L0 619.0 Q0.0 619.0 38.1 640.6 Q76.2 662.1 114.3 688.5 Q152.4 714.9 190.5 704.7 Q228.6 694.6 266.7 682.5 Q304.8 670.4 342.9 649.2 Q381.0 627.9 419.0 598.0 Q457.1 568.0 495.2 588.8 Q533.3 609.5 571.4 611.1 Q609.5 612.8 647.6 591.2 Q685.7 569.6 723.8 580.5 Q761.9 591.5 800.0 577.1 Q838.1 562.8 876.2 566.4 Q914.3 570.0 952.4 602.3 Q990.5 634.6 1028.6 649.9 Q1066.7 665.2 1104.8 668.7 Q1142.9 672.1 1181.0 683.0 Q1219.0 693.8 1257.1 673.4 Q1295.2 653.0 1333.3 645.9 Q1371.4 638.9 1409.5 664.2 Q1447.6 689.5 1485.7 678.2 Q1523.8 666.9 1561.9 650.5 L1600 634.2 L1600 900 Z" fill="hsl(144.8 16.8% 51.4%)"/><rect x="0" y="646.5" width="1600" height="201.7" fill="url(#g1gogw1u-fog5)"/><path d="M0 900 L0 610.8 Q0.0 610.8 40.0 601.7 Q80.0 592.6 120.0 614.4 Q160.0 636.3 200.0 663.4 Q240.0 690.6 280.0 698.2 Q320.0 705.8 360.0 710.5 Q400.0 715.2 440.0 712.2 Q480.0 709.2 520.0 694.9 Q560.0 680.6 600.0 685.4 Q640.0 690.2 680.0 704.6 Q720.0 719.0 760.0 729.5 Q800.0 740.1 840.0 718.8 Q880.0 697.6 920.0 673.4 Q960.0 649.1 1000.0 640.8 Q1040.0 632.4 1080.0 623.7 Q1120.0 614.9 1160.0 615.3 Q1200.0 615.7 1240.0 627.6 Q1280.0 639.4 1320.0 644.8 Q1360.0 650.2 1400.0 642.4 Q1440.0 634.7 1480.0 625.2 Q1520.0 615.6 1560.0 628.0 L1600 640.3 L1600 900 Z" fill="hsl(175.6 16.4% 41.6%)"/><path d="M0 900 L0 696.8 Q0.0 696.8 42.1 727.3 Q84.2 757.9 126.3 753.2 Q168.4 748.4 210.5 744.0 Q252.6 739.7 294.7 736.1 Q336.8 732.4 378.9 721.3 Q421.1 710.2 463.2 720.4 Q505.3 730.6 547.4 725.3 Q589.5 719.9 631.6 689.9 Q673.7 659.8 715.8 656.1 Q757.9 652.4 800.0 652.8 Q842.1 653.1 884.2 663.5 Q926.3 674.0 968.4 693.4 Q1010.5 712.8 1052.6 712.0 Q1094.7 711.1 1136.8 711.0 Q1178.9 710.8 1221.1 718.4 Q1263.2 726.0 1305.3 729.4 Q1347.4 732.7 1389.5 744.4 Q1431.6 756.2 1473.7 758.0 Q1515.8 759.9 1557.9 733.0 L1600 706.2 L1600 900 Z" fill="hsl(212.0 16.0% 30.0%)"/><rect width="1600" height="900" fill="url(#g1gogw1u-vig)"/></svg>