<svg xmlns="http://www.w3.org/2000/svg" viewBox="0 0 1600 900" role="img" preserveAspectRatio="xMidYMid slice"><title>da-lat-deo-omega-hon-giao s2</title><defs><linearGradient id="gbuo2zj-sky" x1="0" y1="0" x2="0" y2="1"><stop offset="0%" stop-color="hsl(170.0 30.0% 52.0%)"/><stop offset="50%" stop-color="hsl(150.0 25.0% 68.0%)"/><stop offset="100%" stop-color="hsl(60.0 35.0% 78.0%)"/></linearGradient><radialGradient id="gbuo2zj-glow"><stop offset="0%" stop-color="hsl(52.0 70.0% 84.0% / 0.850)"/><stop offset="45%" stop-color="hsl(52.0 70.0% 84.0% / 0.250)"/><stop offset="100%" stop-color="hsl(52.0 70.0% 84.0% / 0.000)"/></radialGradient><linearGradient id="gbuo2zj-fog1" x1="0" y1="0" x2="0" y2="1"><stop offset="0%" stop-color="hsl(40 20% 96% / 0)"/><stop offset="55%" stop-color="hsl(40 20% 96% / 0.37)"/><stop offset="100%" stop-color="hsl(40 20% 96% / 0)"/></linearGradient><linearGradient id="gbuo2zj-fog4" x1="0" y1="0" x2="0" y2="1"><stop offset="0%" stop-color="hsl(40 20% 96% / 0)"/><stop offset="55%" stop-color="hsl(40 20% 96% / 0.25)"/><stop offset="100%" stop-color="hsl(40 20% 96% / 0)"/></linearGradient><linearGradient id="gbuo2zj-fog5" x1="0" y1="0" x2="0" y2="1"><stop offset="0%" stop-color="hsl(40 20% 96% / 0)"/><stop offset="55%" stop-color="hsl(40 20% 96% / 0.38)"/><stop offset="100%" stop-color="hsl(40 20% 96% / 0)"/></linearGradient><radialGradient id="gbuo2zj-vig" cx="50%" cy="42%" r="75%"><stop offset="70%" stop-color="hsl(0 0% 0% / 0)"/><stop offset="100%" stop-color="hsl(0 0% 0% / 0.18)"/></radialGradient></defs><rect width="1600" height="541.2" fill="url(#gbuo2zj-sky)"/><rect y="540.2" width="1600" height="359.8" fill="hsl(133.5 35.0% 28.5%)"/><circle cx="499.5" cy="297.6" r="100" fill="url(#gbuo2zj-glow)"/><circle cx="499.5" cy="297.6" r="42" fill="hsl(52.0 70.0% 84.0%)"/><path d="M0 900 L0 398.9 L0.0 398.9 L76.2 339.2 L152.4 328.5 L228.6 379.2 L304.8 374.8 L381.0 493.2 L457.1 550.7 L533.3 519.6 L609.5 480.0 L685.7 529.6 L761.9 564.8 L838.1 519.3 L914.3 464.3 L990.5 422.3 L1066.7 341.7 L1142.9 327.1 L1219.0 407.7 L1295.2 430.2 L1371.4 378.0 L1447.6 383.0 L1523.8 393.6 L1600.0 491.1 L1600 900 Z" fill="hsl(81.6 35.0% 63.5%)"/><path d="M0 900 L0 453.4 L0.0 453.4 L94.1 430.2 L188.2 298.6 L282.4 293.3 L376.5 405.9 L470.6 495.8 L564.7 581.3 L658.8 478.9 L752.9 493.4 L847.1 502.3 L941.2 537.5 L1035.3 406.7 L1129.4 351.9 L1223.5 298.2 L1317.6 420.0 L1411.8 483.1 L1505.9 501.5 L1600.0 540.8 L1600 900 Z" fill="hsl(83.7 35.0% 62.1%)"/><rect x="0" y="474.7" width="1600" height="265.3" fill="url(#gbuo2zj-fog1)"/><path d="M0 900 L0 548.2 L0.0 548.2 L88.9 582.1 L177.8 550.2 L266.7 577.7 L355.6 489.5 L444.4 540.2 L533.3 499.7 L622.2 500.3 L711.1 485.6 L800.0 394.8 L888.9 389.6 L977.8 372.1 L1066.7 485.0 L1155.6 542.1 L1244.4 605.7 L1333.3 635.9 L1422.2 528.7 L1511.1 547.8 L1600.0 434.2 L1600 900 Z" fill="hsl(90.1 35.0% 57.8%)"/><path d="M0 900 L0 566.2 L0.0 566.2 L76.2 562.5 L152.4 593.2 L228.6 648.0 L304.8 626.7 L381.0 548.5 L457.1 483.5 L533.3 432.6 L609.5 439.6 L685.7 501.3 L761.9 473.7 L838.1 534.9 L914.3 597.6 L990.5 510.1 L1066.7 578.7 L1142.9 617.9 L1219.0 610.1 L1295.2 624.6 L1371.4 616.4 L1447.6 498.8 L1523.8 461.5 L1600.0 439.6 L1600 900 Z" fill="hsl(100.7 35.0% 50.6%)"/><path d="M0 900 L0 565.9 L0.0 565.9 L114.3 620.7 L228.6 665.9 L342.9 651.8 L457.1 621.8 L571.4 630.1 L685.7 568.9 L800.0 602.0 L914.3 560.6 L1028.6 578.7 L1142.9 584.4 L1257.1 676.8 L1371.4 658.0 L1485.7 642.4 L1600.0 549.4 L1600 900 Z" fill="hsl(115.5 35.0% 40.6%)"/><rect x="0" y="623.4" width="1600" height="132.6" fill="url(#gbuo2zj-fog4)"/><path d="M0 900 L0 622.4 L0.0 622.4 L80.0 642.1 L160.0 601.3 L240.0 608.4 L320.0 616.3 L400.0 692.4 L480.0 696.7 L560.0 704.9 L640.0 696.4 L720.0 655.7 L800.0 602.5 L880.0 589.4 L960.0 608.7 L1040.0 622.8 L1120.0 642.2 L1200.0 676.1 L1280.0 675.1 L1360.0 681.2 L1440.0 677.2 L1520.0 675.5 L1600.0 663.5 L1600 900 Z" fill="hsl(134.6 35.0% 27.7%)"/><rect x="0" y="663.1" width="1600" height="110.4" fill="url(#gbuo2zj-fog5)"/><path d="M0 900 L0 642.4 L0.0 642.4 L106.7 636.1 L213.3 656.0 L320.0 682.1 L426.7 735.2 L533.3 715.0 L640.0 721.9 L746.7 676.0 L853.3 702.0 L960.0 680.8 L1066.7 656.5 L1173.3 625.3 L1280.0 644.0 L1386.7 649.9 L1493.3 718.0 L1600.0 721.9 L1600 900 Z" fill="hsl(158.0 35.0% 12.0%)"/><rect width="1600" height="900" fill="url(#gbuo2zj-vig)"/></svg>