<svg xmlns="http://www.w3.org/2000/svg" viewBox="0 0 1600 900" role="img" preserveAspectRatio="xMidYMid slice"><title>da-lat-deo-omega-hon-giao s1</title><defs><linearGradient id="gsy2u4u-sky" x1="0" y1="0" x2="0" y2="1"><stop offset="0%" stop-color="hsl(210.0 14.0% 74.0%)"/><stop offset="50%" stop-color="hsl(210.0 12.0% 82.0%)"/><stop offset="100%" stop-color="hsl(36.0 18.0% 86.0%)"/></linearGradient><radialGradient id="gsy2u4u-glow"><stop offset="0%" stop-color="hsl(40.0 30.0% 92.0% / 0.850)"/><stop offset="45%" stop-color="hsl(40.0 30.0% 92.0% / 0.250)"/><stop offset="100%" stop-color="hsl(40.0 30.0% 92.0% / 0.000)"/></radialGradient><linearGradient id="gsy2u4u-fog0" x1="0" y1="0" x2="0" y2="1"><stop offset="0%" stop-color="hsl(40 20% 96% / 0)"/><stop offset="55%" stop-color="hsl(40 20% 96% / 0.17)"/><stop offset="100%" stop-color="hsl(40 20% 96% / 0)"/></linearGradient><linearGradient id="gsy2u4u-fog1" x1="0" y1="0" x2="0" y2="1"><stop offset="0%" stop-color="hsl(40 20% 96% / 0)"/><stop offset="55%" stop-color="hsl(40 20% 96% / 0.19)"/><stop offset="100%" stop-color="hsl(40 20% 96% / 0)"/></linearGradient><linearGradient id="gsy2u4u-fog2" x1="0" y1="0" x2="0" y2="1"><stop offset="0%" stop-color="hsl(40 20% 96% / 0)"/><stop offset="55%" stop-color="hsl(40 20% 96% / 0.34)"/><stop offset="100%" stop-color="hsl(40 20% 96% / 0)"/></linearGradient><linearGradient id="gsy2u4u-fog3" x1="0" y1="0" x2="0" y2="1"><stop offset="0%" stop-color="hsl(40 20% 96% / 0)"/><stop offset="55%" stop-color="hsl(40 20% 96% / 0.36)"/><stop offset="100%" stop-color="hsl(40 20% 96% / 0)"/></linearGradient><linearGradient id="gsy2u4u-fog4" x1="0" y1="0" x2="0" y2="1"><stop offset="0%" stop-color="hsl(40 20% 96% / 0)"/><stop offset="55%" stop-color="hsl(40 20% 96% / 0.35)"/><stop offset="100%" stop-color="hsl(40 20% 96% / 0)"/></linearGradient><linearGradient id="gsy2u4u-fog5" x1="0" y1="0" x2="0" y2="1"><stop offset="0%" stop-color="hsl(40 20% 96% / 0)"/><stop offset="55%" stop-color="hsl(40 20% 96% / 0.26)"/><stop offset="100%" stop-color="hsl(40 20% 96% / 0)"/></linearGradient><radialGradient id="gsy2u4u-vig" cx="50%" cy="42%" r="75%"><stop offset="70%" stop-color="hsl(0 0% 0% / 0)"/><stop offset="100%" stop-color="hsl(0 0% 0% / 0.18)"/></radialGradient></defs><rect width="1600" height="583.2" fill="url(#gsy2u4u-sky)"/><rect y="582.2" width="1600" height="317.8" fill="hsl(168.0 16.5% 44.0%)"/><circle cx="983.1" cy="262.4" r="90" fill="url(#gsy2u4u-glow)"/><circle cx="983.1" cy="262.4" r="46" fill="hsl(40.0 30.0% 92.0%)"/><path d="M0 900 L0 429.4 Q0.0 429.4 38.1 418.2 Q76.2 407.0 114.3 378.1 Q152.4 349.1 190.5 371.1 Q228.6 393.0 266.7 393.1 Q304.8 393.2 342.9 402.1 Q381.0 411.0 419.0 433.1 Q457.1 455.2 495.2 455.2 Q533.3 455.1 571.4 452.6 Q609.5 450.0 647.6 466.5 Q685.7 483.1 723.8 473.0 Q761.9 462.9 800.0 478.0 Q838.1 493.1 876.2 517.8 Q914.3 542.5 952.4 544.3 Q990.5 546.1 1028.6 571.6 Q1066.7 597.1 1104.8 572.1 Q1142.9 547.0 1181.0 516.2 Q1219.0 485.4 1257.1 475.6 Q1295.2 465.7 1333.3 422.4 Q1371.4 379.0 1409.5 369.0 Q1447.6 359.0 1485.7 365.8 Q1523.8 372.6 1561.9 367.4 L1600 362.2 L1600 900 Z" fill="hsl(74.7 17.6% 73.7%)"/><rect x="0" y="496.6" width="1600" height="237.5" fill="url(#gsy2u4u-fog0)"/><path d="M0 900 L0 538.1 Q0.0 538.1 42.1 535.7 Q84.2 533.3 126.3 496.3 Q168.4 459.2 210.5 452.0 Q252.6 444.7 294.7 439.2 Q336.8 433.7 378.9 389.5 Q421.1 345.4 463.2 325.8 Q505.3 306.2 547.4 356.8 Q589.5 407.5 631.6 446.3 Q673.7 485.1 715.8 481.8 Q757.9 478.6 800.0 511.6 Q842.1 544.5 884.2 581.8 Q926.3 619.1 968.4 604.9 Q1010.5 590.7 1052.6 552.6 Q1094.7 514.5 1136.8 491.8 Q1178.9 469.0 1221.1 480.8 Q1263.2 492.6 1305.3 469.4 Q1347.4 446.1 1389.5 439.6 Q1431.6 433.0 1473.7 440.8 Q1515.8 448.6 1557.9 458.9 L1600 469.2 L1600 900 Z" fill="hsl(78.5 17.5% 72.5%)"/><rect x="0" y="502.9" width="1600" height="282.8" fill="url(#gsy2u4u-fog1)"/><path d="M0 900 L0 459.1 Q0.0 459.1 38.1 486.9 Q76.2 514.7 114.3 518.0 Q152.4 521.4 190.5 497.9 Q228.6 474.5 266.7 484.5 Q304.8 494.6 342.9 480.9 Q381.0 467.1 419.0 428.7 Q457.1 390.4 495.2 402.6 Q533.3 414.9 571.4 444.4 Q609.5 474.0 647.6 479.2 Q685.7 484.3 723.8 521.0 Q761.9 557.6 800.0 567.7 Q838.1 577.9 876.2 571.9 Q914.3 566.0 952.4 553.3 Q990.5 540.6 1028.6 552.8 Q1066.7 565.0 1104.8 550.5 Q1142.9 535.9 1181.0 554.2 Q1219.0 572.4 1257.1 598.7 Q1295.2 625.0 1333.3 596.5 Q1371.4 567.9 1409.5 530.2 Q1447.6 492.5 1485.7 471.8 Q1523.8 451.2 1561.9 420.2 L1600 389.2 L1600 900 Z" fill="hsl(90.0 17.4% 68.8%)"/><rect x="0" y="534.7" width="1600" height="270.6" fill="url(#gsy2u4u-fog2)"/><path d="M0 900 L0 609.8 Q0.0 609.8 38.1 637.8 Q76.2 665.9 114.3 651.8 Q152.4 637.8 190.5 614.3 Q228.6 590.9 266.7 569.9 Q304.8 548.9 342.9 560.3 Q381.0 571.6 419.0 583.6 Q457.1 595.7 495.2 589.4 Q533.3 583.1 571.4 554.7 Q609.5 526.4 647.6 509.6 Q685.7 492.9 723.8 498.6 Q761.9 504.4 800.0 491.7 Q838.1 478.9 876.2 487.9 Q914.3 496.9 952.4 527.1 Q990.5 557.3 1028.6 584.4 Q1066.7 611.4 1104.8 619.0 Q1142.9 626.6 1181.0 608.1 Q1219.0 589.6 1257.1 588.4 Q1295.2 587.3 1333.3 610.9 Q1371.4 634.6 1409.5 646.5 Q1447.6 658.4 1485.7 637.6 Q1523.8 616.8 1561.9 589.2 L1600 561.6 L1600 900 Z" fill="hsl(109.0 17.2% 62.8%)"/><rect x="0" y="587.9" width="1600" height="210.3" fill="url(#gsy2u4u-fog3)"/><path d="M0 900 L0 579.0 Q0.0 579.0 47.1 556.9 Q94.1 534.9 141.2 559.9 Q188.2 584.9 235.3 600.5 Q282.4 616.2 329.4 643.1 Q376.5 670.0 423.5 682.8 Q470.6 695.6 517.6 684.4 Q564.7 673.2 611.8 632.5 Q658.8 591.9 705.9 567.3 Q752.9 542.6 800.0 552.8 Q847.1 562.9 894.1 557.3 Q941.2 551.7 988.2 599.0 Q1035.3 646.3 1082.4 651.1 Q1129.4 656.0 1176.5 659.4 Q1223.5 662.8 1270.6 647.6 Q1317.6 632.3 1364.7 621.4 Q1411.8 610.5 1458.8 612.6 Q1505.9 614.7 1552.9 591.1 L1600 567.4 L1600 900 Z" fill="hsl(135.7 16.9% 54.3%)"/><rect x="0" y="631.9" width="1600" height="170.9" fill="url(#gsy2u4u-fog4)"/><path d="M0 900 L0 681.7 Q0.0 681.7 53.3 686.6 Q106.7 691.4 160.0 667.2 Q213.3 642.9 266.7 621.6 Q320.0 600.2 373.3 580.5 Q426.7 560.8 480.0 590.9 Q533.3 621.0 586.7 630.5 Q640.0 639.9 693.3 676.5 Q746.7 713.0 800.0 702.4 Q853.3 691.9 906.7 687.5 Q960.0 683.1 1013.3 666.6 Q1066.7 650.1 1120.0 651.3 Q1173.3 652.5 1226.7 639.3 Q1280.0 626.1 1333.3 636.8 Q1386.7 647.5 1440.0 617.4 Q1493.3 587.3 1546.7 604.9 L1600 622.5 L1600 900 Z" fill="hsl(170.1 16.5% 43.3%)"/><rect x="0" y="666.1" width="1600" height="153.2" fill="url(#gsy2u4u-fog5)"/><path d="M0 900 L0 695.1 Q0.0 695.1 44.4 681.2 Q88.9 667.3 133.3 664.2 Q177.8 661.2 222.2 677.0 Q266.7 692.8 311.1 702.2 Q355.6 711.7 400.0 717.1 Q444.4 722.6 488.9 734.5 Q533.3 746.5 577.8 744.2 Q622.2 742.0 666.7 725.4 Q711.1 708.9 755.6 707.2 Q800.0 705.6 844.4 697.2 Q888.9 688.8 933.3 684.5 Q977.8 680.2 1022.2 695.6 Q1066.7 710.9 1111.1 699.7 Q1155.6 688.5 1200.0 693.0 Q1244.4 697.4 1288.9 704.6 Q1333.3 711.8 1377.8 715.5 Q1422.2 719.2 1466.7 727.8 Q1511.1 736.4 1555.6 740.1 L1600 743.7 L1600 900 Z" fill="hsl(212.0 16.0% 30.0%)"/><rect width="1600" height="900" fill="url(#gsy2u4u-vig)"/></svg>