<svg xmlns="http://www.w3.org/2000/svg" viewBox="0 0 1600 900" role="img" preserveAspectRatio="xMidYMid slice"><title>hieplam-rides-panorama hero</title><defs><linearGradient id="g1fjd2df-sky" x1="0" y1="0" x2="0" y2="1"><stop offset="0%" stop-color="hsl(265.0 38.0% 26.0%)"/><stop offset="50%" stop-color="hsl(348.0 55.0% 46.0%)"/><stop offset="100%" stop-color="hsl(22.0 90.0% 58.0%)"/></linearGradient><radialGradient id="g1fjd2df-glow"><stop offset="0%" stop-color="hsl(24.0 95.0% 66.0% / 0.850)"/><stop offset="45%" stop-color="hsl(24.0 95.0% 66.0% / 0.250)"/><stop offset="100%" stop-color="hsl(24.0 95.0% 66.0% / 0.000)"/></radialGradient><radialGradient id="g1fjd2df-vig" cx="50%" cy="42%" r="75%"><stop offset="70%" stop-color="hsl(0 0% 0% / 0)"/><stop offset="100%" stop-color="hsl(0 0% 0% / 0.18)"/></radialGradient></defs><rect width="1600" height="537.1" fill="url(#g1fjd2df-sky)"/><rect y="536.1" width="1600" height="363.9" fill="hsl(305.5 43.5% 25.0%)"/><circle cx="420.6" cy="472.6" r="230" fill="url(#g1fjd2df-glow)"/><circle cx="420.6" cy="472.6" r="78" fill="hsl(24.0 95.0% 66.0%)"/><path d="M0 900 L0 390.9 Q0.0 390.9 53.3 396.3 Q106.7 401.6 160.0 454.8 Q213.3 508.1 266.7 520.3 Q320.0 532.6 373.3 521.7 Q426.7 510.8 480.0 501.9 Q533.3 493.0 586.7 445.2 Q640.0 397.3 693.3 393.1 Q746.7 388.8 800.0 412.9 Q853.3 437.0 906.7 407.0 Q960.0 377.1 1013.3 387.1 Q1066.7 397.2 1120.0 375.0 Q1173.3 352.8 1226.7 362.3 Q1280.0 371.7 1333.3 430.8 Q1386.7 489.9 1440.0 501.2 Q1493.3 512.5 1546.7 513.0 L1600 513.4 L1600 900 Z" fill="hsl(359.6 76.4% 48.3%)"/><path d="M0 900 L0 449.9 Q0.0 449.9 57.1 426.9 Q114.3 403.9 171.4 384.6 Q228.6 365.2 285.7 395.0 Q342.9 424.7 400.0 422.7 Q457.1 420.6 514.3 432.6 Q571.4 444.6 628.6 427.4 Q685.7 410.2 742.9 450.6 Q800.0 490.9 857.1 523.4 Q914.3 555.8 971.4 562.9 Q1028.6 570.0 1085.7 549.1 Q1142.9 528.2 1200.0 483.2 Q1257.1 438.2 1314.3 459.7 Q1371.4 481.2 1428.6 467.4 Q1485.7 453.7 1542.9 456.9 L1600 460.2 L1600 900 Z" fill="hsl(356.4 74.4% 46.9%)"/><path d="M0 900 L0 566.2 Q0.0 566.2 57.1 575.6 Q114.3 585.0 171.4 566.7 Q228.6 548.3 285.7 552.9 Q342.9 557.4 400.0 539.3 Q457.1 521.2 514.3 495.9 Q571.4 470.5 628.6 481.9 Q685.7 493.4 742.9 515.8 Q800.0 538.2 857.1 581.9 Q914.3 625.6 971.4 596.5 Q1028.6 567.5 1085.7 566.4 Q1142.9 565.4 1200.0 539.8 Q1257.1 514.2 1314.3 516.1 Q1371.4 517.9 1428.6 490.7 Q1485.7 463.5 1542.9 476.4 L1600 489.4 L1600 900 Z" fill="hsl(346.8 68.6% 42.8%)"/><path d="M0 900 L0 596.7 Q0.0 596.7 38.1 592.6 Q76.2 588.5 114.3 605.2 Q152.4 621.8 190.5 625.9 Q228.6 630.0 266.7 621.6 Q304.8 613.3 342.9 601.7 Q381.0 590.2 419.0 581.3 Q457.1 572.3 495.2 567.3 Q533.3 562.2 571.4 553.9 Q609.5 545.7 647.6 541.6 Q685.7 537.5 723.8 552.2 Q761.9 566.9 800.0 587.0 Q838.1 607.1 876.2 616.3 Q914.3 625.5 952.4 627.0 Q990.5 628.5 1028.6 636.3 Q1066.7 644.1 1104.8 646.3 Q1142.9 648.5 1181.0 624.4 Q1219.0 600.3 1257.1 575.8 Q1295.2 551.4 1333.3 543.9 Q1371.4 536.4 1409.5 537.4 Q1447.6 538.4 1485.7 540.2 Q1523.8 541.9 1561.9 546.5 L1600 551.0 L1600 900 Z" fill="hsl(330.9 59.0% 36.0%)"/><path d="M0 900 L0 678.7 Q0.0 678.7 40.0 663.0 Q80.0 647.4 120.0 629.0 Q160.0 610.6 200.0 610.1 Q240.0 609.6 280.0 594.3 Q320.0 578.9 360.0 591.9 Q400.0 605.0 440.0 625.1 Q480.0 645.2 520.0 651.1 Q560.0 657.0 600.0 672.6 Q640.0 688.3 680.0 686.3 Q720.0 684.4 760.0 676.2 Q800.0 667.9 840.0 661.5 Q880.0 655.1 920.0 637.4 Q960.0 619.7 1000.0 617.9 Q1040.0 616.2 1080.0 611.6 Q1120.0 607.1 1160.0 610.7 Q1200.0 614.4 1240.0 627.8 Q1280.0 641.2 1320.0 645.4 Q1360.0 649.7 1400.0 650.8 Q1440.0 651.9 1480.0 656.2 Q1520.0 660.6 1560.0 652.0 L1600 643.5 L1600 900 Z" fill="hsl(308.6 45.4% 26.4%)"/><path d="M0 900 L0 674.8 Q0.0 674.8 57.1 681.4 Q114.3 688.0 171.4 706.0 Q228.6 723.9 285.7 718.9 Q342.9 713.9 400.0 696.2 Q457.1 678.5 514.3 692.1 Q571.4 705.7 628.6 693.0 Q685.7 680.3 742.9 670.9 Q800.0 661.5 857.1 644.2 Q914.3 626.9 971.4 639.9 Q1028.6 653.0 1085.7 659.8 Q1142.9 666.7 1200.0 667.1 Q1257.1 667.6 1314.3 668.6 Q1371.4 669.6 1428.6 690.8 Q1485.7 711.9 1542.9 724.0 L1600 736.1 L1600 900 Z" fill="hsl(280.0 28.0% 14.0%)"/><path d="M463.0 900 C699.6 720.5416866634041 1025.9 611.1 1031.9 541.1 L1033.9 541.1 C1041.9 611.1 1211.6 720.5416866634041 975.0 900 Z" fill="hsl(280.0 15.4% 21.0%)"/><path d="M719.0 900 C955.6 720.5416866634041 1031.9 601.1 1032.9 541.1" fill="none" stroke="hsl(45 30% 92% / 0.8)" stroke-width="7" stroke-dasharray="46 38" stroke-linecap="round"/><rect width="1600" height="900" fill="url(#g1fjd2df-vig)"/></svg>