<svg xmlns="http://www.w3.org/2000/svg" viewBox="0 0 1600 900" role="img" preserveAspectRatio="xMidYMid slice"><title>mu-cang-chai-ruong-bac-thang hero</title><defs><linearGradient id="g14prhcn-sky" x1="0" y1="0" x2="0" y2="1"><stop offset="0%" stop-color="hsl(202.0 50.0% 60.0%)"/><stop offset="50%" stop-color="hsl(190.0 35.0% 74.0%)"/><stop offset="100%" stop-color="hsl(48.0 60.0% 78.0%)"/></linearGradient><radialGradient id="g14prhcn-glow"><stop offset="0%" stop-color="hsl(46.0 85.0% 82.0% / 0.850)"/><stop offset="45%" stop-color="hsl(46.0 85.0% 82.0% / 0.250)"/><stop offset="100%" stop-color="hsl(46.0 85.0% 82.0% / 0.000)"/></radialGradient><radialGradient id="g14prhcn-vig" cx="50%" cy="42%" r="75%"><stop offset="70%" stop-color="hsl(0 0% 0% / 0)"/><stop offset="100%" stop-color="hsl(0 0% 0% / 0.18)"/></radialGradient></defs><rect width="1600" height="413.8" fill="url(#g14prhcn-sky)"/><rect y="412.8" width="1600" height="487.2" fill="hsl(124.5 36.0% 36.0%)"/><circle cx="989.2" cy="248.3" r="110" fill="url(#g14prhcn-glow)"/><circle cx="989.2" cy="248.3" r="48" fill="hsl(46.0 85.0% 82.0%)"/><path d="M0 900 L0 340.9 Q0.0 340.9 53.3 357.7 Q106.7 374.5 160.0 378.8 Q213.3 383.1 266.7 362.2 Q320.0 341.3 373.3 291.2 Q426.7 241.1 480.0 208.2 Q533.3 175.2 586.7 204.4 Q640.0 233.6 693.3 254.5 Q746.7 275.4 800.0 322.0 Q853.3 368.5 906.7 398.9 Q960.0 429.3 1013.3 377.6 Q1066.7 325.8 1120.0 302.8 Q1173.3 279.8 1226.7 286.6 Q1280.0 293.3 1333.3 267.5 Q1386.7 241.8 1440.0 252.2 Q1493.3 262.6 1546.7 271.0 L1600 279.4 L1600 900 Z" fill="hsl(70.4 53.0% 65.7%)"/><path d="M0 900 L0 502.4 Q0.0 502.4 44.4 509.0 Q88.9 515.7 133.3 471.5 Q177.8 427.3 222.2 403.6 Q266.7 379.9 311.1 378.3 Q355.6 376.6 400.0 380.7 Q444.4 384.7 488.9 409.8 Q533.3 434.8 577.8 412.7 Q622.2 390.6 666.7 404.5 Q711.1 418.4 755.6 441.0 Q800.0 463.6 844.4 470.9 Q888.9 478.2 933.3 485.7 Q977.8 493.1 1022.2 460.1 Q1066.7 427.1 1111.1 400.5 Q1155.6 374.0 1200.0 382.3 Q1244.4 390.6 1288.9 390.4 Q1333.3 390.3 1377.8 409.3 Q1422.2 428.2 1466.7 416.8 Q1511.1 405.5 1555.6 410.7 L1600 415.9 L1600 900 Z" fill="hsl(79.3 50.2% 60.8%)"/><path d="M0 900 L0 525.4 Q0.0 525.4 47.1 519.0 Q94.1 512.6 141.2 518.4 Q188.2 524.2 235.3 523.5 Q282.4 522.8 329.4 494.5 Q376.5 466.2 423.5 470.8 Q470.6 475.3 517.6 478.0 Q564.7 480.7 611.8 487.8 Q658.8 494.8 705.9 526.3 Q752.9 557.9 800.0 560.0 Q847.1 562.2 894.1 569.8 Q941.2 577.4 988.2 580.1 Q1035.3 582.8 1082.4 552.1 Q1129.4 521.5 1176.5 526.0 Q1223.5 530.5 1270.6 533.7 Q1317.6 536.8 1364.7 531.5 Q1411.8 526.2 1458.8 524.4 Q1505.9 522.5 1552.9 496.6 L1600 470.7 L1600 900 Z" fill="hsl(105.8 41.9% 46.3%)"/><path d="M0 900 L0 663.5 Q0.0 663.5 53.3 670.7 Q106.7 678.0 160.0 672.2 Q213.3 666.5 266.7 643.0 Q320.0 619.4 373.3 615.6 Q426.7 611.7 480.0 614.1 Q533.3 616.4 586.7 622.4 Q640.0 628.4 693.3 628.4 Q746.7 628.3 800.0 623.2 Q853.3 618.1 906.7 631.4 Q960.0 644.8 1013.3 654.0 Q1066.7 663.2 1120.0 672.1 Q1173.3 681.1 1226.7 658.9 Q1280.0 636.8 1333.3 629.8 Q1386.7 622.9 1440.0 614.1 Q1493.3 605.3 1546.7 617.9 L1600 630.4 L1600 900 Z" fill="hsl(150.0 28.0% 22.0%)"/><g><path d="M0 900 L0 413.8 L100.0 406.3 L200.0 403.9 L300.0 403.6 L400.0 405.5 L500.0 409.2 L600.0 413.9 L700.0 418.7 L800.0 422.3 L900.0 424.1 L1000.0 423.6 L1100.0 421.1 L1200.0 416.9 L1300.0 412.0 L1400.0 407.6 L1500.0 404.5 L1600.0 403.4 L1600 900 Z" fill="hsl(95.0 45.0% 42.0%)"/><path d="M0 900 L0 454.3 L100.0 466.3 L200.0 463.3 L300.0 458.1 L400.0 451.9 L500.0 446.3 L600.0 442.8 L700.0 442.0 L800.0 444.4 L900.0 449.2 L1000.0 455.3 L1100.0 461.1 L1200.0 465.3 L1300.0 466.7 L1400.0 465.1 L1500.0 460.8 L1600.0 454.8 L1600 900 Z" fill="hsl(73.4 48.6% 46.6%)"/><path d="M0 900 L0 494.8 L100.0 507.9 L200.0 503.0 L300.0 495.8 L400.0 488.3 L500.0 482.6 L600.0 480.4 L700.0 482.3 L800.0 487.7 L900.0 495.0 L1000.0 502.4 L1100.0 507.6 L1200.0 509.2 L1300.0 506.8 L1400.0 501.0 L1500.0 493.5 L1600.0 486.4 L1600 900 Z" fill="hsl(53.6 51.8% 48.9%)"/><path d="M0 900 L0 535.4 L100.0 530.5 L200.0 539.8 L300.0 547.6 L400.0 551.5 L500.0 550.4 L600.0 544.5 L700.0 535.7 L800.0 526.8 L900.0 520.6 L1000.0 519.1 L1100.0 522.6 L1200.0 530.2 L1300.0 539.4 L1400.0 547.4 L1500.0 551.5 L1600.0 550.5 L1600 900 Z" fill="hsl(96.1 37.3% 33.5%)"/><path d="M0 900 L0 575.9 L100.0 591.3 L200.0 582.8 L300.0 572.0 L400.0 562.5 L500.0 557.7 L600.0 559.3 L700.0 566.7 L800.0 577.4 L900.0 587.5 L1000.0 593.5 L1100.0 593.3 L1200.0 587.0 L1300.0 576.8 L1400.0 566.2 L1500.0 559.0 L1600.0 557.8 L1600 900 Z" fill="hsl(84.9 40.4% 37.6%)"/><path d="M0 900 L0 616.4 L100.0 612.8 L200.0 601.6 L300.0 596.1 L400.0 598.6 L500.0 607.9 L600.0 620.6 L700.0 631.6 L800.0 636.7 L900.0 633.9 L1000.0 624.2 L1100.0 611.5 L1200.0 600.7 L1300.0 596.0 L1400.0 599.3 L1500.0 609.2 L1600.0 621.9 L1600 900 Z" fill="hsl(67.0 43.1% 41.1%)"/><path d="M0 900 L0 656.9 L100.0 669.8 L200.0 655.7 L300.0 642.1 L400.0 634.9 L500.0 637.1 L600.0 647.8 L700.0 662.4 L800.0 674.7 L900.0 679.3 L1000.0 674.3 L1100.0 661.8 L1200.0 647.3 L1300.0 636.8 L1400.0 635.0 L1500.0 642.6 L1600.0 656.3 L1600 900 Z" fill="hsl(50.9 45.4% 42.6%)"/><path d="M0 900 L0 697.4 L100.0 703.5 L200.0 686.8 L300.0 675.2 L400.0 674.0 L500.0 683.8 L600.0 700.1 L700.0 715.1 L800.0 721.8 L900.0 717.0 L1000.0 703.0 L1100.0 686.4 L1200.0 675.0 L1300.0 674.1 L1400.0 684.2 L1500.0 700.5 L1600.0 715.4 L1600 900 Z" fill="hsl(84.1 33.6% 30.2%)"/><path d="M0 900 L0 737.9 L100.0 758.0 L200.0 741.4 L300.0 723.0 L400.0 712.3 L500.0 714.7 L600.0 729.1 L700.0 748.0 L800.0 761.7 L900.0 763.3 L1000.0 751.8 L1100.0 733.2 L1200.0 717.0 L1300.0 711.6 L1400.0 719.7 L1500.0 737.2 L1600.0 755.0 L1600 900 Z" fill="hsl(74.8 35.8% 33.2%)"/><path d="M0 900 L0 778.5 L100.0 751.1 L200.0 764.1 L300.0 785.1 L400.0 802.4 L500.0 806.3 L600.0 794.6 L700.0 774.0 L800.0 755.8 L900.0 750.3 L1000.0 760.5 L1100.0 780.7 L1200.0 799.7 L1300.0 806.8 L1400.0 798.1 L1500.0 778.4 L1600.0 758.7 L1600 900 Z" fill="hsl(60.6 37.6% 35.6%)"/><path d="M0 900 L0 819.0 L100.0 844.8 L200.0 825.6 L300.0 802.3 L400.0 789.1 L500.0 794.0 L600.0 813.9 L700.0 836.9 L800.0 849.1 L900.0 843.0 L1000.0 822.5 L1100.0 799.8 L1200.0 788.7 L1300.0 795.9 L1400.0 817.1 L1500.0 839.4 L1600.0 849.3 L1600 900 Z" fill="hsl(48.1 39.0% 36.4%)"/><path d="M0 900 L0 859.5 L100.0 836.0 L200.0 827.2 L300.0 839.5 L400.0 864.8 L500.0 886.7 L600.0 890.8 L700.0 874.5 L800.0 848.4 L900.0 829.5 L1000.0 830.2 L1100.0 849.9 L1200.0 875.9 L1300.0 891.2 L1400.0 885.8 L1500.0 863.3 L1600.0 838.3 L1600 900 Z" fill="hsl(72.2 29.9% 26.9%)"/></g><rect width="1600" height="900" fill="url(#g14prhcn-vig)"/></svg>