<svg xmlns="http://www.w3.org/2000/svg" viewBox="0 0 1600 900" role="img" preserveAspectRatio="xMidYMid slice"><title>mu-cang-chai-ruong-bac-thang s1</title><defs><linearGradient id="g1swyjzn-sky" x1="0" y1="0" x2="0" y2="1"><stop offset="0%" stop-color="hsl(202.0 50.0% 60.0%)"/><stop offset="50%" stop-color="hsl(190.0 35.0% 74.0%)"/><stop offset="100%" stop-color="hsl(48.0 60.0% 78.0%)"/></linearGradient><radialGradient id="g1swyjzn-glow"><stop offset="0%" stop-color="hsl(46.0 85.0% 82.0% / 0.850)"/><stop offset="45%" stop-color="hsl(46.0 85.0% 82.0% / 0.250)"/><stop offset="100%" stop-color="hsl(46.0 85.0% 82.0% / 0.000)"/></radialGradient><radialGradient id="g1swyjzn-vig" cx="50%" cy="42%" r="75%"><stop offset="70%" stop-color="hsl(0 0% 0% / 0)"/><stop offset="100%" stop-color="hsl(0 0% 0% / 0.18)"/></radialGradient></defs><rect width="1600" height="383.2" fill="url(#g1swyjzn-sky)"/><rect y="382.2" width="1600" height="517.8" fill="hsl(124.5 36.0% 36.0%)"/><circle cx="426.6" cy="229.9" r="110" fill="url(#g1swyjzn-glow)"/><circle cx="426.6" cy="229.9" r="48" fill="hsl(46.0 85.0% 82.0%)"/><path d="M0 900 L0 308.4 Q0.0 308.4 50.0 343.2 Q100.0 378.1 150.0 378.1 Q200.0 378.2 250.0 367.1 Q300.0 356.0 350.0 311.6 Q400.0 267.2 450.0 236.7 Q500.0 206.2 550.0 232.8 Q600.0 259.3 650.0 264.3 Q700.0 269.2 750.0 263.5 Q800.0 257.8 850.0 271.9 Q900.0 286.0 950.0 296.8 Q1000.0 307.5 1050.0 344.0 Q1100.0 380.5 1150.0 384.1 Q1200.0 387.7 1250.0 343.4 Q1300.0 299.1 1350.0 287.4 Q1400.0 275.7 1450.0 270.8 Q1500.0 265.9 1550.0 266.9 L1600 267.9 L1600 900 Z" fill="hsl(70.4 53.0% 65.7%)"/><path d="M0 900 L0 444.2 Q0.0 444.2 47.1 449.6 Q94.1 455.0 141.2 441.6 Q188.2 428.1 235.3 424.9 Q282.4 421.6 329.4 399.0 Q376.5 376.4 423.5 384.8 Q470.6 393.3 517.6 399.3 Q564.7 405.3 611.8 428.5 Q658.8 451.6 705.9 467.0 Q752.9 482.3 800.0 477.5 Q847.1 472.6 894.1 463.2 Q941.2 453.7 988.2 418.9 Q1035.3 384.1 1082.4 381.5 Q1129.4 378.8 1176.5 374.9 Q1223.5 371.0 1270.6 394.5 Q1317.6 418.1 1364.7 429.3 Q1411.8 440.6 1458.8 455.2 Q1505.9 469.8 1552.9 466.1 L1600 462.3 L1600 900 Z" fill="hsl(79.3 50.2% 60.8%)"/><path d="M0 900 L0 495.5 Q0.0 495.5 40.0 505.1 Q80.0 514.6 120.0 510.0 Q160.0 505.3 200.0 517.9 Q240.0 530.4 280.0 522.5 Q320.0 514.6 360.0 518.9 Q400.0 523.3 440.0 538.1 Q480.0 553.0 520.0 552.1 Q560.0 551.2 600.0 565.7 Q640.0 580.3 680.0 563.7 Q720.0 547.1 760.0 530.1 Q800.0 513.0 840.0 505.6 Q880.0 498.2 920.0 479.7 Q960.0 461.3 1000.0 469.7 Q1040.0 478.0 1080.0 480.1 Q1120.0 482.1 1160.0 489.6 Q1200.0 497.0 1240.0 507.2 Q1280.0 517.4 1320.0 514.2 Q1360.0 511.0 1400.0 515.1 Q1440.0 519.3 1480.0 519.0 Q1520.0 518.7 1560.0 521.0 L1600 523.2 L1600 900 Z" fill="hsl(105.8 41.9% 46.3%)"/><path d="M0 900 L0 660.6 Q0.0 660.6 38.1 641.6 Q76.2 622.6 114.3 615.8 Q152.4 609.1 190.5 607.6 Q228.6 606.2 266.7 601.7 Q304.8 597.2 342.9 600.1 Q381.0 603.1 419.0 609.0 Q457.1 615.0 495.2 610.6 Q533.3 606.3 571.4 597.8 Q609.5 589.2 647.6 602.4 Q685.7 615.5 723.8 623.4 Q761.9 631.3 800.0 636.1 Q838.1 640.8 876.2 652.0 Q914.3 663.2 952.4 661.3 Q990.5 659.4 1028.6 647.6 Q1066.7 635.8 1104.8 629.7 Q1142.9 623.6 1181.0 630.0 Q1219.0 636.4 1257.1 636.6 Q1295.2 636.9 1333.3 629.5 Q1371.4 622.2 1409.5 620.1 Q1447.6 618.0 1485.7 608.9 Q1523.8 599.7 1561.9 591.6 L1600 583.4 L1600 900 Z" fill="hsl(150.0 28.0% 22.0%)"/><g><path d="M0 900 L0 383.2 L100.0 372.9 L200.0 374.7 L300.0 378.4 L400.0 383.1 L500.0 387.8 L600.0 391.5 L700.0 393.4 L800.0 393.1 L900.0 390.6 L1000.0 386.5 L1100.0 381.6 L1200.0 377.1 L1300.0 373.9 L1400.0 372.8 L1500.0 373.9 L1600.0 377.0 L1600 900 Z" fill="hsl(95.0 45.0% 42.0%)"/><path d="M0 900 L0 426.2 L100.0 413.9 L200.0 415.8 L300.0 420.4 L400.0 426.4 L500.0 432.4 L600.0 436.8 L700.0 438.6 L800.0 437.4 L900.0 433.3 L1000.0 427.6 L1100.0 421.4 L1200.0 416.5 L1300.0 414.0 L1400.0 414.5 L1500.0 418.0 L1600.0 423.5 L1600 900 Z" fill="hsl(73.4 48.6% 46.6%)"/><path d="M0 900 L0 469.3 L100.0 476.3 L200.0 468.9 L300.0 461.6 L400.0 456.5 L500.0 454.9 L600.0 457.4 L700.0 463.3 L800.0 470.8 L900.0 477.9 L1000.0 482.6 L1100.0 483.6 L1200.0 480.5 L1300.0 474.3 L1400.0 466.7 L1500.0 459.8 L1600.0 455.6 L1600 900 Z" fill="hsl(53.6 51.8% 48.9%)"/><path d="M0 900 L0 512.4 L100.0 496.7 L200.0 496.6 L300.0 501.5 L400.0 509.9 L500.0 519.0 L600.0 526.1 L700.0 528.8 L800.0 526.3 L900.0 519.5 L1000.0 510.4 L1100.0 501.9 L1200.0 496.8 L1300.0 496.5 L1400.0 501.3 L1500.0 509.6 L1600.0 518.7 L1600 900 Z" fill="hsl(96.1 37.3% 33.5%)"/><path d="M0 900 L0 555.4 L100.0 540.5 L200.0 549.1 L300.0 560.0 L400.0 569.3 L500.0 573.7 L600.0 571.7 L700.0 564.0 L800.0 553.2 L900.0 543.3 L1000.0 537.6 L1100.0 538.2 L1200.0 544.9 L1300.0 555.3 L1400.0 565.7 L1500.0 572.6 L1600.0 573.4 L1600 900 Z" fill="hsl(84.9 40.4% 37.6%)"/><path d="M0 900 L0 598.5 L100.0 582.7 L200.0 578.1 L300.0 581.5 L400.0 591.6 L500.0 604.3 L600.0 614.8 L700.0 618.9 L800.0 615.1 L900.0 604.8 L1000.0 592.1 L1100.0 581.9 L1200.0 578.1 L1300.0 582.3 L1400.0 592.8 L1500.0 605.5 L1600.0 615.5 L1600 900 Z" fill="hsl(67.0 43.1% 41.1%)"/><path d="M0 900 L0 641.6 L100.0 649.5 L200.0 634.9 L300.0 623.1 L400.0 619.2 L500.0 625.0 L600.0 637.9 L700.0 652.3 L800.0 662.2 L900.0 663.2 L1000.0 654.9 L1100.0 640.9 L1200.0 627.2 L1300.0 619.7 L1400.0 621.5 L1500.0 632.0 L1600.0 646.6 L1600 900 Z" fill="hsl(50.9 45.4% 42.6%)"/><path d="M0 900 L0 684.7 L100.0 707.8 L200.0 697.4 L300.0 681.0 L400.0 666.3 L500.0 660.3 L600.0 665.7 L700.0 680.0 L800.0 696.5 L900.0 707.5 L1000.0 707.7 L1100.0 697.0 L1200.0 680.6 L1300.0 666.0 L1400.0 660.3 L1500.0 666.0 L1600.0 680.5 L1600 900 Z" fill="hsl(84.1 33.6% 30.2%)"/><path d="M0 900 L0 727.7 L100.0 752.1 L200.0 739.1 L300.0 720.3 L400.0 705.2 L500.0 701.8 L600.0 711.6 L700.0 729.8 L800.0 746.8 L900.0 754.1 L1000.0 747.8 L1100.0 731.2 L1200.0 712.8 L1300.0 702.1 L1400.0 704.5 L1500.0 718.9 L1600.0 737.8 L1600 900 Z" fill="hsl(74.8 35.8% 33.2%)"/><path d="M0 900 L0 770.8 L100.0 798.4 L200.0 795.4 L300.0 778.6 L400.0 757.5 L500.0 743.8 L600.0 745.2 L700.0 760.8 L800.0 782.0 L900.0 797.0 L1000.0 797.3 L1100.0 782.8 L1200.0 761.6 L1300.0 745.6 L1400.0 743.6 L1500.0 756.8 L1600.0 777.8 L1600 900 Z" fill="hsl(60.6 37.6% 35.6%)"/><path d="M0 900 L0 813.9 L100.0 795.4 L200.0 818.2 L300.0 838.5 L400.0 843.8 L500.0 831.1 L600.0 807.9 L700.0 788.4 L800.0 784.2 L900.0 798.0 L1000.0 821.4 L1100.0 840.2 L1200.0 843.1 L1300.0 828.4 L1400.0 804.8 L1500.0 786.8 L1600.0 785.1 L1600 900 Z" fill="hsl(48.1 39.0% 36.4%)"/><path d="M0 900 L0 856.9 L100.0 861.6 L200.0 836.4 L300.0 824.6 L400.0 833.8 L500.0 858.1 L600.0 881.7 L700.0 889.1 L800.0 875.5 L900.0 849.8 L1000.0 828.8 L1100.0 826.1 L1200.0 843.5 L1300.0 869.7 L1400.0 887.5 L1500.0 885.4 L1600.0 864.8 L1600 900 Z" fill="hsl(72.2 29.9% 26.9%)"/></g><rect width="1600" height="900" fill="url(#g1swyjzn-vig)"/></svg>