<svg xmlns="http://www.w3.org/2000/svg" viewBox="0 0 1600 900" role="img" preserveAspectRatio="xMidYMid slice"><title>mu-cang-chai-ruong-bac-thang s2</title><defs><linearGradient id="goe6faa-sky" x1="0" y1="0" x2="0" y2="1"><stop offset="0%" stop-color="hsl(210.0 14.0% 74.0%)"/><stop offset="50%" stop-color="hsl(210.0 12.0% 82.0%)"/><stop offset="100%" stop-color="hsl(36.0 18.0% 86.0%)"/></linearGradient><radialGradient id="goe6faa-glow"><stop offset="0%" stop-color="hsl(40.0 30.0% 92.0% / 0.850)"/><stop offset="45%" stop-color="hsl(40.0 30.0% 92.0% / 0.250)"/><stop offset="100%" stop-color="hsl(40.0 30.0% 92.0% / 0.000)"/></radialGradient><linearGradient id="goe6faa-fog0" x1="0" y1="0" x2="0" y2="1"><stop offset="0%" stop-color="hsl(40 20% 96% / 0)"/><stop offset="55%" stop-color="hsl(40 20% 96% / 0.26)"/><stop offset="100%" stop-color="hsl(40 20% 96% / 0)"/></linearGradient><linearGradient id="goe6faa-fog1" x1="0" y1="0" x2="0" y2="1"><stop offset="0%" stop-color="hsl(40 20% 96% / 0)"/><stop offset="55%" stop-color="hsl(40 20% 96% / 0.35)"/><stop offset="100%" stop-color="hsl(40 20% 96% / 0)"/></linearGradient><linearGradient id="goe6faa-fog3" x1="0" y1="0" x2="0" y2="1"><stop offset="0%" stop-color="hsl(40 20% 96% / 0)"/><stop offset="55%" stop-color="hsl(40 20% 96% / 0.38)"/><stop offset="100%" stop-color="hsl(40 20% 96% / 0)"/></linearGradient><linearGradient id="goe6faa-fog6" x1="0" y1="0" x2="0" y2="1"><stop offset="0%" stop-color="hsl(40 20% 96% / 0)"/><stop offset="55%" stop-color="hsl(40 20% 96% / 0.31)"/><stop offset="100%" stop-color="hsl(40 20% 96% / 0)"/></linearGradient><radialGradient id="goe6faa-vig" cx="50%" cy="42%" r="75%"><stop offset="70%" stop-color="hsl(0 0% 0% / 0)"/><stop offset="100%" stop-color="hsl(0 0% 0% / 0.18)"/></radialGradient></defs><rect width="1600" height="575.0" fill="url(#goe6faa-sky)"/><rect y="574.0" width="1600" height="326.0" fill="hsl(168.0 16.5% 44.0%)"/><circle cx="481.2" cy="258.8" r="90" fill="url(#goe6faa-glow)"/><circle cx="481.2" cy="258.8" r="46" fill="hsl(40.0 30.0% 92.0%)"/><path d="M0 900 L0 505.3 Q0.0 505.3 42.1 502.9 Q84.2 500.4 126.3 548.1 Q168.4 595.8 210.5 561.3 Q252.6 526.7 294.7 524.3 Q336.8 522.0 378.9 489.0 Q421.1 456.0 463.2 407.1 Q505.3 358.2 547.4 376.1 Q589.5 394.0 631.6 387.9 Q673.7 381.7 715.8 394.9 Q757.9 408.1 800.0 403.3 Q842.1 398.6 884.2 377.6 Q926.3 356.6 968.4 364.0 Q1010.5 371.3 1052.6 372.0 Q1094.7 372.7 1136.8 433.8 Q1178.9 495.0 1221.1 512.9 Q1263.2 530.8 1305.3 528.3 Q1347.4 525.8 1389.5 515.5 Q1431.6 505.2 1473.7 486.1 Q1515.8 467.1 1557.9 491.7 L1600 516.4 L1600 900 Z" fill="hsl(74.7 17.6% 73.7%)"/><rect x="0" y="475.3" width="1600" height="268.2" fill="url(#goe6faa-fog0)"/><path d="M0 900 L0 390.1 Q0.0 390.1 50.0 402.2 Q100.0 414.3 150.0 421.1 Q200.0 427.8 250.0 462.5 Q300.0 497.3 350.0 475.5 Q400.0 453.7 450.0 467.9 Q500.0 482.0 550.0 524.9 Q600.0 567.9 650.0 558.4 Q700.0 549.0 750.0 507.6 Q800.0 466.2 850.0 429.4 Q900.0 392.5 950.0 356.5 Q1000.0 320.6 1050.0 305.4 Q1100.0 290.2 1150.0 363.2 Q1200.0 436.2 1250.0 443.2 Q1300.0 450.2 1350.0 466.4 Q1400.0 482.5 1450.0 513.1 Q1500.0 543.8 1550.0 504.0 L1600 464.1 L1600 900 Z" fill="hsl(77.5 17.5% 72.8%)"/><rect x="0" y="480.9" width="1600" height="307.7" fill="url(#goe6faa-fog1)"/><path d="M0 900 L0 607.5 Q0.0 607.5 50.0 595.1 Q100.0 582.8 150.0 563.7 Q200.0 544.7 250.0 571.1 Q300.0 597.5 350.0 592.9 Q400.0 588.3 450.0 557.5 Q500.0 526.6 550.0 504.8 Q600.0 483.0 650.0 456.5 Q700.0 429.9 750.0 458.9 Q800.0 487.8 850.0 512.6 Q900.0 537.3 950.0 511.5 Q1000.0 485.7 1050.0 498.8 Q1100.0 511.9 1150.0 558.1 Q1200.0 604.2 1250.0 603.2 Q1300.0 602.2 1350.0 593.8 Q1400.0 585.3 1450.0 560.2 Q1500.0 535.2 1550.0 513.0 L1600 490.8 L1600 900 Z" fill="hsl(85.9 17.4% 70.1%)"/><path d="M0 900 L0 502.1 Q0.0 502.1 38.1 537.1 Q76.2 572.1 114.3 574.9 Q152.4 577.6 190.5 592.1 Q228.6 606.7 266.7 622.0 Q304.8 637.2 342.9 616.8 Q381.0 596.4 419.0 577.7 Q457.1 559.0 495.2 589.5 Q533.3 620.0 571.4 630.4 Q609.5 640.7 647.6 615.3 Q685.7 589.9 723.8 569.4 Q761.9 548.8 800.0 530.9 Q838.1 512.9 876.2 492.8 Q914.3 472.7 952.4 484.4 Q990.5 496.1 1028.6 515.2 Q1066.7 534.4 1104.8 532.7 Q1142.9 531.1 1181.0 504.9 Q1219.0 478.7 1257.1 490.3 Q1295.2 502.0 1333.3 510.2 Q1371.4 518.4 1409.5 532.0 Q1447.6 545.6 1485.7 579.1 Q1523.8 612.6 1561.9 628.7 L1600 644.9 L1600 900 Z" fill="hsl(99.9 17.3% 65.7%)"/><rect x="0" y="573.5" width="1600" height="204.0" fill="url(#goe6faa-fog3)"/><path d="M0 900 L0 542.5 Q0.0 542.5 57.1 579.1 Q114.3 615.7 171.4 570.2 Q228.6 524.7 285.7 497.7 Q342.9 470.7 400.0 482.6 Q457.1 494.5 514.3 517.2 Q571.4 540.0 628.6 599.3 Q685.7 658.5 742.9 636.3 Q800.0 614.0 857.1 606.0 Q914.3 598.1 971.4 593.8 Q1028.6 589.5 1085.7 588.1 Q1142.9 586.6 1200.0 556.3 Q1257.1 525.9 1314.3 476.4 Q1371.4 426.9 1428.6 474.2 Q1485.7 521.4 1542.9 547.0 L1600 572.5 L1600 900 Z" fill="hsl(119.5 17.1% 59.4%)"/><path d="M0 900 L0 591.0 Q0.0 591.0 44.4 600.3 Q88.9 609.5 133.3 619.1 Q177.8 628.7 222.2 617.5 Q266.7 606.3 311.1 615.9 Q355.6 625.5 400.0 649.3 Q444.4 673.2 488.9 680.4 Q533.3 687.7 577.8 681.6 Q622.2 675.5 666.7 665.7 Q711.1 656.0 755.6 632.1 Q800.0 608.3 844.4 605.9 Q888.9 603.6 933.3 612.0 Q977.8 620.5 1022.2 618.0 Q1066.7 615.5 1111.1 598.4 Q1155.6 581.2 1200.0 588.4 Q1244.4 595.6 1288.9 615.2 Q1333.3 634.8 1377.8 651.3 Q1422.2 667.8 1466.7 687.2 Q1511.1 706.6 1555.6 697.2 L1600 687.9 L1600 900 Z" fill="hsl(144.8 16.8% 51.4%)"/><path d="M0 900 L0 610.5 Q0.0 610.5 38.1 618.5 Q76.2 626.4 114.3 620.9 Q152.4 615.4 190.5 613.5 Q228.6 611.5 266.7 641.7 Q304.8 671.9 342.9 687.0 Q381.0 702.2 419.0 700.4 Q457.1 698.6 495.2 699.8 Q533.3 700.9 571.4 671.1 Q609.5 641.4 647.6 637.1 Q685.7 632.8 723.8 645.0 Q761.9 657.3 800.0 643.5 Q838.1 629.7 876.2 625.8 Q914.3 621.9 952.4 612.4 Q990.5 603.0 1028.6 599.4 Q1066.7 595.8 1104.8 612.6 Q1142.9 629.3 1181.0 663.9 Q1219.0 698.5 1257.1 701.8 Q1295.2 705.1 1333.3 703.7 Q1371.4 702.3 1409.5 689.6 Q1447.6 676.8 1485.7 653.4 Q1523.8 630.0 1561.9 636.0 L1600 641.9 L1600 900 Z" fill="hsl(175.6 16.4% 41.6%)"/><rect x="0" y="666.7" width="1600" height="150.8" fill="url(#goe6faa-fog6)"/><path d="M0 900 L0 701.9 Q0.0 701.9 38.1 707.0 Q76.2 712.0 114.3 693.9 Q152.4 675.8 190.5 659.7 Q228.6 643.6 266.7 645.8 Q304.8 648.1 342.9 650.2 Q381.0 652.2 419.0 663.5 Q457.1 674.7 495.2 687.7 Q533.3 700.7 571.4 692.3 Q609.5 684.0 647.6 688.2 Q685.7 692.5 723.8 701.6 Q761.9 710.8 800.0 720.8 Q838.1 730.9 876.2 740.0 Q914.3 749.0 952.4 746.2 Q990.5 743.4 1028.6 724.6 Q1066.7 705.8 1104.8 690.5 Q1142.9 675.2 1181.0 676.0 Q1219.0 676.9 1257.1 668.9 Q1295.2 660.9 1333.3 670.8 Q1371.4 680.6 1409.5 679.4 Q1447.6 678.2 1485.7 662.4 Q1523.8 646.6 1561.9 647.8 L1600 649.0 L1600 900 Z" fill="hsl(212.0 16.0% 30.0%)"/><rect width="1600" height="900" fill="url(#goe6faa-vig)"/></svg>