<svg xmlns="http://www.w3.org/2000/svg" viewBox="0 0 1600 900" role="img" preserveAspectRatio="xMidYMid slice"><title>ha-giang-loop-mua-tam-giac-mach hero</title><defs><linearGradient id="gcqmtm6-sky" x1="0" y1="0" x2="0" y2="1"><stop offset="0%" stop-color="hsl(200.0 45.0% 58.0%)"/><stop offset="50%" stop-color="hsl(180.0 30.0% 72.0%)"/><stop offset="100%" stop-color="hsl(46.0 55.0% 80.0%)"/></linearGradient><radialGradient id="gcqmtm6-glow"><stop offset="0%" stop-color="hsl(44.0 80.0% 84.0% / 0.850)"/><stop offset="45%" stop-color="hsl(44.0 80.0% 84.0% / 0.250)"/><stop offset="100%" stop-color="hsl(44.0 80.0% 84.0% / 0.000)"/></radialGradient><linearGradient id="gcqmtm6-fog0" x1="0" y1="0" x2="0" y2="1"><stop offset="0%" stop-color="hsl(40 20% 96% / 0)"/><stop offset="55%" stop-color="hsl(40 20% 96% / 0.36)"/><stop offset="100%" stop-color="hsl(40 20% 96% / 0)"/></linearGradient><linearGradient id="gcqmtm6-fog4" x1="0" y1="0" x2="0" y2="1"><stop offset="0%" stop-color="hsl(40 20% 96% / 0)"/><stop offset="55%" stop-color="hsl(40 20% 96% / 0.30)"/><stop offset="100%" stop-color="hsl(40 20% 96% / 0)"/></linearGradient><radialGradient id="gcqmtm6-vig" cx="50%" cy="42%" r="75%"><stop offset="70%" stop-color="hsl(0 0% 0% / 0)"/><stop offset="100%" stop-color="hsl(0 0% 0% / 0.18)"/></radialGradient></defs><rect width="1600" height="572.5" fill="url(#gcqmtm6-sky)"/><rect y="571.5" width="1600" height="328.5" fill="hsl(157.8 37.8% 33.5%)"/><circle cx="408.1" cy="400.7" r="130" fill="url(#gcqmtm6-glow)"/><circle cx="408.1" cy="400.7" r="52" fill="hsl(44.0 80.0% 84.0%)"/><path d="M0 900 L0 459.1 L0.0 459.1 L114.3 564.6 L228.6 535.0 L342.9 361.2 L457.1 273.5 L571.4 321.4 L685.7 312.2 L800.0 427.0 L914.3 411.8 L1028.6 465.0 L1142.9 584.4 L1257.1 495.3 L1371.4 447.7 L1485.7 308.6 L1600.0 324.5 L1600 900 Z" fill="hsl(78.8 49.9% 66.4%)"/><rect x="0" y="445.2" width="1600" height="330.5" fill="url(#gcqmtm6-fog0)"/><path d="M0 900 L0 478.0 L0.0 478.0 L106.7 343.4 L213.3 347.6 L320.0 291.1 L426.7 448.6 L533.3 547.8 L640.0 557.8 L746.7 550.4 L853.3 536.9 L960.0 601.8 L1066.7 546.0 L1173.3 415.3 L1280.0 253.4 L1386.7 339.8 L1493.3 367.0 L1600.0 526.2 L1600 900 Z" fill="hsl(82.0 49.4% 65.0%)"/><path d="M0 900 L0 603.3 L0.0 603.3 L76.2 548.9 L152.4 457.5 L228.6 447.8 L304.8 419.5 L381.0 475.6 L457.1 552.9 L533.3 607.9 L609.5 586.0 L685.7 593.0 L761.9 587.9 L838.1 621.4 L914.3 586.6 L990.5 505.6 L1066.7 527.2 L1142.9 478.6 L1219.0 398.0 L1295.2 443.4 L1371.4 546.7 L1447.6 557.2 L1523.8 641.5 L1600.0 623.0 L1600 900 Z" fill="hsl(91.7 47.9% 61.0%)"/><path d="M0 900 L0 648.9 L0.0 648.9 L80.0 638.4 L160.0 575.2 L240.0 627.4 L320.0 538.2 L400.0 530.3 L480.0 600.2 L560.0 532.2 L640.0 437.8 L720.0 462.2 L800.0 411.1 L880.0 433.6 L960.0 437.9 L1040.0 542.6 L1120.0 650.3 L1200.0 629.5 L1280.0 600.9 L1360.0 631.5 L1440.0 610.2 L1520.0 609.5 L1600.0 633.4 L1600 900 Z" fill="hsl(107.8 45.5% 54.3%)"/><path d="M0 900 L0 474.1 L0.0 474.1 L80.0 566.9 L160.0 584.2 L240.0 619.7 L320.0 680.2 L400.0 671.3 L480.0 613.5 L560.0 626.9 L640.0 625.8 L720.0 579.6 L800.0 546.7 L880.0 530.4 L960.0 501.5 L1040.0 494.5 L1120.0 534.6 L1200.0 588.6 L1280.0 652.3 L1360.0 714.5 L1440.0 693.4 L1520.0 650.3 L1600.0 536.9 L1600 900 Z" fill="hsl(130.4 42.0% 44.9%)"/><rect x="0" y="611.8" width="1600" height="201.5" fill="url(#gcqmtm6-fog4)"/><path d="M0 900 L0 717.1 L0.0 717.1 L100.0 679.6 L200.0 632.5 L300.0 632.6 L400.0 587.1 L500.0 576.6 L600.0 616.8 L700.0 571.5 L800.0 681.8 L900.0 716.4 L1000.0 713.6 L1100.0 634.5 L1200.0 546.4 L1300.0 570.1 L1400.0 584.1 L1500.0 638.1 L1600.0 692.4 L1600 900 Z" fill="hsl(159.5 37.5% 32.8%)"/><path d="M0 900 L0 676.5 L0.0 676.5 L84.2 701.6 L168.4 710.7 L252.6 666.5 L336.8 710.5 L421.1 733.7 L505.3 756.5 L589.5 722.7 L673.7 733.1 L757.9 685.9 L842.1 640.9 L926.3 679.9 L1010.5 683.4 L1094.7 648.9 L1178.9 635.8 L1263.2 641.1 L1347.4 673.4 L1431.6 668.5 L1515.8 748.3 L1600.0 746.8 L1600 900 Z" fill="hsl(195.0 32.0% 18.0%)"/><rect width="1600" height="900" fill="url(#gcqmtm6-vig)"/></svg>