<svg xmlns="http://www.w3.org/2000/svg" viewBox="0 0 1600 900" role="img" preserveAspectRatio="xMidYMid slice"><title>ha-giang-loop-mua-tam-giac-mach s1</title><defs><linearGradient id="gwwxoiy-sky" x1="0" y1="0" x2="0" y2="1"><stop offset="0%" stop-color="hsl(200.0 45.0% 58.0%)"/><stop offset="50%" stop-color="hsl(180.0 30.0% 72.0%)"/><stop offset="100%" stop-color="hsl(46.0 55.0% 80.0%)"/></linearGradient><radialGradient id="gwwxoiy-glow"><stop offset="0%" stop-color="hsl(44.0 80.0% 84.0% / 0.850)"/><stop offset="45%" stop-color="hsl(44.0 80.0% 84.0% / 0.250)"/><stop offset="100%" stop-color="hsl(44.0 80.0% 84.0% / 0.000)"/></radialGradient><linearGradient id="gwwxoiy-fog3" x1="0" y1="0" x2="0" y2="1"><stop offset="0%" stop-color="hsl(40 20% 96% / 0)"/><stop offset="55%" stop-color="hsl(40 20% 96% / 0.35)"/><stop offset="100%" stop-color="hsl(40 20% 96% / 0)"/></linearGradient><linearGradient id="gwwxoiy-fog4" x1="0" y1="0" x2="0" y2="1"><stop offset="0%" stop-color="hsl(40 20% 96% / 0)"/><stop offset="55%" stop-color="hsl(40 20% 96% / 0.35)"/><stop offset="100%" stop-color="hsl(40 20% 96% / 0)"/></linearGradient><linearGradient id="gwwxoiy-fog5" x1="0" y1="0" x2="0" y2="1"><stop offset="0%" stop-color="hsl(40 20% 96% / 0)"/><stop offset="55%" stop-color="hsl(40 20% 96% / 0.27)"/><stop offset="100%" stop-color="hsl(40 20% 96% / 0)"/></linearGradient><radialGradient id="gwwxoiy-vig" cx="50%" cy="42%" r="75%"><stop offset="70%" stop-color="hsl(0 0% 0% / 0)"/><stop offset="100%" stop-color="hsl(0 0% 0% / 0.18)"/></radialGradient></defs><rect width="1600" height="631.6" fill="url(#gwwxoiy-sky)"/><rect y="630.6" width="1600" height="269.4" fill="hsl(157.8 37.8% 33.5%)"/><circle cx="799.9" cy="442.1" r="130" fill="url(#gwwxoiy-glow)"/><circle cx="799.9" cy="442.1" r="52" fill="hsl(44.0 80.0% 84.0%)"/><path d="M0 900 L0 381.6 L0.0 381.6 L80.0 338.1 L160.0 345.0 L240.0 337.9 L320.0 302.4 L400.0 485.9 L480.0 511.2 L560.0 608.6 L640.0 611.6 L720.0 561.4 L800.0 531.5 L880.0 451.1 L960.0 412.6 L1040.0 400.5 L1120.0 431.1 L1200.0 343.7 L1280.0 343.8 L1360.0 275.8 L1440.0 323.3 L1520.0 313.2 L1600.0 322.1 L1600 900 Z" fill="hsl(78.8 49.9% 66.4%)"/><path d="M0 900 L0 493.9 L0.0 493.9 L80.0 518.2 L160.0 569.1 L240.0 513.9 L320.0 523.0 L400.0 622.3 L480.0 545.2 L560.0 533.2 L640.0 646.3 L720.0 595.4 L800.0 458.6 L880.0 478.7 L960.0 394.8 L1040.0 398.2 L1120.0 385.4 L1200.0 531.3 L1280.0 644.6 L1360.0 615.9 L1440.0 626.3 L1520.0 654.8 L1600.0 602.8 L1600 900 Z" fill="hsl(82.0 49.4% 65.0%)"/><path d="M0 900 L0 607.8 L0.0 607.8 L114.3 553.1 L228.6 541.1 L342.9 491.0 L457.1 503.2 L571.4 402.2 L685.7 409.6 L800.0 470.1 L914.3 539.1 L1028.6 621.0 L1142.9 703.6 L1257.1 625.7 L1371.4 636.2 L1485.7 466.8 L1600.0 522.8 L1600 900 Z" fill="hsl(91.7 47.9% 61.0%)"/><path d="M0 900 L0 651.9 L0.0 651.9 L94.1 679.8 L188.2 685.2 L282.4 547.4 L376.5 505.6 L470.6 519.2 L564.7 596.8 L658.8 590.7 L752.9 552.7 L847.1 582.8 L941.2 644.5 L1035.3 724.1 L1129.4 671.0 L1223.5 624.7 L1317.6 621.3 L1411.8 572.2 L1505.9 598.8 L1600.0 538.8 L1600 900 Z" fill="hsl(107.8 45.5% 54.3%)"/><rect x="0" y="626.3" width="1600" height="199.2" fill="url(#gwwxoiy-fog3)"/><path d="M0 900 L0 744.3 L0.0 744.3 L80.0 662.7 L160.0 651.8 L240.0 597.6 L320.0 583.6 L400.0 629.1 L480.0 584.7 L560.0 610.2 L640.0 625.1 L720.0 596.8 L800.0 649.8 L880.0 666.5 L960.0 732.2 L1040.0 735.3 L1120.0 689.0 L1200.0 697.3 L1280.0 588.8 L1360.0 564.7 L1440.0 580.5 L1520.0 596.5 L1600.0 585.4 L1600 900 Z" fill="hsl(130.4 42.0% 44.9%)"/><rect x="0" y="660.4" width="1600" height="172.6" fill="url(#gwwxoiy-fog4)"/><path d="M0 900 L0 722.3 L0.0 722.3 L84.2 696.2 L168.4 635.1 L252.6 597.0 L336.8 623.9 L421.1 633.1 L505.3 621.6 L589.5 632.7 L673.7 658.5 L757.9 610.1 L842.1 649.4 L926.3 702.4 L1010.5 716.2 L1094.7 731.5 L1178.9 780.0 L1263.2 720.3 L1347.4 725.0 L1431.6 682.0 L1515.8 632.8 L1600.0 632.7 L1600 900 Z" fill="hsl(159.5 37.5% 32.8%)"/><rect x="0" y="694.5" width="1600" height="146.4" fill="url(#gwwxoiy-fog5)"/><path d="M0 900 L0 743.9 L0.0 743.9 L88.9 740.8 L177.8 754.0 L266.7 748.8 L355.6 732.5 L444.4 721.8 L533.3 749.6 L622.2 739.5 L711.1 702.6 L800.0 689.6 L888.9 680.3 L977.8 664.9 L1066.7 734.1 L1155.6 736.5 L1244.4 753.5 L1333.3 739.1 L1422.2 730.5 L1511.1 759.5 L1600.0 781.8 L1600 900 Z" fill="hsl(195.0 32.0% 18.0%)"/><rect width="1600" height="900" fill="url(#gwwxoiy-vig)"/></svg>