<svg xmlns="http://www.w3.org/2000/svg" viewBox="0 0 1600 900" role="img" preserveAspectRatio="xMidYMid slice"><title>ha-giang-loop-mua-tam-giac-mach s2</title><defs><linearGradient id="g1ivirf-sky" x1="0" y1="0" x2="0" y2="1"><stop offset="0%" stop-color="hsl(265.0 38.0% 26.0%)"/><stop offset="50%" stop-color="hsl(348.0 55.0% 46.0%)"/><stop offset="100%" stop-color="hsl(22.0 90.0% 58.0%)"/></linearGradient><radialGradient id="g1ivirf-glow"><stop offset="0%" stop-color="hsl(24.0 95.0% 66.0% / 0.850)"/><stop offset="45%" stop-color="hsl(24.0 95.0% 66.0% / 0.250)"/><stop offset="100%" stop-color="hsl(24.0 95.0% 66.0% / 0.000)"/></radialGradient><radialGradient id="g1ivirf-vig" cx="50%" cy="42%" r="75%"><stop offset="70%" stop-color="hsl(0 0% 0% / 0)"/><stop offset="100%" stop-color="hsl(0 0% 0% / 0.18)"/></radialGradient></defs><rect width="1600" height="563.8" fill="url(#g1ivirf-sky)"/><rect y="562.8" width="1600" height="337.2" fill="hsl(305.5 43.5% 25.0%)"/><circle cx="530.8" cy="496.1" r="230" fill="url(#g1ivirf-glow)"/><circle cx="530.8" cy="496.1" r="78" fill="hsl(24.0 95.0% 66.0%)"/><path d="M0 900 L0 472.5 Q0.0 472.5 44.4 424.1 Q88.9 375.6 133.3 391.8 Q177.8 407.9 222.2 391.2 Q266.7 374.5 311.1 395.6 Q355.6 416.8 400.0 404.9 Q444.4 392.9 488.9 377.4 Q533.3 361.8 577.8 394.8 Q622.2 427.9 666.7 441.8 Q711.1 455.8 755.6 502.5 Q800.0 549.1 844.4 552.5 Q888.9 555.9 933.3 552.9 Q977.8 549.8 1022.2 510.7 Q1066.7 471.6 1111.1 428.9 Q1155.6 386.1 1200.0 388.2 Q1244.4 390.2 1288.9 365.9 Q1333.3 341.6 1377.8 385.6 Q1422.2 429.6 1466.7 409.8 Q1511.1 390.0 1555.6 412.0 L1600 434.1 L1600 900 Z" fill="hsl(359.6 76.4% 48.3%)"/><path d="M0 900 L0 570.4 Q0.0 570.4 57.1 530.1 Q114.3 489.8 171.4 469.7 Q228.6 449.7 285.7 445.4 Q342.9 441.1 400.0 453.4 Q457.1 465.8 514.3 441.9 Q571.4 418.1 628.6 421.4 Q685.7 424.6 742.9 392.2 Q800.0 359.8 857.1 402.4 Q914.3 445.0 971.4 477.3 Q1028.6 509.7 1085.7 550.4 Q1142.9 591.0 1200.0 565.8 Q1257.1 540.6 1314.3 534.9 Q1371.4 529.1 1428.6 506.1 Q1485.7 483.1 1542.9 465.7 L1600 448.2 L1600 900 Z" fill="hsl(357.4 75.0% 47.4%)"/><path d="M0 900 L0 567.8 Q0.0 567.8 38.1 560.1 Q76.2 552.3 114.3 523.2 Q152.4 494.1 190.5 493.3 Q228.6 492.5 266.7 507.8 Q304.8 523.2 342.9 502.1 Q381.0 481.1 419.0 482.2 Q457.1 483.3 495.2 498.2 Q533.3 513.0 571.4 489.9 Q609.5 466.8 647.6 495.5 Q685.7 524.3 723.8 565.6 Q761.9 607.0 800.0 598.5 Q838.1 590.0 876.2 598.7 Q914.3 607.5 952.4 596.8 Q990.5 586.2 1028.6 548.0 Q1066.7 509.8 1104.8 495.9 Q1142.9 481.9 1181.0 476.8 Q1219.0 471.7 1257.1 466.0 Q1295.2 460.2 1333.3 479.1 Q1371.4 498.0 1409.5 520.2 Q1447.6 542.4 1485.7 546.9 Q1523.8 551.4 1561.9 553.5 L1600 555.5 L1600 900 Z" fill="hsl(350.7 71.0% 44.5%)"/><path d="M0 900 L0 520.1 Q0.0 520.1 53.3 534.8 Q106.7 549.5 160.0 545.4 Q213.3 541.2 266.7 550.1 Q320.0 558.9 373.3 549.9 Q426.7 540.9 480.0 557.7 Q533.3 574.5 586.7 603.0 Q640.0 631.5 693.3 629.2 Q746.7 626.9 800.0 640.6 Q853.3 654.3 906.7 607.9 Q960.0 561.6 1013.3 538.2 Q1066.7 514.7 1120.0 515.7 Q1173.3 516.7 1226.7 537.5 Q1280.0 558.3 1333.3 571.2 Q1386.7 584.0 1440.0 564.5 Q1493.3 545.1 1546.7 572.1 L1600 599.1 L1600 900 Z" fill="hsl(339.7 64.3% 39.7%)"/><path d="M0 900 L0 592.3 Q0.0 592.3 53.3 563.4 Q106.7 534.5 160.0 553.1 Q213.3 571.6 266.7 594.0 Q320.0 616.5 373.3 625.4 Q426.7 634.4 480.0 651.5 Q533.3 668.7 586.7 656.8 Q640.0 645.0 693.3 639.2 Q746.7 633.3 800.0 631.0 Q853.3 628.7 906.7 623.3 Q960.0 618.0 1013.3 608.9 Q1066.7 599.8 1120.0 594.6 Q1173.3 589.5 1226.7 561.6 Q1280.0 533.7 1333.3 550.7 Q1386.7 567.8 1440.0 598.8 Q1493.3 629.9 1546.7 631.8 L1600 633.6 L1600 900 Z" fill="hsl(324.2 54.9% 33.1%)"/><path d="M0 900 L0 573.1 Q0.0 573.1 57.1 600.6 Q114.3 628.0 171.4 642.4 Q228.6 656.8 285.7 663.4 Q342.9 670.0 400.0 659.9 Q457.1 649.8 514.3 681.9 Q571.4 714.1 628.6 700.7 Q685.7 687.2 742.9 665.2 Q800.0 643.2 857.1 617.0 Q914.3 590.8 971.4 611.1 Q1028.6 631.4 1085.7 625.9 Q1142.9 620.3 1200.0 618.9 Q1257.1 617.4 1314.3 615.4 Q1371.4 613.4 1428.6 641.5 Q1485.7 669.6 1542.9 685.1 L1600 700.5 L1600 900 Z" fill="hsl(304.3 42.8% 24.5%)"/><path d="M0 900 L0 703.6 Q0.0 703.6 47.1 694.1 Q94.1 684.7 141.2 682.5 Q188.2 680.3 235.3 689.3 Q282.4 698.3 329.4 687.6 Q376.5 677.0 423.5 669.3 Q470.6 661.6 517.6 645.5 Q564.7 629.3 611.8 654.3 Q658.8 679.3 705.9 685.1 Q752.9 691.0 800.0 705.1 Q847.1 719.1 894.1 712.9 Q941.2 706.7 988.2 700.2 Q1035.3 693.7 1082.4 706.1 Q1129.4 718.4 1176.5 717.7 Q1223.5 717.0 1270.6 726.4 Q1317.6 735.8 1364.7 717.4 Q1411.8 698.9 1458.8 686.6 Q1505.9 674.2 1552.9 664.0 L1600 653.8 L1600 900 Z" fill="hsl(280.0 28.0% 14.0%)"/><rect width="1600" height="900" fill="url(#g1ivirf-vig)"/></svg>