<svg xmlns="http://www.w3.org/2000/svg" viewBox="0 0 1600 900" role="img" preserveAspectRatio="xMidYMid slice"><title>cao-bang-thac-ban-gioc hero</title><defs><linearGradient id="g1lwkydv-sky" x1="0" y1="0" x2="0" y2="1"><stop offset="0%" stop-color="hsl(195.0 40.0% 56.0%)"/><stop offset="50%" stop-color="hsl(185.0 32.0% 70.0%)"/><stop offset="100%" stop-color="hsl(80.0 25.0% 76.0%)"/></linearGradient><radialGradient id="g1lwkydv-glow"><stop offset="0%" stop-color="hsl(50.0 60.0% 86.0% / 0.850)"/><stop offset="45%" stop-color="hsl(50.0 60.0% 86.0% / 0.250)"/><stop offset="100%" stop-color="hsl(50.0 60.0% 86.0% / 0.000)"/></radialGradient><linearGradient id="g1lwkydv-fog2" x1="0" y1="0" x2="0" y2="1"><stop offset="0%" stop-color="hsl(40 20% 96% / 0)"/><stop offset="55%" stop-color="hsl(40 20% 96% / 0.24)"/><stop offset="100%" stop-color="hsl(40 20% 96% / 0)"/></linearGradient><linearGradient id="g1lwkydv-fog3" x1="0" y1="0" x2="0" y2="1"><stop offset="0%" stop-color="hsl(40 20% 96% / 0)"/><stop offset="55%" stop-color="hsl(40 20% 96% / 0.32)"/><stop offset="100%" stop-color="hsl(40 20% 96% / 0)"/></linearGradient><linearGradient id="g1lwkydv-fall" x1="0" y1="0" x2="0" y2="1"><stop offset="0%" stop-color="hsl(190 30% 96% / 0.95)"/><stop offset="100%" stop-color="hsl(190 35% 88% / 0.55)"/></linearGradient><radialGradient id="g1lwkydv-vig" cx="50%" cy="42%" r="75%"><stop offset="70%" stop-color="hsl(0 0% 0% / 0)"/><stop offset="100%" stop-color="hsl(0 0% 0% / 0.18)"/></radialGradient></defs><rect width="1600" height="537.1" fill="url(#g1lwkydv-sky)"/><rect y="536.1" width="1600" height="363.9" fill="hsl(140.0 25.0% 31.0%)"/><circle cx="709.9" cy="268.6" r="90" fill="url(#g1lwkydv-glow)"/><circle cx="709.9" cy="268.6" r="40" fill="hsl(50.0 60.0% 86.0%)"/><path d="M0 900 L0 393.3 Q0.0 393.3 42.1 370.1 Q84.2 346.9 126.3 375.9 Q168.4 404.9 210.5 401.2 Q252.6 397.6 294.7 358.9 Q336.8 320.2 378.9 332.3 Q421.1 344.3 463.2 314.7 Q505.3 285.0 547.4 285.4 Q589.5 285.8 631.6 344.6 Q673.7 403.5 715.8 447.8 Q757.9 492.1 800.0 489.6 Q842.1 487.2 884.2 481.1 Q926.3 475.0 968.4 473.0 Q1010.5 471.0 1052.6 460.1 Q1094.7 449.2 1136.8 454.0 Q1178.9 458.8 1221.1 493.3 Q1263.2 527.8 1305.3 508.7 Q1347.4 489.7 1389.5 427.6 Q1431.6 365.4 1473.7 337.7 Q1515.8 310.0 1557.9 326.3 L1600 342.5 L1600 900 Z" fill="hsl(97.6 25.0% 62.8%)"/><path d="M0 900 L0 501.4 Q0.0 501.4 53.3 457.0 Q106.7 412.5 160.0 412.0 Q213.3 411.5 266.7 439.0 Q320.0 466.5 373.3 474.3 Q426.7 482.1 480.0 491.1 Q533.3 500.0 586.7 492.0 Q640.0 484.1 693.3 496.1 Q746.7 508.2 800.0 548.2 Q853.3 588.2 906.7 580.0 Q960.0 571.9 1013.3 535.6 Q1066.7 499.3 1120.0 499.7 Q1173.3 500.2 1226.7 486.2 Q1280.0 472.2 1333.3 470.8 Q1386.7 469.4 1440.0 460.8 Q1493.3 452.3 1546.7 427.1 L1600 401.9 L1600 900 Z" fill="hsl(101.5 25.0% 59.9%)"/><path d="M0 900 L0 509.0 Q0.0 509.0 40.0 484.4 Q80.0 459.8 120.0 470.4 Q160.0 481.0 200.0 512.8 Q240.0 544.7 280.0 538.1 Q320.0 531.5 360.0 521.8 Q400.0 512.1 440.0 530.7 Q480.0 549.2 520.0 556.6 Q560.0 563.9 600.0 569.9 Q640.0 575.9 680.0 570.3 Q720.0 564.7 760.0 591.2 Q800.0 617.7 840.0 626.4 Q880.0 635.1 920.0 600.3 Q960.0 565.6 1000.0 556.2 Q1040.0 546.9 1080.0 529.3 Q1120.0 511.8 1160.0 502.6 Q1200.0 493.5 1240.0 472.3 Q1280.0 451.1 1320.0 453.1 Q1360.0 455.2 1400.0 488.1 Q1440.0 521.0 1480.0 547.6 Q1520.0 574.3 1560.0 578.4 L1600 582.6 L1600 900 Z" fill="hsl(113.2 25.0% 51.1%)"/><rect x="0" y="565.8" width="1600" height="188.5" fill="url(#g1lwkydv-fog2)"/><path d="M0 900 L0 602.2 Q0.0 602.2 53.3 611.2 Q106.7 620.1 160.0 610.3 Q213.3 600.4 266.7 604.2 Q320.0 608.0 373.3 591.8 Q426.7 575.6 480.0 588.7 Q533.3 601.7 586.7 628.7 Q640.0 655.6 693.3 662.8 Q746.7 670.0 800.0 672.1 Q853.3 674.3 906.7 639.5 Q960.0 604.8 1013.3 590.2 Q1066.7 575.7 1120.0 562.7 Q1173.3 549.7 1226.7 571.8 Q1280.0 593.9 1333.3 620.0 Q1386.7 646.2 1440.0 657.4 Q1493.3 668.7 1546.7 649.2 L1600 629.8 L1600 900 Z" fill="hsl(132.7 25.0% 36.5%)"/><rect x="0" y="633.7" width="1600" height="137.9" fill="url(#g1lwkydv-fog3)"/><path d="M0 900 L0 630.1 Q0.0 630.1 38.1 635.7 Q76.2 641.2 114.3 654.3 Q152.4 667.4 190.5 683.7 Q228.6 700.1 266.7 709.8 Q304.8 719.6 342.9 729.7 Q381.0 739.8 419.0 720.2 Q457.1 700.5 495.2 681.3 Q533.3 662.1 571.4 652.4 Q609.5 642.8 647.6 652.7 Q685.7 662.6 723.8 658.3 Q761.9 654.0 800.0 655.2 Q838.1 656.5 876.2 649.5 Q914.3 642.5 952.4 638.1 Q990.5 633.7 1028.6 642.8 Q1066.7 651.9 1104.8 678.0 Q1142.9 704.2 1181.0 720.4 Q1219.0 736.7 1257.1 723.7 Q1295.2 710.8 1333.3 713.2 Q1371.4 715.7 1409.5 701.0 Q1447.6 686.3 1485.7 669.0 Q1523.8 651.8 1561.9 645.4 L1600 639.0 L1600 900 Z" fill="hsl(160.0 25.0% 16.0%)"/><rect x="896.0" y="200.6" width="71.7" height="501.4" rx="29.9" fill="url(#g1lwkydv-fall)"/><ellipse cx="931.8" cy="720.0" rx="172.1" ry="26" fill="hsl(190 30% 94% / 0.5)"/><rect width="1600" height="900" fill="url(#g1lwkydv-vig)"/></svg>