<svg xmlns="http://www.w3.org/2000/svg" viewBox="0 0 1600 900" role="img" preserveAspectRatio="xMidYMid slice"><title>cao-bang-thac-ban-gioc s2</title><defs><linearGradient id="gc6vxy6-sky" x1="0" y1="0" x2="0" y2="1"><stop offset="0%" stop-color="hsl(170.0 30.0% 52.0%)"/><stop offset="50%" stop-color="hsl(150.0 25.0% 68.0%)"/><stop offset="100%" stop-color="hsl(60.0 35.0% 78.0%)"/></linearGradient><radialGradient id="gc6vxy6-glow"><stop offset="0%" stop-color="hsl(52.0 70.0% 84.0% / 0.850)"/><stop offset="45%" stop-color="hsl(52.0 70.0% 84.0% / 0.250)"/><stop offset="100%" stop-color="hsl(52.0 70.0% 84.0% / 0.000)"/></radialGradient><linearGradient id="gc6vxy6-fog0" x1="0" y1="0" x2="0" y2="1"><stop offset="0%" stop-color="hsl(40 20% 96% / 0)"/><stop offset="55%" stop-color="hsl(40 20% 96% / 0.30)"/><stop offset="100%" stop-color="hsl(40 20% 96% / 0)"/></linearGradient><linearGradient id="gc6vxy6-fog1" x1="0" y1="0" x2="0" y2="1"><stop offset="0%" stop-color="hsl(40 20% 96% / 0)"/><stop offset="55%" stop-color="hsl(40 20% 96% / 0.32)"/><stop offset="100%" stop-color="hsl(40 20% 96% / 0)"/></linearGradient><linearGradient id="gc6vxy6-fog2" x1="0" y1="0" x2="0" y2="1"><stop offset="0%" stop-color="hsl(40 20% 96% / 0)"/><stop offset="55%" stop-color="hsl(40 20% 96% / 0.22)"/><stop offset="100%" stop-color="hsl(40 20% 96% / 0)"/></linearGradient><linearGradient id="gc6vxy6-fog4" x1="0" y1="0" x2="0" y2="1"><stop offset="0%" stop-color="hsl(40 20% 96% / 0)"/><stop offset="55%" stop-color="hsl(40 20% 96% / 0.19)"/><stop offset="100%" stop-color="hsl(40 20% 96% / 0)"/></linearGradient><linearGradient id="gc6vxy6-fog6" x1="0" y1="0" x2="0" y2="1"><stop offset="0%" stop-color="hsl(40 20% 96% / 0)"/><stop offset="55%" stop-color="hsl(40 20% 96% / 0.16)"/><stop offset="100%" stop-color="hsl(40 20% 96% / 0)"/></linearGradient><radialGradient id="gc6vxy6-vig" cx="50%" cy="42%" r="75%"><stop offset="70%" stop-color="hsl(0 0% 0% / 0)"/><stop offset="100%" stop-color="hsl(0 0% 0% / 0.18)"/></radialGradient></defs><rect width="1600" height="573.1" fill="url(#gc6vxy6-sky)"/><rect y="572.1" width="1600" height="327.9" fill="hsl(133.5 35.0% 28.5%)"/><circle cx="489.4" cy="315.2" r="100" fill="url(#gc6vxy6-glow)"/><circle cx="489.4" cy="315.2" r="42" fill="hsl(52.0 70.0% 84.0%)"/><path d="M0 900 L0 459.2 L0.0 459.2 L114.3 510.0 L228.6 554.2 L342.9 417.9 L457.1 316.4 L571.4 331.4 L685.7 383.2 L800.0 471.0 L914.3 395.7 L1028.6 529.3 L1142.9 601.2 L1257.1 485.1 L1371.4 338.4 L1485.7 365.1 L1600.0 338.2 L1600 900 Z" fill="hsl(81.6 35.0% 63.5%)"/><rect x="0" y="470.6" width="1600" height="274.8" fill="url(#gc6vxy6-fog0)"/><path d="M0 900 L0 570.8 L0.0 570.8 L94.1 583.0 L188.2 554.4 L282.4 507.7 L376.5 459.1 L470.6 385.5 L564.7 410.2 L658.8 378.7 L752.9 347.8 L847.1 402.1 L941.2 534.8 L1035.3 618.7 L1129.4 546.3 L1223.5 523.8 L1317.6 395.6 L1411.8 287.7 L1505.9 325.4 L1600.0 480.1 L1600 900 Z" fill="hsl(83.1 35.0% 62.4%)"/><rect x="0" y="486.5" width="1600" height="291.6" fill="url(#gc6vxy6-fog1)"/><path d="M0 900 L0 366.9 L0.0 366.9 L114.3 429.7 L228.6 411.5 L342.9 401.3 L457.1 405.4 L571.4 522.5 L685.7 609.3 L800.0 565.3 L914.3 503.7 L1028.6 566.6 L1142.9 535.6 L1257.1 423.5 L1371.4 341.1 L1485.7 423.9 L1600.0 502.3 L1600 900 Z" fill="hsl(87.8 35.0% 59.3%)"/><rect x="0" y="518.8" width="1600" height="271.5" fill="url(#gc6vxy6-fog2)"/><path d="M0 900 L0 512.5 L0.0 512.5 L88.9 525.4 L177.8 514.3 L266.7 532.2 L355.6 499.8 L444.4 509.9 L533.3 592.2 L622.2 645.4 L711.1 649.7 L800.0 641.8 L888.9 538.4 L977.8 601.0 L1066.7 580.0 L1155.6 542.4 L1244.4 523.8 L1333.3 454.9 L1422.2 508.5 L1511.1 560.0 L1600.0 599.3 L1600 900 Z" fill="hsl(95.6 35.0% 54.0%)"/><path d="M0 900 L0 477.3 L0.0 477.3 L94.1 480.7 L188.2 477.8 L282.4 543.1 L376.5 607.6 L470.6 584.6 L564.7 626.6 L658.8 647.7 L752.9 612.8 L847.1 641.5 L941.2 464.8 L1035.3 465.4 L1129.4 484.1 L1223.5 520.1 L1317.6 648.2 L1411.8 624.3 L1505.9 632.6 L1600.0 569.7 L1600 900 Z" fill="hsl(106.5 35.0% 46.7%)"/><rect x="0" y="588.5" width="1600" height="219.7" fill="url(#gc6vxy6-fog4)"/><path d="M0 900 L0 601.4 L0.0 601.4 L76.2 619.0 L152.4 663.2 L228.6 684.1 L304.8 678.4 L381.0 708.4 L457.1 681.5 L533.3 630.2 L609.5 549.1 L685.7 561.7 L761.9 583.9 L838.1 565.7 L914.3 575.7 L990.5 649.2 L1066.7 660.7 L1142.9 636.1 L1219.0 641.9 L1295.2 653.9 L1371.4 679.8 L1447.6 685.8 L1523.8 664.2 L1600.0 630.3 L1600 900 Z" fill="hsl(120.6 35.0% 37.2%)"/><path d="M0 900 L0 687.8 L0.0 687.8 L106.7 670.4 L213.3 697.6 L320.0 675.8 L426.7 662.4 L533.3 637.5 L640.0 566.6 L746.7 594.4 L853.3 597.8 L960.0 684.9 L1066.7 730.1 L1173.3 698.1 L1280.0 699.1 L1386.7 574.1 L1493.3 560.9 L1600.0 585.9 L1600 900 Z" fill="hsl(137.7 35.0% 25.7%)"/><rect x="0" y="659.6" width="1600" height="164.7" fill="url(#gc6vxy6-fog6)"/><path d="M0 900 L0 739.3 L0.0 739.3 L106.7 708.4 L213.3 651.6 L320.0 655.8 L426.7 673.7 L533.3 717.1 L640.0 706.8 L746.7 730.9 L853.3 718.0 L960.0 749.8 L1066.7 737.0 L1173.3 681.2 L1280.0 647.0 L1386.7 680.6 L1493.3 688.4 L1600.0 674.9 L1600 900 Z" fill="hsl(158.0 35.0% 12.0%)"/><rect width="1600" height="900" fill="url(#gc6vxy6-vig)"/></svg>