<svg xmlns="http://www.w3.org/2000/svg" viewBox="0 0 1600 900" role="img" preserveAspectRatio="xMidYMid slice"><title>cao-bang-thac-ban-gioc s1</title><defs><linearGradient id="g17g6pdb-sky" x1="0" y1="0" x2="0" y2="1"><stop offset="0%" stop-color="hsl(195.0 40.0% 56.0%)"/><stop offset="50%" stop-color="hsl(185.0 32.0% 70.0%)"/><stop offset="100%" stop-color="hsl(80.0 25.0% 76.0%)"/></linearGradient><radialGradient id="g17g6pdb-glow"><stop offset="0%" stop-color="hsl(50.0 60.0% 86.0% / 0.850)"/><stop offset="45%" stop-color="hsl(50.0 60.0% 86.0% / 0.250)"/><stop offset="100%" stop-color="hsl(50.0 60.0% 86.0% / 0.000)"/></radialGradient><linearGradient id="g17g6pdb-fog1" x1="0" y1="0" x2="0" y2="1"><stop offset="0%" stop-color="hsl(40 20% 96% / 0)"/><stop offset="55%" stop-color="hsl(40 20% 96% / 0.21)"/><stop offset="100%" stop-color="hsl(40 20% 96% / 0)"/></linearGradient><linearGradient id="g17g6pdb-fall" x1="0" y1="0" x2="0" y2="1"><stop offset="0%" stop-color="hsl(190 30% 96% / 0.95)"/><stop offset="100%" stop-color="hsl(190 35% 88% / 0.55)"/></linearGradient><radialGradient id="g17g6pdb-vig" cx="50%" cy="42%" r="75%"><stop offset="70%" stop-color="hsl(0 0% 0% / 0)"/><stop offset="100%" stop-color="hsl(0 0% 0% / 0.18)"/></radialGradient></defs><rect width="1600" height="560.9" fill="url(#g17g6pdb-sky)"/><rect y="559.9" width="1600" height="340.1" fill="hsl(140.0 25.0% 31.0%)"/><circle cx="1018.2" cy="280.4" r="90" fill="url(#g17g6pdb-glow)"/><circle cx="1018.2" cy="280.4" r="40" fill="hsl(50.0 60.0% 86.0%)"/><path d="M0 900 L0 571.8 Q0.0 571.8 47.1 543.0 Q94.1 514.1 141.2 464.3 Q188.2 414.6 235.3 385.0 Q282.4 355.3 329.4 343.7 Q376.5 332.0 423.5 324.8 Q470.6 317.5 517.6 331.7 Q564.7 345.8 611.8 313.1 Q658.8 280.3 705.9 313.0 Q752.9 345.8 800.0 429.3 Q847.1 512.8 894.1 539.3 Q941.2 565.8 988.2 517.0 Q1035.3 468.3 1082.4 450.9 Q1129.4 433.4 1176.5 447.9 Q1223.5 462.3 1270.6 441.1 Q1317.6 419.8 1364.7 389.4 Q1411.8 359.1 1458.8 314.2 Q1505.9 269.3 1552.9 254.5 L1600 239.6 L1600 900 Z" fill="hsl(97.6 25.0% 62.8%)"/><path d="M0 900 L0 358.2 Q0.0 358.2 50.0 353.7 Q100.0 349.2 150.0 404.6 Q200.0 459.9 250.0 482.3 Q300.0 504.7 350.0 520.8 Q400.0 536.8 450.0 527.1 Q500.0 517.4 550.0 509.3 Q600.0 501.2 650.0 504.0 Q700.0 506.9 750.0 486.7 Q800.0 466.5 850.0 467.8 Q900.0 469.1 950.0 417.8 Q1000.0 366.4 1050.0 371.9 Q1100.0 377.4 1150.0 425.8 Q1200.0 474.1 1250.0 516.4 Q1300.0 558.7 1350.0 579.0 Q1400.0 599.2 1450.0 574.6 Q1500.0 549.9 1550.0 521.0 L1600 492.2 L1600 900 Z" fill="hsl(101.5 25.0% 59.9%)"/><rect x="0" y="507.6" width="1600" height="261.0" fill="url(#g17g6pdb-fog1)"/><path d="M0 900 L0 570.6 Q0.0 570.6 38.1 576.6 Q76.2 582.6 114.3 570.2 Q152.4 557.9 190.5 574.4 Q228.6 590.9 266.7 596.6 Q304.8 602.3 342.9 579.4 Q381.0 556.5 419.0 545.8 Q457.1 535.2 495.2 521.2 Q533.3 507.2 571.4 493.2 Q609.5 479.1 647.6 474.5 Q685.7 469.8 723.8 482.5 Q761.9 495.2 800.0 495.8 Q838.1 496.5 876.2 544.5 Q914.3 592.6 952.4 602.7 Q990.5 612.9 1028.6 625.3 Q1066.7 637.7 1104.8 641.5 Q1142.9 645.3 1181.0 633.8 Q1219.0 622.3 1257.1 597.5 Q1295.2 572.7 1333.3 558.7 Q1371.4 544.8 1409.5 529.0 Q1447.6 513.2 1485.7 507.9 Q1523.8 502.6 1561.9 523.5 L1600 544.4 L1600 900 Z" fill="hsl(113.2 25.0% 51.1%)"/><path d="M0 900 L0 623.5 Q0.0 623.5 57.1 613.3 Q114.3 603.1 171.4 614.7 Q228.6 626.4 285.7 606.0 Q342.9 585.5 400.0 601.1 Q457.1 616.7 514.3 631.4 Q571.4 646.2 628.6 672.0 Q685.7 697.9 742.9 697.8 Q800.0 697.7 857.1 668.2 Q914.3 638.7 971.4 633.2 Q1028.6 627.7 1085.7 611.3 Q1142.9 595.0 1200.0 606.1 Q1257.1 617.1 1314.3 605.2 Q1371.4 593.2 1428.6 606.4 Q1485.7 619.6 1542.9 616.9 L1600 614.2 L1600 900 Z" fill="hsl(132.7 25.0% 36.5%)"/><path d="M0 900 L0 657.3 Q0.0 657.3 38.1 656.1 Q76.2 655.0 114.3 647.0 Q152.4 639.0 190.5 658.4 Q228.6 677.8 266.7 685.9 Q304.8 694.1 342.9 701.8 Q381.0 709.6 419.0 713.4 Q457.1 717.2 495.2 713.6 Q533.3 709.9 571.4 701.4 Q609.5 693.0 647.6 708.3 Q685.7 723.6 723.8 717.2 Q761.9 710.9 800.0 699.7 Q838.1 688.5 876.2 687.1 Q914.3 685.6 952.4 667.3 Q990.5 648.9 1028.6 651.7 Q1066.7 654.4 1104.8 660.8 Q1142.9 667.3 1181.0 674.7 Q1219.0 682.1 1257.1 710.6 Q1295.2 739.0 1333.3 738.9 Q1371.4 738.7 1409.5 733.4 Q1447.6 728.0 1485.7 716.2 Q1523.8 704.4 1561.9 695.7 L1600 686.9 L1600 900 Z" fill="hsl(160.0 25.0% 16.0%)"/><rect x="899.5" y="273.9" width="47.9" height="428.1" rx="19.9" fill="url(#g17g6pdb-fall)"/><ellipse cx="923.4" cy="720.0" rx="114.9" ry="26" fill="hsl(190 30% 94% / 0.5)"/><rect width="1600" height="900" fill="url(#g17g6pdb-vig)"/></svg>