<svg xmlns="http://www.w3.org/2000/svg" viewBox="0 0 128 128">
  <rect width="128" height="128" rx="28" fill="#1d1b26"/>
  <circle cx="86" cy="42" r="17" fill="#f5b04a"/>
  <path d="M0 78 L30 46 L52 70 L70 50 L100 82 L128 60 L128 128 L0 128 Z" fill="#3a3547"/>
  <path d="M0 96 L26 72 L50 94 L78 68 L104 92 L128 76 L128 128 L0 128 Z" fill="#262230"/>
  <path d="M50 128 C58 104 74 96 79 82 L83 82 C80 98 70 108 66 128 Z" fill="#4d475e"/>
  <path d="M65 124 l3 -8 M70 110 l3 -8 M75 96 l2.5 -7" stroke="#f5b04a" stroke-width="3" stroke-linecap="round" fill="none"/>
</svg>
