<svg xmlns="http://www.w3.org/2000/svg" viewBox="0 0 1600 900" role="img" preserveAspectRatio="xMidYMid slice"><title>bao-loc-deo-va-do-c hero</title><defs><linearGradient id="g16aay73-sky" x1="0" y1="0" x2="0" y2="1"><stop offset="0%" stop-color="hsl(248.0 42.0% 22.0%)"/><stop offset="50%" stop-color="hsl(330.0 45.0% 48.0%)"/><stop offset="100%" stop-color="hsl(28.0 85.0% 62.0%)"/></linearGradient><radialGradient id="g16aay73-glow"><stop offset="0%" stop-color="hsl(35.0 95.0% 72.0% / 0.850)"/><stop offset="45%" stop-color="hsl(35.0 95.0% 72.0% / 0.250)"/><stop offset="100%" stop-color="hsl(35.0 95.0% 72.0% / 0.000)"/></radialGradient><linearGradient id="g16aay73-fog1" x1="0" y1="0" x2="0" y2="1"><stop offset="0%" stop-color="hsl(40 20% 96% / 0)"/><stop offset="55%" stop-color="hsl(40 20% 96% / 0.27)"/><stop offset="100%" stop-color="hsl(40 20% 96% / 0)"/></linearGradient><radialGradient id="g16aay73-vig" cx="50%" cy="42%" r="75%"><stop offset="70%" stop-color="hsl(0 0% 0% / 0)"/><stop offset="100%" stop-color="hsl(0 0% 0% / 0.18)"/></radialGradient></defs><rect width="1600" height="550.7" fill="url(#g16aay73-sky)"/><rect y="549.7" width="1600" height="350.3" fill="hsl(293.5 40.0% 27.5%)"/><circle cx="1158.9" cy="506.6" r="200" fill="url(#g16aay73-glow)"/><circle cx="1158.9" cy="506.6" r="64" fill="hsl(35.0 95.0% 72.0%)"/><path d="M0 900 L0 488.6 Q0.0 488.6 50.0 483.6 Q100.0 478.6 150.0 476.1 Q200.0 473.6 250.0 468.5 Q300.0 463.3 350.0 468.3 Q400.0 473.4 450.0 441.5 Q500.0 409.6 550.0 392.7 Q600.0 375.8 650.0 377.0 Q700.0 378.2 750.0 370.2 Q800.0 362.2 850.0 404.8 Q900.0 447.4 950.0 484.3 Q1000.0 521.2 1050.0 522.9 Q1100.0 524.6 1150.0 538.2 Q1200.0 551.9 1250.0 495.5 Q1300.0 439.0 1350.0 395.4 Q1400.0 351.8 1450.0 361.2 Q1500.0 370.6 1550.0 368.0 L1600 365.5 L1600 900 Z" fill="hsl(0.3 71.8% 51.9%)"/><path d="M0 900 L0 435.4 Q0.0 435.4 50.0 457.1 Q100.0 478.8 150.0 433.0 Q200.0 387.2 250.0 407.2 Q300.0 427.2 350.0 428.3 Q400.0 429.5 450.0 493.4 Q500.0 557.2 550.0 566.5 Q600.0 575.8 650.0 590.1 Q700.0 604.3 750.0 530.3 Q800.0 456.2 850.0 459.4 Q900.0 462.6 950.0 436.9 Q1000.0 411.2 1050.0 431.6 Q1100.0 452.0 1150.0 437.9 Q1200.0 423.8 1250.0 428.0 Q1300.0 432.1 1350.0 424.5 Q1400.0 416.9 1450.0 486.4 Q1500.0 555.9 1550.0 575.1 L1600 594.3 L1600 900 Z" fill="hsl(354.1 68.9% 49.6%)"/><rect x="0" y="505.6" width="1600" height="246.9" fill="url(#g16aay73-fog1)"/><path d="M0 900 L0 546.6 Q0.0 546.6 53.3 519.1 Q106.7 491.6 160.0 511.7 Q213.3 531.8 266.7 545.5 Q320.0 559.3 373.3 590.0 Q426.7 620.7 480.0 626.3 Q533.3 632.0 586.7 624.6 Q640.0 617.1 693.3 583.1 Q746.7 549.1 800.0 531.3 Q853.3 513.5 906.7 528.8 Q960.0 544.1 1013.3 537.3 Q1066.7 530.4 1120.0 545.4 Q1173.3 560.4 1226.7 565.1 Q1280.0 569.7 1333.3 576.4 Q1386.7 583.0 1440.0 598.6 Q1493.3 614.3 1546.7 615.6 L1600 616.9 L1600 900 Z" fill="hsl(335.7 60.1% 42.9%)"/><path d="M0 900 L0 580.5 Q0.0 580.5 40.0 572.1 Q80.0 563.6 120.0 549.2 Q160.0 534.8 200.0 530.8 Q240.0 526.9 280.0 544.6 Q320.0 562.3 360.0 578.1 Q400.0 594.0 440.0 610.5 Q480.0 627.0 520.0 639.6 Q560.0 652.2 600.0 631.6 Q640.0 611.0 680.0 619.9 Q720.0 628.8 760.0 638.3 Q800.0 647.7 840.0 643.2 Q880.0 638.7 920.0 660.3 Q960.0 681.8 1000.0 680.9 Q1040.0 680.0 1080.0 645.5 Q1120.0 611.0 1160.0 595.5 Q1200.0 580.0 1240.0 575.0 Q1280.0 570.0 1320.0 552.0 Q1360.0 534.1 1400.0 557.5 Q1440.0 580.9 1480.0 579.0 Q1520.0 577.2 1560.0 560.3 L1600 543.4 L1600 900 Z" fill="hsl(305.0 45.5% 31.7%)"/><path d="M0 900 L0 720.3 Q0.0 720.3 57.1 712.1 Q114.3 704.0 171.4 695.6 Q228.6 687.2 285.7 681.5 Q342.9 675.7 400.0 684.6 Q457.1 693.4 514.3 682.6 Q571.4 671.8 628.6 677.0 Q685.7 682.2 742.9 671.8 Q800.0 661.4 857.1 662.9 Q914.3 664.4 971.4 687.7 Q1028.6 711.0 1085.7 713.1 Q1142.9 715.1 1200.0 727.1 Q1257.1 739.1 1314.3 736.1 Q1371.4 733.0 1428.6 720.3 Q1485.7 707.5 1542.9 700.6 L1600 693.7 L1600 900 Z" fill="hsl(262.0 25.0% 16.0%)"/><rect width="1600" height="900" fill="url(#g16aay73-vig)"/></svg>