<svg xmlns="http://www.w3.org/2000/svg" viewBox="0 0 1600 900" role="img" preserveAspectRatio="xMidYMid slice"><title>bao-loc-deo-va-do-c s1</title><defs><linearGradient id="givc8cb-sky" x1="0" y1="0" x2="0" y2="1"><stop offset="0%" stop-color="hsl(248.0 42.0% 22.0%)"/><stop offset="50%" stop-color="hsl(330.0 45.0% 48.0%)"/><stop offset="100%" stop-color="hsl(28.0 85.0% 62.0%)"/></linearGradient><radialGradient id="givc8cb-glow"><stop offset="0%" stop-color="hsl(35.0 95.0% 72.0% / 0.850)"/><stop offset="45%" stop-color="hsl(35.0 95.0% 72.0% / 0.250)"/><stop offset="100%" stop-color="hsl(35.0 95.0% 72.0% / 0.000)"/></radialGradient><linearGradient id="givc8cb-fog2" x1="0" y1="0" x2="0" y2="1"><stop offset="0%" stop-color="hsl(40 20% 96% / 0)"/><stop offset="55%" stop-color="hsl(40 20% 96% / 0.35)"/><stop offset="100%" stop-color="hsl(40 20% 96% / 0)"/></linearGradient><radialGradient id="givc8cb-vig" cx="50%" cy="42%" r="75%"><stop offset="70%" stop-color="hsl(0 0% 0% / 0)"/><stop offset="100%" stop-color="hsl(0 0% 0% / 0.18)"/></radialGradient></defs><rect width="1600" height="593.1" fill="url(#givc8cb-sky)"/><rect y="592.1" width="1600" height="307.9" fill="hsl(293.5 40.0% 27.5%)"/><circle cx="1115.8" cy="545.7" r="200" fill="url(#givc8cb-glow)"/><circle cx="1115.8" cy="545.7" r="64" fill="hsl(35.0 95.0% 72.0%)"/><path d="M0 900 L0 347.0 Q0.0 347.0 42.1 376.3 Q84.2 405.5 126.3 421.2 Q168.4 436.8 210.5 403.5 Q252.6 370.2 294.7 377.7 Q336.8 385.2 378.9 416.6 Q421.1 448.0 463.2 441.7 Q505.3 435.3 547.4 459.1 Q589.5 482.9 631.6 538.8 Q673.7 594.7 715.8 574.7 Q757.9 554.7 800.0 515.6 Q842.1 476.5 884.2 449.9 Q926.3 423.4 968.4 357.6 Q1010.5 291.8 1052.6 269.3 Q1094.7 246.7 1136.8 294.0 Q1178.9 341.2 1221.1 387.1 Q1263.2 433.0 1305.3 462.7 Q1347.4 492.5 1389.5 517.2 Q1431.6 542.0 1473.7 540.1 Q1515.8 538.3 1557.9 492.6 L1600 446.9 L1600 900 Z" fill="hsl(0.3 71.8% 51.9%)"/><path d="M0 900 L0 420.4 Q0.0 420.4 50.0 455.9 Q100.0 491.3 150.0 466.3 Q200.0 441.2 250.0 448.6 Q300.0 456.1 350.0 512.6 Q400.0 569.1 450.0 592.7 Q500.0 616.2 550.0 596.3 Q600.0 576.3 650.0 558.0 Q700.0 539.6 750.0 493.4 Q800.0 447.2 850.0 443.8 Q900.0 440.5 950.0 461.4 Q1000.0 482.2 1050.0 442.6 Q1100.0 403.0 1150.0 385.9 Q1200.0 368.8 1250.0 410.7 Q1300.0 452.5 1350.0 479.0 Q1400.0 505.4 1450.0 535.7 Q1500.0 565.9 1550.0 571.1 L1600 576.2 L1600 900 Z" fill="hsl(354.1 68.9% 49.6%)"/><path d="M0 900 L0 594.6 Q0.0 594.6 44.4 592.6 Q88.9 590.5 133.3 603.6 Q177.8 616.7 222.2 591.7 Q266.7 566.7 311.1 583.2 Q355.6 599.7 400.0 584.7 Q444.4 569.8 488.9 559.5 Q533.3 549.2 577.8 542.9 Q622.2 536.6 666.7 538.3 Q711.1 540.0 755.6 531.2 Q800.0 522.5 844.4 554.2 Q888.9 585.9 933.3 603.6 Q977.8 621.3 1022.2 629.3 Q1066.7 637.3 1111.1 647.1 Q1155.6 656.9 1200.0 624.7 Q1244.4 592.5 1288.9 573.6 Q1333.3 554.7 1377.8 528.7 Q1422.2 502.7 1466.7 492.8 Q1511.1 482.9 1555.6 515.5 L1600 548.2 L1600 900 Z" fill="hsl(335.7 60.1% 42.9%)"/><rect x="0" y="597.1" width="1600" height="205.2" fill="url(#givc8cb-fog2)"/><path d="M0 900 L0 715.0 Q0.0 715.0 44.4 709.0 Q88.9 703.0 133.3 702.1 Q177.8 701.1 222.2 683.0 Q266.7 664.8 311.1 640.5 Q355.6 616.2 400.0 602.7 Q444.4 589.2 488.9 586.0 Q533.3 582.8 577.8 579.6 Q622.2 576.5 666.7 589.3 Q711.1 602.0 755.6 611.5 Q800.0 621.0 844.4 618.2 Q888.9 615.5 933.3 623.5 Q977.8 631.6 1022.2 629.7 Q1066.7 627.7 1111.1 636.1 Q1155.6 644.6 1200.0 667.5 Q1244.4 690.4 1288.9 692.6 Q1333.3 694.8 1377.8 688.4 Q1422.2 681.9 1466.7 668.6 Q1511.1 655.2 1555.6 621.5 L1600 587.7 L1600 900 Z" fill="hsl(305.0 45.5% 31.7%)"/><path d="M0 900 L0 721.2 Q0.0 721.2 47.1 701.7 Q94.1 682.3 141.2 672.9 Q188.2 663.6 235.3 676.0 Q282.4 688.3 329.4 691.9 Q376.5 695.5 423.5 713.7 Q470.6 731.9 517.6 717.5 Q564.7 703.1 611.8 712.5 Q658.8 721.8 705.9 732.7 Q752.9 743.7 800.0 749.0 Q847.1 754.3 894.1 748.1 Q941.2 741.9 988.2 728.7 Q1035.3 715.4 1082.4 700.7 Q1129.4 685.9 1176.5 700.9 Q1223.5 715.9 1270.6 707.5 Q1317.6 699.1 1364.7 695.1 Q1411.8 691.0 1458.8 681.6 Q1505.9 672.1 1552.9 677.2 L1600 682.2 L1600 900 Z" fill="hsl(262.0 25.0% 16.0%)"/><path d="M599.8 900 C577.1 748.5650642598048 872.5 667.1 878.5 597.1 L880.5 597.1 C888.5 667.1 1089.1 748.5650642598048 1111.8 900 Z" fill="hsl(262.0 14.5% 21.6%)"/><path d="M855.8 900 C833.1 748.5650642598048 878.5 657.1 879.5 597.1" fill="none" stroke="hsl(45 30% 92% / 0.8)" stroke-width="7" stroke-dasharray="46 38" stroke-linecap="round"/><rect width="1600" height="900" fill="url(#givc8cb-vig)"/></svg>