<svg xmlns="http://www.w3.org/2000/svg" viewBox="0 0 1600 900" role="img" preserveAspectRatio="xMidYMid slice"><title>bao-loc-deo-va-do-c s2</title><defs><linearGradient id="g1e9ee3u-sky" x1="0" y1="0" x2="0" y2="1"><stop offset="0%" stop-color="hsl(210.0 14.0% 74.0%)"/><stop offset="50%" stop-color="hsl(210.0 12.0% 82.0%)"/><stop offset="100%" stop-color="hsl(36.0 18.0% 86.0%)"/></linearGradient><radialGradient id="g1e9ee3u-glow"><stop offset="0%" stop-color="hsl(40.0 30.0% 92.0% / 0.850)"/><stop offset="45%" stop-color="hsl(40.0 30.0% 92.0% / 0.250)"/><stop offset="100%" stop-color="hsl(40.0 30.0% 92.0% / 0.000)"/></radialGradient><linearGradient id="g1e9ee3u-fog0" x1="0" y1="0" x2="0" y2="1"><stop offset="0%" stop-color="hsl(40 20% 96% / 0)"/><stop offset="55%" stop-color="hsl(40 20% 96% / 0.17)"/><stop offset="100%" stop-color="hsl(40 20% 96% / 0)"/></linearGradient><linearGradient id="g1e9ee3u-fog1" x1="0" y1="0" x2="0" y2="1"><stop offset="0%" stop-color="hsl(40 20% 96% / 0)"/><stop offset="55%" stop-color="hsl(40 20% 96% / 0.32)"/><stop offset="100%" stop-color="hsl(40 20% 96% / 0)"/></linearGradient><linearGradient id="g1e9ee3u-fog2" x1="0" y1="0" x2="0" y2="1"><stop offset="0%" stop-color="hsl(40 20% 96% / 0)"/><stop offset="55%" stop-color="hsl(40 20% 96% / 0.30)"/><stop offset="100%" stop-color="hsl(40 20% 96% / 0)"/></linearGradient><linearGradient id="g1e9ee3u-fog3" x1="0" y1="0" x2="0" y2="1"><stop offset="0%" stop-color="hsl(40 20% 96% / 0)"/><stop offset="55%" stop-color="hsl(40 20% 96% / 0.20)"/><stop offset="100%" stop-color="hsl(40 20% 96% / 0)"/></linearGradient><linearGradient id="g1e9ee3u-fog4" x1="0" y1="0" x2="0" y2="1"><stop offset="0%" stop-color="hsl(40 20% 96% / 0)"/><stop offset="55%" stop-color="hsl(40 20% 96% / 0.24)"/><stop offset="100%" stop-color="hsl(40 20% 96% / 0)"/></linearGradient><linearGradient id="g1e9ee3u-fog5" x1="0" y1="0" x2="0" y2="1"><stop offset="0%" stop-color="hsl(40 20% 96% / 0)"/><stop offset="55%" stop-color="hsl(40 20% 96% / 0.37)"/><stop offset="100%" stop-color="hsl(40 20% 96% / 0)"/></linearGradient><radialGradient id="g1e9ee3u-vig" cx="50%" cy="42%" r="75%"><stop offset="70%" stop-color="hsl(0 0% 0% / 0)"/><stop offset="100%" stop-color="hsl(0 0% 0% / 0.18)"/></radialGradient></defs><rect width="1600" height="565.9" fill="url(#g1e9ee3u-sky)"/><rect y="564.9" width="1600" height="335.1" fill="hsl(168.0 16.5% 44.0%)"/><circle cx="580.4" cy="254.6" r="90" fill="url(#g1e9ee3u-glow)"/><circle cx="580.4" cy="254.6" r="46" fill="hsl(40.0 30.0% 92.0%)"/><path d="M0 900 L0 447.9 Q0.0 447.9 40.0 476.5 Q80.0 505.1 120.0 486.5 Q160.0 468.0 200.0 445.9 Q240.0 423.7 280.0 405.3 Q320.0 386.9 360.0 345.5 Q400.0 304.1 440.0 302.9 Q480.0 301.6 520.0 357.4 Q560.0 413.2 600.0 448.4 Q640.0 483.6 680.0 482.2 Q720.0 480.9 760.0 482.5 Q800.0 484.2 840.0 493.0 Q880.0 501.8 920.0 475.1 Q960.0 448.3 1000.0 475.5 Q1040.0 502.6 1080.0 505.7 Q1120.0 508.7 1160.0 466.4 Q1200.0 424.1 1240.0 383.3 Q1280.0 342.6 1320.0 330.1 Q1360.0 317.6 1400.0 316.4 Q1440.0 315.3 1480.0 342.3 Q1520.0 369.2 1560.0 410.8 L1600 452.4 L1600 900 Z" fill="hsl(74.7 17.6% 73.7%)"/><rect x="0" y="461.0" width="1600" height="281.0" fill="url(#g1e9ee3u-fog0)"/><path d="M0 900 L0 541.2 Q0.0 541.2 47.1 532.6 Q94.1 523.9 141.2 498.1 Q188.2 472.3 235.3 497.0 Q282.4 521.8 329.4 501.3 Q376.5 480.7 423.5 458.9 Q470.6 437.1 517.6 388.4 Q564.7 339.8 611.8 328.2 Q658.8 316.7 705.9 358.4 Q752.9 400.1 800.0 402.6 Q847.1 405.2 894.1 419.3 Q941.2 433.4 988.2 406.3 Q1035.3 379.1 1082.4 404.0 Q1129.4 428.9 1176.5 476.5 Q1223.5 524.1 1270.6 542.8 Q1317.6 561.5 1364.7 562.6 Q1411.8 563.7 1458.8 512.9 Q1505.9 462.1 1552.9 484.6 L1600 507.1 L1600 900 Z" fill="hsl(77.5 17.5% 72.8%)"/><rect x="0" y="482.8" width="1600" height="285.7" fill="url(#g1e9ee3u-fog1)"/><path d="M0 900 L0 560.5 Q0.0 560.5 44.4 569.5 Q88.9 578.6 133.3 581.2 Q177.8 583.7 222.2 540.7 Q266.7 497.6 311.1 483.1 Q355.6 468.7 400.0 464.0 Q444.4 459.3 488.9 461.0 Q533.3 462.7 577.8 516.6 Q622.2 570.6 666.7 577.7 Q711.1 584.9 755.6 581.6 Q800.0 578.4 844.4 567.9 Q888.9 557.4 933.3 535.2 Q977.8 513.1 1022.2 528.4 Q1066.7 543.8 1111.1 533.9 Q1155.6 523.9 1200.0 503.2 Q1244.4 482.5 1288.9 486.7 Q1333.3 491.0 1377.8 470.6 Q1422.2 450.2 1466.7 491.5 Q1511.1 532.8 1555.6 557.7 L1600 582.5 L1600 900 Z" fill="hsl(85.9 17.4% 70.1%)"/><rect x="0" y="549.7" width="1600" height="188.8" fill="url(#g1e9ee3u-fog2)"/><path d="M0 900 L0 586.9 Q0.0 586.9 47.1 587.6 Q94.1 588.4 141.2 590.6 Q188.2 592.8 235.3 616.1 Q282.4 639.3 329.4 608.7 Q376.5 578.0 423.5 532.3 Q470.6 486.6 517.6 476.9 Q564.7 467.2 611.8 475.2 Q658.8 483.2 705.9 485.6 Q752.9 488.1 800.0 486.9 Q847.1 485.7 894.1 487.7 Q941.2 489.8 988.2 477.4 Q1035.3 465.0 1082.4 474.7 Q1129.4 484.4 1176.5 523.1 Q1223.5 561.8 1270.6 587.0 Q1317.6 612.2 1364.7 611.7 Q1411.8 611.1 1458.8 609.6 Q1505.9 608.1 1552.9 590.7 L1600 573.4 L1600 900 Z" fill="hsl(99.9 17.3% 65.7%)"/><rect x="0" y="559.6" width="1600" height="220.4" fill="url(#g1e9ee3u-fog3)"/><path d="M0 900 L0 605.0 Q0.0 605.0 53.3 616.3 Q106.7 627.6 160.0 620.2 Q213.3 612.7 266.7 615.0 Q320.0 617.2 373.3 562.1 Q426.7 506.9 480.0 505.5 Q533.3 504.1 586.7 519.2 Q640.0 534.3 693.3 565.9 Q746.7 597.4 800.0 574.6 Q853.3 551.7 906.7 581.6 Q960.0 611.4 1013.3 619.6 Q1066.7 627.7 1120.0 654.4 Q1173.3 681.0 1226.7 628.5 Q1280.0 576.0 1333.3 567.0 Q1386.7 558.1 1440.0 537.9 Q1493.3 517.7 1546.7 545.9 L1600 574.1 L1600 900 Z" fill="hsl(119.5 17.1% 59.4%)"/><rect x="0" y="598.8" width="1600" height="185.8" fill="url(#g1e9ee3u-fog4)"/><path d="M0 900 L0 563.8 Q0.0 563.8 50.0 591.6 Q100.0 619.3 150.0 618.5 Q200.0 617.7 250.0 621.4 Q300.0 625.1 350.0 628.7 Q400.0 632.4 450.0 628.8 Q500.0 625.3 550.0 642.2 Q600.0 659.1 650.0 635.5 Q700.0 611.9 750.0 609.6 Q800.0 607.2 850.0 575.0 Q900.0 542.8 950.0 534.3 Q1000.0 525.9 1050.0 542.9 Q1100.0 560.0 1150.0 573.0 Q1200.0 585.9 1250.0 622.9 Q1300.0 660.0 1350.0 676.3 Q1400.0 692.7 1450.0 678.5 Q1500.0 664.3 1550.0 648.0 L1600 631.7 L1600 900 Z" fill="hsl(144.8 16.8% 51.4%)"/><rect x="0" y="625.3" width="1600" height="179.9" fill="url(#g1e9ee3u-fog5)"/><path d="M0 900 L0 707.8 Q0.0 707.8 47.1 712.0 Q94.1 716.2 141.2 704.4 Q188.2 692.6 235.3 682.2 Q282.4 671.9 329.4 645.7 Q376.5 619.5 423.5 621.7 Q470.6 623.9 517.6 633.9 Q564.7 643.9 611.8 633.5 Q658.8 623.0 705.9 619.3 Q752.9 615.6 800.0 619.3 Q847.1 623.0 894.1 624.7 Q941.2 626.3 988.2 652.3 Q1035.3 678.3 1082.4 701.7 Q1129.4 725.0 1176.5 705.7 Q1223.5 686.5 1270.6 684.7 Q1317.6 682.9 1364.7 678.7 Q1411.8 674.5 1458.8 665.6 Q1505.9 656.7 1552.9 664.1 L1600 671.5 L1600 900 Z" fill="hsl(175.6 16.4% 41.6%)"/><path d="M0 900 L0 678.7 Q0.0 678.7 50.0 656.1 Q100.0 633.5 150.0 642.8 Q200.0 652.1 250.0 671.4 Q300.0 690.8 350.0 686.5 Q400.0 682.2 450.0 680.1 Q500.0 677.9 550.0 695.2 Q600.0 712.6 650.0 718.3 Q700.0 724.0 750.0 729.4 Q800.0 734.8 850.0 726.0 Q900.0 717.2 950.0 687.6 Q1000.0 658.1 1050.0 643.1 Q1100.0 628.1 1150.0 650.3 Q1200.0 672.4 1250.0 679.3 Q1300.0 686.2 1350.0 678.3 Q1400.0 670.5 1450.0 679.9 Q1500.0 689.2 1550.0 702.4 L1600 715.6 L1600 900 Z" fill="hsl(212.0 16.0% 30.0%)"/><rect width="1600" height="900" fill="url(#g1e9ee3u-vig)"/></svg>