<svg xmlns="http://www.w3.org/2000/svg" viewBox="0 0 1600 900" role="img" preserveAspectRatio="xMidYMid slice"><title>quoc-lo-4c-dong-van-meo-vac hero</title><defs><linearGradient id="g1gzd3sv-sky" x1="0" y1="0" x2="0" y2="1"><stop offset="0%" stop-color="hsl(200.0 45.0% 58.0%)"/><stop offset="50%" stop-color="hsl(180.0 30.0% 72.0%)"/><stop offset="100%" stop-color="hsl(46.0 55.0% 80.0%)"/></linearGradient><radialGradient id="g1gzd3sv-glow"><stop offset="0%" stop-color="hsl(44.0 80.0% 84.0% / 0.850)"/><stop offset="45%" stop-color="hsl(44.0 80.0% 84.0% / 0.250)"/><stop offset="100%" stop-color="hsl(44.0 80.0% 84.0% / 0.000)"/></radialGradient><linearGradient id="g1gzd3sv-fog0" x1="0" y1="0" x2="0" y2="1"><stop offset="0%" stop-color="hsl(40 20% 96% / 0)"/><stop offset="55%" stop-color="hsl(40 20% 96% / 0.30)"/><stop offset="100%" stop-color="hsl(40 20% 96% / 0)"/></linearGradient><linearGradient id="g1gzd3sv-fog2" x1="0" y1="0" x2="0" y2="1"><stop offset="0%" stop-color="hsl(40 20% 96% / 0)"/><stop offset="55%" stop-color="hsl(40 20% 96% / 0.37)"/><stop offset="100%" stop-color="hsl(40 20% 96% / 0)"/></linearGradient><linearGradient id="g1gzd3sv-fog6" x1="0" y1="0" x2="0" y2="1"><stop offset="0%" stop-color="hsl(40 20% 96% / 0)"/><stop offset="55%" stop-color="hsl(40 20% 96% / 0.23)"/><stop offset="100%" stop-color="hsl(40 20% 96% / 0)"/></linearGradient><radialGradient id="g1gzd3sv-vig" cx="50%" cy="42%" r="75%"><stop offset="70%" stop-color="hsl(0 0% 0% / 0)"/><stop offset="100%" stop-color="hsl(0 0% 0% / 0.18)"/></radialGradient></defs><rect width="1600" height="595.5" fill="url(#g1gzd3sv-sky)"/><rect y="594.5" width="1600" height="305.5" fill="hsl(157.8 37.8% 33.5%)"/><circle cx="706.3" cy="416.8" r="130" fill="url(#g1gzd3sv-glow)"/><circle cx="706.3" cy="416.8" r="52" fill="hsl(44.0 80.0% 84.0%)"/><path d="M0 900 L0 385.1 L0.0 385.1 L84.2 379.6 L168.4 376.9 L252.6 354.1 L336.8 357.6 L421.1 540.0 L505.3 536.3 L589.5 644.1 L673.7 534.2 L757.9 420.5 L842.1 373.0 L926.3 301.4 L1010.5 352.7 L1094.7 403.4 L1178.9 390.0 L1263.2 548.3 L1347.4 420.1 L1431.6 528.1 L1515.8 545.0 L1600.0 559.9 L1600 900 Z" fill="hsl(78.8 49.9% 66.4%)"/><rect x="0" y="484.4" width="1600" height="291.0" fill="url(#g1gzd3sv-fog0)"/><path d="M0 900 L0 528.4 L0.0 528.4 L80.0 576.9 L160.0 589.0 L240.0 567.9 L320.0 541.8 L400.0 442.4 L480.0 419.8 L560.0 372.6 L640.0 350.9 L720.0 437.4 L800.0 568.5 L880.0 608.5 L960.0 581.0 L1040.0 616.9 L1120.0 474.8 L1200.0 419.0 L1280.0 392.6 L1360.0 397.8 L1440.0 447.2 L1520.0 516.1 L1600.0 550.8 L1600 900 Z" fill="hsl(81.2 49.6% 65.4%)"/><path d="M0 900 L0 636.3 L0.0 636.3 L88.9 579.3 L177.8 395.5 L266.7 414.1 L355.6 430.6 L444.4 449.3 L533.3 476.2 L622.2 482.0 L711.1 476.0 L800.0 532.0 L888.9 625.1 L977.8 599.6 L1066.7 573.6 L1155.6 483.0 L1244.4 425.6 L1333.3 427.2 L1422.2 426.4 L1511.1 491.6 L1600.0 424.2 L1600 900 Z" fill="hsl(88.3 48.5% 62.4%)"/><rect x="0" y="547.2" width="1600" height="247.6" fill="url(#g1gzd3sv-fog2)"/><path d="M0 900 L0 689.5 L0.0 689.5 L100.0 643.3 L200.0 559.3 L300.0 523.5 L400.0 492.2 L500.0 538.1 L600.0 541.0 L700.0 534.0 L800.0 556.8 L900.0 656.7 L1000.0 663.4 L1100.0 682.0 L1200.0 565.9 L1300.0 489.6 L1400.0 471.4 L1500.0 478.3 L1600.0 557.2 L1600 900 Z" fill="hsl(100.1 46.6% 57.5%)"/><path d="M0 900 L0 549.7 L0.0 549.7 L100.0 559.1 L200.0 626.0 L300.0 669.7 L400.0 655.0 L500.0 625.1 L600.0 655.4 L700.0 613.6 L800.0 664.8 L900.0 587.1 L1000.0 562.0 L1100.0 512.8 L1200.0 516.2 L1300.0 577.7 L1400.0 612.3 L1500.0 617.2 L1600.0 634.7 L1600 900 Z" fill="hsl(116.7 44.1% 50.6%)"/><path d="M0 900 L0 722.2 L0.0 722.2 L88.9 697.1 L177.8 678.2 L266.7 571.2 L355.6 562.3 L444.4 627.5 L533.3 561.9 L622.2 579.3 L711.1 589.5 L800.0 590.4 L888.9 694.2 L977.8 703.5 L1066.7 692.2 L1155.6 665.2 L1244.4 657.3 L1333.3 616.5 L1422.2 670.9 L1511.1 611.9 L1600.0 557.0 L1600 900 Z" fill="hsl(138.1 40.8% 41.7%)"/><path d="M0 900 L0 599.2 L0.0 599.2 L80.0 561.2 L160.0 579.1 L240.0 583.5 L320.0 601.9 L400.0 662.7 L480.0 668.1 L560.0 661.1 L640.0 713.2 L720.0 752.4 L800.0 666.7 L880.0 636.5 L960.0 566.8 L1040.0 563.1 L1120.0 620.2 L1200.0 648.6 L1280.0 637.2 L1360.0 633.8 L1440.0 687.4 L1520.0 720.0 L1600.0 733.2 L1600 900 Z" fill="hsl(164.2 36.8% 30.8%)"/><rect x="0" y="670.0" width="1600" height="167.2" fill="url(#g1gzd3sv-fog6)"/><path d="M0 900 L0 744.0 L0.0 744.0 L100.0 728.5 L200.0 726.8 L300.0 719.7 L400.0 708.9 L500.0 727.6 L600.0 705.2 L700.0 639.1 L800.0 622.9 L900.0 652.1 L1000.0 657.4 L1100.0 703.1 L1200.0 674.8 L1300.0 688.9 L1400.0 715.1 L1500.0 753.4 L1600.0 750.7 L1600 900 Z" fill="hsl(195.0 32.0% 18.0%)"/><rect width="1600" height="900" fill="url(#g1gzd3sv-vig)"/></svg>