<svg xmlns="http://www.w3.org/2000/svg" viewBox="0 0 1600 900" role="img" preserveAspectRatio="xMidYMid slice"><title>quoc-lo-4c-dong-van-meo-vac s1</title><defs><linearGradient id="g1m0jqu3-sky" x1="0" y1="0" x2="0" y2="1"><stop offset="0%" stop-color="hsl(200.0 45.0% 58.0%)"/><stop offset="50%" stop-color="hsl(180.0 30.0% 72.0%)"/><stop offset="100%" stop-color="hsl(46.0 55.0% 80.0%)"/></linearGradient><radialGradient id="g1m0jqu3-glow"><stop offset="0%" stop-color="hsl(44.0 80.0% 84.0% / 0.850)"/><stop offset="45%" stop-color="hsl(44.0 80.0% 84.0% / 0.250)"/><stop offset="100%" stop-color="hsl(44.0 80.0% 84.0% / 0.000)"/></radialGradient><linearGradient id="g1m0jqu3-fog1" x1="0" y1="0" x2="0" y2="1"><stop offset="0%" stop-color="hsl(40 20% 96% / 0)"/><stop offset="55%" stop-color="hsl(40 20% 96% / 0.30)"/><stop offset="100%" stop-color="hsl(40 20% 96% / 0)"/></linearGradient><linearGradient id="g1m0jqu3-fog2" x1="0" y1="0" x2="0" y2="1"><stop offset="0%" stop-color="hsl(40 20% 96% / 0)"/><stop offset="55%" stop-color="hsl(40 20% 96% / 0.16)"/><stop offset="100%" stop-color="hsl(40 20% 96% / 0)"/></linearGradient><linearGradient id="g1m0jqu3-fog3" x1="0" y1="0" x2="0" y2="1"><stop offset="0%" stop-color="hsl(40 20% 96% / 0)"/><stop offset="55%" stop-color="hsl(40 20% 96% / 0.29)"/><stop offset="100%" stop-color="hsl(40 20% 96% / 0)"/></linearGradient><linearGradient id="g1m0jqu3-fog6" x1="0" y1="0" x2="0" y2="1"><stop offset="0%" stop-color="hsl(40 20% 96% / 0)"/><stop offset="55%" stop-color="hsl(40 20% 96% / 0.20)"/><stop offset="100%" stop-color="hsl(40 20% 96% / 0)"/></linearGradient><radialGradient id="g1m0jqu3-vig" cx="50%" cy="42%" r="75%"><stop offset="70%" stop-color="hsl(0 0% 0% / 0)"/><stop offset="100%" stop-color="hsl(0 0% 0% / 0.18)"/></radialGradient></defs><rect width="1600" height="599.9" fill="url(#g1m0jqu3-sky)"/><rect y="598.9" width="1600" height="301.1" fill="hsl(157.8 37.8% 33.5%)"/><circle cx="518.3" cy="420.0" r="130" fill="url(#g1m0jqu3-glow)"/><circle cx="518.3" cy="420.0" r="52" fill="hsl(44.0 80.0% 84.0%)"/><path d="M0 900 L0 327.4 L0.0 327.4 L94.1 334.0 L188.2 303.0 L282.4 417.4 L376.5 517.4 L470.6 541.8 L564.7 578.3 L658.8 515.6 L752.9 487.6 L847.1 575.0 L941.2 445.2 L1035.3 437.5 L1129.4 392.0 L1223.5 310.9 L1317.6 437.6 L1411.8 427.4 L1505.9 614.0 L1600.0 590.5 L1600 900 Z" fill="hsl(78.8 49.9% 66.4%)"/><path d="M0 900 L0 425.4 L0.0 425.4 L100.0 512.8 L200.0 566.0 L300.0 551.8 L400.0 583.9 L500.0 498.6 L600.0 452.6 L700.0 358.1 L800.0 386.2 L900.0 474.3 L1000.0 565.8 L1100.0 688.9 L1200.0 538.9 L1300.0 429.1 L1400.0 400.5 L1500.0 257.3 L1600.0 373.3 L1600 900 Z" fill="hsl(81.2 49.6% 65.4%)"/><rect x="0" y="502.8" width="1600" height="307.2" fill="url(#g1m0jqu3-fog1)"/><path d="M0 900 L0 504.8 L0.0 504.8 L100.0 597.9 L200.0 595.2 L300.0 627.4 L400.0 598.2 L500.0 463.0 L600.0 470.9 L700.0 477.2 L800.0 468.0 L900.0 430.5 L1000.0 403.5 L1100.0 459.0 L1200.0 496.7 L1300.0 553.0 L1400.0 554.7 L1500.0 507.8 L1600.0 577.7 L1600 900 Z" fill="hsl(88.3 48.5% 62.4%)"/><rect x="0" y="542.8" width="1600" height="265.4" fill="url(#g1m0jqu3-fog2)"/><path d="M0 900 L0 673.6 L0.0 673.6 L114.3 671.2 L228.6 512.6 L342.9 488.3 L457.1 460.9 L571.4 512.7 L685.7 535.0 L800.0 546.4 L914.3 634.7 L1028.6 607.2 L1142.9 601.0 L1257.1 453.8 L1371.4 429.7 L1485.7 523.5 L1600.0 602.4 L1600 900 Z" fill="hsl(100.1 46.6% 57.5%)"/><rect x="0" y="580.5" width="1600" height="228.8" fill="url(#g1m0jqu3-fog3)"/><path d="M0 900 L0 633.2 L0.0 633.2 L80.0 509.6 L160.0 524.4 L240.0 497.3 L320.0 553.1 L400.0 556.4 L480.0 639.6 L560.0 703.2 L640.0 626.4 L720.0 640.4 L800.0 537.4 L880.0 470.5 L960.0 503.8 L1040.0 506.1 L1120.0 506.8 L1200.0 615.9 L1280.0 675.1 L1360.0 671.3 L1440.0 633.4 L1520.0 661.9 L1600.0 553.1 L1600 900 Z" fill="hsl(116.7 44.1% 50.6%)"/><path d="M0 900 L0 682.2 L0.0 682.2 L80.0 688.2 L160.0 656.2 L240.0 699.2 L320.0 675.2 L400.0 683.8 L480.0 691.7 L560.0 624.3 L640.0 574.4 L720.0 595.5 L800.0 578.6 L880.0 553.3 L960.0 652.1 L1040.0 676.9 L1120.0 653.2 L1200.0 675.6 L1280.0 672.3 L1360.0 662.2 L1440.0 663.8 L1520.0 673.4 L1600.0 646.2 L1600 900 Z" fill="hsl(138.1 40.8% 41.7%)"/><path d="M0 900 L0 627.2 L0.0 627.2 L88.9 662.9 L177.8 624.7 L266.7 630.1 L355.6 659.4 L444.4 636.3 L533.3 640.8 L622.2 635.1 L711.1 665.0 L800.0 698.8 L888.9 732.1 L977.8 718.8 L1066.7 719.9 L1155.6 715.3 L1244.4 645.9 L1333.3 621.9 L1422.2 641.6 L1511.1 607.9 L1600.0 637.2 L1600 900 Z" fill="hsl(164.2 36.8% 30.8%)"/><rect x="0" y="687.8" width="1600" height="132.1" fill="url(#g1m0jqu3-fog6)"/><path d="M0 900 L0 654.0 L0.0 654.0 L76.2 711.6 L152.4 743.0 L228.6 757.4 L304.8 765.9 L381.0 729.3 L457.1 685.3 L533.3 633.7 L609.5 668.7 L685.7 631.9 L761.9 655.1 L838.1 688.6 L914.3 664.3 L990.5 698.6 L1066.7 731.1 L1142.9 709.4 L1219.0 732.4 L1295.2 729.1 L1371.4 725.2 L1447.6 729.0 L1523.8 609.2 L1600.0 610.7 L1600 900 Z" fill="hsl(195.0 32.0% 18.0%)"/><rect width="1600" height="900" fill="url(#g1m0jqu3-vig)"/></svg>