<svg xmlns="http://www.w3.org/2000/svg" viewBox="0 0 1600 900" role="img" preserveAspectRatio="xMidYMid slice"><title>quoc-lo-4c-dong-van-meo-vac s2</title><defs><linearGradient id="gbcs956-sky" x1="0" y1="0" x2="0" y2="1"><stop offset="0%" stop-color="hsl(265.0 38.0% 26.0%)"/><stop offset="50%" stop-color="hsl(348.0 55.0% 46.0%)"/><stop offset="100%" stop-color="hsl(22.0 90.0% 58.0%)"/></linearGradient><radialGradient id="gbcs956-glow"><stop offset="0%" stop-color="hsl(24.0 95.0% 66.0% / 0.850)"/><stop offset="45%" stop-color="hsl(24.0 95.0% 66.0% / 0.250)"/><stop offset="100%" stop-color="hsl(24.0 95.0% 66.0% / 0.000)"/></radialGradient><radialGradient id="gbcs956-vig" cx="50%" cy="42%" r="75%"><stop offset="70%" stop-color="hsl(0 0% 0% / 0)"/><stop offset="100%" stop-color="hsl(0 0% 0% / 0.18)"/></radialGradient></defs><rect width="1600" height="577.3" fill="url(#gbcs956-sky)"/><rect y="576.3" width="1600" height="323.7" fill="hsl(305.5 43.5% 25.0%)"/><circle cx="711.9" cy="508.0" r="230" fill="url(#gbcs956-glow)"/><circle cx="711.9" cy="508.0" r="78" fill="hsl(24.0 95.0% 66.0%)"/><path d="M0 900 L0 560.2 Q0.0 560.2 42.1 571.9 Q84.2 583.6 126.3 529.7 Q168.4 475.9 210.5 462.4 Q252.6 448.9 294.7 414.1 Q336.8 379.4 378.9 368.4 Q421.1 357.5 463.2 390.0 Q505.3 422.6 547.4 420.2 Q589.5 417.8 631.6 401.4 Q673.7 385.0 715.8 406.5 Q757.9 428.0 800.0 469.0 Q842.1 510.0 884.2 516.8 Q926.3 523.6 968.4 559.1 Q1010.5 594.5 1052.6 552.5 Q1094.7 510.6 1136.8 460.4 Q1178.9 410.1 1221.1 412.3 Q1263.2 414.5 1305.3 416.4 Q1347.4 418.4 1389.5 403.2 Q1431.6 388.1 1473.7 404.4 Q1515.8 420.7 1557.9 390.7 L1600 360.7 L1600 900 Z" fill="hsl(359.6 76.4% 48.3%)"/><path d="M0 900 L0 432.4 Q0.0 432.4 53.3 391.2 Q106.7 350.1 160.0 400.6 Q213.3 451.1 266.7 482.4 Q320.0 513.6 373.3 552.5 Q426.7 591.4 480.0 588.2 Q533.3 585.0 586.7 579.4 Q640.0 573.7 693.3 520.0 Q746.7 466.2 800.0 472.3 Q853.3 478.4 906.7 451.9 Q960.0 425.4 1013.3 450.0 Q1066.7 474.7 1120.0 458.9 Q1173.3 443.2 1226.7 453.4 Q1280.0 463.6 1333.3 461.6 Q1386.7 459.5 1440.0 492.0 Q1493.3 524.6 1546.7 542.0 L1600 559.4 L1600 900 Z" fill="hsl(356.4 74.4% 46.9%)"/><path d="M0 900 L0 614.9 Q0.0 614.9 44.4 571.6 Q88.9 528.4 133.3 499.0 Q177.8 469.6 222.2 468.8 Q266.7 468.0 311.1 468.7 Q355.6 469.3 400.0 487.7 Q444.4 506.2 488.9 515.8 Q533.3 525.4 577.8 495.9 Q622.2 466.4 666.7 496.4 Q711.1 526.4 755.6 523.1 Q800.0 519.8 844.4 544.8 Q888.9 569.8 933.3 601.6 Q977.8 633.4 1022.2 620.3 Q1066.7 607.1 1111.1 603.3 Q1155.6 599.5 1200.0 584.3 Q1244.4 569.0 1288.9 545.1 Q1333.3 521.1 1377.8 542.0 Q1422.2 562.9 1466.7 546.2 Q1511.1 529.4 1555.6 509.6 L1600 489.9 L1600 900 Z" fill="hsl(346.8 68.6% 42.8%)"/><path d="M0 900 L0 476.2 Q0.0 476.2 40.0 492.2 Q80.0 508.2 120.0 546.2 Q160.0 584.2 200.0 600.8 Q240.0 617.3 280.0 622.0 Q320.0 626.7 360.0 622.3 Q400.0 617.9 440.0 620.6 Q480.0 623.3 520.0 615.2 Q560.0 607.2 600.0 596.6 Q640.0 586.1 680.0 603.2 Q720.0 620.4 760.0 625.4 Q800.0 630.4 840.0 603.0 Q880.0 575.6 920.0 533.0 Q960.0 490.5 1000.0 486.1 Q1040.0 481.7 1080.0 497.0 Q1120.0 512.4 1160.0 514.1 Q1200.0 515.7 1240.0 538.0 Q1280.0 560.4 1320.0 584.9 Q1360.0 609.4 1400.0 614.9 Q1440.0 620.5 1480.0 606.2 Q1520.0 592.0 1560.0 597.7 L1600 603.4 L1600 900 Z" fill="hsl(330.9 59.0% 36.0%)"/><path d="M0 900 L0 707.6 Q0.0 707.6 44.4 703.8 Q88.9 699.9 133.3 681.2 Q177.8 662.4 222.2 649.5 Q266.7 636.6 311.1 639.0 Q355.6 641.4 400.0 634.3 Q444.4 627.2 488.9 627.6 Q533.3 627.9 577.8 643.6 Q622.2 659.3 666.7 649.9 Q711.1 640.5 755.6 638.3 Q800.0 636.1 844.4 646.0 Q888.9 655.9 933.3 652.1 Q977.8 648.2 1022.2 663.4 Q1066.7 678.7 1111.1 697.8 Q1155.6 717.0 1200.0 710.3 Q1244.4 703.7 1288.9 702.7 Q1333.3 701.7 1377.8 692.1 Q1422.2 682.6 1466.7 653.5 Q1511.1 624.4 1555.6 625.8 L1600 627.3 L1600 900 Z" fill="hsl(308.6 45.4% 26.4%)"/><path d="M0 900 L0 741.5 Q0.0 741.5 40.0 745.5 Q80.0 749.5 120.0 727.1 Q160.0 704.7 200.0 687.9 Q240.0 671.1 280.0 675.7 Q320.0 680.3 360.0 685.4 Q400.0 690.4 440.0 684.9 Q480.0 679.3 520.0 666.0 Q560.0 652.7 600.0 657.5 Q640.0 662.3 680.0 657.0 Q720.0 651.7 760.0 662.0 Q800.0 672.4 840.0 700.8 Q880.0 729.2 920.0 735.3 Q960.0 741.5 1000.0 733.8 Q1040.0 726.0 1080.0 715.4 Q1120.0 704.9 1160.0 705.3 Q1200.0 705.8 1240.0 706.7 Q1280.0 707.5 1320.0 701.7 Q1360.0 695.9 1400.0 696.2 Q1440.0 696.5 1480.0 684.8 Q1520.0 673.1 1560.0 654.4 L1600 635.7 L1600 900 Z" fill="hsl(280.0 28.0% 14.0%)"/><path d="M284.9 900 C209.7 740.6274495655671 572.4 651.3 578.4 581.3 L580.4 581.3 C588.4 651.3 721.7 740.6274495655671 796.9 900 Z" fill="hsl(280.0 15.4% 21.0%)"/><path d="M540.9 900 C465.7 740.6274495655671 578.4 641.3 579.4 581.3" fill="none" stroke="hsl(45 30% 92% / 0.8)" stroke-width="7" stroke-dasharray="46 38" stroke-linecap="round"/><rect width="1600" height="900" fill="url(#gbcs956-vig)"/></svg>