<svg xmlns="http://www.w3.org/2000/svg" viewBox="0 0 1600 900" role="img" preserveAspectRatio="xMidYMid slice"><title>ha-giang-mua-dong-tro-lai hero</title><defs><linearGradient id="g1lxudp5-sky" x1="0" y1="0" x2="0" y2="1"><stop offset="0%" stop-color="hsl(232.0 45.0% 8.0%)"/><stop offset="50%" stop-color="hsl(228.0 40.0% 14.0%)"/><stop offset="100%" stop-color="hsl(222.0 35.0% 22.0%)"/></linearGradient><radialGradient id="g1lxudp5-glow"><stop offset="0%" stop-color="hsl(48.0 35.0% 88.0% / 0.850)"/><stop offset="45%" stop-color="hsl(48.0 35.0% 88.0% / 0.250)"/><stop offset="100%" stop-color="hsl(48.0 35.0% 88.0% / 0.000)"/></radialGradient><radialGradient id="g1lxudp5-vig" cx="50%" cy="42%" r="75%"><stop offset="70%" stop-color="hsl(0 0% 0% / 0)"/><stop offset="100%" stop-color="hsl(0 0% 0% / 0.18)"/></radialGradient></defs><rect width="1600" height="542.3" fill="url(#g1lxudp5-sky)"/><rect y="541.3" width="1600" height="358.7" fill="hsl(226.5 31.3% 12.3%)"/><g><circle cx="1175.4" cy="394.6" r="0.80" fill="hsl(50 30% 92% / 0.59)"/><circle cx="342.8" cy="332.5" r="1.07" fill="hsl(50 30% 92% / 0.78)"/><circle cx="901.3" cy="227.8" r="0.68" fill="hsl(50 30% 92% / 0.61)"/><circle cx="436.2" cy="67.3" r="1.19" fill="hsl(50 30% 92% / 0.61)"/><circle cx="792.1" cy="128.6" r="0.76" fill="hsl(50 30% 92% / 0.42)"/><circle cx="337.3" cy="290.2" r="1.01" fill="hsl(50 30% 92% / 0.81)"/><circle cx="1541.5" cy="471.6" r="0.97" fill="hsl(50 30% 92% / 0.94)"/><circle cx="230.6" cy="53.7" r="0.88" fill="hsl(50 30% 92% / 0.81)"/><circle cx="1244.1" cy="372.3" r="0.82" fill="hsl(50 30% 92% / 0.48)"/><circle cx="498.9" cy="257.6" r="0.66" fill="hsl(50 30% 92% / 0.44)"/><circle cx="458.3" cy="147.9" r="0.83" fill="hsl(50 30% 92% / 0.71)"/><circle cx="1102.4" cy="192.5" r="0.75" fill="hsl(50 30% 92% / 0.68)"/><circle cx="378.4" cy="213.1" r="0.65" fill="hsl(50 30% 92% / 0.70)"/><circle cx="882.0" cy="473.1" r="1.14" fill="hsl(50 30% 92% / 0.87)"/><circle cx="411.7" cy="357.2" r="1.03" fill="hsl(50 30% 92% / 0.55)"/><circle cx="409.2" cy="466.7" r="0.77" fill="hsl(50 30% 92% / 0.46)"/><circle cx="813.2" cy="281.9" r="0.95" fill="hsl(50 30% 92% / 0.90)"/><circle cx="1552.7" cy="475.9" r="0.86" fill="hsl(50 30% 92% / 0.62)"/><circle cx="1447.3" cy="186.7" r="2.47" fill="hsl(50 30% 92% / 0.77)"/><circle cx="349.1" cy="333.6" r="1.14" fill="hsl(50 30% 92% / 0.88)"/><circle cx="546.4" cy="137.8" r="0.66" fill="hsl(50 30% 92% / 0.62)"/><circle cx="614.8" cy="495.9" r="0.99" fill="hsl(50 30% 92% / 0.68)"/><circle cx="451.8" cy="218.5" r="1.00" fill="hsl(50 30% 92% / 0.45)"/><circle cx="419.2" cy="330.4" r="0.91" fill="hsl(50 30% 92% / 0.89)"/><circle cx="1123.3" cy="201.4" r="0.82" fill="hsl(50 30% 92% / 0.64)"/><circle cx="1509.6" cy="165.6" r="2.09" fill="hsl(50 30% 92% / 0.40)"/><circle cx="838.3" cy="146.7" r="0.91" fill="hsl(50 30% 92% / 0.57)"/><circle cx="649.9" cy="221.4" r="1.29" fill="hsl(50 30% 92% / 0.93)"/><circle cx="677.6" cy="498.4" r="1.04" fill="hsl(50 30% 92% / 0.62)"/><circle cx="282.7" cy="419.4" r="0.61" fill="hsl(50 30% 92% / 0.53)"/><circle cx="1311.7" cy="493.9" r="1.01" fill="hsl(50 30% 92% / 0.35)"/><circle cx="569.8" cy="463.4" r="2.53" fill="hsl(50 30% 92% / 0.77)"/><circle cx="1282.2" cy="219.4" r="1.02" fill="hsl(50 30% 92% / 0.77)"/><circle cx="1583.6" cy="454.9" r="1.03" fill="hsl(50 30% 92% / 0.39)"/><circle cx="642.8" cy="178.5" r="0.74" fill="hsl(50 30% 92% / 0.57)"/><circle cx="390.9" cy="93.0" r="1.20" fill="hsl(50 30% 92% / 0.77)"/><circle cx="1449.2" cy="111.3" r="2.47" fill="hsl(50 30% 92% / 0.61)"/><circle cx="317.9" cy="207.9" r="0.92" fill="hsl(50 30% 92% / 0.65)"/><circle cx="643.5" cy="440.7" r="0.64" fill="hsl(50 30% 92% / 0.57)"/><circle cx="585.5" cy="233.4" r="2.41" fill="hsl(50 30% 92% / 0.92)"/><circle cx="193.9" cy="211.4" r="1.93" fill="hsl(50 30% 92% / 0.91)"/><circle cx="397.6" cy="260.2" r="0.63" fill="hsl(50 30% 92% / 0.36)"/><circle cx="1205.3" cy="201.1" r="1.74" fill="hsl(50 30% 92% / 0.94)"/><circle cx="768.2" cy="466.5" r="1.15" fill="hsl(50 30% 92% / 0.86)"/><circle cx="568.8" cy="149.8" r="1.27" fill="hsl(50 30% 92% / 0.88)"/><circle cx="884.9" cy="446.0" r="1.07" fill="hsl(50 30% 92% / 0.43)"/><circle cx="38.5" cy="141.8" r="0.68" fill="hsl(50 30% 92% / 0.77)"/><circle cx="729.7" cy="212.9" r="1.23" fill="hsl(50 30% 92% / 0.52)"/><circle cx="565.3" cy="455.3" r="0.94" fill="hsl(50 30% 92% / 0.93)"/><circle cx="949.3" cy="43.3" r="0.62" fill="hsl(50 30% 92% / 0.40)"/><circle cx="720.6" cy="236.8" r="1.25" fill="hsl(50 30% 92% / 0.50)"/><circle cx="1061.9" cy="335.7" r="0.76" fill="hsl(50 30% 92% / 0.42)"/><circle cx="1004.9" cy="271.9" r="1.24" fill="hsl(50 30% 92% / 0.56)"/><circle cx="178.6" cy="438.5" r="0.98" fill="hsl(50 30% 92% / 0.63)"/><circle cx="576.3" cy="475.8" r="0.83" fill="hsl(50 30% 92% / 0.54)"/><circle cx="442.3" cy="288.8" r="0.96" fill="hsl(50 30% 92% / 0.49)"/><circle cx="584.7" cy="301.0" r="1.17" fill="hsl(50 30% 92% / 0.64)"/><circle cx="543.6" cy="156.5" r="1.66" fill="hsl(50 30% 92% / 0.59)"/><circle cx="171.9" cy="12.1" r="1.06" fill="hsl(50 30% 92% / 0.82)"/><circle cx="921.4" cy="353.9" r="0.63" fill="hsl(50 30% 92% / 0.84)"/><circle cx="1552.8" cy="397.3" r="0.96" fill="hsl(50 30% 92% / 0.71)"/><circle cx="257.0" cy="430.8" r="0.70" fill="hsl(50 30% 92% / 0.65)"/><circle cx="59.8" cy="345.5" r="0.61" fill="hsl(50 30% 92% / 0.65)"/><circle cx="1048.7" cy="145.7" r="1.08" fill="hsl(50 30% 92% / 0.50)"/><circle cx="5.9" cy="488.2" r="0.64" fill="hsl(50 30% 92% / 0.52)"/><circle cx="1421.4" cy="165.9" r="0.81" fill="hsl(50 30% 92% / 0.36)"/><circle cx="908.5" cy="358.2" r="1.11" fill="hsl(50 30% 92% / 0.78)"/><circle cx="1202.3" cy="274.1" r="1.23" fill="hsl(50 30% 92% / 0.58)"/><circle cx="1105.4" cy="480.6" r="0.71" fill="hsl(50 30% 92% / 0.72)"/><circle cx="1417.0" cy="22.9" r="1.26" fill="hsl(50 30% 92% / 0.65)"/><circle cx="890.8" cy="250.6" r="1.16" fill="hsl(50 30% 92% / 0.83)"/><circle cx="774.8" cy="371.7" r="1.03" fill="hsl(50 30% 92% / 0.42)"/><circle cx="1240.6" cy="191.4" r="1.26" fill="hsl(50 30% 92% / 0.45)"/><circle cx="1154.9" cy="11.0" r="0.85" fill="hsl(50 30% 92% / 0.69)"/><circle cx="84.9" cy="335.2" r="0.71" fill="hsl(50 30% 92% / 0.61)"/><circle cx="1013.0" cy="340.8" r="0.88" fill="hsl(50 30% 92% / 0.58)"/><circle cx="1015.0" cy="67.9" r="0.83" fill="hsl(50 30% 92% / 0.70)"/><circle cx="13.9" cy="422.0" r="0.84" fill="hsl(50 30% 92% / 0.42)"/><circle cx="359.5" cy="126.0" r="0.74" fill="hsl(50 30% 92% / 0.42)"/><circle cx="1354.5" cy="396.2" r="0.85" fill="hsl(50 30% 92% / 0.87)"/><circle cx="1558.0" cy="2.1" r="1.70" fill="hsl(50 30% 92% / 0.88)"/><circle cx="601.8" cy="154.1" r="0.90" fill="hsl(50 30% 92% / 0.91)"/><circle cx="1325.4" cy="188.8" r="0.82" fill="hsl(50 30% 92% / 0.68)"/><circle cx="1026.9" cy="385.4" r="1.89" fill="hsl(50 30% 92% / 0.51)"/><circle cx="113.7" cy="1.4" r="1.02" fill="hsl(50 30% 92% / 0.70)"/><circle cx="1437.0" cy="258.9" r="0.75" fill="hsl(50 30% 92% / 0.56)"/><circle cx="1208.5" cy="204.2" r="1.27" fill="hsl(50 30% 92% / 0.70)"/><circle cx="631.2" cy="219.6" r="1.02" fill="hsl(50 30% 92% / 0.63)"/><circle cx="1122.4" cy="377.0" r="1.15" fill="hsl(50 30% 92% / 0.76)"/><circle cx="1479.6" cy="310.0" r="0.93" fill="hsl(50 30% 92% / 0.90)"/><circle cx="1322.9" cy="493.3" r="0.72" fill="hsl(50 30% 92% / 0.44)"/><circle cx="1182.4" cy="118.3" r="0.72" fill="hsl(50 30% 92% / 0.44)"/><circle cx="125.8" cy="37.8" r="1.01" fill="hsl(50 30% 92% / 0.80)"/><circle cx="739.2" cy="91.8" r="0.75" fill="hsl(50 30% 92% / 0.87)"/><circle cx="487.1" cy="389.0" r="1.23" fill="hsl(50 30% 92% / 0.68)"/><circle cx="1204.2" cy="151.5" r="1.07" fill="hsl(50 30% 92% / 0.48)"/><circle cx="735.5" cy="353.5" r="0.93" fill="hsl(50 30% 92% / 0.91)"/><circle cx="1216.0" cy="35.3" r="1.13" fill="hsl(50 30% 92% / 0.89)"/><circle cx="1267.3" cy="285.7" r="0.98" fill="hsl(50 30% 92% / 0.56)"/><circle cx="549.5" cy="347.6" r="0.72" fill="hsl(50 30% 92% / 0.80)"/><circle cx="1508.8" cy="349.3" r="1.61" fill="hsl(50 30% 92% / 0.50)"/><circle cx="307.2" cy="226.6" r="0.65" fill="hsl(50 30% 92% / 0.80)"/><circle cx="1118.4" cy="465.8" r="0.65" fill="hsl(50 30% 92% / 0.67)"/><circle cx="1508.9" cy="7.6" r="2.15" fill="hsl(50 30% 92% / 0.74)"/><circle cx="1450.8" cy="430.5" r="0.78" fill="hsl(50 30% 92% / 0.89)"/></g><circle cx="765.4" cy="151.8" r="110" fill="url(#g1lxudp5-glow)"/><circle cx="765.4" cy="151.8" r="36" fill="hsl(48.0 35.0% 88.0%)"/><path d="M0 900 L0 514.4 Q0.0 514.4 40.0 460.9 Q80.0 407.4 120.0 375.3 Q160.0 343.3 200.0 326.8 Q240.0 310.4 280.0 319.7 Q320.0 329.0 360.0 341.1 Q400.0 353.3 440.0 412.2 Q480.0 471.1 520.0 488.4 Q560.0 505.8 600.0 495.8 Q640.0 485.9 680.0 468.9 Q720.0 452.0 760.0 459.7 Q800.0 467.5 840.0 442.5 Q880.0 417.6 920.0 424.0 Q960.0 430.5 1000.0 431.8 Q1040.0 433.0 1080.0 394.1 Q1120.0 355.1 1160.0 332.9 Q1200.0 310.6 1240.0 324.5 Q1280.0 338.5 1320.0 384.6 Q1360.0 430.7 1400.0 456.7 Q1440.0 482.7 1480.0 497.1 Q1520.0 511.5 1560.0 525.3 L1600 539.2 L1600 900 Z" fill="hsl(223.3 33.9% 19.1%)"/><path d="M0 900 L0 554.5 Q0.0 554.5 57.1 541.9 Q114.3 529.4 171.4 515.7 Q228.6 502.1 285.7 476.9 Q342.9 451.6 400.0 459.5 Q457.1 467.5 514.3 433.6 Q571.4 399.6 628.6 393.2 Q685.7 386.7 742.9 373.7 Q800.0 360.8 857.1 425.8 Q914.3 490.8 971.4 523.4 Q1028.6 556.1 1085.7 548.3 Q1142.9 540.5 1200.0 524.4 Q1257.1 508.2 1314.3 459.2 Q1371.4 410.3 1428.6 430.6 Q1485.7 451.0 1542.9 426.3 L1600 401.6 L1600 900 Z" fill="hsl(223.5 33.7% 18.7%)"/><path d="M0 900 L0 540.1 Q0.0 540.1 50.0 534.6 Q100.0 529.1 150.0 553.9 Q200.0 578.7 250.0 579.8 Q300.0 580.8 350.0 574.2 Q400.0 567.6 450.0 564.2 Q500.0 560.8 550.0 512.2 Q600.0 463.6 650.0 462.2 Q700.0 460.7 750.0 467.1 Q800.0 473.5 850.0 489.1 Q900.0 504.7 950.0 551.9 Q1000.0 599.1 1050.0 594.6 Q1100.0 590.1 1150.0 598.7 Q1200.0 607.2 1250.0 577.2 Q1300.0 547.1 1350.0 525.9 Q1400.0 504.7 1450.0 499.0 Q1500.0 493.4 1550.0 483.2 L1600 473.0 L1600 900 Z" fill="hsl(224.1 33.3% 17.5%)"/><path d="M0 900 L0 552.9 Q0.0 552.9 38.1 564.0 Q76.2 575.2 114.3 567.0 Q152.4 558.9 190.5 569.8 Q228.6 580.8 266.7 567.2 Q304.8 553.6 342.9 524.9 Q381.0 496.2 419.0 498.5 Q457.1 500.7 495.2 520.8 Q533.3 540.8 571.4 548.8 Q609.5 556.8 647.6 577.3 Q685.7 597.7 723.8 593.2 Q761.9 588.8 800.0 581.2 Q838.1 573.7 876.2 579.2 Q914.3 584.8 952.4 608.8 Q990.5 632.8 1028.6 638.9 Q1066.7 645.0 1104.8 642.6 Q1142.9 640.2 1181.0 632.0 Q1219.0 623.9 1257.1 603.3 Q1295.2 582.7 1333.3 575.3 Q1371.4 567.9 1409.5 583.8 Q1447.6 599.7 1485.7 584.0 Q1523.8 568.2 1561.9 561.3 L1600 554.5 L1600 900 Z" fill="hsl(225.0 32.5% 15.5%)"/><path d="M0 900 L0 666.6 Q0.0 666.6 50.0 660.7 Q100.0 654.8 150.0 649.2 Q200.0 643.5 250.0 630.9 Q300.0 618.2 350.0 620.0 Q400.0 621.7 450.0 624.8 Q500.0 627.8 550.0 608.6 Q600.0 589.4 650.0 593.9 Q700.0 598.4 750.0 579.6 Q800.0 560.8 850.0 583.0 Q900.0 605.2 950.0 618.1 Q1000.0 631.0 1050.0 651.8 Q1100.0 672.6 1150.0 683.5 Q1200.0 694.5 1250.0 675.8 Q1300.0 657.1 1350.0 644.0 Q1400.0 630.9 1450.0 597.7 Q1500.0 564.5 1550.0 574.8 L1600 585.2 L1600 900 Z" fill="hsl(226.3 31.4% 12.7%)"/><path d="M0 900 L0 686.6 Q0.0 686.6 44.4 700.0 Q88.9 713.4 133.3 709.2 Q177.8 705.0 222.2 706.1 Q266.7 707.1 311.1 708.7 Q355.6 710.2 400.0 694.4 Q444.4 678.7 488.9 658.4 Q533.3 638.1 577.8 636.1 Q622.2 634.0 666.7 639.5 Q711.1 644.9 755.6 645.5 Q800.0 646.2 844.4 674.1 Q888.9 702.1 933.3 715.8 Q977.8 729.5 1022.2 724.8 Q1066.7 720.1 1111.1 713.1 Q1155.6 706.2 1200.0 702.8 Q1244.4 699.3 1288.9 679.7 Q1333.3 660.1 1377.8 659.0 Q1422.2 657.8 1466.7 663.6 Q1511.1 669.4 1555.6 671.7 L1600 674.0 L1600 900 Z" fill="hsl(228.0 30.0% 9.0%)"/><path d="M290.1 900 C71.9 723.12833290454 1030.0 616.3 1036.0 546.3 L1038.0 546.3 C1046.0 616.3 583.9 723.12833290454 802.1 900 Z" fill="hsl(228.0 22.0% 13.0%)"/><path d="M546.1 900 C327.9 723.12833290454 1036.0 606.3 1037.0 546.3" fill="none" stroke="hsl(45 90% 70% / 0.85)" stroke-width="7" stroke-dasharray="46 38" stroke-linecap="round"/><rect width="1600" height="900" fill="url(#g1lxudp5-vig)"/></svg>