<svg xmlns="http://www.w3.org/2000/svg" viewBox="0 0 1600 900" role="img" preserveAspectRatio="xMidYMid slice"><title>ha-giang-mua-dong-tro-lai s1</title><defs><linearGradient id="grk2455-sky" x1="0" y1="0" x2="0" y2="1"><stop offset="0%" stop-color="hsl(232.0 45.0% 8.0%)"/><stop offset="50%" stop-color="hsl(228.0 40.0% 14.0%)"/><stop offset="100%" stop-color="hsl(222.0 35.0% 22.0%)"/></linearGradient><radialGradient id="grk2455-glow"><stop offset="0%" stop-color="hsl(48.0 35.0% 88.0% / 0.850)"/><stop offset="45%" stop-color="hsl(48.0 35.0% 88.0% / 0.250)"/><stop offset="100%" stop-color="hsl(48.0 35.0% 88.0% / 0.000)"/></radialGradient><radialGradient id="grk2455-vig" cx="50%" cy="42%" r="75%"><stop offset="70%" stop-color="hsl(0 0% 0% / 0)"/><stop offset="100%" stop-color="hsl(0 0% 0% / 0.18)"/></radialGradient></defs><rect width="1600" height="573.2" fill="url(#grk2455-sky)"/><rect y="572.2" width="1600" height="327.8" fill="hsl(226.5 31.3% 12.3%)"/><g><circle cx="1520.5" cy="359.5" r="0.66" fill="hsl(50 30% 92% / 0.68)"/><circle cx="1012.6" cy="249.0" r="0.94" fill="hsl(50 30% 92% / 0.73)"/><circle cx="1479.0" cy="180.0" r="0.62" fill="hsl(50 30% 92% / 0.82)"/><circle cx="717.8" cy="188.6" r="1.10" fill="hsl(50 30% 92% / 0.37)"/><circle cx="653.4" cy="142.7" r="1.13" fill="hsl(50 30% 92% / 0.90)"/><circle cx="1101.6" cy="55.7" r="1.27" fill="hsl(50 30% 92% / 0.49)"/><circle cx="964.6" cy="337.8" r="1.24" fill="hsl(50 30% 92% / 0.45)"/><circle cx="809.7" cy="264.7" r="1.06" fill="hsl(50 30% 92% / 0.41)"/><circle cx="55.6" cy="360.1" r="0.66" fill="hsl(50 30% 92% / 0.52)"/><circle cx="1177.5" cy="226.8" r="0.95" fill="hsl(50 30% 92% / 0.76)"/><circle cx="1039.6" cy="408.9" r="0.71" fill="hsl(50 30% 92% / 0.50)"/><circle cx="963.6" cy="295.9" r="1.23" fill="hsl(50 30% 92% / 0.64)"/><circle cx="110.5" cy="411.4" r="0.91" fill="hsl(50 30% 92% / 0.43)"/><circle cx="892.6" cy="498.3" r="0.77" fill="hsl(50 30% 92% / 0.84)"/><circle cx="1457.7" cy="514.8" r="1.25" fill="hsl(50 30% 92% / 0.67)"/><circle cx="540.9" cy="45.1" r="0.97" fill="hsl(50 30% 92% / 0.63)"/><circle cx="459.7" cy="430.6" r="0.60" fill="hsl(50 30% 92% / 0.54)"/><circle cx="543.7" cy="294.4" r="0.77" fill="hsl(50 30% 92% / 0.74)"/><circle cx="1509.9" cy="434.1" r="1.07" fill="hsl(50 30% 92% / 0.90)"/><circle cx="859.4" cy="371.4" r="0.80" fill="hsl(50 30% 92% / 0.76)"/><circle cx="1026.2" cy="169.1" r="2.23" fill="hsl(50 30% 92% / 0.37)"/><circle cx="1387.9" cy="330.4" r="0.79" fill="hsl(50 30% 92% / 0.52)"/><circle cx="364.1" cy="328.1" r="0.73" fill="hsl(50 30% 92% / 0.84)"/><circle cx="287.4" cy="215.2" r="0.84" fill="hsl(50 30% 92% / 0.41)"/><circle cx="723.5" cy="129.1" r="0.82" fill="hsl(50 30% 92% / 0.90)"/><circle cx="117.9" cy="293.5" r="0.82" fill="hsl(50 30% 92% / 0.94)"/><circle cx="953.2" cy="480.5" r="1.22" fill="hsl(50 30% 92% / 0.43)"/><circle cx="1038.5" cy="130.1" r="0.74" fill="hsl(50 30% 92% / 0.86)"/><circle cx="1304.3" cy="273.3" r="1.19" fill="hsl(50 30% 92% / 0.61)"/><circle cx="339.1" cy="382.1" r="1.29" fill="hsl(50 30% 92% / 0.78)"/><circle cx="935.3" cy="502.9" r="0.77" fill="hsl(50 30% 92% / 0.88)"/><circle cx="1351.7" cy="229.4" r="0.94" fill="hsl(50 30% 92% / 0.80)"/><circle cx="838.2" cy="161.1" r="0.95" fill="hsl(50 30% 92% / 0.75)"/><circle cx="823.6" cy="326.3" r="1.25" fill="hsl(50 30% 92% / 0.49)"/><circle cx="1309.6" cy="80.7" r="1.23" fill="hsl(50 30% 92% / 0.61)"/><circle cx="676.4" cy="129.2" r="0.88" fill="hsl(50 30% 92% / 0.67)"/><circle cx="143.0" cy="188.6" r="0.86" fill="hsl(50 30% 92% / 0.86)"/><circle cx="847.2" cy="374.9" r="1.07" fill="hsl(50 30% 92% / 0.83)"/><circle cx="318.8" cy="127.0" r="0.95" fill="hsl(50 30% 92% / 0.67)"/><circle cx="970.5" cy="32.0" r="1.11" fill="hsl(50 30% 92% / 0.95)"/><circle cx="1014.3" cy="56.7" r="0.71" fill="hsl(50 30% 92% / 0.92)"/><circle cx="1015.1" cy="312.8" r="0.95" fill="hsl(50 30% 92% / 0.79)"/><circle cx="1254.3" cy="144.0" r="2.25" fill="hsl(50 30% 92% / 0.42)"/><circle cx="666.2" cy="291.7" r="1.27" fill="hsl(50 30% 92% / 0.36)"/><circle cx="393.7" cy="36.2" r="0.67" fill="hsl(50 30% 92% / 0.49)"/><circle cx="1064.7" cy="500.4" r="1.00" fill="hsl(50 30% 92% / 0.71)"/><circle cx="495.4" cy="281.2" r="0.67" fill="hsl(50 30% 92% / 0.84)"/><circle cx="884.1" cy="408.6" r="1.02" fill="hsl(50 30% 92% / 0.48)"/><circle cx="542.8" cy="169.3" r="0.70" fill="hsl(50 30% 92% / 0.94)"/><circle cx="529.1" cy="109.5" r="1.02" fill="hsl(50 30% 92% / 0.72)"/><circle cx="965.9" cy="508.1" r="0.77" fill="hsl(50 30% 92% / 0.59)"/><circle cx="1258.1" cy="494.7" r="1.75" fill="hsl(50 30% 92% / 0.46)"/><circle cx="224.8" cy="311.6" r="1.87" fill="hsl(50 30% 92% / 0.71)"/><circle cx="804.6" cy="507.6" r="0.67" fill="hsl(50 30% 92% / 0.87)"/><circle cx="1031.5" cy="16.1" r="0.63" fill="hsl(50 30% 92% / 0.43)"/><circle cx="864.0" cy="54.1" r="0.72" fill="hsl(50 30% 92% / 0.65)"/><circle cx="499.2" cy="215.6" r="0.76" fill="hsl(50 30% 92% / 0.69)"/><circle cx="1053.2" cy="134.5" r="0.88" fill="hsl(50 30% 92% / 0.69)"/><circle cx="325.5" cy="478.4" r="0.65" fill="hsl(50 30% 92% / 0.64)"/><circle cx="387.6" cy="3.1" r="1.04" fill="hsl(50 30% 92% / 0.82)"/><circle cx="857.4" cy="133.2" r="0.77" fill="hsl(50 30% 92% / 0.85)"/><circle cx="1584.7" cy="429.1" r="1.98" fill="hsl(50 30% 92% / 0.80)"/><circle cx="603.1" cy="449.3" r="1.09" fill="hsl(50 30% 92% / 0.92)"/><circle cx="76.8" cy="344.3" r="1.05" fill="hsl(50 30% 92% / 0.78)"/><circle cx="952.5" cy="232.7" r="1.09" fill="hsl(50 30% 92% / 0.44)"/><circle cx="1361.3" cy="84.9" r="1.86" fill="hsl(50 30% 92% / 0.72)"/><circle cx="660.7" cy="302.5" r="0.72" fill="hsl(50 30% 92% / 0.94)"/><circle cx="889.1" cy="447.1" r="0.82" fill="hsl(50 30% 92% / 0.93)"/><circle cx="774.2" cy="517.0" r="0.91" fill="hsl(50 30% 92% / 0.63)"/><circle cx="259.3" cy="32.3" r="0.65" fill="hsl(50 30% 92% / 0.91)"/><circle cx="1021.4" cy="182.5" r="1.21" fill="hsl(50 30% 92% / 0.53)"/><circle cx="1134.8" cy="23.2" r="1.12" fill="hsl(50 30% 92% / 0.85)"/><circle cx="203.1" cy="415.6" r="0.96" fill="hsl(50 30% 92% / 0.55)"/><circle cx="1555.1" cy="430.3" r="1.24" fill="hsl(50 30% 92% / 0.49)"/><circle cx="1201.1" cy="83.5" r="1.05" fill="hsl(50 30% 92% / 0.38)"/><circle cx="902.1" cy="317.2" r="0.99" fill="hsl(50 30% 92% / 0.91)"/><circle cx="1196.8" cy="58.5" r="1.21" fill="hsl(50 30% 92% / 0.57)"/><circle cx="666.5" cy="388.0" r="0.74" fill="hsl(50 30% 92% / 0.70)"/><circle cx="595.5" cy="298.0" r="1.09" fill="hsl(50 30% 92% / 0.45)"/><circle cx="967.0" cy="83.5" r="0.63" fill="hsl(50 30% 92% / 0.43)"/><circle cx="1337.3" cy="261.4" r="1.04" fill="hsl(50 30% 92% / 0.66)"/><circle cx="1151.8" cy="69.1" r="0.79" fill="hsl(50 30% 92% / 0.39)"/><circle cx="420.1" cy="484.7" r="0.92" fill="hsl(50 30% 92% / 0.41)"/><circle cx="1350.7" cy="65.7" r="0.94" fill="hsl(50 30% 92% / 0.75)"/><circle cx="1045.2" cy="77.7" r="1.86" fill="hsl(50 30% 92% / 0.84)"/><circle cx="704.9" cy="379.2" r="0.74" fill="hsl(50 30% 92% / 0.72)"/><circle cx="435.7" cy="421.1" r="0.85" fill="hsl(50 30% 92% / 0.85)"/><circle cx="674.1" cy="318.2" r="0.83" fill="hsl(50 30% 92% / 0.78)"/><circle cx="1528.3" cy="165.9" r="0.85" fill="hsl(50 30% 92% / 0.48)"/><circle cx="692.4" cy="144.4" r="0.97" fill="hsl(50 30% 92% / 0.74)"/><circle cx="1382.6" cy="261.6" r="0.91" fill="hsl(50 30% 92% / 0.82)"/><circle cx="728.7" cy="267.9" r="0.89" fill="hsl(50 30% 92% / 0.68)"/><circle cx="513.0" cy="32.3" r="0.62" fill="hsl(50 30% 92% / 0.58)"/><circle cx="1399.4" cy="153.1" r="0.88" fill="hsl(50 30% 92% / 0.68)"/></g><circle cx="1034.4" cy="160.5" r="110" fill="url(#grk2455-glow)"/><circle cx="1034.4" cy="160.5" r="36" fill="hsl(48.0 35.0% 88.0%)"/><path d="M0 900 L0 447.7 Q0.0 447.7 50.0 402.0 Q100.0 356.3 150.0 349.5 Q200.0 342.7 250.0 347.0 Q300.0 351.3 350.0 424.7 Q400.0 498.2 450.0 519.9 Q500.0 541.6 550.0 561.4 Q600.0 581.2 650.0 546.6 Q700.0 511.9 750.0 463.2 Q800.0 414.4 850.0 403.2 Q900.0 392.0 950.0 388.4 Q1000.0 384.8 1050.0 400.1 Q1100.0 415.3 1150.0 398.3 Q1200.0 381.4 1250.0 394.1 Q1300.0 406.8 1350.0 397.5 Q1400.0 388.1 1450.0 436.8 Q1500.0 485.5 1550.0 497.4 L1600 509.3 L1600 900 Z" fill="hsl(223.3 33.9% 19.1%)"/><path d="M0 900 L0 435.3 Q0.0 435.3 57.1 465.7 Q114.3 496.1 171.4 515.3 Q228.6 534.5 285.7 556.8 Q342.9 579.0 400.0 547.7 Q457.1 516.3 514.3 533.6 Q571.4 551.0 628.6 571.9 Q685.7 592.9 742.9 568.7 Q800.0 544.5 857.1 514.8 Q914.3 485.1 971.4 454.1 Q1028.6 423.1 1085.7 415.6 Q1142.9 408.1 1200.0 449.6 Q1257.1 491.0 1314.3 481.8 Q1371.4 472.5 1428.6 478.8 Q1485.7 485.0 1542.9 498.1 L1600 511.1 L1600 900 Z" fill="hsl(223.5 33.7% 18.7%)"/><path d="M0 900 L0 484.8 Q0.0 484.8 47.1 471.4 Q94.1 458.0 141.2 483.2 Q188.2 508.5 235.3 536.2 Q282.4 564.0 329.4 596.5 Q376.5 629.0 423.5 603.8 Q470.6 578.6 517.6 565.5 Q564.7 552.4 611.8 555.8 Q658.8 559.2 705.9 541.6 Q752.9 523.9 800.0 519.5 Q847.1 515.2 894.1 471.4 Q941.2 427.6 988.2 447.5 Q1035.3 467.4 1082.4 508.8 Q1129.4 550.2 1176.5 578.1 Q1223.5 606.0 1270.6 615.2 Q1317.6 624.4 1364.7 584.6 Q1411.8 544.8 1458.8 562.7 Q1505.9 580.7 1552.9 556.6 L1600 532.5 L1600 900 Z" fill="hsl(224.1 33.3% 17.5%)"/><path d="M0 900 L0 578.0 Q0.0 578.0 50.0 583.6 Q100.0 589.2 150.0 583.0 Q200.0 576.7 250.0 583.1 Q300.0 589.6 350.0 612.5 Q400.0 635.4 450.0 642.0 Q500.0 648.6 550.0 658.5 Q600.0 668.4 650.0 678.5 Q700.0 688.6 750.0 664.5 Q800.0 640.4 850.0 627.8 Q900.0 615.1 950.0 606.4 Q1000.0 597.6 1050.0 593.0 Q1100.0 588.3 1150.0 583.1 Q1200.0 578.0 1250.0 591.8 Q1300.0 605.7 1350.0 594.3 Q1400.0 582.8 1450.0 565.6 Q1500.0 548.4 1550.0 563.1 L1600 577.7 L1600 900 Z" fill="hsl(225.0 32.5% 15.5%)"/><path d="M0 900 L0 640.0 Q0.0 640.0 47.1 671.8 Q94.1 703.7 141.2 696.1 Q188.2 688.4 235.3 681.6 Q282.4 674.8 329.4 664.0 Q376.5 653.2 423.5 618.4 Q470.6 583.6 517.6 589.8 Q564.7 595.9 611.8 615.8 Q658.8 635.7 705.9 611.7 Q752.9 587.7 800.0 567.6 Q847.1 547.6 894.1 572.3 Q941.2 597.0 988.2 606.1 Q1035.3 615.1 1082.4 648.5 Q1129.4 681.9 1176.5 683.0 Q1223.5 684.1 1270.6 662.7 Q1317.6 641.3 1364.7 647.8 Q1411.8 654.3 1458.8 670.3 Q1505.9 686.4 1552.9 680.6 L1600 674.8 L1600 900 Z" fill="hsl(226.3 31.4% 12.7%)"/><path d="M0 900 L0 637.7 Q0.0 637.7 47.1 652.7 Q94.1 667.7 141.2 678.6 Q188.2 689.5 235.3 713.5 Q282.4 737.6 329.4 744.0 Q376.5 750.3 423.5 730.3 Q470.6 710.3 517.6 698.2 Q564.7 686.0 611.8 672.8 Q658.8 659.5 705.9 651.8 Q752.9 644.1 800.0 661.3 Q847.1 678.6 894.1 663.7 Q941.2 648.8 988.2 656.3 Q1035.3 663.7 1082.4 672.1 Q1129.4 680.5 1176.5 668.6 Q1223.5 656.8 1270.6 680.0 Q1317.6 703.3 1364.7 715.0 Q1411.8 726.8 1458.8 727.5 Q1505.9 728.2 1552.9 729.4 L1600 730.6 L1600 900 Z" fill="hsl(228.0 30.0% 9.0%)"/><path d="M733.4 900 C559.9 738.5844433298334 601.8 647.2 607.8 577.2 L609.8 577.2 C617.8 647.2 1071.9 738.5844433298334 1245.4 900 Z" fill="hsl(228.0 22.0% 13.0%)"/><path d="M989.4 900 C815.9 738.5844433298334 607.8 637.2 608.8 577.2" fill="none" stroke="hsl(45 90% 70% / 0.85)" stroke-width="7" stroke-dasharray="46 38" stroke-linecap="round"/><rect width="1600" height="900" fill="url(#grk2455-vig)"/></svg>