<svg xmlns="http://www.w3.org/2000/svg" viewBox="0 0 1600 900" role="img" preserveAspectRatio="xMidYMid slice"><title>ha-giang-mua-dong-tro-lai s2</title><defs><linearGradient id="gcnms8s-sky" x1="0" y1="0" x2="0" y2="1"><stop offset="0%" stop-color="hsl(265.0 38.0% 26.0%)"/><stop offset="50%" stop-color="hsl(348.0 55.0% 46.0%)"/><stop offset="100%" stop-color="hsl(22.0 90.0% 58.0%)"/></linearGradient><radialGradient id="gcnms8s-glow"><stop offset="0%" stop-color="hsl(24.0 95.0% 66.0% / 0.850)"/><stop offset="45%" stop-color="hsl(24.0 95.0% 66.0% / 0.250)"/><stop offset="100%" stop-color="hsl(24.0 95.0% 66.0% / 0.000)"/></radialGradient><radialGradient id="gcnms8s-vig" cx="50%" cy="42%" r="75%"><stop offset="70%" stop-color="hsl(0 0% 0% / 0)"/><stop offset="100%" stop-color="hsl(0 0% 0% / 0.18)"/></radialGradient></defs><rect width="1600" height="523.0" fill="url(#gcnms8s-sky)"/><rect y="522.0" width="1600" height="378.0" fill="hsl(305.5 43.5% 25.0%)"/><circle cx="899.9" cy="460.3" r="230" fill="url(#gcnms8s-glow)"/><circle cx="899.9" cy="460.3" r="78" fill="hsl(24.0 95.0% 66.0%)"/><path d="M0 900 L0 369.9 Q0.0 369.9 42.1 387.3 Q84.2 404.8 126.3 394.4 Q168.4 384.1 210.5 373.2 Q252.6 362.3 294.7 411.2 Q336.8 460.1 378.9 451.1 Q421.1 442.1 463.2 452.3 Q505.3 462.4 547.4 487.0 Q589.5 511.5 631.6 474.4 Q673.7 437.3 715.8 421.7 Q757.9 406.2 800.0 386.0 Q842.1 365.9 884.2 319.2 Q926.3 272.5 968.4 275.5 Q1010.5 278.5 1052.6 300.6 Q1094.7 322.7 1136.8 358.7 Q1178.9 394.6 1221.1 439.9 Q1263.2 485.3 1305.3 496.7 Q1347.4 508.1 1389.5 515.7 Q1431.6 523.3 1473.7 518.0 Q1515.8 512.7 1557.9 450.2 L1600 387.7 L1600 900 Z" fill="hsl(359.6 76.4% 48.3%)"/><path d="M0 900 L0 473.8 Q0.0 473.8 40.0 460.7 Q80.0 447.5 120.0 435.0 Q160.0 422.4 200.0 432.7 Q240.0 443.1 280.0 441.4 Q320.0 439.8 360.0 443.1 Q400.0 446.3 440.0 431.6 Q480.0 417.0 520.0 420.5 Q560.0 424.0 600.0 451.0 Q640.0 477.9 680.0 496.5 Q720.0 515.1 760.0 543.7 Q800.0 572.4 840.0 563.8 Q880.0 555.2 920.0 519.3 Q960.0 483.4 1000.0 453.7 Q1040.0 423.9 1080.0 430.5 Q1120.0 437.1 1160.0 424.3 Q1200.0 411.4 1240.0 421.9 Q1280.0 432.5 1320.0 456.8 Q1360.0 481.1 1400.0 470.4 Q1440.0 459.7 1480.0 451.0 Q1520.0 442.2 1560.0 462.7 L1600 483.2 L1600 900 Z" fill="hsl(354.6 73.3% 46.2%)"/><path d="M0 900 L0 630.8 Q0.0 630.8 57.1 609.8 Q114.3 588.8 171.4 559.8 Q228.6 530.7 285.7 482.6 Q342.9 434.5 400.0 463.7 Q457.1 492.8 514.3 490.9 Q571.4 488.9 628.6 494.0 Q685.7 499.2 742.9 506.1 Q800.0 513.0 857.1 513.4 Q914.3 513.8 971.4 547.7 Q1028.6 581.6 1085.7 604.1 Q1142.9 626.6 1200.0 593.2 Q1257.1 559.8 1314.3 561.6 Q1371.4 563.5 1428.6 535.5 Q1485.7 507.4 1542.9 501.4 L1600 495.4 L1600 900 Z" fill="hsl(339.7 64.3% 39.7%)"/><path d="M0 900 L0 615.8 Q0.0 615.8 47.1 615.3 Q94.1 614.8 141.2 641.6 Q188.2 668.4 235.3 651.3 Q282.4 634.2 329.4 635.6 Q376.5 637.0 423.5 606.5 Q470.6 576.1 517.6 559.5 Q564.7 542.8 611.8 550.5 Q658.8 558.3 705.9 554.8 Q752.9 551.3 800.0 599.1 Q847.1 646.9 894.1 657.9 Q941.2 668.9 988.2 667.7 Q1035.3 666.6 1082.4 660.8 Q1129.4 654.9 1176.5 625.7 Q1223.5 596.4 1270.6 588.2 Q1317.6 579.9 1364.7 552.1 Q1411.8 524.2 1458.8 540.1 Q1505.9 555.9 1552.9 572.1 L1600 588.2 L1600 900 Z" fill="hsl(314.8 49.2% 29.0%)"/><path d="M0 900 L0 651.0 Q0.0 651.0 40.0 671.4 Q80.0 691.8 120.0 693.0 Q160.0 694.2 200.0 710.8 Q240.0 727.4 280.0 718.5 Q320.0 709.5 360.0 703.9 Q400.0 698.3 440.0 699.1 Q480.0 699.9 520.0 677.9 Q560.0 655.8 600.0 650.8 Q640.0 645.7 680.0 645.7 Q720.0 645.6 760.0 646.7 Q800.0 647.9 840.0 669.0 Q880.0 690.2 920.0 698.3 Q960.0 706.3 1000.0 717.6 Q1040.0 728.9 1080.0 719.5 Q1120.0 710.0 1160.0 703.5 Q1200.0 697.1 1240.0 694.9 Q1280.0 692.8 1320.0 672.9 Q1360.0 653.0 1400.0 661.2 Q1440.0 669.3 1480.0 668.8 Q1520.0 668.3 1560.0 667.8 L1600 667.4 L1600 900 Z" fill="hsl(280.0 28.0% 14.0%)"/><rect width="1600" height="900" fill="url(#gcnms8s-vig)"/></svg>