<svg xmlns="http://www.w3.org/2000/svg" viewBox="0 0 1600 900" role="img" preserveAspectRatio="xMidYMid slice"><title>song-da-quynh-nhai-cau-pa-uon hero</title><defs><linearGradient id="g10x3jyg-sky" x1="0" y1="0" x2="0" y2="1"><stop offset="0%" stop-color="hsl(215.0 48.0% 46.0%)"/><stop offset="50%" stop-color="hsl(200.0 42.0% 62.0%)"/><stop offset="100%" stop-color="hsl(36.0 50.0% 72.0%)"/></linearGradient><radialGradient id="g10x3jyg-glow"><stop offset="0%" stop-color="hsl(40.0 85.0% 78.0% / 0.850)"/><stop offset="45%" stop-color="hsl(40.0 85.0% 78.0% / 0.250)"/><stop offset="100%" stop-color="hsl(40.0 85.0% 78.0% / 0.000)"/></radialGradient><linearGradient id="g10x3jyg-water" x1="0" y1="0" x2="0" y2="1"><stop offset="0%" stop-color="hsl(114.3 45.5% 50.4%)"/><stop offset="100%" stop-color="hsl(216.2 39.8% 14.4%)"/></linearGradient><radialGradient id="g10x3jyg-vig" cx="50%" cy="42%" r="75%"><stop offset="70%" stop-color="hsl(0 0% 0% / 0)"/><stop offset="100%" stop-color="hsl(0 0% 0% / 0.18)"/></radialGradient></defs><rect width="1600" height="460.6" fill="url(#g10x3jyg-sky)"/><rect y="459.6" width="1600" height="440.4" fill="hsl(262.5 36.5% 31.5%)"/><circle cx="533.4" cy="322.4" r="130" fill="url(#g10x3jyg-glow)"/><circle cx="533.4" cy="322.4" r="50" fill="hsl(40.0 85.0% 78.0%)"/><path d="M0 900 L0 408.2 Q0.0 408.2 47.1 384.4 Q94.1 360.7 141.2 356.6 Q188.2 352.5 235.3 344.1 Q282.4 335.7 329.4 296.3 Q376.5 256.8 423.5 273.2 Q470.6 289.6 517.6 291.3 Q564.7 292.9 611.8 331.4 Q658.8 369.9 705.9 408.2 Q752.9 446.6 800.0 444.7 Q847.1 442.9 894.1 442.5 Q941.2 442.2 988.2 440.1 Q1035.3 438.0 1082.4 407.4 Q1129.4 376.7 1176.5 363.7 Q1223.5 350.7 1270.6 345.5 Q1317.6 340.3 1364.7 344.4 Q1411.8 348.6 1458.8 347.4 Q1505.9 346.2 1552.9 330.7 L1600 315.1 L1600 900 Z" fill="hsl(356.8 46.0% 60.1%)"/><path d="M0 900 L0 474.8 Q0.0 474.8 38.1 448.3 Q76.2 421.9 114.3 403.0 Q152.4 384.1 190.5 407.5 Q228.6 430.9 266.7 416.4 Q304.8 401.9 342.9 404.7 Q381.0 407.5 419.0 399.5 Q457.1 391.5 495.2 375.8 Q533.3 360.1 571.4 358.4 Q609.5 356.6 647.6 377.5 Q685.7 398.4 723.8 401.9 Q761.9 405.4 800.0 431.6 Q838.1 457.7 876.2 473.0 Q914.3 488.2 952.4 478.5 Q990.5 468.9 1028.6 473.1 Q1066.7 477.4 1104.8 462.1 Q1142.9 446.8 1181.0 441.8 Q1219.0 436.7 1257.1 462.6 Q1295.2 488.5 1333.3 483.8 Q1371.4 479.1 1409.5 478.1 Q1447.6 477.2 1485.7 473.3 Q1523.8 469.4 1561.9 428.8 L1600 388.3 L1600 900 Z" fill="hsl(348.2 45.2% 57.5%)"/><path d="M0 900 L0 525.0 Q0.0 525.0 40.0 559.6 Q80.0 594.1 120.0 591.7 Q160.0 589.3 200.0 570.1 Q240.0 551.0 280.0 545.9 Q320.0 540.8 360.0 510.9 Q400.0 481.1 440.0 470.7 Q480.0 460.4 520.0 469.8 Q560.0 479.1 600.0 486.9 Q640.0 494.6 680.0 480.0 Q720.0 465.4 760.0 466.2 Q800.0 466.9 840.0 463.6 Q880.0 460.2 920.0 471.4 Q960.0 482.7 1000.0 506.3 Q1040.0 530.0 1080.0 546.9 Q1120.0 563.9 1160.0 571.6 Q1200.0 579.2 1240.0 557.0 Q1280.0 534.7 1320.0 529.8 Q1360.0 524.8 1400.0 534.5 Q1440.0 544.2 1480.0 542.0 Q1520.0 539.8 1560.0 523.1 L1600 506.4 L1600 900 Z" fill="hsl(322.1 42.5% 49.6%)"/><path d="M0 900 L0 634.4 Q0.0 634.4 53.3 615.0 Q106.7 595.7 160.0 585.6 Q213.3 575.5 266.7 544.6 Q320.0 513.7 373.3 520.7 Q426.7 527.6 480.0 524.6 Q533.3 521.7 586.7 545.2 Q640.0 568.8 693.3 570.6 Q746.7 572.4 800.0 583.3 Q853.3 594.2 906.7 583.6 Q960.0 573.0 1013.3 593.7 Q1066.7 614.4 1120.0 613.1 Q1173.3 611.9 1226.7 621.7 Q1280.0 631.6 1333.3 617.6 Q1386.7 603.7 1440.0 580.4 Q1493.3 557.2 1546.7 542.4 L1600 527.5 L1600 900 Z" fill="hsl(278.7 38.1% 36.4%)"/><path d="M0 900 L0 666.7 Q0.0 666.7 44.4 671.2 Q88.9 675.6 133.3 666.8 Q177.8 658.0 222.2 637.7 Q266.7 617.3 311.1 615.2 Q355.6 613.1 400.0 606.6 Q444.4 600.1 488.9 610.1 Q533.3 620.1 577.8 640.9 Q622.2 661.7 666.7 667.2 Q711.1 672.7 755.6 671.9 Q800.0 671.1 844.4 673.7 Q888.9 676.3 933.3 673.8 Q977.8 671.2 1022.2 673.2 Q1066.7 675.1 1111.1 676.3 Q1155.6 677.5 1200.0 667.8 Q1244.4 658.1 1288.9 636.4 Q1333.3 614.6 1377.8 611.1 Q1422.2 607.5 1466.7 613.2 Q1511.1 618.9 1555.6 620.9 L1600 622.8 L1600 900 Z" fill="hsl(218.0 32.0% 18.0%)"/><rect y="460.6" width="1600" height="439.4" fill="url(#g10x3jyg-water)"/><g><rect x="805.1" y="479.0" width="22.6" height="3.2" rx="1.6" fill="hsl(40.0 85.0% 78.0% / 0.559)"/><rect x="802.6" y="501.4" width="36.7" height="3.2" rx="1.6" fill="hsl(40.0 85.0% 78.0% / 0.534)"/><rect x="743.2" y="521.3" width="54.2" height="3.2" rx="1.6" fill="hsl(40.0 85.0% 78.0% / 0.511)"/><rect x="790.0" y="540.2" width="13.1" height="3.2" rx="1.6" fill="hsl(40.0 85.0% 78.0% / 0.490)"/><rect x="798.2" y="565.9" width="52.5" height="3.2" rx="1.6" fill="hsl(40.0 85.0% 78.0% / 0.460)"/><rect x="761.1" y="585.7" width="28.5" height="3.2" rx="1.6" fill="hsl(40.0 85.0% 78.0% / 0.438)"/><rect x="829.0" y="605.5" width="27.7" height="3.2" rx="1.6" fill="hsl(40.0 85.0% 78.0% / 0.415)"/><rect x="808.2" y="632.9" width="55.3" height="3.2" rx="1.6" fill="hsl(40.0 85.0% 78.0% / 0.384)"/><rect x="750.1" y="647.2" width="60.5" height="3.2" rx="1.6" fill="hsl(40.0 85.0% 78.0% / 0.368)"/><rect x="718.2" y="673.9" width="91.3" height="3.2" rx="1.6" fill="hsl(40.0 85.0% 78.0% / 0.337)"/><rect x="730.7" y="697.5" width="57.8" height="3.2" rx="1.6" fill="hsl(40.0 85.0% 78.0% / 0.310)"/><rect x="837.6" y="717.6" width="39.5" height="3.2" rx="1.6" fill="hsl(40.0 85.0% 78.0% / 0.288)"/><rect x="686.1" y="736.7" width="105.2" height="3.2" rx="1.6" fill="hsl(40.0 85.0% 78.0% / 0.266)"/><rect x="720.8" y="760.7" width="28.7" height="3.2" rx="1.6" fill="hsl(40.0 85.0% 78.0% / 0.239)"/><rect x="715.5" y="780.3" width="57.7" height="3.2" rx="1.6" fill="hsl(40.0 85.0% 78.0% / 0.216)"/><rect x="831.0" y="803.0" width="88.9" height="3.2" rx="1.6" fill="hsl(40.0 85.0% 78.0% / 0.190)"/><rect x="718.8" y="825.3" width="70.1" height="3.2" rx="1.6" fill="hsl(40.0 85.0% 78.0% / 0.165)"/><rect x="721.1" y="843.0" width="54.4" height="3.2" rx="1.6" fill="hsl(40.0 85.0% 78.0% / 0.145)"/><rect x="834.7" y="864.8" width="96.6" height="3.2" rx="1.6" fill="hsl(40.0 85.0% 78.0% / 0.120)"/></g><rect width="1600" height="900" fill="url(#g10x3jyg-vig)"/></svg>