<svg xmlns="http://www.w3.org/2000/svg" viewBox="0 0 1600 900" role="img" preserveAspectRatio="xMidYMid slice"><title>song-da-quynh-nhai-cau-pa-uon s1</title><defs><linearGradient id="grag3tc-sky" x1="0" y1="0" x2="0" y2="1"><stop offset="0%" stop-color="hsl(215.0 48.0% 46.0%)"/><stop offset="50%" stop-color="hsl(200.0 42.0% 62.0%)"/><stop offset="100%" stop-color="hsl(36.0 50.0% 72.0%)"/></linearGradient><radialGradient id="grag3tc-glow"><stop offset="0%" stop-color="hsl(40.0 85.0% 78.0% / 0.850)"/><stop offset="45%" stop-color="hsl(40.0 85.0% 78.0% / 0.250)"/><stop offset="100%" stop-color="hsl(40.0 85.0% 78.0% / 0.000)"/></radialGradient><linearGradient id="grag3tc-water" x1="0" y1="0" x2="0" y2="1"><stop offset="0%" stop-color="hsl(114.3 45.5% 50.4%)"/><stop offset="100%" stop-color="hsl(216.2 39.8% 14.4%)"/></linearGradient><radialGradient id="grag3tc-vig" cx="50%" cy="42%" r="75%"><stop offset="70%" stop-color="hsl(0 0% 0% / 0)"/><stop offset="100%" stop-color="hsl(0 0% 0% / 0.18)"/></radialGradient></defs><rect width="1600" height="456.9" fill="url(#grag3tc-sky)"/><rect y="455.9" width="1600" height="444.1" fill="hsl(262.5 36.5% 31.5%)"/><circle cx="574.1" cy="319.8" r="130" fill="url(#grag3tc-glow)"/><circle cx="574.1" cy="319.8" r="50" fill="hsl(40.0 85.0% 78.0%)"/><path d="M0 900 L0 284.7 Q0.0 284.7 53.3 268.4 Q106.7 252.1 160.0 304.5 Q213.3 356.9 266.7 380.6 Q320.0 404.4 373.3 441.0 Q426.7 477.6 480.0 437.9 Q533.3 398.2 586.7 385.2 Q640.0 372.3 693.3 354.0 Q746.7 335.7 800.0 323.1 Q853.3 310.4 906.7 307.4 Q960.0 304.4 1013.3 277.3 Q1066.7 250.2 1120.0 270.9 Q1173.3 291.6 1226.7 302.8 Q1280.0 314.1 1333.3 364.9 Q1386.7 415.8 1440.0 426.4 Q1493.3 437.0 1546.7 438.2 L1600 439.4 L1600 900 Z" fill="hsl(356.8 46.0% 60.1%)"/><path d="M0 900 L0 447.3 Q0.0 447.3 57.1 434.5 Q114.3 421.8 171.4 428.5 Q228.6 435.3 285.7 472.8 Q342.9 510.3 400.0 509.1 Q457.1 507.9 514.3 511.0 Q571.4 514.1 628.6 467.7 Q685.7 421.2 742.9 416.4 Q800.0 411.6 857.1 395.4 Q914.3 379.2 971.4 392.4 Q1028.6 405.6 1085.7 412.6 Q1142.9 419.6 1200.0 414.9 Q1257.1 410.2 1314.3 423.0 Q1371.4 435.8 1428.6 441.5 Q1485.7 447.3 1542.9 485.1 L1600 522.9 L1600 900 Z" fill="hsl(348.2 45.2% 57.5%)"/><path d="M0 900 L0 508.2 Q0.0 508.2 47.1 543.5 Q94.1 578.8 141.2 567.9 Q188.2 556.9 235.3 557.4 Q282.4 557.8 329.4 522.6 Q376.5 487.4 423.5 497.2 Q470.6 507.0 517.6 499.0 Q564.7 491.1 611.8 483.8 Q658.8 476.5 705.9 468.4 Q752.9 460.2 800.0 449.3 Q847.1 438.5 894.1 473.2 Q941.2 507.8 988.2 525.5 Q1035.3 543.1 1082.4 551.9 Q1129.4 560.7 1176.5 543.2 Q1223.5 525.6 1270.6 539.0 Q1317.6 552.4 1364.7 553.8 Q1411.8 555.2 1458.8 547.8 Q1505.9 540.5 1552.9 510.6 L1600 480.7 L1600 900 Z" fill="hsl(322.1 42.5% 49.6%)"/><path d="M0 900 L0 620.1 Q0.0 620.1 38.1 610.3 Q76.2 600.6 114.3 598.6 Q152.4 596.7 190.5 609.9 Q228.6 623.1 266.7 627.5 Q304.8 631.9 342.9 620.7 Q381.0 609.5 419.0 600.7 Q457.1 591.9 495.2 575.8 Q533.3 559.6 571.4 544.5 Q609.5 529.4 647.6 543.2 Q685.7 557.0 723.8 560.9 Q761.9 564.8 800.0 561.0 Q838.1 557.2 876.2 561.9 Q914.3 566.6 952.4 563.4 Q990.5 560.1 1028.6 562.3 Q1066.7 564.5 1104.8 593.0 Q1142.9 621.4 1181.0 630.7 Q1219.0 640.0 1257.1 633.8 Q1295.2 627.7 1333.3 616.6 Q1371.4 605.5 1409.5 602.1 Q1447.6 598.7 1485.7 594.3 Q1523.8 589.9 1561.9 594.1 L1600 598.2 L1600 900 Z" fill="hsl(278.7 38.1% 36.4%)"/><path d="M0 900 L0 638.0 Q0.0 638.0 42.1 643.5 Q84.2 649.0 126.3 657.1 Q168.4 665.2 210.5 651.0 Q252.6 636.8 294.7 629.6 Q336.8 622.4 378.9 622.4 Q421.1 622.3 463.2 622.1 Q505.3 621.8 547.4 630.2 Q589.5 638.5 631.6 646.1 Q673.7 653.6 715.8 646.0 Q757.9 638.5 800.0 640.2 Q842.1 641.9 884.2 651.2 Q926.3 660.4 968.4 675.0 Q1010.5 689.6 1052.6 686.1 Q1094.7 682.5 1136.8 686.0 Q1178.9 689.4 1221.1 673.7 Q1263.2 658.1 1305.3 656.5 Q1347.4 655.0 1389.5 666.2 Q1431.6 677.4 1473.7 670.9 Q1515.8 664.4 1557.9 649.5 L1600 634.6 L1600 900 Z" fill="hsl(218.0 32.0% 18.0%)"/><rect y="456.9" width="1600" height="443.1" fill="url(#grag3tc-water)"/><g><rect x="788.4" y="475.3" width="21.1" height="3.2" rx="1.6" fill="hsl(40.0 85.0% 78.0% / 0.559)"/><rect x="783.0" y="503.1" width="20.6" height="3.2" rx="1.6" fill="hsl(40.0 85.0% 78.0% / 0.528)"/><rect x="794.9" y="522.0" width="55.0" height="3.2" rx="1.6" fill="hsl(40.0 85.0% 78.0% / 0.506)"/><rect x="793.7" y="547.5" width="16.8" height="3.2" rx="1.6" fill="hsl(40.0 85.0% 78.0% / 0.478)"/><rect x="760.5" y="568.9" width="21.6" height="3.2" rx="1.6" fill="hsl(40.0 85.0% 78.0% / 0.454)"/><rect x="773.1" y="599.0" width="28.9" height="3.2" rx="1.6" fill="hsl(40.0 85.0% 78.0% / 0.420)"/><rect x="798.3" y="624.6" width="47.6" height="3.2" rx="1.6" fill="hsl(40.0 85.0% 78.0% / 0.391)"/><rect x="748.2" y="648.6" width="51.5" height="3.2" rx="1.6" fill="hsl(40.0 85.0% 78.0% / 0.364)"/><rect x="763.4" y="671.0" width="96.7" height="3.2" rx="1.6" fill="hsl(40.0 85.0% 78.0% / 0.338)"/><rect x="761.2" y="694.3" width="95.5" height="3.2" rx="1.6" fill="hsl(40.0 85.0% 78.0% / 0.312)"/><rect x="805.7" y="718.1" width="91.1" height="3.2" rx="1.6" fill="hsl(40.0 85.0% 78.0% / 0.285)"/><rect x="773.8" y="742.2" width="72.1" height="3.2" rx="1.6" fill="hsl(40.0 85.0% 78.0% / 0.258)"/><rect x="702.2" y="765.1" width="78.1" height="3.2" rx="1.6" fill="hsl(40.0 85.0% 78.0% / 0.232)"/><rect x="780.8" y="787.5" width="23.7" height="3.2" rx="1.6" fill="hsl(40.0 85.0% 78.0% / 0.207)"/><rect x="802.8" y="812.9" width="121.2" height="3.2" rx="1.6" fill="hsl(40.0 85.0% 78.0% / 0.178)"/><rect x="661.0" y="840.0" width="130.5" height="3.2" rx="1.6" fill="hsl(40.0 85.0% 78.0% / 0.148)"/><rect x="763.4" y="866.5" width="89.0" height="3.2" rx="1.6" fill="hsl(40.0 85.0% 78.0% / 0.118)"/></g><rect width="1600" height="900" fill="url(#grag3tc-vig)"/></svg>