<svg xmlns="http://www.w3.org/2000/svg" viewBox="0 0 1600 900" role="img" preserveAspectRatio="xMidYMid slice"><title>song-da-quynh-nhai-cau-pa-uon s2</title><defs><linearGradient id="g1ddphvx-sky" x1="0" y1="0" x2="0" y2="1"><stop offset="0%" stop-color="hsl(248.0 42.0% 22.0%)"/><stop offset="50%" stop-color="hsl(330.0 45.0% 48.0%)"/><stop offset="100%" stop-color="hsl(28.0 85.0% 62.0%)"/></linearGradient><radialGradient id="g1ddphvx-glow"><stop offset="0%" stop-color="hsl(35.0 95.0% 72.0% / 0.850)"/><stop offset="45%" stop-color="hsl(35.0 95.0% 72.0% / 0.250)"/><stop offset="100%" stop-color="hsl(35.0 95.0% 72.0% / 0.000)"/></radialGradient><linearGradient id="g1ddphvx-fog4" x1="0" y1="0" x2="0" y2="1"><stop offset="0%" stop-color="hsl(40 20% 96% / 0)"/><stop offset="55%" stop-color="hsl(40 20% 96% / 0.18)"/><stop offset="100%" stop-color="hsl(40 20% 96% / 0)"/></linearGradient><radialGradient id="g1ddphvx-vig" cx="50%" cy="42%" r="75%"><stop offset="70%" stop-color="hsl(0 0% 0% / 0)"/><stop offset="100%" stop-color="hsl(0 0% 0% / 0.18)"/></radialGradient></defs><rect width="1600" height="584.2" fill="url(#g1ddphvx-sky)"/><rect y="583.2" width="1600" height="316.8" fill="hsl(293.5 40.0% 27.5%)"/><circle cx="624.5" cy="537.4" r="200" fill="url(#g1ddphvx-glow)"/><circle cx="624.5" cy="537.4" r="64" fill="hsl(35.0 95.0% 72.0%)"/><path d="M0 900 L0 440.5 Q0.0 440.5 57.1 422.8 Q114.3 405.1 171.4 395.7 Q228.6 386.2 285.7 407.8 Q342.9 429.3 400.0 410.7 Q457.1 392.1 514.3 390.5 Q571.4 388.9 628.6 419.1 Q685.7 449.3 742.9 512.4 Q800.0 575.5 857.1 569.6 Q914.3 563.7 971.4 521.8 Q1028.6 479.9 1085.7 472.6 Q1142.9 465.3 1200.0 463.9 Q1257.1 462.4 1314.3 449.0 Q1371.4 435.6 1428.6 389.8 Q1485.7 344.0 1542.9 351.1 L1600 358.3 L1600 900 Z" fill="hsl(0.3 71.8% 51.9%)"/><path d="M0 900 L0 378.0 Q0.0 378.0 44.4 345.1 Q88.9 312.2 133.3 328.8 Q177.8 345.4 222.2 372.6 Q266.7 399.7 311.1 435.0 Q355.6 470.3 400.0 515.3 Q444.4 560.3 488.9 578.4 Q533.3 596.5 577.8 578.0 Q622.2 559.5 666.7 532.2 Q711.1 505.0 755.6 485.3 Q800.0 465.6 844.4 419.8 Q888.9 374.0 933.3 379.7 Q977.8 385.4 1022.2 401.5 Q1066.7 417.6 1111.1 415.2 Q1155.6 412.7 1200.0 434.3 Q1244.4 455.9 1288.9 471.2 Q1333.3 486.6 1377.8 473.4 Q1422.2 460.1 1466.7 477.9 Q1511.1 495.6 1555.6 516.1 L1600 536.7 L1600 900 Z" fill="hsl(357.5 70.5% 50.9%)"/><path d="M0 900 L0 481.0 Q0.0 481.0 53.3 460.1 Q106.7 439.2 160.0 468.3 Q213.3 497.4 266.7 460.1 Q320.0 422.8 373.3 449.6 Q426.7 476.5 480.0 495.0 Q533.3 513.5 586.7 563.1 Q640.0 612.8 693.3 624.6 Q746.7 636.4 800.0 583.6 Q853.3 530.8 906.7 498.6 Q960.0 466.4 1013.3 448.3 Q1066.7 430.2 1120.0 461.4 Q1173.3 492.5 1226.7 460.9 Q1280.0 429.4 1333.3 440.3 Q1386.7 451.3 1440.0 489.5 Q1493.3 527.6 1546.7 568.8 L1600 610.1 L1600 900 Z" fill="hsl(349.4 66.6% 47.9%)"/><path d="M0 900 L0 599.9 Q0.0 599.9 42.1 592.9 Q84.2 586.0 126.3 571.6 Q168.4 557.2 210.5 577.1 Q252.6 597.0 294.7 621.1 Q336.8 645.3 378.9 646.7 Q421.1 648.2 463.2 638.4 Q505.3 628.7 547.4 625.5 Q589.5 622.3 631.6 598.7 Q673.7 575.2 715.8 542.4 Q757.9 509.6 800.0 501.2 Q842.1 492.7 884.2 506.7 Q926.3 520.7 968.4 513.9 Q1010.5 507.1 1052.6 516.9 Q1094.7 526.7 1136.8 543.9 Q1178.9 561.2 1221.1 567.7 Q1263.2 574.2 1305.3 551.0 Q1347.4 527.9 1389.5 547.9 Q1431.6 567.9 1473.7 582.6 Q1515.8 597.2 1557.9 598.4 L1600 599.6 L1600 900 Z" fill="hsl(335.7 60.1% 42.9%)"/><path d="M0 900 L0 631.7 Q0.0 631.7 57.1 648.7 Q114.3 665.8 171.4 687.0 Q228.6 708.2 285.7 697.7 Q342.9 687.2 400.0 659.9 Q457.1 632.7 514.3 619.7 Q571.4 606.8 628.6 597.2 Q685.7 587.7 742.9 597.6 Q800.0 607.5 857.1 617.7 Q914.3 627.9 971.4 612.8 Q1028.6 597.8 1085.7 606.6 Q1142.9 615.5 1200.0 614.1 Q1257.1 612.6 1314.3 632.1 Q1371.4 651.5 1428.6 680.7 Q1485.7 710.0 1542.9 692.8 L1600 675.6 L1600 900 Z" fill="hsl(316.6 51.0% 35.9%)"/><rect x="0" y="645.2" width="1600" height="142.1" fill="url(#g1ddphvx-fog4)"/><path d="M0 900 L0 626.2 Q0.0 626.2 57.1 615.0 Q114.3 603.7 171.4 624.4 Q228.6 645.2 285.7 661.0 Q342.9 676.9 400.0 680.1 Q457.1 683.2 514.3 683.4 Q571.4 683.6 628.6 679.7 Q685.7 675.7 742.9 688.2 Q800.0 700.6 857.1 684.6 Q914.3 668.6 971.4 657.5 Q1028.6 646.4 1085.7 624.3 Q1142.9 602.2 1200.0 612.8 Q1257.1 623.4 1314.3 633.5 Q1371.4 643.5 1428.6 672.5 Q1485.7 701.5 1542.9 710.5 L1600 719.5 L1600 900 Z" fill="hsl(292.0 39.3% 27.0%)"/><path d="M0 900 L0 715.5 Q0.0 715.5 50.0 721.4 Q100.0 727.2 150.0 742.1 Q200.0 756.9 250.0 739.9 Q300.0 722.8 350.0 713.3 Q400.0 703.8 450.0 675.6 Q500.0 647.3 550.0 652.8 Q600.0 658.3 650.0 658.3 Q700.0 658.4 750.0 684.5 Q800.0 710.5 850.0 714.4 Q900.0 718.2 950.0 728.3 Q1000.0 738.5 1050.0 728.3 Q1100.0 718.1 1150.0 720.8 Q1200.0 723.5 1250.0 703.4 Q1300.0 683.2 1350.0 694.0 Q1400.0 704.8 1450.0 691.9 Q1500.0 679.0 1550.0 687.9 L1600 696.9 L1600 900 Z" fill="hsl(262.0 25.0% 16.0%)"/><rect width="1600" height="900" fill="url(#g1ddphvx-vig)"/></svg>