<svg xmlns="http://www.w3.org/2000/svg" viewBox="0 0 1600 900" role="img" preserveAspectRatio="xMidYMid slice"><title>hue-a-luoi-duong-ho-chi-minh hero</title><defs><linearGradient id="g1uhfcv-sky" x1="0" y1="0" x2="0" y2="1"><stop offset="0%" stop-color="hsl(210.0 14.0% 74.0%)"/><stop offset="50%" stop-color="hsl(210.0 12.0% 82.0%)"/><stop offset="100%" stop-color="hsl(36.0 18.0% 86.0%)"/></linearGradient><radialGradient id="g1uhfcv-glow"><stop offset="0%" stop-color="hsl(40.0 30.0% 92.0% / 0.850)"/><stop offset="45%" stop-color="hsl(40.0 30.0% 92.0% / 0.250)"/><stop offset="100%" stop-color="hsl(40.0 30.0% 92.0% / 0.000)"/></radialGradient><linearGradient id="g1uhfcv-fog0" x1="0" y1="0" x2="0" y2="1"><stop offset="0%" stop-color="hsl(40 20% 96% / 0)"/><stop offset="55%" stop-color="hsl(40 20% 96% / 0.23)"/><stop offset="100%" stop-color="hsl(40 20% 96% / 0)"/></linearGradient><linearGradient id="g1uhfcv-fog1" x1="0" y1="0" x2="0" y2="1"><stop offset="0%" stop-color="hsl(40 20% 96% / 0)"/><stop offset="55%" stop-color="hsl(40 20% 96% / 0.27)"/><stop offset="100%" stop-color="hsl(40 20% 96% / 0)"/></linearGradient><linearGradient id="g1uhfcv-fog2" x1="0" y1="0" x2="0" y2="1"><stop offset="0%" stop-color="hsl(40 20% 96% / 0)"/><stop offset="55%" stop-color="hsl(40 20% 96% / 0.19)"/><stop offset="100%" stop-color="hsl(40 20% 96% / 0)"/></linearGradient><linearGradient id="g1uhfcv-fog3" x1="0" y1="0" x2="0" y2="1"><stop offset="0%" stop-color="hsl(40 20% 96% / 0)"/><stop offset="55%" stop-color="hsl(40 20% 96% / 0.17)"/><stop offset="100%" stop-color="hsl(40 20% 96% / 0)"/></linearGradient><linearGradient id="g1uhfcv-fog4" x1="0" y1="0" x2="0" y2="1"><stop offset="0%" stop-color="hsl(40 20% 96% / 0)"/><stop offset="55%" stop-color="hsl(40 20% 96% / 0.18)"/><stop offset="100%" stop-color="hsl(40 20% 96% / 0)"/></linearGradient><linearGradient id="g1uhfcv-fog6" x1="0" y1="0" x2="0" y2="1"><stop offset="0%" stop-color="hsl(40 20% 96% / 0)"/><stop offset="55%" stop-color="hsl(40 20% 96% / 0.18)"/><stop offset="100%" stop-color="hsl(40 20% 96% / 0)"/></linearGradient><radialGradient id="g1uhfcv-vig" cx="50%" cy="42%" r="75%"><stop offset="70%" stop-color="hsl(0 0% 0% / 0)"/><stop offset="100%" stop-color="hsl(0 0% 0% / 0.18)"/></radialGradient></defs><rect width="1600" height="595.3" fill="url(#g1uhfcv-sky)"/><rect y="594.3" width="1600" height="305.7" fill="hsl(168.0 16.5% 44.0%)"/><circle cx="423.3" cy="267.9" r="90" fill="url(#g1uhfcv-glow)"/><circle cx="423.3" cy="267.9" r="46" fill="hsl(40.0 30.0% 92.0%)"/><path d="M0 900 L0 434.7 Q0.0 434.7 44.4 378.7 Q88.9 322.7 133.3 341.7 Q177.8 360.6 222.2 362.4 Q266.7 364.3 311.1 412.7 Q355.6 461.0 400.0 500.3 Q444.4 539.6 488.9 522.0 Q533.3 504.4 577.8 493.2 Q622.2 482.1 666.7 499.1 Q711.1 516.1 755.6 507.4 Q800.0 498.8 844.4 500.3 Q888.9 501.8 933.3 476.7 Q977.8 451.6 1022.2 400.6 Q1066.7 349.5 1111.1 336.4 Q1155.6 323.3 1200.0 358.4 Q1244.4 393.5 1288.9 423.9 Q1333.3 454.3 1377.8 483.4 Q1422.2 512.4 1466.7 523.3 Q1511.1 534.1 1555.6 503.9 L1600 473.6 L1600 900 Z" fill="hsl(74.7 17.6% 73.7%)"/><rect x="0" y="487.1" width="1600" height="284.5" fill="url(#g1uhfcv-fog0)"/><path d="M0 900 L0 399.6 Q0.0 399.6 42.1 421.2 Q84.2 442.8 126.3 488.8 Q168.4 534.7 210.5 540.7 Q252.6 546.7 294.7 523.7 Q336.8 500.6 378.9 526.6 Q421.1 552.6 463.2 561.1 Q505.3 569.5 547.4 571.8 Q589.5 574.1 631.6 575.2 Q673.7 576.4 715.8 516.0 Q757.9 455.6 800.0 438.0 Q842.1 420.3 884.2 419.5 Q926.3 418.7 968.4 423.8 Q1010.5 429.0 1052.6 465.7 Q1094.7 502.4 1136.8 511.7 Q1178.9 521.1 1221.1 494.3 Q1263.2 467.5 1305.3 492.9 Q1347.4 518.2 1389.5 536.8 Q1431.6 555.4 1473.7 569.3 Q1515.8 583.2 1557.9 595.9 L1600 608.7 L1600 900 Z" fill="hsl(77.5 17.5% 72.8%)"/><rect x="0" y="526.8" width="1600" height="244.2" fill="url(#g1uhfcv-fog1)"/><path d="M0 900 L0 461.0 Q0.0 461.0 57.1 482.9 Q114.3 504.8 171.4 561.8 Q228.6 618.7 285.7 605.5 Q342.9 592.3 400.0 582.7 Q457.1 573.1 514.3 532.5 Q571.4 491.9 628.6 521.5 Q685.7 551.0 742.9 519.9 Q800.0 488.8 857.1 476.7 Q914.3 464.6 971.4 445.2 Q1028.6 425.9 1085.7 471.3 Q1142.9 516.7 1200.0 558.6 Q1257.1 600.5 1314.3 602.2 Q1371.4 603.9 1428.6 600.7 Q1485.7 597.6 1542.9 561.7 L1600 525.9 L1600 900 Z" fill="hsl(85.9 17.4% 70.1%)"/><rect x="0" y="551.9" width="1600" height="236.7" fill="url(#g1uhfcv-fog2)"/><path d="M0 900 L0 599.6 Q0.0 599.6 44.4 581.4 Q88.9 563.3 133.3 538.8 Q177.8 514.4 222.2 533.5 Q266.7 552.7 311.1 556.4 Q355.6 560.2 400.0 553.2 Q444.4 546.2 488.9 559.7 Q533.3 573.2 577.8 572.8 Q622.2 572.4 666.7 584.1 Q711.1 595.8 755.6 617.8 Q800.0 639.7 844.4 643.9 Q888.9 648.2 933.3 627.6 Q977.8 607.1 1022.2 592.8 Q1066.7 578.5 1111.1 553.0 Q1155.6 527.5 1200.0 505.0 Q1244.4 482.5 1288.9 510.0 Q1333.3 537.6 1377.8 557.7 Q1422.2 577.7 1466.7 593.3 Q1511.1 608.8 1555.6 624.2 L1600 639.6 L1600 900 Z" fill="hsl(99.9 17.3% 65.7%)"/><rect x="0" y="600.7" width="1600" height="175.9" fill="url(#g1uhfcv-fog3)"/><path d="M0 900 L0 641.6 Q0.0 641.6 42.1 638.7 Q84.2 635.8 126.3 639.1 Q168.4 642.3 210.5 647.1 Q252.6 651.8 294.7 625.7 Q336.8 599.6 378.9 565.6 Q421.1 531.5 463.2 529.4 Q505.3 527.4 547.4 535.8 Q589.5 544.1 631.6 569.1 Q673.7 594.0 715.8 612.1 Q757.9 630.2 800.0 648.7 Q842.1 667.1 884.2 652.8 Q926.3 638.6 968.4 628.1 Q1010.5 617.7 1052.6 632.3 Q1094.7 646.9 1136.8 648.7 Q1178.9 650.5 1221.1 618.8 Q1263.2 587.2 1305.3 575.4 Q1347.4 563.6 1389.5 559.1 Q1431.6 554.5 1473.7 541.4 Q1515.8 528.2 1557.9 542.7 L1600 557.2 L1600 900 Z" fill="hsl(119.5 17.1% 59.4%)"/><rect x="0" y="623.5" width="1600" height="173.5" fill="url(#g1uhfcv-fog4)"/><path d="M0 900 L0 666.4 Q0.0 666.4 38.1 662.8 Q76.2 659.2 114.3 650.4 Q152.4 641.7 190.5 663.0 Q228.6 684.2 266.7 695.6 Q304.8 707.0 342.9 694.7 Q381.0 682.4 419.0 678.4 Q457.1 674.5 495.2 652.1 Q533.3 629.8 571.4 608.9 Q609.5 587.9 647.6 585.3 Q685.7 582.7 723.8 594.1 Q761.9 605.5 800.0 610.1 Q838.1 614.6 876.2 610.4 Q914.3 606.3 952.4 606.6 Q990.5 607.0 1028.6 594.8 Q1066.7 582.7 1104.8 585.4 Q1142.9 588.2 1181.0 619.1 Q1219.0 650.1 1257.1 666.4 Q1295.2 682.8 1333.3 686.2 Q1371.4 689.6 1409.5 693.4 Q1447.6 697.1 1485.7 688.0 Q1523.8 678.8 1561.9 662.0 L1600 645.1 L1600 900 Z" fill="hsl(144.8 16.8% 51.4%)"/><path d="M0 900 L0 622.0 Q0.0 622.0 57.1 659.0 Q114.3 696.0 171.4 701.0 Q228.6 706.0 285.7 703.8 Q342.9 701.7 400.0 690.3 Q457.1 678.9 514.3 664.6 Q571.4 650.3 628.6 672.1 Q685.7 693.9 742.9 677.1 Q800.0 660.3 857.1 643.1 Q914.3 626.0 971.4 605.5 Q1028.6 585.0 1085.7 582.5 Q1142.9 579.9 1200.0 613.0 Q1257.1 646.2 1314.3 649.5 Q1371.4 652.9 1428.6 661.4 Q1485.7 669.9 1542.9 673.0 L1600 676.2 L1600 900 Z" fill="hsl(175.6 16.4% 41.6%)"/><rect x="0" y="673.6" width="1600" height="158.8" fill="url(#g1uhfcv-fog6)"/><path d="M0 900 L0 744.0 Q0.0 744.0 47.1 745.2 Q94.1 746.5 141.2 741.2 Q188.2 735.8 235.3 726.3 Q282.4 716.7 329.4 694.9 Q376.5 673.1 423.5 681.9 Q470.6 690.7 517.6 684.2 Q564.7 677.8 611.8 680.5 Q658.8 683.3 705.9 677.2 Q752.9 671.0 800.0 667.2 Q847.1 663.4 894.1 684.7 Q941.2 706.1 988.2 717.0 Q1035.3 727.8 1082.4 743.2 Q1129.4 758.6 1176.5 754.8 Q1223.5 751.1 1270.6 729.6 Q1317.6 708.1 1364.7 701.9 Q1411.8 695.7 1458.8 685.8 Q1505.9 676.0 1552.9 679.0 L1600 682.0 L1600 900 Z" fill="hsl(212.0 16.0% 30.0%)"/><rect width="1600" height="900" fill="url(#g1uhfcv-vig)"/></svg>