<svg xmlns="http://www.w3.org/2000/svg" viewBox="0 0 1600 900" role="img" preserveAspectRatio="xMidYMid slice"><title>hue-a-luoi-duong-ho-chi-minh s1</title><defs><linearGradient id="g1imuexn-sky" x1="0" y1="0" x2="0" y2="1"><stop offset="0%" stop-color="hsl(210.0 14.0% 74.0%)"/><stop offset="50%" stop-color="hsl(210.0 12.0% 82.0%)"/><stop offset="100%" stop-color="hsl(36.0 18.0% 86.0%)"/></linearGradient><radialGradient id="g1imuexn-glow"><stop offset="0%" stop-color="hsl(40.0 30.0% 92.0% / 0.850)"/><stop offset="45%" stop-color="hsl(40.0 30.0% 92.0% / 0.250)"/><stop offset="100%" stop-color="hsl(40.0 30.0% 92.0% / 0.000)"/></radialGradient><linearGradient id="g1imuexn-fog0" x1="0" y1="0" x2="0" y2="1"><stop offset="0%" stop-color="hsl(40 20% 96% / 0)"/><stop offset="55%" stop-color="hsl(40 20% 96% / 0.37)"/><stop offset="100%" stop-color="hsl(40 20% 96% / 0)"/></linearGradient><linearGradient id="g1imuexn-fog1" x1="0" y1="0" x2="0" y2="1"><stop offset="0%" stop-color="hsl(40 20% 96% / 0)"/><stop offset="55%" stop-color="hsl(40 20% 96% / 0.34)"/><stop offset="100%" stop-color="hsl(40 20% 96% / 0)"/></linearGradient><linearGradient id="g1imuexn-fog2" x1="0" y1="0" x2="0" y2="1"><stop offset="0%" stop-color="hsl(40 20% 96% / 0)"/><stop offset="55%" stop-color="hsl(40 20% 96% / 0.25)"/><stop offset="100%" stop-color="hsl(40 20% 96% / 0)"/></linearGradient><linearGradient id="g1imuexn-fog3" x1="0" y1="0" x2="0" y2="1"><stop offset="0%" stop-color="hsl(40 20% 96% / 0)"/><stop offset="55%" stop-color="hsl(40 20% 96% / 0.30)"/><stop offset="100%" stop-color="hsl(40 20% 96% / 0)"/></linearGradient><linearGradient id="g1imuexn-fog5" x1="0" y1="0" x2="0" y2="1"><stop offset="0%" stop-color="hsl(40 20% 96% / 0)"/><stop offset="55%" stop-color="hsl(40 20% 96% / 0.18)"/><stop offset="100%" stop-color="hsl(40 20% 96% / 0)"/></linearGradient><radialGradient id="g1imuexn-vig" cx="50%" cy="42%" r="75%"><stop offset="70%" stop-color="hsl(0 0% 0% / 0)"/><stop offset="100%" stop-color="hsl(0 0% 0% / 0.18)"/></radialGradient></defs><rect width="1600" height="606.8" fill="url(#g1imuexn-sky)"/><rect y="605.8" width="1600" height="294.2" fill="hsl(168.0 16.5% 44.0%)"/><circle cx="706.3" cy="273.1" r="90" fill="url(#g1imuexn-glow)"/><circle cx="706.3" cy="273.1" r="46" fill="hsl(40.0 30.0% 92.0%)"/><path d="M0 900 L0 446.2 Q0.0 446.2 57.1 446.2 Q114.3 446.2 171.4 511.4 Q228.6 576.6 285.7 577.7 Q342.9 578.8 400.0 546.1 Q457.1 513.4 514.3 506.2 Q571.4 499.1 628.6 504.8 Q685.7 510.6 742.9 512.3 Q800.0 513.9 857.1 439.7 Q914.3 365.4 971.4 378.4 Q1028.6 391.3 1085.7 399.9 Q1142.9 408.5 1200.0 425.3 Q1257.1 442.0 1314.3 404.1 Q1371.4 366.2 1428.6 433.2 Q1485.7 500.2 1542.9 523.2 L1600 546.3 L1600 900 Z" fill="hsl(74.7 17.6% 73.7%)"/><rect x="0" y="503.5" width="1600" height="272.1" fill="url(#g1imuexn-fog0)"/><path d="M0 900 L0 588.5 Q0.0 588.5 53.3 541.9 Q106.7 495.3 160.0 484.8 Q213.3 474.2 266.7 430.0 Q320.0 385.8 373.3 412.4 Q426.7 439.0 480.0 472.3 Q533.3 505.6 586.7 538.9 Q640.0 572.2 693.3 608.8 Q746.7 645.4 800.0 603.2 Q853.3 561.1 906.7 558.0 Q960.0 554.8 1013.3 531.5 Q1066.7 508.1 1120.0 491.4 Q1173.3 474.7 1226.7 491.2 Q1280.0 507.8 1333.3 484.5 Q1386.7 461.1 1440.0 466.5 Q1493.3 471.9 1546.7 469.0 L1600 466.1 L1600 900 Z" fill="hsl(78.5 17.5% 72.5%)"/><rect x="0" y="544.2" width="1600" height="235.4" fill="url(#g1imuexn-fog1)"/><path d="M0 900 L0 550.8 Q0.0 550.8 40.0 535.2 Q80.0 519.7 120.0 514.0 Q160.0 508.4 200.0 524.7 Q240.0 541.0 280.0 541.3 Q320.0 541.6 360.0 516.5 Q400.0 491.3 440.0 502.2 Q480.0 513.1 520.0 513.6 Q560.0 514.0 600.0 533.1 Q640.0 552.2 680.0 594.3 Q720.0 636.4 760.0 630.9 Q800.0 625.5 840.0 632.3 Q880.0 639.2 920.0 619.7 Q960.0 600.2 1000.0 584.4 Q1040.0 568.6 1080.0 578.6 Q1120.0 588.6 1160.0 591.6 Q1200.0 594.6 1240.0 583.0 Q1280.0 571.5 1320.0 569.0 Q1360.0 566.4 1400.0 520.9 Q1440.0 475.4 1480.0 470.1 Q1520.0 464.8 1560.0 488.1 L1600 511.3 L1600 900 Z" fill="hsl(90.0 17.4% 68.8%)"/><rect x="0" y="585.6" width="1600" height="197.2" fill="url(#g1imuexn-fog2)"/><path d="M0 900 L0 513.2 Q0.0 513.2 38.1 526.5 Q76.2 539.8 114.3 552.6 Q152.4 565.5 190.5 545.3 Q228.6 525.2 266.7 554.6 Q304.8 583.9 342.9 604.0 Q381.0 624.1 419.0 625.0 Q457.1 625.8 495.2 637.1 Q533.3 648.3 571.4 642.9 Q609.5 637.6 647.6 606.3 Q685.7 575.1 723.8 562.5 Q761.9 549.9 800.0 526.1 Q838.1 502.2 876.2 477.0 Q914.3 451.9 952.4 476.1 Q990.5 500.3 1028.6 517.5 Q1066.7 534.7 1104.8 542.2 Q1142.9 549.6 1181.0 599.8 Q1219.0 650.0 1257.1 670.1 Q1295.2 690.2 1333.3 674.9 Q1371.4 659.6 1409.5 649.0 Q1447.6 638.4 1485.7 613.9 Q1523.8 589.4 1561.9 563.9 L1600 538.5 L1600 900 Z" fill="hsl(109.0 17.2% 62.8%)"/><rect x="0" y="598.2" width="1600" height="224.0" fill="url(#g1imuexn-fog3)"/><path d="M0 900 L0 640.2 Q0.0 640.2 42.1 671.0 Q84.2 701.9 126.3 693.0 Q168.4 684.0 210.5 675.4 Q252.6 666.8 294.7 652.7 Q336.8 638.6 378.9 599.6 Q421.1 560.6 463.2 560.7 Q505.3 560.8 547.4 573.4 Q589.5 585.9 631.6 584.0 Q673.7 582.1 715.8 586.3 Q757.9 590.6 800.0 584.9 Q842.1 579.2 884.2 570.5 Q926.3 561.7 968.4 597.0 Q1010.5 632.3 1052.6 644.9 Q1094.7 657.5 1136.8 676.5 Q1178.9 695.6 1221.1 701.8 Q1263.2 707.9 1305.3 676.7 Q1347.4 645.5 1389.5 634.6 Q1431.6 623.7 1473.7 604.6 Q1515.8 585.4 1557.9 575.1 L1600 564.9 L1600 900 Z" fill="hsl(135.7 16.9% 54.3%)"/><path d="M0 900 L0 636.0 Q0.0 636.0 53.3 628.3 Q106.7 620.6 160.0 620.0 Q213.3 619.3 266.7 643.2 Q320.0 667.1 373.3 678.7 Q426.7 690.3 480.0 698.4 Q533.3 706.4 586.7 703.0 Q640.0 699.5 693.3 691.7 Q746.7 683.8 800.0 697.8 Q853.3 711.8 906.7 709.8 Q960.0 707.8 1013.3 703.7 Q1066.7 699.5 1120.0 673.7 Q1173.3 648.0 1226.7 630.6 Q1280.0 613.1 1333.3 625.2 Q1386.7 637.4 1440.0 637.3 Q1493.3 637.2 1546.7 649.8 L1600 662.3 L1600 900 Z" fill="hsl(170.1 16.5% 43.3%)"/><rect x="0" y="685.9" width="1600" height="136.6" fill="url(#g1imuexn-fog5)"/><path d="M0 900 L0 649.2 Q0.0 649.2 50.0 642.9 Q100.0 636.6 150.0 646.1 Q200.0 655.6 250.0 680.5 Q300.0 705.5 350.0 713.2 Q400.0 720.9 450.0 732.7 Q500.0 744.5 550.0 732.6 Q600.0 720.7 650.0 712.9 Q700.0 705.2 750.0 713.8 Q800.0 722.4 850.0 709.2 Q900.0 696.0 950.0 689.6 Q1000.0 683.1 1050.0 660.4 Q1100.0 637.7 1150.0 633.7 Q1200.0 629.8 1250.0 647.0 Q1300.0 664.2 1350.0 680.6 Q1400.0 697.0 1450.0 727.2 Q1500.0 757.3 1550.0 749.2 L1600 741.1 L1600 900 Z" fill="hsl(212.0 16.0% 30.0%)"/><rect width="1600" height="900" fill="url(#g1imuexn-vig)"/></svg>