<svg xmlns="http://www.w3.org/2000/svg" viewBox="0 0 1600 900" role="img" preserveAspectRatio="xMidYMid slice"><title>hue-a-luoi-duong-ho-chi-minh s2</title><defs><linearGradient id="g7z2x8q-sky" x1="0" y1="0" x2="0" y2="1"><stop offset="0%" stop-color="hsl(170.0 30.0% 52.0%)"/><stop offset="50%" stop-color="hsl(150.0 25.0% 68.0%)"/><stop offset="100%" stop-color="hsl(60.0 35.0% 78.0%)"/></linearGradient><radialGradient id="g7z2x8q-glow"><stop offset="0%" stop-color="hsl(52.0 70.0% 84.0% / 0.850)"/><stop offset="45%" stop-color="hsl(52.0 70.0% 84.0% / 0.250)"/><stop offset="100%" stop-color="hsl(52.0 70.0% 84.0% / 0.000)"/></radialGradient><linearGradient id="g7z2x8q-fog0" x1="0" y1="0" x2="0" y2="1"><stop offset="0%" stop-color="hsl(40 20% 96% / 0)"/><stop offset="55%" stop-color="hsl(40 20% 96% / 0.25)"/><stop offset="100%" stop-color="hsl(40 20% 96% / 0)"/></linearGradient><linearGradient id="g7z2x8q-fog3" x1="0" y1="0" x2="0" y2="1"><stop offset="0%" stop-color="hsl(40 20% 96% / 0)"/><stop offset="55%" stop-color="hsl(40 20% 96% / 0.20)"/><stop offset="100%" stop-color="hsl(40 20% 96% / 0)"/></linearGradient><linearGradient id="g7z2x8q-fog4" x1="0" y1="0" x2="0" y2="1"><stop offset="0%" stop-color="hsl(40 20% 96% / 0)"/><stop offset="55%" stop-color="hsl(40 20% 96% / 0.28)"/><stop offset="100%" stop-color="hsl(40 20% 96% / 0)"/></linearGradient><radialGradient id="g7z2x8q-vig" cx="50%" cy="42%" r="75%"><stop offset="70%" stop-color="hsl(0 0% 0% / 0)"/><stop offset="100%" stop-color="hsl(0 0% 0% / 0.18)"/></radialGradient></defs><rect width="1600" height="587.5" fill="url(#g7z2x8q-sky)"/><rect y="586.5" width="1600" height="313.5" fill="hsl(133.5 35.0% 28.5%)"/><circle cx="1090.2" cy="323.1" r="100" fill="url(#g7z2x8q-glow)"/><circle cx="1090.2" cy="323.1" r="42" fill="hsl(52.0 70.0% 84.0%)"/><path d="M0 900 L0 397.1 L0.0 397.1 L76.2 339.7 L152.4 333.7 L228.6 304.7 L304.8 350.7 L381.0 375.6 L457.1 501.0 L533.3 516.0 L609.5 533.9 L685.7 599.0 L761.9 527.5 L838.1 453.6 L914.3 481.4 L990.5 481.2 L1066.7 438.8 L1142.9 472.4 L1219.0 422.7 L1295.2 313.6 L1371.4 338.1 L1447.6 346.9 L1523.8 367.9 L1600.0 440.4 L1600 900 Z" fill="hsl(81.6 35.0% 63.5%)"/><rect x="0" y="482.2" width="1600" height="279.1" fill="url(#g7z2x8q-fog0)"/><path d="M0 900 L0 475.7 L0.0 475.7 L88.9 470.8 L177.8 445.6 L266.7 467.0 L355.6 437.1 L444.4 478.1 L533.3 539.6 L622.2 587.6 L711.1 650.3 L800.0 593.5 L888.9 533.6 L977.8 395.1 L1066.7 424.8 L1155.6 449.6 L1244.4 480.0 L1333.3 579.4 L1422.2 540.5 L1511.1 562.0 L1600.0 540.2 L1600 900 Z" fill="hsl(84.6 35.0% 61.4%)"/><path d="M0 900 L0 595.8 L0.0 595.8 L114.3 660.8 L228.6 626.5 L342.9 571.8 L457.1 491.4 L571.4 517.1 L685.7 510.5 L800.0 393.1 L914.3 492.3 L1028.6 466.1 L1142.9 552.9 L1257.1 495.3 L1371.4 581.5 L1485.7 676.1 L1600.0 587.3 L1600 900 Z" fill="hsl(93.8 35.0% 55.2%)"/><path d="M0 900 L0 572.7 L0.0 572.7 L84.2 621.4 L168.4 625.5 L252.6 666.0 L336.8 643.6 L421.1 668.1 L505.3 627.3 L589.5 515.4 L673.7 525.6 L757.9 526.7 L842.1 570.8 L926.3 605.6 L1010.5 618.2 L1094.7 628.1 L1178.9 668.5 L1263.2 670.4 L1347.4 654.6 L1431.6 610.8 L1515.8 505.0 L1600.0 485.8 L1600 900 Z" fill="hsl(109.1 35.0% 44.9%)"/><rect x="0" y="619.8" width="1600" height="180.5" fill="url(#g7z2x8q-fog3)"/><path d="M0 900 L0 603.3 L0.0 603.3 L94.1 556.8 L188.2 531.3 L282.4 573.8 L376.5 651.8 L470.6 655.5 L564.7 651.9 L658.8 654.7 L752.9 683.3 L847.1 690.5 L941.2 673.8 L1035.3 607.0 L1129.4 577.4 L1223.5 563.4 L1317.6 609.7 L1411.8 671.7 L1505.9 664.9 L1600.0 705.8 L1600 900 Z" fill="hsl(130.5 35.0% 30.5%)"/><rect x="0" y="652.6" width="1600" height="177.0" fill="url(#g7z2x8q-fog4)"/><path d="M0 900 L0 760.9 L0.0 760.9 L114.3 736.7 L228.6 714.1 L342.9 674.6 L457.1 698.0 L571.4 674.6 L685.7 700.1 L800.0 671.5 L914.3 736.7 L1028.6 731.8 L1142.9 747.0 L1257.1 718.3 L1371.4 693.5 L1485.7 644.6 L1600.0 671.8 L1600 900 Z" fill="hsl(158.0 35.0% 12.0%)"/><rect width="1600" height="900" fill="url(#g7z2x8q-vig)"/></svg>