<svg xmlns="http://www.w3.org/2000/svg" viewBox="0 0 1600 900" role="img" preserveAspectRatio="xMidYMid slice"><title>ta-xua-san-may-cuoi-thu hero</title><defs><linearGradient id="g1rapvs3-sky" x1="0" y1="0" x2="0" y2="1"><stop offset="0%" stop-color="hsl(210.0 14.0% 74.0%)"/><stop offset="50%" stop-color="hsl(210.0 12.0% 82.0%)"/><stop offset="100%" stop-color="hsl(36.0 18.0% 86.0%)"/></linearGradient><radialGradient id="g1rapvs3-glow"><stop offset="0%" stop-color="hsl(40.0 30.0% 92.0% / 0.850)"/><stop offset="45%" stop-color="hsl(40.0 30.0% 92.0% / 0.250)"/><stop offset="100%" stop-color="hsl(40.0 30.0% 92.0% / 0.000)"/></radialGradient><linearGradient id="g1rapvs3-fog1" x1="0" y1="0" x2="0" y2="1"><stop offset="0%" stop-color="hsl(40 20% 96% / 0)"/><stop offset="55%" stop-color="hsl(40 20% 96% / 0.17)"/><stop offset="100%" stop-color="hsl(40 20% 96% / 0)"/></linearGradient><linearGradient id="g1rapvs3-fog3" x1="0" y1="0" x2="0" y2="1"><stop offset="0%" stop-color="hsl(40 20% 96% / 0)"/><stop offset="55%" stop-color="hsl(40 20% 96% / 0.24)"/><stop offset="100%" stop-color="hsl(40 20% 96% / 0)"/></linearGradient><linearGradient id="g1rapvs3-fog4" x1="0" y1="0" x2="0" y2="1"><stop offset="0%" stop-color="hsl(40 20% 96% / 0)"/><stop offset="55%" stop-color="hsl(40 20% 96% / 0.28)"/><stop offset="100%" stop-color="hsl(40 20% 96% / 0)"/></linearGradient><radialGradient id="g1rapvs3-vig" cx="50%" cy="42%" r="75%"><stop offset="70%" stop-color="hsl(0 0% 0% / 0)"/><stop offset="100%" stop-color="hsl(0 0% 0% / 0.18)"/></radialGradient></defs><rect width="1600" height="564.8" fill="url(#g1rapvs3-sky)"/><rect y="563.8" width="1600" height="336.2" fill="hsl(168.0 16.5% 44.0%)"/><circle cx="1075.0" cy="254.2" r="90" fill="url(#g1rapvs3-glow)"/><circle cx="1075.0" cy="254.2" r="46" fill="hsl(40.0 30.0% 92.0%)"/><path d="M0 900 L0 345.4 Q0.0 345.4 47.1 357.9 Q94.1 370.5 141.2 354.2 Q188.2 337.9 235.3 378.1 Q282.4 418.2 329.4 418.0 Q376.5 417.8 423.5 427.4 Q470.6 437.0 517.6 433.8 Q564.7 430.6 611.8 438.8 Q658.8 446.9 705.9 495.5 Q752.9 544.2 800.0 556.7 Q847.1 569.3 894.1 556.4 Q941.2 543.5 988.2 511.0 Q1035.3 478.4 1082.4 434.5 Q1129.4 390.6 1176.5 380.0 Q1223.5 369.4 1270.6 373.5 Q1317.6 377.5 1364.7 391.0 Q1411.8 404.5 1458.8 413.6 Q1505.9 422.7 1552.9 389.9 L1600 357.1 L1600 900 Z" fill="hsl(74.7 17.6% 73.7%)"/><path d="M0 900 L0 532.7 Q0.0 532.7 53.3 513.1 Q106.7 493.4 160.0 508.2 Q213.3 523.0 266.7 485.0 Q320.0 446.9 373.3 462.0 Q426.7 477.2 480.0 447.0 Q533.3 416.7 586.7 392.0 Q640.0 367.2 693.3 408.1 Q746.7 449.0 800.0 452.4 Q853.3 455.7 906.7 514.2 Q960.0 572.7 1013.3 574.5 Q1066.7 576.4 1120.0 549.7 Q1173.3 523.1 1226.7 519.6 Q1280.0 516.1 1333.3 481.2 Q1386.7 446.4 1440.0 456.9 Q1493.3 467.4 1546.7 474.9 L1600 482.3 L1600 900 Z" fill="hsl(78.5 17.5% 72.5%)"/><rect x="0" y="510.5" width="1600" height="230.4" fill="url(#g1rapvs3-fog1)"/><path d="M0 900 L0 465.3 Q0.0 465.3 38.1 438.3 Q76.2 411.4 114.3 412.4 Q152.4 413.4 190.5 413.3 Q228.6 413.2 266.7 440.9 Q304.8 468.6 342.9 510.1 Q381.0 551.5 419.0 576.6 Q457.1 601.6 495.2 602.0 Q533.3 602.3 571.4 593.7 Q609.5 585.2 647.6 550.6 Q685.7 516.0 723.8 473.9 Q761.9 431.8 800.0 424.9 Q838.1 417.9 876.2 408.2 Q914.3 398.4 952.4 407.3 Q990.5 416.3 1028.6 440.8 Q1066.7 465.3 1104.8 512.0 Q1142.9 558.7 1181.0 562.4 Q1219.0 566.2 1257.1 546.1 Q1295.2 526.1 1333.3 545.0 Q1371.4 563.9 1409.5 543.2 Q1447.6 522.4 1485.7 508.4 Q1523.8 494.4 1561.9 508.5 L1600 522.7 L1600 900 Z" fill="hsl(90.0 17.4% 68.8%)"/><path d="M0 900 L0 579.0 Q0.0 579.0 38.1 591.7 Q76.2 604.5 114.3 597.6 Q152.4 590.7 190.5 567.3 Q228.6 543.8 266.7 530.0 Q304.8 516.2 342.9 508.0 Q381.0 499.9 419.0 492.3 Q457.1 484.8 495.2 518.5 Q533.3 552.3 571.4 574.4 Q609.5 596.6 647.6 587.3 Q685.7 578.0 723.8 581.6 Q761.9 585.2 800.0 583.6 Q838.1 582.0 876.2 590.1 Q914.3 598.1 952.4 611.0 Q990.5 624.0 1028.6 642.2 Q1066.7 660.5 1104.8 646.7 Q1142.9 633.0 1181.0 605.0 Q1219.0 576.9 1257.1 565.8 Q1295.2 554.6 1333.3 545.7 Q1371.4 536.8 1409.5 535.4 Q1447.6 534.0 1485.7 549.2 Q1523.8 564.4 1561.9 559.5 L1600 554.5 L1600 900 Z" fill="hsl(109.0 17.2% 62.8%)"/><rect x="0" y="592.6" width="1600" height="171.2" fill="url(#g1rapvs3-fog3)"/><path d="M0 900 L0 620.9 Q0.0 620.9 44.4 620.4 Q88.9 619.8 133.3 635.2 Q177.8 650.6 222.2 650.2 Q266.7 649.9 311.1 640.3 Q355.6 630.8 400.0 635.2 Q444.4 639.7 488.9 598.8 Q533.3 557.8 577.8 536.9 Q622.2 516.1 666.7 535.0 Q711.1 553.9 755.6 556.5 Q800.0 559.0 844.4 552.6 Q888.9 546.2 933.3 547.4 Q977.8 548.6 1022.2 556.6 Q1066.7 564.6 1111.1 564.4 Q1155.6 564.2 1200.0 595.6 Q1244.4 626.9 1288.9 659.0 Q1333.3 691.1 1377.8 667.0 Q1422.2 642.8 1466.7 637.7 Q1511.1 632.6 1555.6 633.7 L1600 634.8 L1600 900 Z" fill="hsl(135.7 16.9% 54.3%)"/><rect x="0" y="617.4" width="1600" height="178.4" fill="url(#g1rapvs3-fog4)"/><path d="M0 900 L0 655.2 Q0.0 655.2 42.1 666.7 Q84.2 678.2 126.3 659.5 Q168.4 640.8 210.5 631.2 Q252.6 621.7 294.7 606.8 Q336.8 591.9 378.9 577.3 Q421.1 562.7 463.2 576.8 Q505.3 591.0 547.4 607.5 Q589.5 623.9 631.6 652.5 Q673.7 681.0 715.8 701.6 Q757.9 722.2 800.0 693.7 Q842.1 665.2 884.2 660.0 Q926.3 654.9 968.4 643.2 Q1010.5 631.6 1052.6 625.8 Q1094.7 620.0 1136.8 615.4 Q1178.9 610.7 1221.1 620.0 Q1263.2 629.3 1305.3 604.1 Q1347.4 579.0 1389.5 588.2 Q1431.6 597.3 1473.7 600.6 Q1515.8 603.9 1557.9 629.7 L1600 655.5 L1600 900 Z" fill="hsl(170.1 16.5% 43.3%)"/><path d="M0 900 L0 703.9 Q0.0 703.9 57.1 697.1 Q114.3 690.4 171.4 700.0 Q228.6 709.6 285.7 729.0 Q342.9 748.3 400.0 733.3 Q457.1 718.2 514.3 703.9 Q571.4 689.6 628.6 680.5 Q685.7 671.3 742.9 683.3 Q800.0 695.2 857.1 670.2 Q914.3 645.2 971.4 642.6 Q1028.6 640.0 1085.7 651.2 Q1142.9 662.4 1200.0 681.6 Q1257.1 700.8 1314.3 690.6 Q1371.4 680.5 1428.6 686.8 Q1485.7 693.1 1542.9 711.3 L1600 729.4 L1600 900 Z" fill="hsl(212.0 16.0% 30.0%)"/><rect width="1600" height="900" fill="url(#g1rapvs3-vig)"/></svg>