<svg xmlns="http://www.w3.org/2000/svg" viewBox="0 0 1600 900" role="img" preserveAspectRatio="xMidYMid slice"><title>ta-xua-san-may-cuoi-thu s1</title><defs><linearGradient id="glsu6sf-sky" x1="0" y1="0" x2="0" y2="1"><stop offset="0%" stop-color="hsl(210.0 14.0% 74.0%)"/><stop offset="50%" stop-color="hsl(210.0 12.0% 82.0%)"/><stop offset="100%" stop-color="hsl(36.0 18.0% 86.0%)"/></linearGradient><radialGradient id="glsu6sf-glow"><stop offset="0%" stop-color="hsl(40.0 30.0% 92.0% / 0.850)"/><stop offset="45%" stop-color="hsl(40.0 30.0% 92.0% / 0.250)"/><stop offset="100%" stop-color="hsl(40.0 30.0% 92.0% / 0.000)"/></radialGradient><linearGradient id="glsu6sf-fog3" x1="0" y1="0" x2="0" y2="1"><stop offset="0%" stop-color="hsl(40 20% 96% / 0)"/><stop offset="55%" stop-color="hsl(40 20% 96% / 0.37)"/><stop offset="100%" stop-color="hsl(40 20% 96% / 0)"/></linearGradient><linearGradient id="glsu6sf-fog4" x1="0" y1="0" x2="0" y2="1"><stop offset="0%" stop-color="hsl(40 20% 96% / 0)"/><stop offset="55%" stop-color="hsl(40 20% 96% / 0.23)"/><stop offset="100%" stop-color="hsl(40 20% 96% / 0)"/></linearGradient><linearGradient id="glsu6sf-fog5" x1="0" y1="0" x2="0" y2="1"><stop offset="0%" stop-color="hsl(40 20% 96% / 0)"/><stop offset="55%" stop-color="hsl(40 20% 96% / 0.20)"/><stop offset="100%" stop-color="hsl(40 20% 96% / 0)"/></linearGradient><linearGradient id="glsu6sf-fog6" x1="0" y1="0" x2="0" y2="1"><stop offset="0%" stop-color="hsl(40 20% 96% / 0)"/><stop offset="55%" stop-color="hsl(40 20% 96% / 0.20)"/><stop offset="100%" stop-color="hsl(40 20% 96% / 0)"/></linearGradient><radialGradient id="glsu6sf-vig" cx="50%" cy="42%" r="75%"><stop offset="70%" stop-color="hsl(0 0% 0% / 0)"/><stop offset="100%" stop-color="hsl(0 0% 0% / 0.18)"/></radialGradient></defs><rect width="1600" height="622.4" fill="url(#glsu6sf-sky)"/><rect y="621.4" width="1600" height="278.6" fill="hsl(168.0 16.5% 44.0%)"/><circle cx="502.7" cy="280.1" r="90" fill="url(#glsu6sf-glow)"/><circle cx="502.7" cy="280.1" r="46" fill="hsl(40.0 30.0% 92.0%)"/><path d="M0 900 L0 425.7 Q0.0 425.7 47.1 415.9 Q94.1 406.1 141.2 396.9 Q188.2 387.6 235.3 412.1 Q282.4 436.7 329.4 424.6 Q376.5 412.5 423.5 432.1 Q470.6 451.7 517.6 486.9 Q564.7 522.1 611.8 532.7 Q658.8 543.2 705.9 565.7 Q752.9 588.3 800.0 567.6 Q847.1 546.9 894.1 499.2 Q941.2 451.6 988.2 422.1 Q1035.3 392.5 1082.4 339.1 Q1129.4 285.7 1176.5 330.4 Q1223.5 375.1 1270.6 412.9 Q1317.6 450.7 1364.7 501.2 Q1411.8 551.6 1458.8 583.8 Q1505.9 616.0 1552.9 578.8 L1600 541.6 L1600 900 Z" fill="hsl(74.7 17.6% 73.7%)"/><path d="M0 900 L0 530.2 Q0.0 530.2 42.1 500.4 Q84.2 470.6 126.3 455.3 Q168.4 440.0 210.5 436.7 Q252.6 433.4 294.7 429.1 Q336.8 424.9 378.9 456.0 Q421.1 487.1 463.2 509.0 Q505.3 530.9 547.4 534.8 Q589.5 538.6 631.6 542.4 Q673.7 546.1 715.8 556.8 Q757.9 567.5 800.0 565.1 Q842.1 562.7 884.2 552.8 Q926.3 543.0 968.4 571.8 Q1010.5 600.6 1052.6 608.9 Q1094.7 617.2 1136.8 601.3 Q1178.9 585.5 1221.1 570.4 Q1263.2 555.4 1305.3 546.4 Q1347.4 537.4 1389.5 497.6 Q1431.6 457.9 1473.7 430.0 Q1515.8 402.2 1557.9 414.0 L1600 425.9 L1600 900 Z" fill="hsl(77.5 17.5% 72.8%)"/><path d="M0 900 L0 516.8 Q0.0 516.8 50.0 504.6 Q100.0 492.3 150.0 439.1 Q200.0 386.0 250.0 399.0 Q300.0 411.9 350.0 430.8 Q400.0 449.6 450.0 481.5 Q500.0 513.4 550.0 554.0 Q600.0 594.6 650.0 582.0 Q700.0 569.5 750.0 578.9 Q800.0 588.3 850.0 556.9 Q900.0 525.4 950.0 550.2 Q1000.0 574.9 1050.0 557.4 Q1100.0 539.9 1150.0 537.7 Q1200.0 535.5 1250.0 519.9 Q1300.0 504.2 1350.0 466.4 Q1400.0 428.7 1450.0 430.8 Q1500.0 432.9 1550.0 421.5 L1600 410.1 L1600 900 Z" fill="hsl(85.9 17.4% 70.1%)"/><path d="M0 900 L0 445.5 Q0.0 445.5 44.4 454.5 Q88.9 463.4 133.3 476.8 Q177.8 490.2 222.2 555.2 Q266.7 620.1 311.1 624.6 Q355.6 629.1 400.0 626.4 Q444.4 623.7 488.9 615.7 Q533.3 607.6 577.8 577.6 Q622.2 547.5 666.7 541.4 Q711.1 535.2 755.6 543.2 Q800.0 551.2 844.4 530.0 Q888.9 508.9 933.3 498.7 Q977.8 488.4 1022.2 484.0 Q1066.7 479.6 1111.1 475.5 Q1155.6 471.4 1200.0 507.7 Q1244.4 543.9 1288.9 584.8 Q1333.3 625.7 1377.8 634.6 Q1422.2 643.6 1466.7 657.1 Q1511.1 670.6 1555.6 636.0 L1600 601.3 L1600 900 Z" fill="hsl(99.9 17.3% 65.7%)"/><rect x="0" y="581.0" width="1600" height="264.6" fill="url(#glsu6sf-fog3)"/><path d="M0 900 L0 573.9 Q0.0 573.9 57.1 612.9 Q114.3 651.8 171.4 646.9 Q228.6 641.9 285.7 633.1 Q342.9 624.2 400.0 654.0 Q457.1 683.8 514.3 690.1 Q571.4 696.3 628.6 679.5 Q685.7 662.6 742.9 640.1 Q800.0 617.6 857.1 607.6 Q914.3 597.7 971.4 607.6 Q1028.6 617.5 1085.7 605.4 Q1142.9 593.2 1200.0 564.0 Q1257.1 534.9 1314.3 557.4 Q1371.4 579.9 1428.6 604.7 Q1485.7 629.5 1542.9 628.9 L1600 628.4 L1600 900 Z" fill="hsl(119.5 17.1% 59.4%)"/><rect x="0" y="641.8" width="1600" height="172.2" fill="url(#glsu6sf-fog4)"/><path d="M0 900 L0 642.6 Q0.0 642.6 57.1 646.2 Q114.3 649.7 171.4 663.3 Q228.6 676.9 285.7 668.1 Q342.9 659.2 400.0 685.0 Q457.1 710.8 514.3 711.0 Q571.4 711.1 628.6 709.7 Q685.7 708.3 742.9 658.8 Q800.0 609.2 857.1 612.8 Q914.3 616.3 971.4 604.4 Q1028.6 592.4 1085.7 613.1 Q1142.9 633.8 1200.0 629.8 Q1257.1 625.9 1314.3 625.1 Q1371.4 624.4 1428.6 633.6 Q1485.7 642.8 1542.9 676.4 L1600 710.0 L1600 900 Z" fill="hsl(144.8 16.8% 51.4%)"/><rect x="0" y="669.3" width="1600" height="155.1" fill="url(#glsu6sf-fog5)"/><path d="M0 900 L0 710.2 Q0.0 710.2 38.1 727.5 Q76.2 744.8 114.3 723.4 Q152.4 701.9 190.5 678.1 Q228.6 654.3 266.7 640.7 Q304.8 627.1 342.9 623.5 Q381.0 619.9 419.0 611.4 Q457.1 602.8 495.2 607.6 Q533.3 612.4 571.4 623.4 Q609.5 634.5 647.6 648.1 Q685.7 661.6 723.8 654.3 Q761.9 647.1 800.0 644.2 Q838.1 641.3 876.2 635.9 Q914.3 630.5 952.4 660.3 Q990.5 690.1 1028.6 703.4 Q1066.7 716.6 1104.8 725.1 Q1142.9 733.5 1181.0 731.3 Q1219.0 729.0 1257.1 723.5 Q1295.2 718.0 1333.3 699.1 Q1371.4 680.2 1409.5 657.4 Q1447.6 634.7 1485.7 628.1 Q1523.8 621.5 1561.9 625.1 L1600 628.7 L1600 900 Z" fill="hsl(175.6 16.4% 41.6%)"/><rect x="0" y="681.4" width="1600" height="172.4" fill="url(#glsu6sf-fog6)"/><path d="M0 900 L0 715.8 Q0.0 715.8 44.4 712.8 Q88.9 709.7 133.3 712.3 Q177.8 714.9 222.2 715.0 Q266.7 715.2 311.1 741.0 Q355.6 766.8 400.0 764.4 Q444.4 762.0 488.9 764.3 Q533.3 766.5 577.8 750.8 Q622.2 735.0 666.7 718.0 Q711.1 701.1 755.6 696.6 Q800.0 692.1 844.4 688.6 Q888.9 685.0 933.3 699.0 Q977.8 713.0 1022.2 709.0 Q1066.7 705.0 1111.1 708.2 Q1155.6 711.5 1200.0 706.9 Q1244.4 702.3 1288.9 708.2 Q1333.3 714.2 1377.8 733.1 Q1422.2 752.0 1466.7 759.0 Q1511.1 765.9 1555.6 770.1 L1600 774.4 L1600 900 Z" fill="hsl(212.0 16.0% 30.0%)"/><rect width="1600" height="900" fill="url(#glsu6sf-vig)"/></svg>