<svg xmlns="http://www.w3.org/2000/svg" viewBox="0 0 1600 900" role="img" preserveAspectRatio="xMidYMid slice"><title>ta-xua-san-may-cuoi-thu s2</title><defs><linearGradient id="g1987emm-sky" x1="0" y1="0" x2="0" y2="1"><stop offset="0%" stop-color="hsl(170.0 30.0% 52.0%)"/><stop offset="50%" stop-color="hsl(150.0 25.0% 68.0%)"/><stop offset="100%" stop-color="hsl(60.0 35.0% 78.0%)"/></linearGradient><radialGradient id="g1987emm-glow"><stop offset="0%" stop-color="hsl(52.0 70.0% 84.0% / 0.850)"/><stop offset="45%" stop-color="hsl(52.0 70.0% 84.0% / 0.250)"/><stop offset="100%" stop-color="hsl(52.0 70.0% 84.0% / 0.000)"/></radialGradient><linearGradient id="g1987emm-fog0" x1="0" y1="0" x2="0" y2="1"><stop offset="0%" stop-color="hsl(40 20% 96% / 0)"/><stop offset="55%" stop-color="hsl(40 20% 96% / 0.24)"/><stop offset="100%" stop-color="hsl(40 20% 96% / 0)"/></linearGradient><linearGradient id="g1987emm-fog2" x1="0" y1="0" x2="0" y2="1"><stop offset="0%" stop-color="hsl(40 20% 96% / 0)"/><stop offset="55%" stop-color="hsl(40 20% 96% / 0.22)"/><stop offset="100%" stop-color="hsl(40 20% 96% / 0)"/></linearGradient><linearGradient id="g1987emm-fog4" x1="0" y1="0" x2="0" y2="1"><stop offset="0%" stop-color="hsl(40 20% 96% / 0)"/><stop offset="55%" stop-color="hsl(40 20% 96% / 0.23)"/><stop offset="100%" stop-color="hsl(40 20% 96% / 0)"/></linearGradient><radialGradient id="g1987emm-vig" cx="50%" cy="42%" r="75%"><stop offset="70%" stop-color="hsl(0 0% 0% / 0)"/><stop offset="100%" stop-color="hsl(0 0% 0% / 0.18)"/></radialGradient></defs><rect width="1600" height="598.2" fill="url(#g1987emm-sky)"/><rect y="597.2" width="1600" height="302.8" fill="hsl(133.5 35.0% 28.5%)"/><circle cx="698.8" cy="329.0" r="100" fill="url(#g1987emm-glow)"/><circle cx="698.8" cy="329.0" r="42" fill="hsl(52.0 70.0% 84.0%)"/><path d="M0 900 L0 350.8 L0.0 350.8 L114.3 279.4 L228.6 375.1 L342.9 553.8 L457.1 611.6 L571.4 463.9 L685.7 359.1 L800.0 354.1 L914.3 413.4 L1028.6 353.0 L1142.9 424.8 L1257.1 504.0 L1371.4 561.7 L1485.7 478.4 L1600.0 341.0 L1600 900 Z" fill="hsl(81.6 35.0% 63.5%)"/><rect x="0" y="477.5" width="1600" height="312.2" fill="url(#g1987emm-fog0)"/><path d="M0 900 L0 449.0 L0.0 449.0 L100.0 501.8 L200.0 429.5 L300.0 407.1 L400.0 376.6 L500.0 445.9 L600.0 579.5 L700.0 553.9 L800.0 535.4 L900.0 543.5 L1000.0 594.3 L1100.0 599.5 L1200.0 575.1 L1300.0 381.7 L1400.0 404.7 L1500.0 455.1 L1600.0 405.9 L1600 900 Z" fill="hsl(83.7 35.0% 62.1%)"/><path d="M0 900 L0 598.8 L0.0 598.8 L76.2 633.7 L152.4 576.6 L228.6 583.4 L304.8 466.6 L381.0 478.9 L457.1 516.6 L533.3 460.4 L609.5 520.4 L685.7 473.6 L761.9 476.5 L838.1 542.3 L914.3 587.3 L990.5 622.5 L1066.7 643.1 L1142.9 594.7 L1219.0 581.5 L1295.2 587.4 L1371.4 531.6 L1447.6 581.6 L1523.8 518.1 L1600.0 450.4 L1600 900 Z" fill="hsl(90.1 35.0% 57.8%)"/><rect x="0" y="571.1" width="1600" height="214.8" fill="url(#g1987emm-fog2)"/><path d="M0 900 L0 626.8 L0.0 626.8 L84.2 621.2 L168.4 615.8 L252.6 599.2 L336.8 638.4 L421.1 549.4 L505.3 495.1 L589.5 531.2 L673.7 524.2 L757.9 607.7 L842.1 579.7 L926.3 557.6 L1010.5 589.8 L1094.7 600.2 L1178.9 653.2 L1263.2 678.8 L1347.4 636.2 L1431.6 612.1 L1515.8 601.1 L1600.0 636.8 L1600 900 Z" fill="hsl(100.7 35.0% 50.6%)"/><path d="M0 900 L0 592.5 L0.0 592.5 L106.7 655.4 L213.3 680.8 L320.0 681.4 L426.7 650.6 L533.3 579.2 L640.0 521.0 L746.7 580.3 L853.3 597.2 L960.0 711.8 L1066.7 682.0 L1173.3 689.0 L1280.0 604.9 L1386.7 565.7 L1493.3 561.7 L1600.0 592.1 L1600 900 Z" fill="hsl(115.5 35.0% 40.6%)"/><rect x="0" y="644.2" width="1600" height="163.6" fill="url(#g1987emm-fog4)"/><path d="M0 900 L0 640.1 L0.0 640.1 L94.1 634.9 L188.2 619.6 L282.4 639.1 L376.5 682.8 L470.6 650.6 L564.7 651.7 L658.8 704.0 L752.9 727.1 L847.1 717.6 L941.2 734.6 L1035.3 698.7 L1129.4 649.0 L1223.5 712.1 L1317.6 670.2 L1411.8 610.9 L1505.9 604.5 L1600.0 623.3 L1600 900 Z" fill="hsl(134.6 35.0% 27.7%)"/><path d="M0 900 L0 742.8 L0.0 742.8 L94.1 718.7 L188.2 744.7 L282.4 722.0 L376.5 685.6 L470.6 679.4 L564.7 673.1 L658.8 698.4 L752.9 718.9 L847.1 732.9 L941.2 753.3 L1035.3 741.3 L1129.4 743.4 L1223.5 687.0 L1317.6 651.1 L1411.8 661.4 L1505.9 683.0 L1600.0 736.9 L1600 900 Z" fill="hsl(158.0 35.0% 12.0%)"/><rect width="1600" height="900" fill="url(#g1987emm-vig)"/></svg>