<svg xmlns="http://www.w3.org/2000/svg" viewBox="0 0 1600 900" role="img" preserveAspectRatio="xMidYMid slice"><title>quy-nhon-eo-gio-ky-co hero</title><defs><linearGradient id="g12a4qx9-sky" x1="0" y1="0" x2="0" y2="1"><stop offset="0%" stop-color="hsl(208.0 60.0% 52.0%)"/><stop offset="50%" stop-color="hsl(196.0 50.0% 66.0%)"/><stop offset="100%" stop-color="hsl(40.0 60.0% 76.0%)"/></linearGradient><radialGradient id="g12a4qx9-glow"><stop offset="0%" stop-color="hsl(42.0 90.0% 78.0% / 0.850)"/><stop offset="45%" stop-color="hsl(42.0 90.0% 78.0% / 0.250)"/><stop offset="100%" stop-color="hsl(42.0 90.0% 78.0% / 0.000)"/></radialGradient><linearGradient id="g12a4qx9-water" x1="0" y1="0" x2="0" y2="1"><stop offset="0%" stop-color="hsl(116.5 51.0% 52.6%)"/><stop offset="100%" stop-color="hsl(213.0 41.0% 15.2%)"/></linearGradient><radialGradient id="g12a4qx9-vig" cx="50%" cy="42%" r="75%"><stop offset="70%" stop-color="hsl(0 0% 0% / 0)"/><stop offset="100%" stop-color="hsl(0 0% 0% / 0.18)"/></radialGradient></defs><rect width="1600" height="500.2" fill="url(#g12a4qx9-sky)"/><rect y="499.2" width="1600" height="400.8" fill="hsl(167.5 41.3% 34.0%)"/><circle cx="544.0" cy="375.2" r="150" fill="url(#g12a4qx9-glow)"/><circle cx="544.0" cy="375.2" r="56" fill="hsl(42.0 90.0% 78.0%)"/><path d="M0 900 L0 426.1 Q0.0 426.1 53.3 403.6 Q106.7 381.1 160.0 362.0 Q213.3 342.8 266.7 352.3 Q320.0 361.8 373.3 351.4 Q426.7 341.1 480.0 382.7 Q533.3 424.3 586.7 449.3 Q640.0 474.4 693.3 471.5 Q746.7 468.7 800.0 467.8 Q853.3 466.9 906.7 434.6 Q960.0 402.4 1013.3 418.1 Q1066.7 433.9 1120.0 431.5 Q1173.3 429.1 1226.7 390.1 Q1280.0 351.1 1333.3 341.9 Q1386.7 332.7 1440.0 330.8 Q1493.3 328.9 1546.7 351.3 L1600 373.7 L1600 900 Z" fill="hsl(77.4 54.5% 63.7%)"/><path d="M0 900 L0 553.7 Q0.0 553.7 50.0 577.4 Q100.0 601.2 150.0 595.2 Q200.0 589.2 250.0 552.4 Q300.0 515.7 350.0 503.7 Q400.0 491.8 450.0 482.6 Q500.0 473.3 550.0 494.9 Q600.0 516.5 650.0 525.7 Q700.0 534.8 750.0 516.9 Q800.0 498.9 850.0 517.7 Q900.0 536.4 950.0 573.6 Q1000.0 610.9 1050.0 607.9 Q1100.0 605.0 1150.0 593.8 Q1200.0 582.5 1250.0 561.5 Q1300.0 540.6 1350.0 524.9 Q1400.0 509.3 1450.0 525.5 Q1500.0 541.6 1550.0 526.9 L1600 512.1 L1600 900 Z" fill="hsl(110.5 49.6% 52.8%)"/><path d="M0 900 L0 682.4 Q0.0 682.4 50.0 693.4 Q100.0 704.3 150.0 699.8 Q200.0 695.2 250.0 693.4 Q300.0 691.6 350.0 671.4 Q400.0 651.2 450.0 644.5 Q500.0 637.9 550.0 642.7 Q600.0 647.6 650.0 651.8 Q700.0 656.1 750.0 647.9 Q800.0 639.8 850.0 648.6 Q900.0 657.5 950.0 662.0 Q1000.0 666.6 1050.0 671.1 Q1100.0 675.6 1150.0 689.2 Q1200.0 702.8 1250.0 704.9 Q1300.0 706.9 1350.0 684.4 Q1400.0 661.8 1450.0 647.1 Q1500.0 632.4 1550.0 623.6 L1600 614.8 L1600 900 Z" fill="hsl(210.0 35.0% 20.0%)"/><rect y="500.2" width="1600" height="399.8" fill="url(#g12a4qx9-water)"/><g><rect x="768.4" y="519.9" width="49.2" height="3.2" rx="1.6" fill="hsl(42.0 90.0% 78.0% / 0.555)"/><rect x="767.0" y="535.2" width="22.3" height="3.2" rx="1.6" fill="hsl(42.0 90.0% 78.0% / 0.536)"/><rect x="747.8" y="548.0" width="45.8" height="3.2" rx="1.6" fill="hsl(42.0 90.0% 78.0% / 0.520)"/><rect x="775.4" y="568.7" width="44.3" height="3.2" rx="1.6" fill="hsl(42.0 90.0% 78.0% / 0.494)"/><rect x="785.2" y="587.8" width="64.2" height="3.2" rx="1.6" fill="hsl(42.0 90.0% 78.0% / 0.470)"/><rect x="791.7" y="603.4" width="30.0" height="3.2" rx="1.6" fill="hsl(42.0 90.0% 78.0% / 0.451)"/><rect x="748.9" y="617.0" width="34.0" height="3.2" rx="1.6" fill="hsl(42.0 90.0% 78.0% / 0.434)"/><rect x="796.7" y="639.2" width="29.2" height="3.2" rx="1.6" fill="hsl(42.0 90.0% 78.0% / 0.406)"/><rect x="811.2" y="649.1" width="53.1" height="3.2" rx="1.6" fill="hsl(42.0 90.0% 78.0% / 0.394)"/><rect x="809.8" y="669.5" width="71.4" height="3.2" rx="1.6" fill="hsl(42.0 90.0% 78.0% / 0.368)"/><rect x="703.8" y="683.6" width="93.2" height="3.2" rx="1.6" fill="hsl(42.0 90.0% 78.0% / 0.351)"/><rect x="810.3" y="706.6" width="43.2" height="3.2" rx="1.6" fill="hsl(42.0 90.0% 78.0% / 0.322)"/><rect x="730.4" y="717.8" width="91.9" height="3.2" rx="1.6" fill="hsl(42.0 90.0% 78.0% / 0.308)"/><rect x="784.7" y="734.3" width="90.9" height="3.2" rx="1.6" fill="hsl(42.0 90.0% 78.0% / 0.287)"/><rect x="733.1" y="750.0" width="66.0" height="3.2" rx="1.6" fill="hsl(42.0 90.0% 78.0% / 0.268)"/><rect x="819.6" y="768.3" width="67.4" height="3.2" rx="1.6" fill="hsl(42.0 90.0% 78.0% / 0.245)"/><rect x="800.1" y="789.3" width="34.9" height="3.2" rx="1.6" fill="hsl(42.0 90.0% 78.0% / 0.218)"/><rect x="749.5" y="804.9" width="98.2" height="3.2" rx="1.6" fill="hsl(42.0 90.0% 78.0% / 0.199)"/><rect x="814.7" y="824.6" width="92.7" height="3.2" rx="1.6" fill="hsl(42.0 90.0% 78.0% / 0.174)"/><rect x="781.6" y="838.5" width="43.4" height="3.2" rx="1.6" fill="hsl(42.0 90.0% 78.0% / 0.157)"/><rect x="734.2" y="851.8" width="126.3" height="3.2" rx="1.6" fill="hsl(42.0 90.0% 78.0% / 0.140)"/><rect x="797.6" y="874.4" width="113.5" height="3.2" rx="1.6" fill="hsl(42.0 90.0% 78.0% / 0.112)"/></g><rect width="1600" height="900" fill="url(#g12a4qx9-vig)"/></svg>