<svg xmlns="http://www.w3.org/2000/svg" viewBox="0 0 1600 900" role="img" preserveAspectRatio="xMidYMid slice"><title>quy-nhon-eo-gio-ky-co s1</title><defs><linearGradient id="gpn76vx-sky" x1="0" y1="0" x2="0" y2="1"><stop offset="0%" stop-color="hsl(208.0 60.0% 52.0%)"/><stop offset="50%" stop-color="hsl(196.0 50.0% 66.0%)"/><stop offset="100%" stop-color="hsl(40.0 60.0% 76.0%)"/></linearGradient><radialGradient id="gpn76vx-glow"><stop offset="0%" stop-color="hsl(42.0 90.0% 78.0% / 0.850)"/><stop offset="45%" stop-color="hsl(42.0 90.0% 78.0% / 0.250)"/><stop offset="100%" stop-color="hsl(42.0 90.0% 78.0% / 0.000)"/></radialGradient><linearGradient id="gpn76vx-water" x1="0" y1="0" x2="0" y2="1"><stop offset="0%" stop-color="hsl(116.5 51.0% 52.6%)"/><stop offset="100%" stop-color="hsl(213.0 41.0% 15.2%)"/></linearGradient><radialGradient id="gpn76vx-vig" cx="50%" cy="42%" r="75%"><stop offset="70%" stop-color="hsl(0 0% 0% / 0)"/><stop offset="100%" stop-color="hsl(0 0% 0% / 0.18)"/></radialGradient></defs><rect width="1600" height="450.1" fill="url(#gpn76vx-sky)"/><rect y="449.1" width="1600" height="450.9" fill="hsl(167.5 41.3% 34.0%)"/><circle cx="424.8" cy="337.6" r="150" fill="url(#gpn76vx-glow)"/><circle cx="424.8" cy="337.6" r="56" fill="hsl(42.0 90.0% 78.0%)"/><path d="M0 900 L0 253.4 Q0.0 253.4 42.1 261.3 Q84.2 269.3 126.3 297.6 Q168.4 325.9 210.5 329.0 Q252.6 332.2 294.7 383.5 Q336.8 434.7 378.9 451.0 Q421.1 467.3 463.2 455.3 Q505.3 443.2 547.4 438.9 Q589.5 434.6 631.6 403.1 Q673.7 371.7 715.8 340.2 Q757.9 308.7 800.0 308.0 Q842.1 307.4 884.2 296.4 Q926.3 285.5 968.4 302.1 Q1010.5 318.7 1052.6 329.8 Q1094.7 340.9 1136.8 310.5 Q1178.9 280.1 1221.1 263.6 Q1263.2 247.2 1305.3 258.1 Q1347.4 269.0 1389.5 281.7 Q1431.6 294.3 1473.7 301.3 Q1515.8 308.2 1557.9 364.3 L1600 420.4 L1600 900 Z" fill="hsl(77.4 54.5% 63.7%)"/><path d="M0 900 L0 430.2 Q0.0 430.2 40.0 430.5 Q80.0 430.9 120.0 433.5 Q160.0 436.0 200.0 445.4 Q240.0 454.8 280.0 448.4 Q320.0 442.0 360.0 438.9 Q400.0 435.7 440.0 473.5 Q480.0 511.2 520.0 509.3 Q560.0 507.4 600.0 514.7 Q640.0 522.1 680.0 520.4 Q720.0 518.7 760.0 489.2 Q800.0 459.6 840.0 449.8 Q880.0 440.1 920.0 418.3 Q960.0 396.4 1000.0 362.8 Q1040.0 329.1 1080.0 354.7 Q1120.0 380.4 1160.0 373.4 Q1200.0 366.4 1240.0 386.5 Q1280.0 406.6 1320.0 429.3 Q1360.0 451.9 1400.0 444.5 Q1440.0 437.2 1480.0 461.2 Q1520.0 485.1 1560.0 473.6 L1600 462.1 L1600 900 Z" fill="hsl(92.1 52.3% 58.8%)"/><path d="M0 900 L0 476.0 Q0.0 476.0 44.4 507.7 Q88.9 539.3 133.3 538.6 Q177.8 537.8 222.2 540.7 Q266.7 543.6 311.1 551.2 Q355.6 558.7 400.0 550.5 Q444.4 542.3 488.9 564.3 Q533.3 586.2 577.8 583.3 Q622.2 580.4 666.7 594.2 Q711.1 608.0 755.6 582.0 Q800.0 556.1 844.4 523.1 Q888.9 490.1 933.3 494.5 Q977.8 498.8 1022.2 496.8 Q1066.7 494.8 1111.1 506.0 Q1155.6 517.1 1200.0 529.6 Q1244.4 542.0 1288.9 536.3 Q1333.3 530.6 1377.8 540.8 Q1422.2 550.9 1466.7 547.7 Q1511.1 544.5 1555.6 574.3 L1600 604.1 L1600 900 Z" fill="hsl(136.3 45.8% 44.3%)"/><path d="M0 900 L0 657.6 Q0.0 657.6 50.0 666.0 Q100.0 674.4 150.0 671.9 Q200.0 669.3 250.0 673.5 Q300.0 677.7 350.0 673.3 Q400.0 668.9 450.0 654.9 Q500.0 640.9 550.0 633.2 Q600.0 625.4 650.0 615.7 Q700.0 606.0 750.0 614.4 Q800.0 622.8 850.0 626.5 Q900.0 630.3 950.0 648.3 Q1000.0 666.4 1050.0 667.6 Q1100.0 668.8 1150.0 668.6 Q1200.0 668.4 1250.0 667.5 Q1300.0 666.6 1350.0 672.4 Q1400.0 678.1 1450.0 673.7 Q1500.0 669.3 1550.0 674.9 L1600 680.6 L1600 900 Z" fill="hsl(210.0 35.0% 20.0%)"/><rect y="450.1" width="1600" height="449.9" fill="url(#gpn76vx-water)"/><g><rect x="792.3" y="467.8" width="8.9" height="3.2" rx="1.6" fill="hsl(42.0 90.0% 78.0% / 0.560)"/><rect x="760.0" y="483.2" width="37.0" height="3.2" rx="1.6" fill="hsl(42.0 90.0% 78.0% / 0.543)"/><rect x="754.8" y="501.7" width="55.3" height="3.2" rx="1.6" fill="hsl(42.0 90.0% 78.0% / 0.523)"/><rect x="806.1" y="524.7" width="27.1" height="3.2" rx="1.6" fill="hsl(42.0 90.0% 78.0% / 0.497)"/><rect x="788.4" y="537.9" width="42.7" height="3.2" rx="1.6" fill="hsl(42.0 90.0% 78.0% / 0.482)"/><rect x="794.2" y="558.4" width="49.6" height="3.2" rx="1.6" fill="hsl(42.0 90.0% 78.0% / 0.460)"/><rect x="752.2" y="577.5" width="21.4" height="3.2" rx="1.6" fill="hsl(42.0 90.0% 78.0% / 0.438)"/><rect x="805.0" y="593.9" width="48.6" height="3.2" rx="1.6" fill="hsl(42.0 90.0% 78.0% / 0.420)"/><rect x="749.4" y="611.8" width="52.9" height="3.2" rx="1.6" fill="hsl(42.0 90.0% 78.0% / 0.400)"/><rect x="751.2" y="628.9" width="72.3" height="3.2" rx="1.6" fill="hsl(42.0 90.0% 78.0% / 0.381)"/><rect x="751.4" y="654.4" width="88.6" height="3.2" rx="1.6" fill="hsl(42.0 90.0% 78.0% / 0.353)"/><rect x="754.2" y="672.7" width="32.3" height="3.2" rx="1.6" fill="hsl(42.0 90.0% 78.0% / 0.333)"/><rect x="793.6" y="684.5" width="92.5" height="3.2" rx="1.6" fill="hsl(42.0 90.0% 78.0% / 0.320)"/><rect x="798.3" y="702.7" width="98.0" height="3.2" rx="1.6" fill="hsl(42.0 90.0% 78.0% / 0.299)"/><rect x="842.1" y="723.7" width="39.9" height="3.2" rx="1.6" fill="hsl(42.0 90.0% 78.0% / 0.276)"/><rect x="742.1" y="744.6" width="96.7" height="3.2" rx="1.6" fill="hsl(42.0 90.0% 78.0% / 0.253)"/><rect x="698.4" y="760.6" width="82.3" height="3.2" rx="1.6" fill="hsl(42.0 90.0% 78.0% / 0.235)"/><rect x="754.6" y="780.5" width="97.2" height="3.2" rx="1.6" fill="hsl(42.0 90.0% 78.0% / 0.213)"/><rect x="762.1" y="797.5" width="68.1" height="3.2" rx="1.6" fill="hsl(42.0 90.0% 78.0% / 0.194)"/><rect x="760.5" y="813.2" width="125.5" height="3.2" rx="1.6" fill="hsl(42.0 90.0% 78.0% / 0.176)"/><rect x="831.1" y="833.1" width="35.5" height="3.2" rx="1.6" fill="hsl(42.0 90.0% 78.0% / 0.154)"/><rect x="773.3" y="850.4" width="50.5" height="3.2" rx="1.6" fill="hsl(42.0 90.0% 78.0% / 0.135)"/><rect x="787.9" y="871.1" width="69.0" height="3.2" rx="1.6" fill="hsl(42.0 90.0% 78.0% / 0.112)"/></g><rect width="1600" height="900" fill="url(#gpn76vx-vig)"/></svg>