<svg xmlns="http://www.w3.org/2000/svg" viewBox="0 0 1600 900" role="img" preserveAspectRatio="xMidYMid slice"><title>quy-nhon-eo-gio-ky-co s2</title><defs><linearGradient id="g1sw4duo-sky" x1="0" y1="0" x2="0" y2="1"><stop offset="0%" stop-color="hsl(265.0 38.0% 26.0%)"/><stop offset="50%" stop-color="hsl(348.0 55.0% 46.0%)"/><stop offset="100%" stop-color="hsl(22.0 90.0% 58.0%)"/></linearGradient><radialGradient id="g1sw4duo-glow"><stop offset="0%" stop-color="hsl(24.0 95.0% 66.0% / 0.850)"/><stop offset="45%" stop-color="hsl(24.0 95.0% 66.0% / 0.250)"/><stop offset="100%" stop-color="hsl(24.0 95.0% 66.0% / 0.000)"/></radialGradient><radialGradient id="g1sw4duo-vig" cx="50%" cy="42%" r="75%"><stop offset="70%" stop-color="hsl(0 0% 0% / 0)"/><stop offset="100%" stop-color="hsl(0 0% 0% / 0.18)"/></radialGradient></defs><rect width="1600" height="561.9" fill="url(#g1sw4duo-sky)"/><rect y="560.9" width="1600" height="339.1" fill="hsl(305.5 43.5% 25.0%)"/><circle cx="801.8" cy="494.5" r="230" fill="url(#g1sw4duo-glow)"/><circle cx="801.8" cy="494.5" r="78" fill="hsl(24.0 95.0% 66.0%)"/><path d="M0 900 L0 470.4 Q0.0 470.4 50.0 523.4 Q100.0 576.4 150.0 547.2 Q200.0 518.1 250.0 467.5 Q300.0 417.0 350.0 410.4 Q400.0 403.8 450.0 395.8 Q500.0 387.8 550.0 386.6 Q600.0 385.4 650.0 392.2 Q700.0 399.0 750.0 392.3 Q800.0 385.6 850.0 352.4 Q900.0 319.2 950.0 317.8 Q1000.0 316.3 1050.0 333.7 Q1100.0 351.1 1150.0 375.1 Q1200.0 399.0 1250.0 472.4 Q1300.0 545.7 1350.0 568.7 Q1400.0 591.7 1450.0 539.1 Q1500.0 486.6 1550.0 472.4 L1600 458.3 L1600 900 Z" fill="hsl(359.6 76.4% 48.3%)"/><path d="M0 900 L0 530.8 Q0.0 530.8 44.4 518.7 Q88.9 506.6 133.3 515.4 Q177.8 524.2 222.2 547.9 Q266.7 571.7 311.1 533.1 Q355.6 494.5 400.0 487.6 Q444.4 480.7 488.9 446.2 Q533.3 411.8 577.8 395.9 Q622.2 380.1 666.7 400.0 Q711.1 419.8 755.6 447.0 Q800.0 474.3 844.4 477.4 Q888.9 480.5 933.3 499.0 Q977.8 517.5 1022.2 523.6 Q1066.7 529.6 1111.1 523.6 Q1155.6 517.6 1200.0 537.8 Q1244.4 558.1 1288.9 570.6 Q1333.3 583.0 1377.8 565.7 Q1422.2 548.4 1466.7 546.3 Q1511.1 544.1 1555.6 526.9 L1600 509.7 L1600 900 Z" fill="hsl(356.4 74.4% 46.9%)"/><path d="M0 900 L0 431.8 Q0.0 431.8 57.1 467.9 Q114.3 503.9 171.4 523.2 Q228.6 542.4 285.7 521.3 Q342.9 500.3 400.0 524.0 Q457.1 547.8 514.3 551.8 Q571.4 555.8 628.6 584.7 Q685.7 613.6 742.9 557.8 Q800.0 501.9 857.1 463.6 Q914.3 425.3 971.4 424.3 Q1028.6 423.3 1085.7 465.6 Q1142.9 507.8 1200.0 553.5 Q1257.1 599.1 1314.3 574.0 Q1371.4 548.8 1428.6 554.6 Q1485.7 560.4 1542.9 575.8 L1600 591.3 L1600 900 Z" fill="hsl(346.8 68.6% 42.8%)"/><path d="M0 900 L0 607.8 Q0.0 607.8 50.0 576.2 Q100.0 544.7 150.0 543.8 Q200.0 542.9 250.0 550.9 Q300.0 558.9 350.0 551.5 Q400.0 544.1 450.0 556.0 Q500.0 567.9 550.0 568.3 Q600.0 568.6 650.0 573.8 Q700.0 579.0 750.0 609.4 Q800.0 639.8 850.0 647.7 Q900.0 655.7 950.0 653.1 Q1000.0 650.5 1050.0 637.2 Q1100.0 624.0 1150.0 610.1 Q1200.0 596.2 1250.0 568.8 Q1300.0 541.5 1350.0 553.1 Q1400.0 564.6 1450.0 575.2 Q1500.0 585.9 1550.0 563.9 L1600 541.9 L1600 900 Z" fill="hsl(330.9 59.0% 36.0%)"/><path d="M0 900 L0 613.5 Q0.0 613.5 53.3 603.5 Q106.7 593.5 160.0 599.4 Q213.3 605.2 266.7 608.4 Q320.0 611.6 373.3 605.1 Q426.7 598.6 480.0 605.0 Q533.3 611.3 586.7 635.4 Q640.0 659.6 693.3 685.3 Q746.7 711.1 800.0 696.8 Q853.3 682.5 906.7 634.4 Q960.0 586.3 1013.3 602.6 Q1066.7 618.9 1120.0 600.1 Q1173.3 581.4 1226.7 586.3 Q1280.0 591.2 1333.3 571.4 Q1386.7 551.6 1440.0 579.7 Q1493.3 607.9 1546.7 627.4 L1600 646.9 L1600 900 Z" fill="hsl(308.6 45.4% 26.4%)"/><path d="M0 900 L0 709.9 Q0.0 709.9 44.4 708.1 Q88.9 706.3 133.3 725.3 Q177.8 744.3 222.2 740.3 Q266.7 736.4 311.1 717.2 Q355.6 698.0 400.0 699.1 Q444.4 700.2 488.9 681.2 Q533.3 662.1 577.8 658.5 Q622.2 654.9 666.7 658.9 Q711.1 663.0 755.6 655.1 Q800.0 647.3 844.4 662.0 Q888.9 676.8 933.3 679.6 Q977.8 682.5 1022.2 673.3 Q1066.7 664.1 1111.1 676.1 Q1155.6 688.2 1200.0 684.1 Q1244.4 680.0 1288.9 693.5 Q1333.3 707.1 1377.8 720.8 Q1422.2 734.5 1466.7 736.7 Q1511.1 739.0 1555.6 732.6 L1600 726.2 L1600 900 Z" fill="hsl(280.0 28.0% 14.0%)"/><rect width="1600" height="900" fill="url(#g1sw4duo-vig)"/></svg>