<svg xmlns="http://www.w3.org/2000/svg" viewBox="0 0 1600 900" role="img" preserveAspectRatio="xMidYMid slice"><title>nghia-lo-suoi-giang-tra-co-thu hero</title><defs><linearGradient id="g1welktj-sky" x1="0" y1="0" x2="0" y2="1"><stop offset="0%" stop-color="hsl(210.0 14.0% 74.0%)"/><stop offset="50%" stop-color="hsl(210.0 12.0% 82.0%)"/><stop offset="100%" stop-color="hsl(36.0 18.0% 86.0%)"/></linearGradient><radialGradient id="g1welktj-glow"><stop offset="0%" stop-color="hsl(40.0 30.0% 92.0% / 0.850)"/><stop offset="45%" stop-color="hsl(40.0 30.0% 92.0% / 0.250)"/><stop offset="100%" stop-color="hsl(40.0 30.0% 92.0% / 0.000)"/></radialGradient><linearGradient id="g1welktj-fog0" x1="0" y1="0" x2="0" y2="1"><stop offset="0%" stop-color="hsl(40 20% 96% / 0)"/><stop offset="55%" stop-color="hsl(40 20% 96% / 0.36)"/><stop offset="100%" stop-color="hsl(40 20% 96% / 0)"/></linearGradient><linearGradient id="g1welktj-fog1" x1="0" y1="0" x2="0" y2="1"><stop offset="0%" stop-color="hsl(40 20% 96% / 0)"/><stop offset="55%" stop-color="hsl(40 20% 96% / 0.27)"/><stop offset="100%" stop-color="hsl(40 20% 96% / 0)"/></linearGradient><linearGradient id="g1welktj-fog2" x1="0" y1="0" x2="0" y2="1"><stop offset="0%" stop-color="hsl(40 20% 96% / 0)"/><stop offset="55%" stop-color="hsl(40 20% 96% / 0.22)"/><stop offset="100%" stop-color="hsl(40 20% 96% / 0)"/></linearGradient><linearGradient id="g1welktj-fog3" x1="0" y1="0" x2="0" y2="1"><stop offset="0%" stop-color="hsl(40 20% 96% / 0)"/><stop offset="55%" stop-color="hsl(40 20% 96% / 0.36)"/><stop offset="100%" stop-color="hsl(40 20% 96% / 0)"/></linearGradient><linearGradient id="g1welktj-fog4" x1="0" y1="0" x2="0" y2="1"><stop offset="0%" stop-color="hsl(40 20% 96% / 0)"/><stop offset="55%" stop-color="hsl(40 20% 96% / 0.20)"/><stop offset="100%" stop-color="hsl(40 20% 96% / 0)"/></linearGradient><radialGradient id="g1welktj-vig" cx="50%" cy="42%" r="75%"><stop offset="70%" stop-color="hsl(0 0% 0% / 0)"/><stop offset="100%" stop-color="hsl(0 0% 0% / 0.18)"/></radialGradient></defs><rect width="1600" height="611.0" fill="url(#g1welktj-sky)"/><rect y="610.0" width="1600" height="290.0" fill="hsl(168.0 16.5% 44.0%)"/><circle cx="729.1" cy="274.9" r="90" fill="url(#g1welktj-glow)"/><circle cx="729.1" cy="274.9" r="46" fill="hsl(40.0 30.0% 92.0%)"/><path d="M0 900 L0 493.0 Q0.0 493.0 53.3 540.1 Q106.7 587.3 160.0 554.7 Q213.3 522.1 266.7 529.6 Q320.0 537.1 373.3 457.2 Q426.7 377.4 480.0 367.1 Q533.3 356.7 586.7 332.3 Q640.0 307.9 693.3 361.4 Q746.7 414.9 800.0 438.7 Q853.3 462.4 906.7 480.5 Q960.0 498.7 1013.3 506.7 Q1066.7 514.8 1120.0 498.0 Q1173.3 481.1 1226.7 511.6 Q1280.0 542.2 1333.3 528.4 Q1386.7 514.7 1440.0 550.1 Q1493.3 585.5 1546.7 526.1 L1600 466.7 L1600 900 Z" fill="hsl(74.7 17.6% 73.7%)"/><rect x="0" y="494.2" width="1600" height="301.7" fill="url(#g1welktj-fog0)"/><path d="M0 900 L0 481.4 Q0.0 481.4 44.4 469.9 Q88.9 458.5 133.3 441.1 Q177.8 423.6 222.2 445.2 Q266.7 466.8 311.1 479.7 Q355.6 492.5 400.0 490.1 Q444.4 487.8 488.9 506.1 Q533.3 524.4 577.8 504.3 Q622.2 484.1 666.7 535.2 Q711.1 586.4 755.6 604.0 Q800.0 621.5 844.4 631.2 Q888.9 640.9 933.3 609.1 Q977.8 577.3 1022.2 562.1 Q1066.7 546.9 1111.1 560.4 Q1155.6 573.9 1200.0 560.9 Q1244.4 547.9 1288.9 547.6 Q1333.3 547.3 1377.8 503.0 Q1422.2 458.8 1466.7 445.9 Q1511.1 433.0 1555.6 417.1 L1600 401.3 L1600 900 Z" fill="hsl(80.2 17.5% 71.9%)"/><rect x="0" y="550.8" width="1600" height="239.3" fill="url(#g1welktj-fog1)"/><path d="M0 900 L0 644.4 Q0.0 644.4 50.0 604.2 Q100.0 564.0 150.0 547.5 Q200.0 530.9 250.0 538.2 Q300.0 545.5 350.0 537.2 Q400.0 528.8 450.0 531.5 Q500.0 534.2 550.0 526.9 Q600.0 519.6 650.0 509.5 Q700.0 499.5 750.0 511.2 Q800.0 522.8 850.0 544.9 Q900.0 567.0 950.0 612.1 Q1000.0 657.2 1050.0 665.1 Q1100.0 673.1 1150.0 649.9 Q1200.0 626.7 1250.0 607.4 Q1300.0 588.2 1350.0 563.2 Q1400.0 538.2 1450.0 547.2 Q1500.0 556.2 1550.0 549.2 L1600 542.1 L1600 900 Z" fill="hsl(96.7 17.3% 66.7%)"/><rect x="0" y="587.9" width="1600" height="221.0" fill="url(#g1welktj-fog2)"/><path d="M0 900 L0 609.3 Q0.0 609.3 42.1 570.6 Q84.2 531.9 126.3 539.4 Q168.4 546.8 210.5 554.2 Q252.6 561.7 294.7 568.9 Q336.8 576.1 378.9 582.1 Q421.1 588.1 463.2 610.7 Q505.3 633.2 547.4 620.3 Q589.5 607.5 631.6 610.4 Q673.7 613.4 715.8 633.6 Q757.9 653.9 800.0 667.5 Q842.1 681.1 884.2 680.2 Q926.3 679.3 968.4 682.5 Q1010.5 685.7 1052.6 664.4 Q1094.7 643.2 1136.8 615.6 Q1178.9 588.1 1221.1 563.2 Q1263.2 538.4 1305.3 541.1 Q1347.4 543.8 1389.5 553.1 Q1431.6 562.4 1473.7 568.8 Q1515.8 575.2 1557.9 593.0 L1600 610.8 L1600 900 Z" fill="hsl(124.1 17.0% 58.0%)"/><rect x="0" y="634.0" width="1600" height="182.2" fill="url(#g1welktj-fog3)"/><path d="M0 900 L0 675.6 Q0.0 675.6 44.4 683.3 Q88.9 691.1 133.3 701.5 Q177.8 711.9 222.2 721.2 Q266.7 730.5 311.1 701.2 Q355.6 672.0 400.0 668.1 Q444.4 664.2 488.9 627.1 Q533.3 590.1 577.8 589.2 Q622.2 588.3 666.7 587.8 Q711.1 587.4 755.6 592.5 Q800.0 597.7 844.4 621.0 Q888.9 644.4 933.3 640.9 Q977.8 637.5 1022.2 647.5 Q1066.7 657.4 1111.1 645.3 Q1155.6 633.2 1200.0 651.0 Q1244.4 668.8 1288.9 672.4 Q1333.3 675.9 1377.8 694.6 Q1422.2 713.2 1466.7 712.6 Q1511.1 712.1 1555.6 693.7 L1600 675.4 L1600 900 Z" fill="hsl(162.6 16.6% 45.7%)"/><rect x="0" y="667.3" width="1600" height="172.3" fill="url(#g1welktj-fog4)"/><path d="M0 900 L0 715.0 Q0.0 715.0 53.3 732.9 Q106.7 750.8 160.0 736.2 Q213.3 721.7 266.7 727.1 Q320.0 732.5 373.3 719.2 Q426.7 706.0 480.0 719.6 Q533.3 733.3 586.7 716.9 Q640.0 700.4 693.3 694.4 Q746.7 688.4 800.0 669.4 Q853.3 650.3 906.7 649.4 Q960.0 648.4 1013.3 653.5 Q1066.7 658.6 1120.0 683.4 Q1173.3 708.2 1226.7 728.7 Q1280.0 749.3 1333.3 740.5 Q1386.7 731.7 1440.0 735.4 Q1493.3 739.2 1546.7 719.2 L1600 699.2 L1600 900 Z" fill="hsl(212.0 16.0% 30.0%)"/><rect width="1600" height="900" fill="url(#g1welktj-vig)"/></svg>