<svg xmlns="http://www.w3.org/2000/svg" viewBox="0 0 1600 900" role="img" preserveAspectRatio="xMidYMid slice"><title>nghia-lo-suoi-giang-tra-co-thu s2</title><defs><linearGradient id="gxsdhn6-sky" x1="0" y1="0" x2="0" y2="1"><stop offset="0%" stop-color="hsl(170.0 30.0% 52.0%)"/><stop offset="50%" stop-color="hsl(150.0 25.0% 68.0%)"/><stop offset="100%" stop-color="hsl(60.0 35.0% 78.0%)"/></linearGradient><radialGradient id="gxsdhn6-glow"><stop offset="0%" stop-color="hsl(52.0 70.0% 84.0% / 0.850)"/><stop offset="45%" stop-color="hsl(52.0 70.0% 84.0% / 0.250)"/><stop offset="100%" stop-color="hsl(52.0 70.0% 84.0% / 0.000)"/></radialGradient><linearGradient id="gxsdhn6-fog3" x1="0" y1="0" x2="0" y2="1"><stop offset="0%" stop-color="hsl(40 20% 96% / 0)"/><stop offset="55%" stop-color="hsl(40 20% 96% / 0.29)"/><stop offset="100%" stop-color="hsl(40 20% 96% / 0)"/></linearGradient><radialGradient id="gxsdhn6-vig" cx="50%" cy="42%" r="75%"><stop offset="70%" stop-color="hsl(0 0% 0% / 0)"/><stop offset="100%" stop-color="hsl(0 0% 0% / 0.18)"/></radialGradient></defs><rect width="1600" height="603.5" fill="url(#gxsdhn6-sky)"/><rect y="602.5" width="1600" height="297.5" fill="hsl(133.5 35.0% 28.5%)"/><circle cx="975.3" cy="331.9" r="100" fill="url(#gxsdhn6-glow)"/><circle cx="975.3" cy="331.9" r="42" fill="hsl(52.0 70.0% 84.0%)"/><path d="M0 900 L0 418.0 L0.0 418.0 L88.9 433.8 L177.8 453.5 L266.7 472.1 L355.6 413.7 L444.4 525.8 L533.3 515.7 L622.2 553.3 L711.1 549.6 L800.0 607.5 L888.9 563.8 L977.8 463.2 L1066.7 386.2 L1155.6 354.4 L1244.4 384.1 L1333.3 350.0 L1422.2 452.2 L1511.1 427.2 L1600.0 432.0 L1600 900 Z" fill="hsl(81.6 35.0% 63.5%)"/><path d="M0 900 L0 479.5 L0.0 479.5 L76.2 557.0 L152.4 537.6 L228.6 559.7 L304.8 576.4 L381.0 539.2 L457.1 622.5 L533.3 583.0 L609.5 544.3 L685.7 461.2 L761.9 420.4 L838.1 383.7 L914.3 437.5 L990.5 472.7 L1066.7 491.5 L1142.9 553.2 L1219.0 509.3 L1295.2 533.3 L1371.4 593.8 L1447.6 635.5 L1523.8 611.6 L1600.0 592.2 L1600 900 Z" fill="hsl(83.1 35.0% 62.4%)"/><path d="M0 900 L0 474.0 L0.0 474.0 L84.2 482.6 L168.4 499.0 L252.6 502.1 L336.8 445.2 L421.1 455.4 L505.3 591.4 L589.5 624.6 L673.7 620.7 L757.9 634.1 L842.1 591.2 L926.3 587.2 L1010.5 619.5 L1094.7 589.7 L1178.9 591.2 L1263.2 487.1 L1347.4 429.5 L1431.6 456.1 L1515.8 449.1 L1600.0 465.5 L1600 900 Z" fill="hsl(87.8 35.0% 59.3%)"/><path d="M0 900 L0 515.4 L0.0 515.4 L84.2 593.1 L168.4 616.2 L252.6 626.4 L336.8 601.1 L421.1 608.8 L505.3 655.5 L589.5 592.7 L673.7 613.7 L757.9 611.2 L842.1 498.4 L926.3 498.2 L1010.5 430.8 L1094.7 451.1 L1178.9 481.6 L1263.2 535.3 L1347.4 608.3 L1431.6 567.5 L1515.8 550.8 L1600.0 597.0 L1600 900 Z" fill="hsl(95.6 35.0% 54.0%)"/><rect x="0" y="577.8" width="1600" height="240.8" fill="url(#gxsdhn6-fog3)"/><path d="M0 900 L0 607.0 L0.0 607.0 L80.0 596.5 L160.0 564.0 L240.0 592.0 L320.0 573.8 L400.0 579.6 L480.0 638.0 L560.0 648.8 L640.0 670.7 L720.0 672.8 L800.0 644.4 L880.0 645.4 L960.0 587.7 L1040.0 535.1 L1120.0 513.8 L1200.0 553.9 L1280.0 567.2 L1360.0 651.1 L1440.0 706.9 L1520.0 702.3 L1600.0 678.3 L1600 900 Z" fill="hsl(106.5 35.0% 46.7%)"/><path d="M0 900 L0 581.4 L0.0 581.4 L100.0 664.7 L200.0 670.1 L300.0 674.8 L400.0 681.3 L500.0 651.4 L600.0 704.8 L700.0 603.1 L800.0 595.6 L900.0 512.9 L1000.0 547.8 L1100.0 576.4 L1200.0 640.3 L1300.0 698.0 L1400.0 670.0 L1500.0 702.6 L1600.0 592.5 L1600 900 Z" fill="hsl(120.6 35.0% 37.2%)"/><path d="M0 900 L0 706.5 L0.0 706.5 L94.1 690.6 L188.2 704.3 L282.4 713.6 L376.5 665.2 L470.6 657.6 L564.7 655.4 L658.8 641.9 L752.9 666.5 L847.1 748.0 L941.2 733.6 L1035.3 714.5 L1129.4 670.0 L1223.5 632.2 L1317.6 627.3 L1411.8 660.4 L1505.9 691.5 L1600.0 689.1 L1600 900 Z" fill="hsl(137.7 35.0% 25.7%)"/><path d="M0 900 L0 734.8 L0.0 734.8 L76.2 749.0 L152.4 738.6 L228.6 717.9 L304.8 723.5 L381.0 723.0 L457.1 730.4 L533.3 700.1 L609.5 662.4 L685.7 658.3 L761.9 652.7 L838.1 676.7 L914.3 685.0 L990.5 737.6 L1066.7 753.5 L1142.9 749.8 L1219.0 727.0 L1295.2 727.7 L1371.4 737.4 L1447.6 707.1 L1523.8 677.8 L1600.0 679.8 L1600 900 Z" fill="hsl(158.0 35.0% 12.0%)"/><rect width="1600" height="900" fill="url(#gxsdhn6-vig)"/></svg>