<svg xmlns="http://www.w3.org/2000/svg" viewBox="0 0 1600 900" role="img" preserveAspectRatio="xMidYMid slice"><title>nghia-lo-suoi-giang-tra-co-thu s1</title><defs><linearGradient id="g3a1kdf-sky" x1="0" y1="0" x2="0" y2="1"><stop offset="0%" stop-color="hsl(210.0 14.0% 74.0%)"/><stop offset="50%" stop-color="hsl(210.0 12.0% 82.0%)"/><stop offset="100%" stop-color="hsl(36.0 18.0% 86.0%)"/></linearGradient><radialGradient id="g3a1kdf-glow"><stop offset="0%" stop-color="hsl(40.0 30.0% 92.0% / 0.850)"/><stop offset="45%" stop-color="hsl(40.0 30.0% 92.0% / 0.250)"/><stop offset="100%" stop-color="hsl(40.0 30.0% 92.0% / 0.000)"/></radialGradient><linearGradient id="g3a1kdf-fog0" x1="0" y1="0" x2="0" y2="1"><stop offset="0%" stop-color="hsl(40 20% 96% / 0)"/><stop offset="55%" stop-color="hsl(40 20% 96% / 0.33)"/><stop offset="100%" stop-color="hsl(40 20% 96% / 0)"/></linearGradient><linearGradient id="g3a1kdf-fog1" x1="0" y1="0" x2="0" y2="1"><stop offset="0%" stop-color="hsl(40 20% 96% / 0)"/><stop offset="55%" stop-color="hsl(40 20% 96% / 0.19)"/><stop offset="100%" stop-color="hsl(40 20% 96% / 0)"/></linearGradient><linearGradient id="g3a1kdf-fog2" x1="0" y1="0" x2="0" y2="1"><stop offset="0%" stop-color="hsl(40 20% 96% / 0)"/><stop offset="55%" stop-color="hsl(40 20% 96% / 0.24)"/><stop offset="100%" stop-color="hsl(40 20% 96% / 0)"/></linearGradient><linearGradient id="g3a1kdf-fog3" x1="0" y1="0" x2="0" y2="1"><stop offset="0%" stop-color="hsl(40 20% 96% / 0)"/><stop offset="55%" stop-color="hsl(40 20% 96% / 0.36)"/><stop offset="100%" stop-color="hsl(40 20% 96% / 0)"/></linearGradient><linearGradient id="g3a1kdf-fog5" x1="0" y1="0" x2="0" y2="1"><stop offset="0%" stop-color="hsl(40 20% 96% / 0)"/><stop offset="55%" stop-color="hsl(40 20% 96% / 0.32)"/><stop offset="100%" stop-color="hsl(40 20% 96% / 0)"/></linearGradient><linearGradient id="g3a1kdf-fog6" x1="0" y1="0" x2="0" y2="1"><stop offset="0%" stop-color="hsl(40 20% 96% / 0)"/><stop offset="55%" stop-color="hsl(40 20% 96% / 0.25)"/><stop offset="100%" stop-color="hsl(40 20% 96% / 0)"/></linearGradient><radialGradient id="g3a1kdf-vig" cx="50%" cy="42%" r="75%"><stop offset="70%" stop-color="hsl(0 0% 0% / 0)"/><stop offset="100%" stop-color="hsl(0 0% 0% / 0.18)"/></radialGradient></defs><rect width="1600" height="618.3" fill="url(#g3a1kdf-sky)"/><rect y="617.3" width="1600" height="282.7" fill="hsl(168.0 16.5% 44.0%)"/><circle cx="1107.6" cy="278.3" r="90" fill="url(#g3a1kdf-glow)"/><circle cx="1107.6" cy="278.3" r="46" fill="hsl(40.0 30.0% 92.0%)"/><path d="M0 900 L0 378.7 Q0.0 378.7 57.1 399.5 Q114.3 420.4 171.4 430.8 Q228.6 441.2 285.7 425.9 Q342.9 410.6 400.0 463.1 Q457.1 515.6 514.3 539.6 Q571.4 563.6 628.6 580.9 Q685.7 598.2 742.9 562.3 Q800.0 526.5 857.1 480.8 Q914.3 435.2 971.4 392.1 Q1028.6 349.1 1085.7 350.0 Q1142.9 351.0 1200.0 380.9 Q1257.1 410.8 1314.3 418.2 Q1371.4 425.5 1428.6 462.2 Q1485.7 498.9 1542.9 475.5 L1600 452.1 L1600 900 Z" fill="hsl(74.7 17.6% 73.7%)"/><rect x="0" y="493.9" width="1600" height="318.0" fill="url(#g3a1kdf-fog0)"/><path d="M0 900 L0 636.9 Q0.0 636.9 57.1 628.2 Q114.3 619.5 171.4 549.5 Q228.6 479.4 285.7 482.3 Q342.9 485.1 400.0 477.9 Q457.1 470.6 514.3 433.9 Q571.4 397.2 628.6 401.7 Q685.7 406.3 742.9 437.9 Q800.0 469.4 857.1 536.4 Q914.3 603.5 971.4 596.1 Q1028.6 588.7 1085.7 542.0 Q1142.9 495.3 1200.0 538.4 Q1257.1 581.4 1314.3 550.1 Q1371.4 518.7 1428.6 454.3 Q1485.7 389.9 1542.9 389.3 L1600 388.8 L1600 900 Z" fill="hsl(77.5 17.5% 72.8%)"/><rect x="0" y="529.7" width="1600" height="282.7" fill="url(#g3a1kdf-fog1)"/><path d="M0 900 L0 504.1 Q0.0 504.1 38.1 468.6 Q76.2 433.1 114.3 436.2 Q152.4 439.4 190.5 458.1 Q228.6 476.9 266.7 476.4 Q304.8 475.9 342.9 498.2 Q381.0 520.5 419.0 562.3 Q457.1 604.0 495.2 625.8 Q533.3 647.6 571.4 635.8 Q609.5 624.1 647.6 603.3 Q685.7 582.4 723.8 586.1 Q761.9 589.7 800.0 569.4 Q838.1 549.1 876.2 532.2 Q914.3 515.3 952.4 505.1 Q990.5 495.0 1028.6 510.3 Q1066.7 525.5 1104.8 520.7 Q1142.9 515.9 1181.0 516.8 Q1219.0 517.7 1257.1 513.9 Q1295.2 510.0 1333.3 521.4 Q1371.4 532.8 1409.5 541.5 Q1447.6 550.1 1485.7 551.5 Q1523.8 552.9 1561.9 570.6 L1600 588.3 L1600 900 Z" fill="hsl(85.9 17.4% 70.1%)"/><rect x="0" y="571.4" width="1600" height="234.2" fill="url(#g3a1kdf-fog2)"/><path d="M0 900 L0 569.6 Q0.0 569.6 42.1 556.9 Q84.2 544.2 126.3 545.8 Q168.4 547.4 210.5 550.2 Q252.6 553.0 294.7 537.8 Q336.8 522.7 378.9 539.4 Q421.1 556.2 463.2 591.8 Q505.3 627.5 547.4 645.9 Q589.5 664.2 631.6 664.2 Q673.7 664.2 715.8 669.3 Q757.9 674.4 800.0 638.7 Q842.1 603.0 884.2 587.2 Q926.3 571.4 968.4 577.0 Q1010.5 582.6 1052.6 592.7 Q1094.7 602.7 1136.8 575.4 Q1178.9 548.0 1221.1 544.3 Q1263.2 540.5 1305.3 544.1 Q1347.4 547.8 1389.5 537.6 Q1431.6 527.4 1473.7 533.9 Q1515.8 540.5 1557.9 589.7 L1600 639.0 L1600 900 Z" fill="hsl(99.9 17.3% 65.7%)"/><rect x="0" y="612.0" width="1600" height="188.0" fill="url(#g3a1kdf-fog3)"/><path d="M0 900 L0 684.1 Q0.0 684.1 53.3 646.6 Q106.7 609.0 160.0 595.9 Q213.3 582.7 266.7 596.7 Q320.0 610.6 373.3 585.6 Q426.7 560.6 480.0 555.4 Q533.3 550.3 586.7 527.3 Q640.0 504.4 693.3 518.8 Q746.7 533.3 800.0 593.7 Q853.3 654.1 906.7 662.9 Q960.0 671.6 1013.3 656.7 Q1066.7 641.8 1120.0 634.0 Q1173.3 626.2 1226.7 614.6 Q1280.0 602.9 1333.3 597.8 Q1386.7 592.7 1440.0 571.9 Q1493.3 551.1 1546.7 523.2 L1600 495.4 L1600 900 Z" fill="hsl(119.5 17.1% 59.4%)"/><path d="M0 900 L0 604.6 Q0.0 604.6 47.1 595.9 Q94.1 587.3 141.2 615.1 Q188.2 642.8 235.3 651.8 Q282.4 660.7 329.4 674.2 Q376.5 687.6 423.5 701.7 Q470.6 715.7 517.6 687.3 Q564.7 659.0 611.8 637.0 Q658.8 615.1 705.9 587.7 Q752.9 560.3 800.0 545.0 Q847.1 529.8 894.1 552.1 Q941.2 574.4 988.2 595.5 Q1035.3 616.7 1082.4 641.8 Q1129.4 667.0 1176.5 682.5 Q1223.5 698.0 1270.6 673.0 Q1317.6 648.1 1364.7 647.0 Q1411.8 646.0 1458.8 653.6 Q1505.9 661.2 1552.9 641.2 L1600 621.1 L1600 900 Z" fill="hsl(144.8 16.8% 51.4%)"/><rect x="0" y="648.2" width="1600" height="197.2" fill="url(#g3a1kdf-fog5)"/><path d="M0 900 L0 662.7 Q0.0 662.7 53.3 691.2 Q106.7 719.6 160.0 726.2 Q213.3 732.8 266.7 721.1 Q320.0 709.4 373.3 706.4 Q426.7 703.3 480.0 687.0 Q533.3 670.7 586.7 673.4 Q640.0 676.0 693.3 661.7 Q746.7 647.4 800.0 651.1 Q853.3 654.8 906.7 652.4 Q960.0 650.1 1013.3 675.4 Q1066.7 700.8 1120.0 718.0 Q1173.3 735.3 1226.7 730.1 Q1280.0 725.0 1333.3 713.5 Q1386.7 702.0 1440.0 676.9 Q1493.3 651.8 1546.7 663.1 L1600 674.4 L1600 900 Z" fill="hsl(175.6 16.4% 41.6%)"/><rect x="0" y="698.7" width="1600" height="128.8" fill="url(#g3a1kdf-fog6)"/><path d="M0 900 L0 707.5 Q0.0 707.5 53.3 721.9 Q106.7 736.3 160.0 746.0 Q213.3 755.7 266.7 757.8 Q320.0 759.9 373.3 753.8 Q426.7 747.6 480.0 728.6 Q533.3 709.6 586.7 701.0 Q640.0 692.4 693.3 699.6 Q746.7 706.8 800.0 701.2 Q853.3 695.6 906.7 695.5 Q960.0 695.4 1013.3 687.3 Q1066.7 679.1 1120.0 679.3 Q1173.3 679.4 1226.7 709.5 Q1280.0 739.7 1333.3 746.5 Q1386.7 753.2 1440.0 748.0 Q1493.3 742.7 1546.7 743.1 L1600 743.5 L1600 900 Z" fill="hsl(212.0 16.0% 30.0%)"/><rect width="1600" height="900" fill="url(#g3a1kdf-vig)"/></svg>