<svg xmlns="http://www.w3.org/2000/svg" viewBox="0 0 1600 900" role="img" preserveAspectRatio="xMidYMid slice"><title>mae-hong-son-loop-thai-lan hero</title><defs><linearGradient id="grgemas-sky" x1="0" y1="0" x2="0" y2="1"><stop offset="0%" stop-color="hsl(265.0 38.0% 26.0%)"/><stop offset="50%" stop-color="hsl(348.0 55.0% 46.0%)"/><stop offset="100%" stop-color="hsl(22.0 90.0% 58.0%)"/></linearGradient><radialGradient id="grgemas-glow"><stop offset="0%" stop-color="hsl(24.0 95.0% 66.0% / 0.850)"/><stop offset="45%" stop-color="hsl(24.0 95.0% 66.0% / 0.250)"/><stop offset="100%" stop-color="hsl(24.0 95.0% 66.0% / 0.000)"/></radialGradient><radialGradient id="grgemas-vig" cx="50%" cy="42%" r="75%"><stop offset="70%" stop-color="hsl(0 0% 0% / 0)"/><stop offset="100%" stop-color="hsl(0 0% 0% / 0.18)"/></radialGradient></defs><rect width="1600" height="584.8" fill="url(#grgemas-sky)"/><rect y="583.8" width="1600" height="316.2" fill="hsl(305.5 43.5% 25.0%)"/><circle cx="925.8" cy="514.7" r="230" fill="url(#grgemas-glow)"/><circle cx="925.8" cy="514.7" r="78" fill="hsl(24.0 95.0% 66.0%)"/><path d="M0 900 L0 577.8 Q0.0 577.8 47.1 568.2 Q94.1 558.7 141.2 497.0 Q188.2 435.2 235.3 401.3 Q282.4 367.4 329.4 379.0 Q376.5 390.6 423.5 374.9 Q470.6 359.3 517.6 389.3 Q564.7 419.3 611.8 476.1 Q658.8 532.8 705.9 520.3 Q752.9 507.8 800.0 501.9 Q847.1 496.1 894.1 512.2 Q941.2 528.2 988.2 503.3 Q1035.3 478.3 1082.4 484.0 Q1129.4 489.7 1176.5 495.9 Q1223.5 502.1 1270.6 464.2 Q1317.6 426.3 1364.7 415.5 Q1411.8 404.6 1458.8 402.7 Q1505.9 400.8 1552.9 368.9 L1600 337.0 L1600 900 Z" fill="hsl(359.6 76.4% 48.3%)"/><path d="M0 900 L0 430.0 Q0.0 430.0 40.0 436.4 Q80.0 442.7 120.0 457.4 Q160.0 472.0 200.0 470.0 Q240.0 468.0 280.0 463.3 Q320.0 458.5 360.0 472.2 Q400.0 485.8 440.0 519.5 Q480.0 553.2 520.0 594.8 Q560.0 636.4 600.0 622.4 Q640.0 608.4 680.0 566.6 Q720.0 524.8 760.0 525.8 Q800.0 526.8 840.0 536.9 Q880.0 547.0 920.0 535.0 Q960.0 523.0 1000.0 510.4 Q1040.0 497.7 1080.0 480.6 Q1120.0 463.4 1160.0 451.8 Q1200.0 440.3 1240.0 420.2 Q1280.0 400.0 1320.0 417.9 Q1360.0 435.9 1400.0 478.0 Q1440.0 520.1 1480.0 519.9 Q1520.0 519.6 1560.0 510.2 L1600 500.8 L1600 900 Z" fill="hsl(356.4 74.4% 46.9%)"/><path d="M0 900 L0 591.9 Q0.0 591.9 57.1 581.8 Q114.3 571.7 171.4 517.8 Q228.6 464.0 285.7 485.5 Q342.9 507.0 400.0 497.8 Q457.1 488.6 514.3 486.0 Q571.4 483.5 628.6 479.2 Q685.7 474.8 742.9 457.4 Q800.0 439.9 857.1 477.6 Q914.3 515.3 971.4 543.3 Q1028.6 571.3 1085.7 614.3 Q1142.9 657.2 1200.0 636.7 Q1257.1 616.1 1314.3 592.3 Q1371.4 568.5 1428.6 545.7 Q1485.7 522.9 1542.9 487.5 L1600 452.0 L1600 900 Z" fill="hsl(346.8 68.6% 42.8%)"/><path d="M0 900 L0 540.5 Q0.0 540.5 50.0 580.0 Q100.0 619.4 150.0 632.2 Q200.0 644.9 250.0 641.7 Q300.0 638.4 350.0 640.6 Q400.0 642.8 450.0 636.8 Q500.0 630.7 550.0 618.7 Q600.0 606.6 650.0 613.2 Q700.0 619.8 750.0 615.0 Q800.0 610.3 850.0 577.9 Q900.0 545.5 950.0 552.0 Q1000.0 558.6 1050.0 578.4 Q1100.0 598.3 1150.0 615.1 Q1200.0 631.8 1250.0 659.8 Q1300.0 687.8 1350.0 689.0 Q1400.0 690.3 1450.0 649.1 Q1500.0 607.9 1550.0 603.0 L1600 598.1 L1600 900 Z" fill="hsl(330.9 59.0% 36.0%)"/><path d="M0 900 L0 641.5 Q0.0 641.5 40.0 623.0 Q80.0 604.5 120.0 607.0 Q160.0 609.4 200.0 623.1 Q240.0 636.7 280.0 641.3 Q320.0 645.9 360.0 645.4 Q400.0 644.8 440.0 659.0 Q480.0 673.1 520.0 669.3 Q560.0 665.5 600.0 665.2 Q640.0 664.9 680.0 684.9 Q720.0 704.9 760.0 701.1 Q800.0 697.4 840.0 685.2 Q880.0 673.0 920.0 659.8 Q960.0 646.5 1000.0 630.4 Q1040.0 614.2 1080.0 600.4 Q1120.0 586.7 1160.0 593.5 Q1200.0 600.4 1240.0 611.9 Q1280.0 623.4 1320.0 641.0 Q1360.0 658.6 1400.0 681.3 Q1440.0 703.9 1480.0 714.0 Q1520.0 724.1 1560.0 705.0 L1600 685.9 L1600 900 Z" fill="hsl(308.6 45.4% 26.4%)"/><path d="M0 900 L0 721.4 Q0.0 721.4 38.1 730.5 Q76.2 739.6 114.3 729.1 Q152.4 718.5 190.5 724.6 Q228.6 730.6 266.7 726.3 Q304.8 722.0 342.9 715.1 Q381.0 708.1 419.0 721.0 Q457.1 733.8 495.2 728.7 Q533.3 723.6 571.4 721.0 Q609.5 718.3 647.6 721.1 Q685.7 723.9 723.8 716.3 Q761.9 708.6 800.0 690.7 Q838.1 672.8 876.2 667.7 Q914.3 662.6 952.4 661.4 Q990.5 660.2 1028.6 657.7 Q1066.7 655.2 1104.8 664.0 Q1142.9 672.9 1181.0 682.6 Q1219.0 692.2 1257.1 697.0 Q1295.2 701.7 1333.3 714.1 Q1371.4 726.5 1409.5 725.8 Q1447.6 725.2 1485.7 719.3 Q1523.8 713.4 1561.9 718.5 L1600 723.7 L1600 900 Z" fill="hsl(280.0 28.0% 14.0%)"/><rect width="1600" height="900" fill="url(#grgemas-vig)"/></svg>