<svg xmlns="http://www.w3.org/2000/svg" viewBox="0 0 1600 900" role="img" preserveAspectRatio="xMidYMid slice"><title>mae-hong-son-loop-thai-lan s2</title><defs><linearGradient id="g1c6nxp5-sky" x1="0" y1="0" x2="0" y2="1"><stop offset="0%" stop-color="hsl(232.0 45.0% 8.0%)"/><stop offset="50%" stop-color="hsl(228.0 40.0% 14.0%)"/><stop offset="100%" stop-color="hsl(222.0 35.0% 22.0%)"/></linearGradient><radialGradient id="g1c6nxp5-glow"><stop offset="0%" stop-color="hsl(48.0 35.0% 88.0% / 0.850)"/><stop offset="45%" stop-color="hsl(48.0 35.0% 88.0% / 0.250)"/><stop offset="100%" stop-color="hsl(48.0 35.0% 88.0% / 0.000)"/></radialGradient><radialGradient id="g1c6nxp5-vig" cx="50%" cy="42%" r="75%"><stop offset="70%" stop-color="hsl(0 0% 0% / 0)"/><stop offset="100%" stop-color="hsl(0 0% 0% / 0.18)"/></radialGradient></defs><rect width="1600" height="578.7" fill="url(#g1c6nxp5-sky)"/><rect y="577.7" width="1600" height="322.3" fill="hsl(226.5 31.3% 12.3%)"/><g><circle cx="47.2" cy="162.6" r="0.65" fill="hsl(50 30% 92% / 0.91)"/><circle cx="780.2" cy="385.6" r="1.18" fill="hsl(50 30% 92% / 0.77)"/><circle cx="732.3" cy="414.5" r="1.27" fill="hsl(50 30% 92% / 0.71)"/><circle cx="504.2" cy="527.6" r="0.93" fill="hsl(50 30% 92% / 0.47)"/><circle cx="986.1" cy="166.2" r="1.16" fill="hsl(50 30% 92% / 0.38)"/><circle cx="153.0" cy="107.5" r="1.19" fill="hsl(50 30% 92% / 0.58)"/><circle cx="223.5" cy="247.5" r="0.75" fill="hsl(50 30% 92% / 0.72)"/><circle cx="351.9" cy="160.3" r="0.87" fill="hsl(50 30% 92% / 0.40)"/><circle cx="1284.3" cy="353.8" r="0.75" fill="hsl(50 30% 92% / 0.72)"/><circle cx="1329.9" cy="442.9" r="1.00" fill="hsl(50 30% 92% / 0.81)"/><circle cx="342.0" cy="310.5" r="1.63" fill="hsl(50 30% 92% / 0.45)"/><circle cx="1447.4" cy="480.2" r="1.29" fill="hsl(50 30% 92% / 0.89)"/><circle cx="1585.6" cy="364.3" r="1.02" fill="hsl(50 30% 92% / 0.53)"/><circle cx="1550.6" cy="437.8" r="0.61" fill="hsl(50 30% 92% / 0.39)"/><circle cx="1286.3" cy="291.9" r="0.68" fill="hsl(50 30% 92% / 0.71)"/><circle cx="856.1" cy="200.5" r="0.95" fill="hsl(50 30% 92% / 0.84)"/><circle cx="277.6" cy="480.1" r="1.07" fill="hsl(50 30% 92% / 0.44)"/><circle cx="1370.9" cy="458.3" r="1.12" fill="hsl(50 30% 92% / 0.80)"/><circle cx="783.5" cy="483.1" r="1.28" fill="hsl(50 30% 92% / 0.69)"/><circle cx="1059.2" cy="26.6" r="0.80" fill="hsl(50 30% 92% / 0.84)"/><circle cx="599.9" cy="255.1" r="0.71" fill="hsl(50 30% 92% / 0.75)"/><circle cx="1117.5" cy="19.5" r="0.62" fill="hsl(50 30% 92% / 0.50)"/><circle cx="774.2" cy="321.5" r="1.18" fill="hsl(50 30% 92% / 0.36)"/><circle cx="902.1" cy="351.7" r="0.65" fill="hsl(50 30% 92% / 0.68)"/><circle cx="585.1" cy="19.6" r="1.74" fill="hsl(50 30% 92% / 0.71)"/><circle cx="444.0" cy="418.8" r="1.23" fill="hsl(50 30% 92% / 0.77)"/><circle cx="540.4" cy="236.8" r="1.27" fill="hsl(50 30% 92% / 0.81)"/><circle cx="1088.4" cy="348.4" r="1.12" fill="hsl(50 30% 92% / 0.60)"/><circle cx="104.7" cy="246.5" r="1.79" fill="hsl(50 30% 92% / 0.69)"/><circle cx="110.1" cy="516.5" r="1.04" fill="hsl(50 30% 92% / 0.51)"/><circle cx="1053.7" cy="312.4" r="1.26" fill="hsl(50 30% 92% / 0.51)"/><circle cx="1430.3" cy="453.0" r="1.26" fill="hsl(50 30% 92% / 0.80)"/><circle cx="1065.8" cy="223.4" r="1.25" fill="hsl(50 30% 92% / 0.50)"/><circle cx="450.1" cy="146.7" r="0.92" fill="hsl(50 30% 92% / 0.79)"/><circle cx="566.0" cy="107.0" r="1.27" fill="hsl(50 30% 92% / 0.36)"/><circle cx="248.7" cy="268.1" r="2.06" fill="hsl(50 30% 92% / 0.35)"/><circle cx="374.4" cy="270.0" r="1.07" fill="hsl(50 30% 92% / 0.90)"/><circle cx="952.6" cy="418.1" r="0.81" fill="hsl(50 30% 92% / 0.73)"/><circle cx="743.8" cy="170.4" r="1.95" fill="hsl(50 30% 92% / 0.51)"/><circle cx="1507.1" cy="479.0" r="1.11" fill="hsl(50 30% 92% / 0.91)"/><circle cx="866.5" cy="526.9" r="1.17" fill="hsl(50 30% 92% / 0.41)"/><circle cx="1229.4" cy="275.9" r="0.87" fill="hsl(50 30% 92% / 0.85)"/><circle cx="141.2" cy="35.6" r="1.19" fill="hsl(50 30% 92% / 0.78)"/><circle cx="309.6" cy="527.2" r="0.99" fill="hsl(50 30% 92% / 0.79)"/><circle cx="470.5" cy="104.1" r="0.99" fill="hsl(50 30% 92% / 0.88)"/><circle cx="913.6" cy="423.7" r="1.23" fill="hsl(50 30% 92% / 0.48)"/><circle cx="756.9" cy="359.6" r="0.93" fill="hsl(50 30% 92% / 0.82)"/><circle cx="259.2" cy="280.4" r="0.69" fill="hsl(50 30% 92% / 0.49)"/><circle cx="664.9" cy="357.3" r="1.71" fill="hsl(50 30% 92% / 0.55)"/><circle cx="665.8" cy="472.2" r="2.57" fill="hsl(50 30% 92% / 0.72)"/><circle cx="1478.1" cy="21.3" r="1.29" fill="hsl(50 30% 92% / 0.80)"/><circle cx="1224.1" cy="490.2" r="0.99" fill="hsl(50 30% 92% / 0.94)"/><circle cx="1358.8" cy="452.5" r="1.22" fill="hsl(50 30% 92% / 0.51)"/><circle cx="598.3" cy="351.0" r="1.26" fill="hsl(50 30% 92% / 0.84)"/><circle cx="939.0" cy="94.1" r="1.18" fill="hsl(50 30% 92% / 0.80)"/><circle cx="119.0" cy="94.1" r="0.92" fill="hsl(50 30% 92% / 0.41)"/><circle cx="1383.4" cy="204.7" r="0.77" fill="hsl(50 30% 92% / 0.89)"/><circle cx="1431.1" cy="213.3" r="2.14" fill="hsl(50 30% 92% / 0.74)"/><circle cx="1293.9" cy="108.7" r="0.91" fill="hsl(50 30% 92% / 0.56)"/><circle cx="840.4" cy="283.1" r="0.64" fill="hsl(50 30% 92% / 0.62)"/><circle cx="270.3" cy="309.1" r="1.27" fill="hsl(50 30% 92% / 0.62)"/><circle cx="207.1" cy="490.7" r="0.87" fill="hsl(50 30% 92% / 0.52)"/><circle cx="58.6" cy="469.1" r="0.68" fill="hsl(50 30% 92% / 0.84)"/><circle cx="1002.0" cy="414.6" r="1.19" fill="hsl(50 30% 92% / 0.54)"/><circle cx="608.0" cy="242.5" r="0.90" fill="hsl(50 30% 92% / 0.51)"/><circle cx="792.0" cy="448.4" r="1.22" fill="hsl(50 30% 92% / 0.42)"/><circle cx="1230.0" cy="198.0" r="2.50" fill="hsl(50 30% 92% / 0.59)"/><circle cx="645.0" cy="521.2" r="1.28" fill="hsl(50 30% 92% / 0.51)"/><circle cx="1451.4" cy="8.9" r="1.28" fill="hsl(50 30% 92% / 0.81)"/><circle cx="1566.4" cy="24.7" r="0.78" fill="hsl(50 30% 92% / 0.37)"/><circle cx="978.5" cy="284.8" r="1.29" fill="hsl(50 30% 92% / 0.35)"/><circle cx="58.1" cy="175.3" r="1.12" fill="hsl(50 30% 92% / 0.45)"/><circle cx="65.8" cy="112.0" r="0.83" fill="hsl(50 30% 92% / 0.55)"/><circle cx="1143.0" cy="469.8" r="0.99" fill="hsl(50 30% 92% / 0.36)"/><circle cx="400.6" cy="438.8" r="1.16" fill="hsl(50 30% 92% / 0.78)"/><circle cx="1110.4" cy="324.8" r="0.88" fill="hsl(50 30% 92% / 0.57)"/><circle cx="1271.1" cy="284.1" r="0.73" fill="hsl(50 30% 92% / 0.35)"/><circle cx="1351.8" cy="278.9" r="0.94" fill="hsl(50 30% 92% / 0.88)"/><circle cx="964.2" cy="332.7" r="0.87" fill="hsl(50 30% 92% / 0.94)"/><circle cx="1523.8" cy="358.6" r="0.93" fill="hsl(50 30% 92% / 0.76)"/><circle cx="1446.7" cy="257.4" r="1.18" fill="hsl(50 30% 92% / 0.35)"/><circle cx="332.7" cy="381.6" r="0.97" fill="hsl(50 30% 92% / 0.73)"/><circle cx="981.5" cy="12.7" r="1.22" fill="hsl(50 30% 92% / 0.36)"/><circle cx="1123.5" cy="442.0" r="1.20" fill="hsl(50 30% 92% / 0.90)"/><circle cx="519.9" cy="341.0" r="0.88" fill="hsl(50 30% 92% / 0.72)"/><circle cx="134.3" cy="403.7" r="0.70" fill="hsl(50 30% 92% / 0.93)"/><circle cx="995.8" cy="295.6" r="1.28" fill="hsl(50 30% 92% / 0.74)"/><circle cx="267.7" cy="259.2" r="1.09" fill="hsl(50 30% 92% / 0.63)"/><circle cx="1148.6" cy="133.2" r="1.21" fill="hsl(50 30% 92% / 0.87)"/><circle cx="553.9" cy="454.8" r="0.81" fill="hsl(50 30% 92% / 0.58)"/><circle cx="560.8" cy="312.2" r="0.61" fill="hsl(50 30% 92% / 0.48)"/><circle cx="405.7" cy="397.9" r="1.03" fill="hsl(50 30% 92% / 0.54)"/><circle cx="11.8" cy="531.9" r="1.12" fill="hsl(50 30% 92% / 0.84)"/><circle cx="1460.7" cy="248.5" r="0.93" fill="hsl(50 30% 92% / 0.41)"/><circle cx="556.5" cy="458.0" r="0.66" fill="hsl(50 30% 92% / 0.81)"/><circle cx="937.1" cy="245.9" r="1.24" fill="hsl(50 30% 92% / 0.80)"/><circle cx="149.5" cy="56.7" r="1.17" fill="hsl(50 30% 92% / 0.63)"/><circle cx="1476.5" cy="135.3" r="0.95" fill="hsl(50 30% 92% / 0.90)"/><circle cx="1229.5" cy="289.2" r="0.65" fill="hsl(50 30% 92% / 0.44)"/><circle cx="189.8" cy="324.3" r="1.12" fill="hsl(50 30% 92% / 0.84)"/><circle cx="2.2" cy="111.8" r="0.75" fill="hsl(50 30% 92% / 0.63)"/><circle cx="1188.2" cy="330.0" r="0.87" fill="hsl(50 30% 92% / 0.46)"/><circle cx="23.0" cy="310.3" r="2.52" fill="hsl(50 30% 92% / 0.85)"/><circle cx="1311.1" cy="316.7" r="0.75" fill="hsl(50 30% 92% / 0.59)"/><circle cx="1168.3" cy="339.1" r="0.69" fill="hsl(50 30% 92% / 0.79)"/><circle cx="439.4" cy="512.0" r="1.11" fill="hsl(50 30% 92% / 0.91)"/><circle cx="896.0" cy="519.6" r="0.74" fill="hsl(50 30% 92% / 0.35)"/><circle cx="1311.6" cy="108.6" r="0.83" fill="hsl(50 30% 92% / 0.57)"/><circle cx="362.1" cy="62.1" r="0.79" fill="hsl(50 30% 92% / 0.62)"/><circle cx="1162.3" cy="56.4" r="0.74" fill="hsl(50 30% 92% / 0.90)"/><circle cx="671.7" cy="283.0" r="1.27" fill="hsl(50 30% 92% / 0.83)"/><circle cx="1330.1" cy="246.2" r="0.88" fill="hsl(50 30% 92% / 0.56)"/><circle cx="1382.1" cy="67.3" r="0.95" fill="hsl(50 30% 92% / 0.92)"/><circle cx="407.3" cy="257.2" r="0.67" fill="hsl(50 30% 92% / 0.90)"/><circle cx="1381.5" cy="173.0" r="1.05" fill="hsl(50 30% 92% / 0.86)"/><circle cx="784.5" cy="393.8" r="0.94" fill="hsl(50 30% 92% / 0.36)"/><circle cx="1317.5" cy="198.5" r="0.86" fill="hsl(50 30% 92% / 0.79)"/><circle cx="904.2" cy="144.9" r="0.98" fill="hsl(50 30% 92% / 0.45)"/><circle cx="111.2" cy="189.7" r="1.23" fill="hsl(50 30% 92% / 0.62)"/><circle cx="923.8" cy="504.0" r="1.28" fill="hsl(50 30% 92% / 0.46)"/><circle cx="827.2" cy="87.9" r="0.85" fill="hsl(50 30% 92% / 0.71)"/><circle cx="105.4" cy="2.2" r="0.86" fill="hsl(50 30% 92% / 0.51)"/><circle cx="1177.0" cy="279.5" r="1.22" fill="hsl(50 30% 92% / 0.83)"/><circle cx="924.3" cy="74.0" r="1.07" fill="hsl(50 30% 92% / 0.94)"/><circle cx="413.9" cy="515.8" r="1.11" fill="hsl(50 30% 92% / 0.63)"/><circle cx="707.0" cy="466.8" r="1.16" fill="hsl(50 30% 92% / 0.85)"/><circle cx="258.6" cy="221.8" r="0.95" fill="hsl(50 30% 92% / 0.49)"/><circle cx="1328.2" cy="64.2" r="1.06" fill="hsl(50 30% 92% / 0.58)"/><circle cx="1383.0" cy="334.3" r="1.10" fill="hsl(50 30% 92% / 0.54)"/><circle cx="446.8" cy="180.1" r="1.27" fill="hsl(50 30% 92% / 0.83)"/><circle cx="1103.5" cy="438.6" r="0.77" fill="hsl(50 30% 92% / 0.54)"/><circle cx="35.1" cy="221.4" r="1.18" fill="hsl(50 30% 92% / 0.45)"/><circle cx="1368.5" cy="156.7" r="0.61" fill="hsl(50 30% 92% / 0.78)"/><circle cx="1381.6" cy="494.9" r="0.92" fill="hsl(50 30% 92% / 0.53)"/><circle cx="846.6" cy="470.2" r="0.71" fill="hsl(50 30% 92% / 0.93)"/><circle cx="1392.1" cy="520.2" r="0.94" fill="hsl(50 30% 92% / 0.90)"/><circle cx="931.9" cy="416.8" r="0.61" fill="hsl(50 30% 92% / 0.71)"/><circle cx="882.3" cy="369.6" r="0.83" fill="hsl(50 30% 92% / 0.64)"/><circle cx="582.5" cy="246.3" r="0.83" fill="hsl(50 30% 92% / 0.46)"/><circle cx="586.8" cy="284.3" r="1.01" fill="hsl(50 30% 92% / 0.94)"/><circle cx="816.5" cy="392.6" r="1.98" fill="hsl(50 30% 92% / 0.60)"/><circle cx="1379.7" cy="157.9" r="0.91" fill="hsl(50 30% 92% / 0.38)"/><circle cx="283.7" cy="148.2" r="0.81" fill="hsl(50 30% 92% / 0.63)"/><circle cx="391.1" cy="218.5" r="0.75" fill="hsl(50 30% 92% / 0.82)"/><circle cx="629.4" cy="116.7" r="2.24" fill="hsl(50 30% 92% / 0.58)"/></g><circle cx="533.8" cy="162.0" r="110" fill="url(#g1c6nxp5-glow)"/><circle cx="533.8" cy="162.0" r="36" fill="hsl(48.0 35.0% 88.0%)"/><path d="M0 900 L0 369.3 Q0.0 369.3 47.1 372.2 Q94.1 375.0 141.2 416.0 Q188.2 456.9 235.3 428.0 Q282.4 399.1 329.4 407.7 Q376.5 416.3 423.5 416.1 Q470.6 415.9 517.6 449.9 Q564.7 483.9 611.8 520.8 Q658.8 557.6 705.9 563.2 Q752.9 568.7 800.0 565.9 Q847.1 563.2 894.1 503.8 Q941.2 444.5 988.2 464.4 Q1035.3 484.3 1082.4 480.6 Q1129.4 476.9 1176.5 459.9 Q1223.5 443.0 1270.6 432.9 Q1317.6 422.7 1364.7 367.2 Q1411.8 311.8 1458.8 323.6 Q1505.9 335.5 1552.9 363.6 L1600 391.7 L1600 900 Z" fill="hsl(223.3 33.9% 19.1%)"/><path d="M0 900 L0 387.5 Q0.0 387.5 40.0 389.2 Q80.0 390.8 120.0 421.2 Q160.0 451.6 200.0 447.2 Q240.0 442.8 280.0 423.2 Q320.0 403.6 360.0 432.1 Q400.0 460.6 440.0 459.4 Q480.0 458.1 520.0 456.3 Q560.0 454.4 600.0 482.4 Q640.0 510.3 680.0 570.5 Q720.0 630.8 760.0 626.2 Q800.0 621.7 840.0 595.1 Q880.0 568.5 920.0 541.6 Q960.0 514.7 1000.0 486.6 Q1040.0 458.6 1080.0 436.1 Q1120.0 413.6 1160.0 406.8 Q1200.0 400.0 1240.0 441.4 Q1280.0 482.9 1320.0 461.7 Q1360.0 440.5 1400.0 436.8 Q1440.0 433.1 1480.0 436.9 Q1520.0 440.8 1560.0 454.4 L1600 468.0 L1600 900 Z" fill="hsl(223.6 33.7% 18.5%)"/><path d="M0 900 L0 482.4 Q0.0 482.4 53.3 480.6 Q106.7 478.8 160.0 488.5 Q213.3 498.3 266.7 514.3 Q320.0 530.2 373.3 531.7 Q426.7 533.2 480.0 539.9 Q533.3 546.7 586.7 563.6 Q640.0 580.4 693.3 599.8 Q746.7 619.3 800.0 641.3 Q853.3 663.3 906.7 636.2 Q960.0 609.1 1013.3 579.7 Q1066.7 550.3 1120.0 517.8 Q1173.3 485.3 1226.7 508.2 Q1280.0 531.2 1333.3 529.2 Q1386.7 527.1 1440.0 540.9 Q1493.3 554.6 1546.7 521.7 L1600 488.7 L1600 900 Z" fill="hsl(224.5 32.9% 16.6%)"/><path d="M0 900 L0 611.2 Q0.0 611.2 42.1 617.2 Q84.2 623.1 126.3 615.5 Q168.4 607.8 210.5 619.9 Q252.6 631.9 294.7 624.8 Q336.8 617.6 378.9 618.9 Q421.1 620.2 463.2 616.9 Q505.3 613.7 547.4 623.3 Q589.5 633.0 631.6 654.1 Q673.7 675.2 715.8 675.1 Q757.9 675.0 800.0 689.9 Q842.1 704.8 884.2 695.3 Q926.3 685.8 968.4 671.9 Q1010.5 657.9 1052.6 650.6 Q1094.7 643.3 1136.8 622.7 Q1178.9 602.1 1221.1 609.3 Q1263.2 616.6 1305.3 608.1 Q1347.4 599.6 1389.5 615.7 Q1431.6 631.8 1473.7 626.1 Q1515.8 620.3 1557.9 614.9 L1600 609.5 L1600 900 Z" fill="hsl(226.0 31.7% 13.4%)"/><path d="M0 900 L0 669.2 Q0.0 669.2 40.0 687.0 Q80.0 704.9 120.0 699.7 Q160.0 694.6 200.0 692.8 Q240.0 690.9 280.0 696.2 Q320.0 701.5 360.0 700.8 Q400.0 700.2 440.0 713.8 Q480.0 727.5 520.0 727.2 Q560.0 727.0 600.0 727.6 Q640.0 728.2 680.0 737.0 Q720.0 745.8 760.0 731.9 Q800.0 718.0 840.0 711.0 Q880.0 703.9 920.0 692.5 Q960.0 681.2 1000.0 670.5 Q1040.0 659.8 1080.0 661.7 Q1120.0 663.7 1160.0 667.0 Q1200.0 670.4 1240.0 671.4 Q1280.0 672.4 1320.0 685.8 Q1360.0 699.2 1400.0 698.1 Q1440.0 696.9 1480.0 700.7 Q1520.0 704.4 1560.0 705.2 L1600 705.9 L1600 900 Z" fill="hsl(228.0 30.0% 9.0%)"/><path d="M262.7 900 C79.3 741.3357986034825 672.1 652.7 678.1 582.7 L680.1 582.7 C688.1 652.7 591.3 741.3357986034825 774.7 900 Z" fill="hsl(228.0 22.0% 13.0%)"/><path d="M518.7 900 C335.3 741.3357986034825 678.1 642.7 679.1 582.7" fill="none" stroke="hsl(45 90% 70% / 0.85)" stroke-width="7" stroke-dasharray="46 38" stroke-linecap="round"/><rect width="1600" height="900" fill="url(#g1c6nxp5-vig)"/></svg>