<svg xmlns="http://www.w3.org/2000/svg" viewBox="0 0 1600 900" role="img" preserveAspectRatio="xMidYMid slice"><title>mae-hong-son-loop-thai-lan s1</title><defs><linearGradient id="gxa8lss-sky" x1="0" y1="0" x2="0" y2="1"><stop offset="0%" stop-color="hsl(265.0 38.0% 26.0%)"/><stop offset="50%" stop-color="hsl(348.0 55.0% 46.0%)"/><stop offset="100%" stop-color="hsl(22.0 90.0% 58.0%)"/></linearGradient><radialGradient id="gxa8lss-glow"><stop offset="0%" stop-color="hsl(24.0 95.0% 66.0% / 0.850)"/><stop offset="45%" stop-color="hsl(24.0 95.0% 66.0% / 0.250)"/><stop offset="100%" stop-color="hsl(24.0 95.0% 66.0% / 0.000)"/></radialGradient><radialGradient id="gxa8lss-vig" cx="50%" cy="42%" r="75%"><stop offset="70%" stop-color="hsl(0 0% 0% / 0)"/><stop offset="100%" stop-color="hsl(0 0% 0% / 0.18)"/></radialGradient></defs><rect width="1600" height="590.7" fill="url(#gxa8lss-sky)"/><rect y="589.7" width="1600" height="310.3" fill="hsl(305.5 43.5% 25.0%)"/><circle cx="944.6" cy="519.8" r="230" fill="url(#gxa8lss-glow)"/><circle cx="944.6" cy="519.8" r="78" fill="hsl(24.0 95.0% 66.0%)"/><path d="M0 900 L0 567.1 Q0.0 567.1 40.0 576.2 Q80.0 585.3 120.0 546.9 Q160.0 508.6 200.0 499.5 Q240.0 490.5 280.0 448.3 Q320.0 406.0 360.0 359.6 Q400.0 313.1 440.0 309.3 Q480.0 305.5 520.0 339.1 Q560.0 372.8 600.0 421.8 Q640.0 470.9 680.0 462.9 Q720.0 454.8 760.0 466.2 Q800.0 477.6 840.0 492.1 Q880.0 506.6 920.0 506.6 Q960.0 506.6 1000.0 482.7 Q1040.0 458.8 1080.0 469.9 Q1120.0 481.1 1160.0 474.8 Q1200.0 468.6 1240.0 461.2 Q1280.0 453.8 1320.0 393.1 Q1360.0 332.4 1400.0 320.9 Q1440.0 309.5 1480.0 335.3 Q1520.0 361.1 1560.0 366.0 L1600 370.8 L1600 900 Z" fill="hsl(359.6 76.4% 48.3%)"/><path d="M0 900 L0 501.6 Q0.0 501.6 47.1 512.7 Q94.1 523.8 141.2 533.0 Q188.2 542.2 235.3 493.2 Q282.4 444.1 329.4 410.6 Q376.5 377.0 423.5 379.5 Q470.6 381.9 517.6 417.1 Q564.7 452.4 611.8 485.3 Q658.8 518.3 705.9 543.1 Q752.9 567.9 800.0 549.0 Q847.1 530.2 894.1 534.4 Q941.2 538.7 988.2 555.0 Q1035.3 571.3 1082.4 552.3 Q1129.4 533.2 1176.5 481.4 Q1223.5 429.6 1270.6 405.3 Q1317.6 381.0 1364.7 371.0 Q1411.8 361.1 1458.8 409.4 Q1505.9 457.6 1552.9 497.5 L1600 537.4 L1600 900 Z" fill="hsl(354.6 73.3% 46.2%)"/><path d="M0 900 L0 517.7 Q0.0 517.7 44.4 558.4 Q88.9 599.0 133.3 600.7 Q177.8 602.4 222.2 602.3 Q266.7 602.2 311.1 605.3 Q355.6 608.4 400.0 598.4 Q444.4 588.5 488.9 589.5 Q533.3 590.4 577.8 607.6 Q622.2 624.7 666.7 637.9 Q711.1 651.0 755.6 613.4 Q800.0 575.7 844.4 547.6 Q888.9 519.5 933.3 500.4 Q977.8 481.3 1022.2 477.7 Q1066.7 474.2 1111.1 473.1 Q1155.6 472.0 1200.0 510.5 Q1244.4 549.0 1288.9 563.9 Q1333.3 578.7 1377.8 561.4 Q1422.2 544.1 1466.7 559.8 Q1511.1 575.6 1555.6 586.1 L1600 596.6 L1600 900 Z" fill="hsl(339.7 64.3% 39.7%)"/><path d="M0 900 L0 676.0 Q0.0 676.0 38.1 678.6 Q76.2 681.2 114.3 671.0 Q152.4 660.9 190.5 657.9 Q228.6 655.0 266.7 667.2 Q304.8 679.4 342.9 674.5 Q381.0 669.7 419.0 685.9 Q457.1 702.1 495.2 687.2 Q533.3 672.4 571.4 659.0 Q609.5 645.5 647.6 631.0 Q685.7 616.4 723.8 600.5 Q761.9 584.7 800.0 588.6 Q838.1 592.5 876.2 599.5 Q914.3 606.5 952.4 607.9 Q990.5 609.2 1028.6 629.9 Q1066.7 650.7 1104.8 656.8 Q1142.9 663.0 1181.0 652.4 Q1219.0 641.9 1257.1 647.8 Q1295.2 653.7 1333.3 654.5 Q1371.4 655.4 1409.5 663.3 Q1447.6 671.3 1485.7 692.2 Q1523.8 713.2 1561.9 706.4 L1600 699.7 L1600 900 Z" fill="hsl(314.8 49.2% 29.0%)"/><path d="M0 900 L0 721.8 Q0.0 721.8 42.1 725.5 Q84.2 729.1 126.3 727.5 Q168.4 726.0 210.5 709.4 Q252.6 692.7 294.7 688.1 Q336.8 683.4 378.9 675.8 Q421.1 668.2 463.2 672.9 Q505.3 677.6 547.4 693.4 Q589.5 709.2 631.6 729.6 Q673.7 749.9 715.8 748.0 Q757.9 746.0 800.0 734.1 Q842.1 722.1 884.2 722.5 Q926.3 723.0 968.4 712.8 Q1010.5 702.6 1052.6 698.4 Q1094.7 694.2 1136.8 702.6 Q1178.9 711.1 1221.1 703.3 Q1263.2 695.5 1305.3 681.2 Q1347.4 666.9 1389.5 677.1 Q1431.6 687.3 1473.7 697.4 Q1515.8 707.5 1557.9 718.0 L1600 728.4 L1600 900 Z" fill="hsl(280.0 28.0% 14.0%)"/><path d="M855.5 900 C772.5 747.3520286027342 685.1 664.7 691.1 594.7 L693.1 594.7 C701.1 664.7 1284.5 747.3520286027342 1367.5 900 Z" fill="hsl(280.0 15.4% 21.0%)"/><path d="M1111.5 900 C1028.5 747.3520286027342 691.1 654.7 692.1 594.7" fill="none" stroke="hsl(45 30% 92% / 0.8)" stroke-width="7" stroke-dasharray="46 38" stroke-linecap="round"/><rect width="1600" height="900" fill="url(#gxa8lss-vig)"/></svg>