<svg xmlns="http://www.w3.org/2000/svg" viewBox="0 0 1600 900" role="img" preserveAspectRatio="xMidYMid slice"><title>y-ty-mua-lua-chin hero</title><defs><linearGradient id="g13wu1sg-sky" x1="0" y1="0" x2="0" y2="1"><stop offset="0%" stop-color="hsl(202.0 50.0% 60.0%)"/><stop offset="50%" stop-color="hsl(190.0 35.0% 74.0%)"/><stop offset="100%" stop-color="hsl(48.0 60.0% 78.0%)"/></linearGradient><radialGradient id="g13wu1sg-glow"><stop offset="0%" stop-color="hsl(46.0 85.0% 82.0% / 0.850)"/><stop offset="45%" stop-color="hsl(46.0 85.0% 82.0% / 0.250)"/><stop offset="100%" stop-color="hsl(46.0 85.0% 82.0% / 0.000)"/></radialGradient><radialGradient id="g13wu1sg-vig" cx="50%" cy="42%" r="75%"><stop offset="70%" stop-color="hsl(0 0% 0% / 0)"/><stop offset="100%" stop-color="hsl(0 0% 0% / 0.18)"/></radialGradient></defs><rect width="1600" height="416.6" fill="url(#g13wu1sg-sky)"/><rect y="415.6" width="1600" height="484.4" fill="hsl(124.5 36.0% 36.0%)"/><circle cx="1097.0" cy="250.0" r="110" fill="url(#g13wu1sg-glow)"/><circle cx="1097.0" cy="250.0" r="48" fill="hsl(46.0 85.0% 82.0%)"/><path d="M0 900 L0 277.7 Q0.0 277.7 57.1 252.5 Q114.3 227.3 171.4 252.5 Q228.6 277.7 285.7 298.5 Q342.9 319.3 400.0 379.9 Q457.1 440.6 514.3 417.5 Q571.4 394.5 628.6 371.2 Q685.7 347.8 742.9 312.1 Q800.0 276.5 857.1 277.3 Q914.3 278.1 971.4 285.7 Q1028.6 293.3 1085.7 261.0 Q1142.9 228.7 1200.0 230.7 Q1257.1 232.8 1314.3 231.5 Q1371.4 230.2 1428.6 305.1 Q1485.7 380.0 1542.9 385.8 L1600 391.7 L1600 900 Z" fill="hsl(70.4 53.0% 65.7%)"/><path d="M0 900 L0 395.7 Q0.0 395.7 50.0 418.8 Q100.0 441.8 150.0 424.5 Q200.0 407.3 250.0 433.0 Q300.0 458.7 350.0 466.1 Q400.0 473.6 450.0 490.7 Q500.0 507.9 550.0 474.8 Q600.0 441.7 650.0 418.5 Q700.0 395.2 750.0 359.5 Q800.0 323.9 850.0 334.3 Q900.0 344.7 950.0 367.5 Q1000.0 390.3 1050.0 396.3 Q1100.0 402.3 1150.0 415.4 Q1200.0 428.5 1250.0 412.1 Q1300.0 395.6 1350.0 426.7 Q1400.0 457.7 1450.0 457.8 Q1500.0 457.9 1550.0 479.5 L1600 501.1 L1600 900 Z" fill="hsl(79.3 50.2% 60.8%)"/><path d="M0 900 L0 498.8 Q0.0 498.8 38.1 481.7 Q76.2 464.6 114.3 471.1 Q152.4 477.6 190.5 485.7 Q228.6 493.7 266.7 504.3 Q304.8 515.0 342.9 535.5 Q381.0 556.0 419.0 566.1 Q457.1 576.1 495.2 565.1 Q533.3 554.1 571.4 547.5 Q609.5 540.9 647.6 550.5 Q685.7 560.1 723.8 564.2 Q761.9 568.3 800.0 556.3 Q838.1 544.3 876.2 549.0 Q914.3 553.6 952.4 539.2 Q990.5 524.8 1028.6 495.3 Q1066.7 465.9 1104.8 458.7 Q1142.9 451.4 1181.0 467.5 Q1219.0 483.6 1257.1 496.2 Q1295.2 508.9 1333.3 521.4 Q1371.4 534.0 1409.5 549.2 Q1447.6 564.5 1485.7 565.7 Q1523.8 566.9 1561.9 554.1 L1600 541.3 L1600 900 Z" fill="hsl(105.8 41.9% 46.3%)"/><path d="M0 900 L0 613.2 Q0.0 613.2 38.1 633.8 Q76.2 654.4 114.3 664.4 Q152.4 674.3 190.5 671.3 Q228.6 668.3 266.7 662.6 Q304.8 657.0 342.9 648.6 Q381.0 640.1 419.0 630.6 Q457.1 621.0 495.2 605.5 Q533.3 589.9 571.4 581.4 Q609.5 572.9 647.6 584.6 Q685.7 596.3 723.8 610.7 Q761.9 625.0 800.0 635.6 Q838.1 646.1 876.2 647.5 Q914.3 648.9 952.4 655.9 Q990.5 663.0 1028.6 662.7 Q1066.7 662.4 1104.8 655.9 Q1142.9 649.5 1181.0 636.0 Q1219.0 622.6 1257.1 623.3 Q1295.2 624.0 1333.3 626.4 Q1371.4 628.8 1409.5 626.4 Q1447.6 623.9 1485.7 618.1 Q1523.8 612.4 1561.9 610.6 L1600 608.9 L1600 900 Z" fill="hsl(150.0 28.0% 22.0%)"/><g><path d="M0 900 L0 416.6 L100.0 426.7 L200.0 424.4 L300.0 420.4 L400.0 415.6 L500.0 411.0 L600.0 407.7 L700.0 406.3 L800.0 407.1 L900.0 410.1 L1000.0 414.4 L1100.0 419.3 L1200.0 423.6 L1300.0 426.3 L1400.0 427.0 L1500.0 425.4 L1600.0 421.9 L1600 900 Z" fill="hsl(95.0 45.0% 42.0%)"/><path d="M0 900 L0 453.8 L100.0 462.2 L200.0 456.9 L300.0 450.8 L400.0 445.5 L500.0 442.2 L600.0 441.8 L700.0 444.3 L800.0 449.2 L900.0 455.2 L1000.0 460.9 L1100.0 464.8 L1200.0 466.1 L1300.0 464.3 L1400.0 459.9 L1500.0 454.0 L1600.0 448.1 L1600 900 Z" fill="hsl(73.5 48.7% 46.7%)"/><path d="M0 900 L0 491.0 L100.0 477.0 L200.0 479.7 L300.0 485.5 L400.0 492.8 L500.0 499.7 L600.0 504.1 L700.0 504.9 L800.0 501.9 L900.0 495.9 L1000.0 488.5 L1100.0 481.8 L1200.0 477.7 L1300.0 477.2 L1400.0 480.5 L1500.0 486.8 L1600.0 494.2 L1600 900 Z" fill="hsl(53.7 52.0% 49.1%)"/><path d="M0 900 L0 528.2 L100.0 537.9 L200.0 543.2 L300.0 543.8 L400.0 539.6 L500.0 531.9 L600.0 523.1 L700.0 515.8 L800.0 512.4 L900.0 513.8 L1000.0 519.6 L1100.0 528.1 L1200.0 536.6 L1300.0 542.5 L1400.0 544.0 L1500.0 540.7 L1600.0 533.5 L1600 900 Z" fill="hsl(96.8 37.5% 33.7%)"/><path d="M0 900 L0 565.4 L100.0 553.3 L200.0 548.1 L300.0 548.7 L400.0 555.0 L500.0 564.9 L600.0 574.9 L700.0 581.6 L800.0 582.9 L900.0 578.2 L1000.0 569.1 L1100.0 558.7 L1200.0 550.7 L1300.0 547.6 L1400.0 550.6 L1500.0 558.6 L1600.0 568.9 L1600 900 Z" fill="hsl(85.7 40.8% 37.9%)"/><path d="M0 900 L0 602.5 L100.0 619.1 L200.0 622.1 L300.0 617.8 L400.0 607.8 L500.0 595.8 L600.0 586.3 L700.0 582.9 L800.0 586.9 L900.0 596.8 L1000.0 608.8 L1100.0 618.5 L1200.0 622.2 L1300.0 618.5 L1400.0 608.9 L1500.0 596.9 L1600.0 587.0 L1600 900 Z" fill="hsl(67.6 43.7% 41.7%)"/><path d="M0 900 L0 639.7 L100.0 621.4 L200.0 632.0 L300.0 645.8 L400.0 657.1 L500.0 661.2 L600.0 656.5 L700.0 645.0 L800.0 631.2 L900.0 621.0 L1000.0 618.5 L1100.0 624.7 L1200.0 637.1 L1300.0 650.5 L1400.0 659.6 L1500.0 660.5 L1600.0 652.8 L1600 900 Z" fill="hsl(51.2 46.1% 43.4%)"/><path d="M0 900 L0 676.9 L100.0 700.0 L200.0 696.8 L300.0 684.7 L400.0 669.1 L500.0 657.0 L600.0 653.8 L700.0 661.0 L800.0 675.3 L900.0 690.4 L1000.0 699.4 L1100.0 698.3 L1200.0 687.6 L1300.0 672.2 L1400.0 658.8 L1500.0 653.6 L1600.0 658.8 L1600 900 Z" fill="hsl(85.8 34.1% 30.7%)"/><path d="M0 900 L0 714.1 L100.0 738.8 L200.0 735.9 L300.0 722.4 L400.0 704.9 L500.0 691.8 L600.0 689.6 L700.0 699.3 L800.0 716.2 L900.0 732.1 L1000.0 739.2 L1100.0 734.1 L1200.0 719.2 L1300.0 701.8 L1400.0 690.4 L1500.0 690.6 L1600.0 702.1 L1600 900 Z" fill="hsl(76.4 36.5% 33.9%)"/><path d="M0 900 L0 751.3 L100.0 762.4 L200.0 776.1 L300.0 776.7 L400.0 763.9 L500.0 744.4 L600.0 728.6 L700.0 724.7 L800.0 734.8 L900.0 753.6 L1000.0 771.2 L1100.0 778.3 L1200.0 771.1 L1300.0 753.5 L1400.0 734.7 L1500.0 724.6 L1600.0 728.6 L1600 900 Z" fill="hsl(61.7 38.6% 36.6%)"/><path d="M0 900 L0 788.5 L100.0 762.7 L200.0 779.2 L300.0 800.9 L400.0 815.6 L500.0 814.8 L600.0 799.0 L700.0 777.3 L800.0 761.9 L900.0 761.6 L1000.0 776.6 L1100.0 798.3 L1200.0 814.5 L1300.0 815.8 L1400.0 801.6 L1500.0 779.9 L1600.0 763.1 L1600 900 Z" fill="hsl(48.7 40.2% 37.6%)"/><path d="M0 900 L0 825.6 L100.0 852.8 L200.0 854.8 L300.0 838.9 L400.0 814.9 L500.0 797.5 L600.0 797.3 L700.0 814.4 L800.0 838.4 L900.0 854.6 L1000.0 853.1 L1100.0 834.7 L1200.0 810.8 L1300.0 796.0 L1400.0 799.3 L1500.0 818.7 L1600.0 842.3 L1600 900 Z" fill="hsl(74.8 30.7% 27.6%)"/><path d="M0 900 L0 862.8 L100.0 888.8 L200.0 894.8 L300.0 879.9 L400.0 853.8 L500.0 833.6 L600.0 832.6 L700.0 851.4 L800.0 877.7 L900.0 894.3 L1000.0 890.2 L1100.0 868.2 L1200.0 842.6 L1300.0 830.3 L1400.0 839.3 L1500.0 863.7 L1600.0 887.5 L1600 900 Z" fill="hsl(67.1 32.3% 29.8%)"/></g><rect width="1600" height="900" fill="url(#g13wu1sg-vig)"/></svg>