<svg xmlns="http://www.w3.org/2000/svg" viewBox="0 0 1600 900" role="img" preserveAspectRatio="xMidYMid slice"><title>y-ty-mua-lua-chin s2</title><defs><linearGradient id="g16qupg5-sky" x1="0" y1="0" x2="0" y2="1"><stop offset="0%" stop-color="hsl(210.0 14.0% 74.0%)"/><stop offset="50%" stop-color="hsl(210.0 12.0% 82.0%)"/><stop offset="100%" stop-color="hsl(36.0 18.0% 86.0%)"/></linearGradient><radialGradient id="g16qupg5-glow"><stop offset="0%" stop-color="hsl(40.0 30.0% 92.0% / 0.850)"/><stop offset="45%" stop-color="hsl(40.0 30.0% 92.0% / 0.250)"/><stop offset="100%" stop-color="hsl(40.0 30.0% 92.0% / 0.000)"/></radialGradient><linearGradient id="g16qupg5-fog0" x1="0" y1="0" x2="0" y2="1"><stop offset="0%" stop-color="hsl(40 20% 96% / 0)"/><stop offset="55%" stop-color="hsl(40 20% 96% / 0.33)"/><stop offset="100%" stop-color="hsl(40 20% 96% / 0)"/></linearGradient><linearGradient id="g16qupg5-fog3" x1="0" y1="0" x2="0" y2="1"><stop offset="0%" stop-color="hsl(40 20% 96% / 0)"/><stop offset="55%" stop-color="hsl(40 20% 96% / 0.24)"/><stop offset="100%" stop-color="hsl(40 20% 96% / 0)"/></linearGradient><linearGradient id="g16qupg5-fog4" x1="0" y1="0" x2="0" y2="1"><stop offset="0%" stop-color="hsl(40 20% 96% / 0)"/><stop offset="55%" stop-color="hsl(40 20% 96% / 0.20)"/><stop offset="100%" stop-color="hsl(40 20% 96% / 0)"/></linearGradient><linearGradient id="g16qupg5-fog5" x1="0" y1="0" x2="0" y2="1"><stop offset="0%" stop-color="hsl(40 20% 96% / 0)"/><stop offset="55%" stop-color="hsl(40 20% 96% / 0.37)"/><stop offset="100%" stop-color="hsl(40 20% 96% / 0)"/></linearGradient><linearGradient id="g16qupg5-fog6" x1="0" y1="0" x2="0" y2="1"><stop offset="0%" stop-color="hsl(40 20% 96% / 0)"/><stop offset="55%" stop-color="hsl(40 20% 96% / 0.21)"/><stop offset="100%" stop-color="hsl(40 20% 96% / 0)"/></linearGradient><radialGradient id="g16qupg5-vig" cx="50%" cy="42%" r="75%"><stop offset="70%" stop-color="hsl(0 0% 0% / 0)"/><stop offset="100%" stop-color="hsl(0 0% 0% / 0.18)"/></radialGradient></defs><rect width="1600" height="566.7" fill="url(#g16qupg5-sky)"/><rect y="565.7" width="1600" height="334.3" fill="hsl(168.0 16.5% 44.0%)"/><circle cx="858.3" cy="255.0" r="90" fill="url(#g16qupg5-glow)"/><circle cx="858.3" cy="255.0" r="46" fill="hsl(40.0 30.0% 92.0%)"/><path d="M0 900 L0 408.9 Q0.0 408.9 44.4 431.0 Q88.9 453.1 133.3 483.3 Q177.8 513.6 222.2 537.6 Q266.7 561.6 311.1 533.8 Q355.6 506.0 400.0 486.5 Q444.4 467.0 488.9 446.6 Q533.3 426.2 577.8 465.7 Q622.2 505.2 666.7 472.3 Q711.1 439.4 755.6 437.7 Q800.0 436.0 844.4 420.0 Q888.9 404.0 933.3 356.7 Q977.8 309.4 1022.2 311.6 Q1066.7 313.8 1111.1 314.3 Q1155.6 314.7 1200.0 355.0 Q1244.4 395.3 1288.9 422.9 Q1333.3 450.6 1377.8 417.8 Q1422.2 385.1 1466.7 407.8 Q1511.1 430.5 1555.6 429.2 L1600 427.9 L1600 900 Z" fill="hsl(74.7 17.6% 73.7%)"/><rect x="0" y="457.9" width="1600" height="289.7" fill="url(#g16qupg5-fog0)"/><path d="M0 900 L0 586.6 Q0.0 586.6 47.1 557.9 Q94.1 529.3 141.2 514.5 Q188.2 499.8 235.3 465.0 Q282.4 430.2 329.4 408.7 Q376.5 387.2 423.5 405.2 Q470.6 423.2 517.6 420.4 Q564.7 417.6 611.8 425.5 Q658.8 433.3 705.9 470.1 Q752.9 506.8 800.0 499.0 Q847.1 491.1 894.1 495.1 Q941.2 499.2 988.2 497.3 Q1035.3 495.3 1082.4 504.0 Q1129.4 512.7 1176.5 481.9 Q1223.5 451.1 1270.6 446.9 Q1317.6 442.7 1364.7 436.4 Q1411.8 430.1 1458.8 390.8 Q1505.9 351.4 1552.9 372.3 L1600 393.1 L1600 900 Z" fill="hsl(77.5 17.5% 72.8%)"/><path d="M0 900 L0 456.0 Q0.0 456.0 53.3 427.7 Q106.7 399.4 160.0 424.2 Q213.3 449.0 266.7 450.6 Q320.0 452.1 373.3 493.2 Q426.7 534.2 480.0 546.4 Q533.3 558.7 586.7 549.1 Q640.0 539.6 693.3 548.0 Q746.7 556.4 800.0 543.9 Q853.3 531.5 906.7 556.3 Q960.0 581.1 1013.3 583.0 Q1066.7 584.9 1120.0 557.5 Q1173.3 530.1 1226.7 511.6 Q1280.0 493.1 1333.3 473.9 Q1386.7 454.7 1440.0 448.6 Q1493.3 442.6 1546.7 469.8 L1600 496.9 L1600 900 Z" fill="hsl(85.9 17.4% 70.1%)"/><path d="M0 900 L0 440.1 Q0.0 440.1 44.4 477.9 Q88.9 515.8 133.3 532.2 Q177.8 548.7 222.2 568.0 Q266.7 587.2 311.1 588.3 Q355.6 589.4 400.0 573.8 Q444.4 558.2 488.9 570.9 Q533.3 583.6 577.8 569.2 Q622.2 554.9 666.7 556.4 Q711.1 557.9 755.6 536.2 Q800.0 514.6 844.4 481.5 Q888.9 448.4 933.3 478.6 Q977.8 508.9 1022.2 522.8 Q1066.7 536.7 1111.1 564.4 Q1155.6 592.0 1200.0 626.1 Q1244.4 660.2 1288.9 627.8 Q1333.3 595.4 1377.8 589.6 Q1422.2 583.7 1466.7 557.4 Q1511.1 531.1 1555.6 518.5 L1600 505.9 L1600 900 Z" fill="hsl(99.9 17.3% 65.7%)"/><rect x="0" y="573.0" width="1600" height="191.5" fill="url(#g16qupg5-fog3)"/><path d="M0 900 L0 538.0 Q0.0 538.0 53.3 590.8 Q106.7 643.6 160.0 632.8 Q213.3 622.0 266.7 614.5 Q320.0 606.9 373.3 593.2 Q426.7 579.5 480.0 589.8 Q533.3 600.1 586.7 556.3 Q640.0 512.5 693.3 502.8 Q746.7 493.1 800.0 464.3 Q853.3 435.5 906.7 495.5 Q960.0 555.5 1013.3 571.4 Q1066.7 587.3 1120.0 619.3 Q1173.3 651.3 1226.7 616.8 Q1280.0 582.3 1333.3 593.4 Q1386.7 604.4 1440.0 578.5 Q1493.3 552.5 1546.7 558.3 L1600 564.1 L1600 900 Z" fill="hsl(119.5 17.1% 59.4%)"/><rect x="0" y="584.4" width="1600" height="219.4" fill="url(#g16qupg5-fog4)"/><path d="M0 900 L0 598.7 Q0.0 598.7 50.0 612.3 Q100.0 625.9 150.0 622.7 Q200.0 619.4 250.0 624.1 Q300.0 628.8 350.0 633.2 Q400.0 637.5 450.0 630.9 Q500.0 624.3 550.0 646.2 Q600.0 668.1 650.0 671.8 Q700.0 675.4 750.0 668.4 Q800.0 661.4 850.0 655.0 Q900.0 648.6 950.0 620.7 Q1000.0 592.8 1050.0 582.0 Q1100.0 571.1 1150.0 580.1 Q1200.0 589.0 1250.0 608.7 Q1300.0 628.3 1350.0 646.5 Q1400.0 664.6 1450.0 653.2 Q1500.0 641.7 1550.0 650.3 L1600 658.9 L1600 900 Z" fill="hsl(144.8 16.8% 51.4%)"/><rect x="0" y="648.7" width="1600" height="128.2" fill="url(#g16qupg5-fog5)"/><path d="M0 900 L0 697.8 Q0.0 697.8 42.1 699.2 Q84.2 700.5 126.3 703.0 Q168.4 705.4 210.5 694.1 Q252.6 682.8 294.7 661.6 Q336.8 640.5 378.9 646.7 Q421.1 652.9 463.2 660.4 Q505.3 667.8 547.4 655.9 Q589.5 643.9 631.6 635.4 Q673.7 626.9 715.8 612.0 Q757.9 597.1 800.0 604.3 Q842.1 611.5 884.2 639.6 Q926.3 667.7 968.4 672.8 Q1010.5 677.9 1052.6 684.6 Q1094.7 691.3 1136.8 696.7 Q1178.9 702.1 1221.1 687.2 Q1263.2 672.3 1305.3 669.4 Q1347.4 666.6 1389.5 667.5 Q1431.6 668.3 1473.7 658.2 Q1515.8 648.1 1557.9 643.1 L1600 638.0 L1600 900 Z" fill="hsl(175.6 16.4% 41.6%)"/><rect x="0" y="670.5" width="1600" height="132.9" fill="url(#g16qupg5-fog6)"/><path d="M0 900 L0 705.2 Q0.0 705.2 42.1 716.8 Q84.2 728.4 126.3 716.4 Q168.4 704.4 210.5 704.0 Q252.6 703.7 294.7 708.7 Q336.8 713.7 378.9 716.4 Q421.1 719.2 463.2 721.8 Q505.3 724.4 547.4 704.9 Q589.5 685.5 631.6 667.8 Q673.7 650.1 715.8 657.2 Q757.9 664.4 800.0 658.7 Q842.1 653.1 884.2 671.2 Q926.3 689.3 968.4 700.7 Q1010.5 712.0 1052.6 699.9 Q1094.7 687.8 1136.8 703.8 Q1178.9 719.8 1221.1 725.5 Q1263.2 731.2 1305.3 728.1 Q1347.4 725.0 1389.5 727.7 Q1431.6 730.4 1473.7 708.7 Q1515.8 686.9 1557.9 667.5 L1600 648.1 L1600 900 Z" fill="hsl(212.0 16.0% 30.0%)"/><rect width="1600" height="900" fill="url(#g16qupg5-vig)"/></svg>