<svg xmlns="http://www.w3.org/2000/svg" viewBox="0 0 1600 900" role="img" preserveAspectRatio="xMidYMid slice"><title>y-ty-mua-lua-chin s1</title><defs><linearGradient id="gd6o3nc-sky" x1="0" y1="0" x2="0" y2="1"><stop offset="0%" stop-color="hsl(202.0 50.0% 60.0%)"/><stop offset="50%" stop-color="hsl(190.0 35.0% 74.0%)"/><stop offset="100%" stop-color="hsl(48.0 60.0% 78.0%)"/></linearGradient><radialGradient id="gd6o3nc-glow"><stop offset="0%" stop-color="hsl(46.0 85.0% 82.0% / 0.850)"/><stop offset="45%" stop-color="hsl(46.0 85.0% 82.0% / 0.250)"/><stop offset="100%" stop-color="hsl(46.0 85.0% 82.0% / 0.000)"/></radialGradient><radialGradient id="gd6o3nc-vig" cx="50%" cy="42%" r="75%"><stop offset="70%" stop-color="hsl(0 0% 0% / 0)"/><stop offset="100%" stop-color="hsl(0 0% 0% / 0.18)"/></radialGradient></defs><rect width="1600" height="448.6" fill="url(#gd6o3nc-sky)"/><rect y="447.6" width="1600" height="452.4" fill="hsl(124.5 36.0% 36.0%)"/><circle cx="451.1" cy="269.2" r="110" fill="url(#gd6o3nc-glow)"/><circle cx="451.1" cy="269.2" r="48" fill="hsl(46.0 85.0% 82.0%)"/><path d="M0 900 L0 307.1 Q0.0 307.1 50.0 311.2 Q100.0 315.4 150.0 350.1 Q200.0 384.8 250.0 417.1 Q300.0 449.4 350.0 441.4 Q400.0 433.5 450.0 428.1 Q500.0 422.8 550.0 376.1 Q600.0 329.3 650.0 306.3 Q700.0 283.3 750.0 271.0 Q800.0 258.7 850.0 264.2 Q900.0 269.7 950.0 311.0 Q1000.0 352.2 1050.0 358.2 Q1100.0 364.2 1150.0 384.1 Q1200.0 404.0 1250.0 392.1 Q1300.0 380.2 1350.0 377.9 Q1400.0 375.6 1450.0 384.7 Q1500.0 393.8 1550.0 383.6 L1600 373.4 L1600 900 Z" fill="hsl(70.4 53.0% 65.7%)"/><path d="M0 900 L0 396.3 Q0.0 396.3 50.0 434.2 Q100.0 472.1 150.0 469.9 Q200.0 467.8 250.0 488.3 Q300.0 508.8 350.0 496.5 Q400.0 484.2 450.0 471.0 Q500.0 457.8 550.0 462.2 Q600.0 466.7 650.0 450.6 Q700.0 434.5 750.0 433.5 Q800.0 432.5 850.0 423.9 Q900.0 415.3 950.0 409.2 Q1000.0 403.1 1050.0 436.0 Q1100.0 468.9 1150.0 486.6 Q1200.0 504.4 1250.0 522.0 Q1300.0 539.6 1350.0 519.0 Q1400.0 498.4 1450.0 461.1 Q1500.0 423.7 1550.0 409.5 L1600 395.4 L1600 900 Z" fill="hsl(79.3 50.2% 60.8%)"/><path d="M0 900 L0 577.2 Q0.0 577.2 44.4 591.0 Q88.9 604.9 133.3 585.2 Q177.8 565.6 222.2 533.4 Q266.7 501.1 311.1 500.9 Q355.6 500.6 400.0 487.9 Q444.4 475.1 488.9 490.4 Q533.3 505.6 577.8 511.7 Q622.2 517.8 666.7 505.6 Q711.1 493.3 755.6 498.5 Q800.0 503.6 844.4 497.3 Q888.9 490.9 933.3 517.4 Q977.8 543.9 1022.2 562.3 Q1066.7 580.7 1111.1 580.1 Q1155.6 579.4 1200.0 587.6 Q1244.4 595.8 1288.9 576.3 Q1333.3 556.9 1377.8 560.9 Q1422.2 564.9 1466.7 567.4 Q1511.1 569.9 1555.6 567.3 L1600 564.8 L1600 900 Z" fill="hsl(105.8 41.9% 46.3%)"/><path d="M0 900 L0 657.2 Q0.0 657.2 50.0 653.1 Q100.0 649.0 150.0 664.0 Q200.0 679.1 250.0 679.1 Q300.0 679.1 350.0 676.8 Q400.0 674.4 450.0 664.9 Q500.0 655.4 550.0 635.4 Q600.0 615.3 650.0 618.6 Q700.0 621.9 750.0 618.8 Q800.0 615.7 850.0 627.0 Q900.0 638.3 950.0 654.1 Q1000.0 669.9 1050.0 663.0 Q1100.0 656.1 1150.0 666.0 Q1200.0 675.9 1250.0 668.5 Q1300.0 661.1 1350.0 662.1 Q1400.0 663.0 1450.0 669.4 Q1500.0 675.9 1550.0 668.4 L1600 660.9 L1600 900 Z" fill="hsl(150.0 28.0% 22.0%)"/><g><path d="M0 900 L0 448.6 L100.0 453.0 L200.0 456.8 L300.0 458.8 L400.0 458.7 L500.0 456.3 L600.0 452.3 L700.0 447.5 L800.0 442.9 L900.0 439.6 L1000.0 438.3 L1100.0 439.2 L1200.0 442.2 L1300.0 446.6 L1400.0 451.4 L1500.0 455.7 L1600.0 458.4 L1600 900 Z" fill="hsl(95.0 45.0% 42.0%)"/><path d="M0 900 L0 483.4 L100.0 476.5 L200.0 482.3 L300.0 488.3 L400.0 493.1 L500.0 495.5 L600.0 494.9 L700.0 491.5 L800.0 486.1 L900.0 480.0 L1000.0 474.8 L1100.0 471.6 L1200.0 471.4 L1300.0 474.1 L1400.0 479.1 L1500.0 485.1 L1600.0 490.7 L1600 900 Z" fill="hsl(73.5 48.7% 46.7%)"/><path d="M0 900 L0 518.1 L100.0 504.5 L200.0 508.3 L300.0 514.8 L400.0 522.2 L500.0 528.4 L600.0 531.9 L700.0 531.5 L800.0 527.4 L900.0 520.7 L1000.0 513.4 L1100.0 507.3 L1200.0 504.2 L1300.0 504.9 L1400.0 509.3 L1500.0 516.1 L1600.0 523.4 L1600 900 Z" fill="hsl(53.7 52.0% 49.1%)"/><path d="M0 900 L0 552.8 L100.0 567.1 L200.0 561.1 L300.0 552.6 L400.0 544.1 L500.0 538.3 L600.0 537.0 L700.0 540.5 L800.0 547.8 L900.0 556.6 L1000.0 564.3 L1100.0 568.4 L1200.0 567.7 L1300.0 562.5 L1400.0 554.2 L1500.0 545.6 L1600.0 539.1 L1600 900 Z" fill="hsl(96.8 37.5% 33.7%)"/><path d="M0 900 L0 587.5 L100.0 583.7 L200.0 594.1 L300.0 602.2 L400.0 605.3 L500.0 602.4 L600.0 594.4 L700.0 584.1 L800.0 574.9 L900.0 570.1 L1000.0 571.2 L1100.0 577.8 L1200.0 587.8 L1300.0 597.7 L1400.0 604.1 L1500.0 604.9 L1600.0 599.8 L1600 900 Z" fill="hsl(85.7 40.8% 37.9%)"/><path d="M0 900 L0 622.2 L100.0 641.8 L200.0 638.8 L300.0 629.6 L400.0 617.6 L500.0 607.3 L600.0 602.7 L700.0 605.4 L800.0 614.4 L900.0 626.3 L1000.0 636.7 L1100.0 641.7 L1200.0 639.4 L1300.0 630.7 L1400.0 618.8 L1500.0 608.1 L1600.0 602.8 L1600 900 Z" fill="hsl(67.6 43.7% 41.7%)"/><path d="M0 900 L0 657.0 L100.0 638.0 L200.0 647.9 L300.0 661.6 L400.0 673.4 L500.0 678.4 L600.0 674.6 L700.0 663.6 L800.0 649.8 L900.0 639.0 L1000.0 635.5 L1100.0 640.9 L1200.0 652.9 L1300.0 666.5 L1400.0 676.2 L1500.0 678.0 L1600.0 671.2 L1600 900 Z" fill="hsl(51.2 46.1% 43.4%)"/><path d="M0 900 L0 691.7 L100.0 704.4 L200.0 689.3 L300.0 675.2 L400.0 668.5 L500.0 672.2 L600.0 684.6 L700.0 700.2 L800.0 712.0 L900.0 714.7 L1000.0 707.0 L1100.0 692.5 L1200.0 677.6 L1300.0 669.0 L1400.0 670.6 L1500.0 681.6 L1600.0 697.1 L1600 900 Z" fill="hsl(85.8 34.1% 30.7%)"/><path d="M0 900 L0 726.4 L100.0 707.4 L200.0 701.2 L300.0 707.3 L400.0 722.7 L500.0 739.9 L600.0 750.5 L700.0 749.4 L800.0 737.1 L900.0 719.6 L1000.0 705.4 L1100.0 701.4 L1200.0 709.6 L1300.0 726.0 L1400.0 742.6 L1500.0 751.2 L1600.0 747.8 L1600 900 Z" fill="hsl(76.4 36.5% 33.9%)"/><path d="M0 900 L0 761.1 L100.0 759.5 L200.0 741.7 L300.0 734.1 L400.0 740.8 L500.0 758.2 L600.0 777.1 L700.0 787.6 L800.0 784.2 L900.0 768.6 L1000.0 749.0 L1100.0 735.9 L1200.0 736.0 L1300.0 749.4 L1400.0 769.0 L1500.0 784.4 L1600.0 787.5 L1600 900 Z" fill="hsl(61.7 38.6% 36.6%)"/><path d="M0 900 L0 795.8 L100.0 814.1 L200.0 824.5 L300.0 818.6 L400.0 799.8 L500.0 778.7 L600.0 767.4 L700.0 772.2 L800.0 790.5 L900.0 811.9 L1000.0 824.1 L1100.0 820.2 L1200.0 802.5 L1300.0 781.0 L1400.0 767.9 L1500.0 770.7 L1600.0 787.8 L1600 900 Z" fill="hsl(48.7 40.2% 37.6%)"/><path d="M0 900 L0 830.6 L100.0 857.3 L200.0 860.0 L300.0 844.6 L400.0 820.7 L500.0 802.8 L600.0 801.9 L700.0 818.5 L800.0 842.5 L900.0 859.2 L1000.0 858.4 L1100.0 840.6 L1200.0 816.6 L1300.0 801.2 L1400.0 803.7 L1500.0 822.7 L1600.0 846.5 L1600 900 Z" fill="hsl(74.8 30.7% 27.6%)"/><path d="M0 900 L0 865.3 L100.0 879.4 L200.0 853.0 L300.0 834.7 L400.0 836.4 L500.0 857.1 L600.0 883.1 L700.0 897.4 L800.0 890.7 L900.0 867.3 L1000.0 842.6 L1100.0 832.7 L1200.0 844.3 L1300.0 869.5 L1400.0 892.0 L1500.0 897.0 L1600.0 881.1 L1600 900 Z" fill="hsl(67.1 32.3% 29.8%)"/></g><rect width="1600" height="900" fill="url(#gd6o3nc-vig)"/></svg>