<svg xmlns="http://www.w3.org/2000/svg" viewBox="0 0 1600 900" role="img" preserveAspectRatio="xMidYMid slice"><title>deo-ma-pi-leng-song-nho-que hero</title><defs><linearGradient id="gxb0hj1-sky" x1="0" y1="0" x2="0" y2="1"><stop offset="0%" stop-color="hsl(212.0 45.0% 38.0%)"/><stop offset="50%" stop-color="hsl(200.0 40.0% 56.0%)"/><stop offset="100%" stop-color="hsl(38.0 55.0% 70.0%)"/></linearGradient><radialGradient id="gxb0hj1-glow"><stop offset="0%" stop-color="hsl(42.0 80.0% 80.0% / 0.850)"/><stop offset="45%" stop-color="hsl(42.0 80.0% 80.0% / 0.250)"/><stop offset="100%" stop-color="hsl(42.0 80.0% 80.0% / 0.000)"/></radialGradient><linearGradient id="gxb0hj1-water" x1="0" y1="0" x2="0" y2="1"><stop offset="0%" stop-color="hsl(115.4 48.3% 49.3%)"/><stop offset="100%" stop-color="hsl(215.0 39.0% 12.4%)"/></linearGradient><radialGradient id="gxb0hj1-vig" cx="50%" cy="42%" r="75%"><stop offset="70%" stop-color="hsl(0 0% 0% / 0)"/><stop offset="100%" stop-color="hsl(0 0% 0% / 0.18)"/></radialGradient></defs><rect width="1600" height="550.6" fill="url(#gxb0hj1-sky)"/><rect y="549.6" width="1600" height="350.4" fill="hsl(170.8 36.3% 27.3%)"/><circle cx="1012.5" cy="302.8" r="110" fill="url(#gxb0hj1-glow)"/><circle cx="1012.5" cy="302.8" r="44" fill="hsl(42.0 80.0% 80.0%)"/><path d="M0 900 L0 278.2 L0.0 278.2 L114.3 346.0 L228.6 341.0 L342.9 341.9 L457.1 394.3 L571.4 600.3 L685.7 511.4 L800.0 437.4 L914.3 359.8 L1028.6 424.6 L1142.9 336.8 L1257.1 232.3 L1371.4 327.0 L1485.7 417.8 L1600.0 500.5 L1600 900 Z" fill="hsl(76.9 49.5% 57.5%)"/><path d="M0 900 L0 537.6 L0.0 537.6 L84.2 535.8 L168.4 521.6 L252.6 547.6 L336.8 425.1 L421.1 341.7 L505.3 380.8 L589.5 458.5 L673.7 456.8 L757.9 550.4 L842.1 525.5 L926.3 497.7 L1010.5 571.3 L1094.7 597.8 L1178.9 565.1 L1263.2 457.5 L1347.4 405.0 L1431.6 430.5 L1515.8 413.9 L1600.0 435.3 L1600 900 Z" fill="hsl(92.3 47.3% 52.5%)"/><path d="M0 900 L0 572.1 L0.0 572.1 L76.2 548.1 L152.4 532.7 L228.6 593.0 L304.8 606.1 L381.0 645.9 L457.1 671.2 L533.3 666.1 L609.5 660.4 L685.7 611.2 L761.9 545.7 L838.1 565.9 L914.3 572.6 L990.5 557.6 L1066.7 632.8 L1142.9 624.5 L1219.0 644.5 L1295.2 643.0 L1371.4 637.2 L1447.6 640.8 L1523.8 634.8 L1600.0 587.0 L1600 900 Z" fill="hsl(138.3 40.8% 37.7%)"/><path d="M0 900 L0 707.4 L0.0 707.4 L106.7 689.8 L213.3 682.9 L320.0 646.7 L426.7 645.2 L533.3 663.9 L640.0 729.2 L746.7 730.1 L853.3 711.7 L960.0 694.3 L1066.7 716.5 L1173.3 668.3 L1280.0 643.9 L1386.7 621.3 L1493.3 643.3 L1600.0 714.4 L1600 900 Z" fill="hsl(215.0 30.0% 13.0%)"/><path d="M0 900 L0 110.1 Q288.0 330.4 512.0 900 Z" fill="hsl(215.0 30.0% 9.5%)"/><path d="M1600 900 L1600 66.1 Q1344.0 302.8 1056.0 900 Z" fill="hsl(215.0 30.0% 9.5%)"/><rect y="550.6" width="1600" height="349.4" fill="url(#gxb0hj1-water)"/><g><rect x="785.3" y="565.4" width="43.0" height="3.2" rx="1.6" fill="hsl(42.0 80.0% 80.0% / 0.559)"/><rect x="801.0" y="588.8" width="27.1" height="3.2" rx="1.6" fill="hsl(42.0 80.0% 80.0% / 0.525)"/><rect x="763.4" y="605.2" width="22.0" height="3.2" rx="1.6" fill="hsl(42.0 80.0% 80.0% / 0.502)"/><rect x="756.7" y="622.0" width="23.5" height="3.2" rx="1.6" fill="hsl(42.0 80.0% 80.0% / 0.478)"/><rect x="745.2" y="637.4" width="59.3" height="3.2" rx="1.6" fill="hsl(42.0 80.0% 80.0% / 0.456)"/><rect x="798.7" y="655.1" width="16.9" height="3.2" rx="1.6" fill="hsl(42.0 80.0% 80.0% / 0.430)"/><rect x="799.5" y="668.9" width="32.2" height="3.2" rx="1.6" fill="hsl(42.0 80.0% 80.0% / 0.411)"/><rect x="749.7" y="682.3" width="74.2" height="3.2" rx="1.6" fill="hsl(42.0 80.0% 80.0% / 0.392)"/><rect x="763.3" y="699.2" width="74.0" height="3.2" rx="1.6" fill="hsl(42.0 80.0% 80.0% / 0.367)"/><rect x="709.1" y="723.1" width="97.8" height="3.2" rx="1.6" fill="hsl(42.0 80.0% 80.0% / 0.333)"/><rect x="781.4" y="735.5" width="57.9" height="3.2" rx="1.6" fill="hsl(42.0 80.0% 80.0% / 0.315)"/><rect x="729.7" y="749.6" width="80.8" height="3.2" rx="1.6" fill="hsl(42.0 80.0% 80.0% / 0.295)"/><rect x="795.2" y="768.9" width="105.0" height="3.2" rx="1.6" fill="hsl(42.0 80.0% 80.0% / 0.268)"/><rect x="758.1" y="790.4" width="107.6" height="3.2" rx="1.6" fill="hsl(42.0 80.0% 80.0% / 0.237)"/><rect x="835.1" y="805.4" width="41.5" height="3.2" rx="1.6" fill="hsl(42.0 80.0% 80.0% / 0.215)"/><rect x="805.2" y="821.6" width="82.6" height="3.2" rx="1.6" fill="hsl(42.0 80.0% 80.0% / 0.192)"/><rect x="814.6" y="838.9" width="77.2" height="3.2" rx="1.6" fill="hsl(42.0 80.0% 80.0% / 0.167)"/><rect x="807.1" y="856.8" width="125.4" height="3.2" rx="1.6" fill="hsl(42.0 80.0% 80.0% / 0.142)"/><rect x="821.6" y="874.1" width="111.6" height="3.2" rx="1.6" fill="hsl(42.0 80.0% 80.0% / 0.117)"/></g><rect width="1600" height="900" fill="url(#gxb0hj1-vig)"/></svg>