<svg xmlns="http://www.w3.org/2000/svg" viewBox="0 0 1600 900" role="img" preserveAspectRatio="xMidYMid slice"><title>deo-ma-pi-leng-song-nho-que s1</title><defs><linearGradient id="gpypkd-sky" x1="0" y1="0" x2="0" y2="1"><stop offset="0%" stop-color="hsl(212.0 45.0% 38.0%)"/><stop offset="50%" stop-color="hsl(200.0 40.0% 56.0%)"/><stop offset="100%" stop-color="hsl(38.0 55.0% 70.0%)"/></linearGradient><radialGradient id="gpypkd-glow"><stop offset="0%" stop-color="hsl(42.0 80.0% 80.0% / 0.850)"/><stop offset="45%" stop-color="hsl(42.0 80.0% 80.0% / 0.250)"/><stop offset="100%" stop-color="hsl(42.0 80.0% 80.0% / 0.000)"/></radialGradient><linearGradient id="gpypkd-water" x1="0" y1="0" x2="0" y2="1"><stop offset="0%" stop-color="hsl(115.4 48.3% 49.3%)"/><stop offset="100%" stop-color="hsl(215.0 39.0% 12.4%)"/></linearGradient><radialGradient id="gpypkd-vig" cx="50%" cy="42%" r="75%"><stop offset="70%" stop-color="hsl(0 0% 0% / 0)"/><stop offset="100%" stop-color="hsl(0 0% 0% / 0.18)"/></radialGradient></defs><rect width="1600" height="535.4" fill="url(#gpypkd-sky)"/><rect y="534.4" width="1600" height="365.6" fill="hsl(170.8 36.3% 27.3%)"/><circle cx="935.5" cy="294.5" r="110" fill="url(#gpypkd-glow)"/><circle cx="935.5" cy="294.5" r="44" fill="hsl(42.0 80.0% 80.0%)"/><path d="M0 900 L0 486.8 L0.0 486.8 L114.3 404.2 L228.6 339.3 L342.9 398.9 L457.1 314.5 L571.4 331.8 L685.7 284.1 L800.0 316.4 L914.3 472.1 L1028.6 534.6 L1142.9 554.7 L1257.1 383.1 L1371.4 402.7 L1485.7 270.1 L1600.0 351.5 L1600 900 Z" fill="hsl(76.9 49.5% 57.5%)"/><path d="M0 900 L0 569.3 L0.0 569.3 L106.7 549.0 L213.3 577.8 L320.0 469.4 L426.7 413.9 L533.3 332.4 L640.0 379.7 L746.7 410.9 L853.3 522.5 L960.0 535.9 L1066.7 491.9 L1173.3 537.1 L1280.0 506.6 L1386.7 616.6 L1493.3 539.1 L1600.0 561.7 L1600 900 Z" fill="hsl(92.3 47.3% 52.5%)"/><path d="M0 900 L0 548.8 L0.0 548.8 L100.0 546.5 L200.0 553.1 L300.0 529.3 L400.0 545.4 L500.0 581.7 L600.0 641.3 L700.0 653.8 L800.0 637.4 L900.0 606.9 L1000.0 615.0 L1100.0 624.0 L1200.0 494.9 L1300.0 528.3 L1400.0 533.1 L1500.0 607.2 L1600.0 604.6 L1600 900 Z" fill="hsl(138.3 40.8% 37.7%)"/><path d="M0 900 L0 722.4 L0.0 722.4 L94.1 685.2 L188.2 699.7 L282.4 728.1 L376.5 728.3 L470.6 704.2 L564.7 649.3 L658.8 637.7 L752.9 644.3 L847.1 655.8 L941.2 640.2 L1035.3 637.6 L1129.4 641.9 L1223.5 687.4 L1317.6 730.6 L1411.8 709.7 L1505.9 727.1 L1600.0 689.3 L1600 900 Z" fill="hsl(215.0 30.0% 13.0%)"/><path d="M0 900 L0 107.1 Q288.0 321.2 512.0 900 Z" fill="hsl(215.0 30.0% 9.5%)"/><path d="M1600 900 L1600 64.2 Q1344.0 294.5 1056.0 900 Z" fill="hsl(215.0 30.0% 9.5%)"/><rect y="535.4" width="1600" height="364.6" fill="url(#gpypkd-water)"/><g><rect x="795.7" y="549.7" width="10.5" height="3.2" rx="1.6" fill="hsl(42.0 80.0% 80.0% / 0.560)"/><rect x="800.8" y="570.4" width="32.0" height="3.2" rx="1.6" fill="hsl(42.0 80.0% 80.0% / 0.532)"/><rect x="811.8" y="590.3" width="17.4" height="3.2" rx="1.6" fill="hsl(42.0 80.0% 80.0% / 0.505)"/><rect x="807.0" y="607.3" width="25.9" height="3.2" rx="1.6" fill="hsl(42.0 80.0% 80.0% / 0.481)"/><rect x="779.9" y="617.0" width="37.0" height="3.2" rx="1.6" fill="hsl(42.0 80.0% 80.0% / 0.468)"/><rect x="775.9" y="640.0" width="37.8" height="3.2" rx="1.6" fill="hsl(42.0 80.0% 80.0% / 0.437)"/><rect x="764.5" y="653.5" width="79.4" height="3.2" rx="1.6" fill="hsl(42.0 80.0% 80.0% / 0.418)"/><rect x="762.5" y="667.5" width="78.7" height="3.2" rx="1.6" fill="hsl(42.0 80.0% 80.0% / 0.399)"/><rect x="818.3" y="683.6" width="41.4" height="3.2" rx="1.6" fill="hsl(42.0 80.0% 80.0% / 0.377)"/><rect x="787.6" y="702.1" width="25.9" height="3.2" rx="1.6" fill="hsl(42.0 80.0% 80.0% / 0.351)"/><rect x="746.3" y="720.7" width="44.8" height="3.2" rx="1.6" fill="hsl(42.0 80.0% 80.0% / 0.326)"/><rect x="730.6" y="733.8" width="46.9" height="3.2" rx="1.6" fill="hsl(42.0 80.0% 80.0% / 0.308)"/><rect x="808.8" y="756.3" width="108.7" height="3.2" rx="1.6" fill="hsl(42.0 80.0% 80.0% / 0.277)"/><rect x="804.4" y="770.3" width="69.3" height="3.2" rx="1.6" fill="hsl(42.0 80.0% 80.0% / 0.258)"/><rect x="754.3" y="788.8" width="36.8" height="3.2" rx="1.6" fill="hsl(42.0 80.0% 80.0% / 0.232)"/><rect x="793.2" y="802.0" width="87.5" height="3.2" rx="1.6" fill="hsl(42.0 80.0% 80.0% / 0.214)"/><rect x="733.3" y="822.9" width="76.7" height="3.2" rx="1.6" fill="hsl(42.0 80.0% 80.0% / 0.186)"/><rect x="790.8" y="840.1" width="76.8" height="3.2" rx="1.6" fill="hsl(42.0 80.0% 80.0% / 0.162)"/><rect x="818.6" y="856.5" width="82.9" height="3.2" rx="1.6" fill="hsl(42.0 80.0% 80.0% / 0.140)"/><rect x="663.2" y="874.4" width="114.7" height="3.2" rx="1.6" fill="hsl(42.0 80.0% 80.0% / 0.115)"/></g><rect width="1600" height="900" fill="url(#gpypkd-vig)"/></svg>