<svg xmlns="http://www.w3.org/2000/svg" viewBox="0 0 1600 900" role="img" preserveAspectRatio="xMidYMid slice"><title>deo-ma-pi-leng-song-nho-que s2</title><defs><linearGradient id="g1dnr5v4-sky" x1="0" y1="0" x2="0" y2="1"><stop offset="0%" stop-color="hsl(200.0 45.0% 58.0%)"/><stop offset="50%" stop-color="hsl(180.0 30.0% 72.0%)"/><stop offset="100%" stop-color="hsl(46.0 55.0% 80.0%)"/></linearGradient><radialGradient id="g1dnr5v4-glow"><stop offset="0%" stop-color="hsl(44.0 80.0% 84.0% / 0.850)"/><stop offset="45%" stop-color="hsl(44.0 80.0% 84.0% / 0.250)"/><stop offset="100%" stop-color="hsl(44.0 80.0% 84.0% / 0.000)"/></radialGradient><linearGradient id="g1dnr5v4-fog0" x1="0" y1="0" x2="0" y2="1"><stop offset="0%" stop-color="hsl(40 20% 96% / 0)"/><stop offset="55%" stop-color="hsl(40 20% 96% / 0.28)"/><stop offset="100%" stop-color="hsl(40 20% 96% / 0)"/></linearGradient><linearGradient id="g1dnr5v4-fog2" x1="0" y1="0" x2="0" y2="1"><stop offset="0%" stop-color="hsl(40 20% 96% / 0)"/><stop offset="55%" stop-color="hsl(40 20% 96% / 0.25)"/><stop offset="100%" stop-color="hsl(40 20% 96% / 0)"/></linearGradient><linearGradient id="g1dnr5v4-fog3" x1="0" y1="0" x2="0" y2="1"><stop offset="0%" stop-color="hsl(40 20% 96% / 0)"/><stop offset="55%" stop-color="hsl(40 20% 96% / 0.29)"/><stop offset="100%" stop-color="hsl(40 20% 96% / 0)"/></linearGradient><radialGradient id="g1dnr5v4-vig" cx="50%" cy="42%" r="75%"><stop offset="70%" stop-color="hsl(0 0% 0% / 0)"/><stop offset="100%" stop-color="hsl(0 0% 0% / 0.18)"/></radialGradient></defs><rect width="1600" height="564.9" fill="url(#g1dnr5v4-sky)"/><rect y="563.9" width="1600" height="336.1" fill="hsl(157.8 37.8% 33.5%)"/><circle cx="1064.0" cy="395.4" r="130" fill="url(#g1dnr5v4-glow)"/><circle cx="1064.0" cy="395.4" r="52" fill="hsl(44.0 80.0% 84.0%)"/><path d="M0 900 L0 361.1 L0.0 361.1 L114.3 296.1 L228.6 420.9 L342.9 469.7 L457.1 442.7 L571.4 444.0 L685.7 533.0 L800.0 517.2 L914.3 335.2 L1028.6 242.0 L1142.9 257.4 L1257.1 443.0 L1371.4 558.6 L1485.7 538.2 L1600.0 482.7 L1600 900 Z" fill="hsl(78.8 49.9% 66.4%)"/><rect x="0" y="452.9" width="1600" height="297.3" fill="url(#g1dnr5v4-fog0)"/><path d="M0 900 L0 543.6 L0.0 543.6 L88.9 438.6 L177.8 356.8 L266.7 398.9 L355.6 398.3 L444.4 383.0 L533.3 391.6 L622.2 475.9 L711.1 415.2 L800.0 509.7 L888.9 621.4 L977.8 615.5 L1066.7 449.2 L1155.6 405.6 L1244.4 483.5 L1333.3 444.5 L1422.2 402.6 L1511.1 442.8 L1600.0 371.6 L1600 900 Z" fill="hsl(82.0 49.4% 65.0%)"/><path d="M0 900 L0 540.6 L0.0 540.6 L80.0 457.9 L160.0 381.8 L240.0 403.6 L320.0 456.0 L400.0 427.1 L480.0 511.5 L560.0 570.3 L640.0 525.1 L720.0 560.5 L800.0 527.3 L880.0 454.4 L960.0 508.0 L1040.0 484.6 L1120.0 432.5 L1200.0 509.2 L1280.0 408.5 L1360.0 431.3 L1440.0 442.1 L1520.0 510.7 L1600.0 596.7 L1600 900 Z" fill="hsl(91.7 47.9% 61.0%)"/><rect x="0" y="531.0" width="1600" height="247.1" fill="url(#g1dnr5v4-fog2)"/><path d="M0 900 L0 478.6 L0.0 478.6 L84.2 560.5 L168.4 592.9 L252.6 610.7 L336.8 608.2 L421.1 594.0 L505.3 620.8 L589.5 617.5 L673.7 572.7 L757.9 513.3 L842.1 454.3 L926.3 478.4 L1010.5 567.7 L1094.7 562.3 L1178.9 575.8 L1263.2 628.8 L1347.4 624.8 L1431.6 621.5 L1515.8 669.3 L1600.0 612.8 L1600 900 Z" fill="hsl(107.8 45.5% 54.3%)"/><rect x="0" y="585.0" width="1600" height="188.6" fill="url(#g1dnr5v4-fog3)"/><path d="M0 900 L0 684.6 L0.0 684.6 L80.0 657.2 L160.0 647.5 L240.0 662.3 L320.0 607.9 L400.0 578.4 L480.0 610.4 L560.0 554.0 L640.0 549.4 L720.0 514.4 L800.0 538.7 L880.0 626.2 L960.0 665.4 L1040.0 672.2 L1120.0 626.5 L1200.0 599.9 L1280.0 551.7 L1360.0 539.0 L1440.0 606.9 L1520.0 543.9 L1600.0 515.0 L1600 900 Z" fill="hsl(130.4 42.0% 44.9%)"/><path d="M0 900 L0 613.3 L0.0 613.3 L94.1 576.2 L188.2 582.6 L282.4 633.5 L376.5 669.9 L470.6 681.6 L564.7 671.7 L658.8 647.1 L752.9 677.6 L847.1 703.2 L941.2 695.6 L1035.3 643.5 L1129.4 622.0 L1223.5 616.1 L1317.6 626.0 L1411.8 607.5 L1505.9 609.8 L1600.0 616.9 L1600 900 Z" fill="hsl(159.5 37.5% 32.8%)"/><path d="M0 900 L0 623.5 L0.0 623.5 L84.2 641.2 L168.4 665.0 L252.6 679.1 L336.8 642.6 L421.1 703.5 L505.3 708.6 L589.5 726.4 L673.7 752.4 L757.9 713.6 L842.1 647.0 L926.3 623.8 L1010.5 630.4 L1094.7 643.8 L1178.9 649.5 L1263.2 692.9 L1347.4 672.8 L1431.6 683.6 L1515.8 735.7 L1600.0 758.5 L1600 900 Z" fill="hsl(195.0 32.0% 18.0%)"/><rect width="1600" height="900" fill="url(#g1dnr5v4-vig)"/></svg>