<svg xmlns="http://www.w3.org/2000/svg" viewBox="0 0 1600 900" role="img" preserveAspectRatio="xMidYMid slice"><title>mui-ne-bau-trang-doi-cat hero</title><defs><linearGradient id="gxize1k-sky" x1="0" y1="0" x2="0" y2="1"><stop offset="0%" stop-color="hsl(205.0 55.0% 58.0%)"/><stop offset="50%" stop-color="hsl(28.0 55.0% 72.0%)"/><stop offset="100%" stop-color="hsl(38.0 80.0% 70.0%)"/></linearGradient><radialGradient id="gxize1k-glow"><stop offset="0%" stop-color="hsl(40.0 95.0% 74.0% / 0.850)"/><stop offset="45%" stop-color="hsl(40.0 95.0% 74.0% / 0.250)"/><stop offset="100%" stop-color="hsl(40.0 95.0% 74.0% / 0.000)"/></radialGradient><radialGradient id="gxize1k-vig" cx="50%" cy="42%" r="75%"><stop offset="70%" stop-color="hsl(0 0% 0% / 0)"/><stop offset="100%" stop-color="hsl(0 0% 0% / 0.18)"/></radialGradient></defs><rect width="1600" height="515.9" fill="url(#gxize1k-sky)"/><rect y="514.9" width="1600" height="385.1" fill="hsl(32.0 65.0% 49.0%)"/><circle cx="475.3" cy="335.3" r="150" fill="url(#gxize1k-glow)"/><circle cx="475.3" cy="335.3" r="60" fill="hsl(40.0 95.0% 74.0%)"/><path d="M0 900 L0 465.8 Q0.0 465.8 57.1 448.0 Q114.3 430.3 171.4 441.2 Q228.6 452.1 285.7 475.3 Q342.9 498.5 400.0 506.8 Q457.1 515.2 514.3 510.1 Q571.4 505.1 628.6 491.7 Q685.7 478.2 742.9 490.9 Q800.0 503.6 857.1 484.1 Q914.3 464.6 971.4 451.3 Q1028.6 437.9 1085.7 433.6 Q1142.9 429.2 1200.0 450.3 Q1257.1 471.4 1314.3 484.0 Q1371.4 496.7 1428.6 488.6 Q1485.7 480.5 1542.9 494.6 L1600 508.8 L1600 900 Z" fill="hsl(36.2 75.6% 63.8%)"/><path d="M0 900 L0 492.9 Q0.0 492.9 50.0 509.6 Q100.0 526.2 150.0 520.0 Q200.0 513.7 250.0 517.0 Q300.0 520.2 350.0 526.6 Q400.0 533.0 450.0 542.8 Q500.0 552.7 550.0 573.0 Q600.0 593.4 650.0 589.5 Q700.0 585.6 750.0 560.2 Q800.0 534.9 850.0 533.4 Q900.0 531.8 950.0 538.2 Q1000.0 544.6 1050.0 533.8 Q1100.0 523.0 1150.0 514.9 Q1200.0 506.9 1250.0 492.1 Q1300.0 477.3 1350.0 469.6 Q1400.0 461.8 1450.0 486.1 Q1500.0 510.4 1550.0 524.2 L1600 537.9 L1600 900 Z" fill="hsl(35.5 73.9% 61.4%)"/><path d="M0 900 L0 651.5 Q0.0 651.5 53.3 649.8 Q106.7 648.2 160.0 621.7 Q213.3 595.3 266.7 586.1 Q320.0 576.9 373.3 567.8 Q426.7 558.6 480.0 581.9 Q533.3 605.1 586.7 615.1 Q640.0 625.1 693.3 641.2 Q746.7 657.3 800.0 643.8 Q853.3 630.4 906.7 623.7 Q960.0 617.0 1013.3 602.0 Q1066.7 587.0 1120.0 589.0 Q1173.3 591.0 1226.7 592.9 Q1280.0 594.9 1333.3 601.2 Q1386.7 607.5 1440.0 611.2 Q1493.3 614.8 1546.7 617.0 L1600 619.2 L1600 900 Z" fill="hsl(33.5 68.7% 54.1%)"/><path d="M0 900 L0 699.2 Q0.0 699.2 44.4 700.0 Q88.9 700.8 133.3 702.0 Q177.8 703.3 222.2 697.5 Q266.7 691.7 311.1 690.8 Q355.6 689.9 400.0 693.0 Q444.4 696.0 488.9 697.0 Q533.3 698.1 577.8 705.0 Q622.2 712.0 666.7 720.1 Q711.1 728.2 755.6 726.0 Q800.0 723.8 844.4 720.0 Q888.9 716.2 933.3 711.9 Q977.8 707.6 1022.2 698.5 Q1066.7 689.3 1111.1 687.2 Q1155.6 685.0 1200.0 689.4 Q1244.4 693.9 1288.9 695.3 Q1333.3 696.6 1377.8 699.5 Q1422.2 702.3 1466.7 706.6 Q1511.1 710.9 1555.6 708.9 L1600 706.9 L1600 900 Z" fill="hsl(30.0 60.0% 42.0%)"/><rect width="1600" height="900" fill="url(#gxize1k-vig)"/></svg>