<svg xmlns="http://www.w3.org/2000/svg" viewBox="0 0 1600 900" role="img" preserveAspectRatio="xMidYMid slice"><title>mui-ne-bau-trang-doi-cat s1</title><defs><linearGradient id="g1ug2cw0-sky" x1="0" y1="0" x2="0" y2="1"><stop offset="0%" stop-color="hsl(205.0 55.0% 58.0%)"/><stop offset="50%" stop-color="hsl(28.0 55.0% 72.0%)"/><stop offset="100%" stop-color="hsl(38.0 80.0% 70.0%)"/></linearGradient><radialGradient id="g1ug2cw0-glow"><stop offset="0%" stop-color="hsl(40.0 95.0% 74.0% / 0.850)"/><stop offset="45%" stop-color="hsl(40.0 95.0% 74.0% / 0.250)"/><stop offset="100%" stop-color="hsl(40.0 95.0% 74.0% / 0.000)"/></radialGradient><radialGradient id="g1ug2cw0-vig" cx="50%" cy="42%" r="75%"><stop offset="70%" stop-color="hsl(0 0% 0% / 0)"/><stop offset="100%" stop-color="hsl(0 0% 0% / 0.18)"/></radialGradient></defs><rect width="1600" height="470.9" fill="url(#g1ug2cw0-sky)"/><rect y="469.9" width="1600" height="430.1" fill="hsl(32.0 65.0% 49.0%)"/><circle cx="413.7" cy="306.1" r="150" fill="url(#g1ug2cw0-glow)"/><circle cx="413.7" cy="306.1" r="60" fill="hsl(40.0 95.0% 74.0%)"/><path d="M0 900 L0 479.1 Q0.0 479.1 53.3 468.1 Q106.7 457.1 160.0 441.1 Q213.3 425.1 266.7 416.7 Q320.0 408.4 373.3 420.1 Q426.7 431.9 480.0 421.4 Q533.3 410.8 586.7 403.4 Q640.0 395.9 693.3 417.3 Q746.7 438.6 800.0 451.1 Q853.3 463.7 906.7 470.5 Q960.0 477.3 1013.3 468.5 Q1066.7 459.8 1120.0 452.1 Q1173.3 444.4 1226.7 455.7 Q1280.0 467.0 1333.3 451.2 Q1386.7 435.3 1440.0 414.3 Q1493.3 393.3 1546.7 397.6 L1600 401.9 L1600 900 Z" fill="hsl(36.2 75.6% 63.8%)"/><path d="M0 900 L0 501.3 Q0.0 501.3 47.1 467.9 Q94.1 434.4 141.2 432.9 Q188.2 431.3 235.3 438.8 Q282.4 446.2 329.4 453.1 Q376.5 459.9 423.5 471.1 Q470.6 482.2 517.6 474.9 Q564.7 467.6 611.8 481.4 Q658.8 495.1 705.9 520.2 Q752.9 545.2 800.0 532.2 Q847.1 519.2 894.1 502.1 Q941.2 485.0 988.2 469.9 Q1035.3 454.7 1082.4 446.7 Q1129.4 438.8 1176.5 452.5 Q1223.5 466.2 1270.6 459.1 Q1317.6 452.0 1364.7 442.2 Q1411.8 432.5 1458.8 455.0 Q1505.9 477.6 1552.9 494.5 L1600 511.5 L1600 900 Z" fill="hsl(35.9 74.6% 62.5%)"/><path d="M0 900 L0 518.8 Q0.0 518.8 40.0 530.3 Q80.0 541.8 120.0 550.5 Q160.0 559.2 200.0 576.6 Q240.0 594.0 280.0 589.1 Q320.0 584.2 360.0 571.9 Q400.0 559.6 440.0 562.1 Q480.0 564.6 520.0 558.7 Q560.0 552.8 600.0 558.3 Q640.0 563.8 680.0 562.7 Q720.0 561.7 760.0 540.1 Q800.0 518.5 840.0 513.1 Q880.0 507.8 920.0 504.5 Q960.0 501.1 1000.0 505.3 Q1040.0 509.5 1080.0 527.4 Q1120.0 545.2 1160.0 540.3 Q1200.0 535.5 1240.0 534.6 Q1280.0 533.7 1320.0 539.1 Q1360.0 544.5 1400.0 547.7 Q1440.0 551.0 1480.0 570.3 Q1520.0 589.5 1560.0 593.3 L1600 597.0 L1600 900 Z" fill="hsl(34.7 71.7% 58.4%)"/><path d="M0 900 L0 621.8 Q0.0 621.8 42.1 625.5 Q84.2 629.1 126.3 641.0 Q168.4 652.9 210.5 648.1 Q252.6 643.2 294.7 631.9 Q336.8 620.6 378.9 614.7 Q421.1 608.9 463.2 600.2 Q505.3 591.6 547.4 594.5 Q589.5 597.5 631.6 604.9 Q673.7 612.3 715.8 604.2 Q757.9 596.1 800.0 593.8 Q842.1 591.5 884.2 597.0 Q926.3 602.5 968.4 606.6 Q1010.5 610.6 1052.6 624.2 Q1094.7 637.9 1136.8 644.8 Q1178.9 651.7 1221.1 641.7 Q1263.2 631.7 1305.3 629.4 Q1347.4 627.2 1389.5 626.8 Q1431.6 626.5 1473.7 623.8 Q1515.8 621.1 1557.9 624.5 L1600 627.9 L1600 900 Z" fill="hsl(32.7 66.8% 51.6%)"/><path d="M0 900 L0 696.8 Q0.0 696.8 53.3 702.0 Q106.7 707.2 160.0 696.7 Q213.3 686.2 266.7 680.8 Q320.0 675.4 373.3 675.6 Q426.7 675.8 480.0 672.4 Q533.3 669.1 586.7 671.8 Q640.0 674.5 693.3 663.1 Q746.7 651.8 800.0 650.9 Q853.3 649.9 906.7 654.4 Q960.0 658.9 1013.3 666.8 Q1066.7 674.7 1120.0 687.2 Q1173.3 699.7 1226.7 694.6 Q1280.0 689.4 1333.3 689.6 Q1386.7 689.7 1440.0 686.6 Q1493.3 683.5 1546.7 684.6 L1600 685.6 L1600 900 Z" fill="hsl(30.0 60.0% 42.0%)"/><rect width="1600" height="900" fill="url(#g1ug2cw0-vig)"/></svg>