<svg xmlns="http://www.w3.org/2000/svg" viewBox="0 0 1600 900" role="img" preserveAspectRatio="xMidYMid slice"><title>mui-ne-bau-trang-doi-cat s2</title><defs><linearGradient id="gxc6qil-sky" x1="0" y1="0" x2="0" y2="1"><stop offset="0%" stop-color="hsl(265.0 38.0% 26.0%)"/><stop offset="50%" stop-color="hsl(348.0 55.0% 46.0%)"/><stop offset="100%" stop-color="hsl(22.0 90.0% 58.0%)"/></linearGradient><radialGradient id="gxc6qil-glow"><stop offset="0%" stop-color="hsl(24.0 95.0% 66.0% / 0.850)"/><stop offset="45%" stop-color="hsl(24.0 95.0% 66.0% / 0.250)"/><stop offset="100%" stop-color="hsl(24.0 95.0% 66.0% / 0.000)"/></radialGradient><radialGradient id="gxc6qil-vig" cx="50%" cy="42%" r="75%"><stop offset="70%" stop-color="hsl(0 0% 0% / 0)"/><stop offset="100%" stop-color="hsl(0 0% 0% / 0.18)"/></radialGradient></defs><rect width="1600" height="540.7" fill="url(#gxc6qil-sky)"/><rect y="539.7" width="1600" height="360.3" fill="hsl(305.5 43.5% 25.0%)"/><circle cx="836.6" cy="475.8" r="230" fill="url(#gxc6qil-glow)"/><circle cx="836.6" cy="475.8" r="78" fill="hsl(24.0 95.0% 66.0%)"/><path d="M0 900 L0 479.9 Q0.0 479.9 50.0 499.0 Q100.0 518.2 150.0 497.5 Q200.0 476.8 250.0 417.4 Q300.0 357.9 350.0 342.9 Q400.0 327.8 450.0 365.9 Q500.0 403.9 550.0 393.9 Q600.0 383.8 650.0 346.9 Q700.0 310.1 750.0 343.9 Q800.0 377.8 850.0 412.8 Q900.0 447.8 950.0 480.2 Q1000.0 512.5 1050.0 518.5 Q1100.0 524.5 1150.0 491.5 Q1200.0 458.5 1250.0 439.1 Q1300.0 419.7 1350.0 435.4 Q1400.0 451.0 1450.0 425.9 Q1500.0 400.7 1550.0 352.5 L1600 304.2 L1600 900 Z" fill="hsl(359.6 76.4% 48.3%)"/><path d="M0 900 L0 399.6 Q0.0 399.6 47.1 440.8 Q94.1 482.1 141.2 482.8 Q188.2 483.4 235.3 471.2 Q282.4 458.9 329.4 493.8 Q376.5 528.8 423.5 531.3 Q470.6 533.8 517.6 486.9 Q564.7 440.0 611.8 409.4 Q658.8 378.7 705.9 349.7 Q752.9 320.7 800.0 320.0 Q847.1 319.3 894.1 382.3 Q941.2 445.4 988.2 423.6 Q1035.3 401.8 1082.4 404.6 Q1129.4 407.4 1176.5 443.5 Q1223.5 479.5 1270.6 505.4 Q1317.6 531.3 1364.7 549.6 Q1411.8 567.9 1458.8 538.5 Q1505.9 509.1 1552.9 433.0 L1600 356.8 L1600 900 Z" fill="hsl(357.4 75.0% 47.4%)"/><path d="M0 900 L0 411.4 Q0.0 411.4 47.1 445.9 Q94.1 480.5 141.2 501.3 Q188.2 522.0 235.3 567.3 Q282.4 612.6 329.4 594.2 Q376.5 575.8 423.5 563.6 Q470.6 551.4 517.6 492.2 Q564.7 433.0 611.8 444.7 Q658.8 456.3 705.9 437.0 Q752.9 417.7 800.0 457.6 Q847.1 497.6 894.1 494.3 Q941.2 491.1 988.2 511.9 Q1035.3 532.7 1082.4 521.5 Q1129.4 510.4 1176.5 524.5 Q1223.5 538.5 1270.6 543.4 Q1317.6 548.3 1364.7 533.6 Q1411.8 519.0 1458.8 506.9 Q1505.9 494.7 1552.9 455.6 L1600 416.5 L1600 900 Z" fill="hsl(350.7 71.0% 44.5%)"/><path d="M0 900 L0 455.6 Q0.0 455.6 47.1 470.0 Q94.1 484.4 141.2 496.4 Q188.2 508.5 235.3 537.6 Q282.4 566.8 329.4 546.6 Q376.5 526.3 423.5 525.4 Q470.6 524.4 517.6 546.6 Q564.7 568.8 611.8 573.3 Q658.8 577.8 705.9 610.0 Q752.9 642.2 800.0 627.5 Q847.1 612.8 894.1 593.7 Q941.2 574.5 988.2 548.4 Q1035.3 522.2 1082.4 514.0 Q1129.4 505.7 1176.5 525.8 Q1223.5 545.9 1270.6 524.0 Q1317.6 502.0 1364.7 498.2 Q1411.8 494.4 1458.8 487.4 Q1505.9 480.4 1552.9 469.9 L1600 459.4 L1600 900 Z" fill="hsl(339.7 64.3% 39.7%)"/><path d="M0 900 L0 588.4 Q0.0 588.4 50.0 569.7 Q100.0 551.0 150.0 568.9 Q200.0 586.8 250.0 573.0 Q300.0 559.2 350.0 577.2 Q400.0 595.1 450.0 615.3 Q500.0 635.4 550.0 641.0 Q600.0 646.5 650.0 641.3 Q700.0 636.1 750.0 604.9 Q800.0 573.7 850.0 554.9 Q900.0 536.1 950.0 524.0 Q1000.0 511.9 1050.0 530.7 Q1100.0 549.5 1150.0 571.3 Q1200.0 593.0 1250.0 631.8 Q1300.0 670.5 1350.0 664.8 Q1400.0 659.0 1450.0 644.5 Q1500.0 630.0 1550.0 591.7 L1600 553.3 L1600 900 Z" fill="hsl(324.2 54.9% 33.1%)"/><path d="M0 900 L0 613.6 Q0.0 613.6 47.1 639.6 Q94.1 665.6 141.2 676.5 Q188.2 687.4 235.3 686.3 Q282.4 685.2 329.4 684.6 Q376.5 684.0 423.5 664.2 Q470.6 644.4 517.6 620.9 Q564.7 597.3 611.8 608.1 Q658.8 618.9 705.9 630.6 Q752.9 642.2 800.0 638.2 Q847.1 634.2 894.1 639.7 Q941.2 645.1 988.2 654.7 Q1035.3 664.2 1082.4 667.4 Q1129.4 670.6 1176.5 672.3 Q1223.5 674.0 1270.6 677.9 Q1317.6 681.8 1364.7 669.9 Q1411.8 658.1 1458.8 628.4 Q1505.9 598.8 1552.9 590.8 L1600 582.8 L1600 900 Z" fill="hsl(304.3 42.8% 24.5%)"/><path d="M0 900 L0 699.9 Q0.0 699.9 57.1 700.9 Q114.3 702.0 171.4 690.4 Q228.6 678.9 285.7 666.5 Q342.9 654.2 400.0 638.8 Q457.1 623.4 514.3 638.7 Q571.4 654.0 628.6 664.4 Q685.7 674.8 742.9 688.5 Q800.0 702.2 857.1 689.4 Q914.3 676.7 971.4 698.6 Q1028.6 720.6 1085.7 719.5 Q1142.9 718.3 1200.0 710.0 Q1257.1 701.7 1314.3 671.4 Q1371.4 641.0 1428.6 639.8 Q1485.7 638.6 1542.9 648.1 L1600 657.7 L1600 900 Z" fill="hsl(280.0 28.0% 14.0%)"/><rect width="1600" height="900" fill="url(#gxc6qil-vig)"/></svg>