<svg xmlns="http://www.w3.org/2000/svg" viewBox="0 0 1600 900" role="img" preserveAspectRatio="xMidYMid slice"><title>hoang-su-phi-xin-man hero</title><defs><linearGradient id="gas2blw-sky" x1="0" y1="0" x2="0" y2="1"><stop offset="0%" stop-color="hsl(202.0 50.0% 60.0%)"/><stop offset="50%" stop-color="hsl(190.0 35.0% 74.0%)"/><stop offset="100%" stop-color="hsl(48.0 60.0% 78.0%)"/></linearGradient><radialGradient id="gas2blw-glow"><stop offset="0%" stop-color="hsl(46.0 85.0% 82.0% / 0.850)"/><stop offset="45%" stop-color="hsl(46.0 85.0% 82.0% / 0.250)"/><stop offset="100%" stop-color="hsl(46.0 85.0% 82.0% / 0.000)"/></radialGradient><radialGradient id="gas2blw-vig" cx="50%" cy="42%" r="75%"><stop offset="70%" stop-color="hsl(0 0% 0% / 0)"/><stop offset="100%" stop-color="hsl(0 0% 0% / 0.18)"/></radialGradient></defs><rect width="1600" height="400.7" fill="url(#gas2blw-sky)"/><rect y="399.7" width="1600" height="500.3" fill="hsl(124.5 36.0% 36.0%)"/><circle cx="762.6" cy="240.4" r="110" fill="url(#gas2blw-glow)"/><circle cx="762.6" cy="240.4" r="48" fill="hsl(46.0 85.0% 82.0%)"/><path d="M0 900 L0 408.0 Q0.0 408.0 47.1 384.4 Q94.1 360.9 141.2 359.7 Q188.2 358.5 235.3 343.8 Q282.4 329.1 329.4 309.8 Q376.5 290.6 423.5 306.0 Q470.6 321.4 517.6 321.2 Q564.7 320.9 611.8 301.9 Q658.8 283.0 705.9 269.2 Q752.9 255.5 800.0 260.5 Q847.1 265.6 894.1 258.8 Q941.2 252.0 988.2 278.7 Q1035.3 305.4 1082.4 341.0 Q1129.4 376.5 1176.5 372.3 Q1223.5 368.0 1270.6 359.3 Q1317.6 350.6 1364.7 361.4 Q1411.8 372.1 1458.8 361.5 Q1505.9 351.0 1552.9 355.4 L1600 359.8 L1600 900 Z" fill="hsl(70.4 53.0% 65.7%)"/><path d="M0 900 L0 413.4 Q0.0 413.4 40.0 416.1 Q80.0 418.8 120.0 434.5 Q160.0 450.2 200.0 448.8 Q240.0 447.4 280.0 461.4 Q320.0 475.4 360.0 485.0 Q400.0 494.6 440.0 457.3 Q480.0 420.1 520.0 408.2 Q560.0 396.4 600.0 372.7 Q640.0 349.1 680.0 336.6 Q720.0 324.0 760.0 362.3 Q800.0 400.6 840.0 416.5 Q880.0 432.4 920.0 448.9 Q960.0 465.5 1000.0 479.2 Q1040.0 492.9 1080.0 466.4 Q1120.0 439.9 1160.0 434.3 Q1200.0 428.7 1240.0 422.5 Q1280.0 416.3 1320.0 408.3 Q1360.0 400.3 1400.0 403.9 Q1440.0 407.6 1480.0 405.5 Q1520.0 403.3 1560.0 385.3 L1600 367.3 L1600 900 Z" fill="hsl(79.3 50.2% 60.8%)"/><path d="M0 900 L0 507.3 Q0.0 507.3 57.1 506.4 Q114.3 505.5 171.4 486.7 Q228.6 467.9 285.7 485.3 Q342.9 502.8 400.0 525.9 Q457.1 549.1 514.3 562.8 Q571.4 576.5 628.6 567.3 Q685.7 558.1 742.9 521.4 Q800.0 484.7 857.1 478.7 Q914.3 472.8 971.4 466.3 Q1028.6 459.9 1085.7 490.2 Q1142.9 520.5 1200.0 523.4 Q1257.1 526.2 1314.3 531.8 Q1371.4 537.3 1428.6 532.9 Q1485.7 528.4 1542.9 531.8 L1600 535.2 L1600 900 Z" fill="hsl(105.8 41.9% 46.3%)"/><path d="M0 900 L0 662.6 Q0.0 662.6 42.1 673.0 Q84.2 683.4 126.3 670.9 Q168.4 658.4 210.5 643.5 Q252.6 628.5 294.7 621.9 Q336.8 615.3 378.9 601.4 Q421.1 587.4 463.2 584.4 Q505.3 581.4 547.4 597.0 Q589.5 612.7 631.6 618.4 Q673.7 624.2 715.8 629.3 Q757.9 634.4 800.0 642.4 Q842.1 650.5 884.2 653.3 Q926.3 656.1 968.4 646.0 Q1010.5 635.9 1052.6 637.3 Q1094.7 638.7 1136.8 635.8 Q1178.9 632.8 1221.1 627.7 Q1263.2 622.6 1305.3 623.5 Q1347.4 624.4 1389.5 625.2 Q1431.6 626.0 1473.7 609.5 Q1515.8 593.0 1557.9 593.0 L1600 593.1 L1600 900 Z" fill="hsl(150.0 28.0% 22.0%)"/><g><path d="M0 900 L0 400.7 L100.0 410.5 L200.0 407.9 L300.0 403.8 L400.0 398.9 L500.0 394.4 L600.0 391.3 L700.0 390.3 L800.0 391.5 L900.0 394.7 L1000.0 399.2 L1100.0 404.0 L1200.0 408.1 L1300.0 410.6 L1400.0 410.9 L1500.0 409.0 L1600.0 405.3 L1600 900 Z" fill="hsl(95.0 45.0% 42.0%)"/><path d="M0 900 L0 446.1 L100.0 458.0 L200.0 458.4 L300.0 455.7 L400.0 450.6 L500.0 444.3 L600.0 438.5 L700.0 434.6 L800.0 433.5 L900.0 435.6 L1000.0 440.4 L1100.0 446.5 L1200.0 452.6 L1300.0 457.0 L1400.0 458.6 L1500.0 457.1 L1600.0 452.8 L1600 900 Z" fill="hsl(73.3 48.5% 46.5%)"/><path d="M0 900 L0 491.5 L100.0 506.0 L200.0 502.8 L300.0 496.3 L400.0 488.4 L500.0 481.4 L600.0 477.2 L700.0 477.2 L800.0 481.3 L900.0 488.3 L1000.0 496.2 L1100.0 502.7 L1200.0 506.0 L1300.0 505.2 L1400.0 500.3 L1500.0 493.0 L1600.0 485.2 L1600 900 Z" fill="hsl(53.5 51.5% 48.6%)"/><path d="M0 900 L0 536.9 L100.0 552.6 L200.0 553.5 L300.0 549.0 L400.0 540.5 L500.0 530.9 L600.0 523.2 L700.0 519.9 L800.0 522.2 L900.0 529.2 L1000.0 538.7 L1100.0 547.6 L1200.0 553.0 L1300.0 553.2 L1400.0 548.0 L1500.0 539.2 L1600.0 529.7 L1600 900 Z" fill="hsl(95.3 37.0% 33.3%)"/><path d="M0 900 L0 582.2 L100.0 596.9 L200.0 587.1 L300.0 575.6 L400.0 566.5 L500.0 563.1 L600.0 566.8 L700.0 576.1 L800.0 587.6 L900.0 597.2 L1000.0 601.3 L1100.0 598.5 L1200.0 589.7 L1300.0 578.2 L1400.0 568.2 L1500.0 563.3 L1600.0 565.3 L1600 900 Z" fill="hsl(84.0 40.0% 37.2%)"/><path d="M0 900 L0 627.6 L100.0 633.0 L200.0 644.4 L300.0 648.9 L400.0 644.8 L500.0 633.7 L600.0 620.1 L700.0 609.6 L800.0 606.4 L900.0 611.9 L1000.0 623.8 L1100.0 637.2 L1200.0 646.8 L1300.0 648.5 L1400.0 641.8 L1500.0 629.2 L1600.0 616.1 L1600 900 Z" fill="hsl(66.3 42.5% 40.5%)"/><path d="M0 900 L0 673.0 L100.0 649.5 L200.0 654.8 L300.0 668.2 L400.0 683.9 L500.0 694.6 L600.0 695.6 L700.0 686.4 L800.0 671.2 L900.0 656.8 L1000.0 649.7 L1100.0 653.2 L1200.0 665.6 L1300.0 681.4 L1400.0 693.4 L1500.0 696.2 L1600.0 688.5 L1600 900 Z" fill="hsl(50.5 44.5% 41.8%)"/><path d="M0 900 L0 718.4 L100.0 729.2 L200.0 741.9 L300.0 742.9 L400.0 731.7 L500.0 713.9 L600.0 698.3 L700.0 692.8 L800.0 700.0 L900.0 716.4 L1000.0 733.8 L1100.0 743.5 L1200.0 740.8 L1300.0 726.9 L1400.0 708.8 L1500.0 695.5 L1600.0 693.6 L1600 900 Z" fill="hsl(82.3 33.0% 29.7%)"/><path d="M0 900 L0 763.8 L100.0 773.3 L200.0 752.7 L300.0 738.2 L400.0 737.7 L500.0 751.4 L600.0 771.9 L700.0 788.0 L800.0 790.9 L900.0 779.0 L1000.0 758.8 L1100.0 741.4 L1200.0 736.2 L1300.0 746.1 L1400.0 765.7 L1500.0 784.3 L1600.0 791.7 L1600 900 Z" fill="hsl(73.0 35.0% 32.4%)"/><path d="M0 900 L0 809.2 L100.0 801.8 L200.0 783.3 L300.0 780.2 L400.0 794.4 L500.0 817.5 L600.0 835.6 L700.0 838.0 L800.0 823.2 L900.0 800.1 L1000.0 782.4 L1100.0 780.7 L1200.0 796.0 L1300.0 819.1 L1400.0 836.4 L1500.0 837.4 L1600.0 821.7 L1600 900 Z" fill="hsl(59.3 36.5% 34.5%)"/><path d="M0 900 L0 854.6 L100.0 854.9 L200.0 831.1 L300.0 822.5 L400.0 834.7 L500.0 859.8 L600.0 881.5 L700.0 885.8 L800.0 869.9 L900.0 844.1 L1000.0 825.1 L1100.0 825.2 L1200.0 844.3 L1300.0 870.2 L1400.0 885.9 L1500.0 881.4 L1600.0 859.5 L1600 900 Z" fill="hsl(47.5 37.5% 35.0%)"/></g><rect width="1600" height="900" fill="url(#gas2blw-vig)"/></svg>