<svg xmlns="http://www.w3.org/2000/svg" viewBox="0 0 1600 900" role="img" preserveAspectRatio="xMidYMid slice"><title>hoang-su-phi-xin-man s2</title><defs><linearGradient id="gmi0ji1-sky" x1="0" y1="0" x2="0" y2="1"><stop offset="0%" stop-color="hsl(210.0 14.0% 74.0%)"/><stop offset="50%" stop-color="hsl(210.0 12.0% 82.0%)"/><stop offset="100%" stop-color="hsl(36.0 18.0% 86.0%)"/></linearGradient><radialGradient id="gmi0ji1-glow"><stop offset="0%" stop-color="hsl(40.0 30.0% 92.0% / 0.850)"/><stop offset="45%" stop-color="hsl(40.0 30.0% 92.0% / 0.250)"/><stop offset="100%" stop-color="hsl(40.0 30.0% 92.0% / 0.000)"/></radialGradient><linearGradient id="gmi0ji1-fog0" x1="0" y1="0" x2="0" y2="1"><stop offset="0%" stop-color="hsl(40 20% 96% / 0)"/><stop offset="55%" stop-color="hsl(40 20% 96% / 0.35)"/><stop offset="100%" stop-color="hsl(40 20% 96% / 0)"/></linearGradient><linearGradient id="gmi0ji1-fog1" x1="0" y1="0" x2="0" y2="1"><stop offset="0%" stop-color="hsl(40 20% 96% / 0)"/><stop offset="55%" stop-color="hsl(40 20% 96% / 0.17)"/><stop offset="100%" stop-color="hsl(40 20% 96% / 0)"/></linearGradient><linearGradient id="gmi0ji1-fog2" x1="0" y1="0" x2="0" y2="1"><stop offset="0%" stop-color="hsl(40 20% 96% / 0)"/><stop offset="55%" stop-color="hsl(40 20% 96% / 0.18)"/><stop offset="100%" stop-color="hsl(40 20% 96% / 0)"/></linearGradient><linearGradient id="gmi0ji1-fog3" x1="0" y1="0" x2="0" y2="1"><stop offset="0%" stop-color="hsl(40 20% 96% / 0)"/><stop offset="55%" stop-color="hsl(40 20% 96% / 0.27)"/><stop offset="100%" stop-color="hsl(40 20% 96% / 0)"/></linearGradient><linearGradient id="gmi0ji1-fog5" x1="0" y1="0" x2="0" y2="1"><stop offset="0%" stop-color="hsl(40 20% 96% / 0)"/><stop offset="55%" stop-color="hsl(40 20% 96% / 0.17)"/><stop offset="100%" stop-color="hsl(40 20% 96% / 0)"/></linearGradient><linearGradient id="gmi0ji1-fog6" x1="0" y1="0" x2="0" y2="1"><stop offset="0%" stop-color="hsl(40 20% 96% / 0)"/><stop offset="55%" stop-color="hsl(40 20% 96% / 0.36)"/><stop offset="100%" stop-color="hsl(40 20% 96% / 0)"/></linearGradient><radialGradient id="gmi0ji1-vig" cx="50%" cy="42%" r="75%"><stop offset="70%" stop-color="hsl(0 0% 0% / 0)"/><stop offset="100%" stop-color="hsl(0 0% 0% / 0.18)"/></radialGradient></defs><rect width="1600" height="597.6" fill="url(#gmi0ji1-sky)"/><rect y="596.6" width="1600" height="303.4" fill="hsl(168.0 16.5% 44.0%)"/><circle cx="636.2" cy="268.9" r="90" fill="url(#gmi0ji1-glow)"/><circle cx="636.2" cy="268.9" r="46" fill="hsl(40.0 30.0% 92.0%)"/><path d="M0 900 L0 589.0 Q0.0 589.0 50.0 562.8 Q100.0 536.5 150.0 480.8 Q200.0 425.1 250.0 438.5 Q300.0 451.9 350.0 440.4 Q400.0 428.8 450.0 409.6 Q500.0 390.4 550.0 403.8 Q600.0 417.2 650.0 371.5 Q700.0 325.8 750.0 287.1 Q800.0 248.4 850.0 271.9 Q900.0 295.3 950.0 350.6 Q1000.0 405.9 1050.0 444.9 Q1100.0 484.0 1150.0 489.0 Q1200.0 493.9 1250.0 501.2 Q1300.0 508.4 1350.0 469.4 Q1400.0 430.4 1450.0 474.3 Q1500.0 518.1 1550.0 549.7 L1600 581.3 L1600 900 Z" fill="hsl(74.7 17.6% 73.7%)"/><rect x="0" y="462.0" width="1600" height="345.9" fill="url(#gmi0ji1-fog0)"/><path d="M0 900 L0 398.4 Q0.0 398.4 42.1 385.8 Q84.2 373.2 126.3 367.6 Q168.4 361.9 210.5 392.2 Q252.6 422.4 294.7 476.0 Q336.8 529.6 378.9 573.0 Q421.1 616.3 463.2 588.0 Q505.3 559.6 547.4 507.3 Q589.5 454.9 631.6 472.2 Q673.7 489.4 715.8 494.5 Q757.9 499.5 800.0 466.3 Q842.1 433.2 884.2 411.0 Q926.3 388.9 968.4 373.2 Q1010.5 357.4 1052.6 340.7 Q1094.7 324.1 1136.8 367.6 Q1178.9 411.2 1221.1 469.0 Q1263.2 526.8 1305.3 522.6 Q1347.4 518.5 1389.5 501.4 Q1431.6 484.4 1473.7 497.8 Q1515.8 511.2 1557.9 548.9 L1600 586.5 L1600 900 Z" fill="hsl(77.5 17.5% 72.8%)"/><rect x="0" y="497.0" width="1600" height="315.8" fill="url(#gmi0ji1-fog1)"/><path d="M0 900 L0 611.0 Q0.0 611.0 38.1 586.1 Q76.2 561.1 114.3 513.5 Q152.4 465.8 190.5 449.3 Q228.6 432.8 266.7 437.5 Q304.8 442.2 342.9 448.6 Q381.0 454.9 419.0 448.9 Q457.1 442.8 495.2 470.2 Q533.3 497.6 571.4 492.8 Q609.5 488.0 647.6 486.0 Q685.7 484.0 723.8 487.9 Q761.9 491.9 800.0 513.4 Q838.1 534.8 876.2 552.7 Q914.3 570.6 952.4 583.9 Q990.5 597.3 1028.6 616.9 Q1066.7 636.5 1104.8 607.5 Q1142.9 578.4 1181.0 542.3 Q1219.0 506.2 1257.1 495.7 Q1295.2 485.1 1333.3 463.3 Q1371.4 441.6 1409.5 413.7 Q1447.6 385.7 1485.7 397.0 Q1523.8 408.3 1561.9 437.4 L1600 466.5 L1600 900 Z" fill="hsl(85.9 17.4% 70.1%)"/><rect x="0" y="542.4" width="1600" height="262.4" fill="url(#gmi0ji1-fog2)"/><path d="M0 900 L0 566.5 Q0.0 566.5 38.1 558.3 Q76.2 550.0 114.3 522.6 Q152.4 495.2 190.5 509.6 Q228.6 523.9 266.7 538.5 Q304.8 553.0 342.9 570.5 Q381.0 588.0 419.0 574.9 Q457.1 561.8 495.2 574.1 Q533.3 586.3 571.4 605.5 Q609.5 624.8 647.6 623.3 Q685.7 621.9 723.8 625.2 Q761.9 628.5 800.0 625.6 Q838.1 622.8 876.2 604.2 Q914.3 585.5 952.4 553.4 Q990.5 521.2 1028.6 492.8 Q1066.7 464.3 1104.8 489.1 Q1142.9 513.9 1181.0 544.3 Q1219.0 574.6 1257.1 583.2 Q1295.2 591.8 1333.3 612.7 Q1371.4 633.6 1409.5 633.6 Q1447.6 633.5 1485.7 625.7 Q1523.8 617.8 1561.9 598.8 L1600 579.7 L1600 900 Z" fill="hsl(99.9 17.3% 65.7%)"/><rect x="0" y="597.5" width="1600" height="187.0" fill="url(#gmi0ji1-fog3)"/><path d="M0 900 L0 608.2 Q0.0 608.2 53.3 581.3 Q106.7 554.4 160.0 556.1 Q213.3 557.8 266.7 565.8 Q320.0 573.9 373.3 588.4 Q426.7 602.9 480.0 640.5 Q533.3 678.1 586.7 664.1 Q640.0 650.0 693.3 632.1 Q746.7 614.2 800.0 576.6 Q853.3 538.9 906.7 518.5 Q960.0 498.0 1013.3 530.9 Q1066.7 563.8 1120.0 583.3 Q1173.3 602.9 1226.7 644.8 Q1280.0 686.8 1333.3 682.8 Q1386.7 678.7 1440.0 648.2 Q1493.3 617.6 1546.7 607.0 L1600 596.3 L1600 900 Z" fill="hsl(119.5 17.1% 59.4%)"/><path d="M0 900 L0 653.0 Q0.0 653.0 57.1 674.9 Q114.3 696.8 171.4 680.7 Q228.6 664.5 285.7 658.0 Q342.9 651.5 400.0 637.3 Q457.1 623.2 514.3 625.0 Q571.4 626.8 628.6 603.2 Q685.7 579.6 742.9 596.3 Q800.0 613.0 857.1 632.2 Q914.3 651.4 971.4 682.8 Q1028.6 714.2 1085.7 694.8 Q1142.9 675.4 1200.0 652.9 Q1257.1 630.4 1314.3 599.9 Q1371.4 569.4 1428.6 585.4 Q1485.7 601.5 1542.9 612.8 L1600 624.2 L1600 900 Z" fill="hsl(144.8 16.8% 51.4%)"/><rect x="0" y="654.7" width="1600" height="155.3" fill="url(#gmi0ji1-fog5)"/><path d="M0 900 L0 718.8 Q0.0 718.8 44.4 719.2 Q88.9 719.6 133.3 711.0 Q177.8 702.3 222.2 678.4 Q266.7 654.4 311.1 644.1 Q355.6 633.7 400.0 643.3 Q444.4 652.9 488.9 639.2 Q533.3 625.6 577.8 626.8 Q622.2 628.1 666.7 602.5 Q711.1 576.8 755.6 598.9 Q800.0 621.0 844.4 650.7 Q888.9 680.4 933.3 696.1 Q977.8 711.9 1022.2 717.5 Q1066.7 723.1 1111.1 696.6 Q1155.6 670.0 1200.0 672.8 Q1244.4 675.6 1288.9 669.4 Q1333.3 663.2 1377.8 663.4 Q1422.2 663.7 1466.7 646.0 Q1511.1 628.3 1555.6 606.1 L1600 583.8 L1600 900 Z" fill="hsl(175.6 16.4% 41.6%)"/><rect x="0" y="674.5" width="1600" height="159.5" fill="url(#gmi0ji1-fog6)"/><path d="M0 900 L0 682.5 Q0.0 682.5 42.1 672.0 Q84.2 661.5 126.3 665.3 Q168.4 669.2 210.5 677.8 Q252.6 686.4 294.7 677.2 Q336.8 667.9 378.9 661.8 Q421.1 655.7 463.2 664.8 Q505.3 673.8 547.4 684.6 Q589.5 695.3 631.6 722.9 Q673.7 750.6 715.8 749.6 Q757.9 748.6 800.0 731.9 Q842.1 715.3 884.2 722.1 Q926.3 729.0 968.4 723.8 Q1010.5 718.6 1052.6 722.4 Q1094.7 726.2 1136.8 719.6 Q1178.9 712.9 1221.1 689.0 Q1263.2 665.0 1305.3 657.7 Q1347.4 650.4 1389.5 655.0 Q1431.6 659.6 1473.7 667.1 Q1515.8 674.5 1557.9 688.2 L1600 701.8 L1600 900 Z" fill="hsl(212.0 16.0% 30.0%)"/><rect width="1600" height="900" fill="url(#gmi0ji1-vig)"/></svg>