<svg xmlns="http://www.w3.org/2000/svg" viewBox="0 0 1600 900" role="img" preserveAspectRatio="xMidYMid slice"><title>hoang-su-phi-xin-man s1</title><defs><linearGradient id="g6wwaf0-sky" x1="0" y1="0" x2="0" y2="1"><stop offset="0%" stop-color="hsl(202.0 50.0% 60.0%)"/><stop offset="50%" stop-color="hsl(190.0 35.0% 74.0%)"/><stop offset="100%" stop-color="hsl(48.0 60.0% 78.0%)"/></linearGradient><radialGradient id="g6wwaf0-glow"><stop offset="0%" stop-color="hsl(46.0 85.0% 82.0% / 0.850)"/><stop offset="45%" stop-color="hsl(46.0 85.0% 82.0% / 0.250)"/><stop offset="100%" stop-color="hsl(46.0 85.0% 82.0% / 0.000)"/></radialGradient><radialGradient id="g6wwaf0-vig" cx="50%" cy="42%" r="75%"><stop offset="70%" stop-color="hsl(0 0% 0% / 0)"/><stop offset="100%" stop-color="hsl(0 0% 0% / 0.18)"/></radialGradient></defs><rect width="1600" height="410.0" fill="url(#g6wwaf0-sky)"/><rect y="409.0" width="1600" height="491.0" fill="hsl(124.5 36.0% 36.0%)"/><circle cx="417.9" cy="246.0" r="110" fill="url(#g6wwaf0-glow)"/><circle cx="417.9" cy="246.0" r="48" fill="hsl(46.0 85.0% 82.0%)"/><path d="M0 900 L0 372.1 Q0.0 372.1 57.1 339.6 Q114.3 307.1 171.4 301.1 Q228.6 295.2 285.7 268.1 Q342.9 241.0 400.0 267.5 Q457.1 294.0 514.3 313.8 Q571.4 333.6 628.6 362.4 Q685.7 391.3 742.9 403.9 Q800.0 416.5 857.1 378.7 Q914.3 340.9 971.4 305.2 Q1028.6 269.5 1085.7 238.5 Q1142.9 207.5 1200.0 244.5 Q1257.1 281.4 1314.3 301.8 Q1371.4 322.2 1428.6 373.4 Q1485.7 424.7 1542.9 407.5 L1600 390.3 L1600 900 Z" fill="hsl(70.4 53.0% 65.7%)"/><path d="M0 900 L0 470.7 Q0.0 470.7 38.1 452.0 Q76.2 433.4 114.3 413.0 Q152.4 392.6 190.5 362.1 Q228.6 331.6 266.7 336.6 Q304.8 341.6 342.9 360.4 Q381.0 379.2 419.0 380.2 Q457.1 381.2 495.2 387.0 Q533.3 392.8 571.4 413.7 Q609.5 434.6 647.6 441.6 Q685.7 448.6 723.8 437.2 Q761.9 425.9 800.0 423.3 Q838.1 420.7 876.2 436.0 Q914.3 451.3 952.4 459.9 Q990.5 468.5 1028.6 467.3 Q1066.7 466.1 1104.8 460.3 Q1142.9 454.5 1181.0 464.2 Q1219.0 473.8 1257.1 452.4 Q1295.2 431.0 1333.3 402.8 Q1371.4 374.6 1409.5 351.8 Q1447.6 329.0 1485.7 331.5 Q1523.8 334.0 1561.9 350.7 L1600 367.5 L1600 900 Z" fill="hsl(79.3 50.2% 60.8%)"/><path d="M0 900 L0 570.6 Q0.0 570.6 44.4 573.0 Q88.9 575.4 133.3 574.9 Q177.8 574.3 222.2 539.0 Q266.7 503.7 311.1 496.7 Q355.6 489.8 400.0 477.0 Q444.4 464.2 488.9 468.8 Q533.3 473.5 577.8 495.1 Q622.2 516.8 666.7 516.2 Q711.1 515.6 755.6 518.8 Q800.0 522.0 844.4 524.8 Q888.9 527.5 933.3 536.9 Q977.8 546.3 1022.2 568.5 Q1066.7 590.7 1111.1 578.9 Q1155.6 567.0 1200.0 562.2 Q1244.4 557.3 1288.9 535.8 Q1333.3 514.4 1377.8 489.2 Q1422.2 464.1 1466.7 468.8 Q1511.1 473.5 1555.6 482.1 L1600 490.7 L1600 900 Z" fill="hsl(105.8 41.9% 46.3%)"/><path d="M0 900 L0 625.8 Q0.0 625.8 47.1 642.5 Q94.1 659.1 141.2 668.9 Q188.2 678.6 235.3 669.2 Q282.4 659.7 329.4 644.6 Q376.5 629.4 423.5 624.6 Q470.6 619.8 517.6 611.7 Q564.7 603.5 611.8 611.2 Q658.8 618.8 705.9 614.5 Q752.9 610.1 800.0 590.4 Q847.1 570.8 894.1 587.1 Q941.2 603.5 988.2 618.3 Q1035.3 633.1 1082.4 636.8 Q1129.4 640.4 1176.5 648.2 Q1223.5 655.9 1270.6 652.6 Q1317.6 649.3 1364.7 644.5 Q1411.8 639.7 1458.8 654.8 Q1505.9 669.8 1552.9 660.9 L1600 651.9 L1600 900 Z" fill="hsl(150.0 28.0% 22.0%)"/><g><path d="M0 900 L0 410.0 L100.0 399.7 L200.0 401.4 L300.0 405.0 L400.0 409.7 L500.0 414.5 L600.0 418.2 L700.0 420.2 L800.0 419.9 L900.0 417.5 L1000.0 413.4 L1100.0 408.6 L1200.0 404.1 L1300.0 400.8 L1400.0 399.6 L1500.0 400.6 L1600.0 403.7 L1600 900 Z" fill="hsl(95.0 45.0% 42.0%)"/><path d="M0 900 L0 442.6 L100.0 443.8 L200.0 449.4 L300.0 453.3 L400.0 454.6 L500.0 453.1 L600.0 449.0 L700.0 443.3 L800.0 437.5 L900.0 433.0 L1000.0 430.8 L1100.0 431.4 L1200.0 434.8 L1300.0 440.1 L1400.0 446.0 L1500.0 451.1 L1600.0 454.1 L1600 900 Z" fill="hsl(73.7 48.9% 46.9%)"/><path d="M0 900 L0 475.3 L100.0 474.1 L200.0 481.0 L300.0 486.4 L400.0 488.9 L500.0 487.6 L600.0 483.1 L700.0 476.5 L800.0 469.6 L900.0 464.2 L1000.0 461.8 L1100.0 463.0 L1200.0 467.5 L1300.0 474.1 L1400.0 481.0 L1500.0 486.4 L1600.0 488.9 L1600 900 Z" fill="hsl(53.9 52.4% 49.5%)"/><path d="M0 900 L0 508.0 L100.0 523.1 L200.0 520.1 L300.0 513.6 L400.0 505.4 L500.0 497.9 L600.0 493.5 L700.0 493.3 L800.0 497.4 L900.0 504.7 L1000.0 512.9 L1100.0 519.7 L1200.0 523.0 L1300.0 521.9 L1400.0 516.7 L1500.0 508.9 L1600.0 500.9 L1600 900 Z" fill="hsl(97.9 37.8% 34.0%)"/><path d="M0 900 L0 540.6 L100.0 556.4 L200.0 557.1 L300.0 552.4 L400.0 544.0 L500.0 534.5 L600.0 527.0 L700.0 523.9 L800.0 526.2 L900.0 533.1 L1000.0 542.5 L1100.0 551.3 L1200.0 556.7 L1300.0 556.8 L1400.0 551.8 L1500.0 543.2 L1600.0 533.7 L1600 900 Z" fill="hsl(86.9 41.3% 38.5%)"/><path d="M0 900 L0 573.3 L100.0 590.6 L200.0 583.9 L300.0 573.5 L400.0 563.0 L500.0 556.2 L600.0 555.4 L700.0 560.9 L800.0 570.7 L900.0 581.5 L1000.0 589.4 L1100.0 591.6 L1200.0 587.4 L1300.0 578.2 L1400.0 567.3 L1500.0 558.5 L1600.0 554.9 L1600 900 Z" fill="hsl(68.6 44.5% 42.5%)"/><path d="M0 900 L0 606.0 L100.0 588.7 L200.0 598.0 L300.0 610.3 L400.0 621.0 L500.0 625.9 L600.0 623.2 L700.0 614.0 L800.0 601.7 L900.0 591.0 L1000.0 586.1 L1100.0 588.7 L1200.0 598.0 L1300.0 610.3 L1400.0 621.0 L1500.0 625.9 L1600.0 623.2 L1600 900 Z" fill="hsl(51.7 47.3% 44.5%)"/><path d="M0 900 L0 638.7 L100.0 643.9 L200.0 630.0 L300.0 619.8 L400.0 617.3 L500.0 623.7 L600.0 636.2 L700.0 649.8 L800.0 658.8 L900.0 659.4 L1000.0 651.5 L1100.0 638.3 L1200.0 625.2 L1300.0 617.7 L1400.0 618.9 L1500.0 628.2 L1600.0 641.9 L1600 900 Z" fill="hsl(88.3 34.9% 31.4%)"/><path d="M0 900 L0 671.3 L100.0 693.9 L200.0 692.3 L300.0 681.3 L400.0 665.9 L500.0 652.9 L600.0 648.1 L700.0 653.7 L800.0 667.1 L900.0 682.4 L1000.0 692.7 L1100.0 693.6 L1200.0 684.5 L1300.0 669.5 L1400.0 655.4 L1500.0 648.3 L1600.0 651.5 L1600 900 Z" fill="hsl(78.9 37.7% 35.0%)"/><path d="M0 900 L0 704.0 L100.0 690.7 L200.0 680.3 L300.0 681.2 L400.0 693.0 L500.0 710.1 L600.0 724.2 L700.0 728.7 L800.0 721.3 L900.0 705.6 L1000.0 689.1 L1100.0 679.8 L1200.0 682.0 L1300.0 694.8 L1400.0 712.0 L1500.0 725.3 L1600.0 728.4 L1600 900 Z" fill="hsl(63.4 40.1% 38.1%)"/><path d="M0 900 L0 736.7 L100.0 743.8 L200.0 759.0 L300.0 762.7 L400.0 753.0 L500.0 735.0 L600.0 717.8 L700.0 710.3 L800.0 716.3 L900.0 732.8 L1000.0 751.3 L1100.0 762.2 L1200.0 760.0 L1300.0 745.8 L1400.0 726.9 L1500.0 713.0 L1600.0 711.2 L1600 900 Z" fill="hsl(49.5 42.2% 39.5%)"/><path d="M0 900 L0 769.3 L100.0 793.1 L200.0 776.4 L300.0 755.8 L400.0 742.6 L500.0 744.1 L600.0 759.5 L700.0 780.2 L800.0 795.0 L900.0 795.6 L1000.0 781.8 L1100.0 761.2 L1200.0 745.0 L1300.0 742.2 L1400.0 754.3 L1500.0 774.6 L1600.0 792.1 L1600 900 Z" fill="hsl(78.8 31.9% 28.7%)"/><path d="M0 900 L0 802.0 L100.0 773.6 L200.0 776.0 L300.0 793.6 L400.0 816.1 L500.0 830.4 L600.0 828.0 L700.0 810.4 L800.0 787.9 L900.0 773.6 L1000.0 776.0 L1100.0 793.6 L1200.0 816.1 L1300.0 830.4 L1400.0 828.0 L1500.0 810.4 L1600.0 787.9 L1600 900 Z" fill="hsl(70.8 34.0% 31.4%)"/><path d="M0 900 L0 834.7 L100.0 859.5 L200.0 838.0 L300.0 814.5 L400.0 803.5 L500.0 812.0 L600.0 834.6 L700.0 857.2 L800.0 865.8 L900.0 855.0 L1000.0 831.5 L1100.0 810.0 L1200.0 803.8 L1300.0 816.9 L1400.0 841.1 L1500.0 861.2 L1600.0 864.8 L1600 900 Z" fill="hsl(58.3 35.7% 33.7%)"/><path d="M0 900 L0 867.3 L100.0 839.2 L200.0 861.0 L300.0 887.0 L400.0 900.0 L500.0 891.4 L600.0 866.8 L700.0 842.6 L800.0 834.8 L900.0 848.5 L1000.0 874.7 L1100.0 896.0 L1200.0 898.4 L1300.0 880.2 L1400.0 853.5 L1500.0 836.0 L1600.0 839.2 L1600 900 Z" fill="hsl(47.3 37.0% 34.5%)"/></g><rect width="1600" height="900" fill="url(#g6wwaf0-vig)"/></svg>