<svg xmlns="http://www.w3.org/2000/svg" viewBox="0 0 1600 900" role="img" preserveAspectRatio="xMidYMid slice"><title>moc-chau-mua-man-no-hoa hero</title><defs><linearGradient id="g624lgc-sky" x1="0" y1="0" x2="0" y2="1"><stop offset="0%" stop-color="hsl(210.0 35.0% 70.0%)"/><stop offset="50%" stop-color="hsl(330.0 25.0% 82.0%)"/><stop offset="100%" stop-color="hsl(40.0 40.0% 84.0%)"/></linearGradient><radialGradient id="g624lgc-glow"><stop offset="0%" stop-color="hsl(45.0 55.0% 88.0% / 0.850)"/><stop offset="45%" stop-color="hsl(45.0 55.0% 88.0% / 0.250)"/><stop offset="100%" stop-color="hsl(45.0 55.0% 88.0% / 0.000)"/></radialGradient><linearGradient id="g624lgc-fog1" x1="0" y1="0" x2="0" y2="1"><stop offset="0%" stop-color="hsl(40 20% 96% / 0)"/><stop offset="55%" stop-color="hsl(40 20% 96% / 0.22)"/><stop offset="100%" stop-color="hsl(40 20% 96% / 0)"/></linearGradient><radialGradient id="g624lgc-vig" cx="50%" cy="42%" r="75%"><stop offset="70%" stop-color="hsl(0 0% 0% / 0)"/><stop offset="100%" stop-color="hsl(0 0% 0% / 0.18)"/></radialGradient></defs><rect width="1600" height="556.6" fill="url(#g624lgc-sky)"/><rect y="555.6" width="1600" height="344.4" fill="hsl(291.3 23.5% 43.5%)"/><circle cx="588.8" cy="278.3" r="90" fill="url(#g624lgc-glow)"/><circle cx="588.8" cy="278.3" r="44" fill="hsl(45.0 55.0% 88.0%)"/><path d="M0 900 L0 378.6 Q0.0 378.6 40.0 355.1 Q80.0 331.6 120.0 332.4 Q160.0 333.2 200.0 347.1 Q240.0 361.0 280.0 379.7 Q320.0 398.4 360.0 430.2 Q400.0 462.0 440.0 446.9 Q480.0 431.7 520.0 418.4 Q560.0 405.0 600.0 442.1 Q640.0 479.2 680.0 514.7 Q720.0 550.2 760.0 544.5 Q800.0 538.7 840.0 516.5 Q880.0 494.2 920.0 467.7 Q960.0 441.2 1000.0 402.4 Q1040.0 363.5 1080.0 349.7 Q1120.0 335.8 1160.0 369.8 Q1200.0 403.9 1240.0 410.6 Q1280.0 417.4 1320.0 399.6 Q1360.0 381.8 1400.0 388.6 Q1440.0 395.5 1480.0 407.1 Q1520.0 418.6 1560.0 440.7 L1600 462.7 L1600 900 Z" fill="hsl(8.1 35.2% 72.1%)"/><path d="M0 900 L0 615.5 Q0.0 615.5 38.1 590.8 Q76.2 566.2 114.3 544.3 Q152.4 522.3 190.5 519.9 Q228.6 517.4 266.7 488.4 Q304.8 459.4 342.9 459.6 Q381.0 459.8 419.0 475.0 Q457.1 490.2 495.2 486.0 Q533.3 481.9 571.4 491.7 Q609.5 501.5 647.6 496.1 Q685.7 490.6 723.8 473.2 Q761.9 455.8 800.0 472.5 Q838.1 489.3 876.2 492.2 Q914.3 495.2 952.4 504.1 Q990.5 513.0 1028.6 547.1 Q1066.7 581.2 1104.8 580.5 Q1142.9 579.7 1181.0 589.7 Q1219.0 599.6 1257.1 614.1 Q1295.2 628.5 1333.3 590.6 Q1371.4 552.7 1409.5 533.8 Q1447.6 515.0 1485.7 507.6 Q1523.8 500.2 1561.9 460.4 L1600 420.6 L1600 900 Z" fill="hsl(355.5 33.3% 67.4%)"/><rect x="0" y="539.9" width="1600" height="212.8" fill="url(#g624lgc-fog1)"/><path d="M0 900 L0 545.0 Q0.0 545.0 47.1 565.5 Q94.1 585.9 141.2 622.0 Q188.2 658.0 235.3 650.5 Q282.4 643.0 329.4 646.8 Q376.5 650.7 423.5 624.6 Q470.6 598.4 517.6 614.7 Q564.7 630.9 611.8 621.0 Q658.8 611.1 705.9 599.4 Q752.9 587.7 800.0 571.2 Q847.1 554.6 894.1 548.5 Q941.2 542.5 988.2 566.8 Q1035.3 591.2 1082.4 606.2 Q1129.4 621.3 1176.5 654.2 Q1223.5 687.1 1270.6 668.8 Q1317.6 650.5 1364.7 638.9 Q1411.8 627.3 1458.8 606.9 Q1505.9 586.5 1552.9 578.2 L1600 570.0 L1600 900 Z" fill="hsl(317.8 27.5% 53.4%)"/><path d="M0 900 L0 654.1 Q0.0 654.1 38.1 660.3 Q76.2 666.6 114.3 675.9 Q152.4 685.2 190.5 694.9 Q228.6 704.6 266.7 712.1 Q304.8 719.6 342.9 737.5 Q381.0 755.4 419.0 743.5 Q457.1 731.7 495.2 720.5 Q533.3 709.4 571.4 704.5 Q609.5 699.5 647.6 674.0 Q685.7 648.5 723.8 649.9 Q761.9 651.2 800.0 647.0 Q838.1 642.8 876.2 635.1 Q914.3 627.4 952.4 643.1 Q990.5 658.9 1028.6 664.6 Q1066.7 670.3 1104.8 654.1 Q1142.9 638.0 1181.0 648.2 Q1219.0 658.5 1257.1 654.6 Q1295.2 650.8 1333.3 646.9 Q1371.4 642.9 1409.5 653.5 Q1447.6 664.2 1485.7 669.2 Q1523.8 674.2 1561.9 680.6 L1600 687.1 L1600 900 Z" fill="hsl(255.0 18.0% 30.0%)"/><g><circle cx="1242.9" cy="667.2" r="3.9" fill="hsl(335 55% 88.97216628864408% / 0.89)"/><circle cx="721.1" cy="576.9" r="2.6" fill="hsl(40 25% 94.87070025876164% / 0.86)"/><circle cx="1338.1" cy="769.1" r="4.6" fill="hsl(335 55% 90.50557597354054% / 0.92)"/><circle cx="808.5" cy="799.4" r="4.1" fill="hsl(40 25% 91.46753420494497% / 0.78)"/><circle cx="298.0" cy="855.7" r="2.0" fill="hsl(335 55% 89.99886288121343% / 0.65)"/><circle cx="301.7" cy="681.2" r="4.3" fill="hsl(40 25% 92.56171013601124% / 0.90)"/><circle cx="191.9" cy="674.1" r="2.8" fill="hsl(40 25% 94.24281664192677% / 0.66)"/><circle cx="1077.5" cy="700.8" r="2.6" fill="hsl(40 25% 92.9542691744864% / 0.76)"/><circle cx="1207.5" cy="823.0" r="6.5" fill="hsl(335 55% 93.43753245286644% / 0.84)"/><circle cx="1584.1" cy="804.0" r="5.9" fill="hsl(40 25% 89.97076507098973% / 0.85)"/><circle cx="74.0" cy="869.3" r="2.4" fill="hsl(40 25% 93.11427095159888% / 0.64)"/><circle cx="634.1" cy="802.4" r="3.9" fill="hsl(335 55% 95.34740224666893% / 0.93)"/><circle cx="454.3" cy="814.5" r="4.7" fill="hsl(335 55% 92.95187128521502% / 0.89)"/><circle cx="244.1" cy="680.5" r="3.1" fill="hsl(40 25% 94.54139096289873% / 0.86)"/><circle cx="1511.9" cy="886.3" r="3.6" fill="hsl(40 25% 88.60779277980328% / 0.94)"/><circle cx="872.6" cy="843.0" r="5.4" fill="hsl(40 25% 90.83269973285496% / 0.70)"/><circle cx="1123.1" cy="807.3" r="3.4" fill="hsl(335 55% 91.89274222403765% / 0.76)"/><circle cx="419.4" cy="752.9" r="3.7" fill="hsl(40 25% 92.1212923116982% / 0.72)"/><circle cx="441.1" cy="653.0" r="3.7" fill="hsl(40 25% 92.24671711400151% / 0.58)"/><circle cx="775.5" cy="849.3" r="5.2" fill="hsl(40 25% 93.25538810901344% / 0.74)"/><circle cx="1223.8" cy="628.3" r="4.4" fill="hsl(335 55% 90.47644645534456% / 0.65)"/><circle cx="1316.3" cy="789.6" r="3.1" fill="hsl(40 25% 93.23998359963298% / 0.86)"/><circle cx="865.4" cy="868.2" r="3.4" fill="hsl(335 55% 91.53396265767515% / 0.56)"/><circle cx="1162.0" cy="849.9" r="4.5" fill="hsl(335 55% 89.15927493199706% / 0.94)"/><circle cx="517.1" cy="718.6" r="5.2" fill="hsl(335 55% 91.06250898912549% / 0.79)"/><circle cx="1291.2" cy="732.8" r="2.2" fill="hsl(40 25% 93.45856220833957% / 0.55)"/><circle cx="1418.8" cy="794.6" r="6.6" fill="hsl(40 25% 92.29110298492014% / 0.79)"/><circle cx="93.0" cy="767.6" r="3.4" fill="hsl(40 25% 91.4256894942373% / 0.78)"/><circle cx="1420.2" cy="889.4" r="7.4" fill="hsl(335 55% 94.53490899130702% / 0.51)"/><circle cx="935.5" cy="600.4" r="3.4" fill="hsl(40 25% 88.00242837332189% / 0.55)"/><circle cx="1288.7" cy="701.7" r="3.2" fill="hsl(335 55% 91.12813084572554% / 0.68)"/><circle cx="551.1" cy="653.6" r="4.9" fill="hsl(40 25% 95.42482713796198% / 0.89)"/><circle cx="584.6" cy="691.2" r="4.5" fill="hsl(335 55% 93.6834067106247% / 0.62)"/><circle cx="50.6" cy="642.2" r="3.1" fill="hsl(40 25% 94.90311120264232% / 0.91)"/><circle cx="824.6" cy="631.7" r="2.3" fill="hsl(335 55% 90.22155606374145% / 0.85)"/><circle cx="1373.4" cy="621.8" r="3.6" fill="hsl(335 55% 89.35672475025058% / 0.84)"/><circle cx="1572.6" cy="872.7" r="4.0" fill="hsl(40 25% 93.94275437667966% / 0.89)"/><circle cx="1388.2" cy="800.3" r="4.4" fill="hsl(335 55% 88.27259928546846% / 0.88)"/><circle cx="882.1" cy="897.9" r="5.9" fill="hsl(335 55% 88.9788564182818% / 0.93)"/><circle cx="1559.8" cy="851.1" r="6.1" fill="hsl(40 25% 90.94869092665613% / 0.70)"/><circle cx="98.1" cy="840.5" r="7.3" fill="hsl(40 25% 90.74684480763972% / 0.93)"/><circle cx="873.8" cy="863.3" r="6.1" fill="hsl(40 25% 92.63998783379793% / 0.88)"/><circle cx="1087.2" cy="618.9" r="3.0" fill="hsl(335 55% 94.55334022827446% / 0.59)"/><circle cx="124.2" cy="899.0" r="4.1" fill="hsl(335 55% 92.58787517994642% / 0.81)"/><circle cx="50.4" cy="801.4" r="2.4" fill="hsl(40 25% 92.43782964348793% / 0.63)"/><circle cx="1312.5" cy="790.2" r="3.8" fill="hsl(335 55% 91.21317445114255% / 0.90)"/><circle cx="2.3" cy="693.6" r="2.4" fill="hsl(335 55% 89.74995264597237% / 0.62)"/><circle cx="617.1" cy="844.9" r="4.9" fill="hsl(335 55% 95.77834733389318% / 0.52)"/><circle cx="1072.4" cy="759.7" r="4.8" fill="hsl(335 55% 94.57931623794138% / 0.64)"/><circle cx="573.3" cy="619.2" r="3.6" fill="hsl(335 55% 94.21746786683798% / 0.90)"/><circle cx="1309.9" cy="721.5" r="5.1" fill="hsl(40 25% 94.19246366433799% / 0.85)"/><circle cx="1307.3" cy="641.8" r="3.0" fill="hsl(40 25% 89.69181852601469% / 0.84)"/><circle cx="1575.0" cy="690.4" r="4.1" fill="hsl(40 25% 93.52866970747709% / 0.64)"/><circle cx="674.0" cy="834.8" r="4.5" fill="hsl(40 25% 88.93813483044505% / 0.80)"/><circle cx="439.3" cy="649.6" r="4.3" fill="hsl(335 55% 94.11920815333724% / 0.70)"/><circle cx="777.2" cy="899.2" r="8.5" fill="hsl(335 55% 90.70758304186165% / 0.66)"/><circle cx="1054.9" cy="650.1" r="2.0" fill="hsl(40 25% 94.38068293593824% / 0.92)"/><circle cx="215.4" cy="733.1" r="5.7" fill="hsl(335 55% 90.62911208719015% / 0.81)"/><circle cx="37.7" cy="709.5" r="3.1" fill="hsl(335 55% 94.30939520522952% / 0.84)"/><circle cx="154.6" cy="831.5" r="2.2" fill="hsl(40 25% 90.89527784846723% / 0.79)"/><circle cx="1327.9" cy="668.5" r="4.9" fill="hsl(335 55% 94.43568182364106% / 0.81)"/><circle cx="1550.0" cy="653.3" r="4.4" fill="hsl(40 25% 93.52569095976651% / 0.82)"/><circle cx="1359.2" cy="773.0" r="5.1" fill="hsl(335 55% 93.79378744214773% / 0.90)"/><circle cx="191.6" cy="615.5" r="4.1" fill="hsl(40 25% 88.39415406994522% / 0.65)"/><circle cx="1519.5" cy="828.9" r="2.3" fill="hsl(335 55% 95.26533237099648% / 0.92)"/><circle cx="322.7" cy="742.6" r="3.3" fill="hsl(40 25% 93.52008410543203% / 0.81)"/><circle cx="430.8" cy="663.4" r="4.3" fill="hsl(335 55% 88.61505737155676% / 0.72)"/><circle cx="545.3" cy="896.6" r="3.8" fill="hsl(40 25% 88.7514287289232% / 0.55)"/><circle cx="399.9" cy="829.9" r="2.9" fill="hsl(335 55% 89.89088604412973% / 0.89)"/><circle cx="492.4" cy="707.8" r="3.3" fill="hsl(335 55% 89.65953788533807% / 0.57)"/><circle cx="1500.0" cy="712.4" r="4.9" fill="hsl(40 25% 89.21681081689894% / 0.53)"/><circle cx="472.2" cy="893.3" r="4.8" fill="hsl(40 25% 93.07415925338864% / 0.82)"/><circle cx="1577.8" cy="803.3" r="6.1" fill="hsl(40 25% 89.8151645436883% / 0.89)"/><circle cx="412.6" cy="780.2" r="5.3" fill="hsl(40 25% 88.4717478454113% / 0.73)"/><circle cx="394.8" cy="701.9" r="3.4" fill="hsl(40 25% 93.76379004493356% / 0.74)"/><circle cx="290.5" cy="578.8" r="2.1" fill="hsl(335 55% 95.53980767354369% / 0.51)"/><circle cx="188.9" cy="866.7" r="6.3" fill="hsl(40 25% 89.64203148521483% / 0.82)"/><circle cx="192.2" cy="872.3" r="6.2" fill="hsl(40 25% 93.912696974352% / 0.53)"/><circle cx="0.3" cy="688.5" r="3.6" fill="hsl(40 25% 93.49119673296809% / 0.63)"/><circle cx="259.3" cy="702.9" r="5.0" fill="hsl(40 25% 93.91183208860457% / 0.67)"/><circle cx="1390.3" cy="796.5" r="4.5" fill="hsl(40 25% 90.5375257525593% / 0.85)"/><circle cx="1048.5" cy="887.2" r="3.0" fill="hsl(40 25% 94.99960583075881% / 0.56)"/><circle cx="1538.4" cy="686.6" r="5.2" fill="hsl(40 25% 88.21628385223448% / 0.62)"/><circle cx="298.0" cy="703.8" r="3.8" fill="hsl(40 25% 89.71995707973838% / 0.69)"/><circle cx="37.4" cy="760.3" r="5.2" fill="hsl(40 25% 94.67123279348016% / 0.51)"/><circle cx="1039.9" cy="847.1" r="7.0" fill="hsl(335 55% 90.00532467290759% / 0.94)"/><circle cx="1234.7" cy="712.7" r="2.8" fill="hsl(335 55% 91.64081867411733% / 0.59)"/><circle cx="116.8" cy="763.9" r="3.0" fill="hsl(335 55% 90.6301676928997% / 0.63)"/><circle cx="673.0" cy="805.6" r="4.5" fill="hsl(40 25% 88.38399079814553% / 0.59)"/><circle cx="528.2" cy="692.4" r="4.5" fill="hsl(335 55% 91.79832442849874% / 0.67)"/><circle cx="468.6" cy="700.0" r="4.2" fill="hsl(40 25% 95.27851741574705% / 0.74)"/><circle cx="355.7" cy="834.7" r="4.6" fill="hsl(335 55% 90.03150083683431% / 0.88)"/><circle cx="1129.4" cy="747.0" r="3.3" fill="hsl(40 25% 93.41537316888571% / 0.54)"/><circle cx="500.6" cy="645.5" r="4.0" fill="hsl(335 55% 94.698430724442% / 0.61)"/><circle cx="702.7" cy="799.3" r="5.2" fill="hsl(40 25% 90.81706827506423% / 0.78)"/><circle cx="1510.7" cy="707.6" r="2.9" fill="hsl(335 55% 90.0241726860404% / 0.53)"/><circle cx="1329.7" cy="811.1" r="5.0" fill="hsl(335 55% 89.8058227840811% / 0.68)"/><circle cx="1178.7" cy="820.0" r="4.7" fill="hsl(40 25% 94.11068928427994% / 0.84)"/><circle cx="248.5" cy="877.3" r="7.9" fill="hsl(335 55% 91.22869784012437% / 0.69)"/><circle cx="540.3" cy="835.7" r="2.1" fill="hsl(40 25% 88.15349509753287% / 0.84)"/><circle cx="1533.1" cy="569.6" r="2.8" fill="hsl(40 25% 95.08947306498885% / 0.78)"/><circle cx="576.2" cy="734.4" r="4.8" fill="hsl(40 25% 89.17005971074104% / 0.61)"/><circle cx="432.3" cy="890.0" r="7.7" fill="hsl(40 25% 91.39935836009681% / 0.89)"/><circle cx="860.6" cy="839.6" r="4.4" fill="hsl(40 25% 91.68702331930399% / 0.93)"/><circle cx="903.0" cy="798.3" r="2.2" fill="hsl(40 25% 89.66697570867836% / 0.69)"/><circle cx="1149.0" cy="561.1" r="2.6" fill="hsl(40 25% 94.1336737126112% / 0.78)"/><circle cx="1062.0" cy="654.5" r="2.1" fill="hsl(40 25% 89.2107585631311% / 0.88)"/><circle cx="1417.1" cy="770.7" r="5.5" fill="hsl(335 55% 95.53536238707602% / 0.82)"/><circle cx="1363.7" cy="654.6" r="2.8" fill="hsl(40 25% 93.41047587431967% / 0.82)"/><circle cx="40.0" cy="826.0" r="3.0" fill="hsl(40 25% 93.249028544873% / 0.64)"/><circle cx="1228.4" cy="750.5" r="3.9" fill="hsl(335 55% 89.32876688241959% / 0.62)"/><circle cx="1041.5" cy="671.8" r="4.2" fill="hsl(40 25% 89.46540053375065% / 0.51)"/><circle cx="1316.6" cy="780.7" r="3.9" fill="hsl(40 25% 89.8010889403522% / 0.70)"/><circle cx="133.3" cy="790.1" r="3.2" fill="hsl(335 55% 90.19052824936807% / 0.95)"/><circle cx="633.2" cy="887.9" r="7.6" fill="hsl(40 25% 92.33766441233456% / 0.56)"/><circle cx="264.3" cy="899.9" r="3.4" fill="hsl(40 25% 93.94397874176502% / 0.70)"/><circle cx="91.8" cy="656.6" r="2.5" fill="hsl(335 55% 88.43285219557583% / 0.72)"/><circle cx="589.6" cy="775.1" r="4.6" fill="hsl(40 25% 89.61174463666975% / 0.87)"/><circle cx="19.7" cy="782.4" r="5.5" fill="hsl(40 25% 95.08899746462703% / 0.90)"/><circle cx="68.2" cy="655.6" r="2.9" fill="hsl(335 55% 95.08437387272716% / 0.86)"/><circle cx="540.5" cy="711.2" r="3.5" fill="hsl(335 55% 89.61827838607132% / 0.68)"/><circle cx="1051.6" cy="676.7" r="3.1" fill="hsl(40 25% 92.35301362164319% / 0.72)"/><circle cx="621.8" cy="603.7" r="2.2" fill="hsl(40 25% 91.82998681627214% / 0.53)"/><circle cx="671.6" cy="778.9" r="2.8" fill="hsl(40 25% 93.36539329588413% / 0.66)"/><circle cx="204.4" cy="679.3" r="3.5" fill="hsl(40 25% 90.60069917328656% / 0.94)"/><circle cx="1107.4" cy="899.7" r="8.0" fill="hsl(40 25% 89.94261618331075% / 0.68)"/><circle cx="1576.5" cy="745.3" r="2.7" fill="hsl(335 55% 94.24166751652956% / 0.78)"/><circle cx="191.9" cy="565.2" r="2.8" fill="hsl(40 25% 88.4856051132083% / 0.80)"/><circle cx="391.6" cy="885.0" r="4.3" fill="hsl(40 25% 95.35262562148273% / 0.57)"/><circle cx="1232.0" cy="815.8" r="5.8" fill="hsl(40 25% 91.05230327695608% / 0.86)"/><circle cx="577.3" cy="684.8" r="4.1" fill="hsl(40 25% 90.11242132261395% / 0.65)"/><circle cx="651.5" cy="882.4" r="2.4" fill="hsl(40 25% 95.28072515130043% / 0.71)"/><circle cx="790.5" cy="631.3" r="4.4" fill="hsl(40 25% 91.48143764585257% / 0.91)"/><circle cx="919.6" cy="754.3" r="2.3" fill="hsl(40 25% 89.42020167224109% / 0.71)"/><circle cx="557.6" cy="866.7" r="6.4" fill="hsl(40 25% 95.52067234367132% / 0.89)"/><circle cx="803.3" cy="734.5" r="5.4" fill="hsl(335 55% 94.39954709075391% / 0.84)"/><circle cx="1381.2" cy="609.2" r="3.6" fill="hsl(40 25% 95.57730782404542% / 0.86)"/><circle cx="754.9" cy="823.6" r="5.0" fill="hsl(40 25% 94.46642501093447% / 0.71)"/><circle cx="1389.7" cy="723.0" r="4.5" fill="hsl(335 55% 88.82996917329729% / 0.53)"/><circle cx="399.1" cy="876.7" r="7.0" fill="hsl(335 55% 92.75156298093498% / 0.62)"/><circle cx="1529.7" cy="897.1" r="6.0" fill="hsl(40 25% 94.27691945619881% / 0.84)"/><circle cx="336.6" cy="642.8" r="3.2" fill="hsl(335 55% 88.77757524326444% / 0.80)"/><circle cx="1431.3" cy="835.5" r="7.1" fill="hsl(335 55% 95.07785129360855% / 0.92)"/><circle cx="1190.5" cy="867.1" r="7.1" fill="hsl(335 55% 92.76717613264918% / 0.76)"/><circle cx="1216.9" cy="824.6" r="5.0" fill="hsl(40 25% 92.11459045484662% / 0.57)"/><circle cx="371.1" cy="714.2" r="2.6" fill="hsl(335 55% 92.21337458863854% / 0.93)"/><circle cx="397.0" cy="763.7" r="5.6" fill="hsl(40 25% 95.25015450455248% / 0.59)"/><circle cx="1019.1" cy="862.9" r="7.2" fill="hsl(40 25% 95.58059824071825% / 0.61)"/><circle cx="919.6" cy="730.4" r="5.7" fill="hsl(40 25% 95.10859319381416% / 0.66)"/><circle cx="515.4" cy="630.7" r="3.5" fill="hsl(335 55% 95.88336468487978% / 0.78)"/><circle cx="1287.3" cy="792.3" r="5.8" fill="hsl(335 55% 94.73885690420866% / 0.54)"/><circle cx="1265.8" cy="888.5" r="7.3" fill="hsl(40 25% 94.77360087819397% / 0.57)"/><circle cx="1442.5" cy="712.2" r="2.8" fill="hsl(40 25% 94.59927099384367% / 0.82)"/><circle cx="611.5" cy="838.7" r="3.3" fill="hsl(40 25% 93.45879349298775% / 0.70)"/><circle cx="773.4" cy="806.9" r="7.1" fill="hsl(40 25% 88.75292671658099% / 0.50)"/><circle cx="1479.1" cy="784.7" r="3.4" fill="hsl(335 55% 91.58595511876047% / 0.87)"/><circle cx="671.8" cy="608.6" r="2.2" fill="hsl(335 55% 94.91066912934184% / 0.88)"/><circle cx="162.0" cy="868.8" r="2.2" fill="hsl(40 25% 90.5357758961618% / 0.57)"/><circle cx="996.3" cy="779.3" r="2.2" fill="hsl(40 25% 93.34515370987356% / 0.91)"/><circle cx="233.6" cy="776.9" r="4.4" fill="hsl(40 25% 90.58440417051315% / 0.94)"/><circle cx="1454.6" cy="694.6" r="4.7" fill="hsl(335 55% 95.0524367056787% / 0.85)"/><circle cx="572.3" cy="853.2" r="7.0" fill="hsl(335 55% 89.56303948350251% / 0.59)"/><circle cx="52.8" cy="725.5" r="3.2" fill="hsl(40 25% 95.35829184949398% / 0.53)"/><circle cx="946.4" cy="853.3" r="7.0" fill="hsl(40 25% 88.45618760958314% / 0.74)"/><circle cx="385.3" cy="779.6" r="3.7" fill="hsl(40 25% 91.43124074116349% / 0.82)"/><circle cx="182.4" cy="871.2" r="7.5" fill="hsl(40 25% 89.84575462713838% / 0.94)"/><circle cx="97.1" cy="693.7" r="5.0" fill="hsl(40 25% 91.03836947865784% / 0.67)"/><circle cx="981.4" cy="793.0" r="4.9" fill="hsl(335 55% 95.0315614528954% / 0.83)"/><circle cx="470.9" cy="688.4" r="3.9" fill="hsl(40 25% 93.08373920619488% / 0.76)"/><circle cx="915.3" cy="890.7" r="4.8" fill="hsl(335 55% 95.02954522892833% / 0.91)"/><circle cx="297.5" cy="707.8" r="2.1" fill="hsl(40 25% 88.939409352839% / 0.83)"/><circle cx="44.5" cy="896.5" r="2.4" fill="hsl(40 25% 89.15030506812036% / 0.80)"/><circle cx="1407.4" cy="585.7" r="2.9" fill="hsl(335 55% 94.4828602746129% / 0.75)"/><circle cx="1507.9" cy="714.1" r="5.3" fill="hsl(40 25% 91.80112413316965% / 0.74)"/><circle cx="890.9" cy="820.7" r="5.8" fill="hsl(335 55% 90.23325305618346% / 0.76)"/><circle cx="647.6" cy="772.5" r="3.9" fill="hsl(40 25% 88.19198647886515% / 0.52)"/><circle cx="1492.0" cy="698.2" r="3.6" fill="hsl(335 55% 93.3631500415504% / 0.81)"/><circle cx="875.4" cy="798.1" r="4.8" fill="hsl(335 55% 88.87977524474263% / 0.93)"/><circle cx="1520.9" cy="725.4" r="3.5" fill="hsl(40 25% 89.67040086723864% / 0.51)"/><circle cx="885.0" cy="619.2" r="3.3" fill="hsl(335 55% 95.99049161374569% / 0.76)"/><circle cx="392.0" cy="781.6" r="4.0" fill="hsl(40 25% 91.66561742313206% / 0.86)"/><circle cx="4.1" cy="584.2" r="2.8" fill="hsl(40 25% 95.00183178111911% / 0.61)"/><circle cx="939.7" cy="563.9" r="2.7" fill="hsl(40 25% 94.50954701565206% / 0.85)"/><circle cx="1287.1" cy="697.4" r="3.6" fill="hsl(40 25% 90.38052202574909% / 0.69)"/><circle cx="995.0" cy="593.2" r="2.9" fill="hsl(335 55% 93.41871748864651% / 0.90)"/><circle cx="932.9" cy="684.5" r="4.7" fill="hsl(40 25% 90.74706263840199% / 0.72)"/><circle cx="1097.5" cy="864.4" r="5.9" fill="hsl(40 25% 93.52094467543066% / 0.74)"/><circle cx="1045.3" cy="579.3" r="2.5" fill="hsl(40 25% 89.54823875799775% / 0.81)"/><circle cx="267.4" cy="634.5" r="4.5" fill="hsl(40 25% 89.77435565553606% / 0.59)"/><circle cx="937.4" cy="587.1" r="3.1" fill="hsl(40 25% 93.93006297014654% / 0.86)"/><circle cx="302.1" cy="665.8" r="2.7" fill="hsl(40 25% 89.53233207948506% / 0.72)"/><circle cx="1249.0" cy="649.5" r="3.3" fill="hsl(335 55% 93.11216088756919% / 0.54)"/><circle cx="649.3" cy="740.5" r="2.4" fill="hsl(335 55% 90.2384036295116% / 0.62)"/></g><rect width="1600" height="900" fill="url(#g624lgc-vig)"/></svg>