<svg xmlns="http://www.w3.org/2000/svg" viewBox="0 0 1600 900" role="img" preserveAspectRatio="xMidYMid slice"><title>moc-chau-mua-man-no-hoa s2</title><defs><linearGradient id="gefua29-sky" x1="0" y1="0" x2="0" y2="1"><stop offset="0%" stop-color="hsl(210.0 14.0% 74.0%)"/><stop offset="50%" stop-color="hsl(210.0 12.0% 82.0%)"/><stop offset="100%" stop-color="hsl(36.0 18.0% 86.0%)"/></linearGradient><radialGradient id="gefua29-glow"><stop offset="0%" stop-color="hsl(40.0 30.0% 92.0% / 0.850)"/><stop offset="45%" stop-color="hsl(40.0 30.0% 92.0% / 0.250)"/><stop offset="100%" stop-color="hsl(40.0 30.0% 92.0% / 0.000)"/></radialGradient><linearGradient id="gefua29-fog0" x1="0" y1="0" x2="0" y2="1"><stop offset="0%" stop-color="hsl(40 20% 96% / 0)"/><stop offset="55%" stop-color="hsl(40 20% 96% / 0.27)"/><stop offset="100%" stop-color="hsl(40 20% 96% / 0)"/></linearGradient><linearGradient id="gefua29-fog1" x1="0" y1="0" x2="0" y2="1"><stop offset="0%" stop-color="hsl(40 20% 96% / 0)"/><stop offset="55%" stop-color="hsl(40 20% 96% / 0.31)"/><stop offset="100%" stop-color="hsl(40 20% 96% / 0)"/></linearGradient><linearGradient id="gefua29-fog3" x1="0" y1="0" x2="0" y2="1"><stop offset="0%" stop-color="hsl(40 20% 96% / 0)"/><stop offset="55%" stop-color="hsl(40 20% 96% / 0.28)"/><stop offset="100%" stop-color="hsl(40 20% 96% / 0)"/></linearGradient><linearGradient id="gefua29-fog4" x1="0" y1="0" x2="0" y2="1"><stop offset="0%" stop-color="hsl(40 20% 96% / 0)"/><stop offset="55%" stop-color="hsl(40 20% 96% / 0.23)"/><stop offset="100%" stop-color="hsl(40 20% 96% / 0)"/></linearGradient><linearGradient id="gefua29-fog5" x1="0" y1="0" x2="0" y2="1"><stop offset="0%" stop-color="hsl(40 20% 96% / 0)"/><stop offset="55%" stop-color="hsl(40 20% 96% / 0.26)"/><stop offset="100%" stop-color="hsl(40 20% 96% / 0)"/></linearGradient><radialGradient id="gefua29-vig" cx="50%" cy="42%" r="75%"><stop offset="70%" stop-color="hsl(0 0% 0% / 0)"/><stop offset="100%" stop-color="hsl(0 0% 0% / 0.18)"/></radialGradient></defs><rect width="1600" height="598.8" fill="url(#gefua29-sky)"/><rect y="597.8" width="1600" height="302.2" fill="hsl(168.0 16.5% 44.0%)"/><circle cx="620.8" cy="269.5" r="90" fill="url(#gefua29-glow)"/><circle cx="620.8" cy="269.5" r="46" fill="hsl(40.0 30.0% 92.0%)"/><path d="M0 900 L0 413.5 Q0.0 413.5 47.1 403.1 Q94.1 392.7 141.2 411.1 Q188.2 429.5 235.3 494.2 Q282.4 558.9 329.4 556.0 Q376.5 553.2 423.5 550.6 Q470.6 548.1 517.6 540.5 Q564.7 532.9 611.8 507.9 Q658.8 482.9 705.9 495.5 Q752.9 508.0 800.0 458.3 Q847.1 408.5 894.1 399.3 Q941.2 390.2 988.2 383.7 Q1035.3 377.3 1082.4 408.7 Q1129.4 440.1 1176.5 496.1 Q1223.5 552.1 1270.6 537.1 Q1317.6 522.2 1364.7 518.0 Q1411.8 513.9 1458.8 523.4 Q1505.9 532.9 1552.9 550.2 L1600 567.5 L1600 900 Z" fill="hsl(74.7 17.6% 73.7%)"/><rect x="0" y="509.0" width="1600" height="242.7" fill="url(#gefua29-fog0)"/><path d="M0 900 L0 591.1 Q0.0 591.1 47.1 609.4 Q94.1 627.8 141.2 601.1 Q188.2 574.5 235.3 551.7 Q282.4 528.9 329.4 508.6 Q376.5 488.3 423.5 481.2 Q470.6 474.2 517.6 494.7 Q564.7 515.3 611.8 498.5 Q658.8 481.7 705.9 458.0 Q752.9 434.3 800.0 448.1 Q847.1 461.8 894.1 505.3 Q941.2 548.7 988.2 576.1 Q1035.3 603.5 1082.4 598.5 Q1129.4 593.6 1176.5 592.4 Q1223.5 591.3 1270.6 561.8 Q1317.6 532.3 1364.7 538.2 Q1411.8 544.2 1458.8 554.4 Q1505.9 564.7 1552.9 534.4 L1600 504.0 L1600 900 Z" fill="hsl(78.5 17.5% 72.5%)"/><rect x="0" y="547.4" width="1600" height="212.7" fill="url(#gefua29-fog1)"/><path d="M0 900 L0 560.2 Q0.0 560.2 44.4 571.1 Q88.9 582.0 133.3 552.7 Q177.8 523.3 222.2 462.9 Q266.7 402.5 311.1 411.3 Q355.6 420.1 400.0 438.6 Q444.4 457.1 488.9 472.6 Q533.3 488.1 577.8 530.0 Q622.2 571.9 666.7 547.9 Q711.1 524.0 755.6 532.4 Q800.0 540.7 844.4 569.2 Q888.9 597.7 933.3 612.0 Q977.8 626.3 1022.2 631.0 Q1066.7 635.7 1111.1 615.8 Q1155.6 595.8 1200.0 551.0 Q1244.4 506.2 1288.9 481.4 Q1333.3 456.7 1377.8 476.7 Q1422.2 496.7 1466.7 500.6 Q1511.1 504.6 1555.6 488.8 L1600 473.1 L1600 900 Z" fill="hsl(90.0 17.4% 68.8%)"/><path d="M0 900 L0 609.5 Q0.0 609.5 42.1 591.1 Q84.2 572.7 126.3 548.6 Q168.4 524.5 210.5 509.6 Q252.6 494.7 294.7 511.2 Q336.8 527.6 378.9 543.9 Q421.1 560.1 463.2 566.1 Q505.3 572.2 547.4 561.9 Q589.5 551.7 631.6 559.8 Q673.7 567.8 715.8 568.0 Q757.9 568.2 800.0 574.5 Q842.1 580.9 884.2 622.6 Q926.3 664.3 968.4 662.3 Q1010.5 660.3 1052.6 643.2 Q1094.7 626.1 1136.8 612.9 Q1178.9 599.8 1221.1 575.8 Q1263.2 551.9 1305.3 524.0 Q1347.4 496.1 1389.5 506.5 Q1431.6 516.8 1473.7 536.6 Q1515.8 556.4 1557.9 557.7 L1600 559.1 L1600 900 Z" fill="hsl(109.0 17.2% 62.8%)"/><rect x="0" y="603.7" width="1600" height="198.9" fill="url(#gefua29-fog3)"/><path d="M0 900 L0 685.0 Q0.0 685.0 40.0 639.4 Q80.0 593.7 120.0 567.1 Q160.0 540.6 200.0 534.0 Q240.0 527.5 280.0 526.1 Q320.0 524.7 360.0 559.0 Q400.0 593.3 440.0 599.1 Q480.0 605.0 520.0 605.6 Q560.0 606.2 600.0 611.2 Q640.0 616.1 680.0 616.3 Q720.0 616.4 760.0 639.2 Q800.0 662.0 840.0 677.2 Q880.0 692.3 920.0 661.2 Q960.0 630.1 1000.0 624.7 Q1040.0 619.3 1080.0 567.1 Q1120.0 514.9 1160.0 509.3 Q1200.0 503.6 1240.0 525.7 Q1280.0 547.9 1320.0 561.5 Q1360.0 575.0 1400.0 610.1 Q1440.0 645.2 1480.0 654.6 Q1520.0 663.9 1560.0 654.0 L1600 644.0 L1600 900 Z" fill="hsl(135.7 16.9% 54.3%)"/><rect x="0" y="623.9" width="1600" height="210.2" fill="url(#gefua29-fog4)"/><path d="M0 900 L0 616.6 Q0.0 616.6 42.1 636.2 Q84.2 655.7 126.3 637.5 Q168.4 619.2 210.5 634.4 Q252.6 649.7 294.7 646.3 Q336.8 643.0 378.9 669.9 Q421.1 696.9 463.2 717.1 Q505.3 737.4 547.4 727.9 Q589.5 718.4 631.6 703.9 Q673.7 689.5 715.8 656.2 Q757.9 623.0 800.0 618.5 Q842.1 614.0 884.2 623.9 Q926.3 633.8 968.4 637.7 Q1010.5 641.7 1052.6 646.0 Q1094.7 650.3 1136.8 636.8 Q1178.9 623.4 1221.1 645.8 Q1263.2 668.2 1305.3 675.5 Q1347.4 682.7 1389.5 707.2 Q1431.6 731.7 1473.7 718.4 Q1515.8 705.2 1557.9 672.0 L1600 638.9 L1600 900 Z" fill="hsl(170.1 16.5% 43.3%)"/><rect x="0" y="675.4" width="1600" height="150.8" fill="url(#gefua29-fog5)"/><path d="M0 900 L0 687.9 Q0.0 687.9 40.0 661.0 Q80.0 634.1 120.0 645.3 Q160.0 656.6 200.0 662.8 Q240.0 669.0 280.0 665.5 Q320.0 662.0 360.0 664.3 Q400.0 666.5 440.0 666.9 Q480.0 667.3 520.0 667.0 Q560.0 666.8 600.0 662.5 Q640.0 658.3 680.0 683.4 Q720.0 708.5 760.0 726.4 Q800.0 744.3 840.0 745.3 Q880.0 746.3 920.0 738.6 Q960.0 730.9 1000.0 729.8 Q1040.0 728.7 1080.0 712.6 Q1120.0 696.6 1160.0 699.4 Q1200.0 702.2 1240.0 710.9 Q1280.0 719.7 1320.0 725.6 Q1360.0 731.5 1400.0 713.9 Q1440.0 696.4 1480.0 689.0 Q1520.0 681.6 1560.0 666.1 L1600 650.5 L1600 900 Z" fill="hsl(212.0 16.0% 30.0%)"/><rect width="1600" height="900" fill="url(#gefua29-vig)"/></svg>