<svg xmlns="http://www.w3.org/2000/svg" viewBox="0 0 1600 900" role="img" preserveAspectRatio="xMidYMid slice"><title>moc-chau-mua-man-no-hoa s1</title><defs><linearGradient id="g17884b8-sky" x1="0" y1="0" x2="0" y2="1"><stop offset="0%" stop-color="hsl(210.0 35.0% 70.0%)"/><stop offset="50%" stop-color="hsl(330.0 25.0% 82.0%)"/><stop offset="100%" stop-color="hsl(40.0 40.0% 84.0%)"/></linearGradient><radialGradient id="g17884b8-glow"><stop offset="0%" stop-color="hsl(45.0 55.0% 88.0% / 0.850)"/><stop offset="45%" stop-color="hsl(45.0 55.0% 88.0% / 0.250)"/><stop offset="100%" stop-color="hsl(45.0 55.0% 88.0% / 0.000)"/></radialGradient><radialGradient id="g17884b8-vig" cx="50%" cy="42%" r="75%"><stop offset="70%" stop-color="hsl(0 0% 0% / 0)"/><stop offset="100%" stop-color="hsl(0 0% 0% / 0.18)"/></radialGradient></defs><rect width="1600" height="605.4" fill="url(#g17884b8-sky)"/><rect y="604.4" width="1600" height="295.6" fill="hsl(291.3 23.5% 43.5%)"/><circle cx="929.0" cy="302.7" r="90" fill="url(#g17884b8-glow)"/><circle cx="929.0" cy="302.7" r="44" fill="hsl(45.0 55.0% 88.0%)"/><path d="M0 900 L0 451.8 Q0.0 451.8 38.1 475.1 Q76.2 498.3 114.3 475.4 Q152.4 452.6 190.5 457.2 Q228.6 461.8 266.7 494.7 Q304.8 527.5 342.9 527.1 Q381.0 526.7 419.0 509.4 Q457.1 492.2 495.2 507.0 Q533.3 521.9 571.4 518.5 Q609.5 515.1 647.6 466.0 Q685.7 416.9 723.8 398.3 Q761.9 379.7 800.0 360.1 Q838.1 340.6 876.2 322.2 Q914.3 303.7 952.4 314.3 Q990.5 325.0 1028.6 376.4 Q1066.7 427.9 1104.8 458.5 Q1142.9 489.1 1181.0 513.6 Q1219.0 538.2 1257.1 558.7 Q1295.2 579.3 1333.3 599.8 Q1371.4 620.3 1409.5 562.9 Q1447.6 505.5 1485.7 471.6 Q1523.8 437.7 1561.9 421.9 L1600 406.0 L1600 900 Z" fill="hsl(8.1 35.2% 72.1%)"/><path d="M0 900 L0 444.3 Q0.0 444.3 38.1 413.2 Q76.2 382.1 114.3 410.8 Q152.4 439.6 190.5 483.1 Q228.6 526.5 266.7 550.4 Q304.8 574.3 342.9 609.3 Q381.0 644.2 419.0 645.2 Q457.1 646.1 495.2 603.8 Q533.3 561.4 571.4 514.2 Q609.5 466.9 647.6 474.1 Q685.7 481.4 723.8 493.1 Q761.9 504.8 800.0 492.7 Q838.1 480.7 876.2 473.7 Q914.3 466.7 952.4 459.9 Q990.5 453.1 1028.6 453.3 Q1066.7 453.6 1104.8 486.4 Q1142.9 519.2 1181.0 576.4 Q1219.0 633.6 1257.1 647.0 Q1295.2 660.5 1333.3 628.9 Q1371.4 597.3 1409.5 563.4 Q1447.6 529.5 1485.7 514.4 Q1523.8 499.2 1561.9 469.4 L1600 439.6 L1600 900 Z" fill="hsl(355.5 33.3% 67.4%)"/><path d="M0 900 L0 616.2 Q0.0 616.2 44.4 623.0 Q88.9 629.7 133.3 660.4 Q177.8 691.2 222.2 701.6 Q266.7 712.0 311.1 695.3 Q355.6 678.6 400.0 656.5 Q444.4 634.5 488.9 607.4 Q533.3 580.3 577.8 595.6 Q622.2 610.8 666.7 604.0 Q711.1 597.1 755.6 615.8 Q800.0 634.5 844.4 625.8 Q888.9 617.0 933.3 627.9 Q977.8 638.9 1022.2 663.1 Q1066.7 687.3 1111.1 689.1 Q1155.6 691.0 1200.0 692.3 Q1244.4 693.7 1288.9 663.1 Q1333.3 632.5 1377.8 613.7 Q1422.2 595.0 1466.7 589.8 Q1511.1 584.5 1555.6 595.7 L1600 606.9 L1600 900 Z" fill="hsl(317.8 27.5% 53.4%)"/><path d="M0 900 L0 773.0 Q0.0 773.0 47.1 749.1 Q94.1 725.2 141.2 714.7 Q188.2 704.1 235.3 686.5 Q282.4 668.8 329.4 673.3 Q376.5 677.7 423.5 684.4 Q470.6 691.1 517.6 668.4 Q564.7 645.6 611.8 647.1 Q658.8 648.6 705.9 652.8 Q752.9 657.0 800.0 683.3 Q847.1 709.5 894.1 729.4 Q941.2 749.3 988.2 744.4 Q1035.3 739.5 1082.4 735.5 Q1129.4 731.5 1176.5 713.5 Q1223.5 695.5 1270.6 701.4 Q1317.6 707.3 1364.7 706.6 Q1411.8 705.9 1458.8 680.1 Q1505.9 654.2 1552.9 653.1 L1600 652.0 L1600 900 Z" fill="hsl(255.0 18.0% 30.0%)"/><g><circle cx="67.2" cy="850.1" r="7.0" fill="hsl(40 25% 93.89594895020127% / 0.87)"/><circle cx="1022.4" cy="758.8" r="3.9" fill="hsl(40 25% 92.1448402106762% / 0.56)"/><circle cx="1079.0" cy="849.1" r="7.5" fill="hsl(40 25% 92.2077876124531% / 0.58)"/><circle cx="1201.8" cy="750.7" r="2.4" fill="hsl(40 25% 94.26454199291766% / 0.53)"/><circle cx="120.3" cy="890.4" r="7.4" fill="hsl(40 25% 89.8542693182826% / 0.60)"/><circle cx="718.6" cy="898.4" r="2.1" fill="hsl(335 55% 91.10842093639076% / 0.74)"/><circle cx="383.5" cy="833.2" r="6.4" fill="hsl(40 25% 95.83208832517266% / 0.60)"/><circle cx="1170.9" cy="824.3" r="4.7" fill="hsl(40 25% 88.27717901021242% / 0.61)"/><circle cx="149.6" cy="627.8" r="2.4" fill="hsl(335 55% 88.5142708811909% / 0.57)"/><circle cx="823.1" cy="849.7" r="2.0" fill="hsl(40 25% 89.4784897081554% / 0.51)"/><circle cx="1230.7" cy="756.8" r="4.5" fill="hsl(40 25% 95.31375932879746% / 0.62)"/><circle cx="977.5" cy="857.5" r="2.2" fill="hsl(40 25% 95.74183962494135% / 0.68)"/><circle cx="1462.3" cy="771.9" r="6.0" fill="hsl(40 25% 92.01985659077764% / 0.69)"/><circle cx="1532.3" cy="650.6" r="2.4" fill="hsl(40 25% 88.89500789158046% / 0.93)"/><circle cx="13.5" cy="892.1" r="3.4" fill="hsl(335 55% 92.99949862994254% / 0.66)"/><circle cx="888.0" cy="876.7" r="3.6" fill="hsl(335 55% 91.80252989754081% / 0.55)"/><circle cx="1064.7" cy="712.6" r="3.1" fill="hsl(335 55% 93.9194939173758% / 0.67)"/><circle cx="1005.4" cy="643.0" r="3.2" fill="hsl(335 55% 90.81197410449386% / 0.76)"/><circle cx="1301.0" cy="669.4" r="2.5" fill="hsl(40 25% 91.66473193280399% / 0.90)"/><circle cx="454.9" cy="862.8" r="6.2" fill="hsl(335 55% 88.82367258891463% / 0.54)"/><circle cx="255.8" cy="678.1" r="3.3" fill="hsl(335 55% 89.96772741340101% / 0.51)"/><circle cx="22.7" cy="748.9" r="4.9" fill="hsl(40 25% 90.87261877208948% / 0.51)"/><circle cx="609.2" cy="853.2" r="5.6" fill="hsl(40 25% 91.60284558497369% / 0.78)"/><circle cx="297.9" cy="748.0" r="2.5" fill="hsl(40 25% 93.84112282283604% / 0.58)"/><circle cx="981.6" cy="864.6" r="4.4" fill="hsl(40 25% 88.07424353435636% / 0.56)"/><circle cx="108.2" cy="772.8" r="6.2" fill="hsl(335 55% 94.63621517643332% / 0.82)"/><circle cx="310.5" cy="787.4" r="5.1" fill="hsl(40 25% 89.21930596418679% / 0.58)"/><circle cx="1472.3" cy="754.3" r="2.6" fill="hsl(40 25% 88.50876490026712% / 0.72)"/><circle cx="1163.2" cy="844.3" r="3.5" fill="hsl(40 25% 91.6775139477104% / 0.73)"/><circle cx="485.0" cy="680.4" r="2.5" fill="hsl(335 55% 89.60324252210557% / 0.94)"/><circle cx="821.5" cy="825.6" r="6.8" fill="hsl(40 25% 93.59357932396233% / 0.69)"/><circle cx="610.6" cy="810.6" r="3.3" fill="hsl(335 55% 90.73594910278916% / 0.67)"/><circle cx="1219.3" cy="617.2" r="2.3" fill="hsl(335 55% 92.06873819604516% / 0.50)"/><circle cx="1374.2" cy="735.8" r="3.7" fill="hsl(40 25% 94.22779590077698% / 0.51)"/><circle cx="555.0" cy="777.9" r="3.1" fill="hsl(40 25% 89.71611403673887% / 0.56)"/><circle cx="628.2" cy="759.9" r="2.7" fill="hsl(335 55% 95.37812266498804% / 0.56)"/><circle cx="1446.1" cy="684.0" r="2.5" fill="hsl(335 55% 88.30364449694753% / 0.87)"/><circle cx="311.7" cy="667.0" r="3.6" fill="hsl(40 25% 89.28230634331703% / 0.56)"/><circle cx="606.9" cy="846.6" r="3.1" fill="hsl(40 25% 95.74195693060756% / 0.60)"/><circle cx="1342.2" cy="842.3" r="6.3" fill="hsl(40 25% 95.5192154739052% / 0.90)"/><circle cx="768.7" cy="832.3" r="4.9" fill="hsl(40 25% 90.27423337474465% / 0.51)"/><circle cx="24.3" cy="810.1" r="2.1" fill="hsl(335 55% 91.51967003755271% / 0.85)"/><circle cx="860.4" cy="678.6" r="2.5" fill="hsl(40 25% 91.68082392401993% / 0.93)"/><circle cx="4.4" cy="804.0" r="3.9" fill="hsl(40 25% 94.81017985194921% / 0.58)"/><circle cx="1009.2" cy="806.2" r="6.7" fill="hsl(40 25% 91.09809057787061% / 0.81)"/><circle cx="1087.7" cy="875.6" r="4.9" fill="hsl(335 55% 95.48503211140633% / 0.86)"/><circle cx="1418.0" cy="896.2" r="7.3" fill="hsl(40 25% 95.67684073001146% / 0.62)"/><circle cx="1537.0" cy="818.3" r="6.1" fill="hsl(40 25% 90.64791529253125% / 0.68)"/><circle cx="392.8" cy="868.5" r="2.2" fill="hsl(335 55% 88.21286323666573% / 0.81)"/><circle cx="1182.5" cy="708.9" r="2.1" fill="hsl(335 55% 88.68984544835985% / 0.65)"/><circle cx="894.1" cy="721.9" r="4.5" fill="hsl(40 25% 95.66892941482365% / 0.67)"/><circle cx="242.2" cy="846.9" r="7.3" fill="hsl(40 25% 95.47634501755238% / 0.61)"/><circle cx="615.9" cy="664.7" r="3.3" fill="hsl(335 55% 92.32180310226977% / 0.54)"/><circle cx="344.6" cy="899.6" r="2.1" fill="hsl(40 25% 90.13535292074084% / 0.64)"/><circle cx="877.2" cy="681.5" r="2.1" fill="hsl(40 25% 93.96910166367888% / 0.93)"/><circle cx="457.8" cy="848.2" r="6.3" fill="hsl(40 25% 89.79859188199043% / 0.70)"/><circle cx="1353.6" cy="699.5" r="2.2" fill="hsl(40 25% 90.22919104248285% / 0.88)"/><circle cx="538.0" cy="826.6" r="2.4" fill="hsl(335 55% 89.66947294399142% / 0.60)"/><circle cx="434.3" cy="777.2" r="4.1" fill="hsl(40 25% 91.39995903335512% / 0.86)"/><circle cx="367.2" cy="864.9" r="4.0" fill="hsl(335 55% 90.08830592408776% / 0.51)"/><circle cx="568.0" cy="711.3" r="4.0" fill="hsl(40 25% 91.21602012962103% / 0.51)"/><circle cx="1504.7" cy="821.0" r="5.0" fill="hsl(40 25% 90.9378220718354% / 0.58)"/><circle cx="145.0" cy="881.0" r="5.4" fill="hsl(40 25% 95.519307712093% / 0.56)"/><circle cx="1382.2" cy="640.0" r="2.1" fill="hsl(40 25% 91.8769135568291% / 0.85)"/><circle cx="394.6" cy="884.9" r="3.3" fill="hsl(335 55% 94.26978205703199% / 0.70)"/><circle cx="1023.8" cy="728.1" r="4.6" fill="hsl(40 25% 92.09387872926891% / 0.66)"/><circle cx="459.6" cy="688.1" r="4.1" fill="hsl(335 55% 92.66067595221102% / 0.68)"/><circle cx="1577.9" cy="735.5" r="3.0" fill="hsl(335 55% 94.31780028156936% / 0.65)"/><circle cx="589.7" cy="754.3" r="3.7" fill="hsl(40 25% 92.55396340042353% / 0.83)"/><circle cx="833.4" cy="740.4" r="5.5" fill="hsl(335 55% 92.88556535728276% / 0.62)"/><circle cx="958.6" cy="890.0" r="2.4" fill="hsl(335 55% 91.29367548972368% / 0.82)"/><circle cx="1029.5" cy="890.3" r="7.4" fill="hsl(40 25% 95.03383060358465% / 0.62)"/><circle cx="1374.9" cy="845.9" r="2.2" fill="hsl(40 25% 88.92513035796583% / 0.79)"/><circle cx="843.2" cy="796.4" r="3.0" fill="hsl(335 55% 95.87807152606547% / 0.80)"/><circle cx="256.2" cy="851.1" r="2.1" fill="hsl(40 25% 91.1644513681531% / 0.83)"/><circle cx="59.5" cy="725.1" r="2.7" fill="hsl(40 25% 93.78248618729413% / 0.84)"/><circle cx="85.5" cy="724.3" r="4.6" fill="hsl(335 55% 88.66878302395344% / 0.62)"/><circle cx="598.2" cy="791.7" r="4.8" fill="hsl(40 25% 88.72420757263899% / 0.69)"/><circle cx="243.7" cy="830.3" r="4.6" fill="hsl(40 25% 95.49331229552627% / 0.59)"/><circle cx="481.9" cy="888.4" r="2.3" fill="hsl(335 55% 92.88966181874275% / 0.60)"/><circle cx="705.8" cy="751.9" r="4.6" fill="hsl(335 55% 92.25469566881657% / 0.75)"/><circle cx="214.2" cy="678.8" r="3.6" fill="hsl(335 55% 89.43710698932409% / 0.70)"/><circle cx="1417.6" cy="804.2" r="3.0" fill="hsl(335 55% 91.27754203416407% / 0.76)"/><circle cx="1390.7" cy="777.6" r="4.0" fill="hsl(40 25% 90.02539485879242% / 0.67)"/><circle cx="998.9" cy="869.9" r="3.6" fill="hsl(335 55% 88.19052732922137% / 0.84)"/><circle cx="1078.7" cy="622.0" r="3.3" fill="hsl(40 25% 95.14293197542429% / 0.61)"/><circle cx="1160.2" cy="823.2" r="3.4" fill="hsl(335 55% 95.20434321276844% / 0.64)"/><circle cx="557.4" cy="854.6" r="5.0" fill="hsl(335 55% 92.58950519561768% / 0.57)"/><circle cx="365.9" cy="790.5" r="4.6" fill="hsl(40 25% 91.06892149150372% / 0.86)"/><circle cx="1338.7" cy="746.2" r="2.3" fill="hsl(335 55% 92.8542804531753% / 0.74)"/><circle cx="1094.1" cy="753.0" r="4.6" fill="hsl(40 25% 95.48659549467266% / 0.94)"/><circle cx="1538.6" cy="686.6" r="4.7" fill="hsl(40 25% 88.95176733657718% / 0.95)"/><circle cx="939.7" cy="806.7" r="6.1" fill="hsl(335 55% 90.5359420068562% / 0.64)"/><circle cx="1344.0" cy="687.2" r="4.6" fill="hsl(40 25% 88.86475733108819% / 0.57)"/><circle cx="700.3" cy="801.8" r="5.5" fill="hsl(335 55% 94.7773681730032% / 0.92)"/><circle cx="1400.7" cy="861.9" r="4.8" fill="hsl(335 55% 95.20250810310245% / 0.63)"/><circle cx="758.2" cy="732.9" r="2.7" fill="hsl(335 55% 93.74454610049725% / 0.60)"/><circle cx="139.3" cy="785.3" r="6.1" fill="hsl(40 25% 91.8897229526192% / 0.93)"/><circle cx="1269.4" cy="850.8" r="4.3" fill="hsl(40 25% 92.51461427845061% / 0.59)"/><circle cx="541.9" cy="826.0" r="6.0" fill="hsl(40 25% 95.22513243183494% / 0.62)"/><circle cx="1479.4" cy="794.7" r="2.1" fill="hsl(40 25% 91.66680617444217% / 0.65)"/><circle cx="647.4" cy="803.0" r="4.0" fill="hsl(335 55% 95.2765844669193% / 0.77)"/><circle cx="287.1" cy="716.8" r="5.3" fill="hsl(335 55% 92.58955833874643% / 0.73)"/><circle cx="284.5" cy="661.8" r="2.7" fill="hsl(335 55% 91.0695457868278% / 0.56)"/><circle cx="687.2" cy="828.2" r="5.8" fill="hsl(40 25% 95.79026721790433% / 0.67)"/><circle cx="73.6" cy="783.8" r="3.2" fill="hsl(40 25% 91.89103708975017% / 0.87)"/><circle cx="501.5" cy="848.0" r="4.2" fill="hsl(335 55% 94.41783817112446% / 0.64)"/><circle cx="108.8" cy="798.7" r="6.1" fill="hsl(40 25% 89.77650242857635% / 0.76)"/><circle cx="403.3" cy="691.7" r="3.7" fill="hsl(335 55% 94.52571739628911% / 0.66)"/><circle cx="1331.0" cy="875.5" r="6.1" fill="hsl(335 55% 88.40406765602529% / 0.63)"/><circle cx="789.2" cy="860.2" r="3.7" fill="hsl(335 55% 93.32906465791166% / 0.66)"/><circle cx="1326.6" cy="768.4" r="4.0" fill="hsl(40 25% 95.53699543885887% / 0.81)"/><circle cx="1211.7" cy="684.5" r="3.8" fill="hsl(335 55% 91.37120150215924% / 0.65)"/><circle cx="751.5" cy="841.9" r="3.5" fill="hsl(335 55% 92.16706483252347% / 0.55)"/><circle cx="565.4" cy="766.8" r="2.9" fill="hsl(40 25% 93.00250828638673% / 0.56)"/><circle cx="1537.2" cy="782.3" r="5.9" fill="hsl(40 25% 89.68247606232762% / 0.87)"/><circle cx="571.7" cy="764.6" r="4.1" fill="hsl(335 55% 89.21005558781326% / 0.93)"/><circle cx="437.4" cy="681.3" r="2.2" fill="hsl(40 25% 88.86575542762876% / 0.51)"/><circle cx="225.2" cy="755.5" r="2.8" fill="hsl(335 55% 90.29213383235037% / 0.86)"/><circle cx="51.7" cy="659.8" r="4.0" fill="hsl(40 25% 91.29773823730648% / 0.55)"/><circle cx="1023.9" cy="708.8" r="2.9" fill="hsl(40 25% 91.97672551497817% / 0.70)"/><circle cx="891.3" cy="709.1" r="2.8" fill="hsl(335 55% 89.65616488456726% / 0.56)"/><circle cx="380.0" cy="740.5" r="3.0" fill="hsl(40 25% 92.71634752303362% / 0.62)"/><circle cx="1323.8" cy="693.2" r="4.6" fill="hsl(40 25% 92.73231978155673% / 0.55)"/><circle cx="429.3" cy="791.0" r="4.0" fill="hsl(40 25% 94.15708774887025% / 0.72)"/><circle cx="1334.0" cy="821.2" r="2.9" fill="hsl(40 25% 91.36025939695537% / 0.74)"/><circle cx="110.2" cy="760.1" r="5.2" fill="hsl(40 25% 91.02609845250845% / 0.65)"/><circle cx="1268.2" cy="878.8" r="2.9" fill="hsl(335 55% 89.33078195154667% / 0.68)"/><circle cx="1076.2" cy="766.7" r="2.0" fill="hsl(40 25% 91.01336359977722% / 0.85)"/><circle cx="685.0" cy="899.5" r="3.1" fill="hsl(40 25% 95.2754389476031% / 0.94)"/><circle cx="1459.7" cy="878.7" r="2.3" fill="hsl(335 55% 88.01836714148521% / 0.94)"/><circle cx="132.9" cy="769.5" r="5.5" fill="hsl(40 25% 95.76024707406759% / 0.87)"/><circle cx="823.3" cy="733.5" r="3.2" fill="hsl(40 25% 91.98052763007581% / 0.77)"/><circle cx="303.0" cy="718.0" r="4.3" fill="hsl(335 55% 89.14162305928767% / 0.54)"/><circle cx="331.0" cy="784.1" r="4.3" fill="hsl(40 25% 90.10972801409662% / 0.67)"/><circle cx="260.6" cy="735.9" r="2.5" fill="hsl(335 55% 91.0148758944124% / 0.80)"/><circle cx="1161.3" cy="811.5" r="3.8" fill="hsl(335 55% 91.8512178696692% / 0.55)"/><circle cx="476.6" cy="884.3" r="5.2" fill="hsl(335 55% 92.64238644018769% / 0.66)"/><circle cx="211.5" cy="609.7" r="2.0" fill="hsl(40 25% 92.01816688291728% / 0.83)"/><circle cx="1424.3" cy="836.1" r="7.2" fill="hsl(335 55% 92.52933668904006% / 0.82)"/><circle cx="1072.6" cy="706.8" r="3.7" fill="hsl(40 25% 92.7651650570333% / 0.66)"/><circle cx="1419.2" cy="697.5" r="2.4" fill="hsl(335 55% 88.57988723367453% / 0.59)"/><circle cx="374.9" cy="858.7" r="6.7" fill="hsl(335 55% 93.89452744834125% / 0.64)"/><circle cx="474.4" cy="853.2" r="4.3" fill="hsl(335 55% 92.34723756462336% / 0.68)"/><circle cx="698.0" cy="773.6" r="5.2" fill="hsl(335 55% 95.3823133353144% / 0.87)"/><circle cx="1266.4" cy="797.9" r="5.4" fill="hsl(40 25% 95.27618608996272% / 0.78)"/><circle cx="534.2" cy="716.2" r="3.9" fill="hsl(335 55% 93.6476436778903% / 0.67)"/><circle cx="934.6" cy="864.6" r="2.8" fill="hsl(335 55% 94.15258998423815% / 0.64)"/><circle cx="1051.1" cy="836.9" r="3.8" fill="hsl(335 55% 88.50718018598855% / 0.91)"/><circle cx="1594.5" cy="709.7" r="2.6" fill="hsl(335 55% 93.98586276173592% / 0.92)"/><circle cx="728.3" cy="811.9" r="2.3" fill="hsl(40 25% 93.99027634039521% / 0.91)"/><circle cx="1315.5" cy="806.2" r="5.7" fill="hsl(40 25% 95.74650216847658% / 0.87)"/><circle cx="1460.6" cy="850.2" r="6.4" fill="hsl(40 25% 89.63703883998096% / 0.57)"/><circle cx="1389.1" cy="714.6" r="4.7" fill="hsl(335 55% 92.80677666887641% / 0.74)"/></g><rect width="1600" height="900" fill="url(#g17884b8-vig)"/></svg>