<svg xmlns="http://www.w3.org/2000/svg" viewBox="0 0 1600 900" role="img" preserveAspectRatio="xMidYMid slice"><title>con-dao-xe-may-vong-quanh hero</title><defs><linearGradient id="g155wr8j-sky" x1="0" y1="0" x2="0" y2="1"><stop offset="0%" stop-color="hsl(208.0 60.0% 52.0%)"/><stop offset="50%" stop-color="hsl(196.0 50.0% 66.0%)"/><stop offset="100%" stop-color="hsl(40.0 60.0% 76.0%)"/></linearGradient><radialGradient id="g155wr8j-glow"><stop offset="0%" stop-color="hsl(42.0 90.0% 78.0% / 0.850)"/><stop offset="45%" stop-color="hsl(42.0 90.0% 78.0% / 0.250)"/><stop offset="100%" stop-color="hsl(42.0 90.0% 78.0% / 0.000)"/></radialGradient><linearGradient id="g155wr8j-water" x1="0" y1="0" x2="0" y2="1"><stop offset="0%" stop-color="hsl(116.5 51.0% 52.6%)"/><stop offset="100%" stop-color="hsl(213.0 41.0% 15.2%)"/></linearGradient><radialGradient id="g155wr8j-vig" cx="50%" cy="42%" r="75%"><stop offset="70%" stop-color="hsl(0 0% 0% / 0)"/><stop offset="100%" stop-color="hsl(0 0% 0% / 0.18)"/></radialGradient></defs><rect width="1600" height="485.6" fill="url(#g155wr8j-sky)"/><rect y="484.6" width="1600" height="415.4" fill="hsl(167.5 41.3% 34.0%)"/><circle cx="643.6" cy="364.2" r="150" fill="url(#g155wr8j-glow)"/><circle cx="643.6" cy="364.2" r="56" fill="hsl(42.0 90.0% 78.0%)"/><path d="M0 900 L0 349.0 Q0.0 349.0 44.4 362.4 Q88.9 375.7 133.3 422.0 Q177.8 468.2 222.2 446.5 Q266.7 424.8 311.1 409.3 Q355.6 393.7 400.0 404.5 Q444.4 415.3 488.9 420.3 Q533.3 425.3 577.8 444.6 Q622.2 463.9 666.7 412.9 Q711.1 361.8 755.6 351.1 Q800.0 340.3 844.4 290.2 Q888.9 240.2 933.3 254.2 Q977.8 268.3 1022.2 296.1 Q1066.7 324.0 1111.1 346.9 Q1155.6 369.8 1200.0 387.0 Q1244.4 404.3 1288.9 373.6 Q1333.3 342.8 1377.8 389.4 Q1422.2 436.0 1466.7 428.4 Q1511.1 420.8 1555.6 446.4 L1600 472.0 L1600 900 Z" fill="hsl(77.4 54.5% 63.7%)"/><path d="M0 900 L0 544.0 Q0.0 544.0 44.4 534.0 Q88.9 524.1 133.3 528.2 Q177.8 532.3 222.2 529.9 Q266.7 527.5 311.1 509.8 Q355.6 492.1 400.0 494.7 Q444.4 497.4 488.9 482.3 Q533.3 467.2 577.8 498.8 Q622.2 530.4 666.7 538.3 Q711.1 546.2 755.6 549.7 Q800.0 553.3 844.4 564.8 Q888.9 576.2 933.3 557.3 Q977.8 538.3 1022.2 554.5 Q1066.7 570.7 1111.1 561.7 Q1155.6 552.7 1200.0 558.0 Q1244.4 563.3 1288.9 573.0 Q1333.3 582.6 1377.8 553.3 Q1422.2 523.9 1466.7 511.5 Q1511.1 499.1 1555.6 479.9 L1600 460.7 L1600 900 Z" fill="hsl(110.5 49.6% 52.8%)"/><path d="M0 900 L0 646.2 Q0.0 646.2 38.1 655.6 Q76.2 665.0 114.3 669.1 Q152.4 673.2 190.5 681.1 Q228.6 688.9 266.7 681.2 Q304.8 673.5 342.9 675.5 Q381.0 677.5 419.0 670.3 Q457.1 663.1 495.2 660.9 Q533.3 658.7 571.4 670.7 Q609.5 682.7 647.6 665.5 Q685.7 648.3 723.8 633.2 Q761.9 618.1 800.0 609.1 Q838.1 600.0 876.2 614.1 Q914.3 628.2 952.4 633.6 Q990.5 639.1 1028.6 658.2 Q1066.7 677.4 1104.8 686.4 Q1142.9 695.3 1181.0 697.0 Q1219.0 698.8 1257.1 686.5 Q1295.2 674.2 1333.3 666.2 Q1371.4 658.2 1409.5 656.1 Q1447.6 654.0 1485.7 655.8 Q1523.8 657.6 1561.9 648.0 L1600 638.4 L1600 900 Z" fill="hsl(210.0 35.0% 20.0%)"/><rect y="485.6" width="1600" height="414.4" fill="url(#g155wr8j-water)"/><g><rect x="802.0" y="505.1" width="32.3" height="3.2" rx="1.6" fill="hsl(42.0 90.0% 78.0% / 0.556)"/><rect x="783.2" y="521.8" width="30.8" height="3.2" rx="1.6" fill="hsl(42.0 90.0% 78.0% / 0.536)"/><rect x="758.2" y="547.7" width="49.9" height="3.2" rx="1.6" fill="hsl(42.0 90.0% 78.0% / 0.505)"/><rect x="820.0" y="561.7" width="15.8" height="3.2" rx="1.6" fill="hsl(42.0 90.0% 78.0% / 0.488)"/><rect x="791.5" y="582.7" width="29.1" height="3.2" rx="1.6" fill="hsl(42.0 90.0% 78.0% / 0.463)"/><rect x="808.2" y="602.5" width="33.7" height="3.2" rx="1.6" fill="hsl(42.0 90.0% 78.0% / 0.439)"/><rect x="784.0" y="626.0" width="48.7" height="3.2" rx="1.6" fill="hsl(42.0 90.0% 78.0% / 0.411)"/><rect x="815.0" y="647.5" width="54.5" height="3.2" rx="1.6" fill="hsl(42.0 90.0% 78.0% / 0.385)"/><rect x="737.3" y="664.5" width="71.0" height="3.2" rx="1.6" fill="hsl(42.0 90.0% 78.0% / 0.364)"/><rect x="724.3" y="686.0" width="77.0" height="3.2" rx="1.6" fill="hsl(42.0 90.0% 78.0% / 0.338)"/><rect x="754.1" y="703.6" width="62.3" height="3.2" rx="1.6" fill="hsl(42.0 90.0% 78.0% / 0.317)"/><rect x="731.0" y="725.7" width="19.7" height="3.2" rx="1.6" fill="hsl(42.0 90.0% 78.0% / 0.290)"/><rect x="755.2" y="743.4" width="106.0" height="3.2" rx="1.6" fill="hsl(42.0 90.0% 78.0% / 0.269)"/><rect x="803.6" y="763.0" width="73.3" height="3.2" rx="1.6" fill="hsl(42.0 90.0% 78.0% / 0.245)"/><rect x="700.4" y="785.8" width="99.7" height="3.2" rx="1.6" fill="hsl(42.0 90.0% 78.0% / 0.218)"/><rect x="787.4" y="804.6" width="90.0" height="3.2" rx="1.6" fill="hsl(42.0 90.0% 78.0% / 0.195)"/><rect x="811.1" y="825.0" width="97.2" height="3.2" rx="1.6" fill="hsl(42.0 90.0% 78.0% / 0.170)"/><rect x="664.7" y="847.7" width="130.9" height="3.2" rx="1.6" fill="hsl(42.0 90.0% 78.0% / 0.143)"/><rect x="754.1" y="870.9" width="33.1" height="3.2" rx="1.6" fill="hsl(42.0 90.0% 78.0% / 0.115)"/></g><rect width="1600" height="900" fill="url(#g155wr8j-vig)"/></svg>