<svg xmlns="http://www.w3.org/2000/svg" viewBox="0 0 1600 900" role="img" preserveAspectRatio="xMidYMid slice"><title>con-dao-xe-may-vong-quanh s1</title><defs><linearGradient id="gck5gkf-sky" x1="0" y1="0" x2="0" y2="1"><stop offset="0%" stop-color="hsl(208.0 60.0% 52.0%)"/><stop offset="50%" stop-color="hsl(196.0 50.0% 66.0%)"/><stop offset="100%" stop-color="hsl(40.0 60.0% 76.0%)"/></linearGradient><radialGradient id="gck5gkf-glow"><stop offset="0%" stop-color="hsl(42.0 90.0% 78.0% / 0.850)"/><stop offset="45%" stop-color="hsl(42.0 90.0% 78.0% / 0.250)"/><stop offset="100%" stop-color="hsl(42.0 90.0% 78.0% / 0.000)"/></radialGradient><linearGradient id="gck5gkf-water" x1="0" y1="0" x2="0" y2="1"><stop offset="0%" stop-color="hsl(116.5 51.0% 52.6%)"/><stop offset="100%" stop-color="hsl(213.0 41.0% 15.2%)"/></linearGradient><radialGradient id="gck5gkf-vig" cx="50%" cy="42%" r="75%"><stop offset="70%" stop-color="hsl(0 0% 0% / 0)"/><stop offset="100%" stop-color="hsl(0 0% 0% / 0.18)"/></radialGradient></defs><rect width="1600" height="452.7" fill="url(#gck5gkf-sky)"/><rect y="451.7" width="1600" height="448.3" fill="hsl(167.5 41.3% 34.0%)"/><circle cx="899.1" cy="339.5" r="150" fill="url(#gck5gkf-glow)"/><circle cx="899.1" cy="339.5" r="56" fill="hsl(42.0 90.0% 78.0%)"/><path d="M0 900 L0 384.0 Q0.0 384.0 50.0 385.2 Q100.0 386.4 150.0 349.3 Q200.0 312.3 250.0 309.5 Q300.0 306.7 350.0 295.1 Q400.0 283.5 450.0 308.6 Q500.0 333.6 550.0 373.7 Q600.0 413.8 650.0 407.8 Q700.0 401.8 750.0 410.0 Q800.0 418.2 850.0 406.2 Q900.0 394.2 950.0 416.8 Q1000.0 439.4 1050.0 438.9 Q1100.0 438.5 1150.0 422.2 Q1200.0 405.9 1250.0 390.5 Q1300.0 375.0 1350.0 342.0 Q1400.0 309.1 1450.0 319.9 Q1500.0 330.8 1550.0 345.4 L1600 360.1 L1600 900 Z" fill="hsl(77.4 54.5% 63.7%)"/><path d="M0 900 L0 505.4 Q0.0 505.4 44.4 491.4 Q88.9 477.4 133.3 491.8 Q177.8 506.3 222.2 503.9 Q266.7 501.5 311.1 478.4 Q355.6 455.3 400.0 443.7 Q444.4 432.0 488.9 435.8 Q533.3 439.6 577.8 439.9 Q622.2 440.1 666.7 467.5 Q711.1 494.8 755.6 520.8 Q800.0 546.8 844.4 541.6 Q888.9 536.4 933.3 528.8 Q977.8 521.3 1022.2 522.7 Q1066.7 524.0 1111.1 524.4 Q1155.6 524.7 1200.0 532.8 Q1244.4 540.9 1288.9 549.7 Q1333.3 558.5 1377.8 527.9 Q1422.2 497.4 1466.7 469.8 Q1511.1 442.2 1555.6 443.1 L1600 444.1 L1600 900 Z" fill="hsl(110.5 49.6% 52.8%)"/><path d="M0 900 L0 617.9 Q0.0 617.9 53.3 616.1 Q106.7 614.4 160.0 607.4 Q213.3 600.4 266.7 617.0 Q320.0 633.6 373.3 649.0 Q426.7 664.5 480.0 677.8 Q533.3 691.1 586.7 685.2 Q640.0 679.2 693.3 669.1 Q746.7 659.0 800.0 629.5 Q853.3 600.1 906.7 599.8 Q960.0 599.6 1013.3 605.8 Q1066.7 612.0 1120.0 628.5 Q1173.3 644.9 1226.7 664.0 Q1280.0 683.1 1333.3 687.9 Q1386.7 692.7 1440.0 682.3 Q1493.3 671.9 1546.7 646.6 L1600 621.2 L1600 900 Z" fill="hsl(210.0 35.0% 20.0%)"/><rect y="452.7" width="1600" height="447.3" fill="url(#gck5gkf-water)"/><g><rect x="816.9" y="469.9" width="9.0" height="3.2" rx="1.6" fill="hsl(42.0 90.0% 78.0% / 0.561)"/><rect x="785.9" y="486.5" width="23.0" height="3.2" rx="1.6" fill="hsl(42.0 90.0% 78.0% / 0.542)"/><rect x="757.2" y="507.3" width="49.5" height="3.2" rx="1.6" fill="hsl(42.0 90.0% 78.0% / 0.519)"/><rect x="803.7" y="531.5" width="47.4" height="3.2" rx="1.6" fill="hsl(42.0 90.0% 78.0% / 0.492)"/><rect x="772.6" y="547.4" width="36.8" height="3.2" rx="1.6" fill="hsl(42.0 90.0% 78.0% / 0.474)"/><rect x="751.7" y="569.4" width="60.1" height="3.2" rx="1.6" fill="hsl(42.0 90.0% 78.0% / 0.449)"/><rect x="817.5" y="582.4" width="17.4" height="3.2" rx="1.6" fill="hsl(42.0 90.0% 78.0% / 0.435)"/><rect x="776.1" y="602.0" width="49.1" height="3.2" rx="1.6" fill="hsl(42.0 90.0% 78.0% / 0.413)"/><rect x="737.8" y="622.9" width="82.6" height="3.2" rx="1.6" fill="hsl(42.0 90.0% 78.0% / 0.390)"/><rect x="753.7" y="638.7" width="75.8" height="3.2" rx="1.6" fill="hsl(42.0 90.0% 78.0% / 0.372)"/><rect x="770.7" y="659.4" width="18.0" height="3.2" rx="1.6" fill="hsl(42.0 90.0% 78.0% / 0.349)"/><rect x="798.7" y="679.0" width="99.4" height="3.2" rx="1.6" fill="hsl(42.0 90.0% 78.0% / 0.327)"/><rect x="801.8" y="694.8" width="30.2" height="3.2" rx="1.6" fill="hsl(42.0 90.0% 78.0% / 0.309)"/><rect x="730.6" y="718.2" width="89.4" height="3.2" rx="1.6" fill="hsl(42.0 90.0% 78.0% / 0.283)"/><rect x="753.8" y="738.8" width="70.2" height="3.2" rx="1.6" fill="hsl(42.0 90.0% 78.0% / 0.260)"/><rect x="764.0" y="757.4" width="38.0" height="3.2" rx="1.6" fill="hsl(42.0 90.0% 78.0% / 0.239)"/><rect x="758.9" y="777.2" width="103.3" height="3.2" rx="1.6" fill="hsl(42.0 90.0% 78.0% / 0.217)"/><rect x="799.8" y="796.3" width="122.1" height="3.2" rx="1.6" fill="hsl(42.0 90.0% 78.0% / 0.196)"/><rect x="835.6" y="816.1" width="45.0" height="3.2" rx="1.6" fill="hsl(42.0 90.0% 78.0% / 0.174)"/><rect x="696.1" y="829.1" width="75.6" height="3.2" rx="1.6" fill="hsl(42.0 90.0% 78.0% / 0.159)"/><rect x="750.0" y="849.5" width="41.8" height="3.2" rx="1.6" fill="hsl(42.0 90.0% 78.0% / 0.136)"/><rect x="690.7" y="865.5" width="65.3" height="3.2" rx="1.6" fill="hsl(42.0 90.0% 78.0% / 0.119)"/></g><rect width="1600" height="900" fill="url(#gck5gkf-vig)"/></svg>