<svg xmlns="http://www.w3.org/2000/svg" viewBox="0 0 1600 900" role="img" preserveAspectRatio="xMidYMid slice"><title>con-dao-xe-may-vong-quanh s2</title><defs><linearGradient id="gtnk7pq-sky" x1="0" y1="0" x2="0" y2="1"><stop offset="0%" stop-color="hsl(265.0 38.0% 26.0%)"/><stop offset="50%" stop-color="hsl(348.0 55.0% 46.0%)"/><stop offset="100%" stop-color="hsl(22.0 90.0% 58.0%)"/></linearGradient><radialGradient id="gtnk7pq-glow"><stop offset="0%" stop-color="hsl(24.0 95.0% 66.0% / 0.850)"/><stop offset="45%" stop-color="hsl(24.0 95.0% 66.0% / 0.250)"/><stop offset="100%" stop-color="hsl(24.0 95.0% 66.0% / 0.000)"/></radialGradient><radialGradient id="gtnk7pq-vig" cx="50%" cy="42%" r="75%"><stop offset="70%" stop-color="hsl(0 0% 0% / 0)"/><stop offset="100%" stop-color="hsl(0 0% 0% / 0.18)"/></radialGradient></defs><rect width="1600" height="567.5" fill="url(#gtnk7pq-sky)"/><rect y="566.5" width="1600" height="333.5" fill="hsl(305.5 43.5% 25.0%)"/><circle cx="607.6" cy="499.4" r="230" fill="url(#gtnk7pq-glow)"/><circle cx="607.6" cy="499.4" r="78" fill="hsl(24.0 95.0% 66.0%)"/><path d="M0 900 L0 319.9 Q0.0 319.9 57.1 330.9 Q114.3 341.9 171.4 399.7 Q228.6 457.5 285.7 433.2 Q342.9 409.0 400.0 438.6 Q457.1 468.3 514.3 479.1 Q571.4 489.9 628.6 504.0 Q685.7 518.0 742.9 459.0 Q800.0 400.1 857.1 360.1 Q914.3 320.1 971.4 313.0 Q1028.6 306.0 1085.7 362.6 Q1142.9 419.3 1200.0 438.2 Q1257.1 457.2 1314.3 435.4 Q1371.4 413.6 1428.6 447.7 Q1485.7 481.7 1542.9 487.5 L1600 493.3 L1600 900 Z" fill="hsl(359.6 76.4% 48.3%)"/><path d="M0 900 L0 468.6 Q0.0 468.6 42.1 480.1 Q84.2 491.7 126.3 499.2 Q168.4 506.7 210.5 532.7 Q252.6 558.6 294.7 582.7 Q336.8 606.8 378.9 591.0 Q421.1 575.2 463.2 504.0 Q505.3 432.8 547.4 416.4 Q589.5 400.0 631.6 432.6 Q673.7 465.3 715.8 461.5 Q757.9 457.7 800.0 439.2 Q842.1 420.7 884.2 409.9 Q926.3 399.0 968.4 404.5 Q1010.5 409.9 1052.6 434.9 Q1094.7 459.9 1136.8 498.6 Q1178.9 537.3 1221.1 563.4 Q1263.2 589.6 1305.3 567.0 Q1347.4 544.3 1389.5 517.5 Q1431.6 490.7 1473.7 502.6 Q1515.8 514.5 1557.9 541.5 L1600 568.5 L1600 900 Z" fill="hsl(354.6 73.3% 46.2%)"/><path d="M0 900 L0 619.1 Q0.0 619.1 44.4 593.5 Q88.9 567.9 133.3 555.3 Q177.8 542.7 222.2 525.1 Q266.7 507.5 311.1 533.8 Q355.6 560.1 400.0 558.1 Q444.4 556.2 488.9 554.3 Q533.3 552.4 577.8 556.6 Q622.2 560.9 666.7 573.3 Q711.1 585.7 755.6 616.3 Q800.0 646.9 844.4 649.9 Q888.9 652.9 933.3 644.5 Q977.8 636.1 1022.2 616.6 Q1066.7 597.2 1111.1 575.9 Q1155.6 554.5 1200.0 557.8 Q1244.4 561.1 1288.9 557.8 Q1333.3 554.5 1377.8 563.6 Q1422.2 572.8 1466.7 556.5 Q1511.1 540.3 1555.6 534.2 L1600 528.2 L1600 900 Z" fill="hsl(339.7 64.3% 39.7%)"/><path d="M0 900 L0 579.6 Q0.0 579.6 57.1 599.2 Q114.3 618.8 171.4 607.7 Q228.6 596.6 285.7 637.2 Q342.9 677.8 400.0 686.4 Q457.1 694.9 514.3 666.1 Q571.4 637.2 628.6 622.2 Q685.7 607.3 742.9 585.2 Q800.0 563.2 857.1 585.2 Q914.3 607.2 971.4 591.4 Q1028.6 575.6 1085.7 577.2 Q1142.9 578.9 1200.0 595.0 Q1257.1 611.1 1314.3 629.0 Q1371.4 646.9 1428.6 675.5 Q1485.7 704.1 1542.9 665.5 L1600 626.9 L1600 900 Z" fill="hsl(314.8 49.2% 29.0%)"/><path d="M0 900 L0 703.2 Q0.0 703.2 57.1 706.7 Q114.3 710.2 171.4 707.8 Q228.6 705.3 285.7 691.5 Q342.9 677.7 400.0 671.9 Q457.1 666.1 514.3 664.7 Q571.4 663.3 628.6 683.3 Q685.7 703.3 742.9 711.6 Q800.0 720.0 857.1 736.7 Q914.3 753.5 971.4 738.4 Q1028.6 723.2 1085.7 711.8 Q1142.9 700.4 1200.0 685.9 Q1257.1 671.4 1314.3 677.3 Q1371.4 683.3 1428.6 680.2 Q1485.7 677.1 1542.9 690.3 L1600 703.4 L1600 900 Z" fill="hsl(280.0 28.0% 14.0%)"/><path d="M493.9 900 C339.5 735.7563252961263 689.1 641.5 695.1 571.5 L697.1 571.5 C705.1 641.5 851.5 735.7563252961263 1005.9 900 Z" fill="hsl(280.0 15.4% 21.0%)"/><path d="M749.9 900 C595.5 735.7563252961263 695.1 631.5 696.1 571.5" fill="none" stroke="hsl(45 30% 92% / 0.8)" stroke-width="7" stroke-dasharray="46 38" stroke-linecap="round"/><rect width="1600" height="900" fill="url(#gtnk7pq-vig)"/></svg>