<svg xmlns="http://www.w3.org/2000/svg" viewBox="0 0 1600 900" role="img" preserveAspectRatio="xMidYMid slice"><title>xuyen-viet-10-ngay-sg-hn hero</title><defs><linearGradient id="g1uuot67-sky" x1="0" y1="0" x2="0" y2="1"><stop offset="0%" stop-color="hsl(248.0 42.0% 22.0%)"/><stop offset="50%" stop-color="hsl(330.0 45.0% 48.0%)"/><stop offset="100%" stop-color="hsl(28.0 85.0% 62.0%)"/></linearGradient><radialGradient id="g1uuot67-glow"><stop offset="0%" stop-color="hsl(35.0 95.0% 72.0% / 0.850)"/><stop offset="45%" stop-color="hsl(35.0 95.0% 72.0% / 0.250)"/><stop offset="100%" stop-color="hsl(35.0 95.0% 72.0% / 0.000)"/></radialGradient><linearGradient id="g1uuot67-fog1" x1="0" y1="0" x2="0" y2="1"><stop offset="0%" stop-color="hsl(40 20% 96% / 0)"/><stop offset="55%" stop-color="hsl(40 20% 96% / 0.36)"/><stop offset="100%" stop-color="hsl(40 20% 96% / 0)"/></linearGradient><linearGradient id="g1uuot67-fog3" x1="0" y1="0" x2="0" y2="1"><stop offset="0%" stop-color="hsl(40 20% 96% / 0)"/><stop offset="55%" stop-color="hsl(40 20% 96% / 0.18)"/><stop offset="100%" stop-color="hsl(40 20% 96% / 0)"/></linearGradient><radialGradient id="g1uuot67-vig" cx="50%" cy="42%" r="75%"><stop offset="70%" stop-color="hsl(0 0% 0% / 0)"/><stop offset="100%" stop-color="hsl(0 0% 0% / 0.18)"/></radialGradient></defs><rect width="1600" height="585.2" fill="url(#g1uuot67-sky)"/><rect y="584.2" width="1600" height="315.8" fill="hsl(293.5 40.0% 27.5%)"/><circle cx="616.3" cy="538.4" r="200" fill="url(#g1uuot67-glow)"/><circle cx="616.3" cy="538.4" r="64" fill="hsl(35.0 95.0% 72.0%)"/><path d="M0 900 L0 251.9 Q0.0 251.9 47.1 330.8 Q94.1 409.7 141.2 443.3 Q188.2 477.0 235.3 483.2 Q282.4 489.5 329.4 506.0 Q376.5 522.5 423.5 508.2 Q470.6 493.9 517.6 462.6 Q564.7 431.2 611.8 465.7 Q658.8 500.3 705.9 479.7 Q752.9 459.1 800.0 402.6 Q847.1 346.0 894.1 313.2 Q941.2 280.4 988.2 304.4 Q1035.3 328.4 1082.4 336.5 Q1129.4 344.6 1176.5 417.6 Q1223.5 490.6 1270.6 529.5 Q1317.6 568.4 1364.7 546.0 Q1411.8 523.6 1458.8 485.4 Q1505.9 447.2 1552.9 448.5 L1600 449.8 L1600 900 Z" fill="hsl(0.3 71.8% 51.9%)"/><path d="M0 900 L0 472.7 Q0.0 472.7 57.1 472.0 Q114.3 471.3 171.4 476.7 Q228.6 482.1 285.7 433.6 Q342.9 385.1 400.0 393.1 Q457.1 401.1 514.3 423.3 Q571.4 445.5 628.6 485.2 Q685.7 524.8 742.9 505.8 Q800.0 486.8 857.1 494.0 Q914.3 501.2 971.4 542.2 Q1028.6 583.2 1085.7 590.2 Q1142.9 597.1 1200.0 559.6 Q1257.1 522.2 1314.3 479.1 Q1371.4 436.0 1428.6 478.8 Q1485.7 521.6 1542.9 457.8 L1600 394.0 L1600 900 Z" fill="hsl(356.3 69.9% 50.4%)"/><rect x="0" y="516.8" width="1600" height="267.3" fill="url(#g1uuot67-fog1)"/><path d="M0 900 L0 497.8 Q0.0 497.8 42.1 495.8 Q84.2 493.7 126.3 469.9 Q168.4 446.0 210.5 456.2 Q252.6 466.4 294.7 521.3 Q336.8 576.1 378.9 568.7 Q421.1 561.3 463.2 561.2 Q505.3 561.1 547.4 554.9 Q589.5 548.8 631.6 560.0 Q673.7 571.2 715.8 614.8 Q757.9 658.4 800.0 637.7 Q842.1 617.0 884.2 605.5 Q926.3 593.9 968.4 555.2 Q1010.5 516.4 1052.6 505.5 Q1094.7 494.5 1136.8 506.4 Q1178.9 518.4 1221.1 516.4 Q1263.2 514.4 1305.3 503.8 Q1347.4 493.3 1389.5 489.5 Q1431.6 485.8 1473.7 479.3 Q1515.8 472.8 1557.9 529.2 L1600 585.5 L1600 900 Z" fill="hsl(344.6 64.3% 46.1%)"/><path d="M0 900 L0 587.8 Q0.0 587.8 57.1 617.9 Q114.3 648.0 171.4 631.5 Q228.6 615.0 285.7 604.0 Q342.9 593.1 400.0 544.8 Q457.1 496.6 514.3 515.4 Q571.4 534.2 628.6 536.2 Q685.7 538.2 742.9 557.4 Q800.0 576.5 857.1 573.1 Q914.3 569.8 971.4 576.7 Q1028.6 583.6 1085.7 607.0 Q1142.9 630.5 1200.0 654.3 Q1257.1 678.2 1314.3 683.3 Q1371.4 688.4 1428.6 648.7 Q1485.7 609.1 1542.9 595.5 L1600 582.0 L1600 900 Z" fill="hsl(324.9 55.0% 39.0%)"/><rect x="0" y="608.9" width="1600" height="201.7" fill="url(#g1uuot67-fog3)"/><path d="M0 900 L0 666.7 Q0.0 666.7 38.1 670.7 Q76.2 674.7 114.3 668.6 Q152.4 662.6 190.5 646.8 Q228.6 631.1 266.7 629.2 Q304.8 627.4 342.9 613.2 Q381.0 599.0 419.0 606.9 Q457.1 614.7 495.2 637.6 Q533.3 660.5 571.4 654.1 Q609.5 647.8 647.6 665.8 Q685.7 683.8 723.8 670.6 Q761.9 657.5 800.0 656.2 Q838.1 654.9 876.2 672.0 Q914.3 689.1 952.4 693.2 Q990.5 697.3 1028.6 705.4 Q1066.7 713.6 1104.8 718.8 Q1142.9 723.9 1181.0 698.5 Q1219.0 673.1 1257.1 660.2 Q1295.2 647.4 1333.3 639.3 Q1371.4 631.3 1409.5 624.0 Q1447.6 616.6 1485.7 631.8 Q1523.8 646.9 1561.9 638.5 L1600 630.2 L1600 900 Z" fill="hsl(297.4 41.8% 28.9%)"/><path d="M0 900 L0 695.6 Q0.0 695.6 50.0 720.4 Q100.0 745.2 150.0 733.7 Q200.0 722.2 250.0 717.7 Q300.0 713.1 350.0 699.1 Q400.0 685.0 450.0 699.9 Q500.0 714.9 550.0 712.9 Q600.0 710.9 650.0 699.4 Q700.0 687.9 750.0 668.5 Q800.0 649.0 850.0 641.7 Q900.0 634.4 950.0 648.8 Q1000.0 663.1 1050.0 668.4 Q1100.0 673.6 1150.0 691.6 Q1200.0 709.6 1250.0 695.9 Q1300.0 682.2 1350.0 693.8 Q1400.0 705.5 1450.0 712.7 Q1500.0 719.8 1550.0 741.9 L1600 764.1 L1600 900 Z" fill="hsl(262.0 25.0% 16.0%)"/><path d="M387.6 900 C576.8 744.6193808652461 678.7 659.2 684.7 589.2 L686.7 589.2 C694.7 659.2 1088.8 744.6193808652461 899.6 900 Z" fill="hsl(262.0 14.5% 21.6%)"/><path d="M643.6 900 C832.8 744.6193808652461 684.7 649.2 685.7 589.2" fill="none" stroke="hsl(45 30% 92% / 0.8)" stroke-width="7" stroke-dasharray="46 38" stroke-linecap="round"/><rect width="1600" height="900" fill="url(#g1uuot67-vig)"/></svg>