<svg xmlns="http://www.w3.org/2000/svg" viewBox="0 0 1600 900" role="img" preserveAspectRatio="xMidYMid slice"><title>xuyen-viet-10-ngay-sg-hn s2</title><defs><linearGradient id="g881d96-sky" x1="0" y1="0" x2="0" y2="1"><stop offset="0%" stop-color="hsl(210.0 14.0% 74.0%)"/><stop offset="50%" stop-color="hsl(210.0 12.0% 82.0%)"/><stop offset="100%" stop-color="hsl(36.0 18.0% 86.0%)"/></linearGradient><radialGradient id="g881d96-glow"><stop offset="0%" stop-color="hsl(40.0 30.0% 92.0% / 0.850)"/><stop offset="45%" stop-color="hsl(40.0 30.0% 92.0% / 0.250)"/><stop offset="100%" stop-color="hsl(40.0 30.0% 92.0% / 0.000)"/></radialGradient><linearGradient id="g881d96-fog0" x1="0" y1="0" x2="0" y2="1"><stop offset="0%" stop-color="hsl(40 20% 96% / 0)"/><stop offset="55%" stop-color="hsl(40 20% 96% / 0.21)"/><stop offset="100%" stop-color="hsl(40 20% 96% / 0)"/></linearGradient><linearGradient id="g881d96-fog1" x1="0" y1="0" x2="0" y2="1"><stop offset="0%" stop-color="hsl(40 20% 96% / 0)"/><stop offset="55%" stop-color="hsl(40 20% 96% / 0.29)"/><stop offset="100%" stop-color="hsl(40 20% 96% / 0)"/></linearGradient><linearGradient id="g881d96-fog2" x1="0" y1="0" x2="0" y2="1"><stop offset="0%" stop-color="hsl(40 20% 96% / 0)"/><stop offset="55%" stop-color="hsl(40 20% 96% / 0.16)"/><stop offset="100%" stop-color="hsl(40 20% 96% / 0)"/></linearGradient><linearGradient id="g881d96-fog4" x1="0" y1="0" x2="0" y2="1"><stop offset="0%" stop-color="hsl(40 20% 96% / 0)"/><stop offset="55%" stop-color="hsl(40 20% 96% / 0.17)"/><stop offset="100%" stop-color="hsl(40 20% 96% / 0)"/></linearGradient><linearGradient id="g881d96-fog5" x1="0" y1="0" x2="0" y2="1"><stop offset="0%" stop-color="hsl(40 20% 96% / 0)"/><stop offset="55%" stop-color="hsl(40 20% 96% / 0.21)"/><stop offset="100%" stop-color="hsl(40 20% 96% / 0)"/></linearGradient><linearGradient id="g881d96-fog6" x1="0" y1="0" x2="0" y2="1"><stop offset="0%" stop-color="hsl(40 20% 96% / 0)"/><stop offset="55%" stop-color="hsl(40 20% 96% / 0.16)"/><stop offset="100%" stop-color="hsl(40 20% 96% / 0)"/></linearGradient><radialGradient id="g881d96-vig" cx="50%" cy="42%" r="75%"><stop offset="70%" stop-color="hsl(0 0% 0% / 0)"/><stop offset="100%" stop-color="hsl(0 0% 0% / 0.18)"/></radialGradient></defs><rect width="1600" height="621.0" fill="url(#g881d96-sky)"/><rect y="620.0" width="1600" height="280.0" fill="hsl(168.0 16.5% 44.0%)"/><circle cx="765.2" cy="279.5" r="90" fill="url(#g881d96-glow)"/><circle cx="765.2" cy="279.5" r="46" fill="hsl(40.0 30.0% 92.0%)"/><path d="M0 900 L0 424.4 Q0.0 424.4 53.3 393.2 Q106.7 362.0 160.0 408.3 Q213.3 454.6 266.7 395.7 Q320.0 336.8 373.3 345.9 Q426.7 355.1 480.0 370.1 Q533.3 385.0 586.7 457.2 Q640.0 529.4 693.3 541.9 Q746.7 554.5 800.0 538.3 Q853.3 522.1 906.7 515.4 Q960.0 508.7 1013.3 528.5 Q1066.7 548.2 1120.0 523.3 Q1173.3 498.3 1226.7 412.8 Q1280.0 327.2 1333.3 337.7 Q1386.7 348.2 1440.0 343.4 Q1493.3 338.7 1546.7 388.7 L1600 438.6 L1600 900 Z" fill="hsl(74.7 17.6% 73.7%)"/><rect x="0" y="486.6" width="1600" height="340.0" fill="url(#g881d96-fog0)"/><path d="M0 900 L0 572.1 Q0.0 572.1 42.1 541.4 Q84.2 510.8 126.3 466.9 Q168.4 423.0 210.5 446.2 Q252.6 469.3 294.7 475.8 Q336.8 482.3 378.9 443.4 Q421.1 404.4 463.2 408.5 Q505.3 412.6 547.4 413.8 Q589.5 415.0 631.6 435.9 Q673.7 456.8 715.8 504.6 Q757.9 552.3 800.0 593.4 Q842.1 634.6 884.2 628.2 Q926.3 621.8 968.4 576.4 Q1010.5 531.0 1052.6 527.1 Q1094.7 523.2 1136.8 488.8 Q1178.9 454.4 1221.1 455.9 Q1263.2 457.4 1305.3 472.6 Q1347.4 487.8 1389.5 461.9 Q1431.6 436.0 1473.7 408.1 Q1515.8 380.3 1557.9 401.2 L1600 422.1 L1600 900 Z" fill="hsl(77.5 17.5% 72.8%)"/><rect x="0" y="527.8" width="1600" height="292.3" fill="url(#g881d96-fog1)"/><path d="M0 900 L0 613.0 Q0.0 613.0 47.1 604.7 Q94.1 596.3 141.2 587.5 Q188.2 578.7 235.3 574.2 Q282.4 569.8 329.4 571.3 Q376.5 572.9 423.5 555.6 Q470.6 538.4 517.6 532.7 Q564.7 527.1 611.8 512.0 Q658.8 496.9 705.9 513.3 Q752.9 529.7 800.0 540.6 Q847.1 551.5 894.1 600.3 Q941.2 649.1 988.2 647.5 Q1035.3 645.9 1082.4 649.1 Q1129.4 652.3 1176.5 608.7 Q1223.5 565.1 1270.6 544.7 Q1317.6 524.3 1364.7 489.5 Q1411.8 454.7 1458.8 486.2 Q1505.9 517.7 1552.9 529.2 L1600 540.7 L1600 900 Z" fill="hsl(85.9 17.4% 70.1%)"/><rect x="0" y="587.2" width="1600" height="203.3" fill="url(#g881d96-fog2)"/><path d="M0 900 L0 527.7 Q0.0 527.7 47.1 514.6 Q94.1 501.5 141.2 517.7 Q188.2 533.8 235.3 520.5 Q282.4 507.2 329.4 524.2 Q376.5 541.1 423.5 591.7 Q470.6 642.3 517.6 637.6 Q564.7 632.9 611.8 638.0 Q658.8 643.1 705.9 600.7 Q752.9 558.2 800.0 500.1 Q847.1 442.0 894.1 450.2 Q941.2 458.5 988.2 480.7 Q1035.3 503.0 1082.4 541.2 Q1129.4 579.4 1176.5 597.8 Q1223.5 616.3 1270.6 600.1 Q1317.6 583.9 1364.7 599.5 Q1411.8 615.1 1458.8 590.7 Q1505.9 566.3 1552.9 577.2 L1600 588.2 L1600 900 Z" fill="hsl(99.9 17.3% 65.7%)"/><path d="M0 900 L0 644.3 Q0.0 644.3 38.1 614.9 Q76.2 585.4 114.3 556.5 Q152.4 527.6 190.5 528.7 Q228.6 529.8 266.7 520.7 Q304.8 511.7 342.9 547.5 Q381.0 583.3 419.0 611.7 Q457.1 640.1 495.2 623.3 Q533.3 606.5 571.4 625.2 Q609.5 643.9 647.6 637.4 Q685.7 630.8 723.8 631.2 Q761.9 631.7 800.0 645.4 Q838.1 659.1 876.2 656.1 Q914.3 653.1 952.4 643.4 Q990.5 633.7 1028.6 614.3 Q1066.7 594.9 1104.8 554.2 Q1142.9 513.6 1181.0 514.0 Q1219.0 514.5 1257.1 529.4 Q1295.2 544.4 1333.3 564.2 Q1371.4 584.1 1409.5 620.7 Q1447.6 657.3 1485.7 655.7 Q1523.8 654.2 1561.9 649.7 L1600 645.3 L1600 900 Z" fill="hsl(119.5 17.1% 59.4%)"/><rect x="0" y="624.7" width="1600" height="208.7" fill="url(#g881d96-fog4)"/><path d="M0 900 L0 644.1 Q0.0 644.1 53.3 640.9 Q106.7 637.6 160.0 629.0 Q213.3 620.4 266.7 618.6 Q320.0 616.8 373.3 605.8 Q426.7 594.8 480.0 619.9 Q533.3 645.1 586.7 673.3 Q640.0 701.5 693.3 704.3 Q746.7 707.1 800.0 705.0 Q853.3 702.8 906.7 667.0 Q960.0 631.3 1013.3 615.7 Q1066.7 600.2 1120.0 600.0 Q1173.3 599.8 1226.7 606.8 Q1280.0 613.9 1333.3 639.6 Q1386.7 665.3 1440.0 654.3 Q1493.3 643.2 1546.7 662.1 L1600 681.0 L1600 900 Z" fill="hsl(144.8 16.8% 51.4%)"/><rect x="0" y="667.3" width="1600" height="157.8" fill="url(#g881d96-fog5)"/><path d="M0 900 L0 703.9 Q0.0 703.9 42.1 698.1 Q84.2 692.2 126.3 675.1 Q168.4 657.9 210.5 640.9 Q252.6 623.9 294.7 629.8 Q336.8 635.8 378.9 654.7 Q421.1 673.6 463.2 680.7 Q505.3 687.7 547.4 678.6 Q589.5 669.4 631.6 678.4 Q673.7 687.4 715.8 697.0 Q757.9 706.6 800.0 716.8 Q842.1 726.9 884.2 740.1 Q926.3 753.2 968.4 738.0 Q1010.5 722.9 1052.6 693.7 Q1094.7 664.5 1136.8 656.3 Q1178.9 648.1 1221.1 651.4 Q1263.2 654.6 1305.3 655.6 Q1347.4 656.6 1389.5 658.9 Q1431.6 661.2 1473.7 661.7 Q1515.8 662.2 1557.9 655.2 L1600 648.1 L1600 900 Z" fill="hsl(175.6 16.4% 41.6%)"/><rect x="0" y="698.1" width="1600" height="133.1" fill="url(#g881d96-fog6)"/><path d="M0 900 L0 709.7 Q0.0 709.7 53.3 698.5 Q106.7 687.3 160.0 688.2 Q213.3 689.1 266.7 694.1 Q320.0 699.1 373.3 696.0 Q426.7 693.0 480.0 692.0 Q533.3 691.0 586.7 694.7 Q640.0 698.4 693.3 714.7 Q746.7 730.9 800.0 744.0 Q853.3 757.2 906.7 756.2 Q960.0 755.3 1013.3 746.9 Q1066.7 738.5 1120.0 732.6 Q1173.3 726.6 1226.7 727.4 Q1280.0 728.2 1333.3 726.4 Q1386.7 724.6 1440.0 715.1 Q1493.3 705.5 1546.7 690.5 L1600 675.5 L1600 900 Z" fill="hsl(212.0 16.0% 30.0%)"/><rect width="1600" height="900" fill="url(#g881d96-vig)"/></svg>