<svg xmlns="http://www.w3.org/2000/svg" viewBox="0 0 1600 900" role="img" preserveAspectRatio="xMidYMid slice"><title>xuyen-viet-10-ngay-sg-hn s1</title><defs><linearGradient id="g1cqracr-sky" x1="0" y1="0" x2="0" y2="1"><stop offset="0%" stop-color="hsl(248.0 42.0% 22.0%)"/><stop offset="50%" stop-color="hsl(330.0 45.0% 48.0%)"/><stop offset="100%" stop-color="hsl(28.0 85.0% 62.0%)"/></linearGradient><radialGradient id="g1cqracr-glow"><stop offset="0%" stop-color="hsl(35.0 95.0% 72.0% / 0.850)"/><stop offset="45%" stop-color="hsl(35.0 95.0% 72.0% / 0.250)"/><stop offset="100%" stop-color="hsl(35.0 95.0% 72.0% / 0.000)"/></radialGradient><linearGradient id="g1cqracr-fog0" x1="0" y1="0" x2="0" y2="1"><stop offset="0%" stop-color="hsl(40 20% 96% / 0)"/><stop offset="55%" stop-color="hsl(40 20% 96% / 0.25)"/><stop offset="100%" stop-color="hsl(40 20% 96% / 0)"/></linearGradient><radialGradient id="g1cqracr-vig" cx="50%" cy="42%" r="75%"><stop offset="70%" stop-color="hsl(0 0% 0% / 0)"/><stop offset="100%" stop-color="hsl(0 0% 0% / 0.18)"/></radialGradient></defs><rect width="1600" height="578.8" fill="url(#g1cqracr-sky)"/><rect y="577.8" width="1600" height="322.2" fill="hsl(293.5 40.0% 27.5%)"/><circle cx="478.5" cy="532.5" r="200" fill="url(#g1cqracr-glow)"/><circle cx="478.5" cy="532.5" r="64" fill="hsl(35.0 95.0% 72.0%)"/><path d="M0 900 L0 359.2 Q0.0 359.2 57.1 395.6 Q114.3 432.0 171.4 472.1 Q228.6 512.2 285.7 542.4 Q342.9 572.7 400.0 539.4 Q457.1 506.0 514.3 489.6 Q571.4 473.2 628.6 481.6 Q685.7 490.0 742.9 430.4 Q800.0 370.7 857.1 351.3 Q914.3 331.9 971.4 360.5 Q1028.6 389.2 1085.7 434.2 Q1142.9 479.3 1200.0 503.2 Q1257.1 527.1 1314.3 514.3 Q1371.4 501.5 1428.6 495.9 Q1485.7 490.3 1542.9 510.7 L1600 531.1 L1600 900 Z" fill="hsl(0.3 71.8% 51.9%)"/><rect x="0" y="483.4" width="1600" height="258.0" fill="url(#g1cqracr-fog0)"/><path d="M0 900 L0 574.9 Q0.0 574.9 44.4 571.2 Q88.9 567.4 133.3 541.8 Q177.8 516.1 222.2 485.7 Q266.7 455.2 311.1 433.2 Q355.6 411.1 400.0 384.4 Q444.4 357.7 488.9 387.4 Q533.3 417.1 577.8 471.4 Q622.2 525.8 666.7 545.4 Q711.1 565.0 755.6 568.2 Q800.0 571.5 844.4 571.0 Q888.9 570.4 933.3 558.3 Q977.8 546.3 1022.2 512.7 Q1066.7 479.1 1111.1 487.6 Q1155.6 496.0 1200.0 496.2 Q1244.4 496.3 1288.9 474.7 Q1333.3 453.0 1377.8 446.6 Q1422.2 440.2 1466.7 438.3 Q1511.1 436.3 1555.6 448.6 L1600 460.8 L1600 900 Z" fill="hsl(357.5 70.5% 50.9%)"/><path d="M0 900 L0 520.7 Q0.0 520.7 38.1 493.8 Q76.2 467.0 114.3 439.6 Q152.4 412.1 190.5 435.7 Q228.6 459.3 266.7 502.8 Q304.8 546.4 342.9 561.9 Q381.0 577.5 419.0 580.0 Q457.1 582.4 495.2 578.8 Q533.3 575.2 571.4 567.8 Q609.5 560.5 647.6 570.8 Q685.7 581.1 723.8 552.9 Q761.9 524.8 800.0 528.7 Q838.1 532.6 876.2 543.7 Q914.3 554.8 952.4 507.2 Q990.5 459.7 1028.6 447.9 Q1066.7 436.1 1104.8 446.4 Q1142.9 456.8 1181.0 493.5 Q1219.0 530.3 1257.1 547.7 Q1295.2 565.2 1333.3 562.5 Q1371.4 559.8 1409.5 579.4 Q1447.6 598.9 1485.7 594.2 Q1523.8 589.5 1561.9 574.7 L1600 559.8 L1600 900 Z" fill="hsl(349.4 66.6% 47.9%)"/><path d="M0 900 L0 598.9 Q0.0 598.9 42.1 611.3 Q84.2 623.6 126.3 618.5 Q168.4 613.3 210.5 603.7 Q252.6 594.1 294.7 575.2 Q336.8 556.2 378.9 526.6 Q421.1 496.9 463.2 502.9 Q505.3 508.9 547.4 507.7 Q589.5 506.5 631.6 533.0 Q673.7 559.4 715.8 595.1 Q757.9 630.7 800.0 633.9 Q842.1 637.1 884.2 654.2 Q926.3 671.3 968.4 634.5 Q1010.5 597.7 1052.6 586.9 Q1094.7 576.1 1136.8 558.0 Q1178.9 539.8 1221.1 516.2 Q1263.2 492.7 1305.3 530.5 Q1347.4 568.3 1389.5 548.3 Q1431.6 528.3 1473.7 551.9 Q1515.8 575.4 1557.9 571.1 L1600 566.7 L1600 900 Z" fill="hsl(335.7 60.1% 42.9%)"/><path d="M0 900 L0 633.4 Q0.0 633.4 50.0 641.5 Q100.0 649.6 150.0 640.7 Q200.0 631.8 250.0 640.6 Q300.0 649.4 350.0 630.6 Q400.0 611.8 450.0 609.1 Q500.0 606.4 550.0 581.7 Q600.0 557.0 650.0 549.2 Q700.0 541.4 750.0 564.0 Q800.0 586.6 850.0 610.2 Q900.0 633.8 950.0 641.8 Q1000.0 649.9 1050.0 672.4 Q1100.0 694.9 1150.0 672.9 Q1200.0 650.9 1250.0 636.6 Q1300.0 622.2 1350.0 615.2 Q1400.0 608.3 1450.0 584.7 Q1500.0 561.1 1550.0 565.7 L1600 570.4 L1600 900 Z" fill="hsl(316.6 51.0% 35.9%)"/><path d="M0 900 L0 662.2 Q0.0 662.2 57.1 683.7 Q114.3 705.1 171.4 700.8 Q228.6 696.5 285.7 688.2 Q342.9 679.9 400.0 683.2 Q457.1 686.5 514.3 676.8 Q571.4 667.2 628.6 667.0 Q685.7 666.8 742.9 636.3 Q800.0 605.7 857.1 603.4 Q914.3 601.1 971.4 603.1 Q1028.6 605.1 1085.7 642.2 Q1142.9 679.3 1200.0 687.8 Q1257.1 696.4 1314.3 705.1 Q1371.4 713.8 1428.6 687.2 Q1485.7 660.7 1542.9 656.4 L1600 652.0 L1600 900 Z" fill="hsl(292.0 39.3% 27.0%)"/><path d="M0 900 L0 690.7 Q0.0 690.7 42.1 673.1 Q84.2 655.6 126.3 637.3 Q168.4 619.0 210.5 647.1 Q252.6 675.2 294.7 673.7 Q336.8 672.3 378.9 666.3 Q421.1 660.4 463.2 665.5 Q505.3 670.6 547.4 670.2 Q589.5 669.9 631.6 676.4 Q673.7 682.8 715.8 711.2 Q757.9 739.7 800.0 734.6 Q842.1 729.6 884.2 734.9 Q926.3 740.1 968.4 733.1 Q1010.5 726.0 1052.6 710.1 Q1094.7 694.3 1136.8 699.4 Q1178.9 704.6 1221.1 700.1 Q1263.2 695.6 1305.3 680.8 Q1347.4 666.0 1389.5 667.5 Q1431.6 669.0 1473.7 653.0 Q1515.8 637.0 1557.9 640.3 L1600 643.5 L1600 900 Z" fill="hsl(262.0 25.0% 16.0%)"/><path d="M247.7 900 C411.1 741.3901236038655 1009.9 652.8 1015.9 582.8 L1017.9 582.8 C1025.9 652.8 923.1 741.3901236038655 759.7 900 Z" fill="hsl(262.0 14.5% 21.6%)"/><path d="M503.7 900 C667.1 741.3901236038655 1015.9 642.8 1016.9 582.8" fill="none" stroke="hsl(45 30% 92% / 0.8)" stroke-width="7" stroke-dasharray="46 38" stroke-linecap="round"/><rect width="1600" height="900" fill="url(#g1cqracr-vig)"/></svg>