<svg xmlns="http://www.w3.org/2000/svg" viewBox="0 0 1600 900" role="img" preserveAspectRatio="xMidYMid slice"><title>quang-ngai-ly-son-toi-hanh-tinh-khac hero</title><defs><linearGradient id="geq7rnp-sky" x1="0" y1="0" x2="0" y2="1"><stop offset="0%" stop-color="hsl(220.0 45.0% 44.0%)"/><stop offset="50%" stop-color="hsl(345.0 40.0% 58.0%)"/><stop offset="100%" stop-color="hsl(28.0 75.0% 64.0%)"/></linearGradient><radialGradient id="geq7rnp-glow"><stop offset="0%" stop-color="hsl(30.0 90.0% 70.0% / 0.850)"/><stop offset="45%" stop-color="hsl(30.0 90.0% 70.0% / 0.250)"/><stop offset="100%" stop-color="hsl(30.0 90.0% 70.0% / 0.000)"/></radialGradient><linearGradient id="geq7rnp-water" x1="0" y1="0" x2="0" y2="1"><stop offset="0%" stop-color="hsl(307.9 59.3% 46.0%)"/><stop offset="100%" stop-color="hsl(229.0 37.0% 12.8%)"/></linearGradient><radialGradient id="geq7rnp-vig" cx="50%" cy="42%" r="75%"><stop offset="70%" stop-color="hsl(0 0% 0% / 0)"/><stop offset="100%" stop-color="hsl(0 0% 0% / 0.18)"/></radialGradient></defs><rect width="1600" height="486.5" fill="url(#geq7rnp-sky)"/><rect y="485.5" width="1600" height="414.5" fill="hsl(284.5 37.5% 26.5%)"/><circle cx="915.0" cy="389.2" r="160" fill="url(#geq7rnp-glow)"/><circle cx="915.0" cy="389.2" r="60" fill="hsl(30.0 90.0% 70.0%)"/><path d="M601.5 486.48538419418037 Q911.9 248.9 945.5 218.9 L1057.5 218.9 Q1091.1 248.9 1401.5 486.48538419418037 Z" fill="hsl(312.1 47.5% 36.5%)"/><path d="M0 900 L0 326.2 Q0.0 326.2 47.1 325.6 Q94.1 324.9 141.2 372.1 Q188.2 419.4 235.3 443.7 Q282.4 468.1 329.4 474.5 Q376.5 481.0 423.5 458.7 Q470.6 436.4 517.6 395.6 Q564.7 354.9 611.8 369.7 Q658.8 384.4 705.9 379.7 Q752.9 374.9 800.0 351.0 Q847.1 327.1 894.1 327.9 Q941.2 328.7 988.2 318.9 Q1035.3 309.2 1082.4 349.9 Q1129.4 390.7 1176.5 431.1 Q1223.5 471.6 1270.6 466.7 Q1317.6 461.8 1364.7 445.1 Q1411.8 428.5 1458.8 415.4 Q1505.9 402.2 1552.9 393.8 L1600 385.3 L1600 900 Z" fill="hsl(357.6 64.0% 53.0%)"/><path d="M0 900 L0 651.4 Q0.0 651.4 50.0 673.3 Q100.0 695.2 150.0 700.7 Q200.0 706.2 250.0 697.0 Q300.0 687.9 350.0 673.1 Q400.0 658.3 450.0 641.9 Q500.0 625.5 550.0 635.8 Q600.0 646.1 650.0 647.9 Q700.0 649.7 750.0 662.8 Q800.0 675.9 850.0 681.4 Q900.0 686.8 950.0 678.0 Q1000.0 669.1 1050.0 680.5 Q1100.0 692.0 1150.0 680.7 Q1200.0 669.4 1250.0 667.8 Q1300.0 666.3 1350.0 653.7 Q1400.0 641.0 1450.0 629.9 Q1500.0 618.7 1550.0 629.8 L1600 640.9 L1600 900 Z" fill="hsl(250.0 25.0% 14.0%)"/><rect y="486.5" width="1600" height="413.5" fill="url(#geq7rnp-water)"/><g><rect x="780.1" y="505.1" width="17.5" height="3.2" rx="1.6" fill="hsl(30.0 90.0% 70.0% / 0.557)"/><rect x="769.5" y="520.7" width="40.6" height="3.2" rx="1.6" fill="hsl(30.0 90.0% 70.0% / 0.539)"/><rect x="763.3" y="538.2" width="40.9" height="3.2" rx="1.6" fill="hsl(30.0 90.0% 70.0% / 0.518)"/><rect x="749.6" y="546.9" width="51.6" height="3.2" rx="1.6" fill="hsl(30.0 90.0% 70.0% / 0.507)"/><rect x="798.6" y="568.4" width="55.8" height="3.2" rx="1.6" fill="hsl(30.0 90.0% 70.0% / 0.481)"/><rect x="751.3" y="578.0" width="46.8" height="3.2" rx="1.6" fill="hsl(30.0 90.0% 70.0% / 0.469)"/><rect x="774.9" y="595.4" width="66.2" height="3.2" rx="1.6" fill="hsl(30.0 90.0% 70.0% / 0.448)"/><rect x="810.0" y="614.4" width="48.6" height="3.2" rx="1.6" fill="hsl(30.0 90.0% 70.0% / 0.425)"/><rect x="763.5" y="628.2" width="48.8" height="3.2" rx="1.6" fill="hsl(30.0 90.0% 70.0% / 0.409)"/><rect x="822.6" y="644.5" width="31.2" height="3.2" rx="1.6" fill="hsl(30.0 90.0% 70.0% / 0.389)"/><rect x="762.8" y="659.1" width="29.6" height="3.2" rx="1.6" fill="hsl(30.0 90.0% 70.0% / 0.371)"/><rect x="757.3" y="669.8" width="82.8" height="3.2" rx="1.6" fill="hsl(30.0 90.0% 70.0% / 0.358)"/><rect x="819.6" y="688.2" width="23.8" height="3.2" rx="1.6" fill="hsl(30.0 90.0% 70.0% / 0.336)"/><rect x="781.8" y="702.3" width="94.9" height="3.2" rx="1.6" fill="hsl(30.0 90.0% 70.0% / 0.319)"/><rect x="708.8" y="716.6" width="92.2" height="3.2" rx="1.6" fill="hsl(30.0 90.0% 70.0% / 0.302)"/><rect x="690.2" y="737.9" width="98.1" height="3.2" rx="1.6" fill="hsl(30.0 90.0% 70.0% / 0.276)"/><rect x="771.7" y="752.0" width="35.2" height="3.2" rx="1.6" fill="hsl(30.0 90.0% 70.0% / 0.259)"/><rect x="817.1" y="763.3" width="44.1" height="3.2" rx="1.6" fill="hsl(30.0 90.0% 70.0% / 0.245)"/><rect x="819.5" y="777.5" width="91.4" height="3.2" rx="1.6" fill="hsl(30.0 90.0% 70.0% / 0.228)"/><rect x="696.9" y="795.8" width="75.8" height="3.2" rx="1.6" fill="hsl(30.0 90.0% 70.0% / 0.206)"/><rect x="797.2" y="808.0" width="71.6" height="3.2" rx="1.6" fill="hsl(30.0 90.0% 70.0% / 0.191)"/><rect x="772.4" y="827.5" width="93.8" height="3.2" rx="1.6" fill="hsl(30.0 90.0% 70.0% / 0.168)"/><rect x="766.0" y="843.4" width="109.5" height="3.2" rx="1.6" fill="hsl(30.0 90.0% 70.0% / 0.148)"/><rect x="764.8" y="856.0" width="83.8" height="3.2" rx="1.6" fill="hsl(30.0 90.0% 70.0% / 0.133)"/><rect x="820.0" y="870.1" width="83.4" height="3.2" rx="1.6" fill="hsl(30.0 90.0% 70.0% / 0.116)"/></g><rect width="1600" height="900" fill="url(#geq7rnp-vig)"/></svg>