<svg xmlns="http://www.w3.org/2000/svg" viewBox="0 0 1600 900" role="img" preserveAspectRatio="xMidYMid slice"><title>quang-ngai-ly-son-toi-hanh-tinh-khac s1</title><defs><linearGradient id="g1wfhedx-sky" x1="0" y1="0" x2="0" y2="1"><stop offset="0%" stop-color="hsl(220.0 45.0% 44.0%)"/><stop offset="50%" stop-color="hsl(345.0 40.0% 58.0%)"/><stop offset="100%" stop-color="hsl(28.0 75.0% 64.0%)"/></linearGradient><radialGradient id="g1wfhedx-glow"><stop offset="0%" stop-color="hsl(30.0 90.0% 70.0% / 0.850)"/><stop offset="45%" stop-color="hsl(30.0 90.0% 70.0% / 0.250)"/><stop offset="100%" stop-color="hsl(30.0 90.0% 70.0% / 0.000)"/></radialGradient><linearGradient id="g1wfhedx-water" x1="0" y1="0" x2="0" y2="1"><stop offset="0%" stop-color="hsl(307.9 59.3% 46.0%)"/><stop offset="100%" stop-color="hsl(229.0 37.0% 12.8%)"/></linearGradient><radialGradient id="g1wfhedx-vig" cx="50%" cy="42%" r="75%"><stop offset="70%" stop-color="hsl(0 0% 0% / 0)"/><stop offset="100%" stop-color="hsl(0 0% 0% / 0.18)"/></radialGradient></defs><rect width="1600" height="510.3" fill="url(#g1wfhedx-sky)"/><rect y="509.3" width="1600" height="390.7" fill="hsl(284.5 37.5% 26.5%)"/><circle cx="844.0" cy="408.2" r="160" fill="url(#g1wfhedx-glow)"/><circle cx="844.0" cy="408.2" r="60" fill="hsl(30.0 90.0% 70.0%)"/><path d="M195.8 510.26168293599034 Q506.2 259.6 539.8 229.6 L651.8 229.6 Q685.4 259.6 995.8 510.26168293599034 Z" fill="hsl(312.1 47.5% 36.5%)"/><path d="M0 900 L0 397.6 Q0.0 397.6 40.0 426.9 Q80.0 456.2 120.0 476.2 Q160.0 496.2 200.0 481.0 Q240.0 465.8 280.0 404.4 Q320.0 343.0 360.0 315.4 Q400.0 287.8 440.0 287.5 Q480.0 287.3 520.0 292.4 Q560.0 297.6 600.0 321.4 Q640.0 345.2 680.0 380.2 Q720.0 415.2 760.0 420.6 Q800.0 425.9 840.0 408.5 Q880.0 391.0 920.0 409.2 Q960.0 427.3 1000.0 449.5 Q1040.0 471.7 1080.0 473.6 Q1120.0 475.5 1160.0 437.9 Q1200.0 400.3 1240.0 350.0 Q1280.0 299.8 1320.0 282.8 Q1360.0 265.9 1400.0 266.8 Q1440.0 267.8 1480.0 290.4 Q1520.0 313.0 1560.0 356.4 L1600 399.9 L1600 900 Z" fill="hsl(357.6 64.0% 53.0%)"/><path d="M0 900 L0 671.9 Q0.0 671.9 50.0 663.7 Q100.0 655.5 150.0 660.1 Q200.0 664.8 250.0 656.0 Q300.0 647.3 350.0 648.5 Q400.0 649.7 450.0 637.1 Q500.0 624.4 550.0 619.8 Q600.0 615.3 650.0 647.7 Q700.0 680.2 750.0 689.6 Q800.0 699.0 850.0 703.8 Q900.0 708.6 950.0 703.0 Q1000.0 697.4 1050.0 672.7 Q1100.0 648.0 1150.0 650.1 Q1200.0 652.2 1250.0 647.9 Q1300.0 643.7 1350.0 642.4 Q1400.0 641.1 1450.0 642.8 Q1500.0 644.5 1550.0 633.9 L1600 623.3 L1600 900 Z" fill="hsl(250.0 25.0% 14.0%)"/><rect y="510.3" width="1600" height="389.7" fill="url(#g1wfhedx-water)"/><g><rect x="783.0" y="526.2" width="10.6" height="3.2" rx="1.6" fill="hsl(30.0 90.0% 70.0% / 0.560)"/><rect x="793.0" y="545.4" width="17.5" height="3.2" rx="1.6" fill="hsl(30.0 90.0% 70.0% / 0.535)"/><rect x="768.7" y="558.5" width="14.0" height="3.2" rx="1.6" fill="hsl(30.0 90.0% 70.0% / 0.518)"/><rect x="810.3" y="577.6" width="26.4" height="3.2" rx="1.6" fill="hsl(30.0 90.0% 70.0% / 0.494)"/><rect x="761.3" y="587.3" width="20.0" height="3.2" rx="1.6" fill="hsl(30.0 90.0% 70.0% / 0.481)"/><rect x="760.2" y="605.3" width="37.2" height="3.2" rx="1.6" fill="hsl(30.0 90.0% 70.0% / 0.458)"/><rect x="768.4" y="620.3" width="51.9" height="3.2" rx="1.6" fill="hsl(30.0 90.0% 70.0% / 0.439)"/><rect x="741.6" y="634.1" width="60.0" height="3.2" rx="1.6" fill="hsl(30.0 90.0% 70.0% / 0.421)"/><rect x="753.5" y="655.7" width="46.2" height="3.2" rx="1.6" fill="hsl(30.0 90.0% 70.0% / 0.393)"/><rect x="782.3" y="670.1" width="78.5" height="3.2" rx="1.6" fill="hsl(30.0 90.0% 70.0% / 0.375)"/><rect x="818.4" y="684.5" width="31.8" height="3.2" rx="1.6" fill="hsl(30.0 90.0% 70.0% / 0.357)"/><rect x="811.0" y="698.7" width="62.0" height="3.2" rx="1.6" fill="hsl(30.0 90.0% 70.0% / 0.338)"/><rect x="799.9" y="717.9" width="41.5" height="3.2" rx="1.6" fill="hsl(30.0 90.0% 70.0% / 0.314)"/><rect x="781.9" y="727.6" width="72.0" height="3.2" rx="1.6" fill="hsl(30.0 90.0% 70.0% / 0.301)"/><rect x="732.5" y="744.8" width="26.5" height="3.2" rx="1.6" fill="hsl(30.0 90.0% 70.0% / 0.279)"/><rect x="714.1" y="761.8" width="47.6" height="3.2" rx="1.6" fill="hsl(30.0 90.0% 70.0% / 0.257)"/><rect x="827.6" y="775.0" width="49.3" height="3.2" rx="1.6" fill="hsl(30.0 90.0% 70.0% / 0.240)"/><rect x="775.2" y="794.6" width="64.2" height="3.2" rx="1.6" fill="hsl(30.0 90.0% 70.0% / 0.215)"/><rect x="768.0" y="809.6" width="40.8" height="3.2" rx="1.6" fill="hsl(30.0 90.0% 70.0% / 0.196)"/><rect x="809.7" y="826.6" width="62.4" height="3.2" rx="1.6" fill="hsl(30.0 90.0% 70.0% / 0.174)"/><rect x="812.3" y="844.5" width="128.9" height="3.2" rx="1.6" fill="hsl(30.0 90.0% 70.0% / 0.151)"/><rect x="693.0" y="858.7" width="111.3" height="3.2" rx="1.6" fill="hsl(30.0 90.0% 70.0% / 0.133)"/><rect x="730.6" y="875.6" width="116.4" height="3.2" rx="1.6" fill="hsl(30.0 90.0% 70.0% / 0.111)"/></g><rect width="1600" height="900" fill="url(#g1wfhedx-vig)"/></svg>