<svg xmlns="http://www.w3.org/2000/svg" viewBox="0 0 1600 900" role="img" preserveAspectRatio="xMidYMid slice"><title>quang-ngai-ly-son-toi-hanh-tinh-khac s2</title><defs><linearGradient id="gwjeji0-sky" x1="0" y1="0" x2="0" y2="1"><stop offset="0%" stop-color="hsl(208.0 60.0% 52.0%)"/><stop offset="50%" stop-color="hsl(196.0 50.0% 66.0%)"/><stop offset="100%" stop-color="hsl(40.0 60.0% 76.0%)"/></linearGradient><radialGradient id="gwjeji0-glow"><stop offset="0%" stop-color="hsl(42.0 90.0% 78.0% / 0.850)"/><stop offset="45%" stop-color="hsl(42.0 90.0% 78.0% / 0.250)"/><stop offset="100%" stop-color="hsl(42.0 90.0% 78.0% / 0.000)"/></radialGradient><linearGradient id="gwjeji0-water" x1="0" y1="0" x2="0" y2="1"><stop offset="0%" stop-color="hsl(116.5 51.0% 52.6%)"/><stop offset="100%" stop-color="hsl(213.0 41.0% 15.2%)"/></linearGradient><radialGradient id="gwjeji0-vig" cx="50%" cy="42%" r="75%"><stop offset="70%" stop-color="hsl(0 0% 0% / 0)"/><stop offset="100%" stop-color="hsl(0 0% 0% / 0.18)"/></radialGradient></defs><rect width="1600" height="453.0" fill="url(#gwjeji0-sky)"/><rect y="452.0" width="1600" height="448.0" fill="hsl(167.5 41.3% 34.0%)"/><circle cx="725.7" cy="339.8" r="150" fill="url(#gwjeji0-glow)"/><circle cx="725.7" cy="339.8" r="56" fill="hsl(42.0 90.0% 78.0%)"/><path d="M0 900 L0 347.6 Q0.0 347.6 38.1 336.6 Q76.2 325.7 114.3 319.7 Q152.4 313.7 190.5 344.7 Q228.6 375.7 266.7 389.4 Q304.8 403.1 342.9 401.5 Q381.0 399.9 419.0 395.4 Q457.1 390.8 495.2 407.6 Q533.3 424.3 571.4 422.8 Q609.5 421.2 647.6 369.2 Q685.7 317.1 723.8 295.1 Q761.9 273.0 800.0 278.4 Q838.1 283.9 876.2 286.4 Q914.3 288.9 952.4 269.9 Q990.5 251.0 1028.6 290.8 Q1066.7 330.6 1104.8 371.8 Q1142.9 413.1 1181.0 443.5 Q1219.0 473.9 1257.1 454.1 Q1295.2 434.4 1333.3 420.3 Q1371.4 406.2 1409.5 397.6 Q1447.6 389.0 1485.7 361.8 Q1523.8 334.6 1561.9 304.3 L1600 274.0 L1600 900 Z" fill="hsl(77.4 54.5% 63.7%)"/><path d="M0 900 L0 447.2 Q0.0 447.2 47.1 457.6 Q94.1 468.0 141.2 487.0 Q188.2 506.0 235.3 539.8 Q282.4 573.6 329.4 569.0 Q376.5 564.5 423.5 557.4 Q470.6 550.4 517.6 545.6 Q564.7 540.9 611.8 519.1 Q658.8 497.4 705.9 501.7 Q752.9 506.0 800.0 506.6 Q847.1 507.3 894.1 493.8 Q941.2 480.3 988.2 485.6 Q1035.3 491.0 1082.4 502.4 Q1129.4 513.9 1176.5 516.0 Q1223.5 518.0 1270.6 539.4 Q1317.6 560.7 1364.7 564.2 Q1411.8 567.6 1458.8 551.4 Q1505.9 535.1 1552.9 514.9 L1600 494.7 L1600 900 Z" fill="hsl(110.5 49.6% 52.8%)"/><path d="M0 900 L0 643.0 Q0.0 643.0 40.0 663.3 Q80.0 683.7 120.0 689.5 Q160.0 695.3 200.0 687.2 Q240.0 679.0 280.0 676.6 Q320.0 674.2 360.0 658.3 Q400.0 642.5 440.0 625.7 Q480.0 608.8 520.0 620.4 Q560.0 632.0 600.0 630.4 Q640.0 628.8 680.0 625.3 Q720.0 621.9 760.0 631.7 Q800.0 641.5 840.0 630.1 Q880.0 618.7 920.0 614.5 Q960.0 610.4 1000.0 623.4 Q1040.0 636.5 1080.0 637.5 Q1120.0 638.5 1160.0 653.7 Q1200.0 668.8 1240.0 685.5 Q1280.0 702.1 1320.0 702.3 Q1360.0 702.5 1400.0 691.0 Q1440.0 679.4 1480.0 668.9 Q1520.0 658.4 1560.0 644.6 L1600 630.8 L1600 900 Z" fill="hsl(210.0 35.0% 20.0%)"/><rect y="453.0" width="1600" height="447.0" fill="url(#gwjeji0-water)"/><g><rect x="768.1" y="467.5" width="35.0" height="3.2" rx="1.6" fill="hsl(42.0 90.0% 78.0% / 0.564)"/><rect x="782.3" y="496.2" width="25.6" height="3.2" rx="1.6" fill="hsl(42.0 90.0% 78.0% / 0.532)"/><rect x="813.2" y="515.5" width="33.3" height="3.2" rx="1.6" fill="hsl(42.0 90.0% 78.0% / 0.510)"/><rect x="757.7" y="535.3" width="24.9" height="3.2" rx="1.6" fill="hsl(42.0 90.0% 78.0% / 0.488)"/><rect x="780.1" y="561.6" width="23.9" height="3.2" rx="1.6" fill="hsl(42.0 90.0% 78.0% / 0.459)"/><rect x="806.8" y="583.4" width="36.7" height="3.2" rx="1.6" fill="hsl(42.0 90.0% 78.0% / 0.434)"/><rect x="718.1" y="604.6" width="77.8" height="3.2" rx="1.6" fill="hsl(42.0 90.0% 78.0% / 0.410)"/><rect x="768.5" y="627.9" width="54.3" height="3.2" rx="1.6" fill="hsl(42.0 90.0% 78.0% / 0.384)"/><rect x="746.1" y="649.1" width="73.2" height="3.2" rx="1.6" fill="hsl(42.0 90.0% 78.0% / 0.361)"/><rect x="738.9" y="665.1" width="67.7" height="3.2" rx="1.6" fill="hsl(42.0 90.0% 78.0% / 0.343)"/><rect x="755.3" y="693.9" width="90.3" height="3.2" rx="1.6" fill="hsl(42.0 90.0% 78.0% / 0.311)"/><rect x="747.8" y="711.8" width="35.0" height="3.2" rx="1.6" fill="hsl(42.0 90.0% 78.0% / 0.291)"/><rect x="774.1" y="735.1" width="107.1" height="3.2" rx="1.6" fill="hsl(42.0 90.0% 78.0% / 0.264)"/><rect x="737.9" y="759.4" width="117.1" height="3.2" rx="1.6" fill="hsl(42.0 90.0% 78.0% / 0.237)"/><rect x="824.8" y="774.5" width="62.2" height="3.2" rx="1.6" fill="hsl(42.0 90.0% 78.0% / 0.220)"/><rect x="727.2" y="802.5" width="33.8" height="3.2" rx="1.6" fill="hsl(42.0 90.0% 78.0% / 0.189)"/><rect x="722.6" y="825.8" width="65.5" height="3.2" rx="1.6" fill="hsl(42.0 90.0% 78.0% / 0.163)"/><rect x="738.0" y="842.8" width="67.1" height="3.2" rx="1.6" fill="hsl(42.0 90.0% 78.0% / 0.144)"/><rect x="687.6" y="869.2" width="71.3" height="3.2" rx="1.6" fill="hsl(42.0 90.0% 78.0% / 0.114)"/></g><rect width="1600" height="900" fill="url(#gwjeji0-vig)"/></svg>