<svg xmlns="http://www.w3.org/2000/svg" viewBox="0 0 1600 900" role="img" preserveAspectRatio="xMidYMid slice"><title>luang-prabang-bac-lao hero</title><defs><linearGradient id="g14v4sws-sky" x1="0" y1="0" x2="0" y2="1"><stop offset="0%" stop-color="hsl(206.0 48.0% 56.0%)"/><stop offset="50%" stop-color="hsl(192.0 40.0% 70.0%)"/><stop offset="100%" stop-color="hsl(42.0 55.0% 76.0%)"/></linearGradient><radialGradient id="g14v4sws-glow"><stop offset="0%" stop-color="hsl(44.0 85.0% 78.0% / 0.850)"/><stop offset="45%" stop-color="hsl(44.0 85.0% 78.0% / 0.250)"/><stop offset="100%" stop-color="hsl(44.0 85.0% 78.0% / 0.000)"/></radialGradient><linearGradient id="g14v4sws-water" x1="0" y1="0" x2="0" y2="1"><stop offset="0%" stop-color="hsl(117.6 48.3% 52.6%)"/><stop offset="100%" stop-color="hsl(209.0 38.2% 16.0%)"/></linearGradient><radialGradient id="g14v4sws-vig" cx="50%" cy="42%" r="75%"><stop offset="70%" stop-color="hsl(0 0% 0% / 0)"/><stop offset="100%" stop-color="hsl(0 0% 0% / 0.18)"/></radialGradient></defs><rect width="1600" height="436.8" fill="url(#g14v4sws-sky)"/><rect y="435.8" width="1600" height="464.2" fill="hsl(160.5 34.8% 35.5%)"/><circle cx="414.2" cy="297.0" r="130" fill="url(#g14v4sws-glow)"/><circle cx="414.2" cy="297.0" r="52" fill="hsl(44.0 85.0% 78.0%)"/><path d="M0 900 L0 339.7 Q0.0 339.7 38.1 316.6 Q76.2 293.5 114.3 250.8 Q152.4 208.1 190.5 221.1 Q228.6 234.2 266.7 264.9 Q304.8 295.7 342.9 317.2 Q381.0 338.7 419.0 355.7 Q457.1 372.8 495.2 408.1 Q533.3 443.3 571.4 440.1 Q609.5 437.0 647.6 393.4 Q685.7 349.8 723.8 342.6 Q761.9 335.4 800.0 342.5 Q838.1 349.5 876.2 340.6 Q914.3 331.6 952.4 325.9 Q990.5 320.1 1028.6 308.7 Q1066.7 297.3 1104.8 293.4 Q1142.9 289.5 1181.0 265.3 Q1219.0 241.0 1257.1 247.0 Q1295.2 253.1 1333.3 300.8 Q1371.4 348.5 1409.5 371.6 Q1447.6 394.8 1485.7 403.9 Q1523.8 413.1 1561.9 427.2 L1600 441.2 L1600 900 Z" fill="hsl(76.8 49.1% 64.1%)"/><path d="M0 900 L0 390.6 Q0.0 390.6 53.3 433.1 Q106.7 475.6 160.0 498.4 Q213.3 521.1 266.7 515.5 Q320.0 509.8 373.3 498.2 Q426.7 486.5 480.0 449.9 Q533.3 413.2 586.7 399.2 Q640.0 385.2 693.3 396.2 Q746.7 407.1 800.0 410.2 Q853.3 413.3 906.7 424.2 Q960.0 435.1 1013.3 438.8 Q1066.7 442.4 1120.0 445.6 Q1173.3 448.8 1226.7 474.7 Q1280.0 500.6 1333.3 513.4 Q1386.7 526.2 1440.0 499.0 Q1493.3 471.7 1546.7 451.8 L1600 431.9 L1600 900 Z" fill="hsl(90.5 46.7% 59.4%)"/><path d="M0 900 L0 603.6 Q0.0 603.6 44.4 598.1 Q88.9 592.5 133.3 577.8 Q177.8 563.2 222.2 544.5 Q266.7 525.7 311.1 541.5 Q355.6 557.2 400.0 549.2 Q444.4 541.2 488.9 538.9 Q533.3 536.7 577.8 525.9 Q622.2 515.2 666.7 507.3 Q711.1 499.5 755.6 525.6 Q800.0 551.7 844.4 555.1 Q888.9 558.5 933.3 570.1 Q977.8 581.8 1022.2 573.2 Q1066.7 564.7 1111.1 567.1 Q1155.6 569.6 1200.0 583.8 Q1244.4 598.1 1288.9 594.3 Q1333.3 590.6 1377.8 593.4 Q1422.2 596.2 1466.7 571.5 Q1511.1 546.7 1555.6 543.3 L1600 539.8 L1600 900 Z" fill="hsl(131.5 39.7% 45.4%)"/><path d="M0 900 L0 687.6 Q0.0 687.6 57.1 680.7 Q114.3 673.9 171.4 653.5 Q228.6 633.1 285.7 632.4 Q342.9 631.7 400.0 625.3 Q457.1 618.9 514.3 624.6 Q571.4 630.2 628.6 637.5 Q685.7 644.8 742.9 644.2 Q800.0 643.5 857.1 650.0 Q914.3 656.6 971.4 657.7 Q1028.6 658.9 1085.7 674.7 Q1142.9 690.6 1200.0 678.9 Q1257.1 667.3 1314.3 660.1 Q1371.4 652.8 1428.6 628.7 Q1485.7 604.6 1542.9 611.9 L1600 619.1 L1600 900 Z" fill="hsl(200.0 28.0% 22.0%)"/><rect y="436.8" width="1600" height="463.2" fill="url(#g14v4sws-water)"/><g><rect x="774.2" y="451.5" width="23.8" height="3.2" rx="1.6" fill="hsl(44.0 85.0% 78.0% / 0.564)"/><rect x="792.1" y="479.3" width="53.7" height="3.2" rx="1.6" fill="hsl(44.0 85.0% 78.0% / 0.534)"/><rect x="776.2" y="498.0" width="28.7" height="3.2" rx="1.6" fill="hsl(44.0 85.0% 78.0% / 0.514)"/><rect x="815.2" y="518.0" width="29.4" height="3.2" rx="1.6" fill="hsl(44.0 85.0% 78.0% / 0.492)"/><rect x="771.4" y="541.0" width="52.9" height="3.2" rx="1.6" fill="hsl(44.0 85.0% 78.0% / 0.468)"/><rect x="796.8" y="566.3" width="33.8" height="3.2" rx="1.6" fill="hsl(44.0 85.0% 78.0% / 0.440)"/><rect x="732.0" y="583.8" width="65.0" height="3.2" rx="1.6" fill="hsl(44.0 85.0% 78.0% / 0.421)"/><rect x="802.9" y="606.6" width="27.8" height="3.2" rx="1.6" fill="hsl(44.0 85.0% 78.0% / 0.397)"/><rect x="771.1" y="625.2" width="17.7" height="3.2" rx="1.6" fill="hsl(44.0 85.0% 78.0% / 0.377)"/><rect x="794.4" y="651.6" width="60.4" height="3.2" rx="1.6" fill="hsl(44.0 85.0% 78.0% / 0.348)"/><rect x="783.7" y="670.6" width="26.6" height="3.2" rx="1.6" fill="hsl(44.0 85.0% 78.0% / 0.328)"/><rect x="732.0" y="695.1" width="98.1" height="3.2" rx="1.6" fill="hsl(44.0 85.0% 78.0% / 0.301)"/><rect x="795.2" y="711.6" width="57.5" height="3.2" rx="1.6" fill="hsl(44.0 85.0% 78.0% / 0.283)"/><rect x="730.4" y="732.6" width="21.5" height="3.2" rx="1.6" fill="hsl(44.0 85.0% 78.0% / 0.261)"/><rect x="822.5" y="755.8" width="84.1" height="3.2" rx="1.6" fill="hsl(44.0 85.0% 78.0% / 0.236)"/><rect x="680.6" y="779.5" width="121.2" height="3.2" rx="1.6" fill="hsl(44.0 85.0% 78.0% / 0.210)"/><rect x="701.1" y="798.7" width="105.8" height="3.2" rx="1.6" fill="hsl(44.0 85.0% 78.0% / 0.189)"/><rect x="705.0" y="824.4" width="65.8" height="3.2" rx="1.6" fill="hsl(44.0 85.0% 78.0% / 0.162)"/><rect x="732.6" y="844.8" width="50.1" height="3.2" rx="1.6" fill="hsl(44.0 85.0% 78.0% / 0.140)"/><rect x="814.8" y="867.1" width="122.1" height="3.2" rx="1.6" fill="hsl(44.0 85.0% 78.0% / 0.116)"/></g><rect width="1600" height="900" fill="url(#g14v4sws-vig)"/></svg>