<svg xmlns="http://www.w3.org/2000/svg" viewBox="0 0 1600 900" role="img" preserveAspectRatio="xMidYMid slice"><title>luang-prabang-bac-lao s2</title><defs><linearGradient id="g3owc6p-sky" x1="0" y1="0" x2="0" y2="1"><stop offset="0%" stop-color="hsl(265.0 38.0% 26.0%)"/><stop offset="50%" stop-color="hsl(348.0 55.0% 46.0%)"/><stop offset="100%" stop-color="hsl(22.0 90.0% 58.0%)"/></linearGradient><radialGradient id="g3owc6p-glow"><stop offset="0%" stop-color="hsl(24.0 95.0% 66.0% / 0.850)"/><stop offset="45%" stop-color="hsl(24.0 95.0% 66.0% / 0.250)"/><stop offset="100%" stop-color="hsl(24.0 95.0% 66.0% / 0.000)"/></radialGradient><radialGradient id="g3owc6p-vig" cx="50%" cy="42%" r="75%"><stop offset="70%" stop-color="hsl(0 0% 0% / 0)"/><stop offset="100%" stop-color="hsl(0 0% 0% / 0.18)"/></radialGradient></defs><rect width="1600" height="571.0" fill="url(#g3owc6p-sky)"/><rect y="570.0" width="1600" height="330.0" fill="hsl(305.5 43.5% 25.0%)"/><circle cx="1139.9" cy="502.5" r="230" fill="url(#g3owc6p-glow)"/><circle cx="1139.9" cy="502.5" r="78" fill="hsl(24.0 95.0% 66.0%)"/><path d="M0 900 L0 282.7 Q0.0 282.7 47.1 355.5 Q94.1 428.4 141.2 456.1 Q188.2 483.7 235.3 506.2 Q282.4 528.7 329.4 546.9 Q376.5 565.2 423.5 511.0 Q470.6 456.8 517.6 443.3 Q564.7 429.8 611.8 390.0 Q658.8 350.2 705.9 375.9 Q752.9 401.6 800.0 400.6 Q847.1 399.6 894.1 393.6 Q941.2 387.5 988.2 382.2 Q1035.3 376.8 1082.4 378.4 Q1129.4 379.9 1176.5 425.8 Q1223.5 471.7 1270.6 520.3 Q1317.6 568.9 1364.7 542.9 Q1411.8 517.0 1458.8 498.2 Q1505.9 479.4 1552.9 423.6 L1600 367.8 L1600 900 Z" fill="hsl(359.6 76.4% 48.3%)"/><path d="M0 900 L0 392.7 Q0.0 392.7 42.1 410.3 Q84.2 427.8 126.3 427.4 Q168.4 426.9 210.5 428.8 Q252.6 430.6 294.7 455.1 Q336.8 479.5 378.9 443.3 Q421.1 407.1 463.2 436.5 Q505.3 465.9 547.4 515.4 Q589.5 565.0 631.6 571.2 Q673.7 577.5 715.8 604.6 Q757.9 631.7 800.0 597.7 Q842.1 563.7 884.2 505.6 Q926.3 447.6 968.4 443.6 Q1010.5 439.6 1052.6 418.6 Q1094.7 397.6 1136.8 390.9 Q1178.9 384.1 1221.1 412.2 Q1263.2 440.2 1305.3 445.9 Q1347.4 451.7 1389.5 441.9 Q1431.6 432.1 1473.7 435.9 Q1515.8 439.8 1557.9 458.7 L1600 477.7 L1600 900 Z" fill="hsl(354.6 73.3% 46.2%)"/><path d="M0 900 L0 561.9 Q0.0 561.9 50.0 567.4 Q100.0 572.8 150.0 556.7 Q200.0 540.6 250.0 514.0 Q300.0 487.5 350.0 498.7 Q400.0 509.8 450.0 494.4 Q500.0 479.0 550.0 493.0 Q600.0 507.0 650.0 517.5 Q700.0 527.9 750.0 561.4 Q800.0 594.8 850.0 635.8 Q900.0 676.8 950.0 633.3 Q1000.0 589.8 1050.0 576.1 Q1100.0 562.3 1150.0 509.3 Q1200.0 456.3 1250.0 442.7 Q1300.0 429.1 1350.0 457.2 Q1400.0 485.2 1450.0 509.8 Q1500.0 534.5 1550.0 560.4 L1600 586.3 L1600 900 Z" fill="hsl(339.7 64.3% 39.7%)"/><path d="M0 900 L0 648.1 Q0.0 648.1 47.1 637.6 Q94.1 627.2 141.2 633.6 Q188.2 640.1 235.3 634.7 Q282.4 629.3 329.4 620.8 Q376.5 612.4 423.5 607.5 Q470.6 602.6 517.6 605.2 Q564.7 607.8 611.8 611.4 Q658.8 614.9 705.9 634.7 Q752.9 654.4 800.0 670.6 Q847.1 686.8 894.1 693.8 Q941.2 700.7 988.2 699.3 Q1035.3 697.8 1082.4 687.7 Q1129.4 677.6 1176.5 647.1 Q1223.5 616.7 1270.6 604.8 Q1317.6 592.9 1364.7 591.7 Q1411.8 590.5 1458.8 596.8 Q1505.9 603.1 1552.9 600.9 L1600 598.7 L1600 900 Z" fill="hsl(314.8 49.2% 29.0%)"/><path d="M0 900 L0 637.4 Q0.0 637.4 40.0 642.1 Q80.0 646.7 120.0 640.2 Q160.0 633.6 200.0 658.8 Q240.0 684.0 280.0 693.5 Q320.0 703.0 360.0 704.3 Q400.0 705.6 440.0 719.9 Q480.0 734.2 520.0 722.6 Q560.0 711.0 600.0 712.0 Q640.0 713.1 680.0 724.8 Q720.0 736.5 760.0 720.2 Q800.0 704.0 840.0 708.1 Q880.0 712.2 920.0 694.2 Q960.0 676.2 1000.0 664.9 Q1040.0 653.6 1080.0 654.4 Q1120.0 655.3 1160.0 647.3 Q1200.0 639.3 1240.0 651.6 Q1280.0 663.9 1320.0 674.7 Q1360.0 685.5 1400.0 682.1 Q1440.0 678.7 1480.0 686.9 Q1520.0 695.1 1560.0 686.5 L1600 677.9 L1600 900 Z" fill="hsl(280.0 28.0% 14.0%)"/><path d="M449.4 900 C250.2 737.5227946005762 723.4 645.0 729.4 575.0 L731.4 575.0 C739.4 645.0 762.2 737.5227946005762 961.4 900 Z" fill="hsl(280.0 15.4% 21.0%)"/><path d="M705.4 900 C506.2 737.5227946005762 729.4 635.0 730.4 575.0" fill="none" stroke="hsl(45 30% 92% / 0.8)" stroke-width="7" stroke-dasharray="46 38" stroke-linecap="round"/><rect width="1600" height="900" fill="url(#g3owc6p-vig)"/></svg>