<svg xmlns="http://www.w3.org/2000/svg" viewBox="0 0 1600 900" role="img" preserveAspectRatio="xMidYMid slice"><title>luang-prabang-bac-lao s1</title><defs><linearGradient id="gvsj1n8-sky" x1="0" y1="0" x2="0" y2="1"><stop offset="0%" stop-color="hsl(206.0 48.0% 56.0%)"/><stop offset="50%" stop-color="hsl(192.0 40.0% 70.0%)"/><stop offset="100%" stop-color="hsl(42.0 55.0% 76.0%)"/></linearGradient><radialGradient id="gvsj1n8-glow"><stop offset="0%" stop-color="hsl(44.0 85.0% 78.0% / 0.850)"/><stop offset="45%" stop-color="hsl(44.0 85.0% 78.0% / 0.250)"/><stop offset="100%" stop-color="hsl(44.0 85.0% 78.0% / 0.000)"/></radialGradient><linearGradient id="gvsj1n8-water" x1="0" y1="0" x2="0" y2="1"><stop offset="0%" stop-color="hsl(117.6 48.3% 52.6%)"/><stop offset="100%" stop-color="hsl(209.0 38.2% 16.0%)"/></linearGradient><radialGradient id="gvsj1n8-vig" cx="50%" cy="42%" r="75%"><stop offset="70%" stop-color="hsl(0 0% 0% / 0)"/><stop offset="100%" stop-color="hsl(0 0% 0% / 0.18)"/></radialGradient></defs><rect width="1600" height="462.3" fill="url(#gvsj1n8-sky)"/><rect y="461.3" width="1600" height="438.7" fill="hsl(160.5 34.8% 35.5%)"/><circle cx="1003.4" cy="314.4" r="130" fill="url(#gvsj1n8-glow)"/><circle cx="1003.4" cy="314.4" r="52" fill="hsl(44.0 85.0% 78.0%)"/><path d="M0 900 L0 290.2 Q0.0 290.2 53.3 299.8 Q106.7 309.4 160.0 293.3 Q213.3 277.2 266.7 301.3 Q320.0 325.4 373.3 388.1 Q426.7 450.8 480.0 461.0 Q533.3 471.3 586.7 432.0 Q640.0 392.7 693.3 354.8 Q746.7 316.9 800.0 296.7 Q853.3 276.5 906.7 285.7 Q960.0 294.8 1013.3 317.2 Q1066.7 339.6 1120.0 325.9 Q1173.3 312.2 1226.7 332.5 Q1280.0 352.7 1333.3 397.4 Q1386.7 442.2 1440.0 438.9 Q1493.3 435.6 1546.7 410.5 L1600 385.3 L1600 900 Z" fill="hsl(76.8 49.1% 64.1%)"/><path d="M0 900 L0 451.0 Q0.0 451.0 44.4 452.1 Q88.9 453.2 133.3 457.0 Q177.8 460.8 222.2 466.8 Q266.7 472.8 311.1 491.2 Q355.6 509.6 400.0 500.5 Q444.4 491.4 488.9 495.2 Q533.3 499.1 577.8 506.3 Q622.2 513.6 666.7 519.6 Q711.1 525.6 755.6 553.5 Q800.0 581.5 844.4 581.8 Q888.9 582.0 933.3 573.0 Q977.8 564.1 1022.2 552.4 Q1066.7 540.6 1111.1 517.7 Q1155.6 494.7 1200.0 500.2 Q1244.4 505.6 1288.9 510.0 Q1333.3 514.5 1377.8 502.5 Q1422.2 490.5 1466.7 494.5 Q1511.1 498.4 1555.6 471.7 L1600 444.9 L1600 900 Z" fill="hsl(107.6 43.8% 53.6%)"/><path d="M0 900 L0 631.6 Q0.0 631.6 38.1 645.4 Q76.2 659.2 114.3 665.0 Q152.4 670.8 190.5 683.5 Q228.6 696.2 266.7 680.5 Q304.8 664.8 342.9 655.7 Q381.0 646.6 419.0 655.3 Q457.1 664.0 495.2 658.7 Q533.3 653.4 571.4 656.2 Q609.5 659.0 647.6 655.4 Q685.7 651.7 723.8 626.0 Q761.9 600.3 800.0 595.3 Q838.1 590.2 876.2 598.0 Q914.3 605.7 952.4 611.2 Q990.5 616.7 1028.6 637.8 Q1066.7 658.8 1104.8 659.2 Q1142.9 659.6 1181.0 654.9 Q1219.0 650.1 1257.1 657.2 Q1295.2 664.4 1333.3 660.7 Q1371.4 657.0 1409.5 666.7 Q1447.6 676.3 1485.7 684.6 Q1523.8 692.9 1561.9 677.9 L1600 662.9 L1600 900 Z" fill="hsl(200.0 28.0% 22.0%)"/><rect y="462.3" width="1600" height="437.7" fill="url(#gvsj1n8-water)"/><g><rect x="803.3" y="479.8" width="39.3" height="3.2" rx="1.6" fill="hsl(44.0 85.0% 78.0% / 0.560)"/><rect x="785.0" y="499.7" width="20.5" height="3.2" rx="1.6" fill="hsl(44.0 85.0% 78.0% / 0.537)"/><rect x="758.6" y="522.9" width="41.4" height="3.2" rx="1.6" fill="hsl(44.0 85.0% 78.0% / 0.511)"/><rect x="751.3" y="541.2" width="53.0" height="3.2" rx="1.6" fill="hsl(44.0 85.0% 78.0% / 0.490)"/><rect x="799.5" y="557.2" width="43.2" height="3.2" rx="1.6" fill="hsl(44.0 85.0% 78.0% / 0.472)"/><rect x="761.7" y="580.7" width="47.5" height="3.2" rx="1.6" fill="hsl(44.0 85.0% 78.0% / 0.445)"/><rect x="781.3" y="599.2" width="19.0" height="3.2" rx="1.6" fill="hsl(44.0 85.0% 78.0% / 0.424)"/><rect x="800.5" y="614.9" width="20.8" height="3.2" rx="1.6" fill="hsl(44.0 85.0% 78.0% / 0.406)"/><rect x="818.0" y="639.0" width="27.5" height="3.2" rx="1.6" fill="hsl(44.0 85.0% 78.0% / 0.378)"/><rect x="775.8" y="655.8" width="36.3" height="3.2" rx="1.6" fill="hsl(44.0 85.0% 78.0% / 0.359)"/><rect x="753.5" y="673.7" width="67.5" height="3.2" rx="1.6" fill="hsl(44.0 85.0% 78.0% / 0.339)"/><rect x="795.8" y="692.0" width="96.4" height="3.2" rx="1.6" fill="hsl(44.0 85.0% 78.0% / 0.318)"/><rect x="773.2" y="711.7" width="70.5" height="3.2" rx="1.6" fill="hsl(44.0 85.0% 78.0% / 0.295)"/><rect x="816.1" y="732.1" width="35.8" height="3.2" rx="1.6" fill="hsl(44.0 85.0% 78.0% / 0.272)"/><rect x="774.5" y="749.6" width="39.3" height="3.2" rx="1.6" fill="hsl(44.0 85.0% 78.0% / 0.252)"/><rect x="708.0" y="773.3" width="109.0" height="3.2" rx="1.6" fill="hsl(44.0 85.0% 78.0% / 0.225)"/><rect x="730.6" y="788.3" width="72.6" height="3.2" rx="1.6" fill="hsl(44.0 85.0% 78.0% / 0.208)"/><rect x="742.5" y="809.5" width="42.7" height="3.2" rx="1.6" fill="hsl(44.0 85.0% 78.0% / 0.183)"/><rect x="702.9" y="832.8" width="36.3" height="3.2" rx="1.6" fill="hsl(44.0 85.0% 78.0% / 0.157)"/><rect x="744.6" y="851.1" width="63.4" height="3.2" rx="1.6" fill="hsl(44.0 85.0% 78.0% / 0.136)"/><rect x="734.1" y="865.6" width="122.5" height="3.2" rx="1.6" fill="hsl(44.0 85.0% 78.0% / 0.119)"/></g><rect width="1600" height="900" fill="url(#gvsj1n8-vig)"/></svg>