<svg xmlns="http://www.w3.org/2000/svg" viewBox="0 0 1600 900" role="img" preserveAspectRatio="xMidYMid slice"><title>ho-tram-ho-coc-ven-bien hero</title><defs><linearGradient id="g1h5b0ns-sky" x1="0" y1="0" x2="0" y2="1"><stop offset="0%" stop-color="hsl(208.0 60.0% 52.0%)"/><stop offset="50%" stop-color="hsl(196.0 50.0% 66.0%)"/><stop offset="100%" stop-color="hsl(40.0 60.0% 76.0%)"/></linearGradient><radialGradient id="g1h5b0ns-glow"><stop offset="0%" stop-color="hsl(42.0 90.0% 78.0% / 0.850)"/><stop offset="45%" stop-color="hsl(42.0 90.0% 78.0% / 0.250)"/><stop offset="100%" stop-color="hsl(42.0 90.0% 78.0% / 0.000)"/></radialGradient><linearGradient id="g1h5b0ns-water" x1="0" y1="0" x2="0" y2="1"><stop offset="0%" stop-color="hsl(116.5 51.0% 52.6%)"/><stop offset="100%" stop-color="hsl(213.0 41.0% 15.2%)"/></linearGradient><radialGradient id="g1h5b0ns-vig" cx="50%" cy="42%" r="75%"><stop offset="70%" stop-color="hsl(0 0% 0% / 0)"/><stop offset="100%" stop-color="hsl(0 0% 0% / 0.18)"/></radialGradient></defs><rect width="1600" height="462.1" fill="url(#g1h5b0ns-sky)"/><rect y="461.1" width="1600" height="438.9" fill="hsl(167.5 41.3% 34.0%)"/><circle cx="471.8" cy="346.6" r="150" fill="url(#g1h5b0ns-glow)"/><circle cx="471.8" cy="346.6" r="56" fill="hsl(42.0 90.0% 78.0%)"/><path d="M0 900 L0 419.1 Q0.0 419.1 42.1 449.0 Q84.2 478.9 126.3 457.2 Q168.4 435.5 210.5 411.8 Q252.6 388.2 294.7 387.6 Q336.8 387.0 378.9 358.1 Q421.1 329.3 463.2 337.5 Q505.3 345.7 547.4 360.7 Q589.5 375.8 631.6 334.3 Q673.7 292.7 715.8 277.4 Q757.9 262.1 800.0 283.9 Q842.1 305.7 884.2 314.2 Q926.3 322.7 968.4 359.5 Q1010.5 396.3 1052.6 416.2 Q1094.7 436.1 1136.8 433.5 Q1178.9 430.9 1221.1 427.2 Q1263.2 423.5 1305.3 402.6 Q1347.4 381.8 1389.5 383.9 Q1431.6 386.1 1473.7 416.6 Q1515.8 447.0 1557.9 421.5 L1600 395.9 L1600 900 Z" fill="hsl(77.4 54.5% 63.7%)"/><path d="M0 900 L0 493.8 Q0.0 493.8 40.0 497.3 Q80.0 500.9 120.0 476.6 Q160.0 452.3 200.0 482.8 Q240.0 513.3 280.0 524.3 Q320.0 535.2 360.0 545.0 Q400.0 554.7 440.0 566.4 Q480.0 578.2 520.0 565.3 Q560.0 552.4 600.0 539.9 Q640.0 527.4 680.0 534.5 Q720.0 541.5 760.0 545.0 Q800.0 548.5 840.0 550.5 Q880.0 552.4 920.0 534.5 Q960.0 516.6 1000.0 481.4 Q1040.0 446.3 1080.0 449.6 Q1120.0 452.9 1160.0 451.5 Q1200.0 450.1 1240.0 464.8 Q1280.0 479.4 1320.0 496.2 Q1360.0 512.9 1400.0 485.5 Q1440.0 458.1 1480.0 471.4 Q1520.0 484.8 1560.0 496.6 L1600 508.4 L1600 900 Z" fill="hsl(110.5 49.6% 52.8%)"/><path d="M0 900 L0 676.6 Q0.0 676.6 53.3 664.6 Q106.7 652.6 160.0 650.9 Q213.3 649.3 266.7 643.3 Q320.0 637.3 373.3 639.0 Q426.7 640.8 480.0 643.7 Q533.3 646.6 586.7 642.1 Q640.0 637.7 693.3 653.9 Q746.7 670.1 800.0 680.6 Q853.3 691.0 906.7 688.2 Q960.0 685.4 1013.3 681.6 Q1066.7 677.9 1120.0 653.3 Q1173.3 628.8 1226.7 623.1 Q1280.0 617.4 1333.3 623.3 Q1386.7 629.2 1440.0 641.2 Q1493.3 653.1 1546.7 675.8 L1600 698.5 L1600 900 Z" fill="hsl(210.0 35.0% 20.0%)"/><rect y="462.1" width="1600" height="437.9" fill="url(#g1h5b0ns-water)"/><g><rect x="777.3" y="477.2" width="46.0" height="3.2" rx="1.6" fill="hsl(42.0 90.0% 78.0% / 0.563)"/><rect x="776.8" y="492.8" width="28.9" height="3.2" rx="1.6" fill="hsl(42.0 90.0% 78.0% / 0.545)"/><rect x="762.5" y="516.6" width="33.2" height="3.2" rx="1.6" fill="hsl(42.0 90.0% 78.0% / 0.518)"/><rect x="780.5" y="530.2" width="42.0" height="3.2" rx="1.6" fill="hsl(42.0 90.0% 78.0% / 0.502)"/><rect x="751.9" y="545.4" width="41.3" height="3.2" rx="1.6" fill="hsl(42.0 90.0% 78.0% / 0.485)"/><rect x="766.5" y="559.4" width="26.8" height="3.2" rx="1.6" fill="hsl(42.0 90.0% 78.0% / 0.469)"/><rect x="809.6" y="578.0" width="47.0" height="3.2" rx="1.6" fill="hsl(42.0 90.0% 78.0% / 0.448)"/><rect x="795.6" y="594.0" width="20.3" height="3.2" rx="1.6" fill="hsl(42.0 90.0% 78.0% / 0.429)"/><rect x="781.0" y="611.1" width="22.2" height="3.2" rx="1.6" fill="hsl(42.0 90.0% 78.0% / 0.410)"/><rect x="725.3" y="626.3" width="62.3" height="3.2" rx="1.6" fill="hsl(42.0 90.0% 78.0% / 0.392)"/><rect x="825.0" y="644.6" width="38.2" height="3.2" rx="1.6" fill="hsl(42.0 90.0% 78.0% / 0.372)"/><rect x="822.1" y="660.3" width="34.1" height="3.2" rx="1.6" fill="hsl(42.0 90.0% 78.0% / 0.354)"/><rect x="773.4" y="677.5" width="55.8" height="3.2" rx="1.6" fill="hsl(42.0 90.0% 78.0% / 0.334)"/><rect x="813.1" y="691.9" width="36.5" height="3.2" rx="1.6" fill="hsl(42.0 90.0% 78.0% / 0.318)"/><rect x="796.0" y="709.4" width="51.7" height="3.2" rx="1.6" fill="hsl(42.0 90.0% 78.0% / 0.298)"/><rect x="717.1" y="725.1" width="81.1" height="3.2" rx="1.6" fill="hsl(42.0 90.0% 78.0% / 0.280)"/><rect x="763.8" y="740.4" width="76.9" height="3.2" rx="1.6" fill="hsl(42.0 90.0% 78.0% / 0.262)"/><rect x="745.9" y="756.9" width="91.9" height="3.2" rx="1.6" fill="hsl(42.0 90.0% 78.0% / 0.243)"/><rect x="730.0" y="772.3" width="112.4" height="3.2" rx="1.6" fill="hsl(42.0 90.0% 78.0% / 0.226)"/><rect x="804.9" y="790.8" width="87.5" height="3.2" rx="1.6" fill="hsl(42.0 90.0% 78.0% / 0.205)"/><rect x="744.7" y="802.7" width="90.6" height="3.2" rx="1.6" fill="hsl(42.0 90.0% 78.0% / 0.191)"/><rect x="768.9" y="823.0" width="92.5" height="3.2" rx="1.6" fill="hsl(42.0 90.0% 78.0% / 0.168)"/><rect x="757.3" y="840.3" width="113.6" height="3.2" rx="1.6" fill="hsl(42.0 90.0% 78.0% / 0.148)"/><rect x="686.2" y="856.7" width="84.2" height="3.2" rx="1.6" fill="hsl(42.0 90.0% 78.0% / 0.129)"/><rect x="830.9" y="873.9" width="48.3" height="3.2" rx="1.6" fill="hsl(42.0 90.0% 78.0% / 0.110)"/></g><rect width="1600" height="900" fill="url(#g1h5b0ns-vig)"/></svg>