<svg xmlns="http://www.w3.org/2000/svg" viewBox="0 0 1600 900" role="img" preserveAspectRatio="xMidYMid slice"><title>ho-tram-ho-coc-ven-bien s2</title><defs><linearGradient id="g1amtuv1-sky" x1="0" y1="0" x2="0" y2="1"><stop offset="0%" stop-color="hsl(265.0 38.0% 26.0%)"/><stop offset="50%" stop-color="hsl(348.0 55.0% 46.0%)"/><stop offset="100%" stop-color="hsl(22.0 90.0% 58.0%)"/></linearGradient><radialGradient id="g1amtuv1-glow"><stop offset="0%" stop-color="hsl(24.0 95.0% 66.0% / 0.850)"/><stop offset="45%" stop-color="hsl(24.0 95.0% 66.0% / 0.250)"/><stop offset="100%" stop-color="hsl(24.0 95.0% 66.0% / 0.000)"/></radialGradient><radialGradient id="g1amtuv1-vig" cx="50%" cy="42%" r="75%"><stop offset="70%" stop-color="hsl(0 0% 0% / 0)"/><stop offset="100%" stop-color="hsl(0 0% 0% / 0.18)"/></radialGradient></defs><rect width="1600" height="541.6" fill="url(#g1amtuv1-sky)"/><rect y="540.6" width="1600" height="359.4" fill="hsl(305.5 43.5% 25.0%)"/><circle cx="740.7" cy="476.6" r="230" fill="url(#g1amtuv1-glow)"/><circle cx="740.7" cy="476.6" r="78" fill="hsl(24.0 95.0% 66.0%)"/><path d="M0 900 L0 373.4 Q0.0 373.4 53.3 429.1 Q106.7 484.8 160.0 470.6 Q213.3 456.3 266.7 480.6 Q320.0 504.9 373.3 466.8 Q426.7 428.6 480.0 429.1 Q533.3 429.6 586.7 404.7 Q640.0 379.8 693.3 389.5 Q746.7 399.1 800.0 363.2 Q853.3 327.3 906.7 311.2 Q960.0 295.2 1013.3 353.9 Q1066.7 412.6 1120.0 443.2 Q1173.3 473.7 1226.7 506.8 Q1280.0 539.9 1333.3 524.2 Q1386.7 508.6 1440.0 485.7 Q1493.3 462.8 1546.7 392.7 L1600 322.7 L1600 900 Z" fill="hsl(359.6 76.4% 48.3%)"/><path d="M0 900 L0 523.8 Q0.0 523.8 42.1 509.9 Q84.2 496.0 126.3 510.6 Q168.4 525.3 210.5 521.8 Q252.6 518.2 294.7 516.5 Q336.8 514.7 378.9 518.0 Q421.1 521.4 463.2 500.8 Q505.3 480.1 547.4 450.4 Q589.5 420.6 631.6 403.4 Q673.7 386.1 715.8 383.6 Q757.9 381.0 800.0 411.9 Q842.1 442.8 884.2 466.1 Q926.3 489.5 968.4 511.3 Q1010.5 533.0 1052.6 516.7 Q1094.7 500.4 1136.8 506.8 Q1178.9 513.3 1221.1 528.1 Q1263.2 542.9 1305.3 550.3 Q1347.4 557.7 1389.5 562.7 Q1431.6 567.7 1473.7 512.9 Q1515.8 458.1 1557.9 425.1 L1600 392.2 L1600 900 Z" fill="hsl(356.4 74.4% 46.9%)"/><path d="M0 900 L0 590.2 Q0.0 590.2 57.1 573.7 Q114.3 557.2 171.4 566.1 Q228.6 574.9 285.7 585.3 Q342.9 595.7 400.0 587.6 Q457.1 579.5 514.3 548.4 Q571.4 517.3 628.6 485.1 Q685.7 452.9 742.9 467.6 Q800.0 482.3 857.1 501.2 Q914.3 520.1 971.4 525.0 Q1028.6 529.9 1085.7 524.7 Q1142.9 519.6 1200.0 533.3 Q1257.1 547.0 1314.3 586.8 Q1371.4 626.6 1428.6 602.4 Q1485.7 578.1 1542.9 552.3 L1600 526.5 L1600 900 Z" fill="hsl(346.8 68.6% 42.8%)"/><path d="M0 900 L0 626.9 Q0.0 626.9 40.0 609.4 Q80.0 592.0 120.0 573.2 Q160.0 554.5 200.0 558.0 Q240.0 561.4 280.0 551.8 Q320.0 542.2 360.0 541.3 Q400.0 540.4 440.0 562.4 Q480.0 584.4 520.0 577.3 Q560.0 570.2 600.0 563.7 Q640.0 557.2 680.0 571.0 Q720.0 584.8 760.0 577.7 Q800.0 570.6 840.0 586.5 Q880.0 602.4 920.0 614.8 Q960.0 627.3 1000.0 628.3 Q1040.0 629.2 1080.0 648.4 Q1120.0 667.6 1160.0 655.7 Q1200.0 643.8 1240.0 622.6 Q1280.0 601.5 1320.0 590.3 Q1360.0 579.2 1400.0 549.3 Q1440.0 519.3 1480.0 518.2 Q1520.0 517.1 1560.0 530.0 L1600 542.8 L1600 900 Z" fill="hsl(330.9 59.0% 36.0%)"/><path d="M0 900 L0 699.2 Q0.0 699.2 40.0 697.0 Q80.0 694.7 120.0 671.6 Q160.0 648.4 200.0 643.6 Q240.0 638.7 280.0 641.4 Q320.0 644.0 360.0 641.3 Q400.0 638.6 440.0 648.0 Q480.0 657.4 520.0 635.6 Q560.0 613.8 600.0 610.5 Q640.0 607.2 680.0 597.1 Q720.0 587.1 760.0 584.5 Q800.0 581.9 840.0 595.7 Q880.0 609.4 920.0 607.1 Q960.0 604.7 1000.0 625.6 Q1040.0 646.5 1080.0 654.7 Q1120.0 662.8 1160.0 654.0 Q1200.0 645.3 1240.0 659.9 Q1280.0 674.5 1320.0 659.9 Q1360.0 645.3 1400.0 657.8 Q1440.0 670.4 1480.0 673.3 Q1520.0 676.3 1560.0 681.5 L1600 686.6 L1600 900 Z" fill="hsl(308.6 45.4% 26.4%)"/><path d="M0 900 L0 703.7 Q0.0 703.7 38.1 695.6 Q76.2 687.5 114.3 701.0 Q152.4 714.5 190.5 719.0 Q228.6 723.4 266.7 711.7 Q304.8 699.9 342.9 692.0 Q381.0 684.0 419.0 674.9 Q457.1 665.8 495.2 649.0 Q533.3 632.2 571.4 633.9 Q609.5 635.6 647.6 639.5 Q685.7 643.4 723.8 654.8 Q761.9 666.2 800.0 673.4 Q838.1 680.6 876.2 667.3 Q914.3 654.0 952.4 655.7 Q990.5 657.5 1028.6 666.7 Q1066.7 676.0 1104.8 675.6 Q1142.9 675.3 1181.0 691.4 Q1219.0 707.5 1257.1 720.8 Q1295.2 734.1 1333.3 727.0 Q1371.4 719.8 1409.5 720.4 Q1447.6 720.9 1485.7 708.8 Q1523.8 696.6 1561.9 684.6 L1600 672.6 L1600 900 Z" fill="hsl(280.0 28.0% 14.0%)"/><path d="M271.8 900 C242.1 722.8038996411487 627.1 615.6 633.1 545.6 L635.1 545.6 C643.1 615.6 754.1 722.8038996411487 783.8 900 Z" fill="hsl(280.0 15.4% 21.0%)"/><path d="M527.8 900 C498.1 722.8038996411487 633.1 605.6 634.1 545.6" fill="none" stroke="hsl(45 30% 92% / 0.8)" stroke-width="7" stroke-dasharray="46 38" stroke-linecap="round"/><rect width="1600" height="900" fill="url(#g1amtuv1-vig)"/></svg>