<svg xmlns="http://www.w3.org/2000/svg" viewBox="0 0 1600 900" role="img" preserveAspectRatio="xMidYMid slice"><title>ho-tram-ho-coc-ven-bien s1</title><defs><linearGradient id="g8plf9c-sky" x1="0" y1="0" x2="0" y2="1"><stop offset="0%" stop-color="hsl(208.0 60.0% 52.0%)"/><stop offset="50%" stop-color="hsl(196.0 50.0% 66.0%)"/><stop offset="100%" stop-color="hsl(40.0 60.0% 76.0%)"/></linearGradient><radialGradient id="g8plf9c-glow"><stop offset="0%" stop-color="hsl(42.0 90.0% 78.0% / 0.850)"/><stop offset="45%" stop-color="hsl(42.0 90.0% 78.0% / 0.250)"/><stop offset="100%" stop-color="hsl(42.0 90.0% 78.0% / 0.000)"/></radialGradient><linearGradient id="g8plf9c-water" x1="0" y1="0" x2="0" y2="1"><stop offset="0%" stop-color="hsl(116.5 51.0% 52.6%)"/><stop offset="100%" stop-color="hsl(213.0 41.0% 15.2%)"/></linearGradient><radialGradient id="g8plf9c-vig" cx="50%" cy="42%" r="75%"><stop offset="70%" stop-color="hsl(0 0% 0% / 0)"/><stop offset="100%" stop-color="hsl(0 0% 0% / 0.18)"/></radialGradient></defs><rect width="1600" height="479.6" fill="url(#g8plf9c-sky)"/><rect y="478.6" width="1600" height="421.4" fill="hsl(167.5 41.3% 34.0%)"/><circle cx="839.3" cy="359.7" r="150" fill="url(#g8plf9c-glow)"/><circle cx="839.3" cy="359.7" r="56" fill="hsl(42.0 90.0% 78.0%)"/><path d="M0 900 L0 459.0 Q0.0 459.0 47.1 448.9 Q94.1 438.8 141.2 420.7 Q188.2 402.7 235.3 352.0 Q282.4 301.4 329.4 328.8 Q376.5 356.3 423.5 326.9 Q470.6 297.4 517.6 315.9 Q564.7 334.3 611.8 331.9 Q658.8 329.4 705.9 318.7 Q752.9 308.0 800.0 303.2 Q847.1 298.4 894.1 292.9 Q941.2 287.4 988.2 351.4 Q1035.3 415.3 1082.4 424.3 Q1129.4 433.4 1176.5 452.1 Q1223.5 470.9 1270.6 472.6 Q1317.6 474.3 1364.7 436.9 Q1411.8 399.6 1458.8 384.1 Q1505.9 368.5 1552.9 350.5 L1600 332.4 L1600 900 Z" fill="hsl(77.4 54.5% 63.7%)"/><path d="M0 900 L0 551.9 Q0.0 551.9 42.1 537.4 Q84.2 523.0 126.3 498.1 Q168.4 473.2 210.5 471.1 Q252.6 469.1 294.7 456.4 Q336.8 443.7 378.9 459.4 Q421.1 475.1 463.2 479.7 Q505.3 484.4 547.4 442.4 Q589.5 400.5 631.6 406.4 Q673.7 412.3 715.8 408.0 Q757.9 403.7 800.0 422.3 Q842.1 440.9 884.2 464.2 Q926.3 487.6 968.4 495.4 Q1010.5 503.1 1052.6 504.3 Q1094.7 505.4 1136.8 511.0 Q1178.9 516.7 1221.1 512.9 Q1263.2 509.2 1305.3 521.5 Q1347.4 533.7 1389.5 548.7 Q1431.6 563.7 1473.7 534.1 Q1515.8 504.5 1557.9 504.2 L1600 504.0 L1600 900 Z" fill="hsl(92.1 52.3% 58.8%)"/><path d="M0 900 L0 536.0 Q0.0 536.0 50.0 548.6 Q100.0 561.3 150.0 566.5 Q200.0 571.7 250.0 592.0 Q300.0 612.2 350.0 605.1 Q400.0 598.0 450.0 595.0 Q500.0 592.0 550.0 576.3 Q600.0 560.7 650.0 558.3 Q700.0 555.9 750.0 560.5 Q800.0 565.1 850.0 551.6 Q900.0 538.2 950.0 545.3 Q1000.0 552.3 1050.0 560.8 Q1100.0 569.4 1150.0 573.7 Q1200.0 578.0 1250.0 589.6 Q1300.0 601.2 1350.0 607.0 Q1400.0 612.8 1450.0 592.9 Q1500.0 572.9 1550.0 565.8 L1600 558.8 L1600 900 Z" fill="hsl(136.3 45.8% 44.3%)"/><path d="M0 900 L0 634.8 Q0.0 634.8 57.1 622.9 Q114.3 610.9 171.4 613.6 Q228.6 616.4 285.7 632.0 Q342.9 647.6 400.0 671.7 Q457.1 695.9 514.3 694.5 Q571.4 693.1 628.6 683.8 Q685.7 674.5 742.9 660.2 Q800.0 645.9 857.1 650.5 Q914.3 655.1 971.4 644.6 Q1028.6 634.0 1085.7 642.8 Q1142.9 651.6 1200.0 643.4 Q1257.1 635.3 1314.3 642.7 Q1371.4 650.1 1428.6 653.1 Q1485.7 656.1 1542.9 680.4 L1600 704.7 L1600 900 Z" fill="hsl(210.0 35.0% 20.0%)"/><rect y="479.6" width="1600" height="420.4" fill="url(#g8plf9c-water)"/><g><rect x="777.0" y="495.9" width="45.4" height="3.2" rx="1.6" fill="hsl(42.0 90.0% 78.0% / 0.561)"/><rect x="796.0" y="511.9" width="14.4" height="3.2" rx="1.6" fill="hsl(42.0 90.0% 78.0% / 0.542)"/><rect x="806.3" y="529.1" width="44.0" height="3.2" rx="1.6" fill="hsl(42.0 90.0% 78.0% / 0.521)"/><rect x="769.4" y="550.3" width="24.9" height="3.2" rx="1.6" fill="hsl(42.0 90.0% 78.0% / 0.496)"/><rect x="794.3" y="561.4" width="61.0" height="3.2" rx="1.6" fill="hsl(42.0 90.0% 78.0% / 0.483)"/><rect x="757.7" y="581.9" width="20.7" height="3.2" rx="1.6" fill="hsl(42.0 90.0% 78.0% / 0.458)"/><rect x="789.9" y="592.3" width="36.2" height="3.2" rx="1.6" fill="hsl(42.0 90.0% 78.0% / 0.446)"/><rect x="752.4" y="610.0" width="30.7" height="3.2" rx="1.6" fill="hsl(42.0 90.0% 78.0% / 0.425)"/><rect x="808.8" y="628.5" width="53.7" height="3.2" rx="1.6" fill="hsl(42.0 90.0% 78.0% / 0.403)"/><rect x="732.5" y="641.9" width="46.9" height="3.2" rx="1.6" fill="hsl(42.0 90.0% 78.0% / 0.387)"/><rect x="821.3" y="659.7" width="17.8" height="3.2" rx="1.6" fill="hsl(42.0 90.0% 78.0% / 0.366)"/><rect x="787.5" y="680.2" width="78.9" height="3.2" rx="1.6" fill="hsl(42.0 90.0% 78.0% / 0.341)"/><rect x="752.7" y="694.1" width="76.4" height="3.2" rx="1.6" fill="hsl(42.0 90.0% 78.0% / 0.325)"/><rect x="756.2" y="712.7" width="31.8" height="3.2" rx="1.6" fill="hsl(42.0 90.0% 78.0% / 0.303)"/><rect x="706.2" y="726.3" width="77.6" height="3.2" rx="1.6" fill="hsl(42.0 90.0% 78.0% / 0.287)"/><rect x="793.0" y="742.1" width="106.9" height="3.2" rx="1.6" fill="hsl(42.0 90.0% 78.0% / 0.268)"/><rect x="805.7" y="761.7" width="31.7" height="3.2" rx="1.6" fill="hsl(42.0 90.0% 78.0% / 0.245)"/><rect x="736.1" y="776.6" width="45.9" height="3.2" rx="1.6" fill="hsl(42.0 90.0% 78.0% / 0.227)"/><rect x="806.3" y="793.2" width="70.8" height="3.2" rx="1.6" fill="hsl(42.0 90.0% 78.0% / 0.207)"/><rect x="779.4" y="805.8" width="70.1" height="3.2" rx="1.6" fill="hsl(42.0 90.0% 78.0% / 0.192)"/><rect x="838.6" y="824.1" width="72.4" height="3.2" rx="1.6" fill="hsl(42.0 90.0% 78.0% / 0.170)"/><rect x="742.5" y="837.5" width="75.0" height="3.2" rx="1.6" fill="hsl(42.0 90.0% 78.0% / 0.154)"/><rect x="797.7" y="854.8" width="116.9" height="3.2" rx="1.6" fill="hsl(42.0 90.0% 78.0% / 0.134)"/><rect x="734.3" y="875.7" width="133.9" height="3.2" rx="1.6" fill="hsl(42.0 90.0% 78.0% / 0.109)"/></g><rect width="1600" height="900" fill="url(#g8plf9c-vig)"/></svg>