<svg xmlns="http://www.w3.org/2000/svg" viewBox="0 0 1600 900" role="img" preserveAspectRatio="xMidYMid slice"><title>dien-bien-deo-pha-din hero</title><defs><linearGradient id="gydv0u3-sky" x1="0" y1="0" x2="0" y2="1"><stop offset="0%" stop-color="hsl(248.0 42.0% 22.0%)"/><stop offset="50%" stop-color="hsl(330.0 45.0% 48.0%)"/><stop offset="100%" stop-color="hsl(28.0 85.0% 62.0%)"/></linearGradient><radialGradient id="gydv0u3-glow"><stop offset="0%" stop-color="hsl(35.0 95.0% 72.0% / 0.850)"/><stop offset="45%" stop-color="hsl(35.0 95.0% 72.0% / 0.250)"/><stop offset="100%" stop-color="hsl(35.0 95.0% 72.0% / 0.000)"/></radialGradient><radialGradient id="gydv0u3-vig" cx="50%" cy="42%" r="75%"><stop offset="70%" stop-color="hsl(0 0% 0% / 0)"/><stop offset="100%" stop-color="hsl(0 0% 0% / 0.18)"/></radialGradient></defs><rect width="1600" height="599.9" fill="url(#gydv0u3-sky)"/><rect y="598.9" width="1600" height="301.1" fill="hsl(293.5 40.0% 27.5%)"/><circle cx="674.4" cy="551.9" r="200" fill="url(#gydv0u3-glow)"/><circle cx="674.4" cy="551.9" r="64" fill="hsl(35.0 95.0% 72.0%)"/><path d="M0 900 L0 513.2 Q0.0 513.2 57.1 488.2 Q114.3 463.3 171.4 493.2 Q228.6 523.2 285.7 496.7 Q342.9 470.2 400.0 463.4 Q457.1 456.5 514.3 403.1 Q571.4 349.6 628.6 328.5 Q685.7 307.3 742.9 350.7 Q800.0 394.1 857.1 427.3 Q914.3 460.4 971.4 457.1 Q1028.6 453.8 1085.7 455.3 Q1142.9 456.8 1200.0 465.9 Q1257.1 475.1 1314.3 515.0 Q1371.4 555.0 1428.6 568.6 Q1485.7 582.3 1542.9 538.5 L1600 494.8 L1600 900 Z" fill="hsl(0.3 71.8% 51.9%)"/><path d="M0 900 L0 501.9 Q0.0 501.9 44.4 484.7 Q88.9 467.5 133.3 476.8 Q177.8 486.0 222.2 494.9 Q266.7 503.8 311.1 467.5 Q355.6 431.2 400.0 457.7 Q444.4 484.2 488.9 524.8 Q533.3 565.4 577.8 586.6 Q622.2 607.8 666.7 628.4 Q711.1 649.0 755.6 593.4 Q800.0 537.8 844.4 501.4 Q888.9 465.1 933.3 462.7 Q977.8 460.4 1022.2 454.4 Q1066.7 448.4 1111.1 481.8 Q1155.6 515.3 1200.0 500.3 Q1244.4 485.3 1288.9 485.2 Q1333.3 485.1 1377.8 534.7 Q1422.2 584.3 1466.7 593.5 Q1511.1 602.7 1555.6 593.1 L1600 583.4 L1600 900 Z" fill="hsl(354.1 68.9% 49.6%)"/><path d="M0 900 L0 533.0 Q0.0 533.0 47.1 563.7 Q94.1 594.4 141.2 596.4 Q188.2 598.5 235.3 584.9 Q282.4 571.4 329.4 597.5 Q376.5 623.6 423.5 628.3 Q470.6 633.0 517.6 656.8 Q564.7 680.7 611.8 629.1 Q658.8 577.6 705.9 568.8 Q752.9 560.1 800.0 527.8 Q847.1 495.5 894.1 526.7 Q941.2 557.8 988.2 561.9 Q1035.3 566.1 1082.4 583.3 Q1129.4 600.6 1176.5 600.1 Q1223.5 599.7 1270.6 607.0 Q1317.6 614.4 1364.7 628.0 Q1411.8 641.6 1458.8 649.8 Q1505.9 658.1 1552.9 647.9 L1600 637.7 L1600 900 Z" fill="hsl(335.7 60.1% 42.9%)"/><path d="M0 900 L0 676.1 Q0.0 676.1 47.1 693.4 Q94.1 710.7 141.2 701.6 Q188.2 692.6 235.3 667.0 Q282.4 641.4 329.4 635.1 Q376.5 628.8 423.5 601.9 Q470.6 575.0 517.6 595.9 Q564.7 616.8 611.8 629.2 Q658.8 641.6 705.9 653.9 Q752.9 666.3 800.0 687.4 Q847.1 708.5 894.1 698.3 Q941.2 688.1 988.2 683.1 Q1035.3 678.2 1082.4 674.4 Q1129.4 670.6 1176.5 652.6 Q1223.5 634.7 1270.6 652.5 Q1317.6 670.4 1364.7 648.9 Q1411.8 627.5 1458.8 624.9 Q1505.9 622.4 1552.9 619.3 L1600 616.2 L1600 900 Z" fill="hsl(305.0 45.5% 31.7%)"/><path d="M0 900 L0 729.7 Q0.0 729.7 40.0 735.0 Q80.0 740.2 120.0 737.0 Q160.0 733.8 200.0 732.0 Q240.0 730.2 280.0 723.7 Q320.0 717.1 360.0 700.2 Q400.0 683.3 440.0 666.8 Q480.0 650.4 520.0 650.7 Q560.0 651.0 600.0 667.7 Q640.0 684.4 680.0 697.6 Q720.0 710.8 760.0 716.0 Q800.0 721.1 840.0 722.1 Q880.0 723.0 920.0 726.5 Q960.0 729.9 1000.0 730.7 Q1040.0 731.4 1080.0 725.7 Q1120.0 719.9 1160.0 728.7 Q1200.0 737.5 1240.0 738.2 Q1280.0 739.0 1320.0 718.4 Q1360.0 697.8 1400.0 680.6 Q1440.0 663.4 1480.0 661.0 Q1520.0 658.5 1560.0 664.6 L1600 670.8 L1600 900 Z" fill="hsl(262.0 25.0% 16.0%)"/><rect width="1600" height="900" fill="url(#gydv0u3-vig)"/></svg>