<svg xmlns="http://www.w3.org/2000/svg" viewBox="0 0 1600 900" role="img" preserveAspectRatio="xMidYMid slice"><title>dien-bien-deo-pha-din s1</title><defs><linearGradient id="g1pkh7fb-sky" x1="0" y1="0" x2="0" y2="1"><stop offset="0%" stop-color="hsl(248.0 42.0% 22.0%)"/><stop offset="50%" stop-color="hsl(330.0 45.0% 48.0%)"/><stop offset="100%" stop-color="hsl(28.0 85.0% 62.0%)"/></linearGradient><radialGradient id="g1pkh7fb-glow"><stop offset="0%" stop-color="hsl(35.0 95.0% 72.0% / 0.850)"/><stop offset="45%" stop-color="hsl(35.0 95.0% 72.0% / 0.250)"/><stop offset="100%" stop-color="hsl(35.0 95.0% 72.0% / 0.000)"/></radialGradient><linearGradient id="g1pkh7fb-fog1" x1="0" y1="0" x2="0" y2="1"><stop offset="0%" stop-color="hsl(40 20% 96% / 0)"/><stop offset="55%" stop-color="hsl(40 20% 96% / 0.30)"/><stop offset="100%" stop-color="hsl(40 20% 96% / 0)"/></linearGradient><radialGradient id="g1pkh7fb-vig" cx="50%" cy="42%" r="75%"><stop offset="70%" stop-color="hsl(0 0% 0% / 0)"/><stop offset="100%" stop-color="hsl(0 0% 0% / 0.18)"/></radialGradient></defs><rect width="1600" height="576.8" fill="url(#g1pkh7fb-sky)"/><rect y="575.8" width="1600" height="324.2" fill="hsl(293.5 40.0% 27.5%)"/><circle cx="956.9" cy="530.6" r="200" fill="url(#g1pkh7fb-glow)"/><circle cx="956.9" cy="530.6" r="64" fill="hsl(35.0 95.0% 72.0%)"/><path d="M0 900 L0 562.9 Q0.0 562.9 44.4 556.4 Q88.9 550.0 133.3 541.1 Q177.8 532.1 222.2 491.6 Q266.7 451.2 311.1 421.2 Q355.6 391.2 400.0 385.7 Q444.4 380.2 488.9 364.9 Q533.3 349.6 577.8 396.6 Q622.2 443.7 666.7 448.2 Q711.1 452.7 755.6 480.5 Q800.0 508.2 844.4 511.0 Q888.9 513.7 933.3 505.0 Q977.8 496.3 1022.2 512.4 Q1066.7 528.4 1111.1 513.0 Q1155.6 497.6 1200.0 493.7 Q1244.4 489.8 1288.9 500.7 Q1333.3 511.6 1377.8 497.3 Q1422.2 482.9 1466.7 483.5 Q1511.1 484.0 1555.6 452.0 L1600 420.0 L1600 900 Z" fill="hsl(0.3 71.8% 51.9%)"/><path d="M0 900 L0 449.0 Q0.0 449.0 40.0 455.1 Q80.0 461.1 120.0 481.8 Q160.0 502.5 200.0 476.3 Q240.0 450.0 280.0 432.5 Q320.0 415.0 360.0 428.6 Q400.0 442.2 440.0 437.5 Q480.0 432.9 520.0 446.0 Q560.0 459.1 600.0 496.1 Q640.0 533.0 680.0 557.0 Q720.0 580.9 760.0 578.9 Q800.0 576.9 840.0 588.2 Q880.0 599.5 920.0 581.9 Q960.0 564.3 1000.0 528.6 Q1040.0 492.8 1080.0 498.2 Q1120.0 503.5 1160.0 508.5 Q1200.0 513.5 1240.0 499.9 Q1280.0 486.3 1320.0 483.2 Q1360.0 480.0 1400.0 491.2 Q1440.0 502.4 1480.0 467.4 Q1520.0 432.5 1560.0 414.1 L1600 395.6 L1600 900 Z" fill="hsl(356.3 69.9% 50.4%)"/><rect x="0" y="527.9" width="1600" height="226.4" fill="url(#g1pkh7fb-fog1)"/><path d="M0 900 L0 430.4 Q0.0 430.4 47.1 455.2 Q94.1 479.9 141.2 491.2 Q188.2 502.4 235.3 561.9 Q282.4 621.4 329.4 619.1 Q376.5 616.7 423.5 582.7 Q470.6 548.7 517.6 557.6 Q564.7 566.5 611.8 581.0 Q658.8 595.5 705.9 597.6 Q752.9 599.7 800.0 580.2 Q847.1 560.6 894.1 504.8 Q941.2 448.9 988.2 438.9 Q1035.3 428.9 1082.4 446.1 Q1129.4 463.3 1176.5 471.4 Q1223.5 479.5 1270.6 507.0 Q1317.6 534.6 1364.7 533.0 Q1411.8 531.4 1458.8 528.3 Q1505.9 525.2 1552.9 555.6 L1600 586.1 L1600 900 Z" fill="hsl(344.6 64.3% 46.1%)"/><path d="M0 900 L0 501.3 Q0.0 501.3 42.1 526.5 Q84.2 551.7 126.3 578.6 Q168.4 605.6 210.5 621.3 Q252.6 637.0 294.7 646.8 Q336.8 656.5 378.9 655.1 Q421.1 653.6 463.2 636.9 Q505.3 620.1 547.4 609.9 Q589.5 599.6 631.6 583.2 Q673.7 566.7 715.8 558.5 Q757.9 550.2 800.0 560.2 Q842.1 570.1 884.2 568.8 Q926.3 567.4 968.4 570.8 Q1010.5 574.2 1052.6 590.3 Q1094.7 606.5 1136.8 602.5 Q1178.9 598.5 1221.1 598.5 Q1263.2 598.5 1305.3 624.1 Q1347.4 649.6 1389.5 642.0 Q1431.6 634.4 1473.7 624.7 Q1515.8 614.9 1557.9 616.6 L1600 618.2 L1600 900 Z" fill="hsl(324.9 55.0% 39.0%)"/><path d="M0 900 L0 637.0 Q0.0 637.0 50.0 637.2 Q100.0 637.5 150.0 636.9 Q200.0 636.3 250.0 615.2 Q300.0 594.0 350.0 590.9 Q400.0 587.8 450.0 589.8 Q500.0 591.8 550.0 624.1 Q600.0 656.4 650.0 658.1 Q700.0 659.8 750.0 663.2 Q800.0 666.5 850.0 656.6 Q900.0 646.6 950.0 664.6 Q1000.0 682.6 1050.0 686.1 Q1100.0 689.7 1150.0 703.2 Q1200.0 716.7 1250.0 678.3 Q1300.0 640.0 1350.0 628.2 Q1400.0 616.3 1450.0 602.5 Q1500.0 588.7 1550.0 606.2 L1600 623.7 L1600 900 Z" fill="hsl(297.4 41.8% 28.9%)"/><path d="M0 900 L0 701.0 Q0.0 701.0 38.1 689.4 Q76.2 677.8 114.3 670.2 Q152.4 662.6 190.5 664.4 Q228.6 666.2 266.7 665.2 Q304.8 664.3 342.9 659.4 Q381.0 654.6 419.0 647.7 Q457.1 640.9 495.2 650.3 Q533.3 659.6 571.4 680.9 Q609.5 702.2 647.6 709.6 Q685.7 717.0 723.8 722.3 Q761.9 727.7 800.0 726.8 Q838.1 725.8 876.2 730.6 Q914.3 735.5 952.4 730.1 Q990.5 724.8 1028.6 710.8 Q1066.7 696.8 1104.8 695.3 Q1142.9 693.9 1181.0 695.7 Q1219.0 697.5 1257.1 699.9 Q1295.2 702.2 1333.3 700.2 Q1371.4 698.2 1409.5 691.5 Q1447.6 684.8 1485.7 683.0 Q1523.8 681.1 1561.9 673.8 L1600 666.5 L1600 900 Z" fill="hsl(262.0 25.0% 16.0%)"/><path d="M298.9 900 C411.9 740.3910275259987 600.6 650.8 606.6 580.8 L608.6 580.8 C616.6 650.8 923.9 740.3910275259987 810.9 900 Z" fill="hsl(262.0 14.5% 21.6%)"/><path d="M554.9 900 C667.9 740.3910275259987 606.6 640.8 607.6 580.8" fill="none" stroke="hsl(45 30% 92% / 0.8)" stroke-width="7" stroke-dasharray="46 38" stroke-linecap="round"/><rect width="1600" height="900" fill="url(#g1pkh7fb-vig)"/></svg>