<svg xmlns="http://www.w3.org/2000/svg" viewBox="0 0 1600 900" role="img" preserveAspectRatio="xMidYMid slice"><title>dien-bien-deo-pha-din s2</title><defs><linearGradient id="g1iwvm86-sky" x1="0" y1="0" x2="0" y2="1"><stop offset="0%" stop-color="hsl(210.0 14.0% 74.0%)"/><stop offset="50%" stop-color="hsl(210.0 12.0% 82.0%)"/><stop offset="100%" stop-color="hsl(36.0 18.0% 86.0%)"/></linearGradient><radialGradient id="g1iwvm86-glow"><stop offset="0%" stop-color="hsl(40.0 30.0% 92.0% / 0.850)"/><stop offset="45%" stop-color="hsl(40.0 30.0% 92.0% / 0.250)"/><stop offset="100%" stop-color="hsl(40.0 30.0% 92.0% / 0.000)"/></radialGradient><linearGradient id="g1iwvm86-fog0" x1="0" y1="0" x2="0" y2="1"><stop offset="0%" stop-color="hsl(40 20% 96% / 0)"/><stop offset="55%" stop-color="hsl(40 20% 96% / 0.33)"/><stop offset="100%" stop-color="hsl(40 20% 96% / 0)"/></linearGradient><linearGradient id="g1iwvm86-fog1" x1="0" y1="0" x2="0" y2="1"><stop offset="0%" stop-color="hsl(40 20% 96% / 0)"/><stop offset="55%" stop-color="hsl(40 20% 96% / 0.30)"/><stop offset="100%" stop-color="hsl(40 20% 96% / 0)"/></linearGradient><linearGradient id="g1iwvm86-fog2" x1="0" y1="0" x2="0" y2="1"><stop offset="0%" stop-color="hsl(40 20% 96% / 0)"/><stop offset="55%" stop-color="hsl(40 20% 96% / 0.17)"/><stop offset="100%" stop-color="hsl(40 20% 96% / 0)"/></linearGradient><linearGradient id="g1iwvm86-fog3" x1="0" y1="0" x2="0" y2="1"><stop offset="0%" stop-color="hsl(40 20% 96% / 0)"/><stop offset="55%" stop-color="hsl(40 20% 96% / 0.20)"/><stop offset="100%" stop-color="hsl(40 20% 96% / 0)"/></linearGradient><linearGradient id="g1iwvm86-fog4" x1="0" y1="0" x2="0" y2="1"><stop offset="0%" stop-color="hsl(40 20% 96% / 0)"/><stop offset="55%" stop-color="hsl(40 20% 96% / 0.26)"/><stop offset="100%" stop-color="hsl(40 20% 96% / 0)"/></linearGradient><radialGradient id="g1iwvm86-vig" cx="50%" cy="42%" r="75%"><stop offset="70%" stop-color="hsl(0 0% 0% / 0)"/><stop offset="100%" stop-color="hsl(0 0% 0% / 0.18)"/></radialGradient></defs><rect width="1600" height="591.6" fill="url(#g1iwvm86-sky)"/><rect y="590.6" width="1600" height="309.4" fill="hsl(168.0 16.5% 44.0%)"/><circle cx="1170.9" cy="266.2" r="90" fill="url(#g1iwvm86-glow)"/><circle cx="1170.9" cy="266.2" r="46" fill="hsl(40.0 30.0% 92.0%)"/><path d="M0 900 L0 314.7 Q0.0 314.7 50.0 354.5 Q100.0 394.3 150.0 417.2 Q200.0 440.1 250.0 435.4 Q300.0 430.6 350.0 451.7 Q400.0 472.8 450.0 480.3 Q500.0 487.9 550.0 538.9 Q600.0 589.8 650.0 564.2 Q700.0 538.5 750.0 459.7 Q800.0 380.9 850.0 355.2 Q900.0 329.4 950.0 364.3 Q1000.0 399.2 1050.0 417.1 Q1100.0 435.0 1150.0 470.5 Q1200.0 506.1 1250.0 490.0 Q1300.0 473.9 1350.0 485.7 Q1400.0 497.6 1450.0 527.4 Q1500.0 557.3 1550.0 538.9 L1600 520.5 L1600 900 Z" fill="hsl(74.7 17.6% 73.7%)"/><rect x="0" y="489.5" width="1600" height="271.4" fill="url(#g1iwvm86-fog0)"/><path d="M0 900 L0 456.3 Q0.0 456.3 42.1 480.7 Q84.2 505.0 126.3 505.0 Q168.4 505.0 210.5 473.2 Q252.6 441.4 294.7 455.7 Q336.8 469.9 378.9 502.8 Q421.1 535.6 463.2 558.8 Q505.3 582.0 547.4 592.2 Q589.5 602.3 631.6 609.8 Q673.7 617.4 715.8 593.7 Q757.9 570.0 800.0 521.2 Q842.1 472.4 884.2 461.7 Q926.3 451.1 968.4 467.6 Q1010.5 484.2 1052.6 496.5 Q1094.7 508.8 1136.8 495.3 Q1178.9 481.8 1221.1 487.1 Q1263.2 492.4 1305.3 498.6 Q1347.4 504.9 1389.5 519.4 Q1431.6 533.9 1473.7 552.4 Q1515.8 571.0 1557.9 593.8 L1600 616.6 L1600 900 Z" fill="hsl(80.2 17.5% 71.9%)"/><rect x="0" y="545.4" width="1600" height="214.9" fill="url(#g1iwvm86-fog1)"/><path d="M0 900 L0 431.3 Q0.0 431.3 40.0 437.3 Q80.0 443.3 120.0 464.2 Q160.0 485.1 200.0 501.0 Q240.0 516.9 280.0 565.8 Q320.0 614.6 360.0 606.3 Q400.0 598.0 440.0 597.8 Q480.0 597.7 520.0 592.1 Q560.0 586.5 600.0 576.7 Q640.0 566.8 680.0 546.4 Q720.0 525.9 760.0 533.7 Q800.0 541.5 840.0 533.9 Q880.0 526.3 920.0 515.2 Q960.0 504.1 1000.0 495.7 Q1040.0 487.3 1080.0 483.9 Q1120.0 480.4 1160.0 463.1 Q1200.0 445.7 1240.0 485.0 Q1280.0 524.4 1320.0 546.2 Q1360.0 568.1 1400.0 577.9 Q1440.0 587.8 1480.0 630.0 Q1520.0 672.3 1560.0 656.1 L1600 640.0 L1600 900 Z" fill="hsl(96.7 17.3% 66.7%)"/><rect x="0" y="566.2" width="1600" height="237.5" fill="url(#g1iwvm86-fog2)"/><path d="M0 900 L0 573.0 Q0.0 573.0 38.1 564.7 Q76.2 556.4 114.3 568.2 Q152.4 580.1 190.5 584.9 Q228.6 589.7 266.7 613.2 Q304.8 636.7 342.9 653.5 Q381.0 670.3 419.0 665.5 Q457.1 660.7 495.2 650.3 Q533.3 639.9 571.4 649.2 Q609.5 658.5 647.6 647.7 Q685.7 637.0 723.8 631.6 Q761.9 626.2 800.0 642.2 Q838.1 658.3 876.2 628.1 Q914.3 597.9 952.4 586.0 Q990.5 574.1 1028.6 571.3 Q1066.7 568.5 1104.8 557.0 Q1142.9 545.5 1181.0 558.6 Q1219.0 571.7 1257.1 609.0 Q1295.2 646.3 1333.3 645.7 Q1371.4 645.0 1409.5 656.7 Q1447.6 668.5 1485.7 671.8 Q1523.8 675.0 1561.9 651.3 L1600 627.6 L1600 900 Z" fill="hsl(124.1 17.0% 58.0%)"/><rect x="0" y="636.1" width="1600" height="149.6" fill="url(#g1iwvm86-fog3)"/><path d="M0 900 L0 677.8 Q0.0 677.8 50.0 670.2 Q100.0 662.7 150.0 686.6 Q200.0 710.5 250.0 687.4 Q300.0 664.4 350.0 650.5 Q400.0 636.6 450.0 604.4 Q500.0 572.2 550.0 560.1 Q600.0 548.0 650.0 579.7 Q700.0 611.4 750.0 632.0 Q800.0 652.6 850.0 676.3 Q900.0 700.0 950.0 696.2 Q1000.0 692.3 1050.0 681.0 Q1100.0 669.7 1150.0 667.9 Q1200.0 666.1 1250.0 645.6 Q1300.0 625.1 1350.0 644.2 Q1400.0 663.3 1450.0 637.4 Q1500.0 611.5 1550.0 596.7 L1600 581.9 L1600 900 Z" fill="hsl(162.6 16.6% 45.7%)"/><rect x="0" y="657.6" width="1600" height="170.8" fill="url(#g1iwvm86-fog4)"/><path d="M0 900 L0 692.7 Q0.0 692.7 57.1 692.1 Q114.3 691.6 171.4 682.1 Q228.6 672.6 285.7 656.9 Q342.9 641.3 400.0 651.8 Q457.1 662.4 514.3 685.1 Q571.4 707.8 628.6 718.4 Q685.7 729.0 742.9 734.6 Q800.0 740.1 857.1 734.6 Q914.3 729.1 971.4 710.6 Q1028.6 692.1 1085.7 706.6 Q1142.9 721.2 1200.0 715.6 Q1257.1 710.1 1314.3 697.3 Q1371.4 684.6 1428.6 682.9 Q1485.7 681.2 1542.9 658.3 L1600 635.4 L1600 900 Z" fill="hsl(212.0 16.0% 30.0%)"/><rect width="1600" height="900" fill="url(#g1iwvm86-vig)"/></svg>