<svg xmlns="http://www.w3.org/2000/svg" viewBox="0 0 1600 900" role="img" preserveAspectRatio="xMidYMid slice"><title>sapa-o-quy-ho-hoang-hon hero</title><defs><linearGradient id="gjybiu4-sky" x1="0" y1="0" x2="0" y2="1"><stop offset="0%" stop-color="hsl(265.0 38.0% 26.0%)"/><stop offset="50%" stop-color="hsl(348.0 55.0% 46.0%)"/><stop offset="100%" stop-color="hsl(22.0 90.0% 58.0%)"/></linearGradient><radialGradient id="gjybiu4-glow"><stop offset="0%" stop-color="hsl(24.0 95.0% 66.0% / 0.850)"/><stop offset="45%" stop-color="hsl(24.0 95.0% 66.0% / 0.250)"/><stop offset="100%" stop-color="hsl(24.0 95.0% 66.0% / 0.000)"/></radialGradient><radialGradient id="gjybiu4-vig" cx="50%" cy="42%" r="75%"><stop offset="70%" stop-color="hsl(0 0% 0% / 0)"/><stop offset="100%" stop-color="hsl(0 0% 0% / 0.18)"/></radialGradient></defs><rect width="1600" height="592.6" fill="url(#gjybiu4-sky)"/><rect y="591.6" width="1600" height="308.4" fill="hsl(305.5 43.5% 25.0%)"/><circle cx="1152.4" cy="521.5" r="230" fill="url(#gjybiu4-glow)"/><circle cx="1152.4" cy="521.5" r="78" fill="hsl(24.0 95.0% 66.0%)"/><path d="M0 900 L0 405.1 Q0.0 405.1 38.1 415.6 Q76.2 426.1 114.3 437.4 Q152.4 448.7 190.5 455.5 Q228.6 462.2 266.7 522.5 Q304.8 582.8 342.9 564.0 Q381.0 545.2 419.0 531.2 Q457.1 517.1 495.2 515.6 Q533.3 514.1 571.4 435.1 Q609.5 356.1 647.6 342.3 Q685.7 328.5 723.8 323.5 Q761.9 318.4 800.0 323.9 Q838.1 329.4 876.2 395.2 Q914.3 461.0 952.4 468.5 Q990.5 476.1 1028.6 500.3 Q1066.7 524.5 1104.8 547.7 Q1142.9 570.8 1181.0 522.8 Q1219.0 474.7 1257.1 493.0 Q1295.2 511.2 1333.3 489.1 Q1371.4 467.1 1409.5 452.4 Q1447.6 437.6 1485.7 461.7 Q1523.8 485.8 1561.9 463.5 L1600 441.2 L1600 900 Z" fill="hsl(359.6 76.4% 48.3%)"/><path d="M0 900 L0 598.3 Q0.0 598.3 38.1 603.1 Q76.2 607.8 114.3 597.6 Q152.4 587.4 190.5 571.2 Q228.6 555.0 266.7 538.6 Q304.8 522.2 342.9 475.6 Q381.0 429.0 419.0 417.6 Q457.1 406.2 495.2 411.2 Q533.3 416.2 571.4 400.8 Q609.5 385.5 647.6 416.7 Q685.7 447.9 723.8 472.6 Q761.9 497.2 800.0 475.1 Q838.1 452.9 876.2 462.5 Q914.3 472.0 952.4 463.7 Q990.5 455.4 1028.6 448.1 Q1066.7 440.8 1104.8 463.2 Q1142.9 485.5 1181.0 519.5 Q1219.0 553.4 1257.1 575.9 Q1295.2 598.4 1333.3 607.7 Q1371.4 617.0 1409.5 625.2 Q1447.6 633.4 1485.7 597.9 Q1523.8 562.3 1561.9 503.6 L1600 444.9 L1600 900 Z" fill="hsl(354.6 73.3% 46.2%)"/><path d="M0 900 L0 617.7 Q0.0 617.7 38.1 596.2 Q76.2 574.8 114.3 534.9 Q152.4 495.0 190.5 481.2 Q228.6 467.4 266.7 481.3 Q304.8 495.3 342.9 525.2 Q381.0 555.2 419.0 550.3 Q457.1 545.5 495.2 532.4 Q533.3 519.2 571.4 548.1 Q609.5 577.0 647.6 587.9 Q685.7 598.7 723.8 616.0 Q761.9 633.3 800.0 654.2 Q838.1 675.2 876.2 666.1 Q914.3 656.9 952.4 592.2 Q990.5 527.5 1028.6 526.6 Q1066.7 525.8 1104.8 518.9 Q1142.9 512.0 1181.0 506.3 Q1219.0 500.6 1257.1 509.8 Q1295.2 519.1 1333.3 528.0 Q1371.4 537.0 1409.5 523.6 Q1447.6 510.2 1485.7 529.1 Q1523.8 548.1 1561.9 576.6 L1600 605.1 L1600 900 Z" fill="hsl(339.7 64.3% 39.7%)"/><path d="M0 900 L0 659.3 Q0.0 659.3 38.1 652.4 Q76.2 645.6 114.3 646.6 Q152.4 647.6 190.5 658.6 Q228.6 669.6 266.7 697.1 Q304.8 724.6 342.9 719.4 Q381.0 714.2 419.0 682.8 Q457.1 651.4 495.2 649.2 Q533.3 647.1 571.4 629.7 Q609.5 612.2 647.6 604.8 Q685.7 597.3 723.8 596.4 Q761.9 595.6 800.0 608.5 Q838.1 621.4 876.2 604.8 Q914.3 588.2 952.4 573.4 Q990.5 558.6 1028.6 562.6 Q1066.7 566.6 1104.8 601.6 Q1142.9 636.6 1181.0 642.4 Q1219.0 648.3 1257.1 674.2 Q1295.2 700.2 1333.3 704.0 Q1371.4 707.8 1409.5 704.2 Q1447.6 700.5 1485.7 663.3 Q1523.8 626.2 1561.9 623.8 L1600 621.4 L1600 900 Z" fill="hsl(314.8 49.2% 29.0%)"/><path d="M0 900 L0 694.6 Q0.0 694.6 38.1 690.2 Q76.2 685.8 114.3 696.9 Q152.4 708.0 190.5 711.7 Q228.6 715.3 266.7 712.5 Q304.8 709.7 342.9 732.6 Q381.0 755.5 419.0 750.9 Q457.1 746.2 495.2 752.6 Q533.3 759.0 571.4 752.2 Q609.5 745.5 647.6 728.1 Q685.7 710.7 723.8 712.8 Q761.9 714.8 800.0 695.7 Q838.1 676.7 876.2 671.2 Q914.3 665.8 952.4 673.7 Q990.5 681.5 1028.6 675.5 Q1066.7 669.5 1104.8 683.8 Q1142.9 698.0 1181.0 703.9 Q1219.0 709.8 1257.1 706.7 Q1295.2 703.5 1333.3 707.2 Q1371.4 710.8 1409.5 712.0 Q1447.6 713.1 1485.7 705.9 Q1523.8 698.7 1561.9 708.1 L1600 717.6 L1600 900 Z" fill="hsl(280.0 28.0% 14.0%)"/><rect width="1600" height="900" fill="url(#gjybiu4-vig)"/></svg>