<svg xmlns="http://www.w3.org/2000/svg" viewBox="0 0 1600 900" role="img" preserveAspectRatio="xMidYMid slice"><title>sapa-o-quy-ho-hoang-hon s1</title><defs><linearGradient id="g1g4lt1w-sky" x1="0" y1="0" x2="0" y2="1"><stop offset="0%" stop-color="hsl(265.0 38.0% 26.0%)"/><stop offset="50%" stop-color="hsl(348.0 55.0% 46.0%)"/><stop offset="100%" stop-color="hsl(22.0 90.0% 58.0%)"/></linearGradient><radialGradient id="g1g4lt1w-glow"><stop offset="0%" stop-color="hsl(24.0 95.0% 66.0% / 0.850)"/><stop offset="45%" stop-color="hsl(24.0 95.0% 66.0% / 0.250)"/><stop offset="100%" stop-color="hsl(24.0 95.0% 66.0% / 0.000)"/></radialGradient><radialGradient id="g1g4lt1w-vig" cx="50%" cy="42%" r="75%"><stop offset="70%" stop-color="hsl(0 0% 0% / 0)"/><stop offset="100%" stop-color="hsl(0 0% 0% / 0.18)"/></radialGradient></defs><rect width="1600" height="590.0" fill="url(#g1g4lt1w-sky)"/><rect y="589.0" width="1600" height="311.0" fill="hsl(305.5 43.5% 25.0%)"/><circle cx="901.7" cy="519.2" r="230" fill="url(#g1g4lt1w-glow)"/><circle cx="901.7" cy="519.2" r="78" fill="hsl(24.0 95.0% 66.0%)"/><path d="M0 900 L0 280.3 Q0.0 280.3 47.1 333.5 Q94.1 386.6 141.2 416.3 Q188.2 446.0 235.3 462.5 Q282.4 478.9 329.4 497.5 Q376.5 516.1 423.5 496.4 Q470.6 476.7 517.6 482.1 Q564.7 487.4 611.8 515.9 Q658.8 544.4 705.9 534.6 Q752.9 524.9 800.0 526.4 Q847.1 527.9 894.1 494.7 Q941.2 461.6 988.2 407.7 Q1035.3 353.8 1082.4 356.0 Q1129.4 358.2 1176.5 372.4 Q1223.5 386.7 1270.6 379.5 Q1317.6 372.3 1364.7 369.1 Q1411.8 365.8 1458.8 329.2 Q1505.9 292.6 1552.9 346.8 L1600 401.1 L1600 900 Z" fill="hsl(359.6 76.4% 48.3%)"/><path d="M0 900 L0 558.4 Q0.0 558.4 53.3 561.6 Q106.7 564.8 160.0 539.6 Q213.3 514.4 266.7 539.2 Q320.0 563.9 373.3 510.3 Q426.7 456.7 480.0 448.9 Q533.3 441.0 586.7 429.1 Q640.0 417.1 693.3 466.6 Q746.7 516.1 800.0 552.4 Q853.3 588.8 906.7 563.3 Q960.0 537.8 1013.3 542.7 Q1066.7 547.6 1120.0 542.0 Q1173.3 536.4 1226.7 548.8 Q1280.0 561.2 1333.3 529.6 Q1386.7 498.1 1440.0 452.3 Q1493.3 406.5 1546.7 421.9 L1600 437.3 L1600 900 Z" fill="hsl(357.4 75.0% 47.4%)"/><path d="M0 900 L0 557.7 Q0.0 557.7 47.1 552.7 Q94.1 547.7 141.2 568.7 Q188.2 589.7 235.3 584.5 Q282.4 579.4 329.4 552.8 Q376.5 526.2 423.5 514.0 Q470.6 501.7 517.6 469.6 Q564.7 437.5 611.8 423.3 Q658.8 409.1 705.9 441.6 Q752.9 474.0 800.0 494.0 Q847.1 513.9 894.1 561.3 Q941.2 608.8 988.2 620.3 Q1035.3 631.8 1082.4 624.1 Q1129.4 616.3 1176.5 598.7 Q1223.5 581.0 1270.6 535.9 Q1317.6 490.8 1364.7 479.0 Q1411.8 467.3 1458.8 460.0 Q1505.9 452.8 1552.9 440.6 L1600 428.4 L1600 900 Z" fill="hsl(350.7 71.0% 44.5%)"/><path d="M0 900 L0 543.1 Q0.0 543.1 50.0 524.7 Q100.0 506.3 150.0 475.5 Q200.0 444.8 250.0 496.0 Q300.0 547.3 350.0 546.9 Q400.0 546.5 450.0 562.7 Q500.0 578.8 550.0 548.4 Q600.0 518.0 650.0 551.5 Q700.0 585.1 750.0 606.9 Q800.0 628.8 850.0 643.8 Q900.0 658.9 950.0 640.5 Q1000.0 622.0 1050.0 601.2 Q1100.0 580.4 1150.0 564.5 Q1200.0 548.6 1250.0 551.0 Q1300.0 553.4 1350.0 534.9 Q1400.0 516.4 1450.0 489.0 Q1500.0 461.6 1550.0 472.2 L1600 482.8 L1600 900 Z" fill="hsl(339.7 64.3% 39.7%)"/><path d="M0 900 L0 696.8 Q0.0 696.8 53.3 683.5 Q106.7 670.1 160.0 625.1 Q213.3 580.2 266.7 561.2 Q320.0 542.3 373.3 544.0 Q426.7 545.7 480.0 566.2 Q533.3 586.8 586.7 603.0 Q640.0 619.2 693.3 626.4 Q746.7 633.7 800.0 648.0 Q853.3 662.4 906.7 650.9 Q960.0 639.4 1013.3 650.4 Q1066.7 661.3 1120.0 636.8 Q1173.3 612.4 1226.7 584.1 Q1280.0 555.7 1333.3 545.2 Q1386.7 534.6 1440.0 525.8 Q1493.3 517.0 1546.7 561.7 L1600 606.3 L1600 900 Z" fill="hsl(324.2 54.9% 33.1%)"/><path d="M0 900 L0 653.5 Q0.0 653.5 42.1 636.2 Q84.2 618.8 126.3 627.3 Q168.4 635.9 210.5 628.6 Q252.6 621.3 294.7 646.9 Q336.8 672.5 378.9 692.5 Q421.1 712.4 463.2 712.4 Q505.3 712.4 547.4 705.7 Q589.5 699.1 631.6 689.2 Q673.7 679.4 715.8 680.9 Q757.9 682.5 800.0 685.3 Q842.1 688.2 884.2 684.5 Q926.3 680.9 968.4 668.9 Q1010.5 656.9 1052.6 651.4 Q1094.7 645.9 1136.8 631.5 Q1178.9 617.1 1221.1 617.9 Q1263.2 618.7 1305.3 649.8 Q1347.4 680.8 1389.5 687.4 Q1431.6 693.9 1473.7 694.2 Q1515.8 694.5 1557.9 696.8 L1600 699.2 L1600 900 Z" fill="hsl(304.3 42.8% 24.5%)"/><path d="M0 900 L0 678.7 Q0.0 678.7 53.3 680.7 Q106.7 682.7 160.0 681.3 Q213.3 679.9 266.7 677.4 Q320.0 674.9 373.3 661.3 Q426.7 647.6 480.0 642.0 Q533.3 636.3 586.7 657.7 Q640.0 679.0 693.3 681.2 Q746.7 683.4 800.0 707.0 Q853.3 730.5 906.7 729.6 Q960.0 728.7 1013.3 724.0 Q1066.7 719.3 1120.0 710.0 Q1173.3 700.7 1226.7 712.1 Q1280.0 723.5 1333.3 732.3 Q1386.7 741.2 1440.0 708.3 Q1493.3 675.4 1546.7 670.7 L1600 666.0 L1600 900 Z" fill="hsl(280.0 28.0% 14.0%)"/><rect width="1600" height="900" fill="url(#g1g4lt1w-vig)"/></svg>