<svg xmlns="http://www.w3.org/2000/svg" viewBox="0 0 1600 900" role="img" preserveAspectRatio="xMidYMid slice"><title>sapa-o-quy-ho-hoang-hon s2</title><defs><linearGradient id="gnc7ysx-sky" x1="0" y1="0" x2="0" y2="1"><stop offset="0%" stop-color="hsl(232.0 45.0% 8.0%)"/><stop offset="50%" stop-color="hsl(228.0 40.0% 14.0%)"/><stop offset="100%" stop-color="hsl(222.0 35.0% 22.0%)"/></linearGradient><radialGradient id="gnc7ysx-glow"><stop offset="0%" stop-color="hsl(48.0 35.0% 88.0% / 0.850)"/><stop offset="45%" stop-color="hsl(48.0 35.0% 88.0% / 0.250)"/><stop offset="100%" stop-color="hsl(48.0 35.0% 88.0% / 0.000)"/></radialGradient><radialGradient id="gnc7ysx-vig" cx="50%" cy="42%" r="75%"><stop offset="70%" stop-color="hsl(0 0% 0% / 0)"/><stop offset="100%" stop-color="hsl(0 0% 0% / 0.18)"/></radialGradient></defs><rect width="1600" height="577.6" fill="url(#gnc7ysx-sky)"/><rect y="576.6" width="1600" height="323.4" fill="hsl(226.5 31.3% 12.3%)"/><g><circle cx="1068.2" cy="524.7" r="1.17" fill="hsl(50 30% 92% / 0.75)"/><circle cx="1426.5" cy="265.9" r="0.67" fill="hsl(50 30% 92% / 0.80)"/><circle cx="727.7" cy="218.6" r="0.72" fill="hsl(50 30% 92% / 0.40)"/><circle cx="1119.1" cy="183.1" r="0.74" fill="hsl(50 30% 92% / 0.75)"/><circle cx="405.1" cy="162.0" r="0.97" fill="hsl(50 30% 92% / 0.71)"/><circle cx="843.1" cy="460.8" r="0.65" fill="hsl(50 30% 92% / 0.38)"/><circle cx="228.2" cy="175.0" r="0.83" fill="hsl(50 30% 92% / 0.94)"/><circle cx="737.5" cy="57.9" r="1.26" fill="hsl(50 30% 92% / 0.86)"/><circle cx="267.4" cy="123.1" r="2.07" fill="hsl(50 30% 92% / 0.50)"/><circle cx="414.5" cy="424.7" r="1.09" fill="hsl(50 30% 92% / 0.66)"/><circle cx="163.5" cy="306.9" r="0.89" fill="hsl(50 30% 92% / 0.88)"/><circle cx="905.5" cy="500.6" r="0.96" fill="hsl(50 30% 92% / 0.53)"/><circle cx="1273.7" cy="146.0" r="0.82" fill="hsl(50 30% 92% / 0.84)"/><circle cx="1532.1" cy="515.7" r="0.97" fill="hsl(50 30% 92% / 0.54)"/><circle cx="1377.0" cy="281.2" r="1.07" fill="hsl(50 30% 92% / 0.41)"/><circle cx="796.4" cy="497.2" r="1.30" fill="hsl(50 30% 92% / 0.45)"/><circle cx="609.3" cy="353.7" r="1.06" fill="hsl(50 30% 92% / 0.73)"/><circle cx="1337.2" cy="237.9" r="0.85" fill="hsl(50 30% 92% / 0.81)"/><circle cx="127.4" cy="188.1" r="1.05" fill="hsl(50 30% 92% / 0.69)"/><circle cx="1321.0" cy="400.5" r="1.05" fill="hsl(50 30% 92% / 0.80)"/><circle cx="25.0" cy="180.4" r="0.73" fill="hsl(50 30% 92% / 0.72)"/><circle cx="1466.1" cy="32.8" r="0.63" fill="hsl(50 30% 92% / 0.41)"/><circle cx="1103.3" cy="501.4" r="0.84" fill="hsl(50 30% 92% / 0.55)"/><circle cx="1563.0" cy="252.7" r="1.25" fill="hsl(50 30% 92% / 0.73)"/><circle cx="999.6" cy="262.5" r="1.00" fill="hsl(50 30% 92% / 0.86)"/><circle cx="1425.6" cy="359.5" r="1.00" fill="hsl(50 30% 92% / 0.88)"/><circle cx="1049.9" cy="129.9" r="2.04" fill="hsl(50 30% 92% / 0.54)"/><circle cx="317.4" cy="476.0" r="0.77" fill="hsl(50 30% 92% / 0.86)"/><circle cx="1299.9" cy="519.4" r="0.71" fill="hsl(50 30% 92% / 0.38)"/><circle cx="1589.4" cy="119.5" r="1.20" fill="hsl(50 30% 92% / 0.50)"/><circle cx="644.9" cy="37.1" r="0.64" fill="hsl(50 30% 92% / 0.80)"/><circle cx="807.0" cy="331.6" r="0.86" fill="hsl(50 30% 92% / 0.78)"/><circle cx="1314.5" cy="192.5" r="0.65" fill="hsl(50 30% 92% / 0.55)"/><circle cx="1114.5" cy="518.0" r="0.89" fill="hsl(50 30% 92% / 0.84)"/><circle cx="1561.6" cy="498.4" r="1.01" fill="hsl(50 30% 92% / 0.88)"/><circle cx="1481.0" cy="520.0" r="0.68" fill="hsl(50 30% 92% / 0.44)"/><circle cx="179.8" cy="14.8" r="1.30" fill="hsl(50 30% 92% / 0.58)"/><circle cx="410.6" cy="66.9" r="0.66" fill="hsl(50 30% 92% / 0.36)"/><circle cx="1219.3" cy="458.8" r="1.20" fill="hsl(50 30% 92% / 0.88)"/><circle cx="1072.1" cy="305.2" r="0.69" fill="hsl(50 30% 92% / 0.58)"/><circle cx="1415.9" cy="343.8" r="1.10" fill="hsl(50 30% 92% / 0.41)"/><circle cx="527.8" cy="131.6" r="1.01" fill="hsl(50 30% 92% / 0.94)"/><circle cx="864.6" cy="487.6" r="2.05" fill="hsl(50 30% 92% / 0.66)"/><circle cx="581.3" cy="339.3" r="0.96" fill="hsl(50 30% 92% / 0.70)"/><circle cx="332.6" cy="513.7" r="0.64" fill="hsl(50 30% 92% / 0.48)"/><circle cx="271.2" cy="412.2" r="1.11" fill="hsl(50 30% 92% / 0.78)"/><circle cx="856.4" cy="179.6" r="0.72" fill="hsl(50 30% 92% / 0.74)"/><circle cx="639.8" cy="98.5" r="1.12" fill="hsl(50 30% 92% / 0.93)"/><circle cx="189.2" cy="310.0" r="0.87" fill="hsl(50 30% 92% / 0.55)"/><circle cx="1098.8" cy="423.6" r="0.95" fill="hsl(50 30% 92% / 0.61)"/><circle cx="1515.2" cy="265.2" r="2.58" fill="hsl(50 30% 92% / 0.65)"/><circle cx="827.2" cy="182.9" r="0.93" fill="hsl(50 30% 92% / 0.93)"/><circle cx="760.8" cy="357.4" r="2.60" fill="hsl(50 30% 92% / 0.41)"/><circle cx="513.5" cy="150.9" r="1.02" fill="hsl(50 30% 92% / 0.58)"/><circle cx="932.0" cy="329.9" r="0.76" fill="hsl(50 30% 92% / 0.46)"/><circle cx="584.1" cy="299.0" r="1.21" fill="hsl(50 30% 92% / 0.84)"/><circle cx="488.4" cy="395.1" r="0.97" fill="hsl(50 30% 92% / 0.60)"/><circle cx="1217.5" cy="295.1" r="1.19" fill="hsl(50 30% 92% / 0.37)"/><circle cx="366.2" cy="491.8" r="1.23" fill="hsl(50 30% 92% / 0.86)"/><circle cx="728.4" cy="502.5" r="0.82" fill="hsl(50 30% 92% / 0.59)"/><circle cx="626.4" cy="32.8" r="2.28" fill="hsl(50 30% 92% / 0.79)"/><circle cx="1493.9" cy="241.9" r="1.13" fill="hsl(50 30% 92% / 0.74)"/><circle cx="90.4" cy="234.4" r="0.87" fill="hsl(50 30% 92% / 0.91)"/><circle cx="1388.4" cy="434.5" r="0.72" fill="hsl(50 30% 92% / 0.64)"/><circle cx="1459.9" cy="35.6" r="0.84" fill="hsl(50 30% 92% / 0.49)"/><circle cx="1301.0" cy="315.8" r="1.00" fill="hsl(50 30% 92% / 0.81)"/><circle cx="151.7" cy="427.6" r="0.98" fill="hsl(50 30% 92% / 0.76)"/><circle cx="1183.2" cy="286.2" r="0.63" fill="hsl(50 30% 92% / 0.41)"/><circle cx="643.2" cy="204.4" r="0.70" fill="hsl(50 30% 92% / 0.72)"/><circle cx="120.8" cy="298.0" r="1.02" fill="hsl(50 30% 92% / 0.72)"/><circle cx="169.2" cy="77.5" r="1.11" fill="hsl(50 30% 92% / 0.90)"/><circle cx="525.6" cy="213.9" r="1.18" fill="hsl(50 30% 92% / 0.79)"/><circle cx="617.9" cy="8.6" r="1.25" fill="hsl(50 30% 92% / 0.62)"/><circle cx="1074.6" cy="131.7" r="1.00" fill="hsl(50 30% 92% / 0.73)"/><circle cx="574.8" cy="35.9" r="0.80" fill="hsl(50 30% 92% / 0.84)"/><circle cx="19.9" cy="377.4" r="0.63" fill="hsl(50 30% 92% / 0.51)"/><circle cx="1208.9" cy="351.9" r="0.99" fill="hsl(50 30% 92% / 0.63)"/><circle cx="1595.8" cy="440.9" r="0.68" fill="hsl(50 30% 92% / 0.50)"/><circle cx="635.8" cy="306.2" r="0.72" fill="hsl(50 30% 92% / 0.79)"/><circle cx="1359.7" cy="65.9" r="0.84" fill="hsl(50 30% 92% / 0.41)"/><circle cx="667.1" cy="215.6" r="1.19" fill="hsl(50 30% 92% / 0.75)"/><circle cx="1400.8" cy="126.3" r="1.30" fill="hsl(50 30% 92% / 0.63)"/><circle cx="857.8" cy="243.5" r="0.68" fill="hsl(50 30% 92% / 0.36)"/><circle cx="111.4" cy="207.5" r="0.89" fill="hsl(50 30% 92% / 0.52)"/><circle cx="652.4" cy="458.5" r="0.86" fill="hsl(50 30% 92% / 0.54)"/><circle cx="1018.6" cy="46.0" r="1.13" fill="hsl(50 30% 92% / 0.78)"/><circle cx="1412.7" cy="445.0" r="2.46" fill="hsl(50 30% 92% / 0.82)"/><circle cx="925.3" cy="497.2" r="2.04" fill="hsl(50 30% 92% / 0.40)"/><circle cx="1210.4" cy="211.5" r="0.88" fill="hsl(50 30% 92% / 0.48)"/><circle cx="1549.5" cy="512.4" r="0.95" fill="hsl(50 30% 92% / 0.63)"/><circle cx="495.4" cy="234.2" r="1.10" fill="hsl(50 30% 92% / 0.79)"/><circle cx="189.0" cy="235.8" r="0.64" fill="hsl(50 30% 92% / 0.43)"/><circle cx="1091.7" cy="382.2" r="1.17" fill="hsl(50 30% 92% / 0.91)"/><circle cx="663.4" cy="135.3" r="0.85" fill="hsl(50 30% 92% / 0.94)"/><circle cx="605.7" cy="135.8" r="0.72" fill="hsl(50 30% 92% / 0.78)"/><circle cx="1414.9" cy="13.0" r="0.84" fill="hsl(50 30% 92% / 0.93)"/><circle cx="85.8" cy="199.1" r="1.22" fill="hsl(50 30% 92% / 0.67)"/><circle cx="969.8" cy="494.9" r="1.25" fill="hsl(50 30% 92% / 0.67)"/><circle cx="997.3" cy="57.4" r="2.14" fill="hsl(50 30% 92% / 0.38)"/><circle cx="700.8" cy="226.6" r="0.83" fill="hsl(50 30% 92% / 0.72)"/><circle cx="1233.0" cy="272.1" r="1.08" fill="hsl(50 30% 92% / 0.88)"/><circle cx="385.7" cy="227.1" r="1.22" fill="hsl(50 30% 92% / 0.87)"/><circle cx="1323.5" cy="410.6" r="0.69" fill="hsl(50 30% 92% / 0.58)"/><circle cx="988.8" cy="251.7" r="1.00" fill="hsl(50 30% 92% / 0.36)"/><circle cx="625.5" cy="32.4" r="2.21" fill="hsl(50 30% 92% / 0.88)"/><circle cx="379.2" cy="154.3" r="1.24" fill="hsl(50 30% 92% / 0.67)"/><circle cx="481.9" cy="55.0" r="0.62" fill="hsl(50 30% 92% / 0.62)"/><circle cx="861.8" cy="471.2" r="0.62" fill="hsl(50 30% 92% / 0.39)"/><circle cx="1166.7" cy="456.6" r="1.21" fill="hsl(50 30% 92% / 0.80)"/><circle cx="1084.4" cy="314.2" r="1.30" fill="hsl(50 30% 92% / 0.65)"/><circle cx="887.5" cy="2.8" r="0.67" fill="hsl(50 30% 92% / 0.94)"/><circle cx="831.4" cy="176.0" r="0.70" fill="hsl(50 30% 92% / 0.93)"/><circle cx="126.9" cy="242.8" r="1.11" fill="hsl(50 30% 92% / 0.44)"/><circle cx="1547.9" cy="379.1" r="0.64" fill="hsl(50 30% 92% / 0.42)"/><circle cx="1520.5" cy="460.3" r="1.24" fill="hsl(50 30% 92% / 0.38)"/><circle cx="1151.3" cy="477.6" r="1.00" fill="hsl(50 30% 92% / 0.61)"/><circle cx="956.4" cy="438.5" r="1.01" fill="hsl(50 30% 92% / 0.74)"/><circle cx="1072.0" cy="111.3" r="0.74" fill="hsl(50 30% 92% / 0.67)"/><circle cx="1271.9" cy="239.1" r="0.93" fill="hsl(50 30% 92% / 0.36)"/><circle cx="205.4" cy="290.3" r="1.00" fill="hsl(50 30% 92% / 0.45)"/><circle cx="629.9" cy="92.5" r="0.95" fill="hsl(50 30% 92% / 0.39)"/><circle cx="1269.4" cy="30.9" r="1.29" fill="hsl(50 30% 92% / 0.91)"/><circle cx="838.7" cy="133.7" r="0.77" fill="hsl(50 30% 92% / 0.63)"/><circle cx="68.5" cy="422.4" r="1.67" fill="hsl(50 30% 92% / 0.48)"/><circle cx="1053.9" cy="80.9" r="1.00" fill="hsl(50 30% 92% / 0.78)"/><circle cx="696.2" cy="78.7" r="1.82" fill="hsl(50 30% 92% / 0.76)"/><circle cx="813.5" cy="383.3" r="0.79" fill="hsl(50 30% 92% / 0.36)"/><circle cx="1410.7" cy="32.6" r="0.73" fill="hsl(50 30% 92% / 0.49)"/><circle cx="116.8" cy="357.7" r="0.85" fill="hsl(50 30% 92% / 0.70)"/></g><circle cx="405.8" cy="161.7" r="110" fill="url(#gnc7ysx-glow)"/><circle cx="405.8" cy="161.7" r="36" fill="hsl(48.0 35.0% 88.0%)"/><path d="M0 900 L0 486.2 Q0.0 486.2 47.1 468.4 Q94.1 450.6 141.2 464.5 Q188.2 478.4 235.3 501.1 Q282.4 523.8 329.4 507.6 Q376.5 491.4 423.5 461.4 Q470.6 431.4 517.6 380.9 Q564.7 330.4 611.8 295.3 Q658.8 260.2 705.9 286.2 Q752.9 312.3 800.0 354.5 Q847.1 396.7 894.1 389.7 Q941.2 382.7 988.2 376.8 Q1035.3 370.9 1082.4 387.6 Q1129.4 404.2 1176.5 419.1 Q1223.5 433.9 1270.6 501.1 Q1317.6 568.3 1364.7 578.8 Q1411.8 589.3 1458.8 519.3 Q1505.9 449.2 1552.9 436.7 L1600 424.2 L1600 900 Z" fill="hsl(223.3 33.9% 19.1%)"/><path d="M0 900 L0 364.8 Q0.0 364.8 38.1 343.8 Q76.2 322.8 114.3 355.7 Q152.4 388.6 190.5 422.8 Q228.6 457.0 266.7 467.9 Q304.8 478.7 342.9 521.9 Q381.0 565.1 419.0 577.2 Q457.1 589.4 495.2 570.1 Q533.3 550.8 571.4 552.6 Q609.5 554.5 647.6 530.2 Q685.7 506.0 723.8 490.3 Q761.9 474.6 800.0 488.0 Q838.1 501.4 876.2 494.3 Q914.3 487.2 952.4 474.3 Q990.5 461.3 1028.6 465.7 Q1066.7 470.1 1104.8 437.3 Q1142.9 404.5 1181.0 368.0 Q1219.0 331.6 1257.1 365.0 Q1295.2 398.4 1333.3 410.5 Q1371.4 422.6 1409.5 435.9 Q1447.6 449.1 1485.7 496.2 Q1523.8 543.4 1561.9 564.7 L1600 586.1 L1600 900 Z" fill="hsl(223.5 33.7% 18.7%)"/><path d="M0 900 L0 575.7 Q0.0 575.7 53.3 540.9 Q106.7 506.2 160.0 506.4 Q213.3 506.6 266.7 491.6 Q320.0 476.6 373.3 502.4 Q426.7 528.3 480.0 524.8 Q533.3 521.4 586.7 538.8 Q640.0 556.2 693.3 549.6 Q746.7 543.1 800.0 545.0 Q853.3 546.8 906.7 575.4 Q960.0 604.0 1013.3 607.6 Q1066.7 611.2 1120.0 632.6 Q1173.3 653.9 1226.7 629.9 Q1280.0 605.9 1333.3 585.6 Q1386.7 565.2 1440.0 540.0 Q1493.3 514.7 1546.7 505.6 L1600 496.6 L1600 900 Z" fill="hsl(224.1 33.3% 17.5%)"/><path d="M0 900 L0 641.7 Q0.0 641.7 44.4 620.8 Q88.9 599.9 133.3 577.6 Q177.8 555.3 222.2 565.2 Q266.7 575.0 311.1 580.8 Q355.6 586.5 400.0 596.5 Q444.4 606.4 488.9 613.1 Q533.3 619.8 577.8 622.3 Q622.2 624.7 666.7 627.3 Q711.1 629.9 755.6 634.3 Q800.0 638.6 844.4 645.9 Q888.9 653.2 933.3 629.0 Q977.8 604.9 1022.2 598.0 Q1066.7 591.1 1111.1 573.1 Q1155.6 555.1 1200.0 552.1 Q1244.4 549.1 1288.9 577.3 Q1333.3 605.6 1377.8 622.7 Q1422.2 639.9 1466.7 654.9 Q1511.1 670.0 1555.6 680.5 L1600 691.0 L1600 900 Z" fill="hsl(225.0 32.5% 15.5%)"/><path d="M0 900 L0 670.1 Q0.0 670.1 50.0 681.0 Q100.0 691.8 150.0 682.2 Q200.0 672.6 250.0 673.1 Q300.0 673.7 350.0 659.0 Q400.0 644.4 450.0 637.1 Q500.0 629.8 550.0 630.3 Q600.0 630.9 650.0 610.0 Q700.0 589.2 750.0 589.6 Q800.0 590.0 850.0 634.0 Q900.0 678.0 950.0 692.4 Q1000.0 706.8 1050.0 696.3 Q1100.0 685.8 1150.0 668.0 Q1200.0 650.2 1250.0 652.0 Q1300.0 653.9 1350.0 637.0 Q1400.0 620.1 1450.0 621.0 Q1500.0 621.9 1550.0 606.9 L1600 592.0 L1600 900 Z" fill="hsl(226.3 31.4% 12.7%)"/><path d="M0 900 L0 682.6 Q0.0 682.6 47.1 685.7 Q94.1 688.9 141.2 674.1 Q188.2 659.4 235.3 661.5 Q282.4 663.5 329.4 646.0 Q376.5 628.4 423.5 649.8 Q470.6 671.1 517.6 682.8 Q564.7 694.5 611.8 714.4 Q658.8 734.3 705.9 735.6 Q752.9 737.0 800.0 724.4 Q847.1 711.8 894.1 691.4 Q941.2 671.0 988.2 652.5 Q1035.3 633.9 1082.4 639.6 Q1129.4 645.3 1176.5 642.7 Q1223.5 640.1 1270.6 663.6 Q1317.6 687.1 1364.7 686.2 Q1411.8 685.3 1458.8 692.0 Q1505.9 698.7 1552.9 694.9 L1600 691.1 L1600 900 Z" fill="hsl(228.0 30.0% 9.0%)"/><path d="M805.7 900 C744.6 740.8048750599846 628.8 651.6 634.8 581.6 L636.8 581.6 C644.8 651.6 1256.6 740.8048750599846 1317.7 900 Z" fill="hsl(228.0 22.0% 13.0%)"/><path d="M1061.7 900 C1000.6 740.8048750599846 634.8 641.6 635.8 581.6" fill="none" stroke="hsl(45 90% 70% / 0.85)" stroke-width="7" stroke-dasharray="46 38" stroke-linecap="round"/><rect width="1600" height="900" fill="url(#gnc7ysx-vig)"/></svg>