<svg xmlns="http://www.w3.org/2000/svg" viewBox="0 0 1600 900" role="img" preserveAspectRatio="xMidYMid slice"><title>a-pa-chai-cuc-tay hero</title><defs><linearGradient id="g1ska5il-sky" x1="0" y1="0" x2="0" y2="1"><stop offset="0%" stop-color="hsl(265.0 38.0% 26.0%)"/><stop offset="50%" stop-color="hsl(348.0 55.0% 46.0%)"/><stop offset="100%" stop-color="hsl(22.0 90.0% 58.0%)"/></linearGradient><radialGradient id="g1ska5il-glow"><stop offset="0%" stop-color="hsl(24.0 95.0% 66.0% / 0.850)"/><stop offset="45%" stop-color="hsl(24.0 95.0% 66.0% / 0.250)"/><stop offset="100%" stop-color="hsl(24.0 95.0% 66.0% / 0.000)"/></radialGradient><radialGradient id="g1ska5il-vig" cx="50%" cy="42%" r="75%"><stop offset="70%" stop-color="hsl(0 0% 0% / 0)"/><stop offset="100%" stop-color="hsl(0 0% 0% / 0.18)"/></radialGradient></defs><rect width="1600" height="561.2" fill="url(#g1ska5il-sky)"/><rect y="560.2" width="1600" height="339.8" fill="hsl(305.5 43.5% 25.0%)"/><circle cx="1005.0" cy="493.8" r="230" fill="url(#g1ska5il-glow)"/><circle cx="1005.0" cy="493.8" r="78" fill="hsl(24.0 95.0% 66.0%)"/><path d="M0 900 L0 390.7 Q0.0 390.7 38.1 398.7 Q76.2 406.8 114.3 396.9 Q152.4 387.0 190.5 403.7 Q228.6 420.3 266.7 444.1 Q304.8 467.9 342.9 444.2 Q381.0 420.5 419.0 434.3 Q457.1 448.1 495.2 475.7 Q533.3 503.4 571.4 508.3 Q609.5 513.2 647.6 499.8 Q685.7 486.4 723.8 488.4 Q761.9 490.5 800.0 500.3 Q838.1 510.2 876.2 460.2 Q914.3 410.2 952.4 400.7 Q990.5 391.2 1028.6 391.0 Q1066.7 390.8 1104.8 358.0 Q1142.9 325.2 1181.0 333.1 Q1219.0 340.9 1257.1 382.7 Q1295.2 424.5 1333.3 461.0 Q1371.4 497.5 1409.5 499.1 Q1447.6 500.7 1485.7 520.2 Q1523.8 539.7 1561.9 545.2 L1600 550.7 L1600 900 Z" fill="hsl(359.6 76.4% 48.3%)"/><path d="M0 900 L0 414.0 Q0.0 414.0 50.0 422.7 Q100.0 431.3 150.0 437.3 Q200.0 443.3 250.0 435.1 Q300.0 426.8 350.0 414.7 Q400.0 402.5 450.0 465.4 Q500.0 528.3 550.0 555.3 Q600.0 582.4 650.0 568.5 Q700.0 554.7 750.0 551.5 Q800.0 548.2 850.0 533.1 Q900.0 518.0 950.0 529.3 Q1000.0 540.7 1050.0 519.2 Q1100.0 497.7 1150.0 445.3 Q1200.0 393.0 1250.0 394.9 Q1300.0 396.8 1350.0 399.9 Q1400.0 403.0 1450.0 435.9 Q1500.0 468.9 1550.0 482.6 L1600 496.3 L1600 900 Z" fill="hsl(354.6 73.3% 46.2%)"/><path d="M0 900 L0 499.6 Q0.0 499.6 44.4 492.0 Q88.9 484.4 133.3 492.5 Q177.8 500.6 222.2 508.2 Q266.7 515.8 311.1 553.3 Q355.6 590.8 400.0 595.0 Q444.4 599.3 488.9 580.2 Q533.3 561.1 577.8 579.3 Q622.2 597.5 666.7 601.9 Q711.1 606.4 755.6 604.9 Q800.0 603.4 844.4 601.8 Q888.9 600.1 933.3 554.8 Q977.8 509.6 1022.2 478.3 Q1066.7 447.1 1111.1 471.1 Q1155.6 495.0 1200.0 525.5 Q1244.4 555.9 1288.9 549.8 Q1333.3 543.7 1377.8 552.7 Q1422.2 561.6 1466.7 559.0 Q1511.1 556.5 1555.6 575.8 L1600 595.2 L1600 900 Z" fill="hsl(339.7 64.3% 39.7%)"/><path d="M0 900 L0 615.8 Q0.0 615.8 38.1 619.6 Q76.2 623.4 114.3 622.6 Q152.4 621.8 190.5 618.1 Q228.6 614.4 266.7 618.6 Q304.8 622.8 342.9 622.9 Q381.0 622.9 419.0 619.8 Q457.1 616.8 495.2 618.7 Q533.3 620.6 571.4 646.1 Q609.5 671.6 647.6 684.1 Q685.7 696.6 723.8 693.2 Q761.9 689.7 800.0 677.8 Q838.1 665.8 876.2 646.9 Q914.3 628.0 952.4 635.9 Q990.5 643.8 1028.6 637.7 Q1066.7 631.7 1104.8 624.3 Q1142.9 616.9 1181.0 617.9 Q1219.0 618.9 1257.1 620.4 Q1295.2 621.9 1333.3 606.3 Q1371.4 590.8 1409.5 591.5 Q1447.6 592.3 1485.7 619.6 Q1523.8 646.9 1561.9 672.1 L1600 697.3 L1600 900 Z" fill="hsl(314.8 49.2% 29.0%)"/><path d="M0 900 L0 726.6 Q0.0 726.6 42.1 731.0 Q84.2 735.4 126.3 724.2 Q168.4 713.1 210.5 713.7 Q252.6 714.4 294.7 713.5 Q336.8 712.7 378.9 708.2 Q421.1 703.7 463.2 708.4 Q505.3 713.2 547.4 707.5 Q589.5 701.8 631.6 692.6 Q673.7 683.4 715.8 684.8 Q757.9 686.1 800.0 669.5 Q842.1 652.9 884.2 646.7 Q926.3 640.6 968.4 660.2 Q1010.5 679.8 1052.6 683.8 Q1094.7 687.9 1136.8 703.0 Q1178.9 718.1 1221.1 723.6 Q1263.2 729.1 1305.3 722.0 Q1347.4 714.9 1389.5 720.4 Q1431.6 725.9 1473.7 717.1 Q1515.8 708.2 1557.9 706.4 L1600 704.7 L1600 900 Z" fill="hsl(280.0 28.0% 14.0%)"/><path d="M608.5 900 C802.6 732.594598329626 889.4 635.2 895.4 565.2 L897.4 565.2 C905.4 635.2 1314.6 732.594598329626 1120.5 900 Z" fill="hsl(280.0 15.4% 21.0%)"/><path d="M864.5 900 C1058.6 732.594598329626 895.4 625.2 896.4 565.2" fill="none" stroke="hsl(45 30% 92% / 0.8)" stroke-width="7" stroke-dasharray="46 38" stroke-linecap="round"/><rect width="1600" height="900" fill="url(#g1ska5il-vig)"/></svg>