<svg xmlns="http://www.w3.org/2000/svg" viewBox="0 0 1600 900" role="img" preserveAspectRatio="xMidYMid slice"><title>a-pa-chai-cuc-tay s2</title><defs><linearGradient id="g1bnt6io-sky" x1="0" y1="0" x2="0" y2="1"><stop offset="0%" stop-color="hsl(232.0 45.0% 8.0%)"/><stop offset="50%" stop-color="hsl(228.0 40.0% 14.0%)"/><stop offset="100%" stop-color="hsl(222.0 35.0% 22.0%)"/></linearGradient><radialGradient id="g1bnt6io-glow"><stop offset="0%" stop-color="hsl(48.0 35.0% 88.0% / 0.850)"/><stop offset="45%" stop-color="hsl(48.0 35.0% 88.0% / 0.250)"/><stop offset="100%" stop-color="hsl(48.0 35.0% 88.0% / 0.000)"/></radialGradient><radialGradient id="g1bnt6io-vig" cx="50%" cy="42%" r="75%"><stop offset="70%" stop-color="hsl(0 0% 0% / 0)"/><stop offset="100%" stop-color="hsl(0 0% 0% / 0.18)"/></radialGradient></defs><rect width="1600" height="594.9" fill="url(#g1bnt6io-sky)"/><rect y="593.9" width="1600" height="306.1" fill="hsl(226.5 31.3% 12.3%)"/><g><circle cx="1140.6" cy="378.6" r="2.56" fill="hsl(50 30% 92% / 0.68)"/><circle cx="449.6" cy="329.7" r="0.96" fill="hsl(50 30% 92% / 0.51)"/><circle cx="290.9" cy="456.8" r="0.85" fill="hsl(50 30% 92% / 0.38)"/><circle cx="1147.1" cy="247.5" r="0.61" fill="hsl(50 30% 92% / 0.77)"/><circle cx="656.9" cy="72.9" r="2.38" fill="hsl(50 30% 92% / 0.75)"/><circle cx="599.1" cy="0.6" r="1.30" fill="hsl(50 30% 92% / 0.41)"/><circle cx="1386.6" cy="508.9" r="1.61" fill="hsl(50 30% 92% / 0.80)"/><circle cx="1023.3" cy="97.7" r="0.99" fill="hsl(50 30% 92% / 0.87)"/><circle cx="680.8" cy="541.0" r="0.87" fill="hsl(50 30% 92% / 0.66)"/><circle cx="1596.2" cy="105.8" r="0.94" fill="hsl(50 30% 92% / 0.62)"/><circle cx="1100.3" cy="151.7" r="1.23" fill="hsl(50 30% 92% / 0.35)"/><circle cx="555.1" cy="405.4" r="1.16" fill="hsl(50 30% 92% / 0.80)"/><circle cx="560.3" cy="54.0" r="0.93" fill="hsl(50 30% 92% / 0.53)"/><circle cx="771.4" cy="406.8" r="0.63" fill="hsl(50 30% 92% / 0.91)"/><circle cx="866.4" cy="197.9" r="0.60" fill="hsl(50 30% 92% / 0.90)"/><circle cx="1297.7" cy="326.6" r="1.00" fill="hsl(50 30% 92% / 0.93)"/><circle cx="652.7" cy="494.2" r="2.36" fill="hsl(50 30% 92% / 0.66)"/><circle cx="189.9" cy="279.6" r="0.80" fill="hsl(50 30% 92% / 0.85)"/><circle cx="177.0" cy="88.0" r="1.23" fill="hsl(50 30% 92% / 0.38)"/><circle cx="755.1" cy="274.1" r="0.67" fill="hsl(50 30% 92% / 0.73)"/><circle cx="302.5" cy="209.0" r="0.61" fill="hsl(50 30% 92% / 0.89)"/><circle cx="1381.8" cy="353.9" r="1.10" fill="hsl(50 30% 92% / 0.52)"/><circle cx="486.1" cy="16.7" r="0.95" fill="hsl(50 30% 92% / 0.55)"/><circle cx="1239.2" cy="91.8" r="2.25" fill="hsl(50 30% 92% / 0.80)"/><circle cx="731.6" cy="503.4" r="0.98" fill="hsl(50 30% 92% / 0.69)"/><circle cx="238.3" cy="439.9" r="1.04" fill="hsl(50 30% 92% / 0.38)"/><circle cx="586.7" cy="537.4" r="0.67" fill="hsl(50 30% 92% / 0.38)"/><circle cx="744.4" cy="423.9" r="1.15" fill="hsl(50 30% 92% / 0.68)"/><circle cx="333.8" cy="9.8" r="1.09" fill="hsl(50 30% 92% / 0.77)"/><circle cx="1417.4" cy="298.4" r="1.10" fill="hsl(50 30% 92% / 0.43)"/><circle cx="565.9" cy="18.1" r="0.99" fill="hsl(50 30% 92% / 0.85)"/><circle cx="1557.3" cy="153.5" r="1.07" fill="hsl(50 30% 92% / 0.92)"/><circle cx="583.4" cy="401.7" r="0.84" fill="hsl(50 30% 92% / 0.67)"/><circle cx="62.1" cy="126.6" r="1.10" fill="hsl(50 30% 92% / 0.52)"/><circle cx="757.5" cy="104.3" r="0.78" fill="hsl(50 30% 92% / 0.82)"/><circle cx="861.0" cy="64.4" r="1.05" fill="hsl(50 30% 92% / 0.92)"/><circle cx="289.6" cy="463.1" r="0.93" fill="hsl(50 30% 92% / 0.36)"/><circle cx="246.8" cy="146.2" r="1.03" fill="hsl(50 30% 92% / 0.37)"/><circle cx="999.7" cy="63.3" r="1.29" fill="hsl(50 30% 92% / 0.74)"/><circle cx="1091.1" cy="230.8" r="0.90" fill="hsl(50 30% 92% / 0.91)"/><circle cx="705.9" cy="392.3" r="1.27" fill="hsl(50 30% 92% / 0.40)"/><circle cx="506.4" cy="113.3" r="0.89" fill="hsl(50 30% 92% / 0.78)"/><circle cx="765.7" cy="381.7" r="0.98" fill="hsl(50 30% 92% / 0.63)"/><circle cx="871.0" cy="337.9" r="0.79" fill="hsl(50 30% 92% / 0.60)"/><circle cx="100.1" cy="492.4" r="1.24" fill="hsl(50 30% 92% / 0.56)"/><circle cx="940.7" cy="198.7" r="0.73" fill="hsl(50 30% 92% / 0.77)"/><circle cx="87.7" cy="335.3" r="1.00" fill="hsl(50 30% 92% / 0.46)"/><circle cx="839.8" cy="40.4" r="0.81" fill="hsl(50 30% 92% / 0.55)"/><circle cx="708.5" cy="464.3" r="1.23" fill="hsl(50 30% 92% / 0.42)"/><circle cx="204.0" cy="446.5" r="1.09" fill="hsl(50 30% 92% / 0.74)"/><circle cx="1293.6" cy="12.0" r="0.80" fill="hsl(50 30% 92% / 0.77)"/><circle cx="1312.5" cy="4.7" r="1.02" fill="hsl(50 30% 92% / 0.93)"/><circle cx="183.9" cy="311.1" r="0.66" fill="hsl(50 30% 92% / 0.65)"/><circle cx="1052.8" cy="187.4" r="1.19" fill="hsl(50 30% 92% / 0.62)"/><circle cx="721.8" cy="20.7" r="1.12" fill="hsl(50 30% 92% / 0.37)"/><circle cx="589.0" cy="78.2" r="0.72" fill="hsl(50 30% 92% / 0.37)"/><circle cx="918.4" cy="538.8" r="0.78" fill="hsl(50 30% 92% / 0.73)"/><circle cx="1342.5" cy="524.7" r="1.24" fill="hsl(50 30% 92% / 0.36)"/><circle cx="828.7" cy="510.2" r="1.27" fill="hsl(50 30% 92% / 0.39)"/><circle cx="878.9" cy="470.2" r="0.67" fill="hsl(50 30% 92% / 0.52)"/><circle cx="1072.0" cy="141.7" r="1.10" fill="hsl(50 30% 92% / 0.61)"/><circle cx="720.6" cy="405.8" r="1.19" fill="hsl(50 30% 92% / 0.45)"/><circle cx="1549.9" cy="154.3" r="1.28" fill="hsl(50 30% 92% / 0.70)"/><circle cx="736.1" cy="55.0" r="1.15" fill="hsl(50 30% 92% / 0.59)"/><circle cx="3.0" cy="203.9" r="0.97" fill="hsl(50 30% 92% / 0.46)"/><circle cx="1193.4" cy="67.5" r="1.26" fill="hsl(50 30% 92% / 0.94)"/><circle cx="168.3" cy="264.5" r="1.29" fill="hsl(50 30% 92% / 0.48)"/><circle cx="1336.2" cy="111.8" r="0.84" fill="hsl(50 30% 92% / 0.95)"/><circle cx="1579.4" cy="477.6" r="0.86" fill="hsl(50 30% 92% / 0.85)"/><circle cx="1286.2" cy="496.9" r="0.91" fill="hsl(50 30% 92% / 0.85)"/><circle cx="1122.8" cy="133.4" r="2.20" fill="hsl(50 30% 92% / 0.71)"/><circle cx="1472.2" cy="100.3" r="1.15" fill="hsl(50 30% 92% / 0.43)"/><circle cx="348.3" cy="403.0" r="1.11" fill="hsl(50 30% 92% / 0.47)"/><circle cx="517.3" cy="498.0" r="1.00" fill="hsl(50 30% 92% / 0.64)"/><circle cx="518.1" cy="245.2" r="0.61" fill="hsl(50 30% 92% / 0.91)"/><circle cx="1122.7" cy="519.2" r="1.00" fill="hsl(50 30% 92% / 0.44)"/><circle cx="1275.4" cy="241.1" r="2.04" fill="hsl(50 30% 92% / 0.73)"/><circle cx="1359.8" cy="543.9" r="0.77" fill="hsl(50 30% 92% / 0.55)"/><circle cx="795.9" cy="477.5" r="0.64" fill="hsl(50 30% 92% / 0.39)"/><circle cx="1059.5" cy="164.3" r="0.84" fill="hsl(50 30% 92% / 0.76)"/><circle cx="429.3" cy="50.5" r="1.11" fill="hsl(50 30% 92% / 0.72)"/><circle cx="193.4" cy="171.4" r="1.12" fill="hsl(50 30% 92% / 0.71)"/><circle cx="815.9" cy="398.9" r="2.53" fill="hsl(50 30% 92% / 0.65)"/><circle cx="385.1" cy="197.4" r="0.82" fill="hsl(50 30% 92% / 0.45)"/><circle cx="271.2" cy="161.2" r="1.09" fill="hsl(50 30% 92% / 0.37)"/><circle cx="1249.5" cy="22.7" r="0.73" fill="hsl(50 30% 92% / 0.86)"/><circle cx="1181.4" cy="24.7" r="1.03" fill="hsl(50 30% 92% / 0.46)"/><circle cx="1145.1" cy="260.3" r="1.22" fill="hsl(50 30% 92% / 0.43)"/><circle cx="270.5" cy="109.9" r="1.00" fill="hsl(50 30% 92% / 0.61)"/><circle cx="1181.4" cy="545.2" r="1.01" fill="hsl(50 30% 92% / 0.59)"/><circle cx="1096.1" cy="237.4" r="1.21" fill="hsl(50 30% 92% / 0.51)"/><circle cx="767.3" cy="87.9" r="1.00" fill="hsl(50 30% 92% / 0.39)"/><circle cx="859.0" cy="468.8" r="0.61" fill="hsl(50 30% 92% / 0.64)"/><circle cx="872.0" cy="484.7" r="1.22" fill="hsl(50 30% 92% / 0.61)"/><circle cx="680.9" cy="369.8" r="0.83" fill="hsl(50 30% 92% / 0.88)"/><circle cx="433.5" cy="284.5" r="0.86" fill="hsl(50 30% 92% / 0.67)"/><circle cx="836.0" cy="167.0" r="2.12" fill="hsl(50 30% 92% / 0.92)"/><circle cx="1482.1" cy="25.6" r="0.70" fill="hsl(50 30% 92% / 0.63)"/><circle cx="743.1" cy="193.6" r="1.77" fill="hsl(50 30% 92% / 0.53)"/><circle cx="576.3" cy="59.3" r="1.17" fill="hsl(50 30% 92% / 0.43)"/><circle cx="986.2" cy="346.6" r="0.87" fill="hsl(50 30% 92% / 0.54)"/><circle cx="1375.5" cy="234.3" r="2.49" fill="hsl(50 30% 92% / 0.77)"/><circle cx="841.6" cy="79.5" r="2.26" fill="hsl(50 30% 92% / 0.95)"/><circle cx="92.7" cy="208.6" r="0.81" fill="hsl(50 30% 92% / 0.77)"/><circle cx="1475.3" cy="222.4" r="1.92" fill="hsl(50 30% 92% / 0.39)"/><circle cx="1429.1" cy="391.2" r="1.21" fill="hsl(50 30% 92% / 0.64)"/><circle cx="863.5" cy="167.0" r="1.12" fill="hsl(50 30% 92% / 0.60)"/><circle cx="998.9" cy="336.4" r="0.71" fill="hsl(50 30% 92% / 0.49)"/><circle cx="576.8" cy="451.6" r="0.79" fill="hsl(50 30% 92% / 0.52)"/><circle cx="367.2" cy="519.1" r="0.62" fill="hsl(50 30% 92% / 0.66)"/><circle cx="1447.6" cy="163.6" r="0.92" fill="hsl(50 30% 92% / 0.74)"/><circle cx="688.4" cy="358.0" r="0.79" fill="hsl(50 30% 92% / 0.67)"/><circle cx="230.9" cy="197.5" r="1.07" fill="hsl(50 30% 92% / 0.81)"/><circle cx="525.5" cy="9.8" r="1.02" fill="hsl(50 30% 92% / 0.45)"/><circle cx="1439.5" cy="181.3" r="1.11" fill="hsl(50 30% 92% / 0.51)"/><circle cx="1483.1" cy="296.7" r="1.11" fill="hsl(50 30% 92% / 0.52)"/><circle cx="737.0" cy="212.9" r="0.69" fill="hsl(50 30% 92% / 0.63)"/><circle cx="27.0" cy="405.1" r="0.77" fill="hsl(50 30% 92% / 0.40)"/><circle cx="381.4" cy="342.6" r="1.10" fill="hsl(50 30% 92% / 0.80)"/><circle cx="506.4" cy="524.9" r="1.20" fill="hsl(50 30% 92% / 0.51)"/><circle cx="1354.2" cy="297.7" r="2.40" fill="hsl(50 30% 92% / 0.80)"/><circle cx="307.1" cy="416.0" r="0.67" fill="hsl(50 30% 92% / 0.62)"/><circle cx="336.2" cy="442.9" r="2.11" fill="hsl(50 30% 92% / 0.94)"/><circle cx="1190.2" cy="115.7" r="0.62" fill="hsl(50 30% 92% / 0.88)"/><circle cx="904.3" cy="494.9" r="0.70" fill="hsl(50 30% 92% / 0.74)"/><circle cx="1314.1" cy="277.9" r="0.83" fill="hsl(50 30% 92% / 0.41)"/><circle cx="361.8" cy="116.2" r="0.86" fill="hsl(50 30% 92% / 0.40)"/><circle cx="539.7" cy="232.1" r="0.74" fill="hsl(50 30% 92% / 0.37)"/><circle cx="1251.9" cy="416.0" r="1.10" fill="hsl(50 30% 92% / 0.90)"/><circle cx="541.5" cy="82.2" r="0.97" fill="hsl(50 30% 92% / 0.51)"/><circle cx="1114.3" cy="428.3" r="2.51" fill="hsl(50 30% 92% / 0.49)"/><circle cx="1093.5" cy="484.7" r="1.27" fill="hsl(50 30% 92% / 0.62)"/><circle cx="1090.6" cy="425.4" r="1.10" fill="hsl(50 30% 92% / 0.60)"/><circle cx="196.9" cy="321.4" r="0.77" fill="hsl(50 30% 92% / 0.83)"/><circle cx="1073.0" cy="20.0" r="0.83" fill="hsl(50 30% 92% / 0.66)"/><circle cx="936.0" cy="535.8" r="2.49" fill="hsl(50 30% 92% / 0.63)"/><circle cx="605.9" cy="32.8" r="0.68" fill="hsl(50 30% 92% / 0.44)"/><circle cx="813.0" cy="56.5" r="0.69" fill="hsl(50 30% 92% / 0.44)"/><circle cx="704.6" cy="69.7" r="0.64" fill="hsl(50 30% 92% / 0.81)"/><circle cx="371.0" cy="518.9" r="1.95" fill="hsl(50 30% 92% / 0.61)"/><circle cx="1324.5" cy="186.6" r="0.85" fill="hsl(50 30% 92% / 0.66)"/><circle cx="1019.7" cy="329.3" r="0.61" fill="hsl(50 30% 92% / 0.41)"/><circle cx="810.7" cy="303.3" r="0.77" fill="hsl(50 30% 92% / 0.61)"/><circle cx="798.7" cy="204.1" r="0.92" fill="hsl(50 30% 92% / 0.52)"/><circle cx="744.4" cy="289.7" r="1.11" fill="hsl(50 30% 92% / 0.73)"/><circle cx="109.3" cy="21.9" r="1.28" fill="hsl(50 30% 92% / 0.46)"/><circle cx="1405.5" cy="382.7" r="0.74" fill="hsl(50 30% 92% / 0.51)"/><circle cx="171.4" cy="110.7" r="0.78" fill="hsl(50 30% 92% / 0.60)"/><circle cx="501.7" cy="43.2" r="1.07" fill="hsl(50 30% 92% / 0.83)"/><circle cx="1384.2" cy="314.1" r="0.71" fill="hsl(50 30% 92% / 0.54)"/><circle cx="329.1" cy="12.3" r="1.29" fill="hsl(50 30% 92% / 0.56)"/><circle cx="502.7" cy="226.2" r="0.67" fill="hsl(50 30% 92% / 0.49)"/><circle cx="501.6" cy="8.2" r="0.76" fill="hsl(50 30% 92% / 0.76)"/></g><circle cx="929.7" cy="166.6" r="110" fill="url(#g1bnt6io-glow)"/><circle cx="929.7" cy="166.6" r="36" fill="hsl(48.0 35.0% 88.0%)"/><path d="M0 900 L0 375.7 Q0.0 375.7 40.0 419.2 Q80.0 462.7 120.0 525.6 Q160.0 588.6 200.0 588.0 Q240.0 587.4 280.0 552.7 Q320.0 518.0 360.0 496.8 Q400.0 475.5 440.0 460.0 Q480.0 444.5 520.0 419.4 Q560.0 394.2 600.0 396.2 Q640.0 398.2 680.0 415.1 Q720.0 432.0 760.0 406.0 Q800.0 380.1 840.0 369.1 Q880.0 358.2 920.0 366.4 Q960.0 374.5 1000.0 454.0 Q1040.0 533.5 1080.0 559.5 Q1120.0 585.5 1160.0 579.0 Q1200.0 572.4 1240.0 544.6 Q1280.0 516.9 1320.0 496.2 Q1360.0 475.5 1400.0 427.1 Q1440.0 378.6 1480.0 358.6 Q1520.0 338.5 1560.0 374.3 L1600 410.1 L1600 900 Z" fill="hsl(223.3 33.9% 19.1%)"/><path d="M0 900 L0 469.8 Q0.0 469.8 42.1 473.6 Q84.2 477.5 126.3 524.1 Q168.4 570.8 210.5 598.5 Q252.6 626.1 294.7 608.1 Q336.8 590.1 378.9 563.7 Q421.1 537.4 463.2 508.8 Q505.3 480.3 547.4 440.7 Q589.5 401.0 631.6 369.0 Q673.7 337.1 715.8 375.3 Q757.9 413.5 800.0 467.2 Q842.1 521.0 884.2 532.8 Q926.3 544.6 968.4 545.6 Q1010.5 546.7 1052.6 549.9 Q1094.7 553.0 1136.8 533.3 Q1178.9 513.5 1221.1 519.2 Q1263.2 524.9 1305.3 533.6 Q1347.4 542.4 1389.5 524.7 Q1431.6 507.0 1473.7 483.3 Q1515.8 459.5 1557.9 433.8 L1600 408.2 L1600 900 Z" fill="hsl(223.5 33.7% 18.7%)"/><path d="M0 900 L0 611.9 Q0.0 611.9 44.4 619.6 Q88.9 627.4 133.3 633.1 Q177.8 638.8 222.2 603.0 Q266.7 567.2 311.1 547.0 Q355.6 526.8 400.0 535.4 Q444.4 544.1 488.9 520.4 Q533.3 496.7 577.8 493.3 Q622.2 489.8 666.7 494.0 Q711.1 498.1 755.6 485.3 Q800.0 472.5 844.4 519.8 Q888.9 567.0 933.3 595.0 Q977.8 623.0 1022.2 642.8 Q1066.7 662.6 1111.1 652.0 Q1155.6 641.3 1200.0 584.3 Q1244.4 527.3 1288.9 521.4 Q1333.3 515.6 1377.8 507.1 Q1422.2 498.7 1466.7 499.8 Q1511.1 501.0 1555.6 518.9 L1600 536.9 L1600 900 Z" fill="hsl(224.1 33.3% 17.5%)"/><path d="M0 900 L0 602.1 Q0.0 602.1 50.0 594.5 Q100.0 586.9 150.0 577.6 Q200.0 568.2 250.0 574.7 Q300.0 581.3 350.0 563.4 Q400.0 545.6 450.0 558.1 Q500.0 570.6 550.0 574.9 Q600.0 579.2 650.0 613.8 Q700.0 648.4 750.0 650.8 Q800.0 653.1 850.0 659.4 Q900.0 665.6 950.0 620.5 Q1000.0 575.3 1050.0 551.9 Q1100.0 528.6 1150.0 505.7 Q1200.0 482.8 1250.0 519.5 Q1300.0 556.2 1350.0 577.3 Q1400.0 598.3 1450.0 637.0 Q1500.0 675.6 1550.0 678.6 L1600 681.6 L1600 900 Z" fill="hsl(225.0 32.5% 15.5%)"/><path d="M0 900 L0 699.9 Q0.0 699.9 50.0 708.1 Q100.0 716.3 150.0 704.9 Q200.0 693.6 250.0 663.8 Q300.0 634.1 350.0 631.8 Q400.0 629.4 450.0 638.0 Q500.0 646.6 550.0 634.9 Q600.0 623.1 650.0 608.9 Q700.0 594.7 750.0 602.4 Q800.0 610.2 850.0 624.8 Q900.0 639.4 950.0 656.1 Q1000.0 672.8 1050.0 697.6 Q1100.0 722.4 1150.0 705.0 Q1200.0 687.6 1250.0 675.2 Q1300.0 662.7 1350.0 670.5 Q1400.0 678.2 1450.0 674.6 Q1500.0 671.0 1550.0 652.4 L1600 633.8 L1600 900 Z" fill="hsl(226.3 31.4% 12.7%)"/><path d="M0 900 L0 688.7 Q0.0 688.7 40.0 681.3 Q80.0 673.9 120.0 664.2 Q160.0 654.5 200.0 679.3 Q240.0 704.1 280.0 718.4 Q320.0 732.6 360.0 741.3 Q400.0 750.0 440.0 748.3 Q480.0 746.5 520.0 742.0 Q560.0 737.5 600.0 718.9 Q640.0 700.3 680.0 675.9 Q720.0 651.5 760.0 643.9 Q800.0 636.4 840.0 649.2 Q880.0 661.9 920.0 669.1 Q960.0 676.2 1000.0 686.0 Q1040.0 695.8 1080.0 708.9 Q1120.0 722.1 1160.0 715.0 Q1200.0 707.9 1240.0 704.5 Q1280.0 701.1 1320.0 707.5 Q1360.0 714.0 1400.0 726.8 Q1440.0 739.6 1480.0 728.9 Q1520.0 718.3 1560.0 716.5 L1600 714.7 L1600 900 Z" fill="hsl(228.0 30.0% 9.0%)"/><path d="M724.7 900 C726.1 749.4517363011837 653.3 668.9 659.3 598.9 L661.3 598.9 C669.3 668.9 1238.1 749.4517363011837 1236.7 900 Z" fill="hsl(228.0 22.0% 13.0%)"/><path d="M980.7 900 C982.1 749.4517363011837 659.3 658.9 660.3 598.9" fill="none" stroke="hsl(45 90% 70% / 0.85)" stroke-width="7" stroke-dasharray="46 38" stroke-linecap="round"/><rect width="1600" height="900" fill="url(#g1bnt6io-vig)"/></svg>