<svg xmlns="http://www.w3.org/2000/svg" viewBox="0 0 1600 900" role="img" preserveAspectRatio="xMidYMid slice"><title>a-pa-chai-cuc-tay s1</title><defs><linearGradient id="gejxk59-sky" x1="0" y1="0" x2="0" y2="1"><stop offset="0%" stop-color="hsl(265.0 38.0% 26.0%)"/><stop offset="50%" stop-color="hsl(348.0 55.0% 46.0%)"/><stop offset="100%" stop-color="hsl(22.0 90.0% 58.0%)"/></linearGradient><radialGradient id="gejxk59-glow"><stop offset="0%" stop-color="hsl(24.0 95.0% 66.0% / 0.850)"/><stop offset="45%" stop-color="hsl(24.0 95.0% 66.0% / 0.250)"/><stop offset="100%" stop-color="hsl(24.0 95.0% 66.0% / 0.000)"/></radialGradient><radialGradient id="gejxk59-vig" cx="50%" cy="42%" r="75%"><stop offset="70%" stop-color="hsl(0 0% 0% / 0)"/><stop offset="100%" stop-color="hsl(0 0% 0% / 0.18)"/></radialGradient></defs><rect width="1600" height="531.7" fill="url(#gejxk59-sky)"/><rect y="530.7" width="1600" height="369.3" fill="hsl(305.5 43.5% 25.0%)"/><circle cx="572.4" cy="467.9" r="230" fill="url(#gejxk59-glow)"/><circle cx="572.4" cy="467.9" r="78" fill="hsl(24.0 95.0% 66.0%)"/><path d="M0 900 L0 514.1 Q0.0 514.1 44.4 502.9 Q88.9 491.7 133.3 488.8 Q177.8 486.0 222.2 453.7 Q266.7 421.5 311.1 385.2 Q355.6 348.9 400.0 338.5 Q444.4 328.1 488.9 336.3 Q533.3 344.5 577.8 344.1 Q622.2 343.7 666.7 384.3 Q711.1 424.9 755.6 433.5 Q800.0 442.2 844.4 445.2 Q888.9 448.1 933.3 478.7 Q977.8 509.3 1022.2 497.3 Q1066.7 485.3 1111.1 457.5 Q1155.6 429.8 1200.0 454.4 Q1244.4 479.0 1288.9 476.7 Q1333.3 474.4 1377.8 459.8 Q1422.2 445.1 1466.7 457.8 Q1511.1 470.4 1555.6 439.2 L1600 408.0 L1600 900 Z" fill="hsl(359.6 76.4% 48.3%)"/><path d="M0 900 L0 547.6 Q0.0 547.6 44.4 542.3 Q88.9 536.9 133.3 508.6 Q177.8 480.2 222.2 495.9 Q266.7 511.5 311.1 499.3 Q355.6 487.1 400.0 463.8 Q444.4 440.6 488.9 458.7 Q533.3 476.7 577.8 436.0 Q622.2 395.3 666.7 372.1 Q711.1 348.8 755.6 377.1 Q800.0 405.5 844.4 424.6 Q888.9 443.6 933.3 482.0 Q977.8 520.5 1022.2 551.9 Q1066.7 583.3 1111.1 562.2 Q1155.6 541.0 1200.0 505.5 Q1244.4 470.0 1288.9 473.6 Q1333.3 477.2 1377.8 470.1 Q1422.2 463.0 1466.7 457.1 Q1511.1 451.2 1555.6 459.9 L1600 468.6 L1600 900 Z" fill="hsl(357.4 75.0% 47.4%)"/><path d="M0 900 L0 546.2 Q0.0 546.2 40.0 534.8 Q80.0 523.4 120.0 485.8 Q160.0 448.1 200.0 461.2 Q240.0 474.2 280.0 479.6 Q320.0 485.0 360.0 470.6 Q400.0 456.2 440.0 455.4 Q480.0 454.5 520.0 448.5 Q560.0 442.4 600.0 471.2 Q640.0 500.0 680.0 552.3 Q720.0 604.6 760.0 590.6 Q800.0 576.7 840.0 565.8 Q880.0 554.9 920.0 538.8 Q960.0 522.8 1000.0 495.1 Q1040.0 467.4 1080.0 481.2 Q1120.0 495.0 1160.0 485.8 Q1200.0 476.5 1240.0 466.1 Q1280.0 455.6 1320.0 449.8 Q1360.0 443.9 1400.0 435.1 Q1440.0 426.3 1480.0 453.9 Q1520.0 481.6 1560.0 534.0 L1600 586.4 L1600 900 Z" fill="hsl(350.7 71.0% 44.5%)"/><path d="M0 900 L0 522.3 Q0.0 522.3 44.4 515.2 Q88.9 508.0 133.3 502.3 Q177.8 496.5 222.2 505.8 Q266.7 515.1 311.1 534.2 Q355.6 553.2 400.0 571.6 Q444.4 589.9 488.9 607.9 Q533.3 625.9 577.8 607.7 Q622.2 589.5 666.7 562.7 Q711.1 536.0 755.6 554.8 Q800.0 573.6 844.4 549.4 Q888.9 525.2 933.3 534.1 Q977.8 543.0 1022.2 522.9 Q1066.7 502.7 1111.1 459.1 Q1155.6 415.6 1200.0 426.6 Q1244.4 437.6 1288.9 472.2 Q1333.3 506.8 1377.8 517.3 Q1422.2 527.9 1466.7 535.5 Q1511.1 543.0 1555.6 549.4 L1600 555.8 L1600 900 Z" fill="hsl(339.7 64.3% 39.7%)"/><path d="M0 900 L0 545.5 Q0.0 545.5 53.3 567.7 Q106.7 589.8 160.0 603.2 Q213.3 616.7 266.7 645.6 Q320.0 674.5 373.3 657.9 Q426.7 641.2 480.0 626.4 Q533.3 611.7 586.7 601.0 Q640.0 590.4 693.3 590.2 Q746.7 590.0 800.0 590.4 Q853.3 590.8 906.7 562.6 Q960.0 534.3 1013.3 538.5 Q1066.7 542.7 1120.0 546.1 Q1173.3 549.5 1226.7 590.5 Q1280.0 631.6 1333.3 635.6 Q1386.7 639.5 1440.0 641.1 Q1493.3 642.6 1546.7 628.2 L1600 613.7 L1600 900 Z" fill="hsl(324.2 54.9% 33.1%)"/><path d="M0 900 L0 667.1 Q0.0 667.1 47.1 682.2 Q94.1 697.3 141.2 689.9 Q188.2 682.4 235.3 678.5 Q282.4 674.5 329.4 656.3 Q376.5 638.1 423.5 615.8 Q470.6 593.6 517.6 602.4 Q564.7 611.3 611.8 612.4 Q658.8 613.5 705.9 617.1 Q752.9 620.7 800.0 625.2 Q847.1 629.7 894.1 625.1 Q941.2 620.5 988.2 611.4 Q1035.3 602.2 1082.4 614.5 Q1129.4 626.9 1176.5 650.1 Q1223.5 673.3 1270.6 678.2 Q1317.6 683.2 1364.7 690.2 Q1411.8 697.3 1458.8 690.3 Q1505.9 683.4 1552.9 657.3 L1600 631.3 L1600 900 Z" fill="hsl(304.3 42.8% 24.5%)"/><path d="M0 900 L0 709.3 Q0.0 709.3 40.0 713.2 Q80.0 717.1 120.0 721.2 Q160.0 725.2 200.0 703.9 Q240.0 682.7 280.0 670.2 Q320.0 657.7 360.0 657.1 Q400.0 656.4 440.0 650.7 Q480.0 644.9 520.0 633.6 Q560.0 622.3 600.0 634.8 Q640.0 647.3 680.0 662.5 Q720.0 677.6 760.0 688.8 Q800.0 699.9 840.0 700.5 Q880.0 701.1 920.0 706.5 Q960.0 711.9 1000.0 710.5 Q1040.0 709.1 1080.0 694.6 Q1120.0 680.1 1160.0 683.8 Q1200.0 687.4 1240.0 697.1 Q1280.0 706.7 1320.0 706.4 Q1360.0 706.1 1400.0 691.9 Q1440.0 677.8 1480.0 674.2 Q1520.0 670.7 1560.0 666.6 L1600 662.5 L1600 900 Z" fill="hsl(280.0 28.0% 14.0%)"/><rect width="1600" height="900" fill="url(#gejxk59-vig)"/></svg>